<?xml version="1.0" encoding="UTF-8" standalone="no"?>
<!DOCTYPE svg PUBLIC "-//W3C//DTD SVG 1.1//EN"
 "http://www.w3.org/Graphics/SVG/1.1/DTD/svg11.dtd">
<!-- Generated by graphviz version 2.34.0 (20131206.1153)
 -->
<!-- Title: /Users/lossius/dev/spatdiflib/examples/FileWithExtension.cpp Pages: 1 -->
<svg width="926pt" height="498pt"
 viewBox="0.00 0.00 926.00 498.00" xmlns="http://www.w3.org/2000/svg" xmlns:xlink="http://www.w3.org/1999/xlink">
<g id="graph0" class="graph" transform="scale(1 1) rotate(0) translate(4 494)">
<title>/Users/lossius/dev/spatdiflib/examples/FileWithExtension.cpp</title>
<polygon fill="white" stroke="white" points="-4,4 -4,-494 922,-494 922,4 -4,4"/>
<!-- Node1 -->
<g id="node1" class="node"><title>Node1</title>
<polygon fill="#bfbfbf" stroke="black" points="462.5,-448.5 462.5,-489.5 575.5,-489.5 575.5,-448.5 462.5,-448.5"/>
<text text-anchor="start" x="470.5" y="-477.5" font-family="Helvetica,sans-Serif" font-size="10.00">/Users/lossius/dev</text>
<text text-anchor="start" x="470.5" y="-466.5" font-family="Helvetica,sans-Serif" font-size="10.00">/spatdiflib/examples</text>
<text text-anchor="middle" x="519" y="-455.5" font-family="Helvetica,sans-Serif" font-size="10.00">/FileWithExtension.cpp</text>
</g>
<!-- Node2 -->
<g id="node2" class="node"><title>Node2</title>
<polygon fill="white" stroke="#bfbfbf" points="662,-0.5 662,-19.5 700,-19.5 700,-0.5 662,-0.5"/>
<text text-anchor="middle" x="681" y="-7.5" font-family="Helvetica,sans-Serif" font-size="10.00">string</text>
</g>
<!-- Node1&#45;&gt;Node2 -->
<g id="edge1" class="edge"><title>Node1&#45;&gt;Node2</title>
<path fill="none" stroke="midnightblue" d="M575.743,-462.731C685.9,-450.925 918,-417.667 918,-347 918,-347 918,-347 918,-121 918,-30.5211 774.125,-14.2572 710.574,-11.4866"/>
<polygon fill="midnightblue" stroke="midnightblue" points="710.511,-7.98229 700.395,-11.1294 710.266,-14.978 710.511,-7.98229"/>
</g>
<!-- Node3 -->
<g id="node3" class="node"><title>Node3</title>
<polygon fill="white" stroke="#bfbfbf" points="360,-0.5 360,-19.5 412,-19.5 412,-0.5 360,-0.5"/>
<text text-anchor="middle" x="386" y="-7.5" font-family="Helvetica,sans-Serif" font-size="10.00">iostream</text>
</g>
<!-- Node1&#45;&gt;Node3 -->
<g id="edge2" class="edge"><title>Node1&#45;&gt;Node3</title>
<path fill="none" stroke="midnightblue" d="M462.47,-466.698C327.957,-462.072 0,-441.14 0,-347 0,-347 0,-347 0,-177 0,-25.6529 253.529,-10.5903 349.648,-10.3181"/>
<polygon fill="midnightblue" stroke="midnightblue" points="349.763,-13.8183 359.772,-10.3435 349.781,-6.81837 349.763,-13.8183"/>
</g>
<!-- Node4 -->
<g id="node4" class="node"><title>Node4</title>
<polygon fill="white" stroke="#bfbfbf" points="530.5,-392.5 530.5,-411.5 577.5,-411.5 577.5,-392.5 530.5,-392.5"/>
<text text-anchor="middle" x="554" y="-399.5" font-family="Helvetica,sans-Serif" font-size="10.00">fstream</text>
</g>
<!-- Node1&#45;&gt;Node4 -->
<g id="edge3" class="edge"><title>Node1&#45;&gt;Node4</title>
<path fill="none" stroke="midnightblue" d="M529.501,-448.498C534.3,-439.586 539.939,-429.113 544.597,-420.464"/>
<polygon fill="midnightblue" stroke="midnightblue" points="547.682,-422.117 549.341,-411.652 541.518,-418.798 547.682,-422.117"/>
</g>
<!-- Node5 -->
<g id="node5" class="node"><title>Node5</title>
<g id="a_node5"><a xlink:href="sd_main_8h.html" target="_top" xlink:title="sdMain.h">
<polygon fill="white" stroke="black" points="456,-392.5 456,-411.5 512,-411.5 512,-392.5 456,-392.5"/>
<text text-anchor="middle" x="484" y="-399.5" font-family="Helvetica,sans-Serif" font-size="10.00">sdMain.h</text>
</a>
</g>
</g>
<!-- Node1&#45;&gt;Node5 -->
<g id="edge4" class="edge"><title>Node1&#45;&gt;Node5</title>
<path fill="none" stroke="midnightblue" d="M508.499,-448.498C503.7,-439.586 498.061,-429.113 493.403,-420.464"/>
<polygon fill="midnightblue" stroke="midnightblue" points="496.482,-418.798 488.659,-411.652 490.318,-422.117 496.482,-418.798"/>
</g>
<!-- Node6 -->
<g id="node6" class="node"><title>Node6</title>
<g id="a_node6"><a xlink:href="sd_const_8h.html" target="_top" xlink:title="sdConst.h">
<polygon fill="white" stroke="black" points="356,-56.5 356,-75.5 416,-75.5 416,-56.5 356,-56.5"/>
<text text-anchor="middle" x="386" y="-63.5" font-family="Helvetica,sans-Serif" font-size="10.00">sdConst.h</text>
</a>
</g>
</g>
<!-- Node5&#45;&gt;Node6 -->
<g id="edge5" class="edge"><title>Node5&#45;&gt;Node6</title>
<path fill="none" stroke="midnightblue" d="M455.957,-399.508C363.778,-393.848 76,-369.865 76,-291 76,-291 76,-291 76,-177 76,-146.902 72.3707,-131.844 95,-112 131.559,-79.9403 274.475,-70.6788 345.491,-68.0362"/>
<polygon fill="midnightblue" stroke="midnightblue" points="345.962,-71.5221 355.835,-67.6793 345.721,-64.5262 345.962,-71.5221"/>
</g>
<!-- Node8 -->
<g id="node8" class="node"><title>Node8</title>
<g id="a_node8"><a xlink:href="sd_date_8h.html" target="_top" xlink:title="sdDate.h">
<polygon fill="white" stroke="black" points="108,-168.5 108,-187.5 164,-187.5 164,-168.5 108,-168.5"/>
<text text-anchor="middle" x="136" y="-175.5" font-family="Helvetica,sans-Serif" font-size="10.00">sdDate.h</text>
</a>
</g>
</g>
<!-- Node5&#45;&gt;Node8 -->
<g id="edge9" class="edge"><title>Node5&#45;&gt;Node8</title>
<path fill="none" stroke="midnightblue" d="M462.131,-392.371C411.71,-371.808 284.823,-316.196 196,-244 178.038,-229.401 160.429,-209.461 148.983,-195.531"/>
<polygon fill="midnightblue" stroke="midnightblue" points="151.703,-193.328 142.705,-187.735 146.251,-197.718 151.703,-193.328"/>
</g>
<!-- Node11 -->
<g id="node11" class="node"><title>Node11</title>
<g id="a_node11"><a xlink:href="sd_entity_8h.html" target="_top" xlink:title="sdEntity.h">
<polygon fill="white" stroke="black" points="604,-112.5 604,-131.5 662,-131.5 662,-112.5 604,-112.5"/>
<text text-anchor="middle" x="633" y="-119.5" font-family="Helvetica,sans-Serif" font-size="10.00">sdEntity.h</text>
</a>
</g>
</g>
<!-- Node5&#45;&gt;Node11 -->
<g id="edge14" class="edge"><title>Node5&#45;&gt;Node11</title>
<path fill="none" stroke="midnightblue" d="M512.099,-393.925C551.242,-383.791 618.179,-365.337 625,-356 660.043,-308.032 595.722,-282.825 604,-224 608.161,-194.429 618.857,-161.381 626.03,-141.392"/>
<polygon fill="midnightblue" stroke="midnightblue" points="629.415,-142.329 629.589,-131.736 622.847,-139.909 629.415,-142.329"/>
</g>
<!-- Node13 -->
<g id="node13" class="node"><title>Node13</title>
<g id="a_node13"><a xlink:href="sd_entity_core_8h.html" target="_top" xlink:title="sdEntityCore.h">
<polygon fill="white" stroke="black" points="613,-224.5 613,-243.5 691,-243.5 691,-224.5 613,-224.5"/>
<text text-anchor="middle" x="652" y="-231.5" font-family="Helvetica,sans-Serif" font-size="10.00">sdEntityCore.h</text>
</a>
</g>
</g>
<!-- Node5&#45;&gt;Node13 -->
<g id="edge19" class="edge"><title>Node5&#45;&gt;Node13</title>
<path fill="none" stroke="midnightblue" d="M512.207,-393.77C515.166,-393.122 518.137,-392.517 521,-392 587.511,-379.991 778.127,-406.54 823,-356 867.465,-305.92 759.479,-265.278 695.359,-246.41"/>
<polygon fill="midnightblue" stroke="midnightblue" points="696.052,-242.967 685.474,-243.57 694.119,-249.695 696.052,-242.967"/>
</g>
<!-- Node14 -->
<g id="node14" class="node"><title>Node14</title>
<g id="a_node14"><a xlink:href="sd_entity_extension_8h.html" target="_top" xlink:title="sdEntityExtension.h">
<polygon fill="white" stroke="black" points="448,-168.5 448,-187.5 548,-187.5 548,-168.5 448,-168.5"/>
<text text-anchor="middle" x="498" y="-175.5" font-family="Helvetica,sans-Serif" font-size="10.00">sdEntityExtension.h</text>
</a>
</g>
</g>
<!-- Node5&#45;&gt;Node14 -->
<g id="edge29" class="edge"><title>Node5&#45;&gt;Node14</title>
<path fill="none" stroke="midnightblue" d="M484.549,-392.297C486.609,-359.633 493.909,-243.866 496.804,-197.957"/>
<polygon fill="midnightblue" stroke="midnightblue" points="500.303,-198.084 497.44,-187.884 493.317,-197.644 500.303,-198.084"/>
</g>
<!-- Node15 -->
<g id="node15" class="node"><title>Node15</title>
<g id="a_node15"><a xlink:href="sd_entity_extension_media_8h.html" target="_top" xlink:title="sdEntityExtensionMedia.h">
<polygon fill="white" stroke="black" points="311,-224.5 311,-243.5 437,-243.5 437,-224.5 311,-224.5"/>
<text text-anchor="middle" x="374" y="-231.5" font-family="Helvetica,sans-Serif" font-size="10.00">sdEntityExtensionMedia.h</text>
</a>
</g>
</g>
<!-- Node5&#45;&gt;Node15 -->
<g id="edge30" class="edge"><title>Node5&#45;&gt;Node15</title>
<path fill="none" stroke="midnightblue" d="M471.128,-392.22C459.71,-383.928 443.159,-370.612 432,-356 406.997,-323.261 388.862,-278.018 380.036,-253.166"/>
<polygon fill="midnightblue" stroke="midnightblue" points="383.301,-251.896 376.738,-243.579 376.682,-254.173 383.301,-251.896"/>
</g>
<!-- Node16 -->
<g id="node16" class="node"><title>Node16</title>
<g id="a_node16"><a xlink:href="sd_info_8h.html" target="_top" xlink:title="sdInfo.h">
<polygon fill="white" stroke="black" points="205,-224.5 205,-243.5 255,-243.5 255,-224.5 205,-224.5"/>
<text text-anchor="middle" x="230" y="-231.5" font-family="Helvetica,sans-Serif" font-size="10.00">sdInfo.h</text>
</a>
</g>
</g>
<!-- Node5&#45;&gt;Node16 -->
<g id="edge34" class="edge"><title>Node5&#45;&gt;Node16</title>
<path fill="none" stroke="midnightblue" d="M470.769,-392.378C456.877,-383.324 434.398,-368.669 415,-356 355.965,-317.444 286.379,-271.906 251.794,-249.268"/>
<polygon fill="midnightblue" stroke="midnightblue" points="253.289,-246.063 243.005,-243.514 249.455,-251.92 253.289,-246.063"/>
</g>
<!-- Node17 -->
<g id="node17" class="node"><title>Node17</title>
<g id="a_node17"><a xlink:href="sd_loader_8h.html" target="_top" xlink:title="sdLoader.h">
<polygon fill="white" stroke="black" points="750,-336.5 750,-355.5 814,-355.5 814,-336.5 750,-336.5"/>
<text text-anchor="middle" x="782" y="-343.5" font-family="Helvetica,sans-Serif" font-size="10.00">sdLoader.h</text>
</a>
</g>
</g>
<!-- Node5&#45;&gt;Node17 -->
<g id="edge39" class="edge"><title>Node5&#45;&gt;Node17</title>
<path fill="none" stroke="midnightblue" d="M512.232,-393.898C515.186,-393.225 518.149,-392.579 521,-392 614.966,-372.913 641.965,-374.5 739.791,-356.141"/>
<polygon fill="midnightblue" stroke="midnightblue" points="740.634,-359.544 749.805,-354.239 739.327,-352.666 740.634,-359.544"/>
</g>
<!-- Node18 -->
<g id="node18" class="node"><title>Node18</title>
<g id="a_node18"><a xlink:href="sd_scene_8h.html" target="_top" xlink:title="sdScene.h">
<polygon fill="white" stroke="black" points="514,-280.5 514,-299.5 576,-299.5 576,-280.5 514,-280.5"/>
<text text-anchor="middle" x="545" y="-287.5" font-family="Helvetica,sans-Serif" font-size="10.00">sdScene.h</text>
</a>
</g>
</g>
<!-- Node5&#45;&gt;Node18 -->
<g id="edge54" class="edge"><title>Node5&#45;&gt;Node18</title>
<path fill="none" stroke="midnightblue" d="M485.261,-392.078C487.389,-379.054 492.528,-354.39 503,-336 509.252,-325.022 518.686,-314.586 527.03,-306.534"/>
<polygon fill="midnightblue" stroke="midnightblue" points="529.571,-308.952 534.557,-299.603 524.83,-303.802 529.571,-308.952"/>
</g>
<!-- Node19 -->
<g id="node19" class="node"><title>Node19</title>
<g id="a_node19"><a xlink:href="sd_o_s_c_responder_8h.html" target="_top" xlink:title="sdOSCResponder.h">
<polygon fill="white" stroke="black" points="512,-336.5 512,-355.5 616,-355.5 616,-336.5 512,-336.5"/>
<text text-anchor="middle" x="564" y="-343.5" font-family="Helvetica,sans-Serif" font-size="10.00">sdOSCResponder.h</text>
</a>
</g>
</g>
<!-- Node5&#45;&gt;Node19 -->
<g id="edge48" class="edge"><title>Node5&#45;&gt;Node19</title>
<path fill="none" stroke="midnightblue" d="M496.853,-392.324C509.216,-383.979 528.13,-371.212 542.737,-361.352"/>
<polygon fill="midnightblue" stroke="midnightblue" points="544.848,-364.15 551.179,-355.655 540.932,-358.348 544.848,-364.15"/>
</g>
<!-- Node20 -->
<g id="node20" class="node"><title>Node20</title>
<g id="a_node20"><a xlink:href="sd_saver_8h.html" target="_top" xlink:title="sdSaver.h">
<polygon fill="white" stroke="black" points="672,-336.5 672,-355.5 732,-355.5 732,-336.5 672,-336.5"/>
<text text-anchor="middle" x="702" y="-343.5" font-family="Helvetica,sans-Serif" font-size="10.00">sdSaver.h</text>
</a>
</g>
</g>
<!-- Node5&#45;&gt;Node20 -->
<g id="edge51" class="edge"><title>Node5&#45;&gt;Node20</title>
<path fill="none" stroke="midnightblue" d="M512.053,-394.051C550.167,-384.61 618.53,-367.676 662.009,-356.906"/>
<polygon fill="midnightblue" stroke="midnightblue" points="663.093,-360.243 671.958,-354.442 661.41,-353.449 663.093,-360.243"/>
</g>
<!-- Node6&#45;&gt;Node2 -->
<g id="edge6" class="edge"><title>Node6&#45;&gt;Node2</title>
<path fill="none" stroke="midnightblue" d="M416.184,-59.4748C473.16,-49.0454 595.857,-26.5855 651.949,-16.3179"/>
<polygon fill="midnightblue" stroke="midnightblue" points="652.722,-19.7345 661.929,-14.491 651.462,-12.8489 652.722,-19.7345"/>
</g>
<!-- Node6&#45;&gt;Node3 -->
<g id="edge7" class="edge"><title>Node6&#45;&gt;Node3</title>
<path fill="none" stroke="midnightblue" d="M386,-56.083C386,-49.0059 386,-38.8611 386,-29.9865"/>
<polygon fill="midnightblue" stroke="midnightblue" points="389.5,-29.751 386,-19.7511 382.5,-29.7511 389.5,-29.751"/>
</g>
<!-- Node7 -->
<g id="node7" class="node"><title>Node7</title>
<polygon fill="white" stroke="#bfbfbf" points="153,-0.5 153,-19.5 203,-19.5 203,-0.5 153,-0.5"/>
<text text-anchor="middle" x="178" y="-7.5" font-family="Helvetica,sans-Serif" font-size="10.00">sstream</text>
</g>
<!-- Node6&#45;&gt;Node7 -->
<g id="edge8" class="edge"><title>Node6&#45;&gt;Node7</title>
<path fill="none" stroke="midnightblue" d="M355.755,-57.1479C317.819,-47.2992 252.908,-30.4474 212.905,-20.0619"/>
<polygon fill="midnightblue" stroke="midnightblue" points="213.618,-16.6309 203.059,-17.5057 211.859,-23.4063 213.618,-16.6309"/>
</g>
<!-- Node8&#45;&gt;Node2 -->
<g id="edge12" class="edge"><title>Node8&#45;&gt;Node2</title>
<path fill="none" stroke="midnightblue" d="M138.876,-168.399C147.506,-143.135 173.827,-70.0385 194,-56 231.618,-29.821 552.184,-15.7916 651.674,-12.0392"/>
<polygon fill="midnightblue" stroke="midnightblue" points="652.04,-15.5281 661.904,-11.6605 651.781,-8.53294 652.04,-15.5281"/>
</g>
<!-- Node8&#45;&gt;Node7 -->
<g id="edge13" class="edge"><title>Node8&#45;&gt;Node7</title>
<path fill="none" stroke="midnightblue" d="M124.459,-168.49C114.521,-160.379 100.878,-147.178 95,-132 91.7901,-123.711 92.0027,-120.368 95,-112 107.78,-76.3192 139.204,-44.2118 159.511,-26.1984"/>
<polygon fill="midnightblue" stroke="midnightblue" points="161.9,-28.7604 167.194,-19.583 157.332,-23.456 161.9,-28.7604"/>
</g>
<!-- Node9 -->
<g id="node9" class="node"><title>Node9</title>
<polygon fill="white" stroke="#bfbfbf" points="274.5,-112.5 274.5,-131.5 315.5,-131.5 315.5,-112.5 274.5,-112.5"/>
<text text-anchor="middle" x="295" y="-119.5" font-family="Helvetica,sans-Serif" font-size="10.00">vector</text>
</g>
<!-- Node8&#45;&gt;Node9 -->
<g id="edge10" class="edge"><title>Node8&#45;&gt;Node9</title>
<path fill="none" stroke="midnightblue" d="M161.194,-168.444C189.359,-158.878 234.942,-143.397 264.945,-133.207"/>
<polygon fill="midnightblue" stroke="midnightblue" points="266.131,-136.501 274.474,-129.971 263.88,-129.873 266.131,-136.501"/>
</g>
<!-- Node10 -->
<g id="node10" class="node"><title>Node10</title>
<polygon fill="white" stroke="#bfbfbf" points="104,-112.5 104,-131.5 142,-131.5 142,-112.5 104,-112.5"/>
<text text-anchor="middle" x="123" y="-119.5" font-family="Helvetica,sans-Serif" font-size="10.00">ctime</text>
</g>
<!-- Node8&#45;&gt;Node10 -->
<g id="edge11" class="edge"><title>Node8&#45;&gt;Node10</title>
<path fill="none" stroke="midnightblue" d="M133.853,-168.083C132.131,-160.927 129.653,-150.635 127.5,-141.691"/>
<polygon fill="midnightblue" stroke="midnightblue" points="130.85,-140.654 125.107,-131.751 124.045,-142.293 130.85,-140.654"/>
</g>
<!-- Node11&#45;&gt;Node2 -->
<g id="edge16" class="edge"><title>Node11&#45;&gt;Node2</title>
<path fill="none" stroke="midnightblue" d="M635.956,-112.47C640.373,-99.9347 649.129,-75.8731 658,-56 662.068,-46.8865 667.062,-36.9874 671.356,-28.8001"/>
<polygon fill="midnightblue" stroke="midnightblue" points="674.522,-30.3013 676.137,-19.8303 668.344,-27.0087 674.522,-30.3013"/>
</g>
<!-- Node11&#45;&gt;Node3 -->
<g id="edge17" class="edge"><title>Node11&#45;&gt;Node3</title>
<path fill="none" stroke="midnightblue" d="M613.618,-112.368C570.331,-93.0908 465.61,-46.4536 414.718,-23.7894"/>
<polygon fill="midnightblue" stroke="midnightblue" points="415.851,-20.4624 405.292,-19.5914 413.003,-26.857 415.851,-20.4624"/>
</g>
<!-- Node11&#45;&gt;Node6 -->
<g id="edge18" class="edge"><title>Node11&#45;&gt;Node6</title>
<path fill="none" stroke="midnightblue" d="M603.696,-114.593C559.554,-104.943 475.884,-86.6508 426.115,-75.7702"/>
<polygon fill="midnightblue" stroke="midnightblue" points="426.553,-72.2833 416.036,-73.5666 425.058,-79.1217 426.553,-72.2833"/>
</g>
<!-- Node12 -->
<g id="node12" class="node"><title>Node12</title>
<polygon fill="white" stroke="#bfbfbf" points="667.5,-56.5 667.5,-75.5 696.5,-75.5 696.5,-56.5 667.5,-56.5"/>
<text text-anchor="middle" x="682" y="-63.5" font-family="Helvetica,sans-Serif" font-size="10.00">set</text>
</g>
<!-- Node11&#45;&gt;Node12 -->
<g id="edge15" class="edge"><title>Node11&#45;&gt;Node12</title>
<path fill="none" stroke="midnightblue" d="M641.091,-112.083C648.155,-104.298 658.588,-92.8015 667.149,-83.3665"/>
<polygon fill="midnightblue" stroke="midnightblue" points="669.931,-85.5087 674.059,-75.7511 664.747,-80.8047 669.931,-85.5087"/>
</g>
<!-- Node13&#45;&gt;Node2 -->
<g id="edge21" class="edge"><title>Node13&#45;&gt;Node2</title>
<path fill="none" stroke="midnightblue" d="M657.695,-224.373C663.296,-215.553 671.749,-201.3 677,-188 695.843,-140.275 698.731,-126.925 705,-76 706.086,-67.1777 707.156,-64.6235 705,-56 702.561,-46.2452 697.563,-36.2896 692.757,-28.231"/>
<polygon fill="midnightblue" stroke="midnightblue" points="695.691,-26.3225 687.367,-19.768 689.787,-30.0828 695.691,-26.3225"/>
</g>
<!-- Node13&#45;&gt;Node6 -->
<g id="edge22" class="edge"><title>Node13&#45;&gt;Node6</title>
<path fill="none" stroke="midnightblue" d="M639.877,-224.322C621.985,-211.603 587.347,-187.314 557,-168 505.64,-135.312 443.78,-99.6677 410.337,-80.6954"/>
<polygon fill="midnightblue" stroke="midnightblue" points="411.729,-77.4614 401.302,-75.5833 408.282,-83.5539 411.729,-77.4614"/>
</g>
<!-- Node13&#45;&gt;Node11 -->
<g id="edge23" class="edge"><title>Node13&#45;&gt;Node11</title>
<path fill="none" stroke="midnightblue" d="M650.509,-224.368C647.443,-206.617 640.37,-165.666 636.212,-141.597"/>
<polygon fill="midnightblue" stroke="midnightblue" points="639.635,-140.85 634.484,-131.591 632.737,-142.041 639.635,-140.85"/>
</g>
<!-- Node13&#45;&gt;Node12 -->
<g id="edge20" class="edge"><title>Node13&#45;&gt;Node12</title>
<path fill="none" stroke="midnightblue" d="M653.68,-224.363C657.06,-206.924 664.881,-166.25 671,-132 673.771,-116.489 676.743,-98.8623 678.898,-85.8817"/>
<polygon fill="midnightblue" stroke="midnightblue" points="682.38,-86.2769 680.557,-75.8403 675.474,-85.1363 682.38,-86.2769"/>
</g>
<!-- Node13&#45;&gt;Node14 -->
<g id="edge24" class="edge"><title>Node13&#45;&gt;Node14</title>
<path fill="none" stroke="midnightblue" d="M627.598,-224.444C601.803,-215.399 560.923,-201.064 531.982,-190.916"/>
<polygon fill="midnightblue" stroke="midnightblue" points="532.882,-187.523 522.288,-187.516 530.566,-194.128 532.882,-187.523"/>
</g>
<!-- Node14&#45;&gt;Node2 -->
<g id="edge25" class="edge"><title>Node14&#45;&gt;Node2</title>
<path fill="none" stroke="midnightblue" d="M507.581,-168.309C536.981,-141.64 626.193,-60.7157 663.892,-26.5186"/>
<polygon fill="midnightblue" stroke="midnightblue" points="666.458,-28.9162 671.514,-19.6051 661.755,-23.7315 666.458,-28.9162"/>
</g>
<!-- Node14&#45;&gt;Node6 -->
<g id="edge27" class="edge"><title>Node14&#45;&gt;Node6</title>
<path fill="none" stroke="midnightblue" d="M489.212,-168.368C470.401,-149.894 426.007,-106.293 402.03,-82.7436"/>
<polygon fill="midnightblue" stroke="midnightblue" points="404.335,-80.1015 394.748,-75.5914 399.43,-85.0956 404.335,-80.1015"/>
</g>
<!-- Node14&#45;&gt;Node9 -->
<g id="edge26" class="edge"><title>Node14&#45;&gt;Node9</title>
<path fill="none" stroke="midnightblue" d="M465.834,-168.444C427.308,-158.195 363.255,-141.156 325.489,-131.11"/>
<polygon fill="midnightblue" stroke="midnightblue" points="326.14,-127.662 315.577,-128.474 324.341,-134.427 326.14,-127.662"/>
</g>
<!-- Node14&#45;&gt;Node11 -->
<g id="edge28" class="edge"><title>Node14&#45;&gt;Node11</title>
<path fill="none" stroke="midnightblue" d="M519.391,-168.444C541.707,-159.517 576.903,-145.439 602.208,-135.317"/>
<polygon fill="midnightblue" stroke="midnightblue" points="603.724,-138.48 611.709,-131.516 601.124,-131.981 603.724,-138.48"/>
</g>
<!-- Node15&#45;&gt;Node2 -->
<g id="edge31" class="edge"><title>Node15&#45;&gt;Node2</title>
<path fill="none" stroke="midnightblue" d="M381.511,-224.447C393.132,-211.464 416.488,-186.353 439,-168 513.108,-107.583 611.277,-49.96 656.401,-24.5669"/>
<polygon fill="midnightblue" stroke="midnightblue" points="658.177,-27.5837 665.197,-19.648 654.76,-21.4741 658.177,-27.5837"/>
</g>
<!-- Node15&#45;&gt;Node6 -->
<g id="edge32" class="edge"><title>Node15&#45;&gt;Node6</title>
<path fill="none" stroke="midnightblue" d="M372.509,-224.407C371.024,-215.376 368.846,-200.74 368,-188 365.76,-154.25 365.729,-145.238 372,-112 373.687,-103.055 376.552,-93.3867 379.252,-85.3123"/>
<polygon fill="midnightblue" stroke="midnightblue" points="382.578,-86.4061 382.594,-75.8113 375.974,-84.0834 382.578,-86.4061"/>
</g>
<!-- Node15&#45;&gt;Node14 -->
<g id="edge33" class="edge"><title>Node15&#45;&gt;Node14</title>
<path fill="none" stroke="midnightblue" d="M393.648,-224.444C413.965,-215.596 445.903,-201.687 469.098,-191.586"/>
<polygon fill="midnightblue" stroke="midnightblue" points="470.673,-194.718 478.444,-187.516 467.878,-188.3 470.673,-194.718"/>
</g>
<!-- Node16&#45;&gt;Node2 -->
<g id="edge35" class="edge"><title>Node16&#45;&gt;Node2</title>
<path fill="none" stroke="midnightblue" d="M228.54,-224.209C225.454,-202.483 220.639,-145.593 248,-112 279.924,-72.8042 299.084,-72.1106 347,-56 455.335,-19.5747 592.811,-12.537 651.878,-11.247"/>
<polygon fill="midnightblue" stroke="midnightblue" points="652.033,-14.7449 661.969,-11.0672 651.909,-7.74596 652.033,-14.7449"/>
</g>
<!-- Node16&#45;&gt;Node6 -->
<g id="edge37" class="edge"><title>Node16&#45;&gt;Node6</title>
<path fill="none" stroke="midnightblue" d="M229.983,-224.419C230.405,-202.683 234.503,-144.858 265,-112 285.998,-89.3767 319.422,-78.0712 345.825,-72.4537"/>
<polygon fill="midnightblue" stroke="midnightblue" points="346.768,-75.8364 355.923,-70.5041 345.441,-68.9633 346.768,-75.8364"/>
</g>
<!-- Node16&#45;&gt;Node8 -->
<g id="edge38" class="edge"><title>Node16&#45;&gt;Node8</title>
<path fill="none" stroke="midnightblue" d="M214.897,-224.324C200.097,-215.822 177.306,-202.729 160.018,-192.797"/>
<polygon fill="midnightblue" stroke="midnightblue" points="161.48,-189.601 151.065,-187.655 157.993,-195.671 161.48,-189.601"/>
</g>
<!-- Node16&#45;&gt;Node9 -->
<g id="edge36" class="edge"><title>Node16&#45;&gt;Node9</title>
<path fill="none" stroke="midnightblue" d="M235.1,-224.368C245.78,-206.296 270.668,-164.176 284.773,-140.307"/>
<polygon fill="midnightblue" stroke="midnightblue" points="287.849,-141.981 289.923,-131.591 281.823,-138.42 287.849,-141.981"/>
</g>
<!-- Node17&#45;&gt;Node2 -->
<g id="edge40" class="edge"><title>Node17&#45;&gt;Node2</title>
<path fill="none" stroke="midnightblue" d="M798.624,-336.273C826.584,-320.26 880,-283.34 880,-235 880,-235 880,-235 880,-121 880,-44.393 765.645,-20.7194 710.31,-13.7484"/>
<polygon fill="midnightblue" stroke="midnightblue" points="710.417,-10.2375 700.081,-12.5661 709.613,-17.1912 710.417,-10.2375"/>
</g>
<!-- Node17&#45;&gt;Node18 -->
<g id="edge41" class="edge"><title>Node17&#45;&gt;Node18</title>
<path fill="none" stroke="midnightblue" d="M749.543,-337.605C707.113,-327.937 632.753,-310.994 586.337,-300.419"/>
<polygon fill="midnightblue" stroke="midnightblue" points="586.839,-296.943 576.311,-298.134 585.284,-303.768 586.839,-296.943"/>
</g>
<!-- Node18&#45;&gt;Node2 -->
<g id="edge42" class="edge"><title>Node18&#45;&gt;Node2</title>
<path fill="none" stroke="midnightblue" d="M576.048,-281.901C614.92,-272.686 678.968,-256.327 700,-244 735.519,-223.181 766,-220.171 766,-179 766,-179 766,-179 766,-121 766,-79.765 728.139,-44.5737 702.953,-25.7262"/>
<polygon fill="midnightblue" stroke="midnightblue" points="704.818,-22.7563 694.657,-19.758 700.731,-28.4388 704.818,-22.7563"/>
</g>
<!-- Node18&#45;&gt;Node6 -->
<g id="edge44" class="edge"><title>Node18&#45;&gt;Node6</title>
<path fill="none" stroke="midnightblue" d="M533.358,-280.463C512.153,-264.413 466.861,-227.761 439,-188 415.832,-154.937 399.465,-110.129 391.501,-85.3631"/>
<polygon fill="midnightblue" stroke="midnightblue" points="394.749,-84.0197 388.439,-75.5088 388.064,-86.097 394.749,-84.0197"/>
</g>
<!-- Node18&#45;&gt;Node9 -->
<g id="edge43" class="edge"><title>Node18&#45;&gt;Node9</title>
<path fill="none" stroke="midnightblue" d="M513.988,-287.853C454.884,-284.961 329.528,-275.213 302,-244 277.034,-215.692 283.618,-167.648 289.796,-141.423"/>
<polygon fill="midnightblue" stroke="midnightblue" points="293.21,-142.199 292.326,-131.641 286.433,-140.447 293.21,-142.199"/>
</g>
<!-- Node18&#45;&gt;Node13 -->
<g id="edge46" class="edge"><title>Node18&#45;&gt;Node13</title>
<path fill="none" stroke="midnightblue" d="M562.191,-280.324C579.351,-271.664 605.946,-258.242 625.747,-248.249"/>
<polygon fill="midnightblue" stroke="midnightblue" points="627.501,-251.285 634.851,-243.655 624.347,-245.035 627.501,-251.285"/>
</g>
<!-- Node18&#45;&gt;Node14 -->
<g id="edge47" class="edge"><title>Node18&#45;&gt;Node14</title>
<path fill="none" stroke="midnightblue" d="M541.312,-280.368C533.659,-262.456 515.913,-220.923 505.669,-196.948"/>
<polygon fill="midnightblue" stroke="midnightblue" points="508.819,-195.412 501.671,-187.591 502.382,-198.162 508.819,-195.412"/>
</g>
<!-- Node18&#45;&gt;Node16 -->
<g id="edge45" class="edge"><title>Node18&#45;&gt;Node16</title>
<path fill="none" stroke="midnightblue" d="M513.838,-284.596C462.587,-277.201 357.366,-261.381 269,-244 267.734,-243.751 266.447,-243.491 265.148,-243.222"/>
<polygon fill="midnightblue" stroke="midnightblue" points="265.638,-239.747 255.124,-241.051 264.156,-246.589 265.638,-239.747"/>
</g>
<!-- Node19&#45;&gt;Node2 -->
<g id="edge50" class="edge"><title>Node19&#45;&gt;Node2</title>
<path fill="none" stroke="midnightblue" d="M604.985,-336.449C673.532,-319.481 804,-274.625 804,-179 804,-179 804,-179 804,-121 804,-70.7229 746.193,-37.6832 709.838,-21.8758"/>
<polygon fill="midnightblue" stroke="midnightblue" points="710.796,-18.4836 700.219,-17.8742 708.107,-24.9467 710.796,-18.4836"/>
</g>
<!-- Node19&#45;&gt;Node18 -->
<g id="edge49" class="edge"><title>Node19&#45;&gt;Node18</title>
<path fill="none" stroke="midnightblue" d="M560.863,-336.083C558.317,-328.849 554.644,-318.409 551.473,-309.397"/>
<polygon fill="midnightblue" stroke="midnightblue" points="554.7,-308.023 548.079,-299.751 548.097,-310.346 554.7,-308.023"/>
</g>
<!-- Node20&#45;&gt;Node2 -->
<g id="edge52" class="edge"><title>Node20&#45;&gt;Node2</title>
<path fill="none" stroke="midnightblue" d="M717.517,-336.442C753.968,-315.07 842,-255.532 842,-179 842,-179 842,-179 842,-121 842,-90.2048 840.168,-77.3763 818,-56 788.5,-27.5526 740.708,-17.0863 710.081,-13.237"/>
<polygon fill="midnightblue" stroke="midnightblue" points="710.344,-9.74495 700.022,-12.1328 709.58,-16.7032 710.344,-9.74495"/>
</g>
<!-- Node20&#45;&gt;Node18 -->
<g id="edge53" class="edge"><title>Node20&#45;&gt;Node18</title>
<path fill="none" stroke="midnightblue" d="M677.123,-336.444C650.711,-327.359 608.785,-312.939 579.258,-302.783"/>
<polygon fill="midnightblue" stroke="midnightblue" points="580.355,-299.459 569.761,-299.516 578.079,-306.079 580.355,-299.459"/>
</g>
</g>
</svg>
