<?xml version="1.0" encoding="UTF-8" standalone="no"?>
<!DOCTYPE svg PUBLIC "-//W3C//DTD SVG 1.1//EN"
 "http://www.w3.org/Graphics/SVG/1.1/DTD/svg11.dtd">
<!-- Generated by graphviz version 2.34.0 (20131206.1153)
 -->
<!-- Title: main Pages: 1 -->
<svg width="552pt" height="698pt"
 viewBox="0.00 0.00 552.00 698.00" xmlns="http://www.w3.org/2000/svg" xmlns:xlink="http://www.w3.org/1999/xlink">
<g id="graph0" class="graph" transform="scale(1 1) rotate(0) translate(4 694)">
<title>main</title>
<polygon fill="white" stroke="white" points="-4,4 -4,-694 548,-694 548,4 -4,4"/>
<!-- Node1 -->
<g id="node1" class="node"><title>Node1</title>
<polygon fill="#bfbfbf" stroke="black" points="0.5,-474.5 0.5,-493.5 37.5,-493.5 37.5,-474.5 0.5,-474.5"/>
<text text-anchor="middle" x="19" y="-481.5" font-family="Helvetica,sans-Serif" font-size="10.00">main</text>
</g>
<!-- Node2 -->
<g id="node2" class="node"><title>Node2</title>
<g id="a_node2"><a xlink:href="classsd_loader.html#ab3d7cf4919f50673ec7f9649a9be09b1" target="_top" target="_top" xlink:title="sdLoader::sceneFromXML">
<polygon fill="white" stroke="black" points="76,-632.5 76,-651.5 202,-651.5 202,-632.5 76,-632.5"/>
<text text-anchor="middle" x="139" y="-639.5" font-family="Helvetica,sans-Serif" font-size="10.00">sdLoader::sceneFromXML</text>
</a>
</g>
</g>
<!-- Node1&#45;&gt;Node2 -->
<g id="edge1" class="edge"><title>Node1&#45;&gt;Node2</title>
<path fill="none" stroke="midnightblue" d="M27.3814,-493.884C46.7515,-519.82 99.2661,-590.136 124.33,-623.696"/>
<polygon fill="midnightblue" stroke="midnightblue" points="121.833,-626.202 130.621,-632.12 127.442,-622.014 121.833,-626.202"/>
</g>
<!-- Node5 -->
<g id="node5" class="node"><title>Node5</title>
<g id="a_node5"><a xlink:href="classsd_event.html#a2941bfbdbb11cb95d16bcbc50c19a161" target="_top" target="_top" xlink:title="sdEvent::getValueAsString">
<polygon fill="white" stroke="black" points="74.5,-474.5 74.5,-493.5 203.5,-493.5 203.5,-474.5 74.5,-474.5"/>
<text text-anchor="middle" x="139" y="-481.5" font-family="Helvetica,sans-Serif" font-size="10.00">sdEvent::getValueAsString</text>
</a>
</g>
</g>
<!-- Node1&#45;&gt;Node5 -->
<g id="edge4" class="edge"><title>Node1&#45;&gt;Node5</title>
<path fill="none" stroke="midnightblue" d="M37.6658,-484C45.1881,-484 54.5118,-484 64.4209,-484"/>
<polygon fill="midnightblue" stroke="midnightblue" points="64.4801,-487.5 74.4801,-484 64.4801,-480.5 64.4801,-487.5"/>
</g>
<!-- Node6 -->
<g id="node6" class="node"><title>Node6</title>
<g id="a_node6"><a xlink:href="classsd_saver.html#a2095f1dd3d75b3f5d5f9ae323fa0f971" target="_top" target="_top" xlink:title="sdSaver::XMLFromScene">
<polygon fill="white" stroke="black" points="77,-316.5 77,-335.5 201,-335.5 201,-316.5 77,-316.5"/>
<text text-anchor="middle" x="139" y="-323.5" font-family="Helvetica,sans-Serif" font-size="10.00">sdSaver::XMLFromScene</text>
</a>
</g>
</g>
<!-- Node1&#45;&gt;Node6 -->
<g id="edge5" class="edge"><title>Node1&#45;&gt;Node6</title>
<path fill="none" stroke="midnightblue" d="M27.3814,-474.116C46.7515,-448.18 99.2661,-377.864 124.33,-344.304"/>
<polygon fill="midnightblue" stroke="midnightblue" points="127.442,-345.986 130.621,-335.88 121.833,-341.798 127.442,-345.986"/>
</g>
<!-- Node3 -->
<g id="node3" class="node"><title>Node3</title>
<g id="a_node3"><a xlink:href="classsd_info.html#a93a8e95d4e6f54544089151c10abe646" target="_top" target="_top" xlink:title="sdInfo::setAuthor">
<polygon fill="white" stroke="black" points="274,-670.5 274,-689.5 360,-689.5 360,-670.5 274,-670.5"/>
<text text-anchor="middle" x="317" y="-677.5" font-family="Helvetica,sans-Serif" font-size="10.00">sdInfo::setAuthor</text>
</a>
</g>
</g>
<!-- Node2&#45;&gt;Node3 -->
<g id="edge2" class="edge"><title>Node2&#45;&gt;Node3</title>
<path fill="none" stroke="midnightblue" d="M184.412,-651.589C208.595,-656.81 238.654,-663.3 263.934,-668.759"/>
<polygon fill="midnightblue" stroke="midnightblue" points="263.211,-672.183 273.725,-670.872 264.689,-665.341 263.211,-672.183"/>
</g>
<!-- Node4 -->
<g id="node4" class="node"><title>Node4</title>
<g id="a_node4"><a xlink:href="classsd_entity_core.html#a4a2537e1b5b8c17bac298a37b306ae87" target="_top" target="_top" xlink:title="sdEntityCore::addEvent">
<polygon fill="white" stroke="black" points="259,-632.5 259,-651.5 375,-651.5 375,-632.5 259,-632.5"/>
<text text-anchor="middle" x="317" y="-639.5" font-family="Helvetica,sans-Serif" font-size="10.00">sdEntityCore::addEvent</text>
</a>
</g>
</g>
<!-- Node2&#45;&gt;Node4 -->
<g id="edge3" class="edge"><title>Node2&#45;&gt;Node4</title>
<path fill="none" stroke="midnightblue" d="M202.051,-642C217.088,-642 233.235,-642 248.509,-642"/>
<polygon fill="midnightblue" stroke="midnightblue" points="248.92,-645.5 258.92,-642 248.92,-638.5 248.92,-645.5"/>
</g>
<!-- Node7 -->
<g id="node7" class="node"><title>Node7</title>
<g id="a_node7"><a xlink:href="classsd_scene.html#a04e558bcf268832b77cfbb576a36778e" target="_top" target="_top" xlink:title="sdScene::getInfo">
<polygon fill="white" stroke="black" points="274,-594.5 274,-613.5 360,-613.5 360,-594.5 274,-594.5"/>
<text text-anchor="middle" x="317" y="-601.5" font-family="Helvetica,sans-Serif" font-size="10.00">sdScene::getInfo</text>
</a>
</g>
</g>
<!-- Node6&#45;&gt;Node7 -->
<g id="edge6" class="edge"><title>Node6&#45;&gt;Node7</title>
<path fill="none" stroke="midnightblue" d="M144.978,-335.574C156.431,-357.848 185.115,-415.051 204,-465 223.692,-517.083 199.723,-546.553 240,-585 246.719,-591.414 255.262,-595.758 264.178,-598.68"/>
<polygon fill="midnightblue" stroke="midnightblue" points="263.363,-602.085 273.93,-601.323 265.194,-595.329 263.363,-602.085"/>
</g>
<!-- Node8 -->
<g id="node8" class="node"><title>Node8</title>
<g id="a_node8"><a xlink:href="classsd_info.html#ab881d19b222fca09d4af8d32e8bb4843" target="_top" target="_top" xlink:title="sdInfo::getAuthor">
<polygon fill="white" stroke="black" points="274,-556.5 274,-575.5 360,-575.5 360,-556.5 274,-556.5"/>
<text text-anchor="middle" x="317" y="-563.5" font-family="Helvetica,sans-Serif" font-size="10.00">sdInfo::getAuthor</text>
</a>
</g>
</g>
<!-- Node6&#45;&gt;Node8 -->
<g id="edge7" class="edge"><title>Node6&#45;&gt;Node8</title>
<path fill="none" stroke="midnightblue" d="M144.545,-335.754C155.088,-358.405 181.989,-416.348 204,-465 220.239,-500.893 209.995,-520.472 240,-546 246.871,-551.845 255.262,-556.006 263.93,-558.961"/>
<polygon fill="midnightblue" stroke="midnightblue" points="263.188,-562.39 273.767,-561.811 265.137,-555.667 263.188,-562.39"/>
</g>
<!-- Node9 -->
<g id="node9" class="node"><title>Node9</title>
<g id="a_node9"><a xlink:href="classsd_scene.html#a3a323f8f9e8b4472f4bd06309ba0332d" target="_top" target="_top" xlink:title="sdScene::getNumberOfActivated\lExtensions">
<polygon fill="white" stroke="black" points="240,-507 240,-537 394,-537 394,-507 240,-507"/>
<text text-anchor="start" x="248" y="-525" font-family="Helvetica,sans-Serif" font-size="10.00">sdScene::getNumberOfActivated</text>
<text text-anchor="middle" x="317" y="-514" font-family="Helvetica,sans-Serif" font-size="10.00">Extensions</text>
</a>
</g>
</g>
<!-- Node6&#45;&gt;Node9 -->
<g id="edge8" class="edge"><title>Node6&#45;&gt;Node9</title>
<path fill="none" stroke="midnightblue" d="M142.952,-335.765C152.225,-364.798 183.562,-451.387 240,-497 242.08,-498.681 244.276,-500.25 246.56,-501.715"/>
<polygon fill="midnightblue" stroke="midnightblue" points="245.309,-505.026 255.743,-506.865 248.733,-498.921 245.309,-505.026"/>
</g>
<!-- Node10 -->
<g id="node10" class="node"><title>Node10</title>
<g id="a_node10"><a xlink:href="classsd_scene.html#ac144977efe9b247870c4a1c6bed5b14f" target="_top" target="_top" xlink:title="sdScene::getActivatedExtension">
<polygon fill="white" stroke="black" points="241,-468.5 241,-487.5 393,-487.5 393,-468.5 241,-468.5"/>
<text text-anchor="middle" x="317" y="-475.5" font-family="Helvetica,sans-Serif" font-size="10.00">sdScene::getActivatedExtension</text>
</a>
</g>
</g>
<!-- Node6&#45;&gt;Node10 -->
<g id="edge9" class="edge"><title>Node6&#45;&gt;Node10</title>
<path fill="none" stroke="midnightblue" d="M144.448,-335.836C156.209,-360.673 190.643,-426.271 240,-459 243.131,-461.076 246.472,-462.926 249.94,-464.573"/>
<polygon fill="midnightblue" stroke="midnightblue" points="248.784,-467.883 259.362,-468.479 251.464,-461.416 248.784,-467.883"/>
</g>
<!-- Node11 -->
<g id="node11" class="node"><title>Node11</title>
<g id="a_node11"><a xlink:href="sd_const_8h.html#adaff5a0973824f6bedbac783f32d7b15" target="_top" target="_top" xlink:title="extensionToString">
<polygon fill="white" stroke="black" points="271.5,-430.5 271.5,-449.5 362.5,-449.5 362.5,-430.5 271.5,-430.5"/>
<text text-anchor="middle" x="317" y="-437.5" font-family="Helvetica,sans-Serif" font-size="10.00">extensionToString</text>
</a>
</g>
</g>
<!-- Node6&#45;&gt;Node11 -->
<g id="edge10" class="edge"><title>Node6&#45;&gt;Node11</title>
<path fill="none" stroke="midnightblue" d="M147.356,-335.781C162.475,-355.164 199.074,-398.516 240,-421 246.631,-424.643 253.968,-427.599 261.392,-429.996"/>
<polygon fill="midnightblue" stroke="midnightblue" points="260.569,-433.402 271.149,-432.835 262.525,-426.681 260.569,-433.402"/>
</g>
<!-- Node12 -->
<g id="node12" class="node"><title>Node12</title>
<g id="a_node12"><a xlink:href="classsd_scene.html#ae75411e394deb65de00d2c2551ed69c7" target="_top" target="_top" xlink:title="sdScene::getOrderingAsString">
<polygon fill="white" stroke="black" points="246,-392.5 246,-411.5 388,-411.5 388,-392.5 246,-392.5"/>
<text text-anchor="middle" x="317" y="-399.5" font-family="Helvetica,sans-Serif" font-size="10.00">sdScene::getOrderingAsString</text>
</a>
</g>
</g>
<!-- Node6&#45;&gt;Node12 -->
<g id="edge11" class="edge"><title>Node6&#45;&gt;Node12</title>
<path fill="none" stroke="midnightblue" d="M153.951,-335.598C172.731,-348.124 207.544,-369.979 240,-383 246.191,-385.484 252.799,-387.713 259.438,-389.695"/>
<polygon fill="midnightblue" stroke="midnightblue" points="258.567,-393.085 269.141,-392.421 260.461,-386.346 258.567,-393.085"/>
</g>
<!-- Node13 -->
<g id="node13" class="node"><title>Node13</title>
<g id="a_node13"><a xlink:href="classsd_scene.html#abc96077751c152f5f8cb37846a80b676" target="_top" target="_top" xlink:title="sdScene::getEntityVector">
<polygon fill="white" stroke="black" points="256.5,-354.5 256.5,-373.5 377.5,-373.5 377.5,-354.5 256.5,-354.5"/>
<text text-anchor="middle" x="317" y="-361.5" font-family="Helvetica,sans-Serif" font-size="10.00">sdScene::getEntityVector</text>
</a>
</g>
</g>
<!-- Node6&#45;&gt;Node13 -->
<g id="edge12" class="edge"><title>Node6&#45;&gt;Node13</title>
<path fill="none" stroke="midnightblue" d="M184.412,-335.589C207.951,-340.671 237.057,-346.955 261.905,-352.32"/>
<polygon fill="midnightblue" stroke="midnightblue" points="261.394,-355.791 271.907,-354.48 262.871,-348.948 261.394,-355.791"/>
</g>
<!-- Node14 -->
<g id="node14" class="node"><title>Node14</title>
<g id="a_node14"><a xlink:href="classsd_scene.html#a2eca600ab7627a06ad523485a74ff028" target="_top" target="_top" xlink:title="sdScene::getOrdering">
<polygon fill="white" stroke="black" points="263.5,-316.5 263.5,-335.5 370.5,-335.5 370.5,-316.5 263.5,-316.5"/>
<text text-anchor="middle" x="317" y="-323.5" font-family="Helvetica,sans-Serif" font-size="10.00">sdScene::getOrdering</text>
</a>
</g>
</g>
<!-- Node6&#45;&gt;Node14 -->
<g id="edge13" class="edge"><title>Node6&#45;&gt;Node14</title>
<path fill="none" stroke="midnightblue" d="M201.062,-326C217.835,-326 236.053,-326 252.935,-326"/>
<polygon fill="midnightblue" stroke="midnightblue" points="253.25,-329.5 263.25,-326 253.25,-322.5 253.25,-329.5"/>
</g>
<!-- Node15 -->
<g id="node15" class="node"><title>Node15</title>
<g id="a_node15"><a xlink:href="classsd_entity.html#acc339121114228be8609b9055b080a28" target="_top" target="_top" xlink:title="sdEntity::getEventSet">
<polygon fill="white" stroke="black" points="263.5,-278.5 263.5,-297.5 370.5,-297.5 370.5,-278.5 263.5,-278.5"/>
<text text-anchor="middle" x="317" y="-285.5" font-family="Helvetica,sans-Serif" font-size="10.00">sdEntity::getEventSet</text>
</a>
</g>
</g>
<!-- Node6&#45;&gt;Node15 -->
<g id="edge14" class="edge"><title>Node6&#45;&gt;Node15</title>
<path fill="none" stroke="midnightblue" d="M184.412,-316.411C207.951,-311.329 237.057,-305.045 261.905,-299.68"/>
<polygon fill="midnightblue" stroke="midnightblue" points="262.871,-303.052 271.907,-297.52 261.394,-296.209 262.871,-303.052"/>
</g>
<!-- Node16 -->
<g id="node16" class="node"><title>Node16</title>
<g id="a_node16"><a xlink:href="classsd_entity_core.html#a97d5b5f189b386620bb898b0f5e0358a" target="_top" target="_top" xlink:title="sdEntityCore::getName">
<polygon fill="white" stroke="black" points="430.5,-139.5 430.5,-158.5 543.5,-158.5 543.5,-139.5 430.5,-139.5"/>
<text text-anchor="middle" x="487" y="-146.5" font-family="Helvetica,sans-Serif" font-size="10.00">sdEntityCore::getName</text>
</a>
</g>
</g>
<!-- Node6&#45;&gt;Node16 -->
<g id="edge15" class="edge"><title>Node6&#45;&gt;Node16</title>
<path fill="none" stroke="midnightblue" d="M153.945,-316.388C172.719,-303.844 207.524,-281.971 240,-269 305.469,-242.851 331.631,-263.864 394,-231 425.329,-214.492 454.603,-185.055 471.384,-166.306"/>
<polygon fill="midnightblue" stroke="midnightblue" points="474.033,-168.594 477.979,-158.762 468.763,-163.987 474.033,-168.594"/>
</g>
<!-- Node17 -->
<g id="node17" class="node"><title>Node17</title>
<g id="a_node17"><a xlink:href="classsd_entity_core.html#a66b6d0ebd81278a21854f8b074883342" target="_top" target="_top" xlink:title="sdEntityCore::getKind">
<polygon fill="white" stroke="black" points="263.5,-202.5 263.5,-221.5 370.5,-221.5 370.5,-202.5 263.5,-202.5"/>
<text text-anchor="middle" x="317" y="-209.5" font-family="Helvetica,sans-Serif" font-size="10.00">sdEntityCore::getKind</text>
</a>
</g>
</g>
<!-- Node6&#45;&gt;Node17 -->
<g id="edge16" class="edge"><title>Node6&#45;&gt;Node17</title>
<path fill="none" stroke="midnightblue" d="M148.078,-316.396C163.901,-298.166 200.865,-258.373 240,-236 247.768,-231.559 256.46,-227.831 265.115,-224.738"/>
<polygon fill="midnightblue" stroke="midnightblue" points="266.434,-227.988 274.819,-221.512 264.225,-221.345 266.434,-227.988"/>
</g>
<!-- Node18 -->
<g id="node18" class="node"><title>Node18</title>
<g id="a_node18"><a xlink:href="classsd_entity_core.html#a856a6d3f1f7bf294875b208db5e2fc7e" target="_top" target="_top" xlink:title="sdEntityCore::getExtension\lVector">
<polygon fill="white" stroke="black" points="252,-153 252,-183 382,-183 382,-153 252,-153"/>
<text text-anchor="start" x="260" y="-171" font-family="Helvetica,sans-Serif" font-size="10.00">sdEntityCore::getExtension</text>
<text text-anchor="middle" x="317" y="-160" font-family="Helvetica,sans-Serif" font-size="10.00">Vector</text>
</a>
</g>
</g>
<!-- Node6&#45;&gt;Node18 -->
<g id="edge17" class="edge"><title>Node6&#45;&gt;Node18</title>
<path fill="none" stroke="midnightblue" d="M144.594,-316.376C156.697,-292.034 191.867,-227.504 240,-193 242.653,-191.098 245.459,-189.335 248.368,-187.701"/>
<polygon fill="midnightblue" stroke="midnightblue" points="249.996,-190.8 257.354,-183.176 246.848,-184.548 249.996,-190.8"/>
</g>
<!-- Node19 -->
<g id="node19" class="node"><title>Node19</title>
<g id="a_node19"><a xlink:href="classsd_global_event.html#a6003837be549e8728c7207255f0455fb" target="_top" target="_top" xlink:title="sdGlobalEvent::getEntityName">
<polygon fill="white" stroke="black" points="244,-114.5 244,-133.5 390,-133.5 390,-114.5 244,-114.5"/>
<text text-anchor="middle" x="317" y="-121.5" font-family="Helvetica,sans-Serif" font-size="10.00">sdGlobalEvent::getEntityName</text>
</a>
</g>
</g>
<!-- Node6&#45;&gt;Node19 -->
<g id="edge18" class="edge"><title>Node6&#45;&gt;Node19</title>
<path fill="none" stroke="midnightblue" d="M142.393,-316.32C150.438,-285.869 179.469,-191.255 240,-144 242.971,-141.681 246.186,-139.629 249.557,-137.814"/>
<polygon fill="midnightblue" stroke="midnightblue" points="251.182,-140.919 258.787,-133.543 248.242,-134.566 251.182,-140.919"/>
</g>
<!-- Node20 -->
<g id="node20" class="node"><title>Node20</title>
<g id="a_node20"><a xlink:href="sd_const_8h.html#a43df1781add708debe292a97c334b4bf" target="_top" target="_top" xlink:title="getRelevantExtension">
<polygon fill="white" stroke="black" points="262,-76.5 262,-95.5 372,-95.5 372,-76.5 262,-76.5"/>
<text text-anchor="middle" x="317" y="-83.5" font-family="Helvetica,sans-Serif" font-size="10.00">getRelevantExtension</text>
</a>
</g>
</g>
<!-- Node6&#45;&gt;Node20 -->
<g id="edge19" class="edge"><title>Node6&#45;&gt;Node20</title>
<path fill="none" stroke="midnightblue" d="M141.37,-316.252C146.77,-281.633 169.836,-163.552 240,-105 243.782,-101.844 248.015,-99.2005 252.496,-96.988"/>
<polygon fill="midnightblue" stroke="midnightblue" points="254.1,-100.111 261.976,-93.0253 251.4,-93.6526 254.1,-100.111"/>
</g>
<!-- Node21 -->
<g id="node21" class="node"><title>Node21</title>
<g id="a_node21"><a xlink:href="classsd_entity_core.html#a4cdcaf53be00654310d23d2fc69facef" target="_top" target="_top" xlink:title="sdEntityCore::sortAlphabetically">
<polygon fill="white" stroke="black" points="242.5,-38.5 242.5,-57.5 391.5,-57.5 391.5,-38.5 242.5,-38.5"/>
<text text-anchor="middle" x="317" y="-45.5" font-family="Helvetica,sans-Serif" font-size="10.00">sdEntityCore::sortAlphabetically</text>
</a>
</g>
</g>
<!-- Node6&#45;&gt;Node21 -->
<g id="edge20" class="edge"><title>Node6&#45;&gt;Node21</title>
<path fill="none" stroke="midnightblue" d="M140.641,-316.499C143.722,-278.666 160.353,-137.372 240,-67 241.78,-65.4269 243.672,-63.98 245.651,-62.6494"/>
<polygon fill="midnightblue" stroke="midnightblue" points="247.791,-65.4627 254.814,-57.5299 244.377,-59.3517 247.791,-65.4627"/>
</g>
<!-- Node22 -->
<g id="node22" class="node"><title>Node22</title>
<g id="a_node22"><a xlink:href="classsd_entity_core.html#a4d96b7306ddabefd1c7467d06c256afa" target="_top" target="_top" xlink:title="sdEntityCore::getKindAsString">
<polygon fill="white" stroke="black" points="246,-0.5 246,-19.5 388,-19.5 388,-0.5 246,-0.5"/>
<text text-anchor="middle" x="317" y="-7.5" font-family="Helvetica,sans-Serif" font-size="10.00">sdEntityCore::getKindAsString</text>
</a>
</g>
</g>
<!-- Node6&#45;&gt;Node22 -->
<g id="edge22" class="edge"><title>Node6&#45;&gt;Node22</title>
<path fill="none" stroke="midnightblue" d="M140.12,-316.292C141.181,-274.847 151.055,-111.116 240,-29 241.705,-27.4259 243.52,-25.9771 245.424,-24.6441"/>
<polygon fill="midnightblue" stroke="midnightblue" points="247.374,-27.5589 254.264,-19.5105 243.859,-21.5055 247.374,-27.5589"/>
</g>
<!-- Node21&#45;&gt;Node16 -->
<g id="edge21" class="edge"><title>Node21&#45;&gt;Node16</title>
<path fill="none" stroke="midnightblue" d="M370.346,-57.5263C378.512,-60.0123 386.666,-63.1213 394,-67 425.303,-83.5557 454.585,-112.979 471.375,-131.712"/>
<polygon fill="midnightblue" stroke="midnightblue" points="468.753,-134.031 477.974,-139.249 474.02,-129.42 468.753,-134.031"/>
</g>
</g>
</svg>
