<?xml version="1.0" encoding="UTF-8" standalone="no"?>
<!DOCTYPE svg PUBLIC "-//W3C//DTD SVG 1.1//EN"
 "http://www.w3.org/Graphics/SVG/1.1/DTD/svg11.dtd">
<!-- Generated by graphviz version 2.34.0 (20131206.1153)
 -->
<!-- Title: main Pages: 1 -->
<svg width="484pt" height="218pt"
 viewBox="0.00 0.00 484.00 218.00" xmlns="http://www.w3.org/2000/svg" xmlns:xlink="http://www.w3.org/1999/xlink">
<g id="graph0" class="graph" transform="scale(1 1) rotate(0) translate(4 214)">
<title>main</title>
<polygon fill="white" stroke="white" points="-4,4 -4,-214 480,-214 480,4 -4,4"/>
<!-- Node1 -->
<g id="node1" class="node"><title>Node1</title>
<polygon fill="#bfbfbf" stroke="black" points="0.5,-76.5 0.5,-95.5 37.5,-95.5 37.5,-76.5 0.5,-76.5"/>
<text text-anchor="middle" x="19" y="-83.5" font-family="Helvetica,sans-Serif" font-size="10.00">main</text>
</g>
<!-- Node2 -->
<g id="node2" class="node"><title>Node2</title>
<g id="a_node2"><a xlink:href="classsd_loader.html#ab3d7cf4919f50673ec7f9649a9be09b1" target="_top" xlink:title="sdLoader::sceneFromXML">
<polygon fill="white" stroke="black" points="76,-152.5 76,-171.5 202,-171.5 202,-152.5 76,-152.5"/>
<text text-anchor="middle" x="139" y="-159.5" font-family="Helvetica,sans-Serif" font-size="10.00">sdLoader::sceneFromXML</text>
</a>
</g>
</g>
<!-- Node1&#45;&gt;Node2 -->
<g id="edge1" class="edge"><title>Node1&#45;&gt;Node2</title>
<path fill="none" stroke="midnightblue" d="M26.5341,-95.5434C35.6972,-108.215 53.553,-130.45 74,-143 77.4033,-145.089 81.0497,-146.96 84.8123,-148.633"/>
<polygon fill="midnightblue" stroke="midnightblue" points="83.7452,-151.975 94.3315,-152.399 86.3201,-145.466 83.7452,-151.975"/>
</g>
<!-- Node5 -->
<g id="node5" class="node"><title>Node5</title>
<g id="a_node5"><a xlink:href="classsd_event.html#a43dc0ffb37fdf843cc8bd3888dd7289f" target="_top" xlink:title="sdEvent::getTimeAsString">
<polygon fill="white" stroke="black" points="77,-114.5 77,-133.5 201,-133.5 201,-114.5 77,-114.5"/>
<text text-anchor="middle" x="139" y="-121.5" font-family="Helvetica,sans-Serif" font-size="10.00">sdEvent::getTimeAsString</text>
</a>
</g>
</g>
<!-- Node1&#45;&gt;Node5 -->
<g id="edge4" class="edge"><title>Node1&#45;&gt;Node5</title>
<path fill="none" stroke="midnightblue" d="M37.924,-92.5581C48.3987,-96.3275 61.8987,-101.077 74,-105 80.6671,-107.161 87.7553,-109.361 94.6938,-111.462"/>
<polygon fill="midnightblue" stroke="midnightblue" points="94.1021,-114.938 104.686,-114.451 96.1086,-108.232 94.1021,-114.938"/>
</g>
<!-- Node8 -->
<g id="node8" class="node"><title>Node8</title>
<g id="a_node8"><a xlink:href="classsd_event.html#a2941bfbdbb11cb95d16bcbc50c19a161" target="_top" xlink:title="sdEvent::getValueAsString">
<polygon fill="white" stroke="black" points="74.5,-76.5 74.5,-95.5 203.5,-95.5 203.5,-76.5 74.5,-76.5"/>
<text text-anchor="middle" x="139" y="-83.5" font-family="Helvetica,sans-Serif" font-size="10.00">sdEvent::getValueAsString</text>
</a>
</g>
</g>
<!-- Node1&#45;&gt;Node8 -->
<g id="edge7" class="edge"><title>Node1&#45;&gt;Node8</title>
<path fill="none" stroke="midnightblue" d="M37.6658,-86C45.1881,-86 54.5118,-86 64.4209,-86"/>
<polygon fill="midnightblue" stroke="midnightblue" points="64.4801,-89.5001 74.4801,-86 64.4801,-82.5001 64.4801,-89.5001"/>
</g>
<!-- Node9 -->
<g id="node9" class="node"><title>Node9</title>
<g id="a_node9"><a xlink:href="classsd_event.html#ab9f695d6582966f2d78dfa6e686c1963" target="_top" xlink:title="sdEvent::getTime">
<polygon fill="white" stroke="black" points="94.5,-38.5 94.5,-57.5 183.5,-57.5 183.5,-38.5 94.5,-38.5"/>
<text text-anchor="middle" x="139" y="-45.5" font-family="Helvetica,sans-Serif" font-size="10.00">sdEvent::getTime</text>
</a>
</g>
</g>
<!-- Node1&#45;&gt;Node9 -->
<g id="edge8" class="edge"><title>Node1&#45;&gt;Node9</title>
<path fill="none" stroke="midnightblue" d="M37.924,-79.4419C48.3987,-75.6725 61.8987,-70.9225 74,-67 80.6671,-64.8389 87.7553,-62.6387 94.6938,-60.5384"/>
<polygon fill="midnightblue" stroke="midnightblue" points="96.1086,-63.7684 104.686,-57.5489 94.1021,-57.0622 96.1086,-63.7684"/>
</g>
<!-- Node10 -->
<g id="node10" class="node"><title>Node10</title>
<g id="a_node10"><a xlink:href="classsd_entity.html#acc339121114228be8609b9055b080a28" target="_top" xlink:title="sdEntity::getEventSet">
<polygon fill="white" stroke="black" points="85.5,-0.5 85.5,-19.5 192.5,-19.5 192.5,-0.5 85.5,-0.5"/>
<text text-anchor="middle" x="139" y="-7.5" font-family="Helvetica,sans-Serif" font-size="10.00">sdEntity::getEventSet</text>
</a>
</g>
</g>
<!-- Node1&#45;&gt;Node10 -->
<g id="edge9" class="edge"><title>Node1&#45;&gt;Node10</title>
<path fill="none" stroke="midnightblue" d="M26.5341,-76.4566C35.6972,-63.7854 53.553,-41.5503 74,-29 77.4033,-26.9111 81.0497,-25.0403 84.8123,-23.3667"/>
<polygon fill="midnightblue" stroke="midnightblue" points="86.3201,-26.5342 94.3315,-19.6011 83.7452,-20.025 86.3201,-26.5342"/>
</g>
<!-- Node3 -->
<g id="node3" class="node"><title>Node3</title>
<g id="a_node3"><a xlink:href="classsd_info.html#a93a8e95d4e6f54544089151c10abe646" target="_top" xlink:title="sdInfo::setAuthor">
<polygon fill="white" stroke="black" points="255,-190.5 255,-209.5 341,-209.5 341,-190.5 255,-190.5"/>
<text text-anchor="middle" x="298" y="-197.5" font-family="Helvetica,sans-Serif" font-size="10.00">sdInfo::setAuthor</text>
</a>
</g>
</g>
<!-- Node2&#45;&gt;Node3 -->
<g id="edge2" class="edge"><title>Node2&#45;&gt;Node3</title>
<path fill="none" stroke="midnightblue" d="M179.618,-171.589C200.336,-176.604 225.888,-182.788 247.856,-188.105"/>
<polygon fill="midnightblue" stroke="midnightblue" points="247.124,-191.529 257.667,-190.48 248.771,-184.726 247.124,-191.529"/>
</g>
<!-- Node4 -->
<g id="node4" class="node"><title>Node4</title>
<g id="a_node4"><a xlink:href="classsd_entity_core.html#a4a2537e1b5b8c17bac298a37b306ae87" target="_top" xlink:title="sdEntityCore::addEvent">
<polygon fill="white" stroke="black" points="240,-152.5 240,-171.5 356,-171.5 356,-152.5 240,-152.5"/>
<text text-anchor="middle" x="298" y="-159.5" font-family="Helvetica,sans-Serif" font-size="10.00">sdEntityCore::addEvent</text>
</a>
</g>
</g>
<!-- Node2&#45;&gt;Node4 -->
<g id="edge3" class="edge"><title>Node2&#45;&gt;Node4</title>
<path fill="none" stroke="midnightblue" d="M202.051,-162C211.143,-162 220.543,-162 229.734,-162"/>
<polygon fill="midnightblue" stroke="midnightblue" points="229.993,-165.5 239.993,-162 229.993,-158.5 229.993,-165.5"/>
</g>
<!-- Node6 -->
<g id="node6" class="node"><title>Node6</title>
<g id="a_node6"><a xlink:href="sd_const_8h.html#af6ea173327acc9bc1ed456517a81dc9f" target="_top" xlink:title="doubleToString">
<polygon fill="white" stroke="black" points="258.5,-114.5 258.5,-133.5 337.5,-133.5 337.5,-114.5 258.5,-114.5"/>
<text text-anchor="middle" x="298" y="-121.5" font-family="Helvetica,sans-Serif" font-size="10.00">doubleToString</text>
</a>
</g>
</g>
<!-- Node5&#45;&gt;Node6 -->
<g id="edge5" class="edge"><title>Node5&#45;&gt;Node6</title>
<path fill="none" stroke="midnightblue" d="M201.15,-124C216.82,-124 233.461,-124 248.403,-124"/>
<polygon fill="midnightblue" stroke="midnightblue" points="248.443,-127.5 258.443,-124 248.443,-120.5 248.443,-127.5"/>
</g>
<!-- Node7 -->
<g id="node7" class="node"><title>Node7</title>
<g id="a_node7"><a xlink:href="sd_const_8h.html#a2e4342bd50c4c585f85d074a765b4550" target="_top" xlink:title="doublesToString">
<polygon fill="white" stroke="black" points="392,-114.5 392,-133.5 476,-133.5 476,-114.5 392,-114.5"/>
<text text-anchor="middle" x="434" y="-121.5" font-family="Helvetica,sans-Serif" font-size="10.00">doublesToString</text>
</a>
</g>
</g>
<!-- Node6&#45;&gt;Node7 -->
<g id="edge6" class="edge"><title>Node6&#45;&gt;Node7</title>
<path fill="none" stroke="midnightblue" d="M337.758,-124C351.442,-124 367.05,-124 381.614,-124"/>
<polygon fill="midnightblue" stroke="midnightblue" points="381.993,-127.5 391.993,-124 381.993,-120.5 381.993,-127.5"/>
</g>
</g>
</svg>
