<?xml version="1.0" encoding="UTF-8" standalone="no"?>
<!DOCTYPE svg PUBLIC "-//W3C//DTD SVG 1.1//EN"
 "http://www.w3.org/Graphics/SVG/1.1/DTD/svg11.dtd">
<!-- Generated by graphviz version 2.34.0 (20131206.1153)
 -->
<!-- Title: /Users/lossius/dev/spatdiflib/examples/How_to_query.cpp Pages: 1 -->
<svg width="642pt" height="442pt"
 viewBox="0.00 0.00 642.11 442.00" xmlns="http://www.w3.org/2000/svg" xmlns:xlink="http://www.w3.org/1999/xlink">
<g id="graph0" class="graph" transform="scale(1 1) rotate(0) translate(4 438)">
<title>/Users/lossius/dev/spatdiflib/examples/How_to_query.cpp</title>
<polygon fill="white" stroke="white" points="-4,4 -4,-438 638.114,-438 638.114,4 -4,4"/>
<!-- Node1 -->
<g id="node1" class="node"><title>Node1</title>
<polygon fill="#bfbfbf" stroke="black" points="63.1138,-392.5 63.1138,-433.5 165.114,-433.5 165.114,-392.5 63.1138,-392.5"/>
<text text-anchor="start" x="71.1138" y="-421.5" font-family="Helvetica,sans-Serif" font-size="10.00">/Users/lossius/dev</text>
<text text-anchor="start" x="71.1138" y="-410.5" font-family="Helvetica,sans-Serif" font-size="10.00">/spatdiflib/examples</text>
<text text-anchor="middle" x="114.114" y="-399.5" font-family="Helvetica,sans-Serif" font-size="10.00">/How_to_query.cpp</text>
</g>
<!-- Node2 -->
<g id="node2" class="node"><title>Node2</title>
<polygon fill="white" stroke="#bfbfbf" points="286.114,-0.5 286.114,-19.5 324.114,-19.5 324.114,-0.5 286.114,-0.5"/>
<text text-anchor="middle" x="305.114" y="-7.5" font-family="Helvetica,sans-Serif" font-size="10.00">string</text>
</g>
<!-- Node1&#45;&gt;Node2 -->
<g id="edge1" class="edge"><title>Node1&#45;&gt;Node2</title>
<path fill="none" stroke="midnightblue" d="M88.9681,-392.419C78.5586,-382.723 67.6422,-370.078 62.1138,-356 52.9634,-332.698 -13.6493,-406.655 78.1138,-112 86.7037,-84.4177 87.7017,-72.9245 111.114,-56 169.785,-13.5867 201.536,-37.4146 276.1,-19.9247"/>
<polygon fill="midnightblue" stroke="midnightblue" points="277.07,-23.2895 285.907,-17.4454 275.355,-16.503 277.07,-23.2895"/>
</g>
<!-- Node3 -->
<g id="node3" class="node"><title>Node3</title>
<polygon fill="white" stroke="#bfbfbf" points="216.114,-0.5 216.114,-19.5 268.114,-19.5 268.114,-0.5 216.114,-0.5"/>
<text text-anchor="middle" x="242.114" y="-7.5" font-family="Helvetica,sans-Serif" font-size="10.00">iostream</text>
</g>
<!-- Node1&#45;&gt;Node3 -->
<g id="edge2" class="edge"><title>Node1&#45;&gt;Node3</title>
<path fill="none" stroke="midnightblue" d="M95.7522,-392.261C87.4344,-382.164 78.3169,-369.232 73.1138,-356 24.0272,-231.167 -43.7923,-160.655 40.1138,-56 60.4564,-30.627 153.039,-18.6364 205.521,-13.7894"/>
<polygon fill="midnightblue" stroke="midnightblue" points="206.106,-17.2515 215.761,-12.8873 205.492,-10.2785 206.106,-17.2515"/>
</g>
<!-- Node4 -->
<g id="node4" class="node"><title>Node4</title>
<polygon fill="white" stroke="#bfbfbf" points="202.614,-336.5 202.614,-355.5 249.614,-355.5 249.614,-336.5 202.614,-336.5"/>
<text text-anchor="middle" x="226.114" y="-343.5" font-family="Helvetica,sans-Serif" font-size="10.00">fstream</text>
</g>
<!-- Node1&#45;&gt;Node4 -->
<g id="edge3" class="edge"><title>Node1&#45;&gt;Node4</title>
<path fill="none" stroke="midnightblue" d="M147.718,-392.498C165.385,-382.245 186.612,-369.925 202.52,-360.693"/>
<polygon fill="midnightblue" stroke="midnightblue" points="204.313,-363.699 211.205,-355.652 200.799,-357.645 204.313,-363.699"/>
</g>
<!-- Node5 -->
<g id="node5" class="node"><title>Node5</title>
<g id="a_node5"><a xlink:href="sd_scene_8h.html" target="_top" target="_top" xlink:title="sdScene.h">
<polygon fill="white" stroke="black" points="271.114,-280.5 271.114,-299.5 333.114,-299.5 333.114,-280.5 271.114,-280.5"/>
<text text-anchor="middle" x="302.114" y="-287.5" font-family="Helvetica,sans-Serif" font-size="10.00">sdScene.h</text>
</a>
</g>
</g>
<!-- Node1&#45;&gt;Node5 -->
<g id="edge4" class="edge"><title>Node1&#45;&gt;Node5</title>
<path fill="none" stroke="midnightblue" d="M130.645,-392.397C145.587,-375.65 168.897,-351.824 193.114,-336 214.961,-321.724 242.078,-310.508 263.799,-302.843"/>
<polygon fill="midnightblue" stroke="midnightblue" points="265.032,-306.121 273.361,-299.574 262.767,-299.497 265.032,-306.121"/>
</g>
<!-- Node16 -->
<g id="node16" class="node"><title>Node16</title>
<g id="a_node16"><a xlink:href="sd_loader_8h.html" target="_top" target="_top" xlink:title="sdLoader.h">
<polygon fill="white" stroke="black" points="82.1138,-336.5 82.1138,-355.5 146.114,-355.5 146.114,-336.5 82.1138,-336.5"/>
<text text-anchor="middle" x="114.114" y="-343.5" font-family="Helvetica,sans-Serif" font-size="10.00">sdLoader.h</text>
</a>
</g>
</g>
<!-- Node1&#45;&gt;Node16 -->
<g id="edge35" class="edge"><title>Node1&#45;&gt;Node16</title>
<path fill="none" stroke="midnightblue" d="M114.114,-392.498C114.114,-384.065 114.114,-374.235 114.114,-365.874"/>
<polygon fill="midnightblue" stroke="midnightblue" points="117.614,-365.652 114.114,-355.652 110.614,-365.653 117.614,-365.652"/>
</g>
<!-- Node5&#45;&gt;Node2 -->
<g id="edge5" class="edge"><title>Node5&#45;&gt;Node2</title>
<path fill="none" stroke="midnightblue" d="M270.966,-283.697C221.4,-273.274 130.114,-245.106 130.114,-179 130.114,-179 130.114,-179 130.114,-121 130.114,-86.1146 146.412,-77.2038 174.114,-56 178.325,-52.7768 238.942,-32.6262 276.224,-20.4088"/>
<polygon fill="midnightblue" stroke="midnightblue" points="277.638,-23.6289 286.055,-17.1939 275.462,-16.9756 277.638,-23.6289"/>
</g>
<!-- Node6 -->
<g id="node6" class="node"><title>Node6</title>
<polygon fill="white" stroke="#bfbfbf" points="557.614,-0.5 557.614,-19.5 598.614,-19.5 598.614,-0.5 557.614,-0.5"/>
<text text-anchor="middle" x="578.114" y="-7.5" font-family="Helvetica,sans-Serif" font-size="10.00">vector</text>
</g>
<!-- Node5&#45;&gt;Node6 -->
<g id="edge6" class="edge"><title>Node5&#45;&gt;Node6</title>
<path fill="none" stroke="midnightblue" d="M333.348,-285.435C415.994,-275.139 634.114,-241.997 634.114,-179 634.114,-179 634.114,-179 634.114,-121 634.114,-84.4358 609.237,-47.747 592.645,-27.3424"/>
<polygon fill="midnightblue" stroke="midnightblue" points="595.265,-25.0212 586.137,-19.6425 589.919,-29.5395 595.265,-25.0212"/>
</g>
<!-- Node7 -->
<g id="node7" class="node"><title>Node7</title>
<g id="a_node7"><a xlink:href="sd_const_8h.html" target="_top" target="_top" xlink:title="sdConst.h">
<polygon fill="white" stroke="black" points="358.114,-56.5 358.114,-75.5 418.114,-75.5 418.114,-56.5 358.114,-56.5"/>
<text text-anchor="middle" x="388.114" y="-63.5" font-family="Helvetica,sans-Serif" font-size="10.00">sdConst.h</text>
</a>
</g>
</g>
<!-- Node5&#45;&gt;Node7 -->
<g id="edge7" class="edge"><title>Node5&#45;&gt;Node7</title>
<path fill="none" stroke="midnightblue" d="M320.673,-280.433C349.348,-266.031 403.383,-233.963 425.114,-188 441.858,-152.585 417.32,-107.795 400.889,-83.8766"/>
<polygon fill="midnightblue" stroke="midnightblue" points="403.567,-81.605 394.89,-75.5254 397.882,-85.6891 403.567,-81.605"/>
</g>
<!-- Node9 -->
<g id="node9" class="node"><title>Node9</title>
<g id="a_node9"><a xlink:href="sd_info_8h.html" target="_top" target="_top" xlink:title="sdInfo.h">
<polygon fill="white" stroke="black" points="472.114,-112.5 472.114,-131.5 522.114,-131.5 522.114,-112.5 472.114,-112.5"/>
<text text-anchor="middle" x="497.114" y="-119.5" font-family="Helvetica,sans-Serif" font-size="10.00">sdInfo.h</text>
</a>
</g>
</g>
<!-- Node5&#45;&gt;Node9 -->
<g id="edge11" class="edge"><title>Node5&#45;&gt;Node9</title>
<path fill="none" stroke="midnightblue" d="M333.314,-288.346C368.228,-285.933 424.317,-276.767 458.114,-244 486.411,-216.565 494.207,-168.528 496.335,-141.981"/>
<polygon fill="midnightblue" stroke="midnightblue" points="499.844,-141.937 496.955,-131.744 492.857,-141.514 499.844,-141.937"/>
</g>
<!-- Node12 -->
<g id="node12" class="node"><title>Node12</title>
<g id="a_node12"><a xlink:href="sd_entity_core_8h.html" target="_top" target="_top" xlink:title="sdEntityCore.h">
<polygon fill="white" stroke="black" points="223.114,-224.5 223.114,-243.5 301.114,-243.5 301.114,-224.5 223.114,-224.5"/>
<text text-anchor="middle" x="262.114" y="-231.5" font-family="Helvetica,sans-Serif" font-size="10.00">sdEntityCore.h</text>
</a>
</g>
</g>
<!-- Node5&#45;&gt;Node12 -->
<g id="edge20" class="edge"><title>Node5&#45;&gt;Node12</title>
<path fill="none" stroke="midnightblue" d="M295.509,-280.083C289.859,-272.455 281.569,-261.264 274.663,-251.941"/>
<polygon fill="midnightblue" stroke="midnightblue" points="277.361,-249.703 268.596,-243.751 271.736,-253.87 277.361,-249.703"/>
</g>
<!-- Node15 -->
<g id="node15" class="node"><title>Node15</title>
<g id="a_node15"><a xlink:href="sd_entity_extension_8h.html" target="_top" target="_top" xlink:title="sdEntityExtension.h">
<polygon fill="white" stroke="black" points="316.114,-168.5 316.114,-187.5 416.114,-187.5 416.114,-168.5 316.114,-168.5"/>
<text text-anchor="middle" x="366.114" y="-175.5" font-family="Helvetica,sans-Serif" font-size="10.00">sdEntityExtension.h</text>
</a>
</g>
</g>
<!-- Node5&#45;&gt;Node15 -->
<g id="edge34" class="edge"><title>Node5&#45;&gt;Node15</title>
<path fill="none" stroke="midnightblue" d="M307.136,-280.368C317.651,-262.296 342.157,-220.176 356.044,-196.307"/>
<polygon fill="midnightblue" stroke="midnightblue" points="359.111,-197.995 361.115,-187.591 353.061,-194.475 359.111,-197.995"/>
</g>
<!-- Node7&#45;&gt;Node2 -->
<g id="edge8" class="edge"><title>Node7&#45;&gt;Node2</title>
<path fill="none" stroke="midnightblue" d="M374.778,-56.324C361.952,-47.979 342.329,-35.2122 327.174,-25.3524"/>
<polygon fill="midnightblue" stroke="midnightblue" points="328.707,-22.1742 318.416,-19.6545 324.89,-28.0417 328.707,-22.1742"/>
</g>
<!-- Node7&#45;&gt;Node3 -->
<g id="edge9" class="edge"><title>Node7&#45;&gt;Node3</title>
<path fill="none" stroke="midnightblue" d="M364.98,-56.4435C340.632,-47.4381 302.107,-33.1891 274.691,-23.049"/>
<polygon fill="midnightblue" stroke="midnightblue" points="275.733,-19.7028 265.14,-19.5164 273.305,-26.2681 275.733,-19.7028"/>
</g>
<!-- Node8 -->
<g id="node8" class="node"><title>Node8</title>
<polygon fill="white" stroke="#bfbfbf" points="389.114,-0.5 389.114,-19.5 439.114,-19.5 439.114,-0.5 389.114,-0.5"/>
<text text-anchor="middle" x="414.114" y="-7.5" font-family="Helvetica,sans-Serif" font-size="10.00">sstream</text>
</g>
<!-- Node7&#45;&gt;Node8 -->
<g id="edge10" class="edge"><title>Node7&#45;&gt;Node8</title>
<path fill="none" stroke="midnightblue" d="M392.407,-56.083C395.966,-48.6913 401.136,-37.9533 405.538,-28.8111"/>
<polygon fill="midnightblue" stroke="midnightblue" points="408.716,-30.2795 409.9,-19.7511 402.409,-27.2427 408.716,-30.2795"/>
</g>
<!-- Node9&#45;&gt;Node2 -->
<g id="edge12" class="edge"><title>Node9&#45;&gt;Node2</title>
<path fill="none" stroke="midnightblue" d="M489.787,-112.258C477.901,-98.5636 453.115,-71.9725 427.114,-56 397.697,-37.9287 359.888,-25.3894 334.213,-18.2217"/>
<polygon fill="midnightblue" stroke="midnightblue" points="334.911,-14.7851 324.344,-15.5645 333.09,-21.5443 334.911,-14.7851"/>
</g>
<!-- Node9&#45;&gt;Node6 -->
<g id="edge13" class="edge"><title>Node9&#45;&gt;Node6</title>
<path fill="none" stroke="midnightblue" d="M506.399,-112.194C515.336,-103.467 528.954,-89.4858 539.114,-76 550.473,-60.9234 561.346,-42.3357 568.713,-28.9045"/>
<polygon fill="midnightblue" stroke="midnightblue" points="571.964,-30.2483 573.612,-19.7824 565.797,-26.9362 571.964,-30.2483"/>
</g>
<!-- Node9&#45;&gt;Node7 -->
<g id="edge14" class="edge"><title>Node9&#45;&gt;Node7</title>
<path fill="none" stroke="midnightblue" d="M479.601,-112.324C462.041,-103.625 434.782,-90.1202 414.583,-80.113"/>
<polygon fill="midnightblue" stroke="midnightblue" points="416.098,-76.9575 405.583,-75.6545 412.99,-83.23 416.098,-76.9575"/>
</g>
<!-- Node10 -->
<g id="node10" class="node"><title>Node10</title>
<g id="a_node10"><a xlink:href="sd_date_8h.html" target="_top" target="_top" xlink:title="sdDate.h">
<polygon fill="white" stroke="black" points="474.114,-56.5 474.114,-75.5 530.114,-75.5 530.114,-56.5 474.114,-56.5"/>
<text text-anchor="middle" x="502.114" y="-63.5" font-family="Helvetica,sans-Serif" font-size="10.00">sdDate.h</text>
</a>
</g>
</g>
<!-- Node9&#45;&gt;Node10 -->
<g id="edge15" class="edge"><title>Node9&#45;&gt;Node10</title>
<path fill="none" stroke="midnightblue" d="M497.939,-112.083C498.595,-105.006 499.534,-94.8611 500.356,-85.9865"/>
<polygon fill="midnightblue" stroke="midnightblue" points="503.867,-86.0312 501.304,-75.7511 496.896,-85.3858 503.867,-86.0312"/>
</g>
<!-- Node10&#45;&gt;Node2 -->
<g id="edge18" class="edge"><title>Node10&#45;&gt;Node2</title>
<path fill="none" stroke="midnightblue" d="M473.889,-57.2631C436.74,-47.0802 371.764,-29.2697 334.194,-18.9713"/>
<polygon fill="midnightblue" stroke="midnightblue" points="334.94,-15.5466 324.37,-16.2784 333.089,-22.2975 334.94,-15.5466"/>
</g>
<!-- Node10&#45;&gt;Node6 -->
<g id="edge16" class="edge"><title>Node10&#45;&gt;Node6</title>
<path fill="none" stroke="midnightblue" d="M514.325,-56.324C525.89,-48.1066 543.489,-35.6017 557.275,-25.8069"/>
<polygon fill="midnightblue" stroke="midnightblue" points="559.556,-28.4791 565.681,-19.8339 555.502,-22.7729 559.556,-28.4791"/>
</g>
<!-- Node10&#45;&gt;Node8 -->
<g id="edge19" class="edge"><title>Node10&#45;&gt;Node8</title>
<path fill="none" stroke="midnightblue" d="M487.975,-56.324C474.248,-47.9002 453.178,-34.9709 437.049,-25.0741"/>
<polygon fill="midnightblue" stroke="midnightblue" points="438.571,-21.9016 428.217,-19.6545 434.91,-27.8678 438.571,-21.9016"/>
</g>
<!-- Node11 -->
<g id="node11" class="node"><title>Node11</title>
<polygon fill="white" stroke="#bfbfbf" points="483.114,-0.5 483.114,-19.5 521.114,-19.5 521.114,-0.5 483.114,-0.5"/>
<text text-anchor="middle" x="502.114" y="-7.5" font-family="Helvetica,sans-Serif" font-size="10.00">ctime</text>
</g>
<!-- Node10&#45;&gt;Node11 -->
<g id="edge17" class="edge"><title>Node10&#45;&gt;Node11</title>
<path fill="none" stroke="midnightblue" d="M502.114,-56.083C502.114,-49.0059 502.114,-38.8611 502.114,-29.9865"/>
<polygon fill="midnightblue" stroke="midnightblue" points="505.614,-29.751 502.114,-19.7511 498.614,-29.7511 505.614,-29.751"/>
</g>
<!-- Node12&#45;&gt;Node2 -->
<g id="edge22" class="edge"><title>Node12&#45;&gt;Node2</title>
<path fill="none" stroke="midnightblue" d="M252.672,-224.275C224.751,-197.414 146.975,-114.265 187.114,-56 189.795,-52.1073 242.425,-33.0339 276.483,-21.0021"/>
<polygon fill="midnightblue" stroke="midnightblue" points="277.689,-24.288 285.96,-17.6662 275.365,-17.6851 277.689,-24.288"/>
</g>
<!-- Node12&#45;&gt;Node7 -->
<g id="edge23" class="edge"><title>Node12&#45;&gt;Node7</title>
<path fill="none" stroke="midnightblue" d="M267.752,-224.452C276.098,-211.894 292.345,-187.805 307.114,-168 329.821,-137.55 357.846,-103.289 374.273,-83.5179"/>
<polygon fill="midnightblue" stroke="midnightblue" points="377.033,-85.6735 380.749,-75.7518 371.656,-81.1905 377.033,-85.6735"/>
</g>
<!-- Node13 -->
<g id="node13" class="node"><title>Node13</title>
<polygon fill="white" stroke="#bfbfbf" points="196.614,-56.5 196.614,-75.5 225.614,-75.5 225.614,-56.5 196.614,-56.5"/>
<text text-anchor="middle" x="211.114" y="-63.5" font-family="Helvetica,sans-Serif" font-size="10.00">set</text>
</g>
<!-- Node12&#45;&gt;Node13 -->
<g id="edge21" class="edge"><title>Node12&#45;&gt;Node13</title>
<path fill="none" stroke="midnightblue" d="M258.537,-224.487C251.405,-207.272 235.235,-166.98 225.114,-132 220.647,-116.562 216.898,-98.6922 214.407,-85.6007"/>
<polygon fill="midnightblue" stroke="midnightblue" points="217.803,-84.7118 212.556,-75.5074 210.918,-85.9748 217.803,-84.7118"/>
</g>
<!-- Node14 -->
<g id="node14" class="node"><title>Node14</title>
<g id="a_node14"><a xlink:href="sd_entity_8h.html" target="_top" target="_top" xlink:title="sdEntity.h">
<polygon fill="white" stroke="black" points="234.114,-112.5 234.114,-131.5 292.114,-131.5 292.114,-112.5 234.114,-112.5"/>
<text text-anchor="middle" x="263.114" y="-119.5" font-family="Helvetica,sans-Serif" font-size="10.00">sdEntity.h</text>
</a>
</g>
</g>
<!-- Node12&#45;&gt;Node14 -->
<g id="edge24" class="edge"><title>Node12&#45;&gt;Node14</title>
<path fill="none" stroke="midnightblue" d="M262.192,-224.368C262.354,-206.617 262.726,-165.666 262.945,-141.597"/>
<polygon fill="midnightblue" stroke="midnightblue" points="266.445,-141.623 263.036,-131.591 259.445,-141.559 266.445,-141.623"/>
</g>
<!-- Node12&#45;&gt;Node15 -->
<g id="edge29" class="edge"><title>Node12&#45;&gt;Node15</title>
<path fill="none" stroke="midnightblue" d="M278.823,-224.324C295.426,-215.703 321.116,-202.364 340.334,-192.386"/>
<polygon fill="midnightblue" stroke="midnightblue" points="342.184,-195.369 349.446,-187.655 338.958,-189.156 342.184,-195.369"/>
</g>
<!-- Node14&#45;&gt;Node2 -->
<g id="edge26" class="edge"><title>Node14&#45;&gt;Node2</title>
<path fill="none" stroke="midnightblue" d="M266.41,-112.368C273.249,-94.4563 289.107,-52.9233 298.261,-28.9482"/>
<polygon fill="midnightblue" stroke="midnightblue" points="301.536,-30.1821 301.833,-19.5914 294.997,-27.6851 301.536,-30.1821"/>
</g>
<!-- Node14&#45;&gt;Node3 -->
<g id="edge27" class="edge"><title>Node14&#45;&gt;Node3</title>
<path fill="none" stroke="midnightblue" d="M261.466,-112.368C258.077,-94.617 250.259,-53.6664 245.664,-29.5974"/>
<polygon fill="midnightblue" stroke="midnightblue" points="249.067,-28.7577 243.754,-19.5914 242.191,-30.0704 249.067,-28.7577"/>
</g>
<!-- Node14&#45;&gt;Node7 -->
<g id="edge28" class="edge"><title>Node14&#45;&gt;Node7</title>
<path fill="none" stroke="midnightblue" d="M282.92,-112.444C303.401,-103.596 335.596,-89.6875 358.978,-79.5865"/>
<polygon fill="midnightblue" stroke="midnightblue" points="360.608,-82.6953 368.4,-75.5164 357.832,-76.2692 360.608,-82.6953"/>
</g>
<!-- Node14&#45;&gt;Node13 -->
<g id="edge25" class="edge"><title>Node14&#45;&gt;Node13</title>
<path fill="none" stroke="midnightblue" d="M254.527,-112.083C246.955,-104.22 235.736,-92.5688 226.599,-83.0813"/>
<polygon fill="midnightblue" stroke="midnightblue" points="228.998,-80.5266 219.541,-75.7511 223.956,-85.3821 228.998,-80.5266"/>
</g>
<!-- Node15&#45;&gt;Node2 -->
<g id="edge30" class="edge"><title>Node15&#45;&gt;Node2</title>
<path fill="none" stroke="midnightblue" d="M362.834,-168.075C353.191,-141.832 324.79,-64.5453 311.771,-29.1165"/>
<polygon fill="midnightblue" stroke="midnightblue" points="314.997,-27.7472 308.262,-19.5681 308.426,-30.1617 314.997,-27.7472"/>
</g>
<!-- Node15&#45;&gt;Node6 -->
<g id="edge31" class="edge"><title>Node15&#45;&gt;Node6</title>
<path fill="none" stroke="midnightblue" d="M416.375,-173.845C451.803,-169.291 498.55,-158.312 531.114,-132 562.71,-106.47 573.113,-56.9046 576.503,-29.8072"/>
<polygon fill="midnightblue" stroke="midnightblue" points="580,-30.0171 577.568,-19.7053 573.039,-29.2832 580,-30.0171"/>
</g>
<!-- Node15&#45;&gt;Node7 -->
<g id="edge32" class="edge"><title>Node15&#45;&gt;Node7</title>
<path fill="none" stroke="midnightblue" d="M367.84,-168.368C371.39,-150.617 379.581,-109.666 384.394,-85.5974"/>
<polygon fill="midnightblue" stroke="midnightblue" points="387.866,-86.0837 386.396,-75.5914 381.002,-84.7108 387.866,-86.0837"/>
</g>
<!-- Node15&#45;&gt;Node14 -->
<g id="edge33" class="edge"><title>Node15&#45;&gt;Node14</title>
<path fill="none" stroke="midnightblue" d="M349.565,-168.324C333.122,-159.703 307.679,-146.364 288.645,-136.386"/>
<polygon fill="midnightblue" stroke="midnightblue" points="290.103,-133.198 279.621,-131.655 286.853,-139.398 290.103,-133.198"/>
</g>
<!-- Node16&#45;&gt;Node2 -->
<g id="edge36" class="edge"><title>Node16&#45;&gt;Node2</title>
<path fill="none" stroke="midnightblue" d="M111.147,-336.279C105.142,-317.824 92.1138,-273.367 92.1138,-235 92.1138,-235 92.1138,-235 92.1138,-121 92.1138,-83.7249 113.863,-76.3183 145.114,-56 193.506,-24.5366 216.439,-35.9631 275.988,-20.1014"/>
<polygon fill="midnightblue" stroke="midnightblue" points="277.197,-23.3969 285.869,-17.3106 275.294,-16.6605 277.197,-23.3969"/>
</g>
<!-- Node16&#45;&gt;Node5 -->
<g id="edge37" class="edge"><title>Node16&#45;&gt;Node5</title>
<path fill="none" stroke="midnightblue" d="M143.903,-336.444C175.943,-327.241 227.047,-312.562 262.467,-302.388"/>
<polygon fill="midnightblue" stroke="midnightblue" points="263.819,-305.641 272.464,-299.516 261.886,-298.913 263.819,-305.641"/>
</g>
</g>
</svg>
