<?xml version="1.0" encoding="UTF-8" standalone="no"?>
<!DOCTYPE svg PUBLIC "-//W3C//DTD SVG 1.1//EN"
 "http://www.w3.org/Graphics/SVG/1.1/DTD/svg11.dtd">
<!-- Generated by graphviz version 2.34.0 (20131206.1153)
 -->
<!-- Title: sdEntityCore::getName Pages: 1 -->
<svg width="552pt" height="123pt"
 viewBox="0.00 0.00 552.00 123.00" xmlns="http://www.w3.org/2000/svg" xmlns:xlink="http://www.w3.org/1999/xlink">
<g id="graph0" class="graph" transform="scale(1 1) rotate(0) translate(4 119)">
<title>sdEntityCore::getName</title>
<polygon fill="white" stroke="white" points="-4,4 -4,-119 548,-119 548,4 -4,4"/>
<!-- Node1 -->
<g id="node1" class="node"><title>Node1</title>
<polygon fill="#bfbfbf" stroke="black" points="0.5,-57.5 0.5,-76.5 113.5,-76.5 113.5,-57.5 0.5,-57.5"/>
<text text-anchor="middle" x="57" y="-64.5" font-family="Helvetica,sans-Serif" font-size="10.00">sdEntityCore::getName</text>
</g>
<!-- Node2 -->
<g id="node2" class="node"><title>Node2</title>
<g id="a_node2"><a xlink:href="classsd_entity_core.html#a4cdcaf53be00654310d23d2fc69facef" target="_top" xlink:title="sdEntityCore::sortAlphabetically">
<polygon fill="white" stroke="black" points="150.5,-95.5 150.5,-114.5 299.5,-114.5 299.5,-95.5 150.5,-95.5"/>
<text text-anchor="middle" x="225" y="-102.5" font-family="Helvetica,sans-Serif" font-size="10.00">sdEntityCore::sortAlphabetically</text>
</a>
</g>
</g>
<!-- Node1&#45;&gt;Node2 -->
<g id="edge1" class="edge"><title>Node1&#45;&gt;Node2</title>
<path fill="none" stroke="midnightblue" d="M109.653,-78.8243C133.056,-84.1816 160.357,-90.4311 182.412,-95.4799"/>
<polygon fill="midnightblue" stroke="midnightblue" points="110.418,-75.4088 99.8888,-76.589 108.856,-82.2323 110.418,-75.4088"/>
</g>
<!-- Node3 -->
<g id="node3" class="node"><title>Node3</title>
<g id="a_node3"><a xlink:href="classsd_saver.html#a2095f1dd3d75b3f5d5f9ae323fa0f971" target="_top" xlink:title="sdSaver::XMLFromScene">
<polygon fill="white" stroke="black" points="341,-76.5 341,-95.5 465,-95.5 465,-76.5 341,-76.5"/>
<text text-anchor="middle" x="403" y="-83.5" font-family="Helvetica,sans-Serif" font-size="10.00">sdSaver::XMLFromScene</text>
</a>
</g>
</g>
<!-- Node1&#45;&gt;Node3 -->
<g id="edge4" class="edge"><title>Node1&#45;&gt;Node3</title>
<path fill="none" stroke="midnightblue" d="M123.813,-70.635C186.436,-74.0938 279.908,-79.2566 340.917,-82.6262"/>
<polygon fill="midnightblue" stroke="midnightblue" points="123.83,-67.1307 113.652,-70.0738 123.444,-74.12 123.83,-67.1307"/>
</g>
<!-- Node5 -->
<g id="node5" class="node"><title>Node5</title>
<g id="a_node5"><a xlink:href="classsd_scene.html#a00b8ea89cce0690109649a262eac0911" target="_top" xlink:title="sdScene::getEntity">
<polygon fill="white" stroke="black" points="177.5,-19.5 177.5,-38.5 272.5,-38.5 272.5,-19.5 177.5,-19.5"/>
<text text-anchor="middle" x="225" y="-26.5" font-family="Helvetica,sans-Serif" font-size="10.00">sdScene::getEntity</text>
</a>
</g>
</g>
<!-- Node1&#45;&gt;Node5 -->
<g id="edge5" class="edge"><title>Node1&#45;&gt;Node5</title>
<path fill="none" stroke="midnightblue" d="M109.653,-55.1757C133.056,-49.8184 160.357,-43.5689 182.412,-38.5201"/>
<polygon fill="midnightblue" stroke="midnightblue" points="108.856,-51.7677 99.8888,-57.411 110.418,-58.5912 108.856,-51.7677"/>
</g>
<!-- Node2&#45;&gt;Node3 -->
<g id="edge2" class="edge"><title>Node2&#45;&gt;Node3</title>
<path fill="none" stroke="midnightblue" d="M309.677,-95.9667C320.214,-94.8292 330.834,-93.6827 340.93,-92.5928"/>
<polygon fill="midnightblue" stroke="midnightblue" points="309.187,-92.4992 299.62,-97.0524 309.938,-99.4588 309.187,-92.4992"/>
</g>
<!-- Node4 -->
<g id="node4" class="node"><title>Node4</title>
<g id="a_node4"><a xlink:href="_file_with_extension_8cpp.html#a840291bc02cba5474a4cb46a9b9566fe" target="_top" xlink:title="main">
<polygon fill="white" stroke="black" points="506.5,-76.5 506.5,-95.5 543.5,-95.5 543.5,-76.5 506.5,-76.5"/>
<text text-anchor="middle" x="525" y="-83.5" font-family="Helvetica,sans-Serif" font-size="10.00">main</text>
</a>
</g>
</g>
<!-- Node3&#45;&gt;Node4 -->
<g id="edge3" class="edge"><title>Node3&#45;&gt;Node4</title>
<path fill="none" stroke="midnightblue" d="M475.306,-86C486.853,-86 497.821,-86 506.413,-86"/>
<polygon fill="midnightblue" stroke="midnightblue" points="475.055,-82.5001 465.055,-86 475.055,-89.5001 475.055,-82.5001"/>
</g>
<!-- Node6 -->
<g id="node6" class="node"><title>Node6</title>
<g id="a_node6"><a xlink:href="sd_scene_test_8cpp.html#a840291bc02cba5474a4cb46a9b9566fe" target="_top" xlink:title="main">
<polygon fill="white" stroke="black" points="384.5,-38.5 384.5,-57.5 421.5,-57.5 421.5,-38.5 384.5,-38.5"/>
<text text-anchor="middle" x="403" y="-45.5" font-family="Helvetica,sans-Serif" font-size="10.00">main</text>
</a>
</g>
</g>
<!-- Node5&#45;&gt;Node6 -->
<g id="edge6" class="edge"><title>Node5&#45;&gt;Node6</title>
<path fill="none" stroke="midnightblue" d="M282.858,-35.1381C317.987,-38.9304 360.718,-43.5434 384.273,-46.0863"/>
<polygon fill="midnightblue" stroke="midnightblue" points="283.021,-31.6354 272.703,-34.0418 282.269,-38.5949 283.021,-31.6354"/>
</g>
<!-- Node7 -->
<g id="node7" class="node"><title>Node7</title>
<g id="a_node7"><a xlink:href="classsd_loader.html#a90eb4d4a140652fc18f7bc0551870020" target="_top" xlink:title="sdLoader::sceneFromJSON">
<polygon fill="white" stroke="black" points="336.5,-0.5 336.5,-19.5 469.5,-19.5 469.5,-0.5 336.5,-0.5"/>
<text text-anchor="middle" x="403" y="-7.5" font-family="Helvetica,sans-Serif" font-size="10.00">sdLoader::sceneFromJSON</text>
</a>
</g>
</g>
<!-- Node5&#45;&gt;Node7 -->
<g id="edge7" class="edge"><title>Node5&#45;&gt;Node7</title>
<path fill="none" stroke="midnightblue" d="M283.014,-22.8451C299.983,-21.0132 318.714,-18.9911 336.195,-17.1039"/>
<polygon fill="midnightblue" stroke="midnightblue" points="282.269,-19.4051 272.703,-23.9582 283.021,-26.3646 282.269,-19.4051"/>
</g>
<!-- Node8 -->
<g id="node8" class="node"><title>Node8</title>
<g id="a_node8"><a xlink:href="sd_loader_test_8cpp.html#a840291bc02cba5474a4cb46a9b9566fe" target="_top" xlink:title="main">
<polygon fill="white" stroke="black" points="506.5,-0.5 506.5,-19.5 543.5,-19.5 543.5,-0.5 506.5,-0.5"/>
<text text-anchor="middle" x="525" y="-7.5" font-family="Helvetica,sans-Serif" font-size="10.00">main</text>
</a>
</g>
</g>
<!-- Node7&#45;&gt;Node8 -->
<g id="edge8" class="edge"><title>Node7&#45;&gt;Node8</title>
<path fill="none" stroke="midnightblue" d="M479.679,-10C489.579,-10 498.868,-10 506.358,-10"/>
<polygon fill="midnightblue" stroke="midnightblue" points="479.618,-6.5001 469.618,-10 479.618,-13.5001 479.618,-6.5001"/>
</g>
</g>
</svg>
