<?xml version="1.0" encoding="UTF-8" standalone="no"?>
<!DOCTYPE svg PUBLIC "-//W3C//DTD SVG 1.1//EN"
 "http://www.w3.org/Graphics/SVG/1.1/DTD/svg11.dtd">
<!-- Generated by graphviz version 2.34.0 (20131206.1153)
 -->
<!-- Title: sdEntity::getValue Pages: 1 -->
<svg width="382pt" height="28pt"
 viewBox="0.00 0.00 382.00 28.00" xmlns="http://www.w3.org/2000/svg" xmlns:xlink="http://www.w3.org/1999/xlink">
<g id="graph0" class="graph" transform="scale(1 1) rotate(0) translate(4 24)">
<title>sdEntity::getValue</title>
<polygon fill="white" stroke="white" points="-4,4 -4,-24 378,-24 378,4 -4,4"/>
<!-- Node1 -->
<g id="node1" class="node"><title>Node1</title>
<polygon fill="#bfbfbf" stroke="black" points="0,-0.5 0,-19.5 92,-19.5 92,-0.5 0,-0.5"/>
<text text-anchor="middle" x="46" y="-7.5" font-family="Helvetica,sans-Serif" font-size="10.00">sdEntity::getValue</text>
</g>
<!-- Node2 -->
<g id="node2" class="node"><title>Node2</title>
<g id="a_node2"><a xlink:href="classsd_entity_core.html#a4cacb54fb3c38a23232ca89672b76c24" target="_top" xlink:title="sdEntityCore::getValue">
<polygon fill="white" stroke="black" points="128.5,-0.5 128.5,-19.5 241.5,-19.5 241.5,-0.5 128.5,-0.5"/>
<text text-anchor="middle" x="185" y="-7.5" font-family="Helvetica,sans-Serif" font-size="10.00">sdEntityCore::getValue</text>
</a>
</g>
</g>
<!-- Node1&#45;&gt;Node2 -->
<g id="edge1" class="edge"><title>Node1&#45;&gt;Node2</title>
<path fill="none" stroke="midnightblue" d="M102.455,-10C110.974,-10 119.774,-10 128.298,-10"/>
<polygon fill="midnightblue" stroke="midnightblue" points="102.239,-6.5001 92.2386,-10 102.239,-13.5001 102.239,-6.5001"/>
</g>
<!-- Node3 -->
<g id="node3" class="node"><title>Node3</title>
<g id="a_node3"><a xlink:href="classsd_scene.html#ae54c0a8fdb412b4d210ebef25a23c6a3" target="_top" xlink:title="sdScene::getValue">
<polygon fill="white" stroke="black" points="278,-0.5 278,-19.5 374,-19.5 374,-0.5 278,-0.5"/>
<text text-anchor="middle" x="326" y="-7.5" font-family="Helvetica,sans-Serif" font-size="10.00">sdScene::getValue</text>
</a>
</g>
</g>
<!-- Node2&#45;&gt;Node3 -->
<g id="edge2" class="edge"><title>Node2&#45;&gt;Node3</title>
<path fill="none" stroke="midnightblue" d="M251.905,-10C260.626,-10 269.423,-10 277.744,-10"/>
<polygon fill="midnightblue" stroke="midnightblue" points="251.736,-6.5001 241.736,-10 251.736,-13.5001 251.736,-6.5001"/>
</g>
</g>
</svg>
