<?xml version="1.0" encoding="UTF-8" standalone="no"?>
<!DOCTYPE svg PUBLIC "-//W3C//DTD SVG 1.1//EN"
 "http://www.w3.org/Graphics/SVG/1.1/DTD/svg11.dtd">
<!-- Generated by graphviz version 2.34.0 (20131206.1153)
 -->
<!-- Title: sdEvent::getDescriptorAsString Pages: 1 -->
<svg width="362pt" height="116pt"
 viewBox="0.00 0.00 362.00 116.00" xmlns="http://www.w3.org/2000/svg" xmlns:xlink="http://www.w3.org/1999/xlink">
<g id="graph0" class="graph" transform="scale(1 1) rotate(0) translate(4 112)">
<title>sdEvent::getDescriptorAsString</title>
<polygon fill="white" stroke="white" points="-4,4 -4,-112 358,-112 358,4 -4,4"/>
<!-- Node1 -->
<g id="node1" class="node"><title>Node1</title>
<polygon fill="#bfbfbf" stroke="black" points="0.5,-39 0.5,-69 123.5,-69 123.5,-39 0.5,-39"/>
<text text-anchor="start" x="8.5" y="-57" font-family="Helvetica,sans-Serif" font-size="10.00">sdEvent::getDescriptorAs</text>
<text text-anchor="middle" x="62" y="-46" font-family="Helvetica,sans-Serif" font-size="10.00">String</text>
</g>
<!-- Node2 -->
<g id="node2" class="node"><title>Node2</title>
<g id="a_node2"><a xlink:href="sd_scene_test_8cpp.html#a840291bc02cba5474a4cb46a9b9566fe" target="_top" xlink:title="main">
<polygon fill="white" stroke="black" points="201.5,-88.5 201.5,-107.5 238.5,-107.5 238.5,-88.5 201.5,-88.5"/>
<text text-anchor="middle" x="220" y="-95.5" font-family="Helvetica,sans-Serif" font-size="10.00">main</text>
</a>
</g>
</g>
<!-- Node1&#45;&gt;Node2 -->
<g id="edge1" class="edge"><title>Node1&#45;&gt;Node2</title>
<path fill="none" stroke="midnightblue" d="M126.147,-71.8106C153.387,-79.4938 183.137,-87.8849 201.436,-93.0462"/>
<polygon fill="midnightblue" stroke="midnightblue" points="126.825,-68.3653 116.25,-69.0192 124.924,-75.1025 126.825,-68.3653"/>
</g>
<!-- Node3 -->
<g id="node3" class="node"><title>Node3</title>
<g id="a_node3"><a xlink:href="classsd_global_event_compare.html#a023faa3ab3a35e60324ad43d79d922a5" target="_top" xlink:title="sdGlobalEventCompare\l::operator()">
<polygon fill="white" stroke="black" points="160,-39 160,-69 280,-69 280,-39 160,-39"/>
<text text-anchor="start" x="168" y="-57" font-family="Helvetica,sans-Serif" font-size="10.00">sdGlobalEventCompare</text>
<text text-anchor="middle" x="220" y="-46" font-family="Helvetica,sans-Serif" font-size="10.00">::operator()</text>
</a>
</g>
</g>
<!-- Node1&#45;&gt;Node3 -->
<g id="edge2" class="edge"><title>Node1&#45;&gt;Node3</title>
<path fill="none" stroke="midnightblue" d="M133.901,-54C142.609,-54 151.435,-54 159.941,-54"/>
<polygon fill="midnightblue" stroke="midnightblue" points="133.76,-50.5001 123.76,-54 133.76,-57.5001 133.76,-50.5001"/>
</g>
<!-- Node4 -->
<g id="node4" class="node"><title>Node4</title>
<g id="a_node4"><a xlink:href="classsd_scene.html#a1e61037274d374f8ab33e347fde8b65b" target="_top" xlink:title="sdScene::dump">
<polygon fill="white" stroke="black" points="178.5,-0.5 178.5,-19.5 261.5,-19.5 261.5,-0.5 178.5,-0.5"/>
<text text-anchor="middle" x="220" y="-7.5" font-family="Helvetica,sans-Serif" font-size="10.00">sdScene::dump</text>
</a>
</g>
</g>
<!-- Node1&#45;&gt;Node4 -->
<g id="edge3" class="edge"><title>Node1&#45;&gt;Node4</title>
<path fill="none" stroke="midnightblue" d="M126.019,-36.2255C146.196,-30.5346 167.762,-24.4516 185.041,-19.5783"/>
<polygon fill="midnightblue" stroke="midnightblue" points="124.924,-32.8975 116.25,-38.9808 126.825,-39.6347 124.924,-32.8975"/>
</g>
<!-- Node5 -->
<g id="node5" class="node"><title>Node5</title>
<g id="a_node5"><a xlink:href="sd_saver_test_8cpp.html#a840291bc02cba5474a4cb46a9b9566fe" target="_top" xlink:title="main">
<polygon fill="white" stroke="black" points="316.5,-0.5 316.5,-19.5 353.5,-19.5 353.5,-0.5 316.5,-0.5"/>
<text text-anchor="middle" x="335" y="-7.5" font-family="Helvetica,sans-Serif" font-size="10.00">main</text>
</a>
</g>
</g>
<!-- Node4&#45;&gt;Node5 -->
<g id="edge4" class="edge"><title>Node4&#45;&gt;Node5</title>
<path fill="none" stroke="midnightblue" d="M272.072,-10C287.915,-10 304.334,-10 316.282,-10"/>
<polygon fill="midnightblue" stroke="midnightblue" points="271.796,-6.5001 261.796,-10 271.796,-13.5001 271.796,-6.5001"/>
</g>
</g>
</svg>
