<?xml version="1.0" encoding="UTF-8" standalone="no"?>
<!DOCTYPE svg PUBLIC "-//W3C//DTD SVG 1.1//EN"
 "http://www.w3.org/Graphics/SVG/1.1/DTD/svg11.dtd">
<!-- Generated by graphviz version 2.34.0 (20131206.1153)
 -->
<!-- Title: sdEntityCore::getKind Pages: 1 -->
<svg width="350pt" height="28pt"
 viewBox="0.00 0.00 350.00 28.00" xmlns="http://www.w3.org/2000/svg" xmlns:xlink="http://www.w3.org/1999/xlink">
<g id="graph0" class="graph" transform="scale(1 1) rotate(0) translate(4 24)">
<title>sdEntityCore::getKind</title>
<polygon fill="white" stroke="white" points="-4,4 -4,-24 346,-24 346,4 -4,4"/>
<!-- Node1 -->
<g id="node1" class="node"><title>Node1</title>
<polygon fill="#bfbfbf" stroke="black" points="0.5,-0.5 0.5,-19.5 107.5,-19.5 107.5,-0.5 0.5,-0.5"/>
<text text-anchor="middle" x="54" y="-7.5" font-family="Helvetica,sans-Serif" font-size="10.00">sdEntityCore::getKind</text>
</g>
<!-- Node2 -->
<g id="node2" class="node"><title>Node2</title>
<g id="a_node2"><a xlink:href="classsd_saver.html#a2095f1dd3d75b3f5d5f9ae323fa0f971" target="_top" xlink:title="sdSaver::XMLFromScene">
<polygon fill="white" stroke="black" points="144,-0.5 144,-19.5 268,-19.5 268,-0.5 144,-0.5"/>
<text text-anchor="middle" x="206" y="-7.5" font-family="Helvetica,sans-Serif" font-size="10.00">sdSaver::XMLFromScene</text>
</a>
</g>
</g>
<!-- Node1&#45;&gt;Node2 -->
<g id="edge1" class="edge"><title>Node1&#45;&gt;Node2</title>
<path fill="none" stroke="midnightblue" d="M118.143,-10C126.664,-10 135.395,-10 143.879,-10"/>
<polygon fill="midnightblue" stroke="midnightblue" points="117.884,-6.5001 107.884,-10 117.884,-13.5001 117.884,-6.5001"/>
</g>
<!-- Node3 -->
<g id="node3" class="node"><title>Node3</title>
<g id="a_node3"><a xlink:href="_file_with_extension_8cpp.html#a840291bc02cba5474a4cb46a9b9566fe" target="_top" xlink:title="main">
<polygon fill="white" stroke="black" points="304.5,-0.5 304.5,-19.5 341.5,-19.5 341.5,-0.5 304.5,-0.5"/>
<text text-anchor="middle" x="323" y="-7.5" font-family="Helvetica,sans-Serif" font-size="10.00">main</text>
</a>
</g>
</g>
<!-- Node2&#45;&gt;Node3 -->
<g id="edge2" class="edge"><title>Node2&#45;&gt;Node3</title>
<path fill="none" stroke="midnightblue" d="M278.391,-10C288.021,-10 297.098,-10 304.452,-10"/>
<polygon fill="midnightblue" stroke="midnightblue" points="278.204,-6.5001 268.204,-10 278.204,-13.5001 278.204,-6.5001"/>
</g>
</g>
</svg>
