<?xml version="1.0" encoding="UTF-8" standalone="no"?>
<!DOCTYPE svg PUBLIC "-//W3C//DTD SVG 1.1//EN"
 "http://www.w3.org/Graphics/SVG/1.1/DTD/svg11.dtd">
<!-- Generated by graphviz version 2.34.0 (20131206.1153)
 -->
<!-- Title: sdEntity::getEvent Pages: 1 -->
<svg width="532pt" height="66pt"
 viewBox="0.00 0.00 532.00 66.00" xmlns="http://www.w3.org/2000/svg" xmlns:xlink="http://www.w3.org/1999/xlink">
<g id="graph0" class="graph" transform="scale(1 1) rotate(0) translate(4 62)">
<title>sdEntity::getEvent</title>
<polygon fill="white" stroke="white" points="-4,4 -4,-62 528,-62 528,4 -4,4"/>
<!-- Node1 -->
<g id="node1" class="node"><title>Node1</title>
<polygon fill="#bfbfbf" stroke="black" points="0,-19.5 0,-38.5 92,-38.5 92,-19.5 0,-19.5"/>
<text text-anchor="middle" x="46" y="-26.5" font-family="Helvetica,sans-Serif" font-size="10.00">sdEntity::getEvent</text>
</g>
<!-- Node2 -->
<g id="node2" class="node"><title>Node2</title>
<g id="a_node2"><a xlink:href="classsd_entity.html#a10bfcf57477433b546f92b4f75a7c74e" target="_top" xlink:title="sdEntity::getValue">
<polygon fill="white" stroke="black" points="139,-38.5 139,-57.5 231,-57.5 231,-38.5 139,-38.5"/>
<text text-anchor="middle" x="185" y="-45.5" font-family="Helvetica,sans-Serif" font-size="10.00">sdEntity::getValue</text>
</a>
</g>
</g>
<!-- Node1&#45;&gt;Node2 -->
<g id="edge1" class="edge"><title>Node1&#45;&gt;Node2</title>
<path fill="none" stroke="midnightblue" d="M102.265,-36.6645C114.405,-38.3481 127.121,-40.1116 138.809,-41.7326"/>
<polygon fill="midnightblue" stroke="midnightblue" points="102.625,-33.1809 92.2386,-35.274 101.663,-40.1146 102.625,-33.1809"/>
</g>
<!-- Node5 -->
<g id="node5" class="node"><title>Node5</title>
<g id="a_node5"><a xlink:href="classsd_entity_core.html#ac93a41701c64c0a8e3e0e0ae69d14aa4" target="_top" xlink:title="sdEntityCore::getEvent">
<polygon fill="white" stroke="black" points="128.5,-0.5 128.5,-19.5 241.5,-19.5 241.5,-0.5 128.5,-0.5"/>
<text text-anchor="middle" x="185" y="-7.5" font-family="Helvetica,sans-Serif" font-size="10.00">sdEntityCore::getEvent</text>
</a>
</g>
</g>
<!-- Node1&#45;&gt;Node5 -->
<g id="edge4" class="edge"><title>Node1&#45;&gt;Node5</title>
<path fill="none" stroke="midnightblue" d="M102.174,-21.3481C110.781,-20.1545 119.68,-18.9203 128.298,-17.725"/>
<polygon fill="midnightblue" stroke="midnightblue" points="101.663,-17.8854 92.2386,-22.726 102.625,-24.8191 101.663,-17.8854"/>
</g>
<!-- Node3 -->
<g id="node3" class="node"><title>Node3</title>
<g id="a_node3"><a xlink:href="classsd_entity_core.html#a4cacb54fb3c38a23232ca89672b76c24" target="_top" xlink:title="sdEntityCore::getValue">
<polygon fill="white" stroke="black" points="278.5,-38.5 278.5,-57.5 391.5,-57.5 391.5,-38.5 278.5,-38.5"/>
<text text-anchor="middle" x="335" y="-45.5" font-family="Helvetica,sans-Serif" font-size="10.00">sdEntityCore::getValue</text>
</a>
</g>
</g>
<!-- Node2&#45;&gt;Node3 -->
<g id="edge2" class="edge"><title>Node2&#45;&gt;Node3</title>
<path fill="none" stroke="midnightblue" d="M241.569,-48C253.6,-48 266.326,-48 278.361,-48"/>
<polygon fill="midnightblue" stroke="midnightblue" points="241.209,-44.5001 231.209,-48 241.209,-51.5001 241.209,-44.5001"/>
</g>
<!-- Node4 -->
<g id="node4" class="node"><title>Node4</title>
<g id="a_node4"><a xlink:href="classsd_scene.html#ae54c0a8fdb412b4d210ebef25a23c6a3" target="_top" xlink:title="sdScene::getValue">
<polygon fill="white" stroke="black" points="428,-38.5 428,-57.5 524,-57.5 524,-38.5 428,-38.5"/>
<text text-anchor="middle" x="476" y="-45.5" font-family="Helvetica,sans-Serif" font-size="10.00">sdScene::getValue</text>
</a>
</g>
</g>
<!-- Node3&#45;&gt;Node4 -->
<g id="edge3" class="edge"><title>Node3&#45;&gt;Node4</title>
<path fill="none" stroke="midnightblue" d="M401.905,-48C410.626,-48 419.423,-48 427.744,-48"/>
<polygon fill="midnightblue" stroke="midnightblue" points="401.736,-44.5001 391.736,-48 401.736,-51.5001 401.736,-44.5001"/>
</g>
<!-- Node6 -->
<g id="node6" class="node"><title>Node6</title>
<g id="a_node6"><a xlink:href="sd_scene_test_8cpp.html#a840291bc02cba5474a4cb46a9b9566fe" target="_top" xlink:title="main">
<polygon fill="white" stroke="black" points="316.5,-0.5 316.5,-19.5 353.5,-19.5 353.5,-0.5 316.5,-0.5"/>
<text text-anchor="middle" x="335" y="-7.5" font-family="Helvetica,sans-Serif" font-size="10.00">main</text>
</a>
</g>
</g>
<!-- Node5&#45;&gt;Node6 -->
<g id="edge5" class="edge"><title>Node5&#45;&gt;Node6</title>
<path fill="none" stroke="midnightblue" d="M251.564,-10C275.207,-10 300.013,-10 316.16,-10"/>
<polygon fill="midnightblue" stroke="midnightblue" points="251.531,-6.5001 241.531,-10 251.531,-13.5001 251.531,-6.5001"/>
</g>
</g>
</svg>
