<?xml version="1.0" encoding="UTF-8" standalone="no"?>
<!DOCTYPE svg PUBLIC "-//W3C//DTD SVG 1.1//EN"
 "http://www.w3.org/Graphics/SVG/1.1/DTD/svg11.dtd">
<!-- Generated by graphviz version 2.34.0 (20131206.1153)
 -->
<!-- Title: sdEntityCore::getExtensionVector Pages: 1 -->
<svg width="372pt" height="38pt"
 viewBox="0.00 0.00 372.00 38.00" xmlns="http://www.w3.org/2000/svg" xmlns:xlink="http://www.w3.org/1999/xlink">
<g id="graph0" class="graph" transform="scale(1 1) rotate(0) translate(4 34)">
<title>sdEntityCore::getExtensionVector</title>
<polygon fill="white" stroke="white" points="-4,4 -4,-34 368,-34 368,4 -4,4"/>
<!-- Node1 -->
<g id="node1" class="node"><title>Node1</title>
<polygon fill="#bfbfbf" stroke="black" points="0,-0 0,-30 130,-30 130,-0 0,-0"/>
<text text-anchor="start" x="8" y="-18" font-family="Helvetica,sans-Serif" font-size="10.00">sdEntityCore::getExtension</text>
<text text-anchor="middle" x="65" y="-7" font-family="Helvetica,sans-Serif" font-size="10.00">Vector</text>
</g>
<!-- Node2 -->
<g id="node2" class="node"><title>Node2</title>
<g id="a_node2"><a xlink:href="classsd_saver.html#a2095f1dd3d75b3f5d5f9ae323fa0f971" target="_top" xlink:title="sdSaver::XMLFromScene">
<polygon fill="white" stroke="black" points="166,-5.5 166,-24.5 290,-24.5 290,-5.5 166,-5.5"/>
<text text-anchor="middle" x="228" y="-12.5" font-family="Helvetica,sans-Serif" font-size="10.00">sdSaver::XMLFromScene</text>
</a>
</g>
</g>
<!-- Node1&#45;&gt;Node2 -->
<g id="edge1" class="edge"><title>Node1&#45;&gt;Node2</title>
<path fill="none" stroke="midnightblue" d="M140.101,-15C148.683,-15 157.363,-15 165.747,-15"/>
<polygon fill="midnightblue" stroke="midnightblue" points="140.094,-11.5001 130.094,-15 140.094,-18.5001 140.094,-11.5001"/>
</g>
<!-- Node3 -->
<g id="node3" class="node"><title>Node3</title>
<g id="a_node3"><a xlink:href="_file_with_extension_8cpp.html#a840291bc02cba5474a4cb46a9b9566fe" target="_top" xlink:title="main">
<polygon fill="white" stroke="black" points="326.5,-5.5 326.5,-24.5 363.5,-24.5 363.5,-5.5 326.5,-5.5"/>
<text text-anchor="middle" x="345" y="-12.5" font-family="Helvetica,sans-Serif" font-size="10.00">main</text>
</a>
</g>
</g>
<!-- Node2&#45;&gt;Node3 -->
<g id="edge2" class="edge"><title>Node2&#45;&gt;Node3</title>
<path fill="none" stroke="midnightblue" d="M300.391,-15C310.021,-15 319.098,-15 326.452,-15"/>
<polygon fill="midnightblue" stroke="midnightblue" points="300.204,-11.5001 290.204,-15 300.204,-18.5001 300.204,-11.5001"/>
</g>
</g>
</svg>
