<?xml version="1.0" encoding="UTF-8" standalone="no"?>
<!DOCTYPE svg PUBLIC "-//W3C//DTD SVG 1.1//EN"
 "http://www.w3.org/Graphics/SVG/1.1/DTD/svg11.dtd">
<!-- Generated by graphviz version 2.34.0 (20131206.1153)
 -->
<!-- Title: sdOSCResponder::setCurrentTime Pages: 1 -->
<svg width="408pt" height="28pt"
 viewBox="0.00 0.00 408.00 28.00" xmlns="http://www.w3.org/2000/svg" xmlns:xlink="http://www.w3.org/1999/xlink">
<g id="graph0" class="graph" transform="scale(1 1) rotate(0) translate(4 24)">
<title>sdOSCResponder::setCurrentTime</title>
<polygon fill="white" stroke="white" points="-4,4 -4,-24 404,-24 404,4 -4,4"/>
<!-- Node1 -->
<g id="node1" class="node"><title>Node1</title>
<polygon fill="#bfbfbf" stroke="black" points="0,-0.5 0,-19.5 164,-19.5 164,-0.5 0,-0.5"/>
<text text-anchor="middle" x="82" y="-7.5" font-family="Helvetica,sans-Serif" font-size="10.00">sdOSCResponder::setCurrentTime</text>
</g>
<!-- Node2 -->
<g id="node2" class="node"><title>Node2</title>
<g id="a_node2"><a xlink:href="sd_const_8h.html#af6ea173327acc9bc1ed456517a81dc9f" target="_top" xlink:title="doubleToString">
<polygon fill="white" stroke="black" points="200.5,-0.5 200.5,-19.5 279.5,-19.5 279.5,-0.5 200.5,-0.5"/>
<text text-anchor="middle" x="240" y="-7.5" font-family="Helvetica,sans-Serif" font-size="10.00">doubleToString</text>
</a>
</g>
</g>
<!-- Node1&#45;&gt;Node2 -->
<g id="edge1" class="edge"><title>Node1&#45;&gt;Node2</title>
<path fill="none" stroke="midnightblue" d="M164.198,-10C173.048,-10 181.842,-10 190.125,-10"/>
<polygon fill="midnightblue" stroke="midnightblue" points="190.308,-13.5001 200.308,-10 190.308,-6.5001 190.308,-13.5001"/>
</g>
<!-- Node3 -->
<g id="node3" class="node"><title>Node3</title>
<g id="a_node3"><a xlink:href="sd_const_8h.html#a2e4342bd50c4c585f85d074a765b4550" target="_top" xlink:title="doublesToString">
<polygon fill="white" stroke="black" points="316,-0.5 316,-19.5 400,-19.5 400,-0.5 316,-0.5"/>
<text text-anchor="middle" x="358" y="-7.5" font-family="Helvetica,sans-Serif" font-size="10.00">doublesToString</text>
</a>
</g>
</g>
<!-- Node2&#45;&gt;Node3 -->
<g id="edge2" class="edge"><title>Node2&#45;&gt;Node3</title>
<path fill="none" stroke="midnightblue" d="M279.626,-10C287.964,-10 296.904,-10 305.641,-10"/>
<polygon fill="midnightblue" stroke="midnightblue" points="305.756,-13.5001 315.756,-10 305.756,-6.5001 305.756,-13.5001"/>
</g>
</g>
</svg>
