<?xml version="1.0" encoding="UTF-8" standalone="no"?>
<!DOCTYPE svg PUBLIC "-//W3C//DTD SVG 1.1//EN"
 "http://www.w3.org/Graphics/SVG/1.1/DTD/svg11.dtd">
<!-- Generated by graphviz version 2.34.0 (20131206.1153)
 -->
<!-- Title: sdEntityCore::getLastEvent Pages: 1 -->
<svg width="582pt" height="47pt"
 viewBox="0.00 0.00 582.00 47.00" xmlns="http://www.w3.org/2000/svg" xmlns:xlink="http://www.w3.org/1999/xlink">
<g id="graph0" class="graph" transform="scale(1 1) rotate(0) translate(4 43)">
<title>sdEntityCore::getLastEvent</title>
<polygon fill="white" stroke="white" points="-4,4 -4,-43 578,-43 578,4 -4,4"/>
<!-- Node1 -->
<g id="node1" class="node"><title>Node1</title>
<polygon fill="#bfbfbf" stroke="black" points="0.5,-0.5 0.5,-19.5 131.5,-19.5 131.5,-0.5 0.5,-0.5"/>
<text text-anchor="middle" x="66" y="-7.5" font-family="Helvetica,sans-Serif" font-size="10.00">sdEntityCore::getLastEvent</text>
</g>
<!-- Node2 -->
<g id="node2" class="node"><title>Node2</title>
<g id="a_node2"><a xlink:href="classsd_entity.html#a1b946cb0864e5b3963ed15c916aa6811" target="_top" xlink:title="sdEntity::getLastEvent">
<polygon fill="white" stroke="black" points="168.5,-0.5 168.5,-19.5 279.5,-19.5 279.5,-0.5 168.5,-0.5"/>
<text text-anchor="middle" x="224" y="-7.5" font-family="Helvetica,sans-Serif" font-size="10.00">sdEntity::getLastEvent</text>
</a>
</g>
</g>
<!-- Node1&#45;&gt;Node2 -->
<g id="edge1" class="edge"><title>Node1&#45;&gt;Node2</title>
<path fill="none" stroke="midnightblue" d="M131.803,-10C140.467,-10 149.355,-10 158.022,-10"/>
<polygon fill="midnightblue" stroke="midnightblue" points="158.069,-13.5001 168.069,-10 158.069,-6.5001 158.069,-13.5001"/>
</g>
<!-- Node3 -->
<g id="node3" class="node"><title>Node3</title>
<g id="a_node3"><a xlink:href="classsd_entity.html#a28713d8652430021840d6ccce7cf403e" target="_top" xlink:title="sdEntity::getFirstEvent">
<polygon fill="white" stroke="black" points="316.5,-19.5 316.5,-38.5 425.5,-38.5 425.5,-19.5 316.5,-19.5"/>
<text text-anchor="middle" x="371" y="-26.5" font-family="Helvetica,sans-Serif" font-size="10.00">sdEntity::getFirstEvent</text>
</a>
</g>
</g>
<!-- Node2&#45;&gt;Node3 -->
<g id="edge2" class="edge"><title>Node2&#45;&gt;Node3</title>
<path fill="none" stroke="midnightblue" d="M279.818,-17.1831C288.349,-18.301 297.228,-19.4644 305.942,-20.6062"/>
<polygon fill="midnightblue" stroke="midnightblue" points="305.695,-24.1037 316.065,-21.9327 306.605,-17.163 305.695,-24.1037"/>
</g>
<!-- Node4 -->
<g id="node4" class="node"><title>Node4</title>
<g id="a_node4"><a xlink:href="classsd_entity.html#a4557f15b0b35bcae25eaa84a70453287" target="_top" xlink:title="sdEntity::getNextEvent">
<polygon fill="white" stroke="black" points="462,-0.5 462,-19.5 574,-19.5 574,-0.5 462,-0.5"/>
<text text-anchor="middle" x="518" y="-7.5" font-family="Helvetica,sans-Serif" font-size="10.00">sdEntity::getNextEvent</text>
</a>
</g>
</g>
<!-- Node2&#45;&gt;Node4 -->
<g id="edge4" class="edge"><title>Node2&#45;&gt;Node4</title>
<path fill="none" stroke="midnightblue" d="M279.58,-10C328.327,-10 399.826,-10 451.613,-10"/>
<polygon fill="midnightblue" stroke="midnightblue" points="451.696,-13.5001 461.695,-10 451.695,-6.5001 451.696,-13.5001"/>
</g>
<!-- Node3&#45;&gt;Node4 -->
<g id="edge3" class="edge"><title>Node3&#45;&gt;Node4</title>
<path fill="none" stroke="midnightblue" d="M425.581,-21.9791C434.046,-20.8698 442.882,-19.712 451.581,-18.5722"/>
<polygon fill="midnightblue" stroke="midnightblue" points="452.238,-22.0161 461.699,-17.2464 451.329,-15.0754 452.238,-22.0161"/>
</g>
</g>
</svg>
