<?xml version="1.0" encoding="UTF-8" standalone="no"?>
<!DOCTYPE svg PUBLIC "-//W3C//DTD SVG 1.1//EN"
 "http://www.w3.org/Graphics/SVG/1.1/DTD/svg11.dtd">
<!-- Generated by graphviz version 2.34.0 (20131206.1153)
 -->
<!-- Title: sdEntity::getLastEvent Pages: 1 -->
<svg width="414pt" height="47pt"
 viewBox="0.00 0.00 414.00 47.00" xmlns="http://www.w3.org/2000/svg" xmlns:xlink="http://www.w3.org/1999/xlink">
<g id="graph0" class="graph" transform="scale(1 1) rotate(0) translate(4 43)">
<title>sdEntity::getLastEvent</title>
<polygon fill="white" stroke="white" points="-4,4 -4,-43 410,-43 410,4 -4,4"/>
<!-- Node1 -->
<g id="node1" class="node"><title>Node1</title>
<polygon fill="#bfbfbf" stroke="black" points="0.5,-0.5 0.5,-19.5 111.5,-19.5 111.5,-0.5 0.5,-0.5"/>
<text text-anchor="middle" x="56" y="-7.5" font-family="Helvetica,sans-Serif" font-size="10.00">sdEntity::getLastEvent</text>
</g>
<!-- Node2 -->
<g id="node2" class="node"><title>Node2</title>
<g id="a_node2"><a xlink:href="classsd_entity.html#a28713d8652430021840d6ccce7cf403e" target="_top" xlink:title="sdEntity::getFirstEvent">
<polygon fill="white" stroke="black" points="148.5,-19.5 148.5,-38.5 257.5,-38.5 257.5,-19.5 148.5,-19.5"/>
<text text-anchor="middle" x="203" y="-26.5" font-family="Helvetica,sans-Serif" font-size="10.00">sdEntity::getFirstEvent</text>
</a>
</g>
</g>
<!-- Node1&#45;&gt;Node2 -->
<g id="edge1" class="edge"><title>Node1&#45;&gt;Node2</title>
<path fill="none" stroke="midnightblue" d="M111.818,-17.1831C120.349,-18.301 129.228,-19.4644 137.942,-20.6062"/>
<polygon fill="midnightblue" stroke="midnightblue" points="137.695,-24.1037 148.065,-21.9327 138.605,-17.163 137.695,-24.1037"/>
</g>
<!-- Node3 -->
<g id="node3" class="node"><title>Node3</title>
<g id="a_node3"><a xlink:href="classsd_entity.html#a4557f15b0b35bcae25eaa84a70453287" target="_top" xlink:title="sdEntity::getNextEvent">
<polygon fill="white" stroke="black" points="294,-0.5 294,-19.5 406,-19.5 406,-0.5 294,-0.5"/>
<text text-anchor="middle" x="350" y="-7.5" font-family="Helvetica,sans-Serif" font-size="10.00">sdEntity::getNextEvent</text>
</a>
</g>
</g>
<!-- Node1&#45;&gt;Node3 -->
<g id="edge3" class="edge"><title>Node1&#45;&gt;Node3</title>
<path fill="none" stroke="midnightblue" d="M111.58,-10C160.327,-10 231.826,-10 283.613,-10"/>
<polygon fill="midnightblue" stroke="midnightblue" points="283.696,-13.5001 293.695,-10 283.695,-6.5001 283.696,-13.5001"/>
</g>
<!-- Node2&#45;&gt;Node3 -->
<g id="edge2" class="edge"><title>Node2&#45;&gt;Node3</title>
<path fill="none" stroke="midnightblue" d="M257.581,-21.9791C266.046,-20.8698 274.882,-19.712 283.581,-18.5722"/>
<polygon fill="midnightblue" stroke="midnightblue" points="284.238,-22.0161 293.699,-17.2464 283.329,-15.0754 284.238,-22.0161"/>
</g>
</g>
</svg>
