<?xml version="1.0" encoding="UTF-8" standalone="no"?>
<!DOCTYPE svg PUBLIC "-//W3C//DTD SVG 1.1//EN"
 "http://www.w3.org/Graphics/SVG/1.1/DTD/svg11.dtd">
<!-- Generated by graphviz version 2.34.0 (20131206.1153)
 -->
<!-- Title: sdEvent::getValueAsString Pages: 1 -->
<svg width="332pt" height="66pt"
 viewBox="0.00 0.00 332.00 66.00" xmlns="http://www.w3.org/2000/svg" xmlns:xlink="http://www.w3.org/1999/xlink">
<g id="graph0" class="graph" transform="scale(1 1) rotate(0) translate(4 62)">
<title>sdEvent::getValueAsString</title>
<polygon fill="white" stroke="white" points="-4,4 -4,-62 328,-62 328,4 -4,4"/>
<!-- Node1 -->
<g id="node1" class="node"><title>Node1</title>
<polygon fill="#bfbfbf" stroke="black" points="0.5,-19.5 0.5,-38.5 129.5,-38.5 129.5,-19.5 0.5,-19.5"/>
<text text-anchor="middle" x="65" y="-26.5" font-family="Helvetica,sans-Serif" font-size="10.00">sdEvent::getValueAsString</text>
</g>
<!-- Node2 -->
<g id="node2" class="node"><title>Node2</title>
<g id="a_node2"><a xlink:href="_file_with_extension_8cpp.html#a840291bc02cba5474a4cb46a9b9566fe" target="_top" xlink:title="main">
<polygon fill="white" stroke="black" points="189.5,-38.5 189.5,-57.5 226.5,-57.5 226.5,-38.5 189.5,-38.5"/>
<text text-anchor="middle" x="208" y="-45.5" font-family="Helvetica,sans-Serif" font-size="10.00">main</text>
</a>
</g>
</g>
<!-- Node1&#45;&gt;Node2 -->
<g id="edge1" class="edge"><title>Node1&#45;&gt;Node2</title>
<path fill="none" stroke="midnightblue" d="M139.852,-38.9517C158.312,-41.4392 176.464,-43.8852 189.232,-45.6057"/>
<polygon fill="midnightblue" stroke="midnightblue" points="140.277,-35.4774 129.899,-37.6105 139.342,-42.4147 140.277,-35.4774"/>
</g>
<!-- Node3 -->
<g id="node3" class="node"><title>Node3</title>
<g id="a_node3"><a xlink:href="classsd_scene.html#a1e61037274d374f8ab33e347fde8b65b" target="_top" xlink:title="sdScene::dump">
<polygon fill="white" stroke="black" points="166.5,-0.5 166.5,-19.5 249.5,-19.5 249.5,-0.5 166.5,-0.5"/>
<text text-anchor="middle" x="208" y="-7.5" font-family="Helvetica,sans-Serif" font-size="10.00">sdScene::dump</text>
</a>
</g>
</g>
<!-- Node1&#45;&gt;Node3 -->
<g id="edge2" class="edge"><title>Node1&#45;&gt;Node3</title>
<path fill="none" stroke="midnightblue" d="M140.09,-19.0162C149.115,-17.8001 158.061,-16.5946 166.335,-15.4797"/>
<polygon fill="midnightblue" stroke="midnightblue" points="139.342,-15.5853 129.899,-20.3895 140.277,-22.5226 139.342,-15.5853"/>
</g>
<!-- Node4 -->
<g id="node4" class="node"><title>Node4</title>
<g id="a_node4"><a xlink:href="sd_saver_test_8cpp.html#a840291bc02cba5474a4cb46a9b9566fe" target="_top" xlink:title="main">
<polygon fill="white" stroke="black" points="286.5,-0.5 286.5,-19.5 323.5,-19.5 323.5,-0.5 286.5,-0.5"/>
<text text-anchor="middle" x="305" y="-7.5" font-family="Helvetica,sans-Serif" font-size="10.00">main</text>
</a>
</g>
</g>
<!-- Node3&#45;&gt;Node4 -->
<g id="edge3" class="edge"><title>Node3&#45;&gt;Node4</title>
<path fill="none" stroke="midnightblue" d="M259.621,-10C269.277,-10 278.76,-10 286.465,-10"/>
<polygon fill="midnightblue" stroke="midnightblue" points="259.564,-6.5001 249.564,-10 259.564,-13.5001 259.564,-6.5001"/>
</g>
</g>
</svg>
