<?xml version="1.0" encoding="UTF-8" standalone="no"?>
<!DOCTYPE svg PUBLIC "-//W3C//DTD SVG 1.1//EN"
 "http://www.w3.org/Graphics/SVG/1.1/DTD/svg11.dtd">
<!-- Generated by graphviz version 2.34.0 (20131206.1153)
 -->
<!-- Title: sdScene::dump Pages: 1 -->
<svg width="566pt" height="292pt"
 viewBox="0.00 0.00 566.00 292.00" xmlns="http://www.w3.org/2000/svg" xmlns:xlink="http://www.w3.org/1999/xlink">
<g id="graph0" class="graph" transform="scale(1 1) rotate(0) translate(4 288)">
<title>sdScene::dump</title>
<polygon fill="white" stroke="white" points="-4,4 -4,-288 562,-288 562,4 -4,4"/>
<!-- Node1 -->
<g id="node1" class="node"><title>Node1</title>
<polygon fill="#bfbfbf" stroke="black" points="0.5,-132.5 0.5,-151.5 83.5,-151.5 83.5,-132.5 0.5,-132.5"/>
<text text-anchor="middle" x="42" y="-139.5" font-family="Helvetica,sans-Serif" font-size="10.00">sdScene::dump</text>
</g>
<!-- Node2 -->
<g id="node2" class="node"><title>Node2</title>
<g id="a_node2"><a xlink:href="classsd_event.html#a43dc0ffb37fdf843cc8bd3888dd7289f" target="_top" xlink:title="sdEvent::getTimeAsString">
<polygon fill="white" stroke="black" points="124,-264.5 124,-283.5 248,-283.5 248,-264.5 124,-264.5"/>
<text text-anchor="middle" x="186" y="-271.5" font-family="Helvetica,sans-Serif" font-size="10.00">sdEvent::getTimeAsString</text>
</a>
</g>
</g>
<!-- Node1&#45;&gt;Node2 -->
<g id="edge1" class="edge"><title>Node1&#45;&gt;Node2</title>
<path fill="none" stroke="midnightblue" d="M46.9815,-151.723C56.3624,-173.418 81.9645,-226.063 120,-254 123.226,-256.37 126.738,-258.463 130.404,-260.311"/>
<polygon fill="midnightblue" stroke="midnightblue" points="129.192,-263.601 139.755,-264.417 132.006,-257.192 129.192,-263.601"/>
</g>
<!-- Node5 -->
<g id="node5" class="node"><title>Node5</title>
<g id="a_node5"><a xlink:href="classsd_event_core.html#a01cc217ba7619c011978356980fd2381" target="_top" xlink:title="sdEventCore::getDescriptor\lAsString">
<polygon fill="white" stroke="black" points="120.5,-215 120.5,-245 251.5,-245 251.5,-215 120.5,-215"/>
<text text-anchor="start" x="128.5" y="-233" font-family="Helvetica,sans-Serif" font-size="10.00">sdEventCore::getDescriptor</text>
<text text-anchor="middle" x="186" y="-222" font-family="Helvetica,sans-Serif" font-size="10.00">AsString</text>
</a>
</g>
</g>
<!-- Node1&#45;&gt;Node5 -->
<g id="edge4" class="edge"><title>Node1&#45;&gt;Node5</title>
<path fill="none" stroke="midnightblue" d="M54.1976,-151.651C68.7228,-163.876 95.1513,-185.139 120,-200 126.233,-203.728 133.008,-207.317 139.752,-210.637"/>
<polygon fill="midnightblue" stroke="midnightblue" points="138.342,-213.842 148.875,-214.984 141.353,-207.523 138.342,-213.842"/>
</g>
<!-- Node7 -->
<g id="node7" class="node"><title>Node7</title>
<g id="a_node7"><a xlink:href="classsd_event_core.html#a90bb7c69858b3274ec6abc0c86ff818c" target="_top" xlink:title="sdEventCore::getValueAsString">
<polygon fill="white" stroke="black" points="288.5,-179.5 288.5,-198.5 437.5,-198.5 437.5,-179.5 288.5,-179.5"/>
<text text-anchor="middle" x="363" y="-186.5" font-family="Helvetica,sans-Serif" font-size="10.00">sdEventCore::getValueAsString</text>
</a>
</g>
</g>
<!-- Node1&#45;&gt;Node7 -->
<g id="edge6" class="edge"><title>Node1&#45;&gt;Node7</title>
<path fill="none" stroke="midnightblue" d="M69.0212,-151.59C83.7799,-156.653 102.703,-162.522 120,-166 172.038,-176.465 231.356,-182.198 278.24,-185.324"/>
<polygon fill="midnightblue" stroke="midnightblue" points="278.148,-188.825 288.351,-185.971 278.595,-181.839 278.148,-188.825"/>
</g>
<!-- Node8 -->
<g id="node8" class="node"><title>Node8</title>
<g id="a_node8"><a xlink:href="classsd_entity_extension.html#a5d2edcbe47d637441fa1e975c2c00f70" target="_top" xlink:title="sdEntityExtension::\lgetExtensionNameAsString">
<polygon fill="white" stroke="black" points="120,-127 120,-157 252,-157 252,-127 120,-127"/>
<text text-anchor="start" x="128" y="-145" font-family="Helvetica,sans-Serif" font-size="10.00">sdEntityExtension::</text>
<text text-anchor="middle" x="186" y="-134" font-family="Helvetica,sans-Serif" font-size="10.00">getExtensionNameAsString</text>
</a>
</g>
</g>
<!-- Node1&#45;&gt;Node8 -->
<g id="edge8" class="edge"><title>Node1&#45;&gt;Node8</title>
<path fill="none" stroke="midnightblue" d="M83.6915,-142C91.9087,-142 100.793,-142 109.767,-142"/>
<polygon fill="midnightblue" stroke="midnightblue" points="109.908,-145.5 119.908,-142 109.907,-138.5 109.908,-145.5"/>
</g>
<!-- Node9 -->
<g id="node9" class="node"><title>Node9</title>
<g id="a_node9"><a xlink:href="classsd_entity.html#acc339121114228be8609b9055b080a28" target="_top" xlink:title="sdEntity::getEventSet">
<polygon fill="white" stroke="black" points="132.5,-88.5 132.5,-107.5 239.5,-107.5 239.5,-88.5 132.5,-88.5"/>
<text text-anchor="middle" x="186" y="-95.5" font-family="Helvetica,sans-Serif" font-size="10.00">sdEntity::getEventSet</text>
</a>
</g>
</g>
<!-- Node1&#45;&gt;Node9 -->
<g id="edge9" class="edge"><title>Node1&#45;&gt;Node9</title>
<path fill="none" stroke="midnightblue" d="M73.7166,-132.398C87.8147,-127.998 104.752,-122.722 120,-118 127.858,-115.567 136.253,-112.976 144.311,-110.495"/>
<polygon fill="midnightblue" stroke="midnightblue" points="145.386,-113.826 153.914,-107.54 143.327,-107.136 145.386,-113.826"/>
</g>
<!-- Node10 -->
<g id="node10" class="node"><title>Node10</title>
<g id="a_node10"><a xlink:href="classsd_event.html#a0b6810faec49cbc26bbfd300e307c079" target="_top" xlink:title="sdEvent::getDescriptorAs\lString">
<polygon fill="white" stroke="black" points="124.5,-39 124.5,-69 247.5,-69 247.5,-39 124.5,-39"/>
<text text-anchor="start" x="132.5" y="-57" font-family="Helvetica,sans-Serif" font-size="10.00">sdEvent::getDescriptorAs</text>
<text text-anchor="middle" x="186" y="-46" font-family="Helvetica,sans-Serif" font-size="10.00">String</text>
</a>
</g>
</g>
<!-- Node1&#45;&gt;Node10 -->
<g id="edge10" class="edge"><title>Node1&#45;&gt;Node10</title>
<path fill="none" stroke="midnightblue" d="M52.6857,-132.321C66.5753,-118.872 93.4182,-94.4483 120,-79 123.43,-77.0066 127.049,-75.1135 130.751,-73.3277"/>
<polygon fill="midnightblue" stroke="midnightblue" points="132.399,-76.4239 140.068,-69.1138 129.514,-70.046 132.399,-76.4239"/>
</g>
<!-- Node11 -->
<g id="node11" class="node"><title>Node11</title>
<g id="a_node11"><a xlink:href="classsd_event.html#a2941bfbdbb11cb95d16bcbc50c19a161" target="_top" xlink:title="sdEvent::getValueAsString">
<polygon fill="white" stroke="black" points="121.5,-0.5 121.5,-19.5 250.5,-19.5 250.5,-0.5 121.5,-0.5"/>
<text text-anchor="middle" x="186" y="-7.5" font-family="Helvetica,sans-Serif" font-size="10.00">sdEvent::getValueAsString</text>
</a>
</g>
</g>
<!-- Node1&#45;&gt;Node11 -->
<g id="edge11" class="edge"><title>Node1&#45;&gt;Node11</title>
<path fill="none" stroke="midnightblue" d="M46.9815,-132.277C56.3624,-110.582 81.9645,-57.9369 120,-30 123.226,-27.6302 126.738,-25.5373 130.404,-23.6895"/>
<polygon fill="midnightblue" stroke="midnightblue" points="132.006,-26.8084 139.755,-19.5832 129.192,-20.3991 132.006,-26.8084"/>
</g>
<!-- Node3 -->
<g id="node3" class="node"><title>Node3</title>
<g id="a_node3"><a xlink:href="sd_const_8h.html#af6ea173327acc9bc1ed456517a81dc9f" target="_top" xlink:title="doubleToString">
<polygon fill="white" stroke="black" points="323.5,-261.5 323.5,-280.5 402.5,-280.5 402.5,-261.5 323.5,-261.5"/>
<text text-anchor="middle" x="363" y="-268.5" font-family="Helvetica,sans-Serif" font-size="10.00">doubleToString</text>
</a>
</g>
</g>
<!-- Node2&#45;&gt;Node3 -->
<g id="edge2" class="edge"><title>Node2&#45;&gt;Node3</title>
<path fill="none" stroke="midnightblue" d="M248.207,-272.951C269.442,-272.587 292.955,-272.184 313.068,-271.839"/>
<polygon fill="midnightblue" stroke="midnightblue" points="313.308,-275.335 323.247,-271.664 313.188,-268.336 313.308,-275.335"/>
</g>
<!-- Node4 -->
<g id="node4" class="node"><title>Node4</title>
<g id="a_node4"><a xlink:href="sd_const_8h.html#a2e4342bd50c4c585f85d074a765b4550" target="_top" xlink:title="doublesToString">
<polygon fill="white" stroke="black" points="474,-221.5 474,-240.5 558,-240.5 558,-221.5 474,-221.5"/>
<text text-anchor="middle" x="516" y="-228.5" font-family="Helvetica,sans-Serif" font-size="10.00">doublesToString</text>
</a>
</g>
</g>
<!-- Node3&#45;&gt;Node4 -->
<g id="edge3" class="edge"><title>Node3&#45;&gt;Node4</title>
<path fill="none" stroke="midnightblue" d="M400.168,-261.419C420.9,-255.927 447.12,-248.981 469.271,-243.114"/>
<polygon fill="midnightblue" stroke="midnightblue" points="470.357,-246.447 479.127,-240.503 468.564,-239.68 470.357,-246.447"/>
</g>
<!-- Node6 -->
<g id="node6" class="node"><title>Node6</title>
<g id="a_node6"><a xlink:href="sd_const_8h.html#a8b0d05038cb62764b45ace0051c0023e" target="_top" xlink:title="descriptorToString">
<polygon fill="white" stroke="black" points="318,-220.5 318,-239.5 408,-239.5 408,-220.5 318,-220.5"/>
<text text-anchor="middle" x="363" y="-227.5" font-family="Helvetica,sans-Serif" font-size="10.00">descriptorToString</text>
</a>
</g>
</g>
<!-- Node5&#45;&gt;Node6 -->
<g id="edge5" class="edge"><title>Node5&#45;&gt;Node6</title>
<path fill="none" stroke="midnightblue" d="M251.666,-230C270.061,-230 289.903,-230 307.619,-230"/>
<polygon fill="midnightblue" stroke="midnightblue" points="307.778,-233.5 317.778,-230 307.778,-226.5 307.778,-233.5"/>
</g>
<!-- Node7&#45;&gt;Node4 -->
<g id="edge7" class="edge"><title>Node7&#45;&gt;Node4</title>
<path fill="none" stroke="midnightblue" d="M398.264,-198.53C419.715,-204.497 447.572,-212.245 470.693,-218.676"/>
<polygon fill="midnightblue" stroke="midnightblue" points="470.038,-222.127 480.61,-221.435 471.914,-215.383 470.038,-222.127"/>
</g>
</g>
</svg>
