<?xml version="1.0" encoding="UTF-8" standalone="no"?>
<!DOCTYPE svg PUBLIC "-//W3C//DTD SVG 1.1//EN"
 "http://www.w3.org/Graphics/SVG/1.1/DTD/svg11.dtd">
<!-- Generated by graphviz version 2.34.0 (20131206.1153)
 -->
<!-- Title: sdEntity::getNextEvent Pages: 1 -->
<svg width="622pt" height="104pt"
 viewBox="0.00 0.00 622.00 104.00" xmlns="http://www.w3.org/2000/svg" xmlns:xlink="http://www.w3.org/1999/xlink">
<g id="graph0" class="graph" transform="scale(1 1) rotate(0) translate(4 100)">
<title>sdEntity::getNextEvent</title>
<polygon fill="white" stroke="white" points="-4,4 -4,-100 618,-100 618,4 -4,4"/>
<!-- Node1 -->
<g id="node1" class="node"><title>Node1</title>
<polygon fill="#bfbfbf" stroke="black" points="0,-38.5 0,-57.5 112,-57.5 112,-38.5 0,-38.5"/>
<text text-anchor="middle" x="56" y="-45.5" font-family="Helvetica,sans-Serif" font-size="10.00">sdEntity::getNextEvent</text>
</g>
<!-- Node2 -->
<g id="node2" class="node"><title>Node2</title>
<g id="a_node2"><a xlink:href="classsd_entity.html#a28713d8652430021840d6ccce7cf403e" target="_top" xlink:title="sdEntity::getFirstEvent">
<polygon fill="white" stroke="black" points="159.5,-38.5 159.5,-57.5 268.5,-57.5 268.5,-38.5 159.5,-38.5"/>
<text text-anchor="middle" x="214" y="-45.5" font-family="Helvetica,sans-Serif" font-size="10.00">sdEntity::getFirstEvent</text>
</a>
</g>
</g>
<!-- Node1&#45;&gt;Node2 -->
<g id="edge1" class="edge"><title>Node1&#45;&gt;Node2</title>
<path fill="none" stroke="midnightblue" d="M122.592,-48C134.829,-48 147.484,-48 159.31,-48"/>
<polygon fill="midnightblue" stroke="midnightblue" points="122.439,-44.5001 112.439,-48 122.439,-51.5001 122.439,-44.5001"/>
</g>
<!-- Node3 -->
<g id="node3" class="node"><title>Node3</title>
<g id="a_node3"><a xlink:href="classsd_entity.html#a1b946cb0864e5b3963ed15c916aa6811" target="_top" xlink:title="sdEntity::getLastEvent">
<polygon fill="white" stroke="black" points="325.5,-76.5 325.5,-95.5 436.5,-95.5 436.5,-76.5 325.5,-76.5"/>
<text text-anchor="middle" x="381" y="-83.5" font-family="Helvetica,sans-Serif" font-size="10.00">sdEntity::getLastEvent</text>
</a>
</g>
</g>
<!-- Node1&#45;&gt;Node3 -->
<g id="edge5" class="edge"><title>Node1&#45;&gt;Node3</title>
<path fill="none" stroke="midnightblue" d="M107.402,-59.6862C120.559,-62.4167 134.763,-65.0836 148,-67 208.393,-75.7433 278.258,-80.7827 325.409,-83.4456"/>
<polygon fill="midnightblue" stroke="midnightblue" points="108.087,-56.2538 97.5781,-57.5971 106.631,-63.1007 108.087,-56.2538"/>
</g>
<!-- Node6 -->
<g id="node6" class="node"><title>Node6</title>
<g id="a_node6"><a xlink:href="classsd_entity_core.html#af8ae53c68b1fcabf695ff51de08de828" target="_top" xlink:title="sdEntityCore::getNextEvent">
<polygon fill="white" stroke="black" points="148,-0.5 148,-19.5 280,-19.5 280,-0.5 148,-0.5"/>
<text text-anchor="middle" x="214" y="-7.5" font-family="Helvetica,sans-Serif" font-size="10.00">sdEntityCore::getNextEvent</text>
</a>
</g>
</g>
<!-- Node1&#45;&gt;Node6 -->
<g id="edge6" class="edge"><title>Node1&#45;&gt;Node6</title>
<path fill="none" stroke="midnightblue" d="M106.132,-36.032C127.993,-30.7069 153.376,-24.5238 173.918,-19.5201"/>
<polygon fill="midnightblue" stroke="midnightblue" points="105.253,-32.6437 96.3654,-38.411 106.91,-39.4448 105.253,-32.6437"/>
</g>
<!-- Node2&#45;&gt;Node3 -->
<g id="edge2" class="edge"><title>Node2&#45;&gt;Node3</title>
<path fill="none" stroke="midnightblue" d="M266.654,-59.8961C289.846,-65.2374 316.838,-71.4537 338.663,-76.4799"/>
<polygon fill="midnightblue" stroke="midnightblue" points="267.167,-56.4226 256.636,-57.589 265.596,-63.2441 267.167,-56.4226"/>
</g>
<!-- Node5 -->
<g id="node5" class="node"><title>Node5</title>
<g id="a_node5"><a xlink:href="classsd_entity_core.html#ac4e5e6ca2e0508b206ccdf29c9b0c035" target="_top" xlink:title="sdEntityCore::getFirstEvent">
<polygon fill="white" stroke="black" points="316.5,-38.5 316.5,-57.5 445.5,-57.5 445.5,-38.5 316.5,-38.5"/>
<text text-anchor="middle" x="381" y="-45.5" font-family="Helvetica,sans-Serif" font-size="10.00">sdEntityCore::getFirstEvent</text>
</a>
</g>
</g>
<!-- Node2&#45;&gt;Node5 -->
<g id="edge4" class="edge"><title>Node2&#45;&gt;Node5</title>
<path fill="none" stroke="midnightblue" d="M278.765,-48C291.098,-48 304.02,-48 316.349,-48"/>
<polygon fill="midnightblue" stroke="midnightblue" points="278.571,-44.5001 268.571,-48 278.571,-51.5001 278.571,-44.5001"/>
</g>
<!-- Node4 -->
<g id="node4" class="node"><title>Node4</title>
<g id="a_node4"><a xlink:href="classsd_entity_core.html#a620b06cfa24cc5f46590f3ff9a5c5c55" target="_top" xlink:title="sdEntityCore::getLastEvent">
<polygon fill="white" stroke="black" points="482.5,-76.5 482.5,-95.5 613.5,-95.5 613.5,-76.5 482.5,-76.5"/>
<text text-anchor="middle" x="548" y="-83.5" font-family="Helvetica,sans-Serif" font-size="10.00">sdEntityCore::getLastEvent</text>
</a>
</g>
</g>
<!-- Node3&#45;&gt;Node4 -->
<g id="edge3" class="edge"><title>Node3&#45;&gt;Node4</title>
<path fill="none" stroke="midnightblue" d="M446.993,-86C458.599,-86 470.69,-86 482.289,-86"/>
<polygon fill="midnightblue" stroke="midnightblue" points="446.943,-82.5001 436.943,-86 446.943,-89.5001 446.943,-82.5001"/>
</g>
</g>
</svg>
