<?xml version="1.0" encoding="UTF-8" standalone="no"?>
<!DOCTYPE svg PUBLIC "-//W3C//DTD SVG 1.1//EN"
 "http://www.w3.org/Graphics/SVG/1.1/DTD/svg11.dtd">
<!-- Generated by graphviz version 2.34.0 (20131206.1153)
 -->
<!-- Title: sdLoader::sceneFromJSON Pages: 1 -->
<svg width="446pt" height="446pt"
 viewBox="0.00 0.00 446.00 446.00" xmlns="http://www.w3.org/2000/svg" xmlns:xlink="http://www.w3.org/1999/xlink">
<g id="graph0" class="graph" transform="scale(1 1) rotate(0) translate(4 442)">
<title>sdLoader::sceneFromJSON</title>
<polygon fill="white" stroke="white" points="-4,4 -4,-442 442,-442 442,4 -4,4"/>
<!-- Node1 -->
<g id="node1" class="node"><title>Node1</title>
<polygon fill="#bfbfbf" stroke="black" points="0.5,-209.5 0.5,-228.5 133.5,-228.5 133.5,-209.5 0.5,-209.5"/>
<text text-anchor="middle" x="67" y="-216.5" font-family="Helvetica,sans-Serif" font-size="10.00">sdLoader::sceneFromJSON</text>
</g>
<!-- Node2 -->
<g id="node2" class="node"><title>Node2</title>
<g id="a_node2"><a xlink:href="classsd_info.html#a93a8e95d4e6f54544089151c10abe646" target="_top" xlink:title="sdInfo::setAuthor">
<polygon fill="white" stroke="black" points="186,-418.5 186,-437.5 272,-437.5 272,-418.5 186,-418.5"/>
<text text-anchor="middle" x="229" y="-425.5" font-family="Helvetica,sans-Serif" font-size="10.00">sdInfo::setAuthor</text>
</a>
</g>
</g>
<!-- Node1&#45;&gt;Node2 -->
<g id="edge1" class="edge"><title>Node1&#45;&gt;Node2</title>
<path fill="none" stroke="midnightblue" d="M70.3763,-228.51C78.5713,-259.347 108.584,-357.549 170,-409 172.026,-410.697 174.207,-412.243 176.494,-413.653"/>
<polygon fill="midnightblue" stroke="midnightblue" points="175.249,-416.949 185.739,-418.437 178.466,-410.733 175.249,-416.949"/>
</g>
<!-- Node3 -->
<g id="node3" class="node"><title>Node3</title>
<g id="a_node3"><a xlink:href="classsd_info.html#a297e4c88aec05ec55b43889f763095ac" target="_top" xlink:title="sdInfo::setHost">
<polygon fill="white" stroke="black" points="189.5,-380.5 189.5,-399.5 268.5,-399.5 268.5,-380.5 189.5,-380.5"/>
<text text-anchor="middle" x="229" y="-387.5" font-family="Helvetica,sans-Serif" font-size="10.00">sdInfo::setHost</text>
</a>
</g>
</g>
<!-- Node1&#45;&gt;Node3 -->
<g id="edge2" class="edge"><title>Node1&#45;&gt;Node3</title>
<path fill="none" stroke="midnightblue" d="M71.8553,-228.818C82.903,-255.691 117.304,-331.092 170,-371 173.141,-373.379 176.594,-375.468 180.201,-377.3"/>
<polygon fill="midnightblue" stroke="midnightblue" points="178.833,-380.522 189.396,-381.347 181.653,-374.115 178.833,-380.522"/>
</g>
<!-- Node4 -->
<g id="node4" class="node"><title>Node4</title>
<g id="a_node4"><a xlink:href="classsd_info.html#a804743b40da45751cda131149c8c616f" target="_top" xlink:title="sdInfo::setDate">
<polygon fill="white" stroke="black" points="189,-342.5 189,-361.5 269,-361.5 269,-342.5 189,-342.5"/>
<text text-anchor="middle" x="229" y="-349.5" font-family="Helvetica,sans-Serif" font-size="10.00">sdInfo::setDate</text>
</a>
</g>
</g>
<!-- Node1&#45;&gt;Node4 -->
<g id="edge3" class="edge"><title>Node1&#45;&gt;Node4</title>
<path fill="none" stroke="midnightblue" d="M74.124,-228.808C88.2905,-250.71 125.535,-303.948 170,-333 173.11,-335.032 176.456,-336.864 179.916,-338.512"/>
<polygon fill="midnightblue" stroke="midnightblue" points="178.679,-341.789 189.252,-342.459 181.404,-335.341 178.679,-341.789"/>
</g>
<!-- Node5 -->
<g id="node5" class="node"><title>Node5</title>
<g id="a_node5"><a xlink:href="classsd_info.html#ac5a8019293a84ffcd56f48fcfaf70cb7" target="_top" xlink:title="sdInfo::setSession">
<polygon fill="white" stroke="black" points="182,-304.5 182,-323.5 276,-323.5 276,-304.5 182,-304.5"/>
<text text-anchor="middle" x="229" y="-311.5" font-family="Helvetica,sans-Serif" font-size="10.00">sdInfo::setSession</text>
</a>
</g>
</g>
<!-- Node1&#45;&gt;Node5 -->
<g id="edge4" class="edge"><title>Node1&#45;&gt;Node5</title>
<path fill="none" stroke="midnightblue" d="M78.5297,-228.698C96.2144,-244.538 133.537,-276.088 170,-295 174.078,-297.115 178.439,-299.059 182.87,-300.829"/>
<polygon fill="midnightblue" stroke="midnightblue" points="182.004,-304.24 192.597,-304.424 184.431,-297.674 182.004,-304.24"/>
</g>
<!-- Node6 -->
<g id="node6" class="node"><title>Node6</title>
<g id="a_node6"><a xlink:href="classsd_info.html#a7c1dd7da9d8e19f76cc372636326b078" target="_top" xlink:title="sdInfo::setLocation">
<polygon fill="white" stroke="black" points="181.5,-266.5 181.5,-285.5 276.5,-285.5 276.5,-266.5 181.5,-266.5"/>
<text text-anchor="middle" x="229" y="-273.5" font-family="Helvetica,sans-Serif" font-size="10.00">sdInfo::setLocation</text>
</a>
</g>
</g>
<!-- Node1&#45;&gt;Node6 -->
<g id="edge5" class="edge"><title>Node1&#45;&gt;Node6</title>
<path fill="none" stroke="midnightblue" d="M93.049,-228.651C113.635,-236.505 143.601,-247.763 170,-257 175.973,-259.09 182.315,-261.239 188.53,-263.305"/>
<polygon fill="midnightblue" stroke="midnightblue" points="187.525,-266.659 198.119,-266.464 189.716,-260.011 187.525,-266.659"/>
</g>
<!-- Node7 -->
<g id="node7" class="node"><title>Node7</title>
<g id="a_node7"><a xlink:href="classsd_info.html#adb14ece5126bc347f00e4d6a2b3c19d5" target="_top" xlink:title="sdInfo::setAnnotation">
<polygon fill="white" stroke="black" points="177,-228.5 177,-247.5 281,-247.5 281,-228.5 177,-228.5"/>
<text text-anchor="middle" x="229" y="-235.5" font-family="Helvetica,sans-Serif" font-size="10.00">sdInfo::setAnnotation</text>
</a>
</g>
</g>
<!-- Node1&#45;&gt;Node7 -->
<g id="edge6" class="edge"><title>Node1&#45;&gt;Node7</title>
<path fill="none" stroke="midnightblue" d="M133.54,-226.783C144.396,-228.072 155.62,-229.405 166.376,-230.682"/>
<polygon fill="midnightblue" stroke="midnightblue" points="166.174,-234.183 176.517,-231.886 166.999,-227.231 166.174,-234.183"/>
</g>
<!-- Node8 -->
<g id="node8" class="node"><title>Node8</title>
<g id="a_node8"><a xlink:href="classsd_scene.html#ad5bc6a91ac1e28bf9182ae00ef7d1bbd" target="_top" xlink:title="sdScene::addExtension">
<polygon fill="white" stroke="black" points="170.5,-190.5 170.5,-209.5 287.5,-209.5 287.5,-190.5 170.5,-190.5"/>
<text text-anchor="middle" x="229" y="-197.5" font-family="Helvetica,sans-Serif" font-size="10.00">sdScene::addExtension</text>
</a>
</g>
</g>
<!-- Node1&#45;&gt;Node8 -->
<g id="edge7" class="edge"><title>Node1&#45;&gt;Node8</title>
<path fill="none" stroke="midnightblue" d="M133.54,-211.217C142.286,-210.179 151.27,-209.112 160.056,-208.068"/>
<polygon fill="midnightblue" stroke="midnightblue" points="160.736,-211.512 170.253,-206.857 159.91,-204.561 160.736,-211.512"/>
</g>
<!-- Node9 -->
<g id="node9" class="node"><title>Node9</title>
<g id="a_node9"><a xlink:href="classsd_scene.html#ac7abc33a62fa0934f00b30bda8a69541" target="_top" xlink:title="sdScene::setInfo">
<polygon fill="white" stroke="black" points="186,-152.5 186,-171.5 272,-171.5 272,-152.5 186,-152.5"/>
<text text-anchor="middle" x="229" y="-159.5" font-family="Helvetica,sans-Serif" font-size="10.00">sdScene::setInfo</text>
</a>
</g>
</g>
<!-- Node1&#45;&gt;Node9 -->
<g id="edge8" class="edge"><title>Node1&#45;&gt;Node9</title>
<path fill="none" stroke="midnightblue" d="M93.049,-209.349C113.635,-201.495 143.601,-190.237 170,-181 175.973,-178.91 182.315,-176.761 188.53,-174.695"/>
<polygon fill="midnightblue" stroke="midnightblue" points="189.716,-177.989 198.119,-171.536 187.525,-171.341 189.716,-177.989"/>
</g>
<!-- Node10 -->
<g id="node10" class="node"><title>Node10</title>
<g id="a_node10"><a xlink:href="classsd_scene.html#a00b8ea89cce0690109649a262eac0911" target="_top" xlink:title="sdScene::getEntity">
<polygon fill="white" stroke="black" points="181.5,-114.5 181.5,-133.5 276.5,-133.5 276.5,-114.5 181.5,-114.5"/>
<text text-anchor="middle" x="229" y="-121.5" font-family="Helvetica,sans-Serif" font-size="10.00">sdScene::getEntity</text>
</a>
</g>
</g>
<!-- Node1&#45;&gt;Node10 -->
<g id="edge9" class="edge"><title>Node1&#45;&gt;Node10</title>
<path fill="none" stroke="midnightblue" d="M78.5297,-209.302C96.2144,-193.462 133.537,-161.912 170,-143 174.078,-140.885 178.439,-138.941 182.87,-137.171"/>
<polygon fill="midnightblue" stroke="midnightblue" points="184.431,-140.326 192.597,-133.576 182.004,-133.76 184.431,-140.326"/>
</g>
<!-- Node12 -->
<g id="node12" class="node"><title>Node12</title>
<g id="a_node12"><a xlink:href="classsd_scene.html#ab7636b274d6194fad189d8890e9336eb" target="_top" xlink:title="sdScene::addEntity">
<polygon fill="white" stroke="black" points="180,-76.5 180,-95.5 278,-95.5 278,-76.5 180,-76.5"/>
<text text-anchor="middle" x="229" y="-83.5" font-family="Helvetica,sans-Serif" font-size="10.00">sdScene::addEntity</text>
</a>
</g>
</g>
<!-- Node1&#45;&gt;Node12 -->
<g id="edge11" class="edge"><title>Node1&#45;&gt;Node12</title>
<path fill="none" stroke="midnightblue" d="M74.124,-209.192C88.2905,-187.29 125.535,-134.052 170,-105 173.11,-102.968 176.456,-101.136 179.916,-99.4877"/>
<polygon fill="midnightblue" stroke="midnightblue" points="181.404,-102.659 189.252,-95.5415 178.679,-96.2109 181.404,-102.659"/>
</g>
<!-- Node13 -->
<g id="node13" class="node"><title>Node13</title>
<g id="a_node13"><a xlink:href="classsd_entity_core.html#a4a2537e1b5b8c17bac298a37b306ae87" target="_top" xlink:title="sdEntityCore::addEvent">
<polygon fill="white" stroke="black" points="171,-38.5 171,-57.5 287,-57.5 287,-38.5 171,-38.5"/>
<text text-anchor="middle" x="229" y="-45.5" font-family="Helvetica,sans-Serif" font-size="10.00">sdEntityCore::addEvent</text>
</a>
</g>
</g>
<!-- Node1&#45;&gt;Node13 -->
<g id="edge12" class="edge"><title>Node1&#45;&gt;Node13</title>
<path fill="none" stroke="midnightblue" d="M71.8553,-209.182C82.903,-182.309 117.304,-106.908 170,-67 172.455,-65.1409 175.1,-63.459 177.86,-61.938"/>
<polygon fill="midnightblue" stroke="midnightblue" points="179.446,-65.0599 186.977,-57.6084 176.443,-58.7366 179.446,-65.0599"/>
</g>
<!-- Node14 -->
<g id="node14" class="node"><title>Node14</title>
<g id="a_node14"><a xlink:href="sd_const_8h.html#adefd8a789b1929eef874e1e0d0ea2eb9" target="_top" xlink:title="boolToString">
<polygon fill="white" stroke="black" points="195,-0.5 195,-19.5 263,-19.5 263,-0.5 195,-0.5"/>
<text text-anchor="middle" x="229" y="-7.5" font-family="Helvetica,sans-Serif" font-size="10.00">boolToString</text>
</a>
</g>
</g>
<!-- Node1&#45;&gt;Node14 -->
<g id="edge13" class="edge"><title>Node1&#45;&gt;Node14</title>
<path fill="none" stroke="midnightblue" d="M70.3763,-209.49C78.5713,-178.653 108.584,-80.451 170,-29 174.527,-25.2075 179.832,-22.1658 185.361,-19.7277"/>
<polygon fill="midnightblue" stroke="midnightblue" points="186.664,-22.9771 194.782,-16.1685 184.19,-16.4289 186.664,-22.9771"/>
</g>
<!-- Node11 -->
<g id="node11" class="node"><title>Node11</title>
<g id="a_node11"><a xlink:href="classsd_entity_core.html#a97d5b5f189b386620bb898b0f5e0358a" target="_top" xlink:title="sdEntityCore::getName">
<polygon fill="white" stroke="black" points="324.5,-114.5 324.5,-133.5 437.5,-133.5 437.5,-114.5 324.5,-114.5"/>
<text text-anchor="middle" x="381" y="-121.5" font-family="Helvetica,sans-Serif" font-size="10.00">sdEntityCore::getName</text>
</a>
</g>
</g>
<!-- Node10&#45;&gt;Node11 -->
<g id="edge10" class="edge"><title>Node10&#45;&gt;Node11</title>
<path fill="none" stroke="midnightblue" d="M276.639,-124C288.582,-124 301.651,-124 314.356,-124"/>
<polygon fill="midnightblue" stroke="midnightblue" points="314.439,-127.5 324.439,-124 314.439,-120.5 314.439,-127.5"/>
</g>
</g>
</svg>
