<?xml version="1.0" encoding="UTF-8" standalone="no"?>
<!DOCTYPE svg PUBLIC "-//W3C//DTD SVG 1.1//EN"
 "http://www.w3.org/Graphics/SVG/1.1/DTD/svg11.dtd">
<!-- Generated by graphviz version 2.34.0 (20131206.1153)
 -->
<!-- Title: sdGlobalEvent::getEntityName Pages: 1 -->
<svg width="388pt" height="77pt"
 viewBox="0.00 0.00 388.00 77.00" xmlns="http://www.w3.org/2000/svg" xmlns:xlink="http://www.w3.org/1999/xlink">
<g id="graph0" class="graph" transform="scale(1 1) rotate(0) translate(4 73)">
<title>sdGlobalEvent::getEntityName</title>
<polygon fill="white" stroke="white" points="-4,4 -4,-73 384,-73 384,4 -4,4"/>
<!-- Node1 -->
<g id="node1" class="node"><title>Node1</title>
<polygon fill="#bfbfbf" stroke="black" points="0,-27.5 0,-46.5 146,-46.5 146,-27.5 0,-27.5"/>
<text text-anchor="middle" x="73" y="-34.5" font-family="Helvetica,sans-Serif" font-size="10.00">sdGlobalEvent::getEntityName</text>
</g>
<!-- Node2 -->
<g id="node2" class="node"><title>Node2</title>
<g id="a_node2"><a xlink:href="classsd_saver.html#a2095f1dd3d75b3f5d5f9ae323fa0f971" target="_top" xlink:title="sdSaver::XMLFromScene">
<polygon fill="white" stroke="black" points="182,-49.5 182,-68.5 306,-68.5 306,-49.5 182,-49.5"/>
<text text-anchor="middle" x="244" y="-56.5" font-family="Helvetica,sans-Serif" font-size="10.00">sdSaver::XMLFromScene</text>
</a>
</g>
</g>
<!-- Node1&#45;&gt;Node2 -->
<g id="edge1" class="edge"><title>Node1&#45;&gt;Node2</title>
<path fill="none" stroke="midnightblue" d="M156.287,-47.7119C164.943,-48.8387 173.63,-49.9696 181.984,-51.0571"/>
<polygon fill="midnightblue" stroke="midnightblue" points="156.53,-44.214 146.161,-46.3938 155.626,-51.1555 156.53,-44.214"/>
</g>
<!-- Node4 -->
<g id="node4" class="node"><title>Node4</title>
<g id="a_node4"><a xlink:href="classsd_global_event_compare.html#a023faa3ab3a35e60324ad43d79d922a5" target="_top" xlink:title="sdGlobalEventCompare\l::operator()">
<polygon fill="white" stroke="black" points="184,-0 184,-30 304,-30 304,-0 184,-0"/>
<text text-anchor="start" x="192" y="-18" font-family="Helvetica,sans-Serif" font-size="10.00">sdGlobalEventCompare</text>
<text text-anchor="middle" x="244" y="-7" font-family="Helvetica,sans-Serif" font-size="10.00">::operator()</text>
</a>
</g>
</g>
<!-- Node1&#45;&gt;Node4 -->
<g id="edge3" class="edge"><title>Node1&#45;&gt;Node4</title>
<path fill="none" stroke="midnightblue" d="M156.227,-26.2958C165.537,-25.0839 174.883,-23.8673 183.814,-22.7047"/>
<polygon fill="midnightblue" stroke="midnightblue" points="155.626,-22.8445 146.161,-27.6062 156.53,-29.786 155.626,-22.8445"/>
</g>
<!-- Node3 -->
<g id="node3" class="node"><title>Node3</title>
<g id="a_node3"><a xlink:href="_file_with_extension_8cpp.html#a840291bc02cba5474a4cb46a9b9566fe" target="_top" xlink:title="main">
<polygon fill="white" stroke="black" points="342.5,-49.5 342.5,-68.5 379.5,-68.5 379.5,-49.5 342.5,-49.5"/>
<text text-anchor="middle" x="361" y="-56.5" font-family="Helvetica,sans-Serif" font-size="10.00">main</text>
</a>
</g>
</g>
<!-- Node2&#45;&gt;Node3 -->
<g id="edge2" class="edge"><title>Node2&#45;&gt;Node3</title>
<path fill="none" stroke="midnightblue" d="M316.391,-59C326.021,-59 335.098,-59 342.452,-59"/>
<polygon fill="midnightblue" stroke="midnightblue" points="316.204,-55.5001 306.204,-59 316.204,-62.5001 316.204,-55.5001"/>
</g>
</g>
</svg>
