<?xml version="1.0" encoding="UTF-8" standalone="no"?>
<!DOCTYPE svg PUBLIC "-//W3C//DTD SVG 1.1//EN"
 "http://www.w3.org/Graphics/SVG/1.1/DTD/svg11.dtd">
<!-- Generated by graphviz version 2.34.0 (20131206.1153)
 -->
<!-- Title: sdEvent::setTime Pages: 1 -->
<svg width="260pt" height="77pt"
 viewBox="0.00 0.00 260.00 77.00" xmlns="http://www.w3.org/2000/svg" xmlns:xlink="http://www.w3.org/1999/xlink">
<g id="graph0" class="graph" transform="scale(1 1) rotate(0) translate(4 73)">
<title>sdEvent::setTime</title>
<polygon fill="white" stroke="white" points="-4,4 -4,-73 256,-73 256,4 -4,4"/>
<!-- Node1 -->
<g id="node1" class="node"><title>Node1</title>
<polygon fill="#bfbfbf" stroke="black" points="0.5,-27.5 0.5,-46.5 89.5,-46.5 89.5,-27.5 0.5,-27.5"/>
<text text-anchor="middle" x="45" y="-34.5" font-family="Helvetica,sans-Serif" font-size="10.00">sdEvent::setTime</text>
</g>
<!-- Node2 -->
<g id="node2" class="node"><title>Node2</title>
<g id="a_node2"><a xlink:href="classsd_event.html#ad521f27726a82d11cf0613a512b8ecb8" target="_top" xlink:title="sdEvent::set">
<polygon fill="white" stroke="black" points="154.5,-49.5 154.5,-68.5 223.5,-68.5 223.5,-49.5 154.5,-49.5"/>
<text text-anchor="middle" x="189" y="-56.5" font-family="Helvetica,sans-Serif" font-size="10.00">sdEvent::set</text>
</a>
</g>
</g>
<!-- Node1&#45;&gt;Node2 -->
<g id="edge1" class="edge"><title>Node1&#45;&gt;Node2</title>
<path fill="none" stroke="midnightblue" d="M99.6992,-45.3196C117.944,-48.1463 137.812,-51.2244 154.073,-53.7438"/>
<polygon fill="midnightblue" stroke="midnightblue" points="100.181,-41.8526 89.7634,-43.7802 99.1096,-48.7701 100.181,-41.8526"/>
</g>
<!-- Node3 -->
<g id="node3" class="node"><title>Node3</title>
<g id="a_node3"><a xlink:href="classsd_event_extension_media.html#a36f303f452b20259857ea752de9740f5" target="_top" xlink:title="sdEventExtensionMedia\l::sdEventExtensionMedia">
<polygon fill="white" stroke="black" points="126.5,-0 126.5,-30 251.5,-30 251.5,-0 126.5,-0"/>
<text text-anchor="start" x="134.5" y="-18" font-family="Helvetica,sans-Serif" font-size="10.00">sdEventExtensionMedia</text>
<text text-anchor="middle" x="189" y="-7" font-family="Helvetica,sans-Serif" font-size="10.00">::sdEventExtensionMedia</text>
</a>
</g>
</g>
<!-- Node1&#45;&gt;Node3 -->
<g id="edge2" class="edge"><title>Node1&#45;&gt;Node3</title>
<path fill="none" stroke="midnightblue" d="M99.763,-28.6705C108.454,-27.3241 117.511,-25.9208 126.37,-24.5483"/>
<polygon fill="midnightblue" stroke="midnightblue" points="99.1096,-25.2299 89.7634,-30.2198 100.181,-32.1474 99.1096,-25.2299"/>
</g>
</g>
</svg>
