<?xml version="1.0" encoding="UTF-8" standalone="no"?>
<!DOCTYPE svg PUBLIC "-//W3C//DTD SVG 1.1//EN"
 "http://www.w3.org/Graphics/SVG/1.1/DTD/svg11.dtd">
<!-- Generated by graphviz version 2.34.0 (20131206.1153)
 -->
<!-- Title: sdEntityCore::getValue Pages: 1 -->
<svg width="380pt" height="66pt"
 viewBox="0.00 0.00 380.00 66.00" xmlns="http://www.w3.org/2000/svg" xmlns:xlink="http://www.w3.org/1999/xlink">
<g id="graph0" class="graph" transform="scale(1 1) rotate(0) translate(4 62)">
<title>sdEntityCore::getValue</title>
<polygon fill="white" stroke="white" points="-4,4 -4,-62 376,-62 376,4 -4,4"/>
<!-- Node1 -->
<g id="node1" class="node"><title>Node1</title>
<polygon fill="#bfbfbf" stroke="black" points="0.5,-19.5 0.5,-38.5 113.5,-38.5 113.5,-19.5 0.5,-19.5"/>
<text text-anchor="middle" x="57" y="-26.5" font-family="Helvetica,sans-Serif" font-size="10.00">sdEntityCore::getValue</text>
</g>
<!-- Node2 -->
<g id="node2" class="node"><title>Node2</title>
<g id="a_node2"><a xlink:href="classsd_entity.html#a10bfcf57477433b546f92b4f75a7c74e" target="_top" xlink:title="sdEntity::getValue">
<polygon fill="white" stroke="black" points="150,-19.5 150,-38.5 242,-38.5 242,-19.5 150,-19.5"/>
<text text-anchor="middle" x="196" y="-26.5" font-family="Helvetica,sans-Serif" font-size="10.00">sdEntity::getValue</text>
</a>
</g>
</g>
<!-- Node1&#45;&gt;Node2 -->
<g id="edge1" class="edge"><title>Node1&#45;&gt;Node2</title>
<path fill="none" stroke="midnightblue" d="M113.723,-29C122.255,-29 131.061,-29 139.587,-29"/>
<polygon fill="midnightblue" stroke="midnightblue" points="139.809,-32.5001 149.809,-29 139.809,-25.5001 139.809,-32.5001"/>
</g>
<!-- Node3 -->
<g id="node3" class="node"><title>Node3</title>
<g id="a_node3"><a xlink:href="classsd_entity.html#ac114c94bfc707b913ca8c8fa40cd1dd3" target="_top" xlink:title="sdEntity::getEvent">
<polygon fill="white" stroke="black" points="279,-38.5 279,-57.5 371,-57.5 371,-38.5 279,-38.5"/>
<text text-anchor="middle" x="325" y="-45.5" font-family="Helvetica,sans-Serif" font-size="10.00">sdEntity::getEvent</text>
</a>
</g>
</g>
<!-- Node2&#45;&gt;Node3 -->
<g id="edge2" class="edge"><title>Node2&#45;&gt;Node3</title>
<path fill="none" stroke="midnightblue" d="M242.133,-35.7522C250.64,-37.0248 259.627,-38.3694 268.41,-39.6833"/>
<polygon fill="midnightblue" stroke="midnightblue" points="268.177,-43.1873 278.584,-41.2055 269.212,-36.2644 268.177,-43.1873"/>
</g>
<!-- Node4 -->
<g id="node4" class="node"><title>Node4</title>
<g id="a_node4"><a xlink:href="classsd_event.html#adba2ca29642bd8d730dfdc3acadeeb00" target="_top" xlink:title="sdEvent::getValue">
<polygon fill="white" stroke="black" points="278,-0.5 278,-19.5 372,-19.5 372,-0.5 278,-0.5"/>
<text text-anchor="middle" x="325" y="-7.5" font-family="Helvetica,sans-Serif" font-size="10.00">sdEvent::getValue</text>
</a>
</g>
</g>
<!-- Node2&#45;&gt;Node4 -->
<g id="edge3" class="edge"><title>Node2&#45;&gt;Node4</title>
<path fill="none" stroke="midnightblue" d="M242.133,-22.2478C250.435,-21.0059 259.194,-19.6953 267.774,-18.4117"/>
<polygon fill="midnightblue" stroke="midnightblue" points="268.354,-21.864 277.726,-16.9228 267.318,-14.9411 268.354,-21.864"/>
</g>
</g>
</svg>
