<?xml version="1.0" encoding="UTF-8" standalone="no"?>
<!DOCTYPE svg PUBLIC "-//W3C//DTD SVG 1.1//EN"
 "http://www.w3.org/Graphics/SVG/1.1/DTD/svg11.dtd">
<!-- Generated by graphviz version 2.34.0 (20131206.1153)
 -->
<!-- Title: sdGlobalEventCompare::operator() Pages: 1 -->
<svg width="310pt" height="267pt"
 viewBox="0.00 0.00 310.00 267.00" xmlns="http://www.w3.org/2000/svg" xmlns:xlink="http://www.w3.org/1999/xlink">
<g id="graph0" class="graph" transform="scale(1 1) rotate(0) translate(4 263)">
<title>sdGlobalEventCompare::operator()</title>
<polygon fill="white" stroke="white" points="-4,4 -4,-263 306,-263 306,4 -4,4"/>
<!-- Node1 -->
<g id="node1" class="node"><title>Node1</title>
<polygon fill="#bfbfbf" stroke="black" points="0,-120 0,-150 120,-150 120,-120 0,-120"/>
<text text-anchor="start" x="8" y="-138" font-family="Helvetica,sans-Serif" font-size="10.00">sdGlobalEventCompare</text>
<text text-anchor="middle" x="60" y="-127" font-family="Helvetica,sans-Serif" font-size="10.00">::operator()</text>
</g>
<!-- Node2 -->
<g id="node2" class="node"><title>Node2</title>
<g id="a_node2"><a xlink:href="classsd_global_event.html#adaed6293abb3b24fc34705659114a2c6" target="_top" xlink:title="sdGlobalEvent::getEvent">
<polygon fill="white" stroke="black" points="168,-239.5 168,-258.5 290,-258.5 290,-239.5 168,-239.5"/>
<text text-anchor="middle" x="229" y="-246.5" font-family="Helvetica,sans-Serif" font-size="10.00">sdGlobalEvent::getEvent</text>
</a>
</g>
</g>
<!-- Node1&#45;&gt;Node2 -->
<g id="edge1" class="edge"><title>Node1&#45;&gt;Node2</title>
<path fill="none" stroke="midnightblue" d="M72.0589,-150.321C88.1369,-171.463 120.005,-209.309 156,-230 159.888,-232.235 164.044,-234.213 168.324,-235.963"/>
<polygon fill="midnightblue" stroke="midnightblue" points="167.243,-239.294 177.837,-239.44 169.647,-232.719 167.243,-239.294"/>
</g>
<!-- Node3 -->
<g id="node3" class="node"><title>Node3</title>
<g id="a_node3"><a xlink:href="classsd_event.html#ab9f695d6582966f2d78dfa6e686c1963" target="_top" xlink:title="sdEvent::getTime">
<polygon fill="white" stroke="black" points="184.5,-201.5 184.5,-220.5 273.5,-220.5 273.5,-201.5 184.5,-201.5"/>
<text text-anchor="middle" x="229" y="-208.5" font-family="Helvetica,sans-Serif" font-size="10.00">sdEvent::getTime</text>
</a>
</g>
</g>
<!-- Node1&#45;&gt;Node3 -->
<g id="edge2" class="edge"><title>Node1&#45;&gt;Node3</title>
<path fill="none" stroke="midnightblue" d="M82.3299,-150.204C100.997,-162.908 129.24,-180.711 156,-192 161.863,-194.473 168.132,-196.698 174.436,-198.678"/>
<polygon fill="midnightblue" stroke="midnightblue" points="173.734,-202.12 184.316,-201.589 175.713,-195.405 173.734,-202.12"/>
</g>
<!-- Node4 -->
<g id="node4" class="node"><title>Node4</title>
<g id="a_node4"><a xlink:href="classsd_global_event.html#a65187e0ce5bd3a36a43c15aa6b46c8ce" target="_top" xlink:title="sdGlobalEvent::getKind">
<polygon fill="white" stroke="black" points="171,-163.5 171,-182.5 287,-182.5 287,-163.5 171,-163.5"/>
<text text-anchor="middle" x="229" y="-170.5" font-family="Helvetica,sans-Serif" font-size="10.00">sdGlobalEvent::getKind</text>
</a>
</g>
</g>
<!-- Node1&#45;&gt;Node4 -->
<g id="edge3" class="edge"><title>Node1&#45;&gt;Node4</title>
<path fill="none" stroke="midnightblue" d="M120.348,-148.504C138.53,-152.642 158.384,-157.159 176.034,-161.175"/>
<polygon fill="midnightblue" stroke="midnightblue" points="175.614,-164.669 186.142,-163.475 177.168,-157.844 175.614,-164.669"/>
</g>
<!-- Node5 -->
<g id="node5" class="node"><title>Node5</title>
<g id="a_node5"><a xlink:href="classsd_global_event.html#a6003837be549e8728c7207255f0455fb" target="_top" xlink:title="sdGlobalEvent::getEntityName">
<polygon fill="white" stroke="black" points="156,-125.5 156,-144.5 302,-144.5 302,-125.5 156,-125.5"/>
<text text-anchor="middle" x="229" y="-132.5" font-family="Helvetica,sans-Serif" font-size="10.00">sdGlobalEvent::getEntityName</text>
</a>
</g>
</g>
<!-- Node1&#45;&gt;Node5 -->
<g id="edge4" class="edge"><title>Node1&#45;&gt;Node5</title>
<path fill="none" stroke="midnightblue" d="M120.348,-135C128.636,-135 137.272,-135 145.888,-135"/>
<polygon fill="midnightblue" stroke="midnightblue" points="145.971,-138.5 155.971,-135 145.971,-131.5 145.971,-138.5"/>
</g>
<!-- Node6 -->
<g id="node6" class="node"><title>Node6</title>
<g id="a_node6"><a xlink:href="classsd_entity_core.html#a47a33db0fcf4ad60317b1d34f7a680aa" target="_top" xlink:title="sdEntityCore::isCoreDescriptor">
<polygon fill="white" stroke="black" points="157,-87.5 157,-106.5 301,-106.5 301,-87.5 157,-87.5"/>
<text text-anchor="middle" x="229" y="-94.5" font-family="Helvetica,sans-Serif" font-size="10.00">sdEntityCore::isCoreDescriptor</text>
</a>
</g>
</g>
<!-- Node1&#45;&gt;Node6 -->
<g id="edge5" class="edge"><title>Node1&#45;&gt;Node6</title>
<path fill="none" stroke="midnightblue" d="M120.348,-121.496C138.53,-117.358 158.384,-112.841 176.034,-108.825"/>
<polygon fill="midnightblue" stroke="midnightblue" points="177.168,-112.156 186.142,-106.525 175.614,-105.331 177.168,-112.156"/>
</g>
<!-- Node7 -->
<g id="node7" class="node"><title>Node7</title>
<g id="a_node7"><a xlink:href="classsd_event.html#a553bef7960cf0391f7e01990878aa416" target="_top" xlink:title="sdEvent::getDescriptor">
<polygon fill="white" stroke="black" points="173.5,-49.5 173.5,-68.5 284.5,-68.5 284.5,-49.5 173.5,-49.5"/>
<text text-anchor="middle" x="229" y="-56.5" font-family="Helvetica,sans-Serif" font-size="10.00">sdEvent::getDescriptor</text>
</a>
</g>
</g>
<!-- Node1&#45;&gt;Node7 -->
<g id="edge6" class="edge"><title>Node1&#45;&gt;Node7</title>
<path fill="none" stroke="midnightblue" d="M82.3299,-119.796C100.997,-107.092 129.24,-89.289 156,-78 161.784,-75.5597 167.965,-73.3616 174.184,-71.4015"/>
<polygon fill="midnightblue" stroke="midnightblue" points="175.339,-74.7097 183.936,-68.5167 173.353,-67.9973 175.339,-74.7097"/>
</g>
<!-- Node8 -->
<g id="node8" class="node"><title>Node8</title>
<g id="a_node8"><a xlink:href="classsd_event.html#a0b6810faec49cbc26bbfd300e307c079" target="_top" xlink:title="sdEvent::getDescriptorAs\lString">
<polygon fill="white" stroke="black" points="167.5,-0 167.5,-30 290.5,-30 290.5,-0 167.5,-0"/>
<text text-anchor="start" x="175.5" y="-18" font-family="Helvetica,sans-Serif" font-size="10.00">sdEvent::getDescriptorAs</text>
<text text-anchor="middle" x="229" y="-7" font-family="Helvetica,sans-Serif" font-size="10.00">String</text>
</a>
</g>
</g>
<!-- Node1&#45;&gt;Node8 -->
<g id="edge7" class="edge"><title>Node1&#45;&gt;Node8</title>
<path fill="none" stroke="midnightblue" d="M72.5626,-119.706C88.9948,-98.9445 121.017,-61.9228 156,-40 159.311,-37.925 162.816,-35.9961 166.427,-34.2071"/>
<polygon fill="midnightblue" stroke="midnightblue" points="167.918,-37.3741 175.569,-30.045 165.017,-31.0034 167.918,-37.3741"/>
</g>
</g>
</svg>
