<?xml version="1.0" encoding="UTF-8" standalone="no"?>
<!DOCTYPE svg PUBLIC "-//W3C//DTD SVG 1.1//EN"
 "http://www.w3.org/Graphics/SVG/1.1/DTD/svg11.dtd">
<!-- Generated by graphviz version 2.34.0 (20131206.1153)
 -->
<!-- Title: sdEntityCore::removeEvent Pages: 1 -->
<svg width="390pt" height="66pt"
 viewBox="0.00 0.00 390.00 66.00" xmlns="http://www.w3.org/2000/svg" xmlns:xlink="http://www.w3.org/1999/xlink">
<g id="graph0" class="graph" transform="scale(1 1) rotate(0) translate(4 62)">
<title>sdEntityCore::removeEvent</title>
<polygon fill="white" stroke="white" points="-4,4 -4,-62 386,-62 386,4 -4,4"/>
<!-- Node1 -->
<g id="node1" class="node"><title>Node1</title>
<polygon fill="#bfbfbf" stroke="black" points="0.5,-19.5 0.5,-38.5 131.5,-38.5 131.5,-19.5 0.5,-19.5"/>
<text text-anchor="middle" x="66" y="-26.5" font-family="Helvetica,sans-Serif" font-size="10.00">sdEntityCore::removeEvent</text>
</g>
<!-- Node2 -->
<g id="node2" class="node"><title>Node2</title>
<g id="a_node2"><a xlink:href="sd_const_8h.html#a7e564ec0266d67f518a0b0f80f17e203" target="_top" xlink:title="stringToDouble">
<polygon fill="white" stroke="black" points="174,-38.5 174,-57.5 254,-57.5 254,-38.5 174,-38.5"/>
<text text-anchor="middle" x="214" y="-45.5" font-family="Helvetica,sans-Serif" font-size="10.00">stringToDouble</text>
</a>
</g>
</g>
<!-- Node1&#45;&gt;Node2 -->
<g id="edge1" class="edge"><title>Node1&#45;&gt;Node2</title>
<path fill="none" stroke="midnightblue" d="M131.888,-37.4443C142.626,-38.8418 153.602,-40.2701 163.869,-41.6063"/>
<polygon fill="midnightblue" stroke="midnightblue" points="163.498,-45.0873 173.866,-42.9072 164.401,-38.1459 163.498,-45.0873"/>
</g>
<!-- Node4 -->
<g id="node4" class="node"><title>Node4</title>
<g id="a_node4"><a xlink:href="sd_const_8h.html#a5f06f639581e8f36cbc9d51e53eee915" target="_top" xlink:title="stringToDescriptor">
<polygon fill="white" stroke="black" points="168.5,-0.5 168.5,-19.5 259.5,-19.5 259.5,-0.5 168.5,-0.5"/>
<text text-anchor="middle" x="214" y="-7.5" font-family="Helvetica,sans-Serif" font-size="10.00">stringToDescriptor</text>
</a>
</g>
</g>
<!-- Node1&#45;&gt;Node4 -->
<g id="edge3" class="edge"><title>Node1&#45;&gt;Node4</title>
<path fill="none" stroke="midnightblue" d="M131.888,-20.5557C140.756,-19.4017 149.785,-18.2266 158.444,-17.0998"/>
<polygon fill="midnightblue" stroke="midnightblue" points="158.942,-20.5646 168.407,-15.8033 158.038,-13.6231 158.942,-20.5646"/>
</g>
<!-- Node3 -->
<g id="node3" class="node"><title>Node3</title>
<g id="a_node3"><a xlink:href="sd_const_8h.html#ae7ae4ebb27c32496c48bac787cc5bcf7" target="_top" xlink:title="stringToDoubles">
<polygon fill="white" stroke="black" points="296.5,-38.5 296.5,-57.5 381.5,-57.5 381.5,-38.5 296.5,-38.5"/>
<text text-anchor="middle" x="339" y="-45.5" font-family="Helvetica,sans-Serif" font-size="10.00">stringToDoubles</text>
</a>
</g>
</g>
<!-- Node2&#45;&gt;Node3 -->
<g id="edge2" class="edge"><title>Node2&#45;&gt;Node3</title>
<path fill="none" stroke="midnightblue" d="M254.256,-48C264.379,-48 275.431,-48 286.09,-48"/>
<polygon fill="midnightblue" stroke="midnightblue" points="286.145,-51.5001 296.145,-48 286.145,-44.5001 286.145,-51.5001"/>
</g>
</g>
</svg>
