<?xml version="1.0" encoding="UTF-8" standalone="no"?>
<!DOCTYPE svg PUBLIC "-//W3C//DTD SVG 1.1//EN"
 "http://www.w3.org/Graphics/SVG/1.1/DTD/svg11.dtd">
<!-- Generated by graphviz version 2.34.0 (20131206.1153)
 -->
<!-- Title: sdSaver::XMLFromScene Pages: 1 -->
<svg width="472pt" height="622pt"
 viewBox="0.00 0.00 472.00 622.00" xmlns="http://www.w3.org/2000/svg" xmlns:xlink="http://www.w3.org/1999/xlink">
<g id="graph0" class="graph" transform="scale(1 1) rotate(0) translate(4 618)">
<title>sdSaver::XMLFromScene</title>
<polygon fill="white" stroke="white" points="-4,4 -4,-618 468,-618 468,4 -4,4"/>
<!-- Node1 -->
<g id="node1" class="node"><title>Node1</title>
<polygon fill="#bfbfbf" stroke="black" points="0,-297.5 0,-316.5 124,-316.5 124,-297.5 0,-297.5"/>
<text text-anchor="middle" x="62" y="-304.5" font-family="Helvetica,sans-Serif" font-size="10.00">sdSaver::XMLFromScene</text>
</g>
<!-- Node2 -->
<g id="node2" class="node"><title>Node2</title>
<g id="a_node2"><a xlink:href="classsd_scene.html#a04e558bcf268832b77cfbb576a36778e" target="_top" xlink:title="sdScene::getInfo">
<polygon fill="white" stroke="black" points="194,-594.5 194,-613.5 280,-613.5 280,-594.5 194,-594.5"/>
<text text-anchor="middle" x="237" y="-601.5" font-family="Helvetica,sans-Serif" font-size="10.00">sdScene::getInfo</text>
</a>
</g>
</g>
<!-- Node1&#45;&gt;Node2 -->
<g id="edge1" class="edge"><title>Node1&#45;&gt;Node2</title>
<path fill="none" stroke="midnightblue" d="M63.2547,-316.626C64.8471,-356.302 76.3891,-508.651 160,-585 166.785,-591.196 175.283,-595.445 184.116,-598.343"/>
<polygon fill="midnightblue" stroke="midnightblue" points="183.198,-601.721 193.768,-600.986 185.047,-594.969 183.198,-601.721"/>
</g>
<!-- Node3 -->
<g id="node3" class="node"><title>Node3</title>
<g id="a_node3"><a xlink:href="classsd_info.html#ab881d19b222fca09d4af8d32e8bb4843" target="_top" xlink:title="sdInfo::getAuthor">
<polygon fill="white" stroke="black" points="194,-556.5 194,-575.5 280,-575.5 280,-556.5 194,-556.5"/>
<text text-anchor="middle" x="237" y="-563.5" font-family="Helvetica,sans-Serif" font-size="10.00">sdInfo::getAuthor</text>
</a>
</g>
</g>
<!-- Node1&#45;&gt;Node3 -->
<g id="edge2" class="edge"><title>Node1&#45;&gt;Node3</title>
<path fill="none" stroke="midnightblue" d="M63.9315,-316.974C67.896,-353.549 86.691,-481.536 160,-546 166.922,-552.087 175.484,-556.354 184.338,-559.338"/>
<polygon fill="midnightblue" stroke="midnightblue" points="183.42,-562.716 193.997,-562.098 185.343,-555.985 183.42,-562.716"/>
</g>
<!-- Node4 -->
<g id="node4" class="node"><title>Node4</title>
<g id="a_node4"><a xlink:href="classsd_scene.html#a3a323f8f9e8b4472f4bd06309ba0332d" target="_top" xlink:title="sdScene::getNumberOfActivated\lExtensions">
<polygon fill="white" stroke="black" points="160,-507 160,-537 314,-537 314,-507 160,-507"/>
<text text-anchor="start" x="168" y="-525" font-family="Helvetica,sans-Serif" font-size="10.00">sdScene::getNumberOfActivated</text>
<text text-anchor="middle" x="237" y="-514" font-family="Helvetica,sans-Serif" font-size="10.00">Extensions</text>
</a>
</g>
</g>
<!-- Node1&#45;&gt;Node4 -->
<g id="edge3" class="edge"><title>Node1&#45;&gt;Node4</title>
<path fill="none" stroke="midnightblue" d="M65.1153,-316.501C72.4659,-347.312 99.8055,-445.441 160,-497 161.985,-498.7 164.088,-500.285 166.282,-501.763"/>
<polygon fill="midnightblue" stroke="midnightblue" points="164.736,-504.913 175.133,-506.948 168.274,-498.874 164.736,-504.913"/>
</g>
<!-- Node5 -->
<g id="node5" class="node"><title>Node5</title>
<g id="a_node5"><a xlink:href="classsd_scene.html#ac144977efe9b247870c4a1c6bed5b14f" target="_top" xlink:title="sdScene::getActivatedExtension">
<polygon fill="white" stroke="black" points="161,-468.5 161,-487.5 313,-487.5 313,-468.5 161,-468.5"/>
<text text-anchor="middle" x="237" y="-475.5" font-family="Helvetica,sans-Serif" font-size="10.00">sdScene::getActivatedExtension</text>
</a>
</g>
</g>
<!-- Node1&#45;&gt;Node5 -->
<g id="edge4" class="edge"><title>Node1&#45;&gt;Node5</title>
<path fill="none" stroke="midnightblue" d="M66.2385,-316.624C75.8496,-343.655 106.899,-420.778 160,-459 162.704,-460.947 165.587,-462.695 168.59,-464.264"/>
<polygon fill="midnightblue" stroke="midnightblue" points="167.341,-467.541 177.896,-468.458 170.217,-461.159 167.341,-467.541"/>
</g>
<!-- Node6 -->
<g id="node6" class="node"><title>Node6</title>
<g id="a_node6"><a xlink:href="sd_const_8h.html#adaff5a0973824f6bedbac783f32d7b15" target="_top" xlink:title="extensionToString">
<polygon fill="white" stroke="black" points="191.5,-430.5 191.5,-449.5 282.5,-449.5 282.5,-430.5 191.5,-430.5"/>
<text text-anchor="middle" x="237" y="-437.5" font-family="Helvetica,sans-Serif" font-size="10.00">extensionToString</text>
</a>
</g>
</g>
<!-- Node1&#45;&gt;Node6 -->
<g id="edge5" class="edge"><title>Node1&#45;&gt;Node6</title>
<path fill="none" stroke="midnightblue" d="M68.3623,-316.711C81.1318,-338.888 115.618,-393.459 160,-421 166.509,-425.039 173.832,-428.22 181.296,-430.726"/>
<polygon fill="midnightblue" stroke="midnightblue" points="180.551,-434.156 191.134,-433.646 182.543,-427.445 180.551,-434.156"/>
</g>
<!-- Node7 -->
<g id="node7" class="node"><title>Node7</title>
<g id="a_node7"><a xlink:href="classsd_scene.html#ae75411e394deb65de00d2c2551ed69c7" target="_top" xlink:title="sdScene::getOrderingAsString">
<polygon fill="white" stroke="black" points="166,-392.5 166,-411.5 308,-411.5 308,-392.5 166,-392.5"/>
<text text-anchor="middle" x="237" y="-399.5" font-family="Helvetica,sans-Serif" font-size="10.00">sdScene::getOrderingAsString</text>
</a>
</g>
</g>
<!-- Node1&#45;&gt;Node7 -->
<g id="edge6" class="edge"><title>Node1&#45;&gt;Node7</title>
<path fill="none" stroke="midnightblue" d="M72.5089,-316.757C88.8686,-332.974 124.06,-365.426 160,-383 164.887,-385.39 170.103,-387.497 175.424,-389.351"/>
<polygon fill="midnightblue" stroke="midnightblue" points="174.48,-392.723 185.071,-392.421 176.603,-386.053 174.48,-392.723"/>
</g>
<!-- Node8 -->
<g id="node8" class="node"><title>Node8</title>
<g id="a_node8"><a xlink:href="classsd_scene.html#abc96077751c152f5f8cb37846a80b676" target="_top" xlink:title="sdScene::getEntityVector">
<polygon fill="white" stroke="black" points="176.5,-354.5 176.5,-373.5 297.5,-373.5 297.5,-354.5 176.5,-354.5"/>
<text text-anchor="middle" x="237" y="-361.5" font-family="Helvetica,sans-Serif" font-size="10.00">sdScene::getEntityVector</text>
</a>
</g>
</g>
<!-- Node1&#45;&gt;Node8 -->
<g id="edge7" class="edge"><title>Node1&#45;&gt;Node8</title>
<path fill="none" stroke="midnightblue" d="M85.0532,-316.577C104.526,-324.807 133.812,-336.635 160,-345 167.645,-347.442 175.803,-349.768 183.832,-351.901"/>
<polygon fill="midnightblue" stroke="midnightblue" points="182.961,-355.291 193.519,-354.402 184.712,-348.513 182.961,-355.291"/>
</g>
<!-- Node9 -->
<g id="node9" class="node"><title>Node9</title>
<g id="a_node9"><a xlink:href="classsd_scene.html#a2eca600ab7627a06ad523485a74ff028" target="_top" xlink:title="sdScene::getOrdering">
<polygon fill="white" stroke="black" points="183.5,-316.5 183.5,-335.5 290.5,-335.5 290.5,-316.5 183.5,-316.5"/>
<text text-anchor="middle" x="237" y="-323.5" font-family="Helvetica,sans-Serif" font-size="10.00">sdScene::getOrdering</text>
</a>
</g>
</g>
<!-- Node1&#45;&gt;Node9 -->
<g id="edge8" class="edge"><title>Node1&#45;&gt;Node9</title>
<path fill="none" stroke="midnightblue" d="M124.48,-313.752C140.255,-315.485 157.244,-317.35 173.089,-319.091"/>
<polygon fill="midnightblue" stroke="midnightblue" points="172.99,-322.601 183.312,-320.214 173.754,-315.643 172.99,-322.601"/>
</g>
<!-- Node10 -->
<g id="node10" class="node"><title>Node10</title>
<g id="a_node10"><a xlink:href="classsd_entity.html#acc339121114228be8609b9055b080a28" target="_top" xlink:title="sdEntity::getEventSet">
<polygon fill="white" stroke="black" points="183.5,-278.5 183.5,-297.5 290.5,-297.5 290.5,-278.5 183.5,-278.5"/>
<text text-anchor="middle" x="237" y="-285.5" font-family="Helvetica,sans-Serif" font-size="10.00">sdEntity::getEventSet</text>
</a>
</g>
</g>
<!-- Node1&#45;&gt;Node10 -->
<g id="edge9" class="edge"><title>Node1&#45;&gt;Node10</title>
<path fill="none" stroke="midnightblue" d="M124.48,-300.248C140.255,-298.515 157.244,-296.65 173.089,-294.909"/>
<polygon fill="midnightblue" stroke="midnightblue" points="173.754,-298.357 183.312,-293.786 172.99,-291.399 173.754,-298.357"/>
</g>
<!-- Node11 -->
<g id="node11" class="node"><title>Node11</title>
<g id="a_node11"><a xlink:href="classsd_entity_core.html#a97d5b5f189b386620bb898b0f5e0358a" target="_top" xlink:title="sdEntityCore::getName">
<polygon fill="white" stroke="black" points="350.5,-139.5 350.5,-158.5 463.5,-158.5 463.5,-139.5 350.5,-139.5"/>
<text text-anchor="middle" x="407" y="-146.5" font-family="Helvetica,sans-Serif" font-size="10.00">sdEntityCore::getName</text>
</a>
</g>
</g>
<!-- Node1&#45;&gt;Node11 -->
<g id="edge10" class="edge"><title>Node1&#45;&gt;Node11</title>
<path fill="none" stroke="midnightblue" d="M85.0469,-297.403C104.516,-289.16 133.799,-277.325 160,-269 227.187,-247.652 251.631,-263.864 314,-231 345.329,-214.492 374.603,-185.055 391.384,-166.306"/>
<polygon fill="midnightblue" stroke="midnightblue" points="394.033,-168.594 397.979,-158.762 388.763,-163.987 394.033,-168.594"/>
</g>
<!-- Node12 -->
<g id="node12" class="node"><title>Node12</title>
<g id="a_node12"><a xlink:href="classsd_entity_core.html#a66b6d0ebd81278a21854f8b074883342" target="_top" xlink:title="sdEntityCore::getKind">
<polygon fill="white" stroke="black" points="183.5,-202.5 183.5,-221.5 290.5,-221.5 290.5,-202.5 183.5,-202.5"/>
<text text-anchor="middle" x="237" y="-209.5" font-family="Helvetica,sans-Serif" font-size="10.00">sdEntityCore::getKind</text>
</a>
</g>
</g>
<!-- Node1&#45;&gt;Node12 -->
<g id="edge11" class="edge"><title>Node1&#45;&gt;Node12</title>
<path fill="none" stroke="midnightblue" d="M73.5735,-297.428C90.6208,-282.439 125.744,-253.352 160,-236 168.611,-231.638 178.174,-227.871 187.529,-224.699"/>
<polygon fill="midnightblue" stroke="midnightblue" points="188.703,-227.998 197.155,-221.608 186.563,-221.333 188.703,-227.998"/>
</g>
<!-- Node13 -->
<g id="node13" class="node"><title>Node13</title>
<g id="a_node13"><a xlink:href="classsd_entity_core.html#a856a6d3f1f7bf294875b208db5e2fc7e" target="_top" xlink:title="sdEntityCore::getExtension\lVector">
<polygon fill="white" stroke="black" points="172,-153 172,-183 302,-183 302,-153 172,-153"/>
<text text-anchor="start" x="180" y="-171" font-family="Helvetica,sans-Serif" font-size="10.00">sdEntityCore::getExtension</text>
<text text-anchor="middle" x="237" y="-160" font-family="Helvetica,sans-Serif" font-size="10.00">Vector</text>
</a>
</g>
</g>
<!-- Node1&#45;&gt;Node13 -->
<g id="edge12" class="edge"><title>Node1&#45;&gt;Node13</title>
<path fill="none" stroke="midnightblue" d="M68.7019,-297.184C81.9245,-275.265 116.865,-221.993 160,-193 162.913,-191.042 165.991,-189.227 169.173,-187.546"/>
<polygon fill="midnightblue" stroke="midnightblue" points="170.851,-190.624 178.367,-183.156 167.835,-184.307 170.851,-190.624"/>
</g>
<!-- Node14 -->
<g id="node14" class="node"><title>Node14</title>
<g id="a_node14"><a xlink:href="classsd_global_event.html#a6003837be549e8728c7207255f0455fb" target="_top" xlink:title="sdGlobalEvent::getEntityName">
<polygon fill="white" stroke="black" points="164,-114.5 164,-133.5 310,-133.5 310,-114.5 164,-114.5"/>
<text text-anchor="middle" x="237" y="-121.5" font-family="Helvetica,sans-Serif" font-size="10.00">sdGlobalEvent::getEntityName</text>
</a>
</g>
</g>
<!-- Node1&#45;&gt;Node14 -->
<g id="edge13" class="edge"><title>Node1&#45;&gt;Node14</title>
<path fill="none" stroke="midnightblue" d="M65.9201,-297.133C74.878,-268.639 104.767,-185.611 160,-144 163.158,-141.62 166.576,-139.523 170.153,-137.675"/>
<polygon fill="midnightblue" stroke="midnightblue" points="171.62,-140.854 179.319,-133.575 168.761,-134.464 171.62,-140.854"/>
</g>
<!-- Node15 -->
<g id="node15" class="node"><title>Node15</title>
<g id="a_node15"><a xlink:href="sd_const_8h.html#a43df1781add708debe292a97c334b4bf" target="_top" xlink:title="getRelevantExtension">
<polygon fill="white" stroke="black" points="182,-76.5 182,-95.5 292,-95.5 292,-76.5 182,-76.5"/>
<text text-anchor="middle" x="237" y="-83.5" font-family="Helvetica,sans-Serif" font-size="10.00">getRelevantExtension</text>
</a>
</g>
</g>
<!-- Node1&#45;&gt;Node15 -->
<g id="edge14" class="edge"><title>Node1&#45;&gt;Node15</title>
<path fill="none" stroke="midnightblue" d="M64.679,-297.183C70.8182,-264.409 95.1757,-157.856 160,-105 163.755,-101.938 167.937,-99.3605 172.354,-97.1917"/>
<polygon fill="midnightblue" stroke="midnightblue" points="173.813,-100.375 181.689,-93.2897 171.113,-93.917 173.813,-100.375"/>
</g>
<!-- Node16 -->
<g id="node16" class="node"><title>Node16</title>
<g id="a_node16"><a xlink:href="classsd_entity_core.html#a4cdcaf53be00654310d23d2fc69facef" target="_top" xlink:title="sdEntityCore::sortAlphabetically">
<polygon fill="white" stroke="black" points="162.5,-38.5 162.5,-57.5 311.5,-57.5 311.5,-38.5 162.5,-38.5"/>
<text text-anchor="middle" x="237" y="-45.5" font-family="Helvetica,sans-Serif" font-size="10.00">sdEntityCore::sortAlphabetically</text>
</a>
</g>
</g>
<!-- Node1&#45;&gt;Node16 -->
<g id="edge15" class="edge"><title>Node1&#45;&gt;Node16</title>
<path fill="none" stroke="midnightblue" d="M63.8392,-297.457C67.5462,-261.309 85.7372,-131.589 160,-67 161.793,-65.4408 163.695,-64.006 165.682,-62.6858"/>
<polygon fill="midnightblue" stroke="midnightblue" points="167.82,-65.5035 174.877,-57.6012 164.432,-59.3778 167.82,-65.5035"/>
</g>
<!-- Node17 -->
<g id="node17" class="node"><title>Node17</title>
<g id="a_node17"><a xlink:href="classsd_entity_core.html#a4d96b7306ddabefd1c7467d06c256afa" target="_top" xlink:title="sdEntityCore::getKindAsString">
<polygon fill="white" stroke="black" points="166,-0.5 166,-19.5 308,-19.5 308,-0.5 166,-0.5"/>
<text text-anchor="middle" x="237" y="-7.5" font-family="Helvetica,sans-Serif" font-size="10.00">sdEntityCore::getKindAsString</text>
</a>
</g>
</g>
<!-- Node1&#45;&gt;Node17 -->
<g id="edge17" class="edge"><title>Node1&#45;&gt;Node17</title>
<path fill="none" stroke="midnightblue" d="M63.2547,-297.374C64.8471,-257.698 76.3891,-105.349 160,-29 161.714,-27.4352 163.536,-25.9946 165.446,-24.6686"/>
<polygon fill="midnightblue" stroke="midnightblue" points="167.394,-27.5859 174.309,-19.5587 163.897,-21.5217 167.394,-27.5859"/>
</g>
<!-- Node16&#45;&gt;Node11 -->
<g id="edge16" class="edge"><title>Node16&#45;&gt;Node11</title>
<path fill="none" stroke="midnightblue" d="M290.346,-57.5263C298.512,-60.0123 306.666,-63.1213 314,-67 345.303,-83.5557 374.585,-112.979 391.375,-131.712"/>
<polygon fill="midnightblue" stroke="midnightblue" points="388.753,-134.031 397.974,-139.249 394.02,-129.42 388.753,-134.031"/>
</g>
</g>
</svg>
