<?xml version="1.0" encoding="UTF-8" standalone="no"?>
<!DOCTYPE svg PUBLIC "-//W3C//DTD SVG 1.1//EN"
 "http://www.w3.org/Graphics/SVG/1.1/DTD/svg11.dtd">
<!-- Generated by graphviz version 2.34.0 (20131206.1153)
 -->
<!-- Title: sdEntity::getValue Pages: 1 -->
<svg width="230pt" height="66pt"
 viewBox="0.00 0.00 230.00 66.00" xmlns="http://www.w3.org/2000/svg" xmlns:xlink="http://www.w3.org/1999/xlink">
<g id="graph0" class="graph" transform="scale(1 1) rotate(0) translate(4 62)">
<title>sdEntity::getValue</title>
<polygon fill="white" stroke="white" points="-4,4 -4,-62 226,-62 226,4 -4,4"/>
<!-- Node1 -->
<g id="node1" class="node"><title>Node1</title>
<polygon fill="#bfbfbf" stroke="black" points="0,-19.5 0,-38.5 92,-38.5 92,-19.5 0,-19.5"/>
<text text-anchor="middle" x="46" y="-26.5" font-family="Helvetica,sans-Serif" font-size="10.00">sdEntity::getValue</text>
</g>
<!-- Node2 -->
<g id="node2" class="node"><title>Node2</title>
<g id="a_node2"><a xlink:href="classsd_entity.html#ac114c94bfc707b913ca8c8fa40cd1dd3" target="_top" xlink:title="sdEntity::getEvent">
<polygon fill="white" stroke="black" points="129,-38.5 129,-57.5 221,-57.5 221,-38.5 129,-38.5"/>
<text text-anchor="middle" x="175" y="-45.5" font-family="Helvetica,sans-Serif" font-size="10.00">sdEntity::getEvent</text>
</a>
</g>
</g>
<!-- Node1&#45;&gt;Node2 -->
<g id="edge1" class="edge"><title>Node1&#45;&gt;Node2</title>
<path fill="none" stroke="midnightblue" d="M92.133,-35.7522C100.64,-37.0248 109.627,-38.3694 118.41,-39.6833"/>
<polygon fill="midnightblue" stroke="midnightblue" points="118.177,-43.1873 128.584,-41.2055 119.212,-36.2644 118.177,-43.1873"/>
</g>
<!-- Node3 -->
<g id="node3" class="node"><title>Node3</title>
<g id="a_node3"><a xlink:href="classsd_event.html#adba2ca29642bd8d730dfdc3acadeeb00" target="_top" xlink:title="sdEvent::getValue">
<polygon fill="white" stroke="black" points="128,-0.5 128,-19.5 222,-19.5 222,-0.5 128,-0.5"/>
<text text-anchor="middle" x="175" y="-7.5" font-family="Helvetica,sans-Serif" font-size="10.00">sdEvent::getValue</text>
</a>
</g>
</g>
<!-- Node1&#45;&gt;Node3 -->
<g id="edge2" class="edge"><title>Node1&#45;&gt;Node3</title>
<path fill="none" stroke="midnightblue" d="M92.133,-22.2478C100.435,-21.0059 109.194,-19.6953 117.774,-18.4117"/>
<polygon fill="midnightblue" stroke="midnightblue" points="118.354,-21.864 127.726,-16.9228 117.318,-14.9411 118.354,-21.864"/>
</g>
</g>
</svg>
