<?xml version="1.0" encoding="UTF-8" standalone="no"?>
<!DOCTYPE svg PUBLIC "-//W3C//DTD SVG 1.1//EN"
 "http://www.w3.org/Graphics/SVG/1.1/DTD/svg11.dtd">
<!-- Generated by graphviz version 2.34.0 (20131206.1153)
 -->
<!-- Title: sdScene::getActivatedExtension Pages: 1 -->
<svg width="394pt" height="28pt"
 viewBox="0.00 0.00 394.00 28.00" xmlns="http://www.w3.org/2000/svg" xmlns:xlink="http://www.w3.org/1999/xlink">
<g id="graph0" class="graph" transform="scale(1 1) rotate(0) translate(4 24)">
<title>sdScene::getActivatedExtension</title>
<polygon fill="white" stroke="white" points="-4,4 -4,-24 390,-24 390,4 -4,4"/>
<!-- Node1 -->
<g id="node1" class="node"><title>Node1</title>
<polygon fill="#bfbfbf" stroke="black" points="0,-0.5 0,-19.5 152,-19.5 152,-0.5 0,-0.5"/>
<text text-anchor="middle" x="76" y="-7.5" font-family="Helvetica,sans-Serif" font-size="10.00">sdScene::getActivatedExtension</text>
</g>
<!-- Node2 -->
<g id="node2" class="node"><title>Node2</title>
<g id="a_node2"><a xlink:href="classsd_saver.html#a2095f1dd3d75b3f5d5f9ae323fa0f971" target="_top" xlink:title="sdSaver::XMLFromScene">
<polygon fill="white" stroke="black" points="188,-0.5 188,-19.5 312,-19.5 312,-0.5 188,-0.5"/>
<text text-anchor="middle" x="250" y="-7.5" font-family="Helvetica,sans-Serif" font-size="10.00">sdSaver::XMLFromScene</text>
</a>
</g>
</g>
<!-- Node1&#45;&gt;Node2 -->
<g id="edge1" class="edge"><title>Node1&#45;&gt;Node2</title>
<path fill="none" stroke="midnightblue" d="M162.305,-10C170.942,-10 179.589,-10 187.896,-10"/>
<polygon fill="midnightblue" stroke="midnightblue" points="162.192,-6.5001 152.191,-10 162.191,-13.5001 162.192,-6.5001"/>
</g>
<!-- Node3 -->
<g id="node3" class="node"><title>Node3</title>
<g id="a_node3"><a xlink:href="_file_with_extension_8cpp.html#a840291bc02cba5474a4cb46a9b9566fe" target="_top" xlink:title="main">
<polygon fill="white" stroke="black" points="348.5,-0.5 348.5,-19.5 385.5,-19.5 385.5,-0.5 348.5,-0.5"/>
<text text-anchor="middle" x="367" y="-7.5" font-family="Helvetica,sans-Serif" font-size="10.00">main</text>
</a>
</g>
</g>
<!-- Node2&#45;&gt;Node3 -->
<g id="edge2" class="edge"><title>Node2&#45;&gt;Node3</title>
<path fill="none" stroke="midnightblue" d="M322.391,-10C332.021,-10 341.098,-10 348.452,-10"/>
<polygon fill="midnightblue" stroke="midnightblue" points="322.204,-6.5001 312.204,-10 322.204,-13.5001 322.204,-6.5001"/>
</g>
</g>
</svg>
