<?xml version="1.0" encoding="UTF-8" standalone="no"?>
<!DOCTYPE svg PUBLIC "-//W3C//DTD SVG 1.1//EN"
 "http://www.w3.org/Graphics/SVG/1.1/DTD/svg11.dtd">
<!-- Generated by graphviz version 2.34.0 (20131206.1153)
 -->
<!-- Title: sdLoader::sceneFromXML Pages: 1 -->
<svg width="286pt" height="66pt"
 viewBox="0.00 0.00 286.00 66.00" xmlns="http://www.w3.org/2000/svg" xmlns:xlink="http://www.w3.org/1999/xlink">
<g id="graph0" class="graph" transform="scale(1 1) rotate(0) translate(4 62)">
<title>sdLoader::sceneFromXML</title>
<polygon fill="white" stroke="white" points="-4,4 -4,-62 282,-62 282,4 -4,4"/>
<!-- Node1 -->
<g id="node1" class="node"><title>Node1</title>
<polygon fill="#bfbfbf" stroke="black" points="0,-19.5 0,-38.5 126,-38.5 126,-19.5 0,-19.5"/>
<text text-anchor="middle" x="63" y="-26.5" font-family="Helvetica,sans-Serif" font-size="10.00">sdLoader::sceneFromXML</text>
</g>
<!-- Node2 -->
<g id="node2" class="node"><title>Node2</title>
<g id="a_node2"><a xlink:href="classsd_info.html#a93a8e95d4e6f54544089151c10abe646" target="_top" xlink:title="sdInfo::setAuthor">
<polygon fill="white" stroke="black" points="177,-38.5 177,-57.5 263,-57.5 263,-38.5 177,-38.5"/>
<text text-anchor="middle" x="220" y="-45.5" font-family="Helvetica,sans-Serif" font-size="10.00">sdInfo::setAuthor</text>
</a>
</g>
</g>
<!-- Node1&#45;&gt;Node2 -->
<g id="edge1" class="edge"><title>Node1&#45;&gt;Node2</title>
<path fill="none" stroke="midnightblue" d="M126.151,-36.6185C139.576,-38.2641 153.64,-39.9881 166.645,-41.5823"/>
<polygon fill="midnightblue" stroke="midnightblue" points="166.464,-45.0862 176.815,-42.829 167.315,-38.1382 166.464,-45.0862"/>
</g>
<!-- Node3 -->
<g id="node3" class="node"><title>Node3</title>
<g id="a_node3"><a xlink:href="classsd_entity_core.html#a4a2537e1b5b8c17bac298a37b306ae87" target="_top" xlink:title="sdEntityCore::addEvent">
<polygon fill="white" stroke="black" points="162,-0.5 162,-19.5 278,-19.5 278,-0.5 162,-0.5"/>
<text text-anchor="middle" x="220" y="-7.5" font-family="Helvetica,sans-Serif" font-size="10.00">sdEntityCore::addEvent</text>
</a>
</g>
</g>
<!-- Node1&#45;&gt;Node3 -->
<g id="edge2" class="edge"><title>Node1&#45;&gt;Node3</title>
<path fill="none" stroke="midnightblue" d="M126.151,-21.3815C134.626,-20.3426 143.356,-19.2725 151.914,-18.2235"/>
<polygon fill="midnightblue" stroke="midnightblue" points="152.355,-21.6957 161.855,-17.0049 151.503,-14.7477 152.355,-21.6957"/>
</g>
</g>
</svg>
