<?xml version="1.0" encoding="UTF-8" standalone="no"?>
<!DOCTYPE svg PUBLIC "-//W3C//DTD SVG 1.1//EN"
 "http://www.w3.org/Graphics/SVG/1.1/DTD/svg11.dtd">
<!-- Generated by graphviz version 2.34.0 (20131206.1153)
 -->
<!-- Title: sdEntityCore::getFirstEvent Pages: 1 -->
<svg width="432pt" height="28pt"
 viewBox="0.00 0.00 432.00 28.00" xmlns="http://www.w3.org/2000/svg" xmlns:xlink="http://www.w3.org/1999/xlink">
<g id="graph0" class="graph" transform="scale(1 1) rotate(0) translate(4 24)">
<title>sdEntityCore::getFirstEvent</title>
<polygon fill="white" stroke="white" points="-4,4 -4,-24 428,-24 428,4 -4,4"/>
<!-- Node1 -->
<g id="node1" class="node"><title>Node1</title>
<polygon fill="#bfbfbf" stroke="black" points="0.5,-0.5 0.5,-19.5 129.5,-19.5 129.5,-0.5 0.5,-0.5"/>
<text text-anchor="middle" x="65" y="-7.5" font-family="Helvetica,sans-Serif" font-size="10.00">sdEntityCore::getFirstEvent</text>
</g>
<!-- Node2 -->
<g id="node2" class="node"><title>Node2</title>
<g id="a_node2"><a xlink:href="classsd_entity.html#a28713d8652430021840d6ccce7cf403e" target="_top" xlink:title="sdEntity::getFirstEvent">
<polygon fill="white" stroke="black" points="166.5,-0.5 166.5,-19.5 275.5,-19.5 275.5,-0.5 166.5,-0.5"/>
<text text-anchor="middle" x="221" y="-7.5" font-family="Helvetica,sans-Serif" font-size="10.00">sdEntity::getFirstEvent</text>
</a>
</g>
</g>
<!-- Node1&#45;&gt;Node2 -->
<g id="edge1" class="edge"><title>Node1&#45;&gt;Node2</title>
<path fill="none" stroke="midnightblue" d="M129.527,-10C138.34,-10 147.397,-10 156.215,-10"/>
<polygon fill="midnightblue" stroke="midnightblue" points="156.429,-13.5001 166.429,-10 156.429,-6.5001 156.429,-13.5001"/>
</g>
<!-- Node3 -->
<g id="node3" class="node"><title>Node3</title>
<g id="a_node3"><a xlink:href="classsd_entity.html#a4557f15b0b35bcae25eaa84a70453287" target="_top" xlink:title="sdEntity::getNextEvent">
<polygon fill="white" stroke="black" points="312,-0.5 312,-19.5 424,-19.5 424,-0.5 312,-0.5"/>
<text text-anchor="middle" x="368" y="-7.5" font-family="Helvetica,sans-Serif" font-size="10.00">sdEntity::getNextEvent</text>
</a>
</g>
</g>
<!-- Node2&#45;&gt;Node3 -->
<g id="edge2" class="edge"><title>Node2&#45;&gt;Node3</title>
<path fill="none" stroke="midnightblue" d="M275.581,-10C284.046,-10 292.882,-10 301.581,-10"/>
<polygon fill="midnightblue" stroke="midnightblue" points="301.699,-13.5001 311.699,-10 301.699,-6.5001 301.699,-13.5001"/>
</g>
</g>
</svg>
