<?xml version="1.0" encoding="UTF-8" standalone="no"?>
<!DOCTYPE svg PUBLIC "-//W3C//DTD SVG 1.1//EN"
 "http://www.w3.org/Graphics/SVG/1.1/DTD/svg11.dtd">
<!-- Generated by graphviz version 2.34.0 (20131206.1153)
 -->
<!-- Title: sdEntityCore::addEvent Pages: 1 -->
<svg width="430pt" height="180pt"
 viewBox="0.00 0.00 430.00 180.00" xmlns="http://www.w3.org/2000/svg" xmlns:xlink="http://www.w3.org/1999/xlink">
<g id="graph0" class="graph" transform="scale(1 1) rotate(0) translate(4 176)">
<title>sdEntityCore::addEvent</title>
<polygon fill="white" stroke="white" points="-4,4 -4,-176 426,-176 426,4 -4,4"/>
<!-- Node1 -->
<g id="node1" class="node"><title>Node1</title>
<polygon fill="#bfbfbf" stroke="black" points="0,-76.5 0,-95.5 116,-95.5 116,-76.5 0,-76.5"/>
<text text-anchor="middle" x="58" y="-83.5" font-family="Helvetica,sans-Serif" font-size="10.00">sdEntityCore::addEvent</text>
</g>
<!-- Node2 -->
<g id="node2" class="node"><title>Node2</title>
<g id="a_node2"><a xlink:href="sd_extension_test_8cpp.html#a840291bc02cba5474a4cb46a9b9566fe" target="_top" xlink:title="main">
<polygon fill="white" stroke="black" points="231.5,-152.5 231.5,-171.5 268.5,-171.5 268.5,-152.5 231.5,-152.5"/>
<text text-anchor="middle" x="250" y="-159.5" font-family="Helvetica,sans-Serif" font-size="10.00">main</text>
</a>
</g>
</g>
<!-- Node1&#45;&gt;Node2 -->
<g id="edge1" class="edge"><title>Node1&#45;&gt;Node2</title>
<path fill="none" stroke="midnightblue" d="M79.5654,-101.596C97.697,-114.591 125.313,-132.599 152,-143 178.541,-153.345 211.448,-158.262 231.304,-160.442"/>
<polygon fill="midnightblue" stroke="midnightblue" points="81.6092,-98.7544 71.472,-95.6743 77.4758,-104.404 81.6092,-98.7544"/>
</g>
<!-- Node3 -->
<g id="node3" class="node"><title>Node3</title>
<g id="a_node3"><a xlink:href="classsd_loader.html#ab3d7cf4919f50673ec7f9649a9be09b1" target="_top" xlink:title="sdLoader::sceneFromXML">
<polygon fill="white" stroke="black" points="187,-114.5 187,-133.5 313,-133.5 313,-114.5 187,-114.5"/>
<text text-anchor="middle" x="250" y="-121.5" font-family="Helvetica,sans-Serif" font-size="10.00">sdLoader::sceneFromXML</text>
</a>
</g>
</g>
<!-- Node1&#45;&gt;Node3 -->
<g id="edge2" class="edge"><title>Node1&#45;&gt;Node3</title>
<path fill="none" stroke="midnightblue" d="M115.326,-97.5839C127.422,-100.05 140.133,-102.626 152,-105 167.481,-108.097 184.362,-111.422 199.638,-114.411"/>
<polygon fill="midnightblue" stroke="midnightblue" points="115.842,-94.1169 105.344,-95.545 114.441,-100.975 115.842,-94.1169"/>
</g>
<!-- Node5 -->
<g id="node5" class="node"><title>Node5</title>
<g id="a_node5"><a xlink:href="classsd_loader.html#a90eb4d4a140652fc18f7bc0551870020" target="_top" xlink:title="sdLoader::sceneFromJSON">
<polygon fill="white" stroke="black" points="183.5,-76.5 183.5,-95.5 316.5,-95.5 316.5,-76.5 183.5,-76.5"/>
<text text-anchor="middle" x="250" y="-83.5" font-family="Helvetica,sans-Serif" font-size="10.00">sdLoader::sceneFromJSON</text>
</a>
</g>
</g>
<!-- Node1&#45;&gt;Node5 -->
<g id="edge4" class="edge"><title>Node1&#45;&gt;Node5</title>
<path fill="none" stroke="midnightblue" d="M126.148,-86C144.727,-86 164.866,-86 183.359,-86"/>
<polygon fill="midnightblue" stroke="midnightblue" points="126.006,-82.5001 116.006,-86 126.006,-89.5001 126.006,-82.5001"/>
</g>
<!-- Node7 -->
<g id="node7" class="node"><title>Node7</title>
<g id="a_node7"><a xlink:href="classsd_o_s_c_responder.html#a286c1b3d5e2197aed9620f0785bab163" target="_top" xlink:title="sdOSCResponder::forwardOSCMessage">
<polygon fill="white" stroke="black" points="152,-38.5 152,-57.5 348,-57.5 348,-38.5 152,-38.5"/>
<text text-anchor="middle" x="250" y="-45.5" font-family="Helvetica,sans-Serif" font-size="10.00">sdOSCResponder::forwardOSCMessage</text>
</a>
</g>
</g>
<!-- Node1&#45;&gt;Node7 -->
<g id="edge6" class="edge"><title>Node1&#45;&gt;Node7</title>
<path fill="none" stroke="midnightblue" d="M115.326,-74.4161C127.422,-71.95 140.133,-69.3744 152,-67 167.481,-63.9026 184.362,-60.5775 199.638,-57.5886"/>
<polygon fill="midnightblue" stroke="midnightblue" points="114.441,-71.0246 105.344,-76.455 115.842,-77.8831 114.441,-71.0246"/>
</g>
<!-- Node8 -->
<g id="node8" class="node"><title>Node8</title>
<g id="a_node8"><a xlink:href="classsd_scene.html#aa4356859900326d8770de796d37640ea" target="_top" xlink:title="sdScene::setValue">
<polygon fill="white" stroke="black" points="202,-0.5 202,-19.5 298,-19.5 298,-0.5 202,-0.5"/>
<text text-anchor="middle" x="250" y="-7.5" font-family="Helvetica,sans-Serif" font-size="10.00">sdScene::setValue</text>
</a>
</g>
</g>
<!-- Node1&#45;&gt;Node8 -->
<g id="edge7" class="edge"><title>Node1&#45;&gt;Node8</title>
<path fill="none" stroke="midnightblue" d="M79.5654,-70.4042C97.697,-57.4089 125.313,-39.4013 152,-29 167.669,-22.893 185.556,-18.6773 201.667,-15.7998"/>
<polygon fill="midnightblue" stroke="midnightblue" points="77.4758,-67.5962 71.472,-76.3257 81.6092,-73.2456 77.4758,-67.5962"/>
</g>
<!-- Node4 -->
<g id="node4" class="node"><title>Node4</title>
<g id="a_node4"><a xlink:href="_file_with_extension_8cpp.html#a840291bc02cba5474a4cb46a9b9566fe" target="_top" xlink:title="main">
<polygon fill="white" stroke="black" points="384.5,-114.5 384.5,-133.5 421.5,-133.5 421.5,-114.5 384.5,-114.5"/>
<text text-anchor="middle" x="403" y="-121.5" font-family="Helvetica,sans-Serif" font-size="10.00">main</text>
</a>
</g>
</g>
<!-- Node3&#45;&gt;Node4 -->
<g id="edge3" class="edge"><title>Node3&#45;&gt;Node4</title>
<path fill="none" stroke="midnightblue" d="M323.295,-124C345.951,-124 368.992,-124 384.239,-124"/>
<polygon fill="midnightblue" stroke="midnightblue" points="323.289,-120.5 313.289,-124 323.289,-127.5 323.289,-120.5"/>
</g>
<!-- Node6 -->
<g id="node6" class="node"><title>Node6</title>
<g id="a_node6"><a xlink:href="sd_loader_test_8cpp.html#a840291bc02cba5474a4cb46a9b9566fe" target="_top" xlink:title="main">
<polygon fill="white" stroke="black" points="384.5,-76.5 384.5,-95.5 421.5,-95.5 421.5,-76.5 384.5,-76.5"/>
<text text-anchor="middle" x="403" y="-83.5" font-family="Helvetica,sans-Serif" font-size="10.00">main</text>
</a>
</g>
</g>
<!-- Node5&#45;&gt;Node6 -->
<g id="edge5" class="edge"><title>Node5&#45;&gt;Node6</title>
<path fill="none" stroke="midnightblue" d="M326.948,-86C348.375,-86 369.754,-86 384.181,-86"/>
<polygon fill="midnightblue" stroke="midnightblue" points="326.792,-82.5001 316.792,-86 326.792,-89.5001 326.792,-82.5001"/>
</g>
</g>
</svg>
