<?xml version="1.0" encoding="UTF-8" standalone="no"?>
<!DOCTYPE svg PUBLIC "-//W3C//DTD SVG 1.1//EN"
 "http://www.w3.org/Graphics/SVG/1.1/DTD/svg11.dtd">
<!-- Generated by graphviz version 2.34.0 (20131206.1153)
 -->
<!-- Title: sdEventExtensionMedia::getValueAsString Pages: 1 -->
<svg width="364pt" height="66pt"
 viewBox="0.00 0.00 364.00 66.00" xmlns="http://www.w3.org/2000/svg" xmlns:xlink="http://www.w3.org/1999/xlink">
<g id="graph0" class="graph" transform="scale(1 1) rotate(0) translate(4 62)">
<title>sdEventExtensionMedia::getValueAsString</title>
<polygon fill="white" stroke="white" points="-4,4 -4,-62 360,-62 360,4 -4,4"/>
<!-- Node1 -->
<g id="node1" class="node"><title>Node1</title>
<polygon fill="#bfbfbf" stroke="black" points="0,-14 0,-44 120,-44 120,-14 0,-14"/>
<text text-anchor="start" x="8" y="-32" font-family="Helvetica,sans-Serif" font-size="10.00">sdEventExtensionMedia</text>
<text text-anchor="middle" x="60" y="-21" font-family="Helvetica,sans-Serif" font-size="10.00">::getValueAsString</text>
</g>
<!-- Node2 -->
<g id="node2" class="node"><title>Node2</title>
<g id="a_node2"><a xlink:href="sd_const_8h.html#a12aa713d71583f1deef6c563d4f342b2" target="_top" xlink:title="intToString">
<polygon fill="white" stroke="black" points="166.5,-38.5 166.5,-57.5 225.5,-57.5 225.5,-38.5 166.5,-38.5"/>
<text text-anchor="middle" x="196" y="-45.5" font-family="Helvetica,sans-Serif" font-size="10.00">intToString</text>
</a>
</g>
</g>
<!-- Node1&#45;&gt;Node2 -->
<g id="edge1" class="edge"><title>Node1&#45;&gt;Node2</title>
<path fill="none" stroke="midnightblue" d="M120.164,-37.389C132.403,-39.1243 144.995,-40.9098 156.278,-42.5095"/>
<polygon fill="midnightblue" stroke="midnightblue" points="155.83,-45.981 166.223,-43.9196 156.813,-39.0504 155.83,-45.981"/>
</g>
<!-- Node4 -->
<g id="node4" class="node"><title>Node4</title>
<g id="a_node4"><a xlink:href="sd_const_8h.html#af6ea173327acc9bc1ed456517a81dc9f" target="_top" xlink:title="doubleToString">
<polygon fill="white" stroke="black" points="156.5,-0.5 156.5,-19.5 235.5,-19.5 235.5,-0.5 156.5,-0.5"/>
<text text-anchor="middle" x="196" y="-7.5" font-family="Helvetica,sans-Serif" font-size="10.00">doubleToString</text>
</a>
</g>
</g>
<!-- Node1&#45;&gt;Node4 -->
<g id="edge3" class="edge"><title>Node1&#45;&gt;Node4</title>
<path fill="none" stroke="midnightblue" d="M120.164,-20.611C128.837,-19.3813 137.688,-18.1263 146.124,-16.9302"/>
<polygon fill="midnightblue" stroke="midnightblue" points="146.759,-20.3752 156.169,-15.506 145.776,-13.4446 146.759,-20.3752"/>
</g>
<!-- Node3 -->
<g id="node3" class="node"><title>Node3</title>
<g id="a_node3"><a xlink:href="sd_const_8h.html#a7b52b91a3aa84def74aa35ad523aeef1" target="_top" xlink:title="intsToString">
<polygon fill="white" stroke="black" points="281.5,-38.5 281.5,-57.5 346.5,-57.5 346.5,-38.5 281.5,-38.5"/>
<text text-anchor="middle" x="314" y="-45.5" font-family="Helvetica,sans-Serif" font-size="10.00">intsToString</text>
</a>
</g>
</g>
<!-- Node2&#45;&gt;Node3 -->
<g id="edge2" class="edge"><title>Node2&#45;&gt;Node3</title>
<path fill="none" stroke="midnightblue" d="M225.674,-48C239.411,-48 256.127,-48 271.241,-48"/>
<polygon fill="midnightblue" stroke="midnightblue" points="271.394,-51.5001 281.393,-48 271.393,-44.5001 271.394,-51.5001"/>
</g>
<!-- Node5 -->
<g id="node5" class="node"><title>Node5</title>
<g id="a_node5"><a xlink:href="sd_const_8h.html#a2e4342bd50c4c585f85d074a765b4550" target="_top" xlink:title="doublesToString">
<polygon fill="white" stroke="black" points="272,-0.5 272,-19.5 356,-19.5 356,-0.5 272,-0.5"/>
<text text-anchor="middle" x="314" y="-7.5" font-family="Helvetica,sans-Serif" font-size="10.00">doublesToString</text>
</a>
</g>
</g>
<!-- Node4&#45;&gt;Node5 -->
<g id="edge4" class="edge"><title>Node4&#45;&gt;Node5</title>
<path fill="none" stroke="midnightblue" d="M235.626,-10C243.964,-10 252.904,-10 261.641,-10"/>
<polygon fill="midnightblue" stroke="midnightblue" points="261.756,-13.5001 271.756,-10 261.756,-6.5001 261.756,-13.5001"/>
</g>
</g>
</svg>
