<?xml version="1.0" encoding="UTF-8" standalone="no"?>
<!DOCTYPE svg PUBLIC "-//W3C//DTD SVG 1.1//EN"
 "http://www.w3.org/Graphics/SVG/1.1/DTD/svg11.dtd">
<!-- Generated by graphviz version 2.34.0 (20131206.1153)
 -->
<!-- Title: sdInfo::setAuthor Pages: 1 -->
<svg width="338pt" height="104pt"
 viewBox="0.00 0.00 338.00 104.00" xmlns="http://www.w3.org/2000/svg" xmlns:xlink="http://www.w3.org/1999/xlink">
<g id="graph0" class="graph" transform="scale(1 1) rotate(0) translate(4 100)">
<title>sdInfo::setAuthor</title>
<polygon fill="white" stroke="white" points="-4,4 -4,-100 334,-100 334,4 -4,4"/>
<!-- Node1 -->
<g id="node1" class="node"><title>Node1</title>
<polygon fill="#bfbfbf" stroke="black" points="0,-38.5 0,-57.5 86,-57.5 86,-38.5 0,-38.5"/>
<text text-anchor="middle" x="43" y="-45.5" font-family="Helvetica,sans-Serif" font-size="10.00">sdInfo::setAuthor</text>
</g>
<!-- Node2 -->
<g id="node2" class="node"><title>Node2</title>
<g id="a_node2"><a xlink:href="sd_info_test_8cpp.html#a840291bc02cba5474a4cb46a9b9566fe" target="_top" xlink:title="main">
<polygon fill="white" stroke="black" points="170.5,-76.5 170.5,-95.5 207.5,-95.5 207.5,-76.5 170.5,-76.5"/>
<text text-anchor="middle" x="189" y="-83.5" font-family="Helvetica,sans-Serif" font-size="10.00">main</text>
</a>
</g>
</g>
<!-- Node1&#45;&gt;Node2 -->
<g id="edge1" class="edge"><title>Node1&#45;&gt;Node2</title>
<path fill="none" stroke="midnightblue" d="M90.1274,-60.1725C117.503,-67.3967 150.635,-76.1397 170.478,-81.3761"/>
<polygon fill="midnightblue" stroke="midnightblue" points="90.8994,-56.7565 80.3373,-57.589 89.1132,-63.5248 90.8994,-56.7565"/>
</g>
<!-- Node3 -->
<g id="node3" class="node"><title>Node3</title>
<g id="a_node3"><a xlink:href="classsd_loader.html#ab3d7cf4919f50673ec7f9649a9be09b1" target="_top" xlink:title="sdLoader::sceneFromXML">
<polygon fill="white" stroke="black" points="126,-38.5 126,-57.5 252,-57.5 252,-38.5 126,-38.5"/>
<text text-anchor="middle" x="189" y="-45.5" font-family="Helvetica,sans-Serif" font-size="10.00">sdLoader::sceneFromXML</text>
</a>
</g>
</g>
<!-- Node1&#45;&gt;Node3 -->
<g id="edge2" class="edge"><title>Node1&#45;&gt;Node3</title>
<path fill="none" stroke="midnightblue" d="M96.2328,-48C105.846,-48 115.968,-48 125.839,-48"/>
<polygon fill="midnightblue" stroke="midnightblue" points="96.0379,-44.5001 86.0379,-48 96.0378,-51.5001 96.0379,-44.5001"/>
</g>
<!-- Node5 -->
<g id="node5" class="node"><title>Node5</title>
<g id="a_node5"><a xlink:href="classsd_loader.html#a90eb4d4a140652fc18f7bc0551870020" target="_top" xlink:title="sdLoader::sceneFromJSON">
<polygon fill="white" stroke="black" points="122.5,-0.5 122.5,-19.5 255.5,-19.5 255.5,-0.5 122.5,-0.5"/>
<text text-anchor="middle" x="189" y="-7.5" font-family="Helvetica,sans-Serif" font-size="10.00">sdLoader::sceneFromJSON</text>
</a>
</g>
</g>
<!-- Node1&#45;&gt;Node5 -->
<g id="edge4" class="edge"><title>Node1&#45;&gt;Node5</title>
<path fill="none" stroke="midnightblue" d="M90.1722,-35.8157C110.164,-30.54 133.219,-24.4562 151.924,-19.5201"/>
<polygon fill="midnightblue" stroke="midnightblue" points="89.1132,-32.4752 80.3373,-38.411 90.8994,-39.2435 89.1132,-32.4752"/>
</g>
<!-- Node4 -->
<g id="node4" class="node"><title>Node4</title>
<g id="a_node4"><a xlink:href="_file_with_extension_8cpp.html#a840291bc02cba5474a4cb46a9b9566fe" target="_top" xlink:title="main">
<polygon fill="white" stroke="black" points="292.5,-38.5 292.5,-57.5 329.5,-57.5 329.5,-38.5 292.5,-38.5"/>
<text text-anchor="middle" x="311" y="-45.5" font-family="Helvetica,sans-Serif" font-size="10.00">main</text>
</a>
</g>
</g>
<!-- Node3&#45;&gt;Node4 -->
<g id="edge3" class="edge"><title>Node3&#45;&gt;Node4</title>
<path fill="none" stroke="midnightblue" d="M262.33,-48C273.332,-48 283.756,-48 292.035,-48"/>
<polygon fill="midnightblue" stroke="midnightblue" points="262.109,-44.5001 252.109,-48 262.109,-51.5001 262.109,-44.5001"/>
</g>
<!-- Node6 -->
<g id="node6" class="node"><title>Node6</title>
<g id="a_node6"><a xlink:href="sd_loader_test_8cpp.html#a840291bc02cba5474a4cb46a9b9566fe" target="_top" xlink:title="main">
<polygon fill="white" stroke="black" points="292.5,-0.5 292.5,-19.5 329.5,-19.5 329.5,-0.5 292.5,-0.5"/>
<text text-anchor="middle" x="311" y="-7.5" font-family="Helvetica,sans-Serif" font-size="10.00">main</text>
</a>
</g>
</g>
<!-- Node5&#45;&gt;Node6 -->
<g id="edge5" class="edge"><title>Node5&#45;&gt;Node6</title>
<path fill="none" stroke="midnightblue" d="M265.679,-10C275.579,-10 284.868,-10 292.358,-10"/>
<polygon fill="midnightblue" stroke="midnightblue" points="265.618,-6.5001 255.618,-10 265.618,-13.5001 265.618,-6.5001"/>
</g>
</g>
</svg>
