<?xml version="1.0" encoding="UTF-8" standalone="no"?>
<!DOCTYPE svg PUBLIC "-//W3C//DTD SVG 1.1//EN"
 "http://www.w3.org/Graphics/SVG/1.1/DTD/svg11.dtd">
<!-- Generated by graphviz version 2.34.0 (20131206.1153)
 -->
<!-- Title: sdInfo::setDate Pages: 1 -->
<svg width="332pt" height="66pt"
 viewBox="0.00 0.00 332.00 66.00" xmlns="http://www.w3.org/2000/svg" xmlns:xlink="http://www.w3.org/1999/xlink">
<g id="graph0" class="graph" transform="scale(1 1) rotate(0) translate(4 62)">
<title>sdInfo::setDate</title>
<polygon fill="white" stroke="white" points="-4,4 -4,-62 328,-62 328,4 -4,4"/>
<!-- Node1 -->
<g id="node1" class="node"><title>Node1</title>
<polygon fill="#bfbfbf" stroke="black" points="0,-19.5 0,-38.5 80,-38.5 80,-19.5 0,-19.5"/>
<text text-anchor="middle" x="40" y="-26.5" font-family="Helvetica,sans-Serif" font-size="10.00">sdInfo::setDate</text>
</g>
<!-- Node2 -->
<g id="node2" class="node"><title>Node2</title>
<g id="a_node2"><a xlink:href="sd_info_test_8cpp.html#a840291bc02cba5474a4cb46a9b9566fe" target="_top" xlink:title="main">
<polygon fill="white" stroke="black" points="164.5,-38.5 164.5,-57.5 201.5,-57.5 201.5,-38.5 164.5,-38.5"/>
<text text-anchor="middle" x="183" y="-45.5" font-family="Helvetica,sans-Serif" font-size="10.00">main</text>
</a>
</g>
</g>
<!-- Node1&#45;&gt;Node2 -->
<g id="edge1" class="edge"><title>Node1&#45;&gt;Node2</title>
<path fill="none" stroke="midnightblue" d="M90.2512,-35.6367C115.941,-39.0985 145.784,-43.1198 164.283,-45.6126"/>
<polygon fill="midnightblue" stroke="midnightblue" points="90.6542,-32.1594 80.2764,-34.2926 89.7194,-39.0967 90.6542,-32.1594"/>
</g>
<!-- Node3 -->
<g id="node3" class="node"><title>Node3</title>
<g id="a_node3"><a xlink:href="classsd_loader.html#a90eb4d4a140652fc18f7bc0551870020" target="_top" xlink:title="sdLoader::sceneFromJSON">
<polygon fill="white" stroke="black" points="116.5,-0.5 116.5,-19.5 249.5,-19.5 249.5,-0.5 116.5,-0.5"/>
<text text-anchor="middle" x="183" y="-7.5" font-family="Helvetica,sans-Serif" font-size="10.00">sdLoader::sceneFromJSON</text>
</a>
</g>
</g>
<!-- Node1&#45;&gt;Node3 -->
<g id="edge2" class="edge"><title>Node1&#45;&gt;Node3</title>
<path fill="none" stroke="midnightblue" d="M90.3238,-22.3535C98.7732,-21.215 107.67,-20.0161 116.463,-18.8312"/>
<polygon fill="midnightblue" stroke="midnightblue" points="89.7194,-18.9033 80.2764,-23.7074 90.6542,-25.8406 89.7194,-18.9033"/>
</g>
<!-- Node4 -->
<g id="node4" class="node"><title>Node4</title>
<g id="a_node4"><a xlink:href="sd_loader_test_8cpp.html#a840291bc02cba5474a4cb46a9b9566fe" target="_top" xlink:title="main">
<polygon fill="white" stroke="black" points="286.5,-0.5 286.5,-19.5 323.5,-19.5 323.5,-0.5 286.5,-0.5"/>
<text text-anchor="middle" x="305" y="-7.5" font-family="Helvetica,sans-Serif" font-size="10.00">main</text>
</a>
</g>
</g>
<!-- Node3&#45;&gt;Node4 -->
<g id="edge3" class="edge"><title>Node3&#45;&gt;Node4</title>
<path fill="none" stroke="midnightblue" d="M259.679,-10C269.579,-10 278.868,-10 286.358,-10"/>
<polygon fill="midnightblue" stroke="midnightblue" points="259.618,-6.5001 249.618,-10 259.618,-13.5001 259.618,-6.5001"/>
</g>
</g>
</svg>
