<?xml version="1.0" encoding="UTF-8" standalone="no"?>
<!DOCTYPE svg PUBLIC "-//W3C//DTD SVG 1.1//EN"
 "http://www.w3.org/Graphics/SVG/1.1/DTD/svg11.dtd">
<!-- Generated by graphviz version 2.34.0 (20131206.1153)
 -->
<!-- Title: sdEvent::getTime Pages: 1 -->
<svg width="272pt" height="191pt"
 viewBox="0.00 0.00 272.00 191.00" xmlns="http://www.w3.org/2000/svg" xmlns:xlink="http://www.w3.org/1999/xlink">
<g id="graph0" class="graph" transform="scale(1 1) rotate(0) translate(4 187)">
<title>sdEvent::getTime</title>
<polygon fill="white" stroke="white" points="-4,4 -4,-187 268,-187 268,4 -4,4"/>
<!-- Node1 -->
<g id="node1" class="node"><title>Node1</title>
<polygon fill="#bfbfbf" stroke="black" points="0.5,-87.5 0.5,-106.5 89.5,-106.5 89.5,-87.5 0.5,-87.5"/>
<text text-anchor="middle" x="45" y="-94.5" font-family="Helvetica,sans-Serif" font-size="10.00">sdEvent::getTime</text>
</g>
<!-- Node2 -->
<g id="node2" class="node"><title>Node2</title>
<g id="a_node2"><a xlink:href="_how__to__query_8cpp.html#a840291bc02cba5474a4cb46a9b9566fe" target="_top" xlink:title="main">
<polygon fill="white" stroke="black" points="176.5,-163.5 176.5,-182.5 213.5,-182.5 213.5,-163.5 176.5,-163.5"/>
<text text-anchor="middle" x="195" y="-170.5" font-family="Helvetica,sans-Serif" font-size="10.00">main</text>
</a>
</g>
</g>
<!-- Node1&#45;&gt;Node2 -->
<g id="edge1" class="edge"><title>Node1&#45;&gt;Node2</title>
<path fill="none" stroke="midnightblue" d="M64.6501,-113.153C80.1546,-125.848 103.28,-143.143 126,-154 142.258,-161.769 162.266,-166.88 176.357,-169.825"/>
<polygon fill="midnightblue" stroke="midnightblue" points="66.7867,-110.377 56.8715,-106.644 62.2944,-115.746 66.7867,-110.377"/>
</g>
<!-- Node3 -->
<g id="node3" class="node"><title>Node3</title>
<g id="a_node3"><a xlink:href="classsd_entity.html#ac755e8f352a8d44771aa2f3b76601a9e" target="_top" xlink:title="sdEntity::getFirstTimeTag">
<polygon fill="white" stroke="black" points="135,-125.5 135,-144.5 255,-144.5 255,-125.5 135,-125.5"/>
<text text-anchor="middle" x="195" y="-132.5" font-family="Helvetica,sans-Serif" font-size="10.00">sdEntity::getFirstTimeTag</text>
</a>
</g>
</g>
<!-- Node1&#45;&gt;Node3 -->
<g id="edge2" class="edge"><title>Node1&#45;&gt;Node3</title>
<path fill="none" stroke="midnightblue" d="M93.1735,-109.112C113.786,-114.404 137.609,-120.521 156.922,-125.48"/>
<polygon fill="midnightblue" stroke="midnightblue" points="93.9029,-105.686 83.3466,-106.589 92.162,-112.466 93.9029,-105.686"/>
</g>
<!-- Node4 -->
<g id="node4" class="node"><title>Node4</title>
<g id="a_node4"><a xlink:href="classsd_entity.html#a2a5521010b78a686ab355b04d1d88da6" target="_top" xlink:title="sdEntity::getLastTimeTag">
<polygon fill="white" stroke="black" points="134,-87.5 134,-106.5 256,-106.5 256,-87.5 134,-87.5"/>
<text text-anchor="middle" x="195" y="-94.5" font-family="Helvetica,sans-Serif" font-size="10.00">sdEntity::getLastTimeTag</text>
</a>
</g>
</g>
<!-- Node1&#45;&gt;Node4 -->
<g id="edge3" class="edge"><title>Node1&#45;&gt;Node4</title>
<path fill="none" stroke="midnightblue" d="M99.6297,-97C110.786,-97 122.613,-97 133.983,-97"/>
<polygon fill="midnightblue" stroke="midnightblue" points="99.6044,-93.5001 89.6044,-97 99.6044,-100.5 99.6044,-93.5001"/>
</g>
<!-- Node5 -->
<g id="node5" class="node"><title>Node5</title>
<g id="a_node5"><a xlink:href="classsd_event_compare.html#a1b3764c3b05ecc282cd5e9da32e6d7aa" target="_top" xlink:title="sdEventCompare::operator()">
<polygon fill="white" stroke="black" points="126.5,-49.5 126.5,-68.5 263.5,-68.5 263.5,-49.5 126.5,-49.5"/>
<text text-anchor="middle" x="195" y="-56.5" font-family="Helvetica,sans-Serif" font-size="10.00">sdEventCompare::operator()</text>
</a>
</g>
</g>
<!-- Node1&#45;&gt;Node5 -->
<g id="edge4" class="edge"><title>Node1&#45;&gt;Node5</title>
<path fill="none" stroke="midnightblue" d="M93.1735,-84.8879C113.786,-79.5956 137.609,-73.4787 156.922,-68.5201"/>
<polygon fill="midnightblue" stroke="midnightblue" points="92.162,-81.534 83.3466,-87.411 93.9029,-88.3141 92.162,-81.534"/>
</g>
<!-- Node6 -->
<g id="node6" class="node"><title>Node6</title>
<g id="a_node6"><a xlink:href="classsd_global_event_compare.html#a023faa3ab3a35e60324ad43d79d922a5" target="_top" xlink:title="sdGlobalEventCompare\l::operator()">
<polygon fill="white" stroke="black" points="135,-0 135,-30 255,-30 255,-0 135,-0"/>
<text text-anchor="start" x="143" y="-18" font-family="Helvetica,sans-Serif" font-size="10.00">sdGlobalEventCompare</text>
<text text-anchor="middle" x="195" y="-7" font-family="Helvetica,sans-Serif" font-size="10.00">::operator()</text>
</a>
</g>
</g>
<!-- Node1&#45;&gt;Node6 -->
<g id="edge5" class="edge"><title>Node1&#45;&gt;Node6</title>
<path fill="none" stroke="midnightblue" d="M65.1616,-81.1163C80.8017,-68.7164 103.858,-51.6877 126,-40 132.897,-36.3596 140.441,-33.0161 147.915,-30.0393"/>
<polygon fill="midnightblue" stroke="midnightblue" points="62.8755,-78.4635 57.2885,-87.4656 67.2698,-83.9124 62.8755,-78.4635"/>
</g>
</g>
</svg>
