<?xml version="1.0" encoding="UTF-8" standalone="no"?>
<!DOCTYPE svg PUBLIC "-//W3C//DTD SVG 1.1//EN"
 "http://www.w3.org/Graphics/SVG/1.1/DTD/svg11.dtd">
<!-- Generated by graphviz version 2.34.0 (20131206.1153)
 -->
<!-- Title: sdEvent::set Pages: 1 -->
<svg width="208pt" height="66pt"
 viewBox="0.00 0.00 208.00 66.00" xmlns="http://www.w3.org/2000/svg" xmlns:xlink="http://www.w3.org/1999/xlink">
<g id="graph0" class="graph" transform="scale(1 1) rotate(0) translate(4 62)">
<title>sdEvent::set</title>
<polygon fill="white" stroke="white" points="-4,4 -4,-62 204,-62 204,4 -4,4"/>
<!-- Node1 -->
<g id="node1" class="node"><title>Node1</title>
<polygon fill="#bfbfbf" stroke="black" points="0.5,-19.5 0.5,-38.5 69.5,-38.5 69.5,-19.5 0.5,-19.5"/>
<text text-anchor="middle" x="35" y="-26.5" font-family="Helvetica,sans-Serif" font-size="10.00">sdEvent::set</text>
</g>
<!-- Node2 -->
<g id="node2" class="node"><title>Node2</title>
<g id="a_node2"><a xlink:href="classsd_event.html#a995d4478d9bc19a5efc3a5053f87bda0" target="_top" xlink:title="sdEvent::setTime">
<polygon fill="white" stroke="black" points="108.5,-38.5 108.5,-57.5 197.5,-57.5 197.5,-38.5 108.5,-38.5"/>
<text text-anchor="middle" x="153" y="-45.5" font-family="Helvetica,sans-Serif" font-size="10.00">sdEvent::setTime</text>
</a>
</g>
</g>
<!-- Node1&#45;&gt;Node2 -->
<g id="edge1" class="edge"><title>Node1&#45;&gt;Node2</title>
<path fill="none" stroke="midnightblue" d="M69.552,-34.4956C78.4911,-35.9597 88.3785,-37.5792 98.1109,-39.1733"/>
<polygon fill="midnightblue" stroke="midnightblue" points="97.7163,-42.6553 108.151,-40.8178 98.8478,-35.7473 97.7163,-42.6553"/>
</g>
<!-- Node3 -->
<g id="node3" class="node"><title>Node3</title>
<g id="a_node3"><a xlink:href="classsd_event.html#a790ec4ab340327b2e075014524481b59" target="_top" xlink:title="sdEvent::setValue">
<polygon fill="white" stroke="black" points="106,-0.5 106,-19.5 200,-19.5 200,-0.5 106,-0.5"/>
<text text-anchor="middle" x="153" y="-7.5" font-family="Helvetica,sans-Serif" font-size="10.00">sdEvent::setValue</text>
</a>
</g>
</g>
<!-- Node1&#45;&gt;Node3 -->
<g id="edge2" class="edge"><title>Node1&#45;&gt;Node3</title>
<path fill="none" stroke="midnightblue" d="M69.552,-23.5044C77.7195,-22.1666 86.6787,-20.6992 95.5879,-19.2399"/>
<polygon fill="midnightblue" stroke="midnightblue" points="96.2779,-22.6736 105.581,-17.6032 95.1464,-15.7657 96.2779,-22.6736"/>
</g>
</g>
</svg>
