<?xml version="1.0" encoding="UTF-8" standalone="no"?>
<!DOCTYPE svg PUBLIC "-//W3C//DTD SVG 1.1//EN"
 "http://www.w3.org/Graphics/SVG/1.1/DTD/svg11.dtd">
<!-- Generated by graphviz version 2.34.0 (20131206.1153)
 -->
<!-- Title: sdEntityExtensionMedia::addEvent Pages: 1 -->
<svg width="552pt" height="104pt"
 viewBox="0.00 0.00 552.00 104.00" xmlns="http://www.w3.org/2000/svg" xmlns:xlink="http://www.w3.org/1999/xlink">
<g id="graph0" class="graph" transform="scale(1 1) rotate(0) translate(4 100)">
<title>sdEntityExtensionMedia::addEvent</title>
<polygon fill="white" stroke="white" points="-4,4 -4,-100 548,-100 548,4 -4,4"/>
<!-- Node1 -->
<g id="node1" class="node"><title>Node1</title>
<polygon fill="#bfbfbf" stroke="black" points="0.5,-33 0.5,-63 119.5,-63 119.5,-33 0.5,-33"/>
<text text-anchor="start" x="8.5" y="-51" font-family="Helvetica,sans-Serif" font-size="10.00">sdEntityExtensionMedia</text>
<text text-anchor="middle" x="60" y="-40" font-family="Helvetica,sans-Serif" font-size="10.00">::addEvent</text>
</g>
<!-- Node2 -->
<g id="node2" class="node"><title>Node2</title>
<g id="a_node2"><a xlink:href="classsd_entity_extension_media.html#aac62ba87baf7db292f61b883a11b6179" target="_top" xlink:title="sdEntityExtensionMedia\l::removeEvent">
<polygon fill="white" stroke="black" points="156.5,-33 156.5,-63 275.5,-63 275.5,-33 156.5,-33"/>
<text text-anchor="start" x="164.5" y="-51" font-family="Helvetica,sans-Serif" font-size="10.00">sdEntityExtensionMedia</text>
<text text-anchor="middle" x="216" y="-40" font-family="Helvetica,sans-Serif" font-size="10.00">::removeEvent</text>
</a>
</g>
</g>
<!-- Node1&#45;&gt;Node2 -->
<g id="edge1" class="edge"><title>Node1&#45;&gt;Node2</title>
<path fill="none" stroke="midnightblue" d="M119.66,-48C128.274,-48 137.214,-48 146.012,-48"/>
<polygon fill="midnightblue" stroke="midnightblue" points="146.248,-51.5001 156.248,-48 146.248,-44.5001 146.248,-51.5001"/>
</g>
<!-- Node3 -->
<g id="node3" class="node"><title>Node3</title>
<g id="a_node3"><a xlink:href="sd_const_8h.html#a5f06f639581e8f36cbc9d51e53eee915" target="_top" xlink:title="stringToDescriptor">
<polygon fill="white" stroke="black" points="321.5,-76.5 321.5,-95.5 412.5,-95.5 412.5,-76.5 321.5,-76.5"/>
<text text-anchor="middle" x="367" y="-83.5" font-family="Helvetica,sans-Serif" font-size="10.00">stringToDescriptor</text>
</a>
</g>
</g>
<!-- Node2&#45;&gt;Node3 -->
<g id="edge2" class="edge"><title>Node2&#45;&gt;Node3</title>
<path fill="none" stroke="midnightblue" d="M275.889,-63.0186C290.02,-66.6225 304.935,-70.4264 318.476,-73.8798"/>
<polygon fill="midnightblue" stroke="midnightblue" points="317.972,-77.3633 328.527,-76.4432 319.702,-70.5804 317.972,-77.3633"/>
</g>
<!-- Node4 -->
<g id="node4" class="node"><title>Node4</title>
<g id="a_node4"><a xlink:href="classsd_entity.html#af2f4241b73bd8d4322b01b7df060f9b4" target="_top" xlink:title="sdEntity::removeEvent">
<polygon fill="white" stroke="black" points="312,-38.5 312,-57.5 422,-57.5 422,-38.5 312,-38.5"/>
<text text-anchor="middle" x="367" y="-45.5" font-family="Helvetica,sans-Serif" font-size="10.00">sdEntity::removeEvent</text>
</a>
</g>
</g>
<!-- Node2&#45;&gt;Node4 -->
<g id="edge3" class="edge"><title>Node2&#45;&gt;Node4</title>
<path fill="none" stroke="midnightblue" d="M275.889,-48C284.425,-48 293.247,-48 301.88,-48"/>
<polygon fill="midnightblue" stroke="midnightblue" points="301.898,-51.5001 311.898,-48 301.898,-44.5001 301.898,-51.5001"/>
</g>
<!-- Node5 -->
<g id="node5" class="node"><title>Node5</title>
<g id="a_node5"><a xlink:href="sd_const_8h.html#a7e564ec0266d67f518a0b0f80f17e203" target="_top" xlink:title="stringToDouble">
<polygon fill="white" stroke="black" points="327,-0.5 327,-19.5 407,-19.5 407,-0.5 327,-0.5"/>
<text text-anchor="middle" x="367" y="-7.5" font-family="Helvetica,sans-Serif" font-size="10.00">stringToDouble</text>
</a>
</g>
</g>
<!-- Node2&#45;&gt;Node5 -->
<g id="edge4" class="edge"><title>Node2&#45;&gt;Node5</title>
<path fill="none" stroke="midnightblue" d="M275.889,-32.9814C290.02,-29.3775 304.935,-25.5736 318.476,-22.1202"/>
<polygon fill="midnightblue" stroke="midnightblue" points="319.702,-25.4196 328.527,-19.5568 317.972,-18.6367 319.702,-25.4196"/>
</g>
<!-- Node6 -->
<g id="node6" class="node"><title>Node6</title>
<g id="a_node6"><a xlink:href="sd_const_8h.html#ae7ae4ebb27c32496c48bac787cc5bcf7" target="_top" xlink:title="stringToDoubles">
<polygon fill="white" stroke="black" points="458.5,-0.5 458.5,-19.5 543.5,-19.5 543.5,-0.5 458.5,-0.5"/>
<text text-anchor="middle" x="501" y="-7.5" font-family="Helvetica,sans-Serif" font-size="10.00">stringToDoubles</text>
</a>
</g>
</g>
<!-- Node5&#45;&gt;Node6 -->
<g id="edge5" class="edge"><title>Node5&#45;&gt;Node6</title>
<path fill="none" stroke="midnightblue" d="M407.247,-10C420.086,-10 434.55,-10 448.169,-10"/>
<polygon fill="midnightblue" stroke="midnightblue" points="448.379,-13.5001 458.379,-10 448.379,-6.5001 448.379,-13.5001"/>
</g>
</g>
</svg>
