<?xml version="1.0" encoding="UTF-8" standalone="no"?>
<!DOCTYPE svg PUBLIC "-//W3C//DTD SVG 1.1//EN"
 "http://www.w3.org/Graphics/SVG/1.1/DTD/svg11.dtd">
<!-- Generated by graphviz version 2.34.0 (20131206.1153)
 -->
<!-- Title: sdEntity::getFirstEvent Pages: 1 -->
<svg width="452pt" height="66pt"
 viewBox="0.00 0.00 452.00 66.00" xmlns="http://www.w3.org/2000/svg" xmlns:xlink="http://www.w3.org/1999/xlink">
<g id="graph0" class="graph" transform="scale(1 1) rotate(0) translate(4 62)">
<title>sdEntity::getFirstEvent</title>
<polygon fill="white" stroke="white" points="-4,4 -4,-62 448,-62 448,4 -4,4"/>
<!-- Node1 -->
<g id="node1" class="node"><title>Node1</title>
<polygon fill="#bfbfbf" stroke="black" points="0.5,-19.5 0.5,-38.5 109.5,-38.5 109.5,-19.5 0.5,-19.5"/>
<text text-anchor="middle" x="55" y="-26.5" font-family="Helvetica,sans-Serif" font-size="10.00">sdEntity::getFirstEvent</text>
</g>
<!-- Node2 -->
<g id="node2" class="node"><title>Node2</title>
<g id="a_node2"><a xlink:href="classsd_entity.html#a1b946cb0864e5b3963ed15c916aa6811" target="_top" xlink:title="sdEntity::getLastEvent">
<polygon fill="white" stroke="black" points="155.5,-38.5 155.5,-57.5 266.5,-57.5 266.5,-38.5 155.5,-38.5"/>
<text text-anchor="middle" x="211" y="-45.5" font-family="Helvetica,sans-Serif" font-size="10.00">sdEntity::getLastEvent</text>
</a>
</g>
</g>
<!-- Node1&#45;&gt;Node2 -->
<g id="edge1" class="edge"><title>Node1&#45;&gt;Node2</title>
<path fill="none" stroke="midnightblue" d="M120.048,-36.902C131.792,-38.351 143.95,-39.851 155.387,-41.262"/>
<polygon fill="midnightblue" stroke="midnightblue" points="120.215,-33.3962 109.862,-35.6453 119.358,-40.3435 120.215,-33.3962"/>
</g>
<!-- Node4 -->
<g id="node4" class="node"><title>Node4</title>
<g id="a_node4"><a xlink:href="classsd_entity_core.html#ac4e5e6ca2e0508b206ccdf29c9b0c035" target="_top" xlink:title="sdEntityCore::getFirstEvent">
<polygon fill="white" stroke="black" points="146.5,-0.5 146.5,-19.5 275.5,-19.5 275.5,-0.5 146.5,-0.5"/>
<text text-anchor="middle" x="211" y="-7.5" font-family="Helvetica,sans-Serif" font-size="10.00">sdEntityCore::getFirstEvent</text>
</a>
</g>
</g>
<!-- Node1&#45;&gt;Node4 -->
<g id="edge3" class="edge"><title>Node1&#45;&gt;Node4</title>
<path fill="none" stroke="midnightblue" d="M119.976,-21.1068C128.706,-20.0297 137.666,-18.9243 146.39,-17.848"/>
<polygon fill="midnightblue" stroke="midnightblue" points="119.358,-17.6565 109.862,-22.3547 120.215,-24.6038 119.358,-17.6565"/>
</g>
<!-- Node3 -->
<g id="node3" class="node"><title>Node3</title>
<g id="a_node3"><a xlink:href="classsd_entity_core.html#a620b06cfa24cc5f46590f3ff9a5c5c55" target="_top" xlink:title="sdEntityCore::getLastEvent">
<polygon fill="white" stroke="black" points="312.5,-38.5 312.5,-57.5 443.5,-57.5 443.5,-38.5 312.5,-38.5"/>
<text text-anchor="middle" x="378" y="-45.5" font-family="Helvetica,sans-Serif" font-size="10.00">sdEntityCore::getLastEvent</text>
</a>
</g>
</g>
<!-- Node2&#45;&gt;Node3 -->
<g id="edge2" class="edge"><title>Node2&#45;&gt;Node3</title>
<path fill="none" stroke="midnightblue" d="M276.993,-48C288.599,-48 300.69,-48 312.289,-48"/>
<polygon fill="midnightblue" stroke="midnightblue" points="276.943,-44.5001 266.943,-48 276.943,-51.5001 276.943,-44.5001"/>
</g>
</g>
</svg>
