<?xml version="1.0" encoding="UTF-8" standalone="no"?>
<!DOCTYPE svg PUBLIC "-//W3C//DTD SVG 1.1//EN"
 "http://www.w3.org/Graphics/SVG/1.1/DTD/svg11.dtd">
<!-- Generated by graphviz version 2.34.0 (20131206.1153)
 -->
<!-- Title: sdEvent::getValue Pages: 1 -->
<svg width="512pt" height="28pt"
 viewBox="0.00 0.00 512.00 28.00" xmlns="http://www.w3.org/2000/svg" xmlns:xlink="http://www.w3.org/1999/xlink">
<g id="graph0" class="graph" transform="scale(1 1) rotate(0) translate(4 24)">
<title>sdEvent::getValue</title>
<polygon fill="white" stroke="white" points="-4,4 -4,-24 508,-24 508,4 -4,4"/>
<!-- Node1 -->
<g id="node1" class="node"><title>Node1</title>
<polygon fill="#bfbfbf" stroke="black" points="0,-0.5 0,-19.5 94,-19.5 94,-0.5 0,-0.5"/>
<text text-anchor="middle" x="47" y="-7.5" font-family="Helvetica,sans-Serif" font-size="10.00">sdEvent::getValue</text>
</g>
<!-- Node2 -->
<g id="node2" class="node"><title>Node2</title>
<g id="a_node2"><a xlink:href="classsd_entity.html#a10bfcf57477433b546f92b4f75a7c74e" target="_top" xlink:title="sdEntity::getValue">
<polygon fill="white" stroke="black" points="130,-0.5 130,-19.5 222,-19.5 222,-0.5 130,-0.5"/>
<text text-anchor="middle" x="176" y="-7.5" font-family="Helvetica,sans-Serif" font-size="10.00">sdEntity::getValue</text>
</a>
</g>
</g>
<!-- Node1&#45;&gt;Node2 -->
<g id="edge1" class="edge"><title>Node1&#45;&gt;Node2</title>
<path fill="none" stroke="midnightblue" d="M104.464,-10C112.975,-10 121.656,-10 129.887,-10"/>
<polygon fill="midnightblue" stroke="midnightblue" points="104.209,-6.5001 94.2092,-10 104.209,-13.5001 104.209,-6.5001"/>
</g>
<!-- Node3 -->
<g id="node3" class="node"><title>Node3</title>
<g id="a_node3"><a xlink:href="classsd_entity_core.html#a4cacb54fb3c38a23232ca89672b76c24" target="_top" xlink:title="sdEntityCore::getValue">
<polygon fill="white" stroke="black" points="258.5,-0.5 258.5,-19.5 371.5,-19.5 371.5,-0.5 258.5,-0.5"/>
<text text-anchor="middle" x="315" y="-7.5" font-family="Helvetica,sans-Serif" font-size="10.00">sdEntityCore::getValue</text>
</a>
</g>
</g>
<!-- Node2&#45;&gt;Node3 -->
<g id="edge2" class="edge"><title>Node2&#45;&gt;Node3</title>
<path fill="none" stroke="midnightblue" d="M232.455,-10C240.974,-10 249.774,-10 258.298,-10"/>
<polygon fill="midnightblue" stroke="midnightblue" points="232.239,-6.5001 222.239,-10 232.239,-13.5001 232.239,-6.5001"/>
</g>
<!-- Node4 -->
<g id="node4" class="node"><title>Node4</title>
<g id="a_node4"><a xlink:href="classsd_scene.html#ae54c0a8fdb412b4d210ebef25a23c6a3" target="_top" xlink:title="sdScene::getValue">
<polygon fill="white" stroke="black" points="408,-0.5 408,-19.5 504,-19.5 504,-0.5 408,-0.5"/>
<text text-anchor="middle" x="456" y="-7.5" font-family="Helvetica,sans-Serif" font-size="10.00">sdScene::getValue</text>
</a>
</g>
</g>
<!-- Node3&#45;&gt;Node4 -->
<g id="edge3" class="edge"><title>Node3&#45;&gt;Node4</title>
<path fill="none" stroke="midnightblue" d="M381.905,-10C390.626,-10 399.423,-10 407.744,-10"/>
<polygon fill="midnightblue" stroke="midnightblue" points="381.736,-6.5001 371.736,-10 381.736,-13.5001 381.736,-6.5001"/>
</g>
</g>
</svg>
