<?xml version="1.0" encoding="UTF-8" standalone="no"?>
<!DOCTYPE svg PUBLIC "-//W3C//DTD SVG 1.1//EN"
 "http://www.w3.org/Graphics/SVG/1.1/DTD/svg11.dtd">
<!-- Generated by graphviz version 2.34.0 (20131206.1153)
 -->
<!-- Title: sdScene::getNumberOfActivatedExtensions Pages: 1 -->
<svg width="396pt" height="66pt"
 viewBox="0.00 0.00 396.00 66.00" xmlns="http://www.w3.org/2000/svg" xmlns:xlink="http://www.w3.org/1999/xlink">
<g id="graph0" class="graph" transform="scale(1 1) rotate(0) translate(4 62)">
<title>sdScene::getNumberOfActivatedExtensions</title>
<polygon fill="white" stroke="white" points="-4,4 -4,-62 392,-62 392,4 -4,4"/>
<!-- Node1 -->
<g id="node1" class="node"><title>Node1</title>
<polygon fill="#bfbfbf" stroke="black" points="0,-14 0,-44 154,-44 154,-14 0,-14"/>
<text text-anchor="start" x="8" y="-32" font-family="Helvetica,sans-Serif" font-size="10.00">sdScene::getNumberOfActivated</text>
<text text-anchor="middle" x="77" y="-21" font-family="Helvetica,sans-Serif" font-size="10.00">Extensions</text>
</g>
<!-- Node2 -->
<g id="node2" class="node"><title>Node2</title>
<g id="a_node2"><a xlink:href="sd_scene_test_8cpp.html#a840291bc02cba5474a4cb46a9b9566fe" target="_top" xlink:title="main">
<polygon fill="white" stroke="black" points="233.5,-38.5 233.5,-57.5 270.5,-57.5 270.5,-38.5 233.5,-38.5"/>
<text text-anchor="middle" x="252" y="-45.5" font-family="Helvetica,sans-Serif" font-size="10.00">main</text>
</a>
</g>
</g>
<!-- Node1&#45;&gt;Node2 -->
<g id="edge1" class="edge"><title>Node1&#45;&gt;Node2</title>
<path fill="none" stroke="midnightblue" d="M164.156,-38.4622C190.368,-41.341 216.622,-44.2244 233.29,-46.055"/>
<polygon fill="midnightblue" stroke="midnightblue" points="164.454,-34.974 154.132,-37.3613 163.69,-41.9322 164.454,-34.974"/>
</g>
<!-- Node3 -->
<g id="node3" class="node"><title>Node3</title>
<g id="a_node3"><a xlink:href="classsd_saver.html#a2095f1dd3d75b3f5d5f9ae323fa0f971" target="_top" xlink:title="sdSaver::XMLFromScene">
<polygon fill="white" stroke="black" points="190,-0.5 190,-19.5 314,-19.5 314,-0.5 190,-0.5"/>
<text text-anchor="middle" x="252" y="-7.5" font-family="Helvetica,sans-Serif" font-size="10.00">sdSaver::XMLFromScene</text>
</a>
</g>
</g>
<!-- Node1&#45;&gt;Node3 -->
<g id="edge2" class="edge"><title>Node1&#45;&gt;Node3</title>
<path fill="none" stroke="midnightblue" d="M164.271,-19.5251C172.927,-18.5744 181.587,-17.6234 189.902,-16.7102"/>
<polygon fill="midnightblue" stroke="midnightblue" points="163.69,-16.0678 154.132,-20.6387 164.454,-23.026 163.69,-16.0678"/>
</g>
<!-- Node4 -->
<g id="node4" class="node"><title>Node4</title>
<g id="a_node4"><a xlink:href="_file_with_extension_8cpp.html#a840291bc02cba5474a4cb46a9b9566fe" target="_top" xlink:title="main">
<polygon fill="white" stroke="black" points="350.5,-0.5 350.5,-19.5 387.5,-19.5 387.5,-0.5 350.5,-0.5"/>
<text text-anchor="middle" x="369" y="-7.5" font-family="Helvetica,sans-Serif" font-size="10.00">main</text>
</a>
</g>
</g>
<!-- Node3&#45;&gt;Node4 -->
<g id="edge3" class="edge"><title>Node3&#45;&gt;Node4</title>
<path fill="none" stroke="midnightblue" d="M324.391,-10C334.021,-10 343.098,-10 350.452,-10"/>
<polygon fill="midnightblue" stroke="midnightblue" points="324.204,-6.5001 314.204,-10 324.204,-13.5001 324.204,-6.5001"/>
</g>
</g>
</svg>
