<?xml version="1.0" encoding="UTF-8" standalone="no"?>
<!DOCTYPE svg PUBLIC "-//W3C//DTD SVG 1.1//EN"
 "http://www.w3.org/Graphics/SVG/1.1/DTD/svg11.dtd">
<!-- Generated by graphviz version 2.34.0 (20131206.1153)
 -->
<!-- Title: sdEntityExtension::getExtensionNameAsString Pages: 1 -->
<svg width="334pt" height="38pt"
 viewBox="0.00 0.00 334.00 38.00" xmlns="http://www.w3.org/2000/svg" xmlns:xlink="http://www.w3.org/1999/xlink">
<g id="graph0" class="graph" transform="scale(1 1) rotate(0) translate(4 34)">
<title>sdEntityExtension::getExtensionNameAsString</title>
<polygon fill="white" stroke="white" points="-4,4 -4,-34 330,-34 330,4 -4,4"/>
<!-- Node1 -->
<g id="node1" class="node"><title>Node1</title>
<polygon fill="#bfbfbf" stroke="black" points="0,-0 0,-30 132,-30 132,-0 0,-0"/>
<text text-anchor="start" x="8" y="-18" font-family="Helvetica,sans-Serif" font-size="10.00">sdEntityExtension::</text>
<text text-anchor="middle" x="66" y="-7" font-family="Helvetica,sans-Serif" font-size="10.00">getExtensionNameAsString</text>
</g>
<!-- Node2 -->
<g id="node2" class="node"><title>Node2</title>
<g id="a_node2"><a xlink:href="classsd_scene.html#a1e61037274d374f8ab33e347fde8b65b" target="_top" xlink:title="sdScene::dump">
<polygon fill="white" stroke="black" points="168.5,-5.5 168.5,-24.5 251.5,-24.5 251.5,-5.5 168.5,-5.5"/>
<text text-anchor="middle" x="210" y="-12.5" font-family="Helvetica,sans-Serif" font-size="10.00">sdScene::dump</text>
</a>
</g>
</g>
<!-- Node1&#45;&gt;Node2 -->
<g id="edge1" class="edge"><title>Node1&#45;&gt;Node2</title>
<path fill="none" stroke="midnightblue" d="M142.251,-15C151.163,-15 159.986,-15 168.154,-15"/>
<polygon fill="midnightblue" stroke="midnightblue" points="142.182,-11.5001 132.182,-15 142.182,-18.5001 142.182,-11.5001"/>
</g>
<!-- Node3 -->
<g id="node3" class="node"><title>Node3</title>
<g id="a_node3"><a xlink:href="sd_saver_test_8cpp.html#a840291bc02cba5474a4cb46a9b9566fe" target="_top" xlink:title="main">
<polygon fill="white" stroke="black" points="288.5,-5.5 288.5,-24.5 325.5,-24.5 325.5,-5.5 288.5,-5.5"/>
<text text-anchor="middle" x="307" y="-12.5" font-family="Helvetica,sans-Serif" font-size="10.00">main</text>
</a>
</g>
</g>
<!-- Node2&#45;&gt;Node3 -->
<g id="edge2" class="edge"><title>Node2&#45;&gt;Node3</title>
<path fill="none" stroke="midnightblue" d="M261.621,-15C271.277,-15 280.76,-15 288.465,-15"/>
<polygon fill="midnightblue" stroke="midnightblue" points="261.564,-11.5001 251.564,-15 261.564,-18.5001 261.564,-11.5001"/>
</g>
</g>
</svg>
