<?xml version="1.0" encoding="UTF-8" standalone="no"?>
<!DOCTYPE svg PUBLIC "-//W3C//DTD SVG 1.1//EN"
 "http://www.w3.org/Graphics/SVG/1.1/DTD/svg11.dtd">
<!-- Generated by graphviz version 2.34.0 (20131206.1153)
 -->
<!-- Title: sdInfo::setAnnotation Pages: 1 -->
<svg width="356pt" height="66pt"
 viewBox="0.00 0.00 356.00 66.00" xmlns="http://www.w3.org/2000/svg" xmlns:xlink="http://www.w3.org/1999/xlink">
<g id="graph0" class="graph" transform="scale(1 1) rotate(0) translate(4 62)">
<title>sdInfo::setAnnotation</title>
<polygon fill="white" stroke="white" points="-4,4 -4,-62 352,-62 352,4 -4,4"/>
<!-- Node1 -->
<g id="node1" class="node"><title>Node1</title>
<polygon fill="#bfbfbf" stroke="black" points="0,-19.5 0,-38.5 104,-38.5 104,-19.5 0,-19.5"/>
<text text-anchor="middle" x="52" y="-26.5" font-family="Helvetica,sans-Serif" font-size="10.00">sdInfo::setAnnotation</text>
</g>
<!-- Node2 -->
<g id="node2" class="node"><title>Node2</title>
<g id="a_node2"><a xlink:href="sd_info_test_8cpp.html#a840291bc02cba5474a4cb46a9b9566fe" target="_top" xlink:title="main">
<polygon fill="white" stroke="black" points="188.5,-38.5 188.5,-57.5 225.5,-57.5 225.5,-38.5 188.5,-38.5"/>
<text text-anchor="middle" x="207" y="-45.5" font-family="Helvetica,sans-Serif" font-size="10.00">main</text>
</a>
</g>
</g>
<!-- Node1&#45;&gt;Node2 -->
<g id="edge1" class="edge"><title>Node1&#45;&gt;Node2</title>
<path fill="none" stroke="midnightblue" d="M114.407,-36.6257C140.985,-39.9263 170.095,-43.5412 188.205,-45.7901"/>
<polygon fill="midnightblue" stroke="midnightblue" points="114.728,-33.1387 104.372,-35.3796 113.865,-40.0854 114.728,-33.1387"/>
</g>
<!-- Node3 -->
<g id="node3" class="node"><title>Node3</title>
<g id="a_node3"><a xlink:href="classsd_loader.html#a90eb4d4a140652fc18f7bc0551870020" target="_top" xlink:title="sdLoader::sceneFromJSON">
<polygon fill="white" stroke="black" points="140.5,-0.5 140.5,-19.5 273.5,-19.5 273.5,-0.5 140.5,-0.5"/>
<text text-anchor="middle" x="207" y="-7.5" font-family="Helvetica,sans-Serif" font-size="10.00">sdLoader::sceneFromJSON</text>
</a>
</g>
</g>
<!-- Node1&#45;&gt;Node3 -->
<g id="edge2" class="edge"><title>Node1&#45;&gt;Node3</title>
<path fill="none" stroke="midnightblue" d="M114.571,-21.354C123.06,-20.2998 131.804,-19.2139 140.363,-18.1511"/>
<polygon fill="midnightblue" stroke="midnightblue" points="113.865,-17.9146 104.372,-22.6204 114.728,-24.8613 113.865,-17.9146"/>
</g>
<!-- Node4 -->
<g id="node4" class="node"><title>Node4</title>
<g id="a_node4"><a xlink:href="sd_loader_test_8cpp.html#a840291bc02cba5474a4cb46a9b9566fe" target="_top" xlink:title="main">
<polygon fill="white" stroke="black" points="310.5,-0.5 310.5,-19.5 347.5,-19.5 347.5,-0.5 310.5,-0.5"/>
<text text-anchor="middle" x="329" y="-7.5" font-family="Helvetica,sans-Serif" font-size="10.00">main</text>
</a>
</g>
</g>
<!-- Node3&#45;&gt;Node4 -->
<g id="edge3" class="edge"><title>Node3&#45;&gt;Node4</title>
<path fill="none" stroke="midnightblue" d="M283.679,-10C293.579,-10 302.868,-10 310.358,-10"/>
<polygon fill="midnightblue" stroke="midnightblue" points="283.618,-6.5001 273.618,-10 283.618,-13.5001 283.618,-6.5001"/>
</g>
</g>
</svg>
