<?xml version="1.0" encoding="UTF-8" standalone="no"?>
<!DOCTYPE svg PUBLIC "-//W3C//DTD SVG 1.1//EN"
 "http://www.w3.org/Graphics/SVG/1.1/DTD/svg11.dtd">
<!-- Generated by graphviz version 2.34.0 (20131206.1153)
 -->
<!-- Title: sdEntity::removeEvent Pages: 1 -->
<svg width="430pt" height="87pt"
 viewBox="0.00 0.00 430.00 87.00" xmlns="http://www.w3.org/2000/svg" xmlns:xlink="http://www.w3.org/1999/xlink">
<g id="graph0" class="graph" transform="scale(1 1) rotate(0) translate(4 83)">
<title>sdEntity::removeEvent</title>
<polygon fill="white" stroke="white" points="-4,4 -4,-83 426,-83 426,4 -4,4"/>
<!-- Node1 -->
<g id="node1" class="node"><title>Node1</title>
<polygon fill="#bfbfbf" stroke="black" points="0,-29.5 0,-48.5 110,-48.5 110,-29.5 0,-29.5"/>
<text text-anchor="middle" x="55" y="-36.5" font-family="Helvetica,sans-Serif" font-size="10.00">sdEntity::removeEvent</text>
</g>
<!-- Node2 -->
<g id="node2" class="node"><title>Node2</title>
<g id="a_node2"><a xlink:href="classsd_entity_extension_media.html#ac32a1b4626b46d063537a4bd4503b565" target="_top" xlink:title="sdEntityExtensionMedia\l::addEvent">
<polygon fill="white" stroke="black" points="146.5,-49 146.5,-79 265.5,-79 265.5,-49 146.5,-49"/>
<text text-anchor="start" x="154.5" y="-67" font-family="Helvetica,sans-Serif" font-size="10.00">sdEntityExtensionMedia</text>
<text text-anchor="middle" x="206" y="-56" font-family="Helvetica,sans-Serif" font-size="10.00">::addEvent</text>
</a>
</g>
</g>
<!-- Node1&#45;&gt;Node2 -->
<g id="edge1" class="edge"><title>Node1&#45;&gt;Node2</title>
<path fill="none" stroke="midnightblue" d="M120.257,-49.7814C128.91,-51.2332 137.751,-52.7166 146.301,-54.1512"/>
<polygon fill="midnightblue" stroke="midnightblue" points="120.655,-46.2993 110.214,-48.0963 119.497,-53.2028 120.655,-46.2993"/>
</g>
<!-- Node3 -->
<g id="node3" class="node"><title>Node3</title>
<g id="a_node3"><a xlink:href="classsd_entity_extension_media.html#aac62ba87baf7db292f61b883a11b6179" target="_top" xlink:title="sdEntityExtensionMedia\l::removeEvent">
<polygon fill="white" stroke="black" points="146.5,-0 146.5,-30 265.5,-30 265.5,-0 146.5,-0"/>
<text text-anchor="start" x="154.5" y="-18" font-family="Helvetica,sans-Serif" font-size="10.00">sdEntityExtensionMedia</text>
<text text-anchor="middle" x="206" y="-7" font-family="Helvetica,sans-Serif" font-size="10.00">::removeEvent</text>
</a>
</g>
</g>
<!-- Node1&#45;&gt;Node3 -->
<g id="edge2" class="edge"><title>Node1&#45;&gt;Node3</title>
<path fill="none" stroke="midnightblue" d="M120.257,-28.6499C128.91,-27.2561 137.751,-25.8321 146.301,-24.4549"/>
<polygon fill="midnightblue" stroke="midnightblue" points="119.53,-25.2218 110.214,-30.2676 120.643,-32.1327 119.53,-25.2218"/>
</g>
<!-- Node4 -->
<g id="node4" class="node"><title>Node4</title>
<g id="a_node4"><a xlink:href="classsd_entity_extension_media.html#a9ba0b7a1faabea9756f32ea7c7b283a2" target="_top" xlink:title="sdEntityExtensionMedia\l::addEvent">
<polygon fill="white" stroke="black" points="302.5,-0 302.5,-30 421.5,-30 421.5,-0 302.5,-0"/>
<text text-anchor="start" x="310.5" y="-18" font-family="Helvetica,sans-Serif" font-size="10.00">sdEntityExtensionMedia</text>
<text text-anchor="middle" x="362" y="-7" font-family="Helvetica,sans-Serif" font-size="10.00">::addEvent</text>
</a>
</g>
</g>
<!-- Node3&#45;&gt;Node4 -->
<g id="edge3" class="edge"><title>Node3&#45;&gt;Node4</title>
<path fill="none" stroke="midnightblue" d="M275.894,-15C284.691,-15 293.631,-15 302.248,-15"/>
<polygon fill="midnightblue" stroke="midnightblue" points="275.66,-11.5001 265.66,-15 275.66,-18.5001 275.66,-11.5001"/>
</g>
</g>
</svg>
