<?xml version="1.0" encoding="UTF-8" standalone="no"?>
<!DOCTYPE svg PUBLIC "-//W3C//DTD SVG 1.1//EN"
 "http://www.w3.org/Graphics/SVG/1.1/DTD/svg11.dtd">
<!-- Generated by graphviz version 2.34.0 (20131206.1153)
 -->
<!-- Title: sdScene::getValue Pages: 1 -->
<svg width="512pt" height="66pt"
 viewBox="0.00 0.00 512.00 66.00" xmlns="http://www.w3.org/2000/svg" xmlns:xlink="http://www.w3.org/1999/xlink">
<g id="graph0" class="graph" transform="scale(1 1) rotate(0) translate(4 62)">
<title>sdScene::getValue</title>
<polygon fill="white" stroke="white" points="-4,4 -4,-62 508,-62 508,4 -4,4"/>
<!-- Node1 -->
<g id="node1" class="node"><title>Node1</title>
<polygon fill="#bfbfbf" stroke="black" points="0,-19.5 0,-38.5 96,-38.5 96,-19.5 0,-19.5"/>
<text text-anchor="middle" x="48" y="-26.5" font-family="Helvetica,sans-Serif" font-size="10.00">sdScene::getValue</text>
</g>
<!-- Node2 -->
<g id="node2" class="node"><title>Node2</title>
<g id="a_node2"><a xlink:href="classsd_entity_core.html#a4cacb54fb3c38a23232ca89672b76c24" target="_top" xlink:title="sdEntityCore::getValue">
<polygon fill="white" stroke="black" points="132.5,-19.5 132.5,-38.5 245.5,-38.5 245.5,-19.5 132.5,-19.5"/>
<text text-anchor="middle" x="189" y="-26.5" font-family="Helvetica,sans-Serif" font-size="10.00">sdEntityCore::getValue</text>
</a>
</g>
</g>
<!-- Node1&#45;&gt;Node2 -->
<g id="edge1" class="edge"><title>Node1&#45;&gt;Node2</title>
<path fill="none" stroke="midnightblue" d="M96.0591,-29C104.437,-29 113.303,-29 122.091,-29"/>
<polygon fill="midnightblue" stroke="midnightblue" points="122.339,-32.5001 132.339,-29 122.339,-25.5001 122.339,-32.5001"/>
</g>
<!-- Node3 -->
<g id="node3" class="node"><title>Node3</title>
<g id="a_node3"><a xlink:href="classsd_entity.html#a10bfcf57477433b546f92b4f75a7c74e" target="_top" xlink:title="sdEntity::getValue">
<polygon fill="white" stroke="black" points="282,-19.5 282,-38.5 374,-38.5 374,-19.5 282,-19.5"/>
<text text-anchor="middle" x="328" y="-26.5" font-family="Helvetica,sans-Serif" font-size="10.00">sdEntity::getValue</text>
</a>
</g>
</g>
<!-- Node2&#45;&gt;Node3 -->
<g id="edge2" class="edge"><title>Node2&#45;&gt;Node3</title>
<path fill="none" stroke="midnightblue" d="M245.723,-29C254.255,-29 263.061,-29 271.587,-29"/>
<polygon fill="midnightblue" stroke="midnightblue" points="271.809,-32.5001 281.809,-29 271.809,-25.5001 271.809,-32.5001"/>
</g>
<!-- Node4 -->
<g id="node4" class="node"><title>Node4</title>
<g id="a_node4"><a xlink:href="classsd_entity.html#ac114c94bfc707b913ca8c8fa40cd1dd3" target="_top" xlink:title="sdEntity::getEvent">
<polygon fill="white" stroke="black" points="411,-38.5 411,-57.5 503,-57.5 503,-38.5 411,-38.5"/>
<text text-anchor="middle" x="457" y="-45.5" font-family="Helvetica,sans-Serif" font-size="10.00">sdEntity::getEvent</text>
</a>
</g>
</g>
<!-- Node3&#45;&gt;Node4 -->
<g id="edge3" class="edge"><title>Node3&#45;&gt;Node4</title>
<path fill="none" stroke="midnightblue" d="M374.133,-35.7522C382.64,-37.0248 391.627,-38.3694 400.41,-39.6833"/>
<polygon fill="midnightblue" stroke="midnightblue" points="400.177,-43.1873 410.584,-41.2055 401.212,-36.2644 400.177,-43.1873"/>
</g>
<!-- Node5 -->
<g id="node5" class="node"><title>Node5</title>
<g id="a_node5"><a xlink:href="classsd_event.html#adba2ca29642bd8d730dfdc3acadeeb00" target="_top" xlink:title="sdEvent::getValue">
<polygon fill="white" stroke="black" points="410,-0.5 410,-19.5 504,-19.5 504,-0.5 410,-0.5"/>
<text text-anchor="middle" x="457" y="-7.5" font-family="Helvetica,sans-Serif" font-size="10.00">sdEvent::getValue</text>
</a>
</g>
</g>
<!-- Node3&#45;&gt;Node5 -->
<g id="edge4" class="edge"><title>Node3&#45;&gt;Node5</title>
<path fill="none" stroke="midnightblue" d="M374.133,-22.2478C382.435,-21.0059 391.194,-19.6953 399.774,-18.4117"/>
<polygon fill="midnightblue" stroke="midnightblue" points="400.354,-21.864 409.726,-16.9228 399.318,-14.9411 400.354,-21.864"/>
</g>
</g>
</svg>
