<?xml version="1.0" encoding="UTF-8" standalone="no"?>
<!DOCTYPE svg PUBLIC "-//W3C//DTD SVG 1.1//EN"
 "http://www.w3.org/Graphics/SVG/1.1/DTD/svg11.dtd">
<!-- Generated by graphviz version 2.34.0 (20131206.1153)
 -->
<!-- Title: sdEntityExtensionMedia::removeEvent Pages: 1 -->
<svg width="396pt" height="104pt"
 viewBox="0.00 0.00 396.00 104.00" xmlns="http://www.w3.org/2000/svg" xmlns:xlink="http://www.w3.org/1999/xlink">
<g id="graph0" class="graph" transform="scale(1 1) rotate(0) translate(4 100)">
<title>sdEntityExtensionMedia::removeEvent</title>
<polygon fill="white" stroke="white" points="-4,4 -4,-100 392,-100 392,4 -4,4"/>
<!-- Node1 -->
<g id="node1" class="node"><title>Node1</title>
<polygon fill="#bfbfbf" stroke="black" points="0.5,-33 0.5,-63 119.5,-63 119.5,-33 0.5,-33"/>
<text text-anchor="start" x="8.5" y="-51" font-family="Helvetica,sans-Serif" font-size="10.00">sdEntityExtensionMedia</text>
<text text-anchor="middle" x="60" y="-40" font-family="Helvetica,sans-Serif" font-size="10.00">::removeEvent</text>
</g>
<!-- Node2 -->
<g id="node2" class="node"><title>Node2</title>
<g id="a_node2"><a xlink:href="sd_const_8h.html#a5f06f639581e8f36cbc9d51e53eee915" target="_top" xlink:title="stringToDescriptor">
<polygon fill="white" stroke="black" points="165.5,-76.5 165.5,-95.5 256.5,-95.5 256.5,-76.5 165.5,-76.5"/>
<text text-anchor="middle" x="211" y="-83.5" font-family="Helvetica,sans-Serif" font-size="10.00">stringToDescriptor</text>
</a>
</g>
</g>
<!-- Node1&#45;&gt;Node2 -->
<g id="edge1" class="edge"><title>Node1&#45;&gt;Node2</title>
<path fill="none" stroke="midnightblue" d="M119.889,-63.0186C134.02,-66.6225 148.935,-70.4264 162.476,-73.8798"/>
<polygon fill="midnightblue" stroke="midnightblue" points="161.972,-77.3633 172.527,-76.4432 163.702,-70.5804 161.972,-77.3633"/>
</g>
<!-- Node3 -->
<g id="node3" class="node"><title>Node3</title>
<g id="a_node3"><a xlink:href="classsd_entity.html#af2f4241b73bd8d4322b01b7df060f9b4" target="_top" xlink:title="sdEntity::removeEvent">
<polygon fill="white" stroke="black" points="156,-38.5 156,-57.5 266,-57.5 266,-38.5 156,-38.5"/>
<text text-anchor="middle" x="211" y="-45.5" font-family="Helvetica,sans-Serif" font-size="10.00">sdEntity::removeEvent</text>
</a>
</g>
</g>
<!-- Node1&#45;&gt;Node3 -->
<g id="edge2" class="edge"><title>Node1&#45;&gt;Node3</title>
<path fill="none" stroke="midnightblue" d="M119.889,-48C128.425,-48 137.247,-48 145.88,-48"/>
<polygon fill="midnightblue" stroke="midnightblue" points="145.898,-51.5001 155.898,-48 145.898,-44.5001 145.898,-51.5001"/>
</g>
<!-- Node4 -->
<g id="node4" class="node"><title>Node4</title>
<g id="a_node4"><a xlink:href="sd_const_8h.html#a7e564ec0266d67f518a0b0f80f17e203" target="_top" xlink:title="stringToDouble">
<polygon fill="white" stroke="black" points="171,-0.5 171,-19.5 251,-19.5 251,-0.5 171,-0.5"/>
<text text-anchor="middle" x="211" y="-7.5" font-family="Helvetica,sans-Serif" font-size="10.00">stringToDouble</text>
</a>
</g>
</g>
<!-- Node1&#45;&gt;Node4 -->
<g id="edge3" class="edge"><title>Node1&#45;&gt;Node4</title>
<path fill="none" stroke="midnightblue" d="M119.889,-32.9814C134.02,-29.3775 148.935,-25.5736 162.476,-22.1202"/>
<polygon fill="midnightblue" stroke="midnightblue" points="163.702,-25.4196 172.527,-19.5568 161.972,-18.6367 163.702,-25.4196"/>
</g>
<!-- Node5 -->
<g id="node5" class="node"><title>Node5</title>
<g id="a_node5"><a xlink:href="sd_const_8h.html#ae7ae4ebb27c32496c48bac787cc5bcf7" target="_top" xlink:title="stringToDoubles">
<polygon fill="white" stroke="black" points="302.5,-0.5 302.5,-19.5 387.5,-19.5 387.5,-0.5 302.5,-0.5"/>
<text text-anchor="middle" x="345" y="-7.5" font-family="Helvetica,sans-Serif" font-size="10.00">stringToDoubles</text>
</a>
</g>
</g>
<!-- Node4&#45;&gt;Node5 -->
<g id="edge4" class="edge"><title>Node4&#45;&gt;Node5</title>
<path fill="none" stroke="midnightblue" d="M251.247,-10C264.086,-10 278.55,-10 292.169,-10"/>
<polygon fill="midnightblue" stroke="midnightblue" points="292.379,-13.5001 302.379,-10 292.379,-6.5001 292.379,-13.5001"/>
</g>
</g>
</svg>
