<?xml version="1.0" encoding="UTF-8" standalone="no"?>
<!DOCTYPE svg PUBLIC "-//W3C//DTD SVG 1.1//EN"
 "http://www.w3.org/Graphics/SVG/1.1/DTD/svg11.dtd">
<!-- Generated by graphviz version 2.34.0 (20131206.1153)
 -->
<!-- Title: Graphical Class Hierarchy Pages: 1 -->
<svg width="216pt" height="66pt"
 viewBox="0.00 0.00 216.00 66.00" xmlns="http://www.w3.org/2000/svg" xmlns:xlink="http://www.w3.org/1999/xlink">
<g id="graph0" class="graph" transform="scale(1 1) rotate(0) translate(4 62)">
<title>Graphical Class Hierarchy</title>
<polygon fill="white" stroke="white" points="-4,4 -4,-62 212,-62 212,4 -4,4"/>
<!-- Node1 -->
<g id="node1" class="node"><title>Node1</title>
<g id="a_node1"><a xlink:href="classsd_event.html" target="_top" xlink:title="sdEvent">
<polygon fill="white" stroke="black" points="0,-19.5 0,-38.5 52,-38.5 52,-19.5 0,-19.5"/>
<text text-anchor="middle" x="26" y="-26.5" font-family="Helvetica,sans-Serif" font-size="10.00">sdEvent</text>
</a>
</g>
</g>
<!-- Node2 -->
<g id="node2" class="node"><title>Node2</title>
<g id="a_node2"><a xlink:href="classsd_event_core.html" target="_top" xlink:title="sdEventCore">
<polygon fill="white" stroke="black" points="112,-38.5 112,-57.5 184,-57.5 184,-38.5 112,-38.5"/>
<text text-anchor="middle" x="148" y="-45.5" font-family="Helvetica,sans-Serif" font-size="10.00">sdEventCore</text>
</a>
</g>
</g>
<!-- Node1&#45;&gt;Node2 -->
<g id="edge1" class="edge"><title>Node1&#45;&gt;Node2</title>
<path fill="none" stroke="midnightblue" d="M62.4569,-34.614C78.0481,-37.0826 96.3108,-39.9742 111.865,-42.437"/>
<polygon fill="midnightblue" stroke="midnightblue" points="62.5803,-31.09 52.1559,-32.983 61.4855,-38.0039 62.5803,-31.09"/>
</g>
<!-- Node3 -->
<g id="node3" class="node"><title>Node3</title>
<g id="a_node3"><a xlink:href="classsd_event_extension_media.html" target="_top" xlink:title="sdEventExtensionMedia">
<polygon fill="white" stroke="black" points="88,-0.5 88,-19.5 208,-19.5 208,-0.5 88,-0.5"/>
<text text-anchor="middle" x="148" y="-7.5" font-family="Helvetica,sans-Serif" font-size="10.00">sdEventExtensionMedia</text>
</a>
</g>
</g>
<!-- Node1&#45;&gt;Node3 -->
<g id="edge2" class="edge"><title>Node1&#45;&gt;Node3</title>
<path fill="none" stroke="midnightblue" d="M62.2429,-23.4199C70.2781,-22.1476 79.0316,-20.7617 87.7635,-19.3791"/>
<polygon fill="midnightblue" stroke="midnightblue" points="61.4855,-19.9961 52.1559,-25.017 62.5803,-26.91 61.4855,-19.9961"/>
</g>
</g>
</svg>
