<?xml version="1.0" encoding="UTF-8" standalone="no"?>
<!DOCTYPE svg PUBLIC "-//W3C//DTD SVG 1.1//EN"
 "http://www.w3.org/Graphics/SVG/1.1/DTD/svg11.dtd">
<!-- Generated by graphviz version 2.34.0 (20131206.1153)
 -->
<!-- Title: Graphical Class Hierarchy Pages: 1 -->
<svg width="342pt" height="66pt"
 viewBox="0.00 0.00 342.00 66.00" xmlns="http://www.w3.org/2000/svg" xmlns:xlink="http://www.w3.org/1999/xlink">
<g id="graph0" class="graph" transform="scale(1 1) rotate(0) translate(4 62)">
<title>Graphical Class Hierarchy</title>
<polygon fill="white" stroke="white" points="-4,4 -4,-62 338,-62 338,4 -4,4"/>
<!-- Node1 -->
<g id="node1" class="node"><title>Node1</title>
<g id="a_node1"><a xlink:href="classsd_entity.html" target="_top" xlink:title="sdEntity">
<polygon fill="white" stroke="black" points="0,-19.5 0,-38.5 50,-38.5 50,-19.5 0,-19.5"/>
<text text-anchor="middle" x="25" y="-26.5" font-family="Helvetica,sans-Serif" font-size="10.00">sdEntity</text>
</a>
</g>
</g>
<!-- Node2 -->
<g id="node2" class="node"><title>Node2</title>
<g id="a_node2"><a xlink:href="classsd_entity_core.html" target="_top" xlink:title="sdEntityCore">
<polygon fill="white" stroke="black" points="96.5,-38.5 96.5,-57.5 167.5,-57.5 167.5,-38.5 96.5,-38.5"/>
<text text-anchor="middle" x="132" y="-45.5" font-family="Helvetica,sans-Serif" font-size="10.00">sdEntityCore</text>
</a>
</g>
</g>
<!-- Node1&#45;&gt;Node2 -->
<g id="edge1" class="edge"><title>Node1&#45;&gt;Node2</title>
<path fill="none" stroke="midnightblue" d="M60.2413,-35.196C71.7911,-37.286 84.6877,-39.6197 96.2746,-41.7164"/>
<polygon fill="midnightblue" stroke="midnightblue" points="60.5526,-31.6956 50.0891,-33.359 59.3061,-38.5837 60.5526,-31.6956"/>
</g>
<!-- Node3 -->
<g id="node3" class="node"><title>Node3</title>
<g id="a_node3"><a xlink:href="classsd_entity_extension.html" target="_top" xlink:title="sdEntityExtension">
<polygon fill="white" stroke="black" points="86,-0.5 86,-19.5 178,-19.5 178,-0.5 86,-0.5"/>
<text text-anchor="middle" x="132" y="-7.5" font-family="Helvetica,sans-Serif" font-size="10.00">sdEntityExtension</text>
</a>
</g>
</g>
<!-- Node1&#45;&gt;Node3 -->
<g id="edge2" class="edge"><title>Node1&#45;&gt;Node3</title>
<path fill="none" stroke="midnightblue" d="M60.0974,-22.83C68.3497,-21.3367 77.2965,-19.7178 85.966,-18.149"/>
<polygon fill="midnightblue" stroke="midnightblue" points="59.3061,-19.4163 50.0891,-24.641 60.5526,-26.3044 59.3061,-19.4163"/>
</g>
<!-- Node4 -->
<g id="node4" class="node"><title>Node4</title>
<g id="a_node4"><a xlink:href="classsd_entity_extension_media.html" target="_top" xlink:title="sdEntityExtensionMedia">
<polygon fill="white" stroke="black" points="214.5,-0.5 214.5,-19.5 333.5,-19.5 333.5,-0.5 214.5,-0.5"/>
<text text-anchor="middle" x="274" y="-7.5" font-family="Helvetica,sans-Serif" font-size="10.00">sdEntityExtensionMedia</text>
</a>
</g>
</g>
<!-- Node3&#45;&gt;Node4 -->
<g id="edge3" class="edge"><title>Node3&#45;&gt;Node4</title>
<path fill="none" stroke="midnightblue" d="M188.345,-10C196.926,-10 205.814,-10 214.462,-10"/>
<polygon fill="midnightblue" stroke="midnightblue" points="188.068,-6.5001 178.068,-10 188.067,-13.5001 188.068,-6.5001"/>
</g>
</g>
</svg>
