<?xml version="1.0" encoding="UTF-8" standalone="no"?>
<!DOCTYPE svg PUBLIC "-//W3C//DTD SVG 1.1//EN"
 "http://www.w3.org/Graphics/SVG/1.1/DTD/svg11.dtd">
<!-- Generated by graphviz version 2.34.0 (20131206.1153)
 -->
<!-- Title: doubleToString Pages: 1 -->
<svg width="482pt" height="154pt"
 viewBox="0.00 0.00 482.00 154.00" xmlns="http://www.w3.org/2000/svg" xmlns:xlink="http://www.w3.org/1999/xlink">
<g id="graph0" class="graph" transform="scale(1 1) rotate(0) translate(4 150)">
<title>doubleToString</title>
<polygon fill="white" stroke="white" points="-4,4 -4,-150 478,-150 478,4 -4,4"/>
<!-- Node1 -->
<g id="node1" class="node"><title>Node1</title>
<polygon fill="#bfbfbf" stroke="black" points="0.5,-66.5 0.5,-85.5 79.5,-85.5 79.5,-66.5 0.5,-66.5"/>
<text text-anchor="middle" x="40" y="-73.5" font-family="Helvetica,sans-Serif" font-size="10.00">doubleToString</text>
</g>
<!-- Node2 -->
<g id="node2" class="node"><title>Node2</title>
<g id="a_node2"><a xlink:href="sd_converter_8cpp.html#a840291bc02cba5474a4cb46a9b9566fe" target="_top" xlink:title="main">
<polygon fill="white" stroke="black" points="179.5,-126.5 179.5,-145.5 216.5,-145.5 216.5,-126.5 179.5,-126.5"/>
<text text-anchor="middle" x="198" y="-133.5" font-family="Helvetica,sans-Serif" font-size="10.00">main</text>
</a>
</g>
</g>
<!-- Node1&#45;&gt;Node2 -->
<g id="edge1" class="edge"><title>Node1&#45;&gt;Node2</title>
<path fill="none" stroke="midnightblue" d="M64.384,-90.9252C78.7969,-99.5735 97.9224,-110.085 116,-117 137.046,-125.05 162.52,-130.345 179.211,-133.253"/>
<polygon fill="midnightblue" stroke="midnightblue" points="66.0055,-87.8138 55.6515,-85.5676 62.3449,-93.7804 66.0055,-87.8138"/>
</g>
<!-- Node3 -->
<g id="node3" class="node"><title>Node3</title>
<g id="a_node3"><a xlink:href="classsd_event.html#a43dc0ffb37fdf843cc8bd3888dd7289f" target="_top" xlink:title="sdEvent::getTimeAsString">
<polygon fill="white" stroke="black" points="136,-88.5 136,-107.5 260,-107.5 260,-88.5 136,-88.5"/>
<text text-anchor="middle" x="198" y="-95.5" font-family="Helvetica,sans-Serif" font-size="10.00">sdEvent::getTimeAsString</text>
</a>
</g>
</g>
<!-- Node1&#45;&gt;Node3 -->
<g id="edge2" class="edge"><title>Node1&#45;&gt;Node3</title>
<path fill="none" stroke="midnightblue" d="M89.8518,-82.8894C104.417,-84.9434 120.565,-87.2207 135.813,-89.3711"/>
<polygon fill="midnightblue" stroke="midnightblue" points="89.9526,-79.369 79.5618,-81.4382 88.975,-86.3004 89.9526,-79.369"/>
</g>
<!-- Node7 -->
<g id="node7" class="node"><title>Node7</title>
<g id="a_node7"><a xlink:href="classsd_event_extension_media.html#a649915acca0bba19994f851caf9592a5" target="_top" xlink:title="sdEventExtensionMedia\l::getValueAsString">
<polygon fill="white" stroke="black" points="138,-39 138,-69 258,-69 258,-39 138,-39"/>
<text text-anchor="start" x="146" y="-57" font-family="Helvetica,sans-Serif" font-size="10.00">sdEventExtensionMedia</text>
<text text-anchor="middle" x="198" y="-46" font-family="Helvetica,sans-Serif" font-size="10.00">::getValueAsString</text>
</a>
</g>
</g>
<!-- Node1&#45;&gt;Node7 -->
<g id="edge6" class="edge"><title>Node1&#45;&gt;Node7</title>
<path fill="none" stroke="midnightblue" d="M89.8067,-69.117C105.057,-66.9663 122.047,-64.5703 137.924,-62.3312"/>
<polygon fill="midnightblue" stroke="midnightblue" points="88.975,-65.6996 79.5618,-70.5618 89.9526,-72.631 88.975,-65.6996"/>
</g>
<!-- Node8 -->
<g id="node8" class="node"><title>Node8</title>
<g id="a_node8"><a xlink:href="classsd_o_s_c_responder.html#a832f0b4b90505071642911841b5adc07" target="_top" xlink:title="sdOSCResponder::setCurrentTime">
<polygon fill="white" stroke="black" points="116,-0.5 116,-19.5 280,-19.5 280,-0.5 116,-0.5"/>
<text text-anchor="middle" x="198" y="-7.5" font-family="Helvetica,sans-Serif" font-size="10.00">sdOSCResponder::setCurrentTime</text>
</a>
</g>
</g>
<!-- Node1&#45;&gt;Node8 -->
<g id="edge7" class="edge"><title>Node1&#45;&gt;Node8</title>
<path fill="none" stroke="midnightblue" d="M62.151,-60.5773C76.6775,-50.6145 96.7446,-38.0531 116,-30 126.022,-25.8084 137.125,-22.3562 147.814,-19.5699"/>
<polygon fill="midnightblue" stroke="midnightblue" points="60.0547,-57.7725 53.8789,-66.3812 64.0753,-63.5027 60.0547,-57.7725"/>
</g>
<!-- Node4 -->
<g id="node4" class="node"><title>Node4</title>
<g id="a_node4"><a xlink:href="_how__to__query_8cpp.html#a840291bc02cba5474a4cb46a9b9566fe" target="_top" xlink:title="main">
<polygon fill="white" stroke="black" points="339.5,-107.5 339.5,-126.5 376.5,-126.5 376.5,-107.5 339.5,-107.5"/>
<text text-anchor="middle" x="358" y="-114.5" font-family="Helvetica,sans-Serif" font-size="10.00">main</text>
</a>
</g>
</g>
<!-- Node3&#45;&gt;Node4 -->
<g id="edge3" class="edge"><title>Node3&#45;&gt;Node4</title>
<path fill="none" stroke="midnightblue" d="M270.21,-106.563C295.841,-109.645 322.576,-112.86 339.483,-114.894"/>
<polygon fill="midnightblue" stroke="midnightblue" points="270.433,-103.065 260.087,-105.346 269.597,-110.015 270.433,-103.065"/>
</g>
<!-- Node5 -->
<g id="node5" class="node"><title>Node5</title>
<g id="a_node5"><a xlink:href="classsd_scene.html#a1e61037274d374f8ab33e347fde8b65b" target="_top" xlink:title="sdScene::dump">
<polygon fill="white" stroke="black" points="316.5,-69.5 316.5,-88.5 399.5,-88.5 399.5,-69.5 316.5,-69.5"/>
<text text-anchor="middle" x="358" y="-76.5" font-family="Helvetica,sans-Serif" font-size="10.00">sdScene::dump</text>
</a>
</g>
</g>
<!-- Node3&#45;&gt;Node5 -->
<g id="edge4" class="edge"><title>Node3&#45;&gt;Node5</title>
<path fill="none" stroke="midnightblue" d="M270.31,-89.4248C285.995,-87.5385 302.089,-85.6032 316.086,-83.92"/>
<polygon fill="midnightblue" stroke="midnightblue" points="269.597,-85.9851 260.087,-90.6541 270.433,-92.9351 269.597,-85.9851"/>
</g>
<!-- Node6 -->
<g id="node6" class="node"><title>Node6</title>
<g id="a_node6"><a xlink:href="sd_saver_test_8cpp.html#a840291bc02cba5474a4cb46a9b9566fe" target="_top" xlink:title="main">
<polygon fill="white" stroke="black" points="436.5,-69.5 436.5,-88.5 473.5,-88.5 473.5,-69.5 436.5,-69.5"/>
<text text-anchor="middle" x="455" y="-76.5" font-family="Helvetica,sans-Serif" font-size="10.00">main</text>
</a>
</g>
</g>
<!-- Node5&#45;&gt;Node6 -->
<g id="edge5" class="edge"><title>Node5&#45;&gt;Node6</title>
<path fill="none" stroke="midnightblue" d="M409.621,-79C419.277,-79 428.76,-79 436.465,-79"/>
<polygon fill="midnightblue" stroke="midnightblue" points="409.564,-75.5001 399.564,-79 409.564,-82.5001 409.564,-75.5001"/>
</g>
</g>
</svg>
