<?xml version="1.0" encoding="UTF-8" standalone="no"?>
<!DOCTYPE svg PUBLIC "-//W3C//DTD SVG 1.1//EN"
 "http://www.w3.org/Graphics/SVG/1.1/DTD/svg11.dtd">
<!-- Generated by graphviz version 2.34.0 (20131206.1153)
 -->
<!-- Title: stringToExtension Pages: 1 -->
<svg width="268pt" height="66pt"
 viewBox="0.00 0.00 268.00 66.00" xmlns="http://www.w3.org/2000/svg" xmlns:xlink="http://www.w3.org/1999/xlink">
<g id="graph0" class="graph" transform="scale(1 1) rotate(0) translate(4 62)">
<title>stringToExtension</title>
<polygon fill="white" stroke="white" points="-4,4 -4,-62 264,-62 264,4 -4,4"/>
<!-- Node1 -->
<g id="node1" class="node"><title>Node1</title>
<polygon fill="#bfbfbf" stroke="black" points="0.5,-19.5 0.5,-38.5 91.5,-38.5 91.5,-19.5 0.5,-19.5"/>
<text text-anchor="middle" x="46" y="-26.5" font-family="Helvetica,sans-Serif" font-size="10.00">stringToExtension</text>
</g>
<!-- Node2 -->
<g id="node2" class="node"><title>Node2</title>
<g id="a_node2"><a xlink:href="classsd_scene.html#aa768ecbcad8eaa8eb23ef7909c397787" target="_top" xlink:title="sdScene::addExtension">
<polygon fill="white" stroke="black" points="135.5,-38.5 135.5,-57.5 252.5,-57.5 252.5,-38.5 135.5,-38.5"/>
<text text-anchor="middle" x="194" y="-45.5" font-family="Helvetica,sans-Serif" font-size="10.00">sdScene::addExtension</text>
</a>
</g>
</g>
<!-- Node1&#45;&gt;Node2 -->
<g id="edge1" class="edge"><title>Node1&#45;&gt;Node2</title>
<path fill="none" stroke="midnightblue" d="M101.561,-36.1004C112.629,-37.5408 124.303,-39.06 135.471,-40.5133"/>
<polygon fill="midnightblue" stroke="midnightblue" points="101.966,-32.6237 91.5981,-34.8039 101.063,-39.5652 101.966,-32.6237"/>
</g>
<!-- Node3 -->
<g id="node3" class="node"><title>Node3</title>
<g id="a_node3"><a xlink:href="classsd_scene.html#aaafcf3c990023f0766a9bc8091c4af7e" target="_top" xlink:title="sdScene::removeExtension">
<polygon fill="white" stroke="black" points="128.5,-0.5 128.5,-19.5 259.5,-19.5 259.5,-0.5 128.5,-0.5"/>
<text text-anchor="middle" x="194" y="-7.5" font-family="Helvetica,sans-Serif" font-size="10.00">sdScene::removeExtension</text>
</a>
</g>
</g>
<!-- Node1&#45;&gt;Node3 -->
<g id="edge2" class="edge"><title>Node1&#45;&gt;Node3</title>
<path fill="none" stroke="midnightblue" d="M101.598,-21.8948C110.29,-20.7637 119.353,-19.5841 128.252,-18.4262"/>
<polygon fill="midnightblue" stroke="midnightblue" points="101.063,-18.4348 91.5981,-23.1961 101.966,-25.3763 101.063,-18.4348"/>
</g>
</g>
</svg>
