<?xml version="1.0" encoding="UTF-8" standalone="no"?>
<!DOCTYPE svg PUBLIC "-//W3C//DTD SVG 1.1//EN"
 "http://www.w3.org/Graphics/SVG/1.1/DTD/svg11.dtd">
<!-- Generated by graphviz version 2.34.0 (20131206.1153)
 -->
<!-- Title: descriptorToString Pages: 1 -->
<svg width="460pt" height="87pt"
 viewBox="0.00 0.00 460.00 87.00" xmlns="http://www.w3.org/2000/svg" xmlns:xlink="http://www.w3.org/1999/xlink">
<g id="graph0" class="graph" transform="scale(1 1) rotate(0) translate(4 83)">
<title>descriptorToString</title>
<polygon fill="white" stroke="white" points="-4,4 -4,-83 456,-83 456,4 -4,4"/>
<!-- Node1 -->
<g id="node1" class="node"><title>Node1</title>
<polygon fill="#bfbfbf" stroke="black" points="0,-29.5 0,-48.5 90,-48.5 90,-29.5 0,-29.5"/>
<text text-anchor="middle" x="45" y="-36.5" font-family="Helvetica,sans-Serif" font-size="10.00">descriptorToString</text>
</g>
<!-- Node2 -->
<g id="node2" class="node"><title>Node2</title>
<g id="a_node2"><a xlink:href="classsd_event_core.html#a01cc217ba7619c011978356980fd2381" target="_top" xlink:title="sdEventCore::getDescriptor\lAsString">
<polygon fill="white" stroke="black" points="126.5,-49 126.5,-79 257.5,-79 257.5,-49 126.5,-49"/>
<text text-anchor="start" x="134.5" y="-67" font-family="Helvetica,sans-Serif" font-size="10.00">sdEventCore::getDescriptor</text>
<text text-anchor="middle" x="192" y="-56" font-family="Helvetica,sans-Serif" font-size="10.00">AsString</text>
</a>
</g>
</g>
<!-- Node1&#45;&gt;Node2 -->
<g id="edge1" class="edge"><title>Node1&#45;&gt;Node2</title>
<path fill="none" stroke="midnightblue" d="M100.151,-48.3363C108.718,-49.8134 117.651,-51.3537 126.428,-52.8669"/>
<polygon fill="midnightblue" stroke="midnightblue" points="100.742,-44.8867 90.2927,-46.6367 99.5526,-51.7849 100.742,-44.8867"/>
</g>
<!-- Node5 -->
<g id="node5" class="node"><title>Node5</title>
<g id="a_node5"><a xlink:href="classsd_event_extension_media.html#aca21faf9ceebab82361ab7d0965f2c57" target="_top" xlink:title="sdEventExtensionMedia\l::getDescriptorAsString">
<polygon fill="white" stroke="black" points="132,-0 132,-30 252,-30 252,-0 132,-0"/>
<text text-anchor="start" x="140" y="-18" font-family="Helvetica,sans-Serif" font-size="10.00">sdEventExtensionMedia</text>
<text text-anchor="middle" x="192" y="-7" font-family="Helvetica,sans-Serif" font-size="10.00">::getDescriptorAsString</text>
</a>
</g>
</g>
<!-- Node1&#45;&gt;Node5 -->
<g id="edge4" class="edge"><title>Node1&#45;&gt;Node5</title>
<path fill="none" stroke="midnightblue" d="M100.338,-30.0061C110.59,-28.3093 121.359,-26.5268 131.752,-24.8066"/>
<polygon fill="midnightblue" stroke="midnightblue" points="99.5869,-26.5827 90.2927,-31.6688 100.73,-33.4888 99.5869,-26.5827"/>
</g>
<!-- Node3 -->
<g id="node3" class="node"><title>Node3</title>
<g id="a_node3"><a xlink:href="classsd_scene.html#a1e61037274d374f8ab33e347fde8b65b" target="_top" xlink:title="sdScene::dump">
<polygon fill="white" stroke="black" points="294.5,-54.5 294.5,-73.5 377.5,-73.5 377.5,-54.5 294.5,-54.5"/>
<text text-anchor="middle" x="336" y="-61.5" font-family="Helvetica,sans-Serif" font-size="10.00">sdScene::dump</text>
</a>
</g>
</g>
<!-- Node2&#45;&gt;Node3 -->
<g id="edge2" class="edge"><title>Node2&#45;&gt;Node3</title>
<path fill="none" stroke="midnightblue" d="M267.994,-64C277.047,-64 286.013,-64 294.301,-64"/>
<polygon fill="midnightblue" stroke="midnightblue" points="267.767,-60.5001 257.767,-64 267.767,-67.5001 267.767,-60.5001"/>
</g>
<!-- Node4 -->
<g id="node4" class="node"><title>Node4</title>
<g id="a_node4"><a xlink:href="sd_saver_test_8cpp.html#a840291bc02cba5474a4cb46a9b9566fe" target="_top" xlink:title="main">
<polygon fill="white" stroke="black" points="414.5,-54.5 414.5,-73.5 451.5,-73.5 451.5,-54.5 414.5,-54.5"/>
<text text-anchor="middle" x="433" y="-61.5" font-family="Helvetica,sans-Serif" font-size="10.00">main</text>
</a>
</g>
</g>
<!-- Node3&#45;&gt;Node4 -->
<g id="edge3" class="edge"><title>Node3&#45;&gt;Node4</title>
<path fill="none" stroke="midnightblue" d="M387.621,-64C397.277,-64 406.76,-64 414.465,-64"/>
<polygon fill="midnightblue" stroke="midnightblue" points="387.564,-60.5001 377.564,-64 387.564,-67.5001 387.564,-60.5001"/>
</g>
</g>
</svg>
