<?xml version="1.0" encoding="UTF-8" standalone="no"?>
<!DOCTYPE svg PUBLIC "-//W3C//DTD SVG 1.1//EN"
 "http://www.w3.org/Graphics/SVG/1.1/DTD/svg11.dtd">
<!-- Generated by graphviz version 2.34.0 (20131206.1153)
 -->
<!-- Title: boolToString Pages: 1 -->
<svg width="320pt" height="28pt"
 viewBox="0.00 0.00 320.00 28.00" xmlns="http://www.w3.org/2000/svg" xmlns:xlink="http://www.w3.org/1999/xlink">
<g id="graph0" class="graph" transform="scale(1 1) rotate(0) translate(4 24)">
<title>boolToString</title>
<polygon fill="white" stroke="white" points="-4,4 -4,-24 316,-24 316,4 -4,4"/>
<!-- Node1 -->
<g id="node1" class="node"><title>Node1</title>
<polygon fill="#bfbfbf" stroke="black" points="0,-0.5 0,-19.5 68,-19.5 68,-0.5 0,-0.5"/>
<text text-anchor="middle" x="34" y="-7.5" font-family="Helvetica,sans-Serif" font-size="10.00">boolToString</text>
</g>
<!-- Node2 -->
<g id="node2" class="node"><title>Node2</title>
<g id="a_node2"><a xlink:href="classsd_loader.html#a90eb4d4a140652fc18f7bc0551870020" target="_top" xlink:title="sdLoader::sceneFromJSON">
<polygon fill="white" stroke="black" points="104.5,-0.5 104.5,-19.5 237.5,-19.5 237.5,-0.5 104.5,-0.5"/>
<text text-anchor="middle" x="171" y="-7.5" font-family="Helvetica,sans-Serif" font-size="10.00">sdLoader::sceneFromJSON</text>
</a>
</g>
</g>
<!-- Node1&#45;&gt;Node2 -->
<g id="edge1" class="edge"><title>Node1&#45;&gt;Node2</title>
<path fill="none" stroke="midnightblue" d="M78.2234,-10C86.5514,-10 95.4482,-10 104.304,-10"/>
<polygon fill="midnightblue" stroke="midnightblue" points="78.0247,-6.5001 68.0247,-10 78.0247,-13.5001 78.0247,-6.5001"/>
</g>
<!-- Node3 -->
<g id="node3" class="node"><title>Node3</title>
<g id="a_node3"><a xlink:href="sd_loader_test_8cpp.html#a840291bc02cba5474a4cb46a9b9566fe" target="_top" xlink:title="main">
<polygon fill="white" stroke="black" points="274.5,-0.5 274.5,-19.5 311.5,-19.5 311.5,-0.5 274.5,-0.5"/>
<text text-anchor="middle" x="293" y="-7.5" font-family="Helvetica,sans-Serif" font-size="10.00">main</text>
</a>
</g>
</g>
<!-- Node2&#45;&gt;Node3 -->
<g id="edge2" class="edge"><title>Node2&#45;&gt;Node3</title>
<path fill="none" stroke="midnightblue" d="M247.679,-10C257.579,-10 266.868,-10 274.358,-10"/>
<polygon fill="midnightblue" stroke="midnightblue" points="247.618,-6.5001 237.618,-10 247.618,-13.5001 247.618,-6.5001"/>
</g>
</g>
</svg>
