<?xml version="1.0" encoding="UTF-8" standalone="no"?>
<!DOCTYPE svg PUBLIC "-//W3C//DTD SVG 1.1//EN"
 "http://www.w3.org/Graphics/SVG/1.1/DTD/svg11.dtd">
<!-- Generated by graphviz version 2.34.0 (20131206.1153)
 -->
<!-- Title: doublesToString Pages: 1 -->
<svg width="672pt" height="169pt"
 viewBox="0.00 0.00 672.00 169.11" xmlns="http://www.w3.org/2000/svg" xmlns:xlink="http://www.w3.org/1999/xlink">
<g id="graph0" class="graph" transform="scale(1 1) rotate(0) translate(4 165.114)">
<title>doublesToString</title>
<polygon fill="white" stroke="white" points="-4,4 -4,-165.114 668,-165.114 668,4 -4,4"/>
<!-- Node1 -->
<g id="node1" class="node"><title>Node1</title>
<polygon fill="#bfbfbf" stroke="black" points="0,-70.6139 0,-89.6139 84,-89.6139 84,-70.6139 0,-70.6139"/>
<text text-anchor="middle" x="42" y="-77.6139" font-family="Helvetica,sans-Serif" font-size="10.00">doublesToString</text>
</g>
<!-- Node2 -->
<g id="node2" class="node"><title>Node2</title>
<g id="a_node2"><a xlink:href="sd_converter_8cpp.html#a840291bc02cba5474a4cb46a9b9566fe" target="_top" xlink:title="main">
<polygon fill="white" stroke="black" points="369.5,-141.614 369.5,-160.614 406.5,-160.614 406.5,-141.614 369.5,-141.614"/>
<text text-anchor="middle" x="388" y="-148.614" font-family="Helvetica,sans-Serif" font-size="10.00">main</text>
</a>
</g>
</g>
<!-- Node1&#45;&gt;Node2 -->
<g id="edge1" class="edge"><title>Node1&#45;&gt;Node2</title>
<path fill="none" stroke="midnightblue" d="M89.8427,-92.0656C99.7777,-94.4901 110.218,-96.9559 120,-99.1139 213.616,-119.767 326.652,-140.363 369.444,-148.006"/>
<polygon fill="midnightblue" stroke="midnightblue" points="90.6665,-88.6639 80.1193,-89.6678 88.9905,-95.4603 90.6665,-88.6639"/>
</g>
<!-- Node3 -->
<g id="node3" class="node"><title>Node3</title>
<g id="a_node3"><a xlink:href="sd_const_8h.html#af6ea173327acc9bc1ed456517a81dc9f" target="_top" xlink:title="doubleToString">
<polygon fill="white" stroke="black" points="155.5,-70.6139 155.5,-89.6139 234.5,-89.6139 234.5,-70.6139 155.5,-70.6139"/>
<text text-anchor="middle" x="195" y="-77.6139" font-family="Helvetica,sans-Serif" font-size="10.00">doubleToString</text>
</a>
</g>
</g>
<!-- Node1&#45;&gt;Node3 -->
<g id="edge2" class="edge"><title>Node1&#45;&gt;Node3</title>
<path fill="none" stroke="midnightblue" d="M94.4347,-80.1139C114.391,-80.1139 136.852,-80.1139 155.383,-80.1139"/>
<polygon fill="midnightblue" stroke="midnightblue" points="94.2614,-76.614 84.2614,-80.1139 94.2614,-83.614 94.2614,-76.614"/>
</g>
<!-- Node10 -->
<g id="node10" class="node"><title>Node10</title>
<g id="a_node10"><a xlink:href="classsd_event_core.html#a90bb7c69858b3274ec6abc0c86ff818c" target="_top" xlink:title="sdEventCore::getValueAsString">
<polygon fill="white" stroke="black" points="120.5,-10.6139 120.5,-29.6139 269.5,-29.6139 269.5,-10.6139 120.5,-10.6139"/>
<text text-anchor="middle" x="195" y="-17.6139" font-family="Helvetica,sans-Serif" font-size="10.00">sdEventCore::getValueAsString</text>
</a>
</g>
</g>
<!-- Node1&#45;&gt;Node10 -->
<g id="edge10" class="edge"><title>Node1&#45;&gt;Node10</title>
<path fill="none" stroke="midnightblue" d="M76.4165,-66.8358C104.737,-55.5828 144.665,-39.7173 169.936,-29.6758"/>
<polygon fill="midnightblue" stroke="midnightblue" points="74.9272,-63.6614 66.9264,-70.6067 77.5121,-70.1666 74.9272,-63.6614"/>
</g>
<!-- Node3&#45;&gt;Node2 -->
<g id="edge3" class="edge"><title>Node3&#45;&gt;Node2</title>
<path fill="none" stroke="midnightblue" d="M222.417,-94.5461C244.294,-106.019 276.468,-121.8 306,-132.114 327.273,-139.543 352.698,-144.974 369.315,-148.082"/>
<polygon fill="midnightblue" stroke="midnightblue" points="223.896,-91.3687 213.423,-89.7677 220.612,-97.5505 223.896,-91.3687"/>
</g>
<!-- Node4 -->
<g id="node4" class="node"><title>Node4</title>
<g id="a_node4"><a xlink:href="classsd_event.html#a43dc0ffb37fdf843cc8bd3888dd7289f" target="_top" xlink:title="sdEvent::getTimeAsString">
<polygon fill="white" stroke="black" points="326,-103.614 326,-122.614 450,-122.614 450,-103.614 326,-103.614"/>
<text text-anchor="middle" x="388" y="-110.614" font-family="Helvetica,sans-Serif" font-size="10.00">sdEvent::getTimeAsString</text>
</a>
</g>
</g>
<!-- Node3&#45;&gt;Node4 -->
<g id="edge4" class="edge"><title>Node3&#45;&gt;Node4</title>
<path fill="none" stroke="midnightblue" d="M244.854,-88.5547C271.388,-93.139 304.29,-98.8237 331.755,-103.569"/>
<polygon fill="midnightblue" stroke="midnightblue" points="245.102,-85.0456 234.652,-86.7919 243.91,-91.9435 245.102,-85.0456"/>
</g>
<!-- Node8 -->
<g id="node8" class="node"><title>Node8</title>
<g id="a_node8"><a xlink:href="classsd_event_extension_media.html#a649915acca0bba19994f851caf9592a5" target="_top" xlink:title="sdEventExtensionMedia\l::getValueAsString">
<polygon fill="white" stroke="black" points="328,-54.1139 328,-84.1139 448,-84.1139 448,-54.1139 328,-54.1139"/>
<text text-anchor="start" x="336" y="-72.1139" font-family="Helvetica,sans-Serif" font-size="10.00">sdEventExtensionMedia</text>
<text text-anchor="middle" x="388" y="-61.1139" font-family="Helvetica,sans-Serif" font-size="10.00">::getValueAsString</text>
</a>
</g>
</g>
<!-- Node3&#45;&gt;Node8 -->
<g id="edge8" class="edge"><title>Node3&#45;&gt;Node8</title>
<path fill="none" stroke="midnightblue" d="M244.737,-77.3071C270.001,-75.8521 301.061,-74.0633 327.707,-72.5287"/>
<polygon fill="midnightblue" stroke="midnightblue" points="244.434,-73.8186 234.652,-77.8879 244.836,-80.807 244.434,-73.8186"/>
</g>
<!-- Node9 -->
<g id="node9" class="node"><title>Node9</title>
<g id="a_node9"><a xlink:href="classsd_o_s_c_responder.html#a832f0b4b90505071642911841b5adc07" target="_top" xlink:title="sdOSCResponder::setCurrentTime">
<polygon fill="white" stroke="black" points="306,-15.6139 306,-34.6139 470,-34.6139 470,-15.6139 306,-15.6139"/>
<text text-anchor="middle" x="388" y="-22.6139" font-family="Helvetica,sans-Serif" font-size="10.00">sdOSCResponder::setCurrentTime</text>
</a>
</g>
</g>
<!-- Node3&#45;&gt;Node9 -->
<g id="edge9" class="edge"><title>Node3&#45;&gt;Node9</title>
<path fill="none" stroke="midnightblue" d="M232.543,-67.2814C253.835,-60.0242 281.28,-51.0444 306,-44.1139 317.961,-40.7605 331.027,-37.516 343.105,-34.6856"/>
<polygon fill="midnightblue" stroke="midnightblue" points="231.246,-64.0262 222.925,-70.5848 233.52,-70.6466 231.246,-64.0262"/>
</g>
<!-- Node5 -->
<g id="node5" class="node"><title>Node5</title>
<g id="a_node5"><a xlink:href="_how__to__query_8cpp.html#a840291bc02cba5474a4cb46a9b9566fe" target="_top" xlink:title="main">
<polygon fill="white" stroke="black" points="529.5,-103.614 529.5,-122.614 566.5,-122.614 566.5,-103.614 529.5,-103.614"/>
<text text-anchor="middle" x="548" y="-110.614" font-family="Helvetica,sans-Serif" font-size="10.00">main</text>
</a>
</g>
</g>
<!-- Node4&#45;&gt;Node5 -->
<g id="edge5" class="edge"><title>Node4&#45;&gt;Node5</title>
<path fill="none" stroke="midnightblue" d="M460.21,-113.114C485.841,-113.114 512.576,-113.114 529.483,-113.114"/>
<polygon fill="midnightblue" stroke="midnightblue" points="460.087,-109.614 450.087,-113.114 460.087,-116.614 460.087,-109.614"/>
</g>
<!-- Node6 -->
<g id="node6" class="node"><title>Node6</title>
<g id="a_node6"><a xlink:href="classsd_scene.html#a1e61037274d374f8ab33e347fde8b65b" target="_top" xlink:title="sdScene::dump">
<polygon fill="white" stroke="black" points="506.5,-21.6139 506.5,-40.6139 589.5,-40.6139 589.5,-21.6139 506.5,-21.6139"/>
<text text-anchor="middle" x="548" y="-28.6139" font-family="Helvetica,sans-Serif" font-size="10.00">sdScene::dump</text>
</a>
</g>
</g>
<!-- Node4&#45;&gt;Node6 -->
<g id="edge6" class="edge"><title>Node4&#45;&gt;Node6</title>
<path fill="none" stroke="midnightblue" d="M451.908,-100.5C458.157,-98.3874 464.293,-95.9412 470,-93.1139 497.682,-79.3993 524.504,-54.319 537.99,-40.6363"/>
<polygon fill="midnightblue" stroke="midnightblue" points="450.559,-97.2532 442.04,-103.552 452.627,-103.941 450.559,-97.2532"/>
</g>
<!-- Node7 -->
<g id="node7" class="node"><title>Node7</title>
<g id="a_node7"><a xlink:href="sd_saver_test_8cpp.html#a840291bc02cba5474a4cb46a9b9566fe" target="_top" xlink:title="main">
<polygon fill="white" stroke="black" points="626.5,-21.6139 626.5,-40.6139 663.5,-40.6139 663.5,-21.6139 626.5,-21.6139"/>
<text text-anchor="middle" x="645" y="-28.6139" font-family="Helvetica,sans-Serif" font-size="10.00">main</text>
</a>
</g>
</g>
<!-- Node6&#45;&gt;Node7 -->
<g id="edge7" class="edge"><title>Node6&#45;&gt;Node7</title>
<path fill="none" stroke="midnightblue" d="M599.621,-31.1139C609.277,-31.1139 618.76,-31.1139 626.465,-31.1139"/>
<polygon fill="midnightblue" stroke="midnightblue" points="599.564,-27.614 589.564,-31.1139 599.564,-34.614 599.564,-27.614"/>
</g>
<!-- Node10&#45;&gt;Node6 -->
<g id="edge11" class="edge"><title>Node10&#45;&gt;Node6</title>
<path fill="none" stroke="midnightblue" d="M261.559,-9.17922C317.321,-1.68494 399.359,5.0666 470,-6.1139 488.602,-9.05809 508.827,-15.7697 523.879,-21.4981"/>
<polygon fill="midnightblue" stroke="midnightblue" points="260.884,-5.73929 251.461,-10.583 261.848,-12.6726 260.884,-5.73929"/>
</g>
</g>
</svg>
