<?xml version="1.0" encoding="UTF-8" standalone="no"?>
<!DOCTYPE svg PUBLIC "-//W3C//DTD SVG 1.1//EN"
 "http://www.w3.org/Graphics/SVG/1.1/DTD/svg11.dtd">
<!-- Generated by graphviz version 2.34.0 (20131206.1153)
 -->
<!-- Title: stringToDescriptor Pages: 1 -->
<svg width="424pt" height="77pt"
 viewBox="0.00 0.00 424.00 77.00" xmlns="http://www.w3.org/2000/svg" xmlns:xlink="http://www.w3.org/1999/xlink">
<g id="graph0" class="graph" transform="scale(1 1) rotate(0) translate(4 73)">
<title>stringToDescriptor</title>
<polygon fill="white" stroke="white" points="-4,4 -4,-73 420,-73 420,4 -4,4"/>
<!-- Node1 -->
<g id="node1" class="node"><title>Node1</title>
<polygon fill="#bfbfbf" stroke="black" points="0.5,-27.5 0.5,-46.5 91.5,-46.5 91.5,-27.5 0.5,-27.5"/>
<text text-anchor="middle" x="46" y="-34.5" font-family="Helvetica,sans-Serif" font-size="10.00">stringToDescriptor</text>
</g>
<!-- Node2 -->
<g id="node2" class="node"><title>Node2</title>
<g id="a_node2"><a xlink:href="classsd_entity_core.html#a7fb536dde5bcdd15bc788e9d8aa85afa" target="_top" xlink:title="sdEntityCore::removeEvent">
<polygon fill="white" stroke="black" points="128.5,-49.5 128.5,-68.5 259.5,-68.5 259.5,-49.5 128.5,-49.5"/>
<text text-anchor="middle" x="194" y="-56.5" font-family="Helvetica,sans-Serif" font-size="10.00">sdEntityCore::removeEvent</text>
</a>
</g>
</g>
<!-- Node1&#45;&gt;Node2 -->
<g id="edge1" class="edge"><title>Node1&#45;&gt;Node2</title>
<path fill="none" stroke="midnightblue" d="M101.746,-45.2494C110.918,-46.6315 120.502,-48.0756 129.864,-49.4864"/>
<polygon fill="midnightblue" stroke="midnightblue" points="102.008,-41.7494 91.5981,-43.7203 100.965,-48.6713 102.008,-41.7494"/>
</g>
<!-- Node3 -->
<g id="node3" class="node"><title>Node3</title>
<g id="a_node3"><a xlink:href="classsd_entity_extension_media.html#aac62ba87baf7db292f61b883a11b6179" target="_top" xlink:title="sdEntityExtensionMedia\l::removeEvent">
<polygon fill="white" stroke="black" points="134.5,-0 134.5,-30 253.5,-30 253.5,-0 134.5,-0"/>
<text text-anchor="start" x="142.5" y="-18" font-family="Helvetica,sans-Serif" font-size="10.00">sdEntityExtensionMedia</text>
<text text-anchor="middle" x="194" y="-7" font-family="Helvetica,sans-Serif" font-size="10.00">::removeEvent</text>
</a>
</g>
</g>
<!-- Node1&#45;&gt;Node3 -->
<g id="edge2" class="edge"><title>Node1&#45;&gt;Node3</title>
<path fill="none" stroke="midnightblue" d="M101.645,-28.7658C112.338,-27.1545 123.593,-25.4586 134.408,-23.8289"/>
<polygon fill="midnightblue" stroke="midnightblue" points="100.965,-25.3287 91.5981,-30.2797 102.008,-32.2506 100.965,-25.3287"/>
</g>
<!-- Node4 -->
<g id="node4" class="node"><title>Node4</title>
<g id="a_node4"><a xlink:href="classsd_entity_extension_media.html#a9ba0b7a1faabea9756f32ea7c7b283a2" target="_top" xlink:title="sdEntityExtensionMedia\l::addEvent">
<polygon fill="white" stroke="black" points="296.5,-0 296.5,-30 415.5,-30 415.5,-0 296.5,-0"/>
<text text-anchor="start" x="304.5" y="-18" font-family="Helvetica,sans-Serif" font-size="10.00">sdEntityExtensionMedia</text>
<text text-anchor="middle" x="356" y="-7" font-family="Helvetica,sans-Serif" font-size="10.00">::addEvent</text>
</a>
</g>
</g>
<!-- Node3&#45;&gt;Node4 -->
<g id="edge3" class="edge"><title>Node3&#45;&gt;Node4</title>
<path fill="none" stroke="midnightblue" d="M263.915,-15C274.717,-15 285.794,-15 296.338,-15"/>
<polygon fill="midnightblue" stroke="midnightblue" points="263.67,-11.5001 253.67,-15 263.67,-18.5001 263.67,-11.5001"/>
</g>
</g>
</svg>
