<?xml version="1.0" encoding="UTF-8" standalone="no"?>
<!DOCTYPE svg PUBLIC "-//W3C//DTD SVG 1.1//EN"
 "http://www.w3.org/Graphics/SVG/1.1/DTD/svg11.dtd">
<!-- Generated by graphviz version 2.34.0 (20131206.1153)
 -->
<!-- Title: main Pages: 1 -->
<svg width="284pt" height="121pt"
 viewBox="0.00 0.00 284.00 120.52" xmlns="http://www.w3.org/2000/svg" xmlns:xlink="http://www.w3.org/1999/xlink">
<g id="graph0" class="graph" transform="scale(1 1) rotate(0) translate(4 116.521)">
<title>main</title>
<polygon fill="white" stroke="white" points="-4,4 -4,-116.521 280,-116.521 280,4 -4,4"/>
<!-- Node1 -->
<g id="node1" class="node"><title>Node1</title>
<polygon fill="#bfbfbf" stroke="black" points="0.5,-57.5 0.5,-76.5 37.5,-76.5 37.5,-57.5 0.5,-57.5"/>
<text text-anchor="middle" x="19" y="-64.5" font-family="Helvetica,sans-Serif" font-size="10.00">main</text>
</g>
<!-- Node2 -->
<g id="node2" class="node"><title>Node2</title>
<g id="a_node2"><a xlink:href="sd_const_8h.html#a2e4342bd50c4c585f85d074a765b4550" target="_top" xlink:title="doublesToString">
<polygon fill="white" stroke="black" points="191,-85.5 191,-104.5 275,-104.5 275,-85.5 191,-85.5"/>
<text text-anchor="middle" x="233" y="-92.5" font-family="Helvetica,sans-Serif" font-size="10.00">doublesToString</text>
</a>
</g>
</g>
<!-- Node1&#45;&gt;Node2 -->
<g id="edge1" class="edge"><title>Node1&#45;&gt;Node2</title>
<path fill="none" stroke="midnightblue" d="M29.7089,-76.688C39.7915,-86.0043 56.5136,-99.464 74,-105 110.531,-116.565 154.131,-112.568 186.268,-106.529"/>
<polygon fill="midnightblue" stroke="midnightblue" points="187.163,-109.919 196.275,-104.514 185.781,-103.057 187.163,-109.919"/>
</g>
<!-- Node3 -->
<g id="node3" class="node"><title>Node3</title>
<g id="a_node3"><a xlink:href="sd_const_8h.html#af6ea173327acc9bc1ed456517a81dc9f" target="_top" xlink:title="doubleToString">
<polygon fill="white" stroke="black" points="74.5,-76.5 74.5,-95.5 153.5,-95.5 153.5,-76.5 74.5,-76.5"/>
<text text-anchor="middle" x="114" y="-83.5" font-family="Helvetica,sans-Serif" font-size="10.00">doubleToString</text>
</a>
</g>
</g>
<!-- Node1&#45;&gt;Node3 -->
<g id="edge2" class="edge"><title>Node1&#45;&gt;Node3</title>
<path fill="none" stroke="midnightblue" d="M37.9313,-70.6634C45.6096,-72.2321 54.9845,-74.1474 64.4723,-76.0857"/>
<polygon fill="midnightblue" stroke="midnightblue" points="63.8357,-79.5279 74.3339,-78.1005 65.2369,-72.6696 63.8357,-79.5279"/>
</g>
<!-- Node4 -->
<g id="node4" class="node"><title>Node4</title>
<g id="a_node4"><a xlink:href="sd_const_8h.html#ae7ae4ebb27c32496c48bac787cc5bcf7" target="_top" xlink:title="stringToDoubles">
<polygon fill="white" stroke="black" points="190.5,-28.5 190.5,-47.5 275.5,-47.5 275.5,-28.5 190.5,-28.5"/>
<text text-anchor="middle" x="233" y="-35.5" font-family="Helvetica,sans-Serif" font-size="10.00">stringToDoubles</text>
</a>
</g>
</g>
<!-- Node1&#45;&gt;Node4 -->
<g id="edge4" class="edge"><title>Node1&#45;&gt;Node4</title>
<path fill="none" stroke="midnightblue" d="M37.7104,-64.5774C68.7041,-60.3377 133.882,-51.4218 180.188,-45.0875"/>
<polygon fill="midnightblue" stroke="midnightblue" points="180.914,-48.5208 190.348,-43.6977 179.966,-41.5854 180.914,-48.5208"/>
</g>
<!-- Node5 -->
<g id="node5" class="node"><title>Node5</title>
<g id="a_node5"><a xlink:href="sd_const_8h.html#a7e564ec0266d67f518a0b0f80f17e203" target="_top" xlink:title="stringToDouble">
<polygon fill="white" stroke="black" points="74,-0.5 74,-19.5 154,-19.5 154,-0.5 74,-0.5"/>
<text text-anchor="middle" x="114" y="-7.5" font-family="Helvetica,sans-Serif" font-size="10.00">stringToDouble</text>
</a>
</g>
</g>
<!-- Node1&#45;&gt;Node5 -->
<g id="edge5" class="edge"><title>Node1&#45;&gt;Node5</title>
<path fill="none" stroke="midnightblue" d="M35.7762,-57.3307C50.2931,-48.4333 72.0411,-35.1038 88.7623,-24.8554"/>
<polygon fill="midnightblue" stroke="midnightblue" points="90.7598,-27.7363 97.4568,-19.5265 87.1018,-21.768 90.7598,-27.7363"/>
</g>
<!-- Node3&#45;&gt;Node2 -->
<g id="edge3" class="edge"><title>Node3&#45;&gt;Node2</title>
<path fill="none" stroke="midnightblue" d="M153.634,-88.9719C162.339,-89.6415 171.71,-90.3623 180.839,-91.0645"/>
<polygon fill="midnightblue" stroke="midnightblue" points="180.755,-94.5684 190.994,-91.8457 181.292,-87.589 180.755,-94.5684"/>
</g>
<!-- Node5&#45;&gt;Node4 -->
<g id="edge6" class="edge"><title>Node5&#45;&gt;Node4</title>
<path fill="none" stroke="midnightblue" d="M154.285,-19.4015C163.255,-21.5483 172.904,-23.8573 182.248,-26.0935"/>
<polygon fill="midnightblue" stroke="midnightblue" points="181.681,-29.5566 192.221,-28.4802 183.31,-22.7488 181.681,-29.5566"/>
</g>
</g>
</svg>
