<?xml version="1.0" encoding="UTF-8" standalone="no"?>
<!DOCTYPE svg PUBLIC "-//W3C//DTD SVG 1.1//EN"
 "http://www.w3.org/Graphics/SVG/1.1/DTD/svg11.dtd">
<!-- Generated by graphviz version 2.34.0 (20131206.1153)
 -->
<!-- Title: stringToDoubles Pages: 1 -->
<svg width="534pt" height="153pt"
 viewBox="0.00 0.00 534.00 153.00" xmlns="http://www.w3.org/2000/svg" xmlns:xlink="http://www.w3.org/1999/xlink">
<g id="graph0" class="graph" transform="scale(1 1) rotate(0) translate(4 149)">
<title>stringToDoubles</title>
<polygon fill="white" stroke="white" points="-4,4 -4,-149 530,-149 530,4 -4,4"/>
<!-- Node1 -->
<g id="node1" class="node"><title>Node1</title>
<polygon fill="#bfbfbf" stroke="black" points="0.5,-106.5 0.5,-125.5 85.5,-125.5 85.5,-106.5 0.5,-106.5"/>
<text text-anchor="middle" x="43" y="-113.5" font-family="Helvetica,sans-Serif" font-size="10.00">stringToDoubles</text>
</g>
<!-- Node2 -->
<g id="node2" class="node"><title>Node2</title>
<g id="a_node2"><a xlink:href="sd_converter_8cpp.html#a840291bc02cba5474a4cb46a9b9566fe" target="_top" xlink:title="main">
<polygon fill="white" stroke="black" points="285.5,-125.5 285.5,-144.5 322.5,-144.5 322.5,-125.5 285.5,-125.5"/>
<text text-anchor="middle" x="304" y="-132.5" font-family="Helvetica,sans-Serif" font-size="10.00">main</text>
</a>
</g>
</g>
<!-- Node1&#45;&gt;Node2 -->
<g id="edge1" class="edge"><title>Node1&#45;&gt;Node2</title>
<path fill="none" stroke="midnightblue" d="M95.809,-119.801C154.552,-124.11 247.132,-130.902 285.473,-133.714"/>
<polygon fill="midnightblue" stroke="midnightblue" points="95.8421,-116.294 85.6128,-119.053 95.3299,-123.275 95.8421,-116.294"/>
</g>
<!-- Node3 -->
<g id="node3" class="node"><title>Node3</title>
<g id="a_node3"><a xlink:href="sd_const_8h.html#a7e564ec0266d67f518a0b0f80f17e203" target="_top" xlink:title="stringToDouble">
<polygon fill="white" stroke="black" points="122,-87.5 122,-106.5 202,-106.5 202,-87.5 122,-87.5"/>
<text text-anchor="middle" x="162" y="-94.5" font-family="Helvetica,sans-Serif" font-size="10.00">stringToDouble</text>
</a>
</g>
</g>
<!-- Node1&#45;&gt;Node3 -->
<g id="edge2" class="edge"><title>Node1&#45;&gt;Node3</title>
<path fill="none" stroke="midnightblue" d="M95.4595,-107.643C104.332,-106.202 113.425,-104.726 121.903,-103.349"/>
<polygon fill="midnightblue" stroke="midnightblue" points="94.8889,-104.19 85.5793,-109.248 96.011,-111.1 94.8889,-104.19"/>
</g>
<!-- Node3&#45;&gt;Node2 -->
<g id="edge3" class="edge"><title>Node3&#45;&gt;Node2</title>
<path fill="none" stroke="midnightblue" d="M208.079,-109.236C234.303,-116.354 265.895,-124.929 285.207,-130.17"/>
<polygon fill="midnightblue" stroke="midnightblue" points="208.896,-105.831 198.328,-106.589 207.062,-112.586 208.896,-105.831"/>
</g>
<!-- Node4 -->
<g id="node4" class="node"><title>Node4</title>
<g id="a_node4"><a xlink:href="classsd_event.html#ab73641182126973ab01eea80cf1898ea" target="_top" xlink:title="sdEvent::setTime">
<polygon fill="white" stroke="black" points="259.5,-87.5 259.5,-106.5 348.5,-106.5 348.5,-87.5 259.5,-87.5"/>
<text text-anchor="middle" x="304" y="-94.5" font-family="Helvetica,sans-Serif" font-size="10.00">sdEvent::setTime</text>
</a>
</g>
</g>
<!-- Node3&#45;&gt;Node4 -->
<g id="edge4" class="edge"><title>Node3&#45;&gt;Node4</title>
<path fill="none" stroke="midnightblue" d="M212.589,-97C227.728,-97 244.263,-97 259.005,-97"/>
<polygon fill="midnightblue" stroke="midnightblue" points="212.37,-93.5001 202.37,-97 212.37,-100.5 212.37,-93.5001"/>
</g>
<!-- Node5 -->
<g id="node5" class="node"><title>Node5</title>
<g id="a_node5"><a xlink:href="classsd_entity_core.html#a7fb536dde5bcdd15bc788e9d8aa85afa" target="_top" xlink:title="sdEntityCore::removeEvent">
<polygon fill="white" stroke="black" points="238.5,-49.5 238.5,-68.5 369.5,-68.5 369.5,-49.5 238.5,-49.5"/>
<text text-anchor="middle" x="304" y="-56.5" font-family="Helvetica,sans-Serif" font-size="10.00">sdEntityCore::removeEvent</text>
</a>
</g>
</g>
<!-- Node3&#45;&gt;Node5 -->
<g id="edge5" class="edge"><title>Node3&#45;&gt;Node5</title>
<path fill="none" stroke="midnightblue" d="M208.118,-84.7538C227.415,-79.516 249.612,-73.4909 267.683,-68.5859"/>
<polygon fill="midnightblue" stroke="midnightblue" points="207.062,-81.4136 198.328,-87.411 208.896,-88.1692 207.062,-81.4136"/>
</g>
<!-- Node6 -->
<g id="node6" class="node"><title>Node6</title>
<g id="a_node6"><a xlink:href="classsd_entity_extension_media.html#aac62ba87baf7db292f61b883a11b6179" target="_top" xlink:title="sdEntityExtensionMedia\l::removeEvent">
<polygon fill="white" stroke="black" points="244.5,-0 244.5,-30 363.5,-30 363.5,-0 244.5,-0"/>
<text text-anchor="start" x="252.5" y="-18" font-family="Helvetica,sans-Serif" font-size="10.00">sdEntityExtensionMedia</text>
<text text-anchor="middle" x="304" y="-7" font-family="Helvetica,sans-Serif" font-size="10.00">::removeEvent</text>
</a>
</g>
</g>
<!-- Node3&#45;&gt;Node6 -->
<g id="edge6" class="edge"><title>Node3&#45;&gt;Node6</title>
<path fill="none" stroke="midnightblue" d="M181.254,-80.7722C195.843,-68.4039 217.222,-51.5821 238,-40 244.548,-36.3502 251.736,-33.0019 258.872,-30.0232"/>
<polygon fill="midnightblue" stroke="midnightblue" points="178.784,-78.2808 173.505,-87.4665 183.36,-83.578 178.784,-78.2808"/>
</g>
<!-- Node7 -->
<g id="node7" class="node"><title>Node7</title>
<g id="a_node7"><a xlink:href="classsd_entity_extension_media.html#a9ba0b7a1faabea9756f32ea7c7b283a2" target="_top" xlink:title="sdEntityExtensionMedia\l::addEvent">
<polygon fill="white" stroke="black" points="406.5,-0 406.5,-30 525.5,-30 525.5,-0 406.5,-0"/>
<text text-anchor="start" x="414.5" y="-18" font-family="Helvetica,sans-Serif" font-size="10.00">sdEntityExtensionMedia</text>
<text text-anchor="middle" x="466" y="-7" font-family="Helvetica,sans-Serif" font-size="10.00">::addEvent</text>
</a>
</g>
</g>
<!-- Node6&#45;&gt;Node7 -->
<g id="edge7" class="edge"><title>Node6&#45;&gt;Node7</title>
<path fill="none" stroke="midnightblue" d="M373.915,-15C384.717,-15 395.794,-15 406.338,-15"/>
<polygon fill="midnightblue" stroke="midnightblue" points="373.67,-11.5001 363.67,-15 373.67,-18.5001 373.67,-11.5001"/>
</g>
</g>
</svg>
