<?xml version="1.0" encoding="UTF-8" standalone="no"?>
<!DOCTYPE svg PUBLIC "-//W3C//DTD SVG 1.1//EN"
 "http://www.w3.org/Graphics/SVG/1.1/DTD/svg11.dtd">
<!-- Generated by graphviz version 2.34.0 (20131206.1153)
 -->
<!-- Title: intsToString Pages: 1 -->
<svg width="326pt" height="38pt"
 viewBox="0.00 0.00 326.00 38.00" xmlns="http://www.w3.org/2000/svg" xmlns:xlink="http://www.w3.org/1999/xlink">
<g id="graph0" class="graph" transform="scale(1 1) rotate(0) translate(4 34)">
<title>intsToString</title>
<polygon fill="white" stroke="white" points="-4,4 -4,-34 322,-34 322,4 -4,4"/>
<!-- Node1 -->
<g id="node1" class="node"><title>Node1</title>
<polygon fill="#bfbfbf" stroke="black" points="0.5,-5.5 0.5,-24.5 65.5,-24.5 65.5,-5.5 0.5,-5.5"/>
<text text-anchor="middle" x="33" y="-12.5" font-family="Helvetica,sans-Serif" font-size="10.00">intsToString</text>
</g>
<!-- Node2 -->
<g id="node2" class="node"><title>Node2</title>
<g id="a_node2"><a xlink:href="sd_const_8h.html#a12aa713d71583f1deef6c563d4f342b2" target="_top" xlink:title="intToString">
<polygon fill="white" stroke="black" points="102.5,-5.5 102.5,-24.5 161.5,-24.5 161.5,-5.5 102.5,-5.5"/>
<text text-anchor="middle" x="132" y="-12.5" font-family="Helvetica,sans-Serif" font-size="10.00">intToString</text>
</a>
</g>
</g>
<!-- Node1&#45;&gt;Node2 -->
<g id="edge1" class="edge"><title>Node1&#45;&gt;Node2</title>
<path fill="none" stroke="midnightblue" d="M76.0229,-15C84.9437,-15 94.1622,-15 102.442,-15"/>
<polygon fill="midnightblue" stroke="midnightblue" points="75.7615,-11.5001 65.7614,-15 75.7614,-18.5001 75.7615,-11.5001"/>
</g>
<!-- Node3 -->
<g id="node3" class="node"><title>Node3</title>
<g id="a_node3"><a xlink:href="classsd_event_extension_media.html#a649915acca0bba19994f851caf9592a5" target="_top" xlink:title="sdEventExtensionMedia\l::getValueAsString">
<polygon fill="white" stroke="black" points="198,-0 198,-30 318,-30 318,-0 198,-0"/>
<text text-anchor="start" x="206" y="-18" font-family="Helvetica,sans-Serif" font-size="10.00">sdEventExtensionMedia</text>
<text text-anchor="middle" x="258" y="-7" font-family="Helvetica,sans-Serif" font-size="10.00">::getValueAsString</text>
</a>
</g>
</g>
<!-- Node2&#45;&gt;Node3 -->
<g id="edge2" class="edge"><title>Node2&#45;&gt;Node3</title>
<path fill="none" stroke="midnightblue" d="M171.763,-15C179.971,-15 188.814,-15 197.588,-15"/>
<polygon fill="midnightblue" stroke="midnightblue" points="171.76,-11.5001 161.76,-15 171.76,-18.5001 171.76,-11.5001"/>
</g>
</g>
</svg>
