<?xml version="1.0" encoding="UTF-8" standalone="no"?>
<!DOCTYPE svg PUBLIC "-//W3C//DTD SVG 1.1//EN"
 "http://www.w3.org/Graphics/SVG/1.1/DTD/svg11.dtd">
<!-- Generated by graphviz version 2.34.0 (20131206.1153)
 -->
<!-- Title: /Users/lossius/dev/spatdiflib/src/sdConst.h Pages: 1 -->
<svg width="184pt" height="96pt"
 viewBox="0.00 0.00 184.00 96.00" xmlns="http://www.w3.org/2000/svg" xmlns:xlink="http://www.w3.org/1999/xlink">
<g id="graph0" class="graph" transform="scale(1 1) rotate(0) translate(4 92)">
<title>/Users/lossius/dev/spatdiflib/src/sdConst.h</title>
<polygon fill="white" stroke="white" points="-4,4 -4,-92 180,-92 180,4 -4,4"/>
<!-- Node1 -->
<g id="node1" class="node"><title>Node1</title>
<polygon fill="#bfbfbf" stroke="black" points="22.5,-57 22.5,-87 141.5,-87 141.5,-57 22.5,-57"/>
<text text-anchor="start" x="30.5" y="-75" font-family="Helvetica,sans-Serif" font-size="10.00">/Users/lossius/dev</text>
<text text-anchor="middle" x="82" y="-64" font-family="Helvetica,sans-Serif" font-size="10.00">/spatdiflib/src/sdConst.h</text>
</g>
<!-- Node2 -->
<g id="node2" class="node"><title>Node2</title>
<polygon fill="white" stroke="#bfbfbf" points="0,-0.5 0,-19.5 38,-19.5 38,-0.5 0,-0.5"/>
<text text-anchor="middle" x="19" y="-7.5" font-family="Helvetica,sans-Serif" font-size="10.00">string</text>
</g>
<!-- Node1&#45;&gt;Node2 -->
<g id="edge1" class="edge"><title>Node1&#45;&gt;Node2</title>
<path fill="none" stroke="midnightblue" d="M67.0699,-56.7808C57.6321,-47.7925 45.4201,-36.162 35.6667,-26.8731"/>
<polygon fill="midnightblue" stroke="midnightblue" points="37.8223,-24.0926 28.1671,-19.7305 32.9947,-29.1616 37.8223,-24.0926"/>
</g>
<!-- Node3 -->
<g id="node3" class="node"><title>Node3</title>
<polygon fill="white" stroke="#bfbfbf" points="56,-0.5 56,-19.5 108,-19.5 108,-0.5 56,-0.5"/>
<text text-anchor="middle" x="82" y="-7.5" font-family="Helvetica,sans-Serif" font-size="10.00">iostream</text>
</g>
<!-- Node1&#45;&gt;Node3 -->
<g id="edge2" class="edge"><title>Node1&#45;&gt;Node3</title>
<path fill="none" stroke="midnightblue" d="M82,-56.7808C82,-48.7812 82,-38.6887 82,-30.0168"/>
<polygon fill="midnightblue" stroke="midnightblue" points="85.5001,-29.7305 82,-19.7305 78.5001,-29.7306 85.5001,-29.7305"/>
</g>
<!-- Node4 -->
<g id="node4" class="node"><title>Node4</title>
<polygon fill="white" stroke="#bfbfbf" points="126,-0.5 126,-19.5 176,-19.5 176,-0.5 126,-0.5"/>
<text text-anchor="middle" x="151" y="-7.5" font-family="Helvetica,sans-Serif" font-size="10.00">sstream</text>
</g>
<!-- Node1&#45;&gt;Node4 -->
<g id="edge3" class="edge"><title>Node1&#45;&gt;Node4</title>
<path fill="none" stroke="midnightblue" d="M98.352,-56.7808C108.895,-47.6127 122.6,-35.6957 133.384,-26.3186"/>
<polygon fill="midnightblue" stroke="midnightblue" points="135.71,-28.9335 140.96,-19.7305 131.117,-23.6512 135.71,-28.9335"/>
</g>
</g>
</svg>
