<?xml version="1.0" encoding="UTF-8" standalone="no"?>
<!DOCTYPE svg PUBLIC "-//W3C//DTD SVG 1.1//EN"
 "http://www.w3.org/Graphics/SVG/1.1/DTD/svg11.dtd">
<!-- Generated by graphviz version 2.34.0 (20131206.1153)
 -->
<!-- Title: /Users/lossius/dev/spatdiflib/src/sdConst.h Pages: 1 -->
<svg width="1838pt" height="576pt"
 viewBox="0.00 0.00 1838.00 576.00" xmlns="http://www.w3.org/2000/svg" xmlns:xlink="http://www.w3.org/1999/xlink">
<g id="graph0" class="graph" transform="scale(1 1) rotate(0) translate(4 572)">
<title>/Users/lossius/dev/spatdiflib/src/sdConst.h</title>
<polygon fill="white" stroke="white" points="-4,4 -4,-572 1834,-572 1834,4 -4,4"/>
<!-- Node1 -->
<g id="node1" class="node"><title>Node1</title>
<polygon fill="#bfbfbf" stroke="black" points="1177.5,-537 1177.5,-567 1296.5,-567 1296.5,-537 1177.5,-537"/>
<text text-anchor="start" x="1185.5" y="-555" font-family="Helvetica,sans-Serif" font-size="10.00">/Users/lossius/dev</text>
<text text-anchor="middle" x="1237" y="-544" font-family="Helvetica,sans-Serif" font-size="10.00">/spatdiflib/src/sdConst.h</text>
</g>
<!-- Node2 -->
<g id="node2" class="node"><title>Node2</title>
<g id="a_node2"><a xlink:href="sd_entity_8h.html" target="_top" xlink:title="/Users/lossius/dev\l/spatdiflib/src/sdEntity.h">
<polygon fill="white" stroke="black" points="799,-464 799,-494 915,-494 915,-464 799,-464"/>
<text text-anchor="start" x="807" y="-482" font-family="Helvetica,sans-Serif" font-size="10.00">/Users/lossius/dev</text>
<text text-anchor="middle" x="857" y="-471" font-family="Helvetica,sans-Serif" font-size="10.00">/spatdiflib/src/sdEntity.h</text>
</a>
</g>
</g>
<!-- Node1&#45;&gt;Node2 -->
<g id="edge1" class="edge"><title>Node1&#45;&gt;Node2</title>
<path fill="none" stroke="midnightblue" d="M1167.14,-541.606C1104.44,-532.66 1010.09,-517.922 929,-500 921.146,-498.264 912.873,-496.196 904.845,-494.058"/>
<polygon fill="midnightblue" stroke="midnightblue" points="1166.91,-545.109 1177.31,-543.045 1167.9,-538.178 1166.91,-545.109"/>
</g>
<!-- Node4 -->
<g id="node4" class="node"><title>Node4</title>
<g id="a_node4"><a xlink:href="sd_entity_core_8h.html" target="_top" xlink:title="/Users/lossius/dev\l/spatdiflib/src/sdEntityCore.h">
<polygon fill="white" stroke="black" points="665.5,-318 665.5,-348 802.5,-348 802.5,-318 665.5,-318"/>
<text text-anchor="start" x="673.5" y="-336" font-family="Helvetica,sans-Serif" font-size="10.00">/Users/lossius/dev</text>
<text text-anchor="middle" x="734" y="-325" font-family="Helvetica,sans-Serif" font-size="10.00">/spatdiflib/src/sdEntityCore.h</text>
</a>
</g>
</g>
<!-- Node1&#45;&gt;Node4 -->
<g id="edge51" class="edge"><title>Node1&#45;&gt;Node4</title>
<path fill="none" stroke="midnightblue" d="M1166.93,-548.137C1058.51,-542.852 855.739,-529.311 790,-500 742.266,-478.717 723.444,-469.662 702,-422 690.594,-396.649 708.704,-365.901 721.987,-348.278"/>
<polygon fill="midnightblue" stroke="midnightblue" points="1166.96,-551.643 1177.12,-548.623 1167.29,-544.651 1166.96,-551.643"/>
</g>
<!-- Node5 -->
<g id="node5" class="node"><title>Node5</title>
<g id="a_node5"><a xlink:href="sd_entity_core_8cpp.html" target="_top" xlink:title="/Users/lossius/dev\l/spatdiflib/src/sdEntityCore.cpp">
<polygon fill="white" stroke="black" points="1044,-240 1044,-270 1192,-270 1192,-240 1044,-240"/>
<text text-anchor="start" x="1052" y="-258" font-family="Helvetica,sans-Serif" font-size="10.00">/Users/lossius/dev</text>
<text text-anchor="middle" x="1118" y="-247" font-family="Helvetica,sans-Serif" font-size="10.00">/spatdiflib/src/sdEntityCore.cpp</text>
</a>
</g>
</g>
<!-- Node1&#45;&gt;Node5 -->
<g id="edge50" class="edge"><title>Node1&#45;&gt;Node5</title>
<path fill="none" stroke="midnightblue" d="M1227.4,-527.2C1203.63,-468.279 1142.6,-316.996 1123.68,-270.086"/>
<polygon fill="midnightblue" stroke="midnightblue" points="1224.27,-528.807 1231.26,-536.772 1230.77,-526.188 1224.27,-528.807"/>
</g>
<!-- Node6 -->
<g id="node6" class="node"><title>Node6</title>
<g id="a_node6"><a xlink:href="sd_scene_8h.html" target="_top" xlink:title="/Users/lossius/dev\l/spatdiflib/src/sdScene.h">
<polygon fill="white" stroke="black" points="726,-240 726,-270 846,-270 846,-240 726,-240"/>
<text text-anchor="start" x="734" y="-258" font-family="Helvetica,sans-Serif" font-size="10.00">/Users/lossius/dev</text>
<text text-anchor="middle" x="786" y="-247" font-family="Helvetica,sans-Serif" font-size="10.00">/spatdiflib/src/sdScene.h</text>
</a>
</g>
</g>
<!-- Node1&#45;&gt;Node6 -->
<g id="edge58" class="edge"><title>Node1&#45;&gt;Node6</title>
<path fill="none" stroke="midnightblue" d="M1185.51,-533.563C1160.02,-524.425 1129,-512.539 1102,-500 1037.4,-470 1019.46,-464.092 962,-422 894.91,-372.854 826.316,-300.428 798.678,-270.133"/>
<polygon fill="midnightblue" stroke="midnightblue" points="1184.39,-536.881 1194.99,-536.926 1186.73,-530.284 1184.39,-536.881"/>
</g>
<!-- Node9 -->
<g id="node9" class="node"><title>Node9</title>
<g id="a_node9"><a xlink:href="sd_main_8h.html" target="_top" xlink:title="/Users/lossius/dev\l/spatdiflib/src/sdMain.h">
<polygon fill="white" stroke="black" points="1164,-84 1164,-114 1278,-114 1278,-84 1164,-84"/>
<text text-anchor="start" x="1172" y="-102" font-family="Helvetica,sans-Serif" font-size="10.00">/Users/lossius/dev</text>
<text text-anchor="middle" x="1221" y="-91" font-family="Helvetica,sans-Serif" font-size="10.00">/spatdiflib/src/sdMain.h</text>
</a>
</g>
</g>
<!-- Node1&#45;&gt;Node9 -->
<g id="edge59" class="edge"><title>Node1&#45;&gt;Node9</title>
<path fill="none" stroke="midnightblue" d="M1306.51,-543.581C1385.62,-530.839 1504,-496.774 1504,-407 1504,-407 1504,-407 1504,-254 1504,-209.547 1515.3,-187.566 1484,-156 1455.73,-127.491 1346.73,-112.012 1278.24,-104.923"/>
<polygon fill="midnightblue" stroke="midnightblue" points="1305.94,-540.128 1296.59,-545.102 1307,-547.047 1305.94,-540.128"/>
</g>
<!-- Node16 -->
<g id="node16" class="node"><title>Node16</title>
<g id="a_node16"><a xlink:href="sd_o_s_c_responder_8cpp.html" target="_top" xlink:title="/Users/lossius/dev\l/spatdiflib/src/sdOSCResponder.cpp">
<polygon fill="white" stroke="black" points="1464,-84 1464,-114 1638,-114 1638,-84 1464,-84"/>
<text text-anchor="start" x="1472" y="-102" font-family="Helvetica,sans-Serif" font-size="10.00">/Users/lossius/dev</text>
<text text-anchor="middle" x="1551" y="-91" font-family="Helvetica,sans-Serif" font-size="10.00">/spatdiflib/src/sdOSCResponder.cpp</text>
</a>
</g>
</g>
<!-- Node1&#45;&gt;Node16 -->
<g id="edge60" class="edge"><title>Node1&#45;&gt;Node16</title>
<path fill="none" stroke="midnightblue" d="M1306.78,-543.951C1436.12,-528.94 1700,-488.346 1700,-407 1700,-407 1700,-407 1700,-254 1700,-186.107 1624.28,-136.75 1580.79,-114.004"/>
<polygon fill="midnightblue" stroke="midnightblue" points="1306.12,-540.504 1296.58,-545.114 1306.91,-547.459 1306.12,-540.504"/>
</g>
<!-- Node19 -->
<g id="node19" class="node"><title>Node19</title>
<g id="a_node19"><a xlink:href="sd_saver_8cpp.html" target="_top" xlink:title="/Users/lossius/dev\l/spatdiflib/src/sdSaver.cpp">
<polygon fill="white" stroke="black" points="11,-84 11,-114 141,-114 141,-84 11,-84"/>
<text text-anchor="start" x="19" y="-102" font-family="Helvetica,sans-Serif" font-size="10.00">/Users/lossius/dev</text>
<text text-anchor="middle" x="76" y="-91" font-family="Helvetica,sans-Serif" font-size="10.00">/spatdiflib/src/sdSaver.cpp</text>
</a>
</g>
</g>
<!-- Node1&#45;&gt;Node19 -->
<g id="edge61" class="edge"><title>Node1&#45;&gt;Node19</title>
<path fill="none" stroke="midnightblue" d="M1167.21,-550.267C905.875,-546.615 0,-525.413 0,-407 0,-407 0,-407 0,-254 0,-197.352 41.864,-139.961 63.4501,-114.134"/>
<polygon fill="midnightblue" stroke="midnightblue" points="1167.29,-553.769 1177.34,-550.404 1167.39,-546.769 1167.29,-553.769"/>
</g>
<!-- Node20 -->
<g id="node20" class="node"><title>Node20</title>
<g id="a_node20"><a xlink:href="sd_scene_8cpp.html" target="_top" xlink:title="/Users/lossius/dev\l/spatdiflib/src/sdScene.cpp">
<polygon fill="white" stroke="black" points="1344.5,-162 1344.5,-192 1475.5,-192 1475.5,-162 1344.5,-162"/>
<text text-anchor="start" x="1352.5" y="-180" font-family="Helvetica,sans-Serif" font-size="10.00">/Users/lossius/dev</text>
<text text-anchor="middle" x="1410" y="-169" font-family="Helvetica,sans-Serif" font-size="10.00">/spatdiflib/src/sdScene.cpp</text>
</a>
</g>
</g>
<!-- Node1&#45;&gt;Node20 -->
<g id="edge62" class="edge"><title>Node1&#45;&gt;Node20</title>
<path fill="none" stroke="midnightblue" d="M1306.32,-537.948C1373.72,-520.772 1466,-483.32 1466,-407 1466,-407 1466,-407 1466,-332 1466,-277.663 1434.83,-218.682 1419,-192.234"/>
<polygon fill="midnightblue" stroke="midnightblue" points="1305.45,-534.558 1296.57,-540.337 1307.11,-541.356 1305.45,-534.558"/>
</g>
<!-- Node23 -->
<g id="node23" class="node"><title>Node23</title>
<g id="a_node23"><a xlink:href="sd_entity_extension_8h.html" target="_top" xlink:title="/Users/lossius/dev\l/spatdiflib/src/sdEntityExtension.h">
<polygon fill="white" stroke="black" points="971,-391 971,-421 1129,-421 1129,-391 971,-391"/>
<text text-anchor="start" x="979" y="-409" font-family="Helvetica,sans-Serif" font-size="10.00">/Users/lossius/dev</text>
<text text-anchor="middle" x="1050" y="-398" font-family="Helvetica,sans-Serif" font-size="10.00">/spatdiflib/src/sdEntityExtension.h</text>
</a>
</g>
</g>
<!-- Node1&#45;&gt;Node23 -->
<g id="edge52" class="edge"><title>Node1&#45;&gt;Node23</title>
<path fill="none" stroke="midnightblue" d="M1204.14,-531.573C1189.39,-522.47 1171.97,-511.183 1157,-500 1122.49,-474.225 1085.16,-440.23 1064.99,-421.299"/>
<polygon fill="midnightblue" stroke="midnightblue" points="1202.57,-534.719 1212.93,-536.939 1206.22,-528.743 1202.57,-534.719"/>
</g>
<!-- Node24 -->
<g id="node24" class="node"><title>Node24</title>
<g id="a_node24"><a xlink:href="sd_entity_extension_media_8h.html" target="_top" xlink:title="/Users/lossius/dev\l/spatdiflib/src/sdEntityExtension\lMedia.h">
<polygon fill="white" stroke="black" points="1203.5,-312.5 1203.5,-353.5 1354.5,-353.5 1354.5,-312.5 1203.5,-312.5"/>
<text text-anchor="start" x="1211.5" y="-341.5" font-family="Helvetica,sans-Serif" font-size="10.00">/Users/lossius/dev</text>
<text text-anchor="start" x="1211.5" y="-330.5" font-family="Helvetica,sans-Serif" font-size="10.00">/spatdiflib/src/sdEntityExtension</text>
<text text-anchor="middle" x="1279" y="-319.5" font-family="Helvetica,sans-Serif" font-size="10.00">Media.h</text>
</a>
</g>
</g>
<!-- Node1&#45;&gt;Node24 -->
<g id="edge53" class="edge"><title>Node1&#45;&gt;Node24</title>
<path fill="none" stroke="midnightblue" d="M1241.68,-526.822C1250.06,-483.543 1267.46,-393.639 1275.17,-353.772"/>
<polygon fill="midnightblue" stroke="midnightblue" points="1238.22,-526.279 1239.76,-536.762 1245.09,-527.609 1238.22,-526.279"/>
</g>
<!-- Node26 -->
<g id="node26" class="node"><title>Node26</title>
<g id="a_node26"><a xlink:href="sd_info_8h.html" target="_top" xlink:title="/Users/lossius/dev\l/spatdiflib/src/sdInfo.h">
<polygon fill="white" stroke="black" points="1532,-318 1532,-348 1640,-348 1640,-318 1532,-318"/>
<text text-anchor="start" x="1540" y="-336" font-family="Helvetica,sans-Serif" font-size="10.00">/Users/lossius/dev</text>
<text text-anchor="middle" x="1586" y="-325" font-family="Helvetica,sans-Serif" font-size="10.00">/spatdiflib/src/sdInfo.h</text>
</a>
</g>
</g>
<!-- Node1&#45;&gt;Node26 -->
<g id="edge54" class="edge"><title>Node1&#45;&gt;Node26</title>
<path fill="none" stroke="midnightblue" d="M1306.56,-545.979C1378.99,-539.448 1486.26,-525.706 1518,-500 1566.64,-460.601 1580.82,-380.736 1584.67,-348.238"/>
<polygon fill="midnightblue" stroke="midnightblue" points="1306.23,-542.493 1296.58,-546.853 1306.84,-549.467 1306.23,-542.493"/>
</g>
<!-- Node28 -->
<g id="node28" class="node"><title>Node28</title>
<g id="a_node28"><a xlink:href="sd_converter_8cpp.html" target="_top" xlink:title="Example: ???">
<polygon fill="white" stroke="black" points="1728,-458.5 1728,-499.5 1830,-499.5 1830,-458.5 1728,-458.5"/>
<text text-anchor="start" x="1736" y="-487.5" font-family="Helvetica,sans-Serif" font-size="10.00">/Users/lossius/dev</text>
<text text-anchor="start" x="1736" y="-476.5" font-family="Helvetica,sans-Serif" font-size="10.00">/spatdiflib/examples</text>
<text text-anchor="middle" x="1779" y="-465.5" font-family="Helvetica,sans-Serif" font-size="10.00">/sdConverter.cpp</text>
</a>
</g>
</g>
<!-- Node1&#45;&gt;Node28 -->
<g id="edge63" class="edge"><title>Node1&#45;&gt;Node28</title>
<path fill="none" stroke="midnightblue" d="M1306.87,-547.734C1400.4,-542.41 1571.08,-529.344 1714,-500 1718.51,-499.074 1723.16,-497.966 1727.79,-496.753"/>
<polygon fill="midnightblue" stroke="midnightblue" points="1306.47,-544.251 1296.68,-548.301 1306.86,-551.24 1306.47,-544.251"/>
</g>
<!-- Node3 -->
<g id="node3" class="node"><title>Node3</title>
<g id="a_node3"><a xlink:href="sd_entity_8cpp.html" target="_top" xlink:title="/Users/lossius/dev\l/spatdiflib/src/sdEntity.cpp">
<polygon fill="white" stroke="black" points="711,-391 711,-421 839,-421 839,-391 711,-391"/>
<text text-anchor="start" x="719" y="-409" font-family="Helvetica,sans-Serif" font-size="10.00">/Users/lossius/dev</text>
<text text-anchor="middle" x="775" y="-398" font-family="Helvetica,sans-Serif" font-size="10.00">/spatdiflib/src/sdEntity.cpp</text>
</a>
</g>
</g>
<!-- Node2&#45;&gt;Node3 -->
<g id="edge2" class="edge"><title>Node2&#45;&gt;Node3</title>
<path fill="none" stroke="midnightblue" d="M832.93,-457.159C819.585,-445.604 803.336,-431.535 791.448,-421.241"/>
<polygon fill="midnightblue" stroke="midnightblue" points="830.948,-460.073 840.799,-463.973 835.531,-454.781 830.948,-460.073"/>
</g>
<!-- Node2&#45;&gt;Node4 -->
<g id="edge3" class="edge"><title>Node2&#45;&gt;Node4</title>
<path fill="none" stroke="midnightblue" d="M860.51,-453.792C861.95,-434.785 860.894,-408.526 848,-390 833.954,-369.82 810.518,-356.596 788.535,-348.096"/>
<polygon fill="midnightblue" stroke="midnightblue" points="857.025,-453.463 859.478,-463.77 863.988,-454.183 857.025,-453.463"/>
</g>
<!-- Node2&#45;&gt;Node9 -->
<g id="edge48" class="edge"><title>Node2&#45;&gt;Node9</title>
<path fill="none" stroke="midnightblue" d="M864.929,-454.264C882.852,-404.553 931.474,-289.519 1014,-234 1086.04,-185.538 1145.64,-260.41 1206,-198 1227.78,-175.482 1226.17,-135.449 1223.42,-114.187"/>
<polygon fill="midnightblue" stroke="midnightblue" points="861.579,-453.241 861.57,-463.836 868.184,-455.559 861.579,-453.241"/>
</g>
<!-- Node2&#45;&gt;Node19 -->
<g id="edge49" class="edge"><title>Node2&#45;&gt;Node19</title>
<path fill="none" stroke="midnightblue" d="M788.536,-473.167C591.658,-458.36 38,-409.968 38,-334 38,-334 38,-334 38,-254 38,-201.127 59.375,-140.938 70.0625,-114.149"/>
<polygon fill="midnightblue" stroke="midnightblue" points="788.523,-476.676 798.756,-473.929 789.044,-469.695 788.523,-476.676"/>
</g>
<!-- Node2&#45;&gt;Node23 -->
<g id="edge38" class="edge"><title>Node2&#45;&gt;Node23</title>
<path fill="none" stroke="midnightblue" d="M904.568,-460.501C937.532,-448.374 980.855,-432.437 1011.62,-421.12"/>
<polygon fill="midnightblue" stroke="midnightblue" points="903.307,-457.235 895.131,-463.973 905.724,-463.805 903.307,-457.235"/>
</g>
<!-- Node4&#45;&gt;Node5 -->
<g id="edge4" class="edge"><title>Node4&#45;&gt;Node5</title>
<path fill="none" stroke="midnightblue" d="M812.579,-316.448C881.407,-302.826 980.547,-283.204 1047.02,-270.049"/>
<polygon fill="midnightblue" stroke="midnightblue" points="811.782,-313.038 802.652,-318.413 813.141,-319.905 811.782,-313.038"/>
</g>
<!-- Node4&#45;&gt;Node6 -->
<g id="edge5" class="edge"><title>Node4&#45;&gt;Node6</title>
<path fill="none" stroke="midnightblue" d="M749.435,-309.441C758.129,-296.735 768.721,-281.254 776.263,-270.231"/>
<polygon fill="midnightblue" stroke="midnightblue" points="746.539,-307.475 743.781,-317.705 752.316,-311.428 746.539,-307.475"/>
</g>
<!-- Node4&#45;&gt;Node9 -->
<g id="edge33" class="edge"><title>Node4&#45;&gt;Node9</title>
<path fill="none" stroke="midnightblue" d="M773.662,-313.759C828.977,-288.552 926.693,-244.935 964,-234 1056.13,-206.996 1101.04,-256.722 1177,-198 1204,-177.126 1214.88,-136.017 1218.89,-114.269"/>
<polygon fill="midnightblue" stroke="midnightblue" points="772.151,-310.601 764.508,-317.939 775.058,-316.969 772.151,-310.601"/>
</g>
<!-- Node12 -->
<g id="node12" class="node"><title>Node12</title>
<g id="a_node12"><a xlink:href="sd_loader_test_8cpp.html" target="_top" xlink:title="Example: Test sdLoader.">
<polygon fill="white" stroke="black" points="532,-78.5 532,-119.5 634,-119.5 634,-78.5 532,-78.5"/>
<text text-anchor="start" x="540" y="-107.5" font-family="Helvetica,sans-Serif" font-size="10.00">/Users/lossius/dev</text>
<text text-anchor="start" x="540" y="-96.5" font-family="Helvetica,sans-Serif" font-size="10.00">/spatdiflib/examples</text>
<text text-anchor="middle" x="583" y="-85.5" font-family="Helvetica,sans-Serif" font-size="10.00">/sdLoaderTest.cpp</text>
</a>
</g>
</g>
<!-- Node4&#45;&gt;Node12 -->
<g id="edge35" class="edge"><title>Node4&#45;&gt;Node12</title>
<path fill="none" stroke="midnightblue" d="M703.879,-312.194C671.351,-289.011 620.862,-247.433 596,-198 583.43,-173.007 581.597,-140.111 581.924,-119.508"/>
<polygon fill="midnightblue" stroke="midnightblue" points="701.935,-315.105 712.138,-317.961 705.942,-309.366 701.935,-315.105"/>
</g>
<!-- Node13 -->
<g id="node13" class="node"><title>Node13</title>
<g id="a_node13"><a xlink:href="sd_saver_test_8cpp.html" target="_top" xlink:title="Example: Test sdSaver.">
<polygon fill="white" stroke="black" points="412,-78.5 412,-119.5 514,-119.5 514,-78.5 412,-78.5"/>
<text text-anchor="start" x="420" y="-107.5" font-family="Helvetica,sans-Serif" font-size="10.00">/Users/lossius/dev</text>
<text text-anchor="start" x="420" y="-96.5" font-family="Helvetica,sans-Serif" font-size="10.00">/spatdiflib/examples</text>
<text text-anchor="middle" x="463" y="-85.5" font-family="Helvetica,sans-Serif" font-size="10.00">/sdSaverTest.cpp</text>
</a>
</g>
</g>
<!-- Node4&#45;&gt;Node13 -->
<g id="edge36" class="edge"><title>Node4&#45;&gt;Node13</title>
<path fill="none" stroke="midnightblue" d="M655.067,-327.557C569.847,-318.046 437.882,-288.59 375,-198 364.356,-182.666 366.017,-172.363 375,-156 383.627,-140.284 398.742,-128.349 414.037,-119.62"/>
<polygon fill="midnightblue" stroke="midnightblue" points="654.91,-331.059 665.221,-328.62 655.64,-324.097 654.91,-331.059"/>
</g>
<!-- Node14 -->
<g id="node14" class="node"><title>Node14</title>
<g id="a_node14"><a xlink:href="sd_scene_test_8cpp.html" target="_top" xlink:title="Example: Test sdScene.">
<polygon fill="white" stroke="black" points="292,-78.5 292,-119.5 394,-119.5 394,-78.5 292,-78.5"/>
<text text-anchor="start" x="300" y="-107.5" font-family="Helvetica,sans-Serif" font-size="10.00">/Users/lossius/dev</text>
<text text-anchor="start" x="300" y="-96.5" font-family="Helvetica,sans-Serif" font-size="10.00">/spatdiflib/examples</text>
<text text-anchor="middle" x="343" y="-85.5" font-family="Helvetica,sans-Serif" font-size="10.00">/sdSceneTest.cpp</text>
</a>
</g>
</g>
<!-- Node4&#45;&gt;Node14 -->
<g id="edge37" class="edge"><title>Node4&#45;&gt;Node14</title>
<path fill="none" stroke="midnightblue" d="M654.898,-328.327C538.86,-321.985 328.806,-306.612 260,-276 211.945,-254.62 192.715,-245.905 171,-198 163.293,-180.998 160.033,-171.105 171,-156 198.4,-118.263 251.888,-105.464 291.978,-101.368"/>
<polygon fill="midnightblue" stroke="midnightblue" points="654.968,-331.835 665.141,-328.876 655.343,-324.845 654.968,-331.835"/>
</g>
<!-- Node22 -->
<g id="node22" class="node"><title>Node22</title>
<g id="a_node22"><a xlink:href="sd_extension_test_8cpp.html" target="_top" xlink:title="Example: Test extentions.">
<polygon fill="white" stroke="black" points="180.5,-156.5 180.5,-197.5 289.5,-197.5 289.5,-156.5 180.5,-156.5"/>
<text text-anchor="start" x="188.5" y="-185.5" font-family="Helvetica,sans-Serif" font-size="10.00">/Users/lossius/dev</text>
<text text-anchor="start" x="188.5" y="-174.5" font-family="Helvetica,sans-Serif" font-size="10.00">/spatdiflib/examples</text>
<text text-anchor="middle" x="235" y="-163.5" font-family="Helvetica,sans-Serif" font-size="10.00">/sdExtensionTest.cpp</text>
</a>
</g>
</g>
<!-- Node4&#45;&gt;Node22 -->
<g id="edge34" class="edge"><title>Node4&#45;&gt;Node22</title>
<path fill="none" stroke="midnightblue" d="M654.995,-329.242C547.357,-324.223 361.431,-310.693 304,-276 273.722,-257.71 253.23,-220.495 242.878,-197.556"/>
<polygon fill="midnightblue" stroke="midnightblue" points="655.012,-332.746 665.16,-329.701 655.328,-325.753 655.012,-332.746"/>
</g>
<!-- Node7 -->
<g id="node7" class="node"><title>Node7</title>
<g id="a_node7"><a xlink:href="sd_loader_8h.html" target="_top" xlink:title="/Users/lossius/dev\l/spatdiflib/src/sdLoader.h">
<polygon fill="white" stroke="black" points="636,-162 636,-192 758,-192 758,-162 636,-162"/>
<text text-anchor="start" x="644" y="-180" font-family="Helvetica,sans-Serif" font-size="10.00">/Users/lossius/dev</text>
<text text-anchor="middle" x="697" y="-169" font-family="Helvetica,sans-Serif" font-size="10.00">/spatdiflib/src/sdLoader.h</text>
</a>
</g>
</g>
<!-- Node6&#45;&gt;Node7 -->
<g id="edge6" class="edge"><title>Node6&#45;&gt;Node7</title>
<path fill="none" stroke="midnightblue" d="M761.284,-232.894C746.105,-219.932 727.07,-203.678 713.665,-192.231"/>
<polygon fill="midnightblue" stroke="midnightblue" points="759.382,-235.873 769.26,-239.705 763.928,-230.549 759.382,-235.873"/>
</g>
<!-- Node6&#45;&gt;Node9 -->
<g id="edge23" class="edge"><title>Node6&#45;&gt;Node9</title>
<path fill="none" stroke="midnightblue" d="M856.181,-243.681C958.651,-228.521 1137.81,-201.626 1144,-198 1161.74,-187.609 1195.56,-138.659 1211.82,-114.111"/>
<polygon fill="midnightblue" stroke="midnightblue" points="855.589,-240.23 846.209,-245.155 856.613,-247.155 855.589,-240.23"/>
</g>
<!-- Node11 -->
<g id="node11" class="node"><title>Node11</title>
<g id="a_node11"><a xlink:href="_how__to__query_8cpp.html" target="_top" xlink:title="Example: How to query a SoatDIF scene.">
<polygon fill="white" stroke="black" points="804,-78.5 804,-119.5 906,-119.5 906,-78.5 804,-78.5"/>
<text text-anchor="start" x="812" y="-107.5" font-family="Helvetica,sans-Serif" font-size="10.00">/Users/lossius/dev</text>
<text text-anchor="start" x="812" y="-96.5" font-family="Helvetica,sans-Serif" font-size="10.00">/spatdiflib/examples</text>
<text text-anchor="middle" x="855" y="-85.5" font-family="Helvetica,sans-Serif" font-size="10.00">/How_to_query.cpp</text>
</a>
</g>
</g>
<!-- Node6&#45;&gt;Node11 -->
<g id="edge26" class="edge"><title>Node6&#45;&gt;Node11</title>
<path fill="none" stroke="midnightblue" d="M787.106,-229.85C788.863,-209.283 793.387,-179.429 805,-156 811.772,-142.337 822.798,-129.466 832.775,-119.516"/>
<polygon fill="midnightblue" stroke="midnightblue" points="783.606,-229.729 786.401,-239.948 790.589,-230.216 783.606,-229.729"/>
</g>
<!-- Node6&#45;&gt;Node12 -->
<g id="edge29" class="edge"><title>Node6&#45;&gt;Node12</title>
<path fill="none" stroke="midnightblue" d="M715.93,-242.209C685.587,-234.091 651.489,-220.528 627,-198 604.078,-176.914 592.338,-141.634 586.945,-119.653"/>
<polygon fill="midnightblue" stroke="midnightblue" points="715.08,-245.604 725.632,-244.658 716.793,-238.817 715.08,-245.604"/>
</g>
<!-- Node6&#45;&gt;Node13 -->
<g id="edge31" class="edge"><title>Node6&#45;&gt;Node13</title>
<path fill="none" stroke="midnightblue" d="M715.65,-239.476C678.848,-230.357 633.727,-216.731 596,-198 553.098,-176.7 509.571,-141.486 484.492,-119.575"/>
<polygon fill="midnightblue" stroke="midnightblue" points="715.254,-242.981 725.796,-241.929 716.899,-236.177 715.254,-242.981"/>
</g>
<!-- Node6&#45;&gt;Node14 -->
<g id="edge32" class="edge"><title>Node6&#45;&gt;Node14</title>
<path fill="none" stroke="midnightblue" d="M715.755,-253.199C612.2,-250.596 425.37,-240.023 375,-198 351.774,-178.623 345.268,-142.121 343.528,-119.548"/>
<polygon fill="midnightblue" stroke="midnightblue" points="715.736,-256.699 725.815,-253.433 715.899,-249.701 715.736,-256.699"/>
</g>
<!-- Node15 -->
<g id="node15" class="node"><title>Node15</title>
<g id="a_node15"><a xlink:href="sd_o_s_c_responder_8h.html" target="_top" xlink:title="/Users/lossius/dev\l/spatdiflib/src/sdOSCResponder.h">
<polygon fill="white" stroke="black" points="972.5,-162 972.5,-192 1135.5,-192 1135.5,-162 972.5,-162"/>
<text text-anchor="start" x="980.5" y="-180" font-family="Helvetica,sans-Serif" font-size="10.00">/Users/lossius/dev</text>
<text text-anchor="middle" x="1054" y="-169" font-family="Helvetica,sans-Serif" font-size="10.00">/spatdiflib/src/sdOSCResponder.h</text>
</a>
</g>
</g>
<!-- Node6&#45;&gt;Node15 -->
<g id="edge14" class="edge"><title>Node6&#45;&gt;Node15</title>
<path fill="none" stroke="midnightblue" d="M845.36,-237.167C893.104,-223.627 959.413,-204.823 1004.37,-192.075"/>
<polygon fill="midnightblue" stroke="midnightblue" points="844.133,-233.876 835.468,-239.972 846.043,-240.611 844.133,-233.876"/>
</g>
<!-- Node17 -->
<g id="node17" class="node"><title>Node17</title>
<g id="a_node17"><a xlink:href="sd_o_s_c_test_8cpp.html" target="_top" xlink:title="Example: Test sdOSCResponder.">
<polygon fill="white" stroke="black" points="970,-78.5 970,-119.5 1072,-119.5 1072,-78.5 970,-78.5"/>
<text text-anchor="start" x="978" y="-107.5" font-family="Helvetica,sans-Serif" font-size="10.00">/Users/lossius/dev</text>
<text text-anchor="start" x="978" y="-96.5" font-family="Helvetica,sans-Serif" font-size="10.00">/spatdiflib/examples</text>
<text text-anchor="middle" x="1021" y="-85.5" font-family="Helvetica,sans-Serif" font-size="10.00">/sdOSCTest.cpp</text>
</a>
</g>
</g>
<!-- Node6&#45;&gt;Node17 -->
<g id="edge30" class="edge"><title>Node6&#45;&gt;Node17</title>
<path fill="none" stroke="midnightblue" d="M845.662,-236.645C871.42,-227.515 901.066,-214.698 925,-198 945.645,-183.596 945.491,-174.086 963,-156 974.975,-143.631 988.832,-130.22 999.998,-119.624"/>
<polygon fill="midnightblue" stroke="midnightblue" points="844.321,-233.405 836.001,-239.964 846.596,-240.025 844.321,-233.405"/>
</g>
<!-- Node18 -->
<g id="node18" class="node"><title>Node18</title>
<g id="a_node18"><a xlink:href="sd_saver_8h.html" target="_top" xlink:title="/Users/lossius/dev\l/spatdiflib/src/sdSaver.h">
<polygon fill="white" stroke="black" points="384.5,-162 384.5,-192 503.5,-192 503.5,-162 384.5,-162"/>
<text text-anchor="start" x="392.5" y="-180" font-family="Helvetica,sans-Serif" font-size="10.00">/Users/lossius/dev</text>
<text text-anchor="middle" x="444" y="-169" font-family="Helvetica,sans-Serif" font-size="10.00">/spatdiflib/src/sdSaver.h</text>
</a>
</g>
</g>
<!-- Node6&#45;&gt;Node18 -->
<g id="edge18" class="edge"><title>Node6&#45;&gt;Node18</title>
<path fill="none" stroke="midnightblue" d="M716.052,-240.538C661.83,-229.825 584.909,-214.018 518,-198 510.364,-196.172 502.317,-194.124 494.454,-192.055"/>
<polygon fill="midnightblue" stroke="midnightblue" points="715.418,-243.98 725.905,-242.478 716.77,-237.112 715.418,-243.98"/>
</g>
<!-- Node6&#45;&gt;Node19 -->
<g id="edge24" class="edge"><title>Node6&#45;&gt;Node19</title>
<path fill="none" stroke="midnightblue" d="M715.784,-253.677C575.459,-252.052 265.723,-243.275 171,-198 131.448,-179.095 99.4492,-136.335 84.7419,-114.071"/>
<polygon fill="midnightblue" stroke="midnightblue" points="715.958,-257.179 725.995,-253.786 716.033,-250.179 715.958,-257.179"/>
</g>
<!-- Node6&#45;&gt;Node20 -->
<g id="edge25" class="edge"><title>Node6&#45;&gt;Node20</title>
<path fill="none" stroke="midnightblue" d="M856.061,-245.467C977.626,-230.661 1225.95,-200.416 1344.36,-185.994"/>
<polygon fill="midnightblue" stroke="midnightblue" points="855.618,-241.995 846.115,-246.678 856.465,-248.944 855.618,-241.995"/>
</g>
<!-- Node21 -->
<g id="node21" class="node"><title>Node21</title>
<g id="a_node21"><a xlink:href="sd_event_test_8cpp.html" target="_top" xlink:title="Example: Test #stEntityCore.">
<polygon fill="white" stroke="black" points="814,-156.5 814,-197.5 916,-197.5 916,-156.5 814,-156.5"/>
<text text-anchor="start" x="822" y="-185.5" font-family="Helvetica,sans-Serif" font-size="10.00">/Users/lossius/dev</text>
<text text-anchor="start" x="822" y="-174.5" font-family="Helvetica,sans-Serif" font-size="10.00">/spatdiflib/examples</text>
<text text-anchor="middle" x="865" y="-163.5" font-family="Helvetica,sans-Serif" font-size="10.00">/sdEventTest.cpp</text>
</a>
</g>
</g>
<!-- Node6&#45;&gt;Node21 -->
<g id="edge27" class="edge"><title>Node6&#45;&gt;Node21</title>
<path fill="none" stroke="midnightblue" d="M808.3,-232.547C819.683,-221.596 833.434,-208.367 844.543,-197.68"/>
<polygon fill="midnightblue" stroke="midnightblue" points="805.639,-230.25 800.859,-239.705 810.492,-235.294 805.639,-230.25"/>
</g>
<!-- Node6&#45;&gt;Node22 -->
<g id="edge28" class="edge"><title>Node6&#45;&gt;Node22</title>
<path fill="none" stroke="midnightblue" d="M715.781,-246.446C628.102,-236.715 473.616,-218.582 342,-198 324.916,-195.328 306.375,-192.012 289.601,-188.852"/>
<polygon fill="midnightblue" stroke="midnightblue" points="715.551,-249.942 725.875,-247.562 716.321,-242.984 715.551,-249.942"/>
</g>
<!-- Node8 -->
<g id="node8" class="node"><title>Node8</title>
<g id="a_node8"><a xlink:href="sd_loader_8cpp.html" target="_top" xlink:title="/Users/lossius/dev\l/spatdiflib/src/sdLoader.cpp">
<polygon fill="white" stroke="black" points="652,-84 652,-114 786,-114 786,-84 652,-84"/>
<text text-anchor="start" x="660" y="-102" font-family="Helvetica,sans-Serif" font-size="10.00">/Users/lossius/dev</text>
<text text-anchor="middle" x="719" y="-91" font-family="Helvetica,sans-Serif" font-size="10.00">/spatdiflib/src/sdLoader.cpp</text>
</a>
</g>
</g>
<!-- Node7&#45;&gt;Node8 -->
<g id="edge7" class="edge"><title>Node7&#45;&gt;Node8</title>
<path fill="none" stroke="midnightblue" d="M703.958,-151.963C707.551,-139.551 711.812,-124.83 714.881,-114.231"/>
<polygon fill="midnightblue" stroke="midnightblue" points="700.557,-151.126 701.138,-161.705 707.281,-153.073 700.557,-151.126"/>
</g>
<!-- Node7&#45;&gt;Node9 -->
<g id="edge8" class="edge"><title>Node7&#45;&gt;Node9</title>
<path fill="none" stroke="midnightblue" d="M768.2,-162.258C780.454,-160.052 793.08,-157.88 805,-156 927.196,-136.73 958.433,-136.748 1081,-120 1108.25,-116.277 1138.45,-111.984 1163.81,-108.331"/>
<polygon fill="midnightblue" stroke="midnightblue" points="767.227,-158.877 758.016,-164.113 768.482,-165.764 767.227,-158.877"/>
</g>
<!-- Node7&#45;&gt;Node11 -->
<g id="edge10" class="edge"><title>Node7&#45;&gt;Node11</title>
<path fill="none" stroke="midnightblue" d="M735.458,-157.501C759.307,-146.029 789.919,-131.305 814.195,-119.628"/>
<polygon fill="midnightblue" stroke="midnightblue" points="733.843,-154.394 726.348,-161.883 736.877,-160.702 733.843,-154.394"/>
</g>
<!-- Node7&#45;&gt;Node12 -->
<g id="edge11" class="edge"><title>Node7&#45;&gt;Node12</title>
<path fill="none" stroke="midnightblue" d="M667.439,-156.292C650.584,-145.056 629.527,-131.018 612.657,-119.771"/>
<polygon fill="midnightblue" stroke="midnightblue" points="665.563,-159.248 675.825,-161.883 669.446,-153.424 665.563,-159.248"/>
</g>
<!-- Node7&#45;&gt;Node13 -->
<g id="edge12" class="edge"><title>Node7&#45;&gt;Node13</title>
<path fill="none" stroke="midnightblue" d="M643.135,-158.823C608.738,-147.815 563.211,-133.172 523,-120 520.078,-119.043 517.078,-118.056 514.051,-117.057"/>
<polygon fill="midnightblue" stroke="midnightblue" points="642.389,-162.259 652.979,-161.972 644.521,-155.592 642.389,-162.259"/>
</g>
<!-- Node7&#45;&gt;Node14 -->
<g id="edge13" class="edge"><title>Node7&#45;&gt;Node14</title>
<path fill="none" stroke="midnightblue" d="M625.831,-165.18C565.919,-155.42 478.216,-139.606 403,-120 400.131,-119.252 397.2,-118.44 394.252,-117.584"/>
<polygon fill="midnightblue" stroke="midnightblue" points="625.512,-168.674 635.943,-166.813 626.628,-161.763 625.512,-168.674"/>
</g>
<!-- Node10 -->
<g id="node10" class="node"><title>Node10</title>
<g id="a_node10"><a xlink:href="_file_with_extension_8cpp.html" target="_top" xlink:title="Example: Examine all functionalities of the sdDate class.">
<polygon fill="white" stroke="black" points="1164.5,-0.5 1164.5,-41.5 1277.5,-41.5 1277.5,-0.5 1164.5,-0.5"/>
<text text-anchor="start" x="1172.5" y="-29.5" font-family="Helvetica,sans-Serif" font-size="10.00">/Users/lossius/dev</text>
<text text-anchor="start" x="1172.5" y="-18.5" font-family="Helvetica,sans-Serif" font-size="10.00">/spatdiflib/examples</text>
<text text-anchor="middle" x="1221" y="-7.5" font-family="Helvetica,sans-Serif" font-size="10.00">/FileWithExtension.cpp</text>
</a>
</g>
</g>
<!-- Node9&#45;&gt;Node10 -->
<g id="edge9" class="edge"><title>Node9&#45;&gt;Node10</title>
<path fill="none" stroke="midnightblue" d="M1221,-73.656C1221,-63.3257 1221,-51.4425 1221,-41.68"/>
<polygon fill="midnightblue" stroke="midnightblue" points="1217.5,-73.7049 1221,-83.705 1224.5,-73.705 1217.5,-73.7049"/>
</g>
<!-- Node15&#45;&gt;Node9 -->
<g id="edge15" class="edge"><title>Node15&#45;&gt;Node9</title>
<path fill="none" stroke="midnightblue" d="M1094.21,-157.699C1123.7,-144.282 1163.13,-126.336 1190.15,-114.041"/>
<polygon fill="midnightblue" stroke="midnightblue" points="1092.67,-154.555 1085.02,-161.883 1095.57,-160.927 1092.67,-154.555"/>
</g>
<!-- Node15&#45;&gt;Node16 -->
<g id="edge16" class="edge"><title>Node15&#45;&gt;Node16</title>
<path fill="none" stroke="midnightblue" d="M1145.51,-162.006C1236.26,-148.13 1374.3,-127.021 1463.58,-113.367"/>
<polygon fill="midnightblue" stroke="midnightblue" points="1144.87,-158.564 1135.51,-163.535 1145.93,-165.483 1144.87,-158.564"/>
</g>
<!-- Node15&#45;&gt;Node17 -->
<g id="edge17" class="edge"><title>Node15&#45;&gt;Node17</title>
<path fill="none" stroke="midnightblue" d="M1043.71,-152.306C1039.16,-141.827 1033.87,-129.648 1029.55,-119.68"/>
<polygon fill="midnightblue" stroke="midnightblue" points="1040.6,-153.926 1047.79,-161.705 1047.02,-151.138 1040.6,-153.926"/>
</g>
<!-- Node18&#45;&gt;Node9 -->
<g id="edge19" class="edge"><title>Node18&#45;&gt;Node9</title>
<path fill="none" stroke="midnightblue" d="M514.026,-167.853C548.093,-164.016 589.657,-159.52 627,-156 828.518,-137.003 879.824,-142.324 1081,-120 1108.33,-116.967 1138.54,-112.76 1163.89,-108.986"/>
<polygon fill="midnightblue" stroke="midnightblue" points="513.251,-164.419 503.708,-169.021 514.038,-171.374 513.251,-164.419"/>
</g>
<!-- Node18&#45;&gt;Node13 -->
<g id="edge21" class="edge"><title>Node18&#45;&gt;Node13</title>
<path fill="none" stroke="midnightblue" d="M450.005,-151.982C452.606,-141.576 455.614,-129.545 458.08,-119.68"/>
<polygon fill="midnightblue" stroke="midnightblue" points="446.604,-151.155 447.574,-161.705 453.395,-152.852 446.604,-151.155"/>
</g>
<!-- Node18&#45;&gt;Node14 -->
<g id="edge22" class="edge"><title>Node18&#45;&gt;Node14</title>
<path fill="none" stroke="midnightblue" d="M416.742,-155.489C401.954,-144.362 383.766,-130.676 369.154,-119.68"/>
<polygon fill="midnightblue" stroke="midnightblue" points="414.908,-158.489 425.003,-161.705 419.117,-152.896 414.908,-158.489"/>
</g>
<!-- Node18&#45;&gt;Node19 -->
<g id="edge20" class="edge"><title>Node18&#45;&gt;Node19</title>
<path fill="none" stroke="midnightblue" d="M374.407,-161.628C307.306,-147.77 206.551,-126.962 141.03,-113.43"/>
<polygon fill="midnightblue" stroke="midnightblue" points="373.964,-165.11 384.465,-163.705 375.38,-158.255 373.964,-165.11"/>
</g>
<!-- Node23&#45;&gt;Node4 -->
<g id="edge39" class="edge"><title>Node23&#45;&gt;Node4</title>
<path fill="none" stroke="midnightblue" d="M977.599,-388.733C922.931,-376.45 848.68,-359.767 796.572,-348.059"/>
<polygon fill="midnightblue" stroke="midnightblue" points="977.045,-392.195 987.569,-390.973 978.579,-385.366 977.045,-392.195"/>
</g>
<!-- Node23&#45;&gt;Node6 -->
<g id="edge45" class="edge"><title>Node23&#45;&gt;Node6</title>
<path fill="none" stroke="midnightblue" d="M1030.38,-383.15C1008.29,-358.958 973.343,-322.041 957,-312 923.064,-291.15 880.515,-277.177 846.35,-268.404"/>
<polygon fill="midnightblue" stroke="midnightblue" points="1028.02,-385.758 1037.34,-390.809 1033.21,-381.053 1028.02,-385.758"/>
</g>
<!-- Node23&#45;&gt;Node9 -->
<g id="edge46" class="edge"><title>Node23&#45;&gt;Node9</title>
<path fill="none" stroke="midnightblue" d="M1038.38,-381.246C1022.49,-344.949 999.739,-275.531 1035,-234 1098.84,-158.807 1190.16,-273.193 1254,-198 1274.91,-173.366 1250.1,-134.924 1233.53,-114.27"/>
<polygon fill="midnightblue" stroke="midnightblue" points="1035.29,-382.909 1042.62,-390.555 1041.66,-380.004 1035.29,-382.909"/>
</g>
<!-- Node23&#45;&gt;Node19 -->
<g id="edge47" class="edge"><title>Node23&#45;&gt;Node19</title>
<path fill="none" stroke="midnightblue" d="M960.5,-395.015C753.944,-371.485 256.428,-311.844 189,-276 146.806,-253.57 140.743,-238.259 115,-198 97.4406,-170.539 85.4448,-133.887 79.765,-114.102"/>
<polygon fill="midnightblue" stroke="midnightblue" points="960.378,-398.524 970.709,-396.176 961.168,-391.569 960.378,-398.524"/>
</g>
<!-- Node23&#45;&gt;Node24 -->
<g id="edge40" class="edge"><title>Node23&#45;&gt;Node24</title>
<path fill="none" stroke="midnightblue" d="M1104.86,-387.99C1138.33,-377.613 1181.24,-364.311 1216.08,-353.507"/>
<polygon fill="midnightblue" stroke="midnightblue" points="1103.76,-384.668 1095.24,-390.973 1105.83,-391.354 1103.76,-384.668"/>
</g>
<!-- Node24&#45;&gt;Node5 -->
<g id="edge41" class="edge"><title>Node24&#45;&gt;Node5</title>
<path fill="none" stroke="midnightblue" d="M1228.41,-308.119C1201.94,-295.625 1170.45,-280.759 1147.88,-270.106"/>
<polygon fill="midnightblue" stroke="midnightblue" points="1227,-311.324 1237.54,-312.428 1229.99,-304.994 1227,-311.324"/>
</g>
<!-- Node24&#45;&gt;Node9 -->
<g id="edge43" class="edge"><title>Node24&#45;&gt;Node9</title>
<path fill="none" stroke="midnightblue" d="M1338.81,-307.244C1351.27,-299.185 1362.79,-288.894 1370,-276 1379.11,-259.705 1377.14,-251.246 1370,-234 1368.83,-231.169 1294.29,-158.036 1292,-156 1275.1,-140.981 1254.75,-125.14 1240.18,-114.153"/>
<polygon fill="midnightblue" stroke="midnightblue" points="1336.85,-304.334 1330.07,-312.472 1340.45,-310.34 1336.85,-304.334"/>
</g>
<!-- Node24&#45;&gt;Node20 -->
<g id="edge44" class="edge"><title>Node24&#45;&gt;Node20</title>
<path fill="none" stroke="midnightblue" d="M1364.07,-308.994C1379.66,-301.004 1394.1,-290.302 1404,-276 1421.46,-250.77 1417.33,-212.57 1413.34,-192.112"/>
<polygon fill="midnightblue" stroke="midnightblue" points="1362.32,-305.947 1354.78,-313.392 1365.32,-312.273 1362.32,-305.947"/>
</g>
<!-- Node25 -->
<g id="node25" class="node"><title>Node25</title>
<g id="a_node25"><a xlink:href="sd_entity_extension_media_8cpp.html" target="_top" xlink:title="/Users/lossius/dev\l/spatdiflib/src/sdEntityExtension\lMedia.cpp">
<polygon fill="white" stroke="black" points="1210.5,-234.5 1210.5,-275.5 1361.5,-275.5 1361.5,-234.5 1210.5,-234.5"/>
<text text-anchor="start" x="1218.5" y="-263.5" font-family="Helvetica,sans-Serif" font-size="10.00">/Users/lossius/dev</text>
<text text-anchor="start" x="1218.5" y="-252.5" font-family="Helvetica,sans-Serif" font-size="10.00">/spatdiflib/src/sdEntityExtension</text>
<text text-anchor="middle" x="1286" y="-241.5" font-family="Helvetica,sans-Serif" font-size="10.00">Media.cpp</text>
</a>
</g>
</g>
<!-- Node24&#45;&gt;Node25 -->
<g id="edge42" class="edge"><title>Node24&#45;&gt;Node25</title>
<path fill="none" stroke="midnightblue" d="M1281.74,-302.297C1282.56,-293.301 1283.45,-283.653 1284.2,-275.506"/>
<polygon fill="midnightblue" stroke="midnightblue" points="1278.23,-302.149 1280.8,-312.428 1285.21,-302.791 1278.23,-302.149"/>
</g>
<!-- Node26&#45;&gt;Node6 -->
<g id="edge55" class="edge"><title>Node26&#45;&gt;Node6</title>
<path fill="none" stroke="midnightblue" d="M1521.89,-325.91C1370.67,-311.544 993.366,-275.7 846.161,-261.715"/>
<polygon fill="midnightblue" stroke="midnightblue" points="1521.67,-329.404 1531.96,-326.866 1522.33,-322.436 1521.67,-329.404"/>
</g>
<!-- Node26&#45;&gt;Node9 -->
<g id="edge56" class="edge"><title>Node26&#45;&gt;Node9</title>
<path fill="none" stroke="midnightblue" d="M1575.08,-308.601C1570.55,-298.627 1565.35,-286.818 1561,-276 1539.88,-223.429 1561.09,-192.78 1518,-156 1482.68,-125.853 1354.22,-110.623 1278.3,-104.095"/>
<polygon fill="midnightblue" stroke="midnightblue" points="1571.98,-310.23 1579.33,-317.857 1578.34,-307.309 1571.98,-310.23"/>
</g>
<!-- Node27 -->
<g id="node27" class="node"><title>Node27</title>
<g id="a_node27"><a xlink:href="sd_info_test_8cpp.html" target="_top" xlink:title="Example: Test all functionalities of the sdInfo class.">
<polygon fill="white" stroke="black" points="1570,-234.5 1570,-275.5 1672,-275.5 1672,-234.5 1570,-234.5"/>
<text text-anchor="start" x="1578" y="-263.5" font-family="Helvetica,sans-Serif" font-size="10.00">/Users/lossius/dev</text>
<text text-anchor="start" x="1578" y="-252.5" font-family="Helvetica,sans-Serif" font-size="10.00">/spatdiflib/examples</text>
<text text-anchor="middle" x="1621" y="-241.5" font-family="Helvetica,sans-Serif" font-size="10.00">/sdInfoTest.cpp</text>
</a>
</g>
</g>
<!-- Node26&#45;&gt;Node27 -->
<g id="edge57" class="edge"><title>Node26&#45;&gt;Node27</title>
<path fill="none" stroke="midnightblue" d="M1596.91,-308.306C1601.74,-297.827 1607.35,-285.648 1611.94,-275.68"/>
<polygon fill="midnightblue" stroke="midnightblue" points="1593.59,-307.158 1592.58,-317.705 1599.95,-310.086 1593.59,-307.158"/>
</g>
</g>
</svg>
