<?xml version="1.0" encoding="UTF-8" standalone="no"?>
<!DOCTYPE svg PUBLIC "-//W3C//DTD SVG 1.1//EN"
 "http://www.w3.org/Graphics/SVG/1.1/DTD/svg11.dtd">
<!-- Generated by graphviz version 2.34.0 (20131206.1153)
 -->
<!-- Title: stringToDouble Pages: 1 -->
<svg width="412pt" height="153pt"
 viewBox="0.00 0.00 412.00 153.00" xmlns="http://www.w3.org/2000/svg" xmlns:xlink="http://www.w3.org/1999/xlink">
<g id="graph0" class="graph" transform="scale(1 1) rotate(0) translate(4 149)">
<title>stringToDouble</title>
<polygon fill="white" stroke="white" points="-4,4 -4,-149 408,-149 408,4 -4,4"/>
<!-- Node1 -->
<g id="node1" class="node"><title>Node1</title>
<polygon fill="#bfbfbf" stroke="black" points="0,-68.5 0,-87.5 80,-87.5 80,-68.5 0,-68.5"/>
<text text-anchor="middle" x="40" y="-75.5" font-family="Helvetica,sans-Serif" font-size="10.00">stringToDouble</text>
</g>
<!-- Node2 -->
<g id="node2" class="node"><title>Node2</title>
<g id="a_node2"><a xlink:href="sd_converter_8cpp.html#a840291bc02cba5474a4cb46a9b9566fe" target="_top" xlink:title="main">
<polygon fill="white" stroke="black" points="163.5,-125.5 163.5,-144.5 200.5,-144.5 200.5,-125.5 163.5,-125.5"/>
<text text-anchor="middle" x="182" y="-132.5" font-family="Helvetica,sans-Serif" font-size="10.00">main</text>
</a>
</g>
</g>
<!-- Node1&#45;&gt;Node2 -->
<g id="edge1" class="edge"><title>Node1&#45;&gt;Node2</title>
<path fill="none" stroke="midnightblue" d="M66.7253,-92.5223C80.9552,-100.173 99.1265,-109.325 116,-116 131.634,-122.184 150.083,-127.388 163.325,-130.777"/>
<polygon fill="midnightblue" stroke="midnightblue" points="68.0211,-89.2418 57.5679,-87.5149 64.6626,-95.3836 68.0211,-89.2418"/>
</g>
<!-- Node3 -->
<g id="node3" class="node"><title>Node3</title>
<g id="a_node3"><a xlink:href="classsd_event.html#ab73641182126973ab01eea80cf1898ea" target="_top" xlink:title="sdEvent::setTime">
<polygon fill="white" stroke="black" points="137.5,-87.5 137.5,-106.5 226.5,-106.5 226.5,-87.5 137.5,-87.5"/>
<text text-anchor="middle" x="182" y="-94.5" font-family="Helvetica,sans-Serif" font-size="10.00">sdEvent::setTime</text>
</a>
</g>
</g>
<!-- Node1&#45;&gt;Node3 -->
<g id="edge2" class="edge"><title>Node1&#45;&gt;Node3</title>
<path fill="none" stroke="midnightblue" d="M90.5892,-84.73C105.728,-86.7846 122.263,-89.0286 137.005,-91.0292"/>
<polygon fill="midnightblue" stroke="midnightblue" points="90.7502,-81.2198 80.3704,-83.3431 89.8088,-88.1562 90.7502,-81.2198"/>
</g>
<!-- Node4 -->
<g id="node4" class="node"><title>Node4</title>
<g id="a_node4"><a xlink:href="classsd_entity_core.html#a7fb536dde5bcdd15bc788e9d8aa85afa" target="_top" xlink:title="sdEntityCore::removeEvent">
<polygon fill="white" stroke="black" points="116.5,-49.5 116.5,-68.5 247.5,-68.5 247.5,-49.5 116.5,-49.5"/>
<text text-anchor="middle" x="182" y="-56.5" font-family="Helvetica,sans-Serif" font-size="10.00">sdEntityCore::removeEvent</text>
</a>
</g>
</g>
<!-- Node1&#45;&gt;Node4 -->
<g id="edge3" class="edge"><title>Node1&#45;&gt;Node4</title>
<path fill="none" stroke="midnightblue" d="M90.411,-71.2942C98.8512,-70.1488 107.73,-68.9438 116.493,-67.7545"/>
<polygon fill="midnightblue" stroke="midnightblue" points="89.8088,-67.8438 80.3704,-72.6569 90.7502,-74.7802 89.8088,-67.8438"/>
</g>
<!-- Node5 -->
<g id="node5" class="node"><title>Node5</title>
<g id="a_node5"><a xlink:href="classsd_entity_extension_media.html#aac62ba87baf7db292f61b883a11b6179" target="_top" xlink:title="sdEntityExtensionMedia\l::removeEvent">
<polygon fill="white" stroke="black" points="122.5,-0 122.5,-30 241.5,-30 241.5,-0 122.5,-0"/>
<text text-anchor="start" x="130.5" y="-18" font-family="Helvetica,sans-Serif" font-size="10.00">sdEntityExtensionMedia</text>
<text text-anchor="middle" x="182" y="-7" font-family="Helvetica,sans-Serif" font-size="10.00">::removeEvent</text>
</a>
</g>
</g>
<!-- Node1&#45;&gt;Node5 -->
<g id="edge4" class="edge"><title>Node1&#45;&gt;Node5</title>
<path fill="none" stroke="midnightblue" d="M67.8015,-63.5851C81.9659,-56.1808 99.7424,-47.2226 116,-40 123.624,-36.613 131.86,-33.2356 139.825,-30.1087"/>
<polygon fill="midnightblue" stroke="midnightblue" points="65.8459,-60.6596 58.6355,-68.4224 69.1131,-66.8503 65.8459,-60.6596"/>
</g>
<!-- Node6 -->
<g id="node6" class="node"><title>Node6</title>
<g id="a_node6"><a xlink:href="classsd_entity_extension_media.html#a9ba0b7a1faabea9756f32ea7c7b283a2" target="_top" xlink:title="sdEntityExtensionMedia\l::addEvent">
<polygon fill="white" stroke="black" points="284.5,-0 284.5,-30 403.5,-30 403.5,-0 284.5,-0"/>
<text text-anchor="start" x="292.5" y="-18" font-family="Helvetica,sans-Serif" font-size="10.00">sdEntityExtensionMedia</text>
<text text-anchor="middle" x="344" y="-7" font-family="Helvetica,sans-Serif" font-size="10.00">::addEvent</text>
</a>
</g>
</g>
<!-- Node5&#45;&gt;Node6 -->
<g id="edge5" class="edge"><title>Node5&#45;&gt;Node6</title>
<path fill="none" stroke="midnightblue" d="M251.915,-15C262.717,-15 273.794,-15 284.338,-15"/>
<polygon fill="midnightblue" stroke="midnightblue" points="251.67,-11.5001 241.67,-15 251.67,-18.5001 251.67,-11.5001"/>
</g>
</g>
</svg>
