<?xml version="1.0" encoding="UTF-8" standalone="no"?>
<!DOCTYPE svg PUBLIC "-//W3C//DTD SVG 1.1//EN"
 "http://www.w3.org/Graphics/SVG/1.1/DTD/svg11.dtd">
<!-- Generated by graphviz version 2.34.0 (20131206.1153)
 -->
<!-- Title: /Users/lossius/dev/spatdiflib/src/sdDate.h Pages: 1 -->
<svg width="229pt" height="96pt"
 viewBox="0.00 0.00 229.00 96.00" xmlns="http://www.w3.org/2000/svg" xmlns:xlink="http://www.w3.org/1999/xlink">
<g id="graph0" class="graph" transform="scale(1 1) rotate(0) translate(4 92)">
<title>/Users/lossius/dev/spatdiflib/src/sdDate.h</title>
<polygon fill="white" stroke="white" points="-4,4 -4,-92 225,-92 225,4 -4,4"/>
<!-- Node1 -->
<g id="node1" class="node"><title>Node1</title>
<polygon fill="#bfbfbf" stroke="black" points="49,-57 49,-87 163,-87 163,-57 49,-57"/>
<text text-anchor="start" x="57" y="-75" font-family="Helvetica,sans-Serif" font-size="10.00">/Users/lossius/dev</text>
<text text-anchor="middle" x="106" y="-64" font-family="Helvetica,sans-Serif" font-size="10.00">/spatdiflib/src/sdDate.h</text>
</g>
<!-- Node2 -->
<g id="node2" class="node"><title>Node2</title>
<polygon fill="white" stroke="#bfbfbf" points="-0.5,-0.5 -0.5,-19.5 40.5,-19.5 40.5,-0.5 -0.5,-0.5"/>
<text text-anchor="middle" x="20" y="-7.5" font-family="Helvetica,sans-Serif" font-size="10.00">vector</text>
</g>
<!-- Node1&#45;&gt;Node2 -->
<g id="edge1" class="edge"><title>Node1&#45;&gt;Node2</title>
<path fill="none" stroke="midnightblue" d="M85.6192,-56.7808C72.0102,-47.2862 54.1756,-34.8434 40.5349,-25.3267"/>
<polygon fill="midnightblue" stroke="midnightblue" points="42.4671,-22.4071 32.2632,-19.5557 38.4618,-28.148 42.4671,-22.4071"/>
</g>
<!-- Node3 -->
<g id="node3" class="node"><title>Node3</title>
<polygon fill="white" stroke="#bfbfbf" points="59,-0.5 59,-19.5 97,-19.5 97,-0.5 59,-0.5"/>
<text text-anchor="middle" x="78" y="-7.5" font-family="Helvetica,sans-Serif" font-size="10.00">ctime</text>
</g>
<!-- Node1&#45;&gt;Node3 -->
<g id="edge2" class="edge"><title>Node1&#45;&gt;Node3</title>
<path fill="none" stroke="midnightblue" d="M99.3644,-56.7808C95.4634,-48.4217 90.4961,-37.7773 86.333,-28.8565"/>
<polygon fill="midnightblue" stroke="midnightblue" points="89.4748,-27.3123 82.0742,-19.7305 83.1315,-30.2725 89.4748,-27.3123"/>
</g>
<!-- Node4 -->
<g id="node4" class="node"><title>Node4</title>
<polygon fill="white" stroke="#bfbfbf" points="115,-0.5 115,-19.5 153,-19.5 153,-0.5 115,-0.5"/>
<text text-anchor="middle" x="134" y="-7.5" font-family="Helvetica,sans-Serif" font-size="10.00">string</text>
</g>
<!-- Node1&#45;&gt;Node4 -->
<g id="edge3" class="edge"><title>Node1&#45;&gt;Node4</title>
<path fill="none" stroke="midnightblue" d="M112.636,-56.7808C116.537,-48.4217 121.504,-37.7773 125.667,-28.8565"/>
<polygon fill="midnightblue" stroke="midnightblue" points="128.868,-30.2725 129.926,-19.7305 122.525,-27.3123 128.868,-30.2725"/>
</g>
<!-- Node5 -->
<g id="node5" class="node"><title>Node5</title>
<polygon fill="white" stroke="#bfbfbf" points="171,-0.5 171,-19.5 221,-19.5 221,-0.5 171,-0.5"/>
<text text-anchor="middle" x="196" y="-7.5" font-family="Helvetica,sans-Serif" font-size="10.00">sstream</text>
</g>
<!-- Node1&#45;&gt;Node5 -->
<g id="edge4" class="edge"><title>Node1&#45;&gt;Node5</title>
<path fill="none" stroke="midnightblue" d="M127.329,-56.7808C141.571,-47.2862 160.235,-34.8434 174.51,-25.3267"/>
<polygon fill="midnightblue" stroke="midnightblue" points="176.787,-28.0149 183.166,-19.5557 172.904,-22.1906 176.787,-28.0149"/>
</g>
</g>
</svg>
