<?xml version="1.0" encoding="UTF-8" standalone="no"?>
<!DOCTYPE svg PUBLIC "-//W3C//DTD SVG 1.1//EN"
 "http://www.w3.org/Graphics/SVG/1.1/DTD/svg11.dtd">
<!-- Generated by graphviz version 2.34.0 (20131206.1153)
 -->
<!-- Title: /Users/lossius/dev/spatdiflib/src/sdDate.h Pages: 1 -->
<svg width="1302pt" height="430pt"
 viewBox="0.00 0.00 1302.00 430.00" xmlns="http://www.w3.org/2000/svg" xmlns:xlink="http://www.w3.org/1999/xlink">
<g id="graph0" class="graph" transform="scale(1 1) rotate(0) translate(4 426)">
<title>/Users/lossius/dev/spatdiflib/src/sdDate.h</title>
<polygon fill="white" stroke="white" points="-4,4 -4,-426 1298,-426 1298,4 -4,4"/>
<!-- Node1 -->
<g id="node1" class="node"><title>Node1</title>
<polygon fill="#bfbfbf" stroke="black" points="377,-391 377,-421 491,-421 491,-391 377,-391"/>
<text text-anchor="start" x="385" y="-409" font-family="Helvetica,sans-Serif" font-size="10.00">/Users/lossius/dev</text>
<text text-anchor="middle" x="434" y="-398" font-family="Helvetica,sans-Serif" font-size="10.00">/spatdiflib/src/sdDate.h</text>
</g>
<!-- Node2 -->
<g id="node2" class="node"><title>Node2</title>
<g id="a_node2"><a xlink:href="sd_info_8h.html" target="_top" xlink:title="/Users/lossius/dev\l/spatdiflib/src/sdInfo.h">
<polygon fill="white" stroke="black" points="380,-318 380,-348 488,-348 488,-318 380,-318"/>
<text text-anchor="start" x="388" y="-336" font-family="Helvetica,sans-Serif" font-size="10.00">/Users/lossius/dev</text>
<text text-anchor="middle" x="434" y="-325" font-family="Helvetica,sans-Serif" font-size="10.00">/spatdiflib/src/sdInfo.h</text>
</a>
</g>
</g>
<!-- Node1&#45;&gt;Node2 -->
<g id="edge1" class="edge"><title>Node1&#45;&gt;Node2</title>
<path fill="none" stroke="midnightblue" d="M434,-380.898C434,-370.131 434,-357.801 434,-348.486"/>
<polygon fill="midnightblue" stroke="midnightblue" points="430.5,-380.973 434,-390.973 437.5,-380.973 430.5,-380.973"/>
</g>
<!-- Node6 -->
<g id="node6" class="node"><title>Node6</title>
<g id="a_node6"><a xlink:href="sd_main_8h.html" target="_top" xlink:title="/Users/lossius/dev\l/spatdiflib/src/sdMain.h">
<polygon fill="white" stroke="black" points="312,-84 312,-114 426,-114 426,-84 312,-84"/>
<text text-anchor="start" x="320" y="-102" font-family="Helvetica,sans-Serif" font-size="10.00">/Users/lossius/dev</text>
<text text-anchor="middle" x="369" y="-91" font-family="Helvetica,sans-Serif" font-size="10.00">/spatdiflib/src/sdMain.h</text>
</a>
</g>
</g>
<!-- Node1&#45;&gt;Node6 -->
<g id="edge32" class="edge"><title>Node1&#45;&gt;Node6</title>
<path fill="none" stroke="midnightblue" d="M399.175,-385.209C388.159,-377.058 377.237,-366.553 371,-354 329.987,-271.462 354.608,-154.397 365.03,-114.195"/>
<polygon fill="midnightblue" stroke="midnightblue" points="397.322,-388.183 407.542,-390.978 401.296,-382.42 397.322,-388.183"/>
</g>
<!-- Node21 -->
<g id="node21" class="node"><title>Node21</title>
<g id="a_node21"><a xlink:href="sd_date_test_8cpp.html" target="_top" xlink:title="Example: Examine all functionalities of the sdDate class.">
<polygon fill="white" stroke="black" points="506,-312.5 506,-353.5 608,-353.5 608,-312.5 506,-312.5"/>
<text text-anchor="start" x="514" y="-341.5" font-family="Helvetica,sans-Serif" font-size="10.00">/Users/lossius/dev</text>
<text text-anchor="start" x="514" y="-330.5" font-family="Helvetica,sans-Serif" font-size="10.00">/spatdiflib/examples</text>
<text text-anchor="middle" x="557" y="-319.5" font-family="Helvetica,sans-Serif" font-size="10.00">/sdDateTest.cpp</text>
</a>
</g>
</g>
<!-- Node1&#45;&gt;Node21 -->
<g id="edge33" class="edge"><title>Node1&#45;&gt;Node21</title>
<path fill="none" stroke="midnightblue" d="M466.966,-385.971C484.29,-375.971 505.494,-363.731 522.972,-353.642"/>
<polygon fill="midnightblue" stroke="midnightblue" points="465.212,-382.942 458.301,-390.973 468.711,-389.005 465.212,-382.942"/>
</g>
<!-- Node3 -->
<g id="node3" class="node"><title>Node3</title>
<g id="a_node3"><a xlink:href="sd_scene_8h.html" target="_top" xlink:title="/Users/lossius/dev\l/spatdiflib/src/sdScene.h">
<polygon fill="white" stroke="black" points="584,-240 584,-270 704,-270 704,-240 584,-240"/>
<text text-anchor="start" x="592" y="-258" font-family="Helvetica,sans-Serif" font-size="10.00">/Users/lossius/dev</text>
<text text-anchor="middle" x="644" y="-247" font-family="Helvetica,sans-Serif" font-size="10.00">/spatdiflib/src/sdScene.h</text>
</a>
</g>
</g>
<!-- Node2&#45;&gt;Node3 -->
<g id="edge2" class="edge"><title>Node2&#45;&gt;Node3</title>
<path fill="none" stroke="midnightblue" d="M482.654,-314.392C519.921,-300.905 570.641,-282.549 605.202,-270.041"/>
<polygon fill="midnightblue" stroke="midnightblue" points="481.219,-311.189 473.007,-317.883 483.601,-317.771 481.219,-311.189"/>
</g>
<!-- Node2&#45;&gt;Node6 -->
<g id="edge30" class="edge"><title>Node2&#45;&gt;Node6</title>
<path fill="none" stroke="midnightblue" d="M413.143,-309.755C405.242,-300.084 396.963,-288.187 392,-276 368.988,-219.492 367.814,-145.11 368.463,-114.307"/>
<polygon fill="midnightblue" stroke="midnightblue" points="410.731,-312.318 419.897,-317.632 416.045,-307.762 410.731,-312.318"/>
</g>
<!-- Node20 -->
<g id="node20" class="node"><title>Node20</title>
<g id="a_node20"><a xlink:href="sd_info_test_8cpp.html" target="_top" xlink:title="Example: Test all functionalities of the sdInfo class.">
<polygon fill="white" stroke="black" points="401,-234.5 401,-275.5 503,-275.5 503,-234.5 401,-234.5"/>
<text text-anchor="start" x="409" y="-263.5" font-family="Helvetica,sans-Serif" font-size="10.00">/Users/lossius/dev</text>
<text text-anchor="start" x="409" y="-252.5" font-family="Helvetica,sans-Serif" font-size="10.00">/spatdiflib/examples</text>
<text text-anchor="middle" x="452" y="-241.5" font-family="Helvetica,sans-Serif" font-size="10.00">/sdInfoTest.cpp</text>
</a>
</g>
</g>
<!-- Node2&#45;&gt;Node20 -->
<g id="edge31" class="edge"><title>Node2&#45;&gt;Node20</title>
<path fill="none" stroke="midnightblue" d="M439.766,-307.656C442.212,-297.326 445.027,-285.443 447.339,-275.68"/>
<polygon fill="midnightblue" stroke="midnightblue" points="436.285,-307.168 437.386,-317.705 443.096,-308.781 436.285,-307.168"/>
</g>
<!-- Node4 -->
<g id="node4" class="node"><title>Node4</title>
<g id="a_node4"><a xlink:href="sd_loader_8h.html" target="_top" xlink:title="/Users/lossius/dev\l/spatdiflib/src/sdLoader.h">
<polygon fill="white" stroke="black" points="691,-162 691,-192 813,-192 813,-162 691,-162"/>
<text text-anchor="start" x="699" y="-180" font-family="Helvetica,sans-Serif" font-size="10.00">/Users/lossius/dev</text>
<text text-anchor="middle" x="752" y="-169" font-family="Helvetica,sans-Serif" font-size="10.00">/spatdiflib/src/sdLoader.h</text>
</a>
</g>
</g>
<!-- Node3&#45;&gt;Node4 -->
<g id="edge3" class="edge"><title>Node3&#45;&gt;Node4</title>
<path fill="none" stroke="midnightblue" d="M672.264,-234.111C691.048,-220.892 715.256,-203.857 732.047,-192.041"/>
<polygon fill="midnightblue" stroke="midnightblue" points="670.225,-231.266 664.061,-239.883 674.253,-236.99 670.225,-231.266"/>
</g>
<!-- Node3&#45;&gt;Node6 -->
<g id="edge20" class="edge"><title>Node3&#45;&gt;Node6</title>
<path fill="none" stroke="midnightblue" d="M573.479,-242.422C536.707,-234.106 492.189,-220.309 457,-198 421.851,-175.716 392.202,-135.585 377.997,-114.246"/>
<polygon fill="midnightblue" stroke="midnightblue" points="573.116,-245.924 583.631,-244.624 574.6,-239.083 573.116,-245.924"/>
</g>
<!-- Node8 -->
<g id="node8" class="node"><title>Node8</title>
<g id="a_node8"><a xlink:href="_how__to__query_8cpp.html" target="_top" xlink:title="Example: How to query a SoatDIF scene.">
<polygon fill="white" stroke="black" points="1013,-78.5 1013,-119.5 1115,-119.5 1115,-78.5 1013,-78.5"/>
<text text-anchor="start" x="1021" y="-107.5" font-family="Helvetica,sans-Serif" font-size="10.00">/Users/lossius/dev</text>
<text text-anchor="start" x="1021" y="-96.5" font-family="Helvetica,sans-Serif" font-size="10.00">/spatdiflib/examples</text>
<text text-anchor="middle" x="1064" y="-85.5" font-family="Helvetica,sans-Serif" font-size="10.00">/How_to_query.cpp</text>
</a>
</g>
</g>
<!-- Node3&#45;&gt;Node8 -->
<g id="edge23" class="edge"><title>Node3&#45;&gt;Node8</title>
<path fill="none" stroke="midnightblue" d="M714.308,-252.333C860.323,-248.143 1185.66,-234.745 1219,-198 1231.54,-184.176 1229.72,-171.278 1219,-156 1195.74,-122.863 1150.84,-109.249 1115.32,-103.7"/>
<polygon fill="midnightblue" stroke="midnightblue" points="714.009,-248.84 704.111,-252.619 714.206,-255.837 714.009,-248.84"/>
</g>
<!-- Node9 -->
<g id="node9" class="node"><title>Node9</title>
<g id="a_node9"><a xlink:href="sd_loader_test_8cpp.html" target="_top" xlink:title="Example: Test sdLoader.">
<polygon fill="white" stroke="black" points="1192,-78.5 1192,-119.5 1294,-119.5 1294,-78.5 1192,-78.5"/>
<text text-anchor="start" x="1200" y="-107.5" font-family="Helvetica,sans-Serif" font-size="10.00">/Users/lossius/dev</text>
<text text-anchor="start" x="1200" y="-96.5" font-family="Helvetica,sans-Serif" font-size="10.00">/spatdiflib/examples</text>
<text text-anchor="middle" x="1243" y="-85.5" font-family="Helvetica,sans-Serif" font-size="10.00">/sdLoaderTest.cpp</text>
</a>
</g>
</g>
<!-- Node3&#45;&gt;Node9 -->
<g id="edge26" class="edge"><title>Node3&#45;&gt;Node9</title>
<path fill="none" stroke="midnightblue" d="M714.536,-252.426C864.112,-248.375 1202.4,-235.164 1238,-198 1257.68,-177.455 1253.81,-142.01 1248.74,-119.849"/>
<polygon fill="midnightblue" stroke="midnightblue" points="714.004,-248.939 704.1,-252.702 714.189,-255.936 714.004,-248.939"/>
</g>
<!-- Node10 -->
<g id="node10" class="node"><title>Node10</title>
<g id="a_node10"><a xlink:href="sd_saver_test_8cpp.html" target="_top" xlink:title="Example: Test sdSaver.">
<polygon fill="white" stroke="black" points="444,-78.5 444,-119.5 546,-119.5 546,-78.5 444,-78.5"/>
<text text-anchor="start" x="452" y="-107.5" font-family="Helvetica,sans-Serif" font-size="10.00">/Users/lossius/dev</text>
<text text-anchor="start" x="452" y="-96.5" font-family="Helvetica,sans-Serif" font-size="10.00">/spatdiflib/examples</text>
<text text-anchor="middle" x="495" y="-85.5" font-family="Helvetica,sans-Serif" font-size="10.00">/sdSaverTest.cpp</text>
</a>
</g>
</g>
<!-- Node3&#45;&gt;Node10 -->
<g id="edge28" class="edge"><title>Node3&#45;&gt;Node10</title>
<path fill="none" stroke="midnightblue" d="M573.811,-250.794C535.949,-245.043 492.15,-231.027 468,-198 450.917,-174.637 466.802,-140.989 480.426,-119.821"/>
<polygon fill="midnightblue" stroke="midnightblue" points="573.422,-254.273 583.801,-252.145 574.361,-247.336 573.422,-254.273"/>
</g>
<!-- Node11 -->
<g id="node11" class="node"><title>Node11</title>
<g id="a_node11"><a xlink:href="sd_scene_test_8cpp.html" target="_top" xlink:title="Example: Test sdScene.">
<polygon fill="white" stroke="black" points="712,-78.5 712,-119.5 814,-119.5 814,-78.5 712,-78.5"/>
<text text-anchor="start" x="720" y="-107.5" font-family="Helvetica,sans-Serif" font-size="10.00">/Users/lossius/dev</text>
<text text-anchor="start" x="720" y="-96.5" font-family="Helvetica,sans-Serif" font-size="10.00">/spatdiflib/examples</text>
<text text-anchor="middle" x="763" y="-85.5" font-family="Helvetica,sans-Serif" font-size="10.00">/sdSceneTest.cpp</text>
</a>
</g>
</g>
<!-- Node3&#45;&gt;Node11 -->
<g id="edge29" class="edge"><title>Node3&#45;&gt;Node11</title>
<path fill="none" stroke="midnightblue" d="M649.093,-229.872C654.495,-208.696 664.694,-177.939 682,-156 693.541,-141.369 709.939,-129.045 724.965,-119.716"/>
<polygon fill="midnightblue" stroke="midnightblue" points="645.666,-229.157 646.755,-239.696 652.475,-230.778 645.666,-229.157"/>
</g>
<!-- Node12 -->
<g id="node12" class="node"><title>Node12</title>
<g id="a_node12"><a xlink:href="sd_o_s_c_responder_8h.html" target="_top" xlink:title="/Users/lossius/dev\l/spatdiflib/src/sdOSCResponder.h">
<polygon fill="white" stroke="black" points="134.5,-162 134.5,-192 297.5,-192 297.5,-162 134.5,-162"/>
<text text-anchor="start" x="142.5" y="-180" font-family="Helvetica,sans-Serif" font-size="10.00">/Users/lossius/dev</text>
<text text-anchor="middle" x="216" y="-169" font-family="Helvetica,sans-Serif" font-size="10.00">/spatdiflib/src/sdOSCResponder.h</text>
</a>
</g>
</g>
<!-- Node3&#45;&gt;Node12 -->
<g id="edge11" class="edge"><title>Node3&#45;&gt;Node12</title>
<path fill="none" stroke="midnightblue" d="M573.552,-241.491C496.954,-227.889 374.822,-206.202 295.016,-192.031"/>
<polygon fill="midnightblue" stroke="midnightblue" points="573.128,-244.97 583.586,-243.272 574.352,-238.078 573.128,-244.97"/>
</g>
<!-- Node14 -->
<g id="node14" class="node"><title>Node14</title>
<g id="a_node14"><a xlink:href="sd_o_s_c_test_8cpp.html" target="_top" xlink:title="Example: Test sdOSCResponder.">
<polygon fill="white" stroke="black" points="0,-78.5 0,-119.5 102,-119.5 102,-78.5 0,-78.5"/>
<text text-anchor="start" x="8" y="-107.5" font-family="Helvetica,sans-Serif" font-size="10.00">/Users/lossius/dev</text>
<text text-anchor="start" x="8" y="-96.5" font-family="Helvetica,sans-Serif" font-size="10.00">/spatdiflib/examples</text>
<text text-anchor="middle" x="51" y="-85.5" font-family="Helvetica,sans-Serif" font-size="10.00">/sdOSCTest.cpp</text>
</a>
</g>
</g>
<!-- Node3&#45;&gt;Node14 -->
<g id="edge27" class="edge"><title>Node3&#45;&gt;Node14</title>
<path fill="none" stroke="midnightblue" d="M574.013,-242.628C554.014,-239.587 532.174,-236.465 512,-234 426.266,-223.526 200.448,-240.044 125,-198 93.3406,-180.358 71.0964,-142.931 59.724,-119.775"/>
<polygon fill="midnightblue" stroke="midnightblue" points="573.558,-246.099 583.974,-244.159 574.622,-239.18 573.558,-246.099"/>
</g>
<!-- Node15 -->
<g id="node15" class="node"><title>Node15</title>
<g id="a_node15"><a xlink:href="sd_saver_8h.html" target="_top" xlink:title="/Users/lossius/dev\l/spatdiflib/src/sdSaver.h">
<polygon fill="white" stroke="black" points="477.5,-162 477.5,-192 596.5,-192 596.5,-162 477.5,-162"/>
<text text-anchor="start" x="485.5" y="-180" font-family="Helvetica,sans-Serif" font-size="10.00">/Users/lossius/dev</text>
<text text-anchor="middle" x="537" y="-169" font-family="Helvetica,sans-Serif" font-size="10.00">/spatdiflib/src/sdSaver.h</text>
</a>
</g>
</g>
<!-- Node3&#45;&gt;Node15 -->
<g id="edge15" class="edge"><title>Node3&#45;&gt;Node15</title>
<path fill="none" stroke="midnightblue" d="M615.746,-233.932C597.171,-220.739 573.329,-203.804 556.769,-192.041"/>
<polygon fill="midnightblue" stroke="midnightblue" points="613.945,-236.946 624.125,-239.883 617.999,-231.239 613.945,-236.946"/>
</g>
<!-- Node16 -->
<g id="node16" class="node"><title>Node16</title>
<g id="a_node16"><a xlink:href="sd_saver_8cpp.html" target="_top" xlink:title="/Users/lossius/dev\l/spatdiflib/src/sdSaver.cpp">
<polygon fill="white" stroke="black" points="564,-84 564,-114 694,-114 694,-84 564,-84"/>
<text text-anchor="start" x="572" y="-102" font-family="Helvetica,sans-Serif" font-size="10.00">/Users/lossius/dev</text>
<text text-anchor="middle" x="629" y="-91" font-family="Helvetica,sans-Serif" font-size="10.00">/spatdiflib/src/sdSaver.cpp</text>
</a>
</g>
</g>
<!-- Node3&#45;&gt;Node16 -->
<g id="edge21" class="edge"><title>Node3&#45;&gt;Node16</title>
<path fill="none" stroke="midnightblue" d="M641.639,-229.764C638.471,-197.237 632.946,-140.509 630.381,-114.178"/>
<polygon fill="midnightblue" stroke="midnightblue" points="638.163,-230.175 642.616,-239.788 645.13,-229.496 638.163,-230.175"/>
</g>
<!-- Node17 -->
<g id="node17" class="node"><title>Node17</title>
<g id="a_node17"><a xlink:href="sd_scene_8cpp.html" target="_top" xlink:title="/Users/lossius/dev\l/spatdiflib/src/sdScene.cpp">
<polygon fill="white" stroke="black" points="831.5,-162 831.5,-192 962.5,-192 962.5,-162 831.5,-162"/>
<text text-anchor="start" x="839.5" y="-180" font-family="Helvetica,sans-Serif" font-size="10.00">/Users/lossius/dev</text>
<text text-anchor="middle" x="897" y="-169" font-family="Helvetica,sans-Serif" font-size="10.00">/spatdiflib/src/sdScene.cpp</text>
</a>
</g>
</g>
<!-- Node3&#45;&gt;Node17 -->
<g id="edge22" class="edge"><title>Node3&#45;&gt;Node17</title>
<path fill="none" stroke="midnightblue" d="M700.32,-237.082C745.372,-223.548 807.796,-204.796 850.145,-192.075"/>
<polygon fill="midnightblue" stroke="midnightblue" points="699.269,-233.743 690.699,-239.972 701.283,-240.447 699.269,-233.743"/>
</g>
<!-- Node18 -->
<g id="node18" class="node"><title>Node18</title>
<g id="a_node18"><a xlink:href="sd_event_test_8cpp.html" target="_top" xlink:title="Example: Test #stEntityCore.">
<polygon fill="white" stroke="black" points="981,-156.5 981,-197.5 1083,-197.5 1083,-156.5 981,-156.5"/>
<text text-anchor="start" x="989" y="-185.5" font-family="Helvetica,sans-Serif" font-size="10.00">/Users/lossius/dev</text>
<text text-anchor="start" x="989" y="-174.5" font-family="Helvetica,sans-Serif" font-size="10.00">/spatdiflib/examples</text>
<text text-anchor="middle" x="1032" y="-163.5" font-family="Helvetica,sans-Serif" font-size="10.00">/sdEventTest.cpp</text>
</a>
</g>
</g>
<!-- Node3&#45;&gt;Node18 -->
<g id="edge24" class="edge"><title>Node3&#45;&gt;Node18</title>
<path fill="none" stroke="midnightblue" d="M714.188,-245.029C780.828,-235.796 883.531,-219.704 971,-198 974.245,-197.195 977.567,-196.304 980.904,-195.358"/>
<polygon fill="midnightblue" stroke="midnightblue" points="713.649,-241.57 704.218,-246.397 714.6,-248.505 713.649,-241.57"/>
</g>
<!-- Node19 -->
<g id="node19" class="node"><title>Node19</title>
<g id="a_node19"><a xlink:href="sd_extension_test_8cpp.html" target="_top" xlink:title="Example: Test extentions.">
<polygon fill="white" stroke="black" points="1101.5,-156.5 1101.5,-197.5 1210.5,-197.5 1210.5,-156.5 1101.5,-156.5"/>
<text text-anchor="start" x="1109.5" y="-185.5" font-family="Helvetica,sans-Serif" font-size="10.00">/Users/lossius/dev</text>
<text text-anchor="start" x="1109.5" y="-174.5" font-family="Helvetica,sans-Serif" font-size="10.00">/spatdiflib/examples</text>
<text text-anchor="middle" x="1156" y="-163.5" font-family="Helvetica,sans-Serif" font-size="10.00">/sdExtensionTest.cpp</text>
</a>
</g>
</g>
<!-- Node3&#45;&gt;Node19 -->
<g id="edge25" class="edge"><title>Node3&#45;&gt;Node19</title>
<path fill="none" stroke="midnightblue" d="M714.583,-249.093C803.407,-242.025 960.29,-226.572 1092,-198 1095.07,-197.334 1098.21,-196.585 1101.36,-195.78"/>
<polygon fill="midnightblue" stroke="midnightblue" points="714.054,-245.624 704.358,-249.894 714.6,-252.603 714.054,-245.624"/>
</g>
<!-- Node5 -->
<g id="node5" class="node"><title>Node5</title>
<g id="a_node5"><a xlink:href="sd_loader_8cpp.html" target="_top" xlink:title="/Users/lossius/dev\l/spatdiflib/src/sdLoader.cpp">
<polygon fill="white" stroke="black" points="832,-84 832,-114 966,-114 966,-84 832,-84"/>
<text text-anchor="start" x="840" y="-102" font-family="Helvetica,sans-Serif" font-size="10.00">/Users/lossius/dev</text>
<text text-anchor="middle" x="899" y="-91" font-family="Helvetica,sans-Serif" font-size="10.00">/spatdiflib/src/sdLoader.cpp</text>
</a>
</g>
</g>
<!-- Node4&#45;&gt;Node5 -->
<g id="edge4" class="edge"><title>Node4&#45;&gt;Node5</title>
<path fill="none" stroke="midnightblue" d="M788.414,-157.174C814.25,-143.817 848.37,-126.176 871.841,-114.041"/>
<polygon fill="midnightblue" stroke="midnightblue" points="786.581,-154.181 779.305,-161.883 789.796,-160.4 786.581,-154.181"/>
</g>
<!-- Node4&#45;&gt;Node6 -->
<g id="edge5" class="edge"><title>Node4&#45;&gt;Node6</title>
<path fill="none" stroke="midnightblue" d="M680.711,-165.897C616.134,-156.156 518.586,-139.972 435,-120 427.78,-118.275 420.186,-116.212 412.823,-114.077"/>
<polygon fill="midnightblue" stroke="midnightblue" points="680.377,-169.386 690.785,-167.404 681.413,-162.463 680.377,-169.386"/>
</g>
<!-- Node4&#45;&gt;Node8 -->
<g id="edge7" class="edge"><title>Node4&#45;&gt;Node8</title>
<path fill="none" stroke="midnightblue" d="M809.76,-159.248C813.896,-158.125 818.008,-157.032 822,-156 857.594,-146.803 953.121,-125.016 1012.96,-111.49"/>
<polygon fill="midnightblue" stroke="midnightblue" points="808.823,-155.876 800.111,-161.906 810.682,-162.624 808.823,-155.876"/>
</g>
<!-- Node4&#45;&gt;Node9 -->
<g id="edge8" class="edge"><title>Node4&#45;&gt;Node9</title>
<path fill="none" stroke="midnightblue" d="M807.36,-159.308C812.287,-158.088 817.218,-156.962 822,-156 954.519,-129.348 990.199,-139.207 1124,-120 1146.29,-116.8 1170.85,-112.761 1191.83,-109.151"/>
<polygon fill="midnightblue" stroke="midnightblue" points="806.103,-156.018 797.303,-161.918 807.862,-162.793 806.103,-156.018"/>
</g>
<!-- Node4&#45;&gt;Node10 -->
<g id="edge9" class="edge"><title>Node4&#45;&gt;Node10</title>
<path fill="none" stroke="midnightblue" d="M689.847,-159.1C650.967,-148.338 599.911,-133.861 555,-120 552.062,-119.093 549.049,-118.146 546.013,-117.177"/>
<polygon fill="midnightblue" stroke="midnightblue" points="689.395,-162.606 699.966,-161.893 691.257,-155.858 689.395,-162.606"/>
</g>
<!-- Node4&#45;&gt;Node11 -->
<g id="edge10" class="edge"><title>Node4&#45;&gt;Node11</title>
<path fill="none" stroke="midnightblue" d="M755.523,-151.656C757.019,-141.326 758.739,-129.443 760.152,-119.68"/>
<polygon fill="midnightblue" stroke="midnightblue" points="752.038,-151.307 754.069,-161.705 758.965,-152.309 752.038,-151.307"/>
</g>
<!-- Node7 -->
<g id="node7" class="node"><title>Node7</title>
<g id="a_node7"><a xlink:href="_file_with_extension_8cpp.html" target="_top" xlink:title="Example: Examine all functionalities of the sdDate class.">
<polygon fill="white" stroke="black" points="312.5,-0.5 312.5,-41.5 425.5,-41.5 425.5,-0.5 312.5,-0.5"/>
<text text-anchor="start" x="320.5" y="-29.5" font-family="Helvetica,sans-Serif" font-size="10.00">/Users/lossius/dev</text>
<text text-anchor="start" x="320.5" y="-18.5" font-family="Helvetica,sans-Serif" font-size="10.00">/spatdiflib/examples</text>
<text text-anchor="middle" x="369" y="-7.5" font-family="Helvetica,sans-Serif" font-size="10.00">/FileWithExtension.cpp</text>
</a>
</g>
</g>
<!-- Node6&#45;&gt;Node7 -->
<g id="edge6" class="edge"><title>Node6&#45;&gt;Node7</title>
<path fill="none" stroke="midnightblue" d="M369,-73.656C369,-63.3257 369,-51.4425 369,-41.68"/>
<polygon fill="midnightblue" stroke="midnightblue" points="365.5,-73.7049 369,-83.705 372.5,-73.705 365.5,-73.7049"/>
</g>
<!-- Node12&#45;&gt;Node6 -->
<g id="edge12" class="edge"><title>Node12&#45;&gt;Node6</title>
<path fill="none" stroke="midnightblue" d="M253.547,-157.349C280.479,-143.971 316.196,-126.229 340.733,-114.041"/>
<polygon fill="midnightblue" stroke="midnightblue" points="251.818,-154.3 244.42,-161.883 254.933,-160.569 251.818,-154.3"/>
</g>
<!-- Node13 -->
<g id="node13" class="node"><title>Node13</title>
<g id="a_node13"><a xlink:href="sd_o_s_c_responder_8cpp.html" target="_top" xlink:title="/Users/lossius/dev\l/spatdiflib/src/sdOSCResponder.cpp">
<polygon fill="white" stroke="black" points="120,-84 120,-114 294,-114 294,-84 120,-84"/>
<text text-anchor="start" x="128" y="-102" font-family="Helvetica,sans-Serif" font-size="10.00">/Users/lossius/dev</text>
<text text-anchor="middle" x="207" y="-91" font-family="Helvetica,sans-Serif" font-size="10.00">/spatdiflib/src/sdOSCResponder.cpp</text>
</a>
</g>
</g>
<!-- Node12&#45;&gt;Node13 -->
<g id="edge13" class="edge"><title>Node12&#45;&gt;Node13</title>
<path fill="none" stroke="midnightblue" d="M213.109,-151.59C211.649,-139.257 209.928,-124.724 208.685,-114.231"/>
<polygon fill="midnightblue" stroke="midnightblue" points="209.655,-152.186 214.307,-161.705 216.607,-151.363 209.655,-152.186"/>
</g>
<!-- Node12&#45;&gt;Node14 -->
<g id="edge14" class="edge"><title>Node12&#45;&gt;Node14</title>
<path fill="none" stroke="midnightblue" d="M176.169,-157.653C151.215,-146.16 119.076,-131.356 93.6131,-119.628"/>
<polygon fill="midnightblue" stroke="midnightblue" points="174.804,-160.878 185.351,-161.883 177.733,-154.52 174.804,-160.878"/>
</g>
<!-- Node15&#45;&gt;Node6 -->
<g id="edge16" class="edge"><title>Node15&#45;&gt;Node6</title>
<path fill="none" stroke="midnightblue" d="M496.545,-157.699C466.886,-144.282 427.216,-126.336 400.039,-114.041"/>
<polygon fill="midnightblue" stroke="midnightblue" points="495.241,-160.95 505.794,-161.883 498.126,-154.572 495.241,-160.95"/>
</g>
<!-- Node15&#45;&gt;Node10 -->
<g id="edge18" class="edge"><title>Node15&#45;&gt;Node10</title>
<path fill="none" stroke="midnightblue" d="M524.263,-152.952C518.393,-142.33 511.498,-129.854 505.876,-119.68"/>
<polygon fill="midnightblue" stroke="midnightblue" points="521.2,-154.645 529.1,-161.705 527.327,-151.26 521.2,-154.645"/>
</g>
<!-- Node15&#45;&gt;Node11 -->
<g id="edge19" class="edge"><title>Node15&#45;&gt;Node11</title>
<path fill="none" stroke="midnightblue" d="M588.282,-158.755C625.168,-146.351 674.708,-129.691 711.617,-117.279"/>
<polygon fill="midnightblue" stroke="midnightblue" points="587.078,-155.467 578.715,-161.972 589.309,-162.102 587.078,-155.467"/>
</g>
<!-- Node15&#45;&gt;Node16 -->
<g id="edge17" class="edge"><title>Node15&#45;&gt;Node16</title>
<path fill="none" stroke="midnightblue" d="M562.114,-155.253C577.875,-142.234 597.788,-125.784 611.773,-114.231"/>
<polygon fill="midnightblue" stroke="midnightblue" points="559.785,-152.638 554.304,-161.705 564.243,-158.035 559.785,-152.638"/>
</g>
</g>
</svg>
