<?xml version="1.0" encoding="UTF-8" standalone="no"?>
<!DOCTYPE svg PUBLIC "-//W3C//DTD SVG 1.1//EN"
 "http://www.w3.org/Graphics/SVG/1.1/DTD/svg11.dtd">
<!-- Generated by graphviz version 2.34.0 (20131206.1153)
 -->
<!-- Title: /Users/lossius/dev/spatdiflib/src/sdEntityCore.h Pages: 1 -->
<svg width="263pt" height="264pt"
 viewBox="0.00 0.00 263.02 264.00" xmlns="http://www.w3.org/2000/svg" xmlns:xlink="http://www.w3.org/1999/xlink">
<g id="graph0" class="graph" transform="scale(1 1) rotate(0) translate(4 260)">
<title>/Users/lossius/dev/spatdiflib/src/sdEntityCore.h</title>
<polygon fill="white" stroke="white" points="-4,4 -4,-260 259.019,-260 259.019,4 -4,4"/>
<!-- Node1 -->
<g id="node1" class="node"><title>Node1</title>
<polygon fill="#bfbfbf" stroke="black" points="99.5,-225 99.5,-255 236.5,-255 236.5,-225 99.5,-225"/>
<text text-anchor="start" x="107.5" y="-243" font-family="Helvetica,sans-Serif" font-size="10.00">/Users/lossius/dev</text>
<text text-anchor="middle" x="168" y="-232" font-family="Helvetica,sans-Serif" font-size="10.00">/spatdiflib/src/sdEntityCore.h</text>
</g>
<!-- Node2 -->
<g id="node2" class="node"><title>Node2</title>
<polygon fill="white" stroke="#bfbfbf" points="-0.5,-56.5 -0.5,-75.5 28.5,-75.5 28.5,-56.5 -0.5,-56.5"/>
<text text-anchor="middle" x="14" y="-63.5" font-family="Helvetica,sans-Serif" font-size="10.00">set</text>
</g>
<!-- Node1&#45;&gt;Node2 -->
<g id="edge1" class="edge"><title>Node1&#45;&gt;Node2</title>
<path fill="none" stroke="midnightblue" d="M136.168,-224.943C102.277,-208.129 50.1383,-176.56 25,-132 17.0039,-117.826 14.4968,-99.3454 13.848,-85.7143"/>
<polygon fill="midnightblue" stroke="midnightblue" points="17.3455,-85.5393 13.6604,-75.606 10.3467,-85.6692 17.3455,-85.5393"/>
</g>
<!-- Node3 -->
<g id="node3" class="node"><title>Node3</title>
<polygon fill="white" stroke="#bfbfbf" points="199,-0.5 199,-19.5 237,-19.5 237,-0.5 199,-0.5"/>
<text text-anchor="middle" x="218" y="-7.5" font-family="Helvetica,sans-Serif" font-size="10.00">string</text>
</g>
<!-- Node1&#45;&gt;Node3 -->
<g id="edge2" class="edge"><title>Node1&#45;&gt;Node3</title>
<path fill="none" stroke="midnightblue" d="M202.308,-224.834C217.694,-216.54 234.308,-204.422 243,-188 270.893,-135.302 242.838,-62.0104 227.102,-28.7168"/>
<polygon fill="midnightblue" stroke="midnightblue" points="230.24,-27.1674 222.689,-19.7355 223.958,-30.2542 230.24,-27.1674"/>
</g>
<!-- Node4 -->
<g id="node4" class="node"><title>Node4</title>
<g id="a_node4"><a xlink:href="sd_const_8h.html" target="_top" xlink:title="sdConst.h">
<polygon fill="white" stroke="black" points="130,-56.5 130,-75.5 190,-75.5 190,-56.5 130,-56.5"/>
<text text-anchor="middle" x="160" y="-63.5" font-family="Helvetica,sans-Serif" font-size="10.00">sdConst.h</text>
</a>
</g>
</g>
<!-- Node1&#45;&gt;Node4 -->
<g id="edge3" class="edge"><title>Node1&#45;&gt;Node4</title>
<path fill="none" stroke="midnightblue" d="M192.702,-224.904C205.5,-216.111 219.904,-203.514 227,-188 230.697,-179.917 229.566,-176.51 227,-168 216.886,-134.457 191.586,-101.822 175.133,-83.1032"/>
<polygon fill="midnightblue" stroke="midnightblue" points="177.586,-80.5973 168.282,-75.5286 172.394,-85.2929 177.586,-80.5973"/>
</g>
<!-- Node7 -->
<g id="node7" class="node"><title>Node7</title>
<g id="a_node7"><a xlink:href="sd_entity_8h.html" target="_top" xlink:title="sdEntity.h">
<polygon fill="white" stroke="black" points="34,-112.5 34,-131.5 92,-131.5 92,-112.5 34,-112.5"/>
<text text-anchor="middle" x="63" y="-119.5" font-family="Helvetica,sans-Serif" font-size="10.00">sdEntity.h</text>
</a>
</g>
</g>
<!-- Node1&#45;&gt;Node7 -->
<g id="edge7" class="edge"><title>Node1&#45;&gt;Node7</title>
<path fill="none" stroke="midnightblue" d="M149.419,-224.876C137.252,-215.177 121.374,-201.636 109,-188 95.5433,-173.171 82.5883,-154.315 73.8752,-140.735"/>
<polygon fill="midnightblue" stroke="midnightblue" points="76.6166,-138.519 68.3338,-131.912 70.6888,-142.242 76.6166,-138.519"/>
</g>
<!-- Node8 -->
<g id="node8" class="node"><title>Node8</title>
<g id="a_node8"><a xlink:href="sd_entity_extension_8h.html" target="_top" xlink:title="sdEntityExtension.h">
<polygon fill="white" stroke="black" points="118,-168.5 118,-187.5 218,-187.5 218,-168.5 118,-168.5"/>
<text text-anchor="middle" x="168" y="-175.5" font-family="Helvetica,sans-Serif" font-size="10.00">sdEntityExtension.h</text>
</a>
</g>
</g>
<!-- Node1&#45;&gt;Node8 -->
<g id="edge12" class="edge"><title>Node1&#45;&gt;Node8</title>
<path fill="none" stroke="midnightblue" d="M168,-224.781C168,-216.781 168,-206.689 168,-198.017"/>
<polygon fill="midnightblue" stroke="midnightblue" points="171.5,-197.73 168,-187.731 164.5,-197.731 171.5,-197.73"/>
</g>
<!-- Node4&#45;&gt;Node3 -->
<g id="edge4" class="edge"><title>Node4&#45;&gt;Node3</title>
<path fill="none" stroke="midnightblue" d="M169.319,-56.324C177.893,-48.3414 190.812,-36.3128 201.188,-26.6529"/>
<polygon fill="midnightblue" stroke="midnightblue" points="203.578,-29.2098 208.512,-19.8339 198.808,-24.0865 203.578,-29.2098"/>
</g>
<!-- Node5 -->
<g id="node5" class="node"><title>Node5</title>
<polygon fill="white" stroke="#bfbfbf" points="50,-0.5 50,-19.5 102,-19.5 102,-0.5 50,-0.5"/>
<text text-anchor="middle" x="76" y="-7.5" font-family="Helvetica,sans-Serif" font-size="10.00">iostream</text>
</g>
<!-- Node4&#45;&gt;Node5 -->
<g id="edge5" class="edge"><title>Node4&#45;&gt;Node5</title>
<path fill="none" stroke="midnightblue" d="M146.504,-56.324C133.4,-47.9002 113.288,-34.9709 97.8931,-25.0741"/>
<polygon fill="midnightblue" stroke="midnightblue" points="99.767,-22.118 89.4626,-19.6545 95.9817,-28.0063 99.767,-22.118"/>
</g>
<!-- Node6 -->
<g id="node6" class="node"><title>Node6</title>
<polygon fill="white" stroke="#bfbfbf" points="131,-0.5 131,-19.5 181,-19.5 181,-0.5 131,-0.5"/>
<text text-anchor="middle" x="156" y="-7.5" font-family="Helvetica,sans-Serif" font-size="10.00">sstream</text>
</g>
<!-- Node4&#45;&gt;Node6 -->
<g id="edge6" class="edge"><title>Node4&#45;&gt;Node6</title>
<path fill="none" stroke="midnightblue" d="M159.339,-56.083C158.815,-49.0059 158.064,-38.8611 157.406,-29.9865"/>
<polygon fill="midnightblue" stroke="midnightblue" points="160.877,-29.4652 156.648,-19.7511 153.897,-29.9823 160.877,-29.4652"/>
</g>
<!-- Node7&#45;&gt;Node2 -->
<g id="edge8" class="edge"><title>Node7&#45;&gt;Node2</title>
<path fill="none" stroke="midnightblue" d="M54.9086,-112.083C47.8446,-104.298 37.4124,-92.8015 28.8511,-83.3665"/>
<polygon fill="midnightblue" stroke="midnightblue" points="31.2527,-80.8047 21.9408,-75.7511 26.0688,-85.5087 31.2527,-80.8047"/>
</g>
<!-- Node7&#45;&gt;Node3 -->
<g id="edge9" class="edge"><title>Node7&#45;&gt;Node3</title>
<path fill="none" stroke="midnightblue" d="M68.8794,-112.402C78.4657,-98.906 98.6509,-72.5812 121,-56 141.917,-40.4814 169.041,-28.4569 189.286,-20.7576"/>
<polygon fill="midnightblue" stroke="midnightblue" points="190.714,-23.9617 198.895,-17.2296 188.301,-17.3906 190.714,-23.9617"/>
</g>
<!-- Node7&#45;&gt;Node4 -->
<g id="edge11" class="edge"><title>Node7&#45;&gt;Node4</title>
<path fill="none" stroke="midnightblue" d="M78.5847,-112.324C93.9991,-103.743 117.812,-90.486 135.71,-80.5224"/>
<polygon fill="midnightblue" stroke="midnightblue" points="137.419,-83.5767 144.454,-75.6545 134.014,-77.4606 137.419,-83.5767"/>
</g>
<!-- Node7&#45;&gt;Node5 -->
<g id="edge10" class="edge"><title>Node7&#45;&gt;Node5</title>
<path fill="none" stroke="midnightblue" d="M64.0201,-112.368C66.118,-94.617 70.9576,-53.6664 73.8021,-29.5974"/>
<polygon fill="midnightblue" stroke="midnightblue" points="77.2867,-29.9331 74.9847,-19.5914 70.3351,-29.1115 77.2867,-29.9331"/>
</g>
<!-- Node8&#45;&gt;Node3 -->
<g id="edge13" class="edge"><title>Node8&#45;&gt;Node3</title>
<path fill="none" stroke="midnightblue" d="M170.693,-168.365C176.121,-150.93 188.735,-110.262 199,-76 203.692,-60.3383 208.893,-42.5117 212.666,-29.4936"/>
<polygon fill="midnightblue" stroke="midnightblue" points="216.041,-30.4211 215.456,-19.8425 209.316,-28.4769 216.041,-30.4211"/>
</g>
<!-- Node8&#45;&gt;Node4 -->
<g id="edge15" class="edge"><title>Node8&#45;&gt;Node4</title>
<path fill="none" stroke="midnightblue" d="M167.372,-168.368C166.081,-150.617 163.103,-109.666 161.353,-85.5974"/>
<polygon fill="midnightblue" stroke="midnightblue" points="164.841,-85.3112 160.625,-75.5914 157.859,-85.819 164.841,-85.3112"/>
</g>
<!-- Node8&#45;&gt;Node7 -->
<g id="edge16" class="edge"><title>Node8&#45;&gt;Node7</title>
<path fill="none" stroke="midnightblue" d="M151.13,-168.324C134.291,-159.664 108.193,-146.242 88.762,-136.249"/>
<polygon fill="midnightblue" stroke="midnightblue" points="90.3218,-133.116 79.8282,-131.655 87.1204,-139.341 90.3218,-133.116"/>
</g>
<!-- Node9 -->
<g id="node9" class="node"><title>Node9</title>
<polygon fill="white" stroke="#bfbfbf" points="110.5,-112.5 110.5,-131.5 151.5,-131.5 151.5,-112.5 110.5,-112.5"/>
<text text-anchor="middle" x="131" y="-119.5" font-family="Helvetica,sans-Serif" font-size="10.00">vector</text>
</g>
<!-- Node8&#45;&gt;Node9 -->
<g id="edge14" class="edge"><title>Node8&#45;&gt;Node9</title>
<path fill="none" stroke="midnightblue" d="M161.89,-168.083C156.718,-160.534 149.154,-149.495 142.806,-140.23"/>
<polygon fill="midnightblue" stroke="midnightblue" points="145.536,-138.022 136.996,-131.751 139.761,-141.979 145.536,-138.022"/>
</g>
</g>
</svg>
