<?xml version="1.0" encoding="UTF-8" standalone="no"?>
<!DOCTYPE svg PUBLIC "-//W3C//DTD SVG 1.1//EN"
 "http://www.w3.org/Graphics/SVG/1.1/DTD/svg11.dtd">
<!-- Generated by graphviz version 2.34.0 (20131206.1153)
 -->
<!-- Title: /Users/lossius/dev/spatdiflib/src/sdEntityExtensionMedia.h Pages: 1 -->
<svg width="222pt" height="274pt"
 viewBox="0.00 0.00 221.83 274.00" xmlns="http://www.w3.org/2000/svg" xmlns:xlink="http://www.w3.org/1999/xlink">
<g id="graph0" class="graph" transform="scale(1 1) rotate(0) translate(4 270)">
<title>/Users/lossius/dev/spatdiflib/src/sdEntityExtensionMedia.h</title>
<polygon fill="white" stroke="white" points="-4,4 -4,-270 217.831,-270 217.831,4 -4,4"/>
<!-- Node1 -->
<g id="node1" class="node"><title>Node1</title>
<polygon fill="#bfbfbf" stroke="black" points="15.3308,-224.5 15.3308,-265.5 166.331,-265.5 166.331,-224.5 15.3308,-224.5"/>
<text text-anchor="start" x="23.3308" y="-253.5" font-family="Helvetica,sans-Serif" font-size="10.00">/Users/lossius/dev</text>
<text text-anchor="start" x="23.3308" y="-242.5" font-family="Helvetica,sans-Serif" font-size="10.00">/spatdiflib/src/sdEntityExtension</text>
<text text-anchor="middle" x="90.8308" y="-231.5" font-family="Helvetica,sans-Serif" font-size="10.00">Media.h</text>
</g>
<!-- Node2 -->
<g id="node2" class="node"><title>Node2</title>
<polygon fill="white" stroke="#bfbfbf" points="6.83081,-0.5 6.83081,-19.5 44.8308,-19.5 44.8308,-0.5 6.83081,-0.5"/>
<text text-anchor="middle" x="25.8308" y="-7.5" font-family="Helvetica,sans-Serif" font-size="10.00">string</text>
</g>
<!-- Node1&#45;&gt;Node2 -->
<g id="edge1" class="edge"><title>Node1&#45;&gt;Node2</title>
<path fill="none" stroke="midnightblue" d="M65.8875,-224.393C54.4069,-214.423 41.2718,-201.56 31.8308,-188 16.3588,-165.777 13.9831,-158.37 7.83081,-132 0.150377,-99.08 -2.4906,-89.0017 4.83081,-56 6.9548,-46.426 11.3374,-36.4756 15.5521,-28.3735"/>
<polygon fill="midnightblue" stroke="midnightblue" points="18.6529,-29.9989 20.4467,-19.557 12.5327,-26.6012 18.6529,-29.9989"/>
</g>
<!-- Node3 -->
<g id="node3" class="node"><title>Node3</title>
<g id="a_node3"><a xlink:href="sd_const_8h.html" target="_top" xlink:title="sdConst.h">
<polygon fill="white" stroke="black" points="147.831,-56.5 147.831,-75.5 207.831,-75.5 207.831,-56.5 147.831,-56.5"/>
<text text-anchor="middle" x="177.831" y="-63.5" font-family="Helvetica,sans-Serif" font-size="10.00">sdConst.h</text>
</a>
</g>
</g>
<!-- Node1&#45;&gt;Node3 -->
<g id="edge2" class="edge"><title>Node1&#45;&gt;Node3</title>
<path fill="none" stroke="midnightblue" d="M115.774,-224.393C127.255,-214.423 140.39,-201.56 149.831,-188 165.303,-165.777 167.574,-158.345 173.831,-132 177.468,-116.686 178.332,-98.8047 178.364,-85.6776"/>
<polygon fill="midnightblue" stroke="midnightblue" points="181.862,-85.501 178.226,-75.5496 174.862,-85.5963 181.862,-85.501"/>
</g>
<!-- Node6 -->
<g id="node6" class="node"><title>Node6</title>
<g id="a_node6"><a xlink:href="sd_entity_extension_8h.html" target="_top" xlink:title="sdEntityExtension.h">
<polygon fill="white" stroke="black" points="40.8308,-168.5 40.8308,-187.5 140.831,-187.5 140.831,-168.5 40.8308,-168.5"/>
<text text-anchor="middle" x="90.8308" y="-175.5" font-family="Helvetica,sans-Serif" font-size="10.00">sdEntityExtension.h</text>
</a>
</g>
</g>
<!-- Node1&#45;&gt;Node6 -->
<g id="edge6" class="edge"><title>Node1&#45;&gt;Node6</title>
<path fill="none" stroke="midnightblue" d="M90.8308,-224.498C90.8308,-216.065 90.8308,-206.235 90.8308,-197.874"/>
<polygon fill="midnightblue" stroke="midnightblue" points="94.3309,-197.652 90.8308,-187.652 87.3309,-197.653 94.3309,-197.652"/>
</g>
<!-- Node3&#45;&gt;Node2 -->
<g id="edge3" class="edge"><title>Node3&#45;&gt;Node2</title>
<path fill="none" stroke="midnightblue" d="M153.746,-56.4435C126.788,-46.8665 83.1385,-31.3593 54.4585,-21.1704"/>
<polygon fill="midnightblue" stroke="midnightblue" points="55.585,-17.8563 44.9903,-17.8067 53.2416,-24.4524 55.585,-17.8563"/>
</g>
<!-- Node4 -->
<g id="node4" class="node"><title>Node4</title>
<polygon fill="white" stroke="#bfbfbf" points="93.8308,-0.5 93.8308,-19.5 145.831,-19.5 145.831,-0.5 93.8308,-0.5"/>
<text text-anchor="middle" x="119.831" y="-7.5" font-family="Helvetica,sans-Serif" font-size="10.00">iostream</text>
</g>
<!-- Node3&#45;&gt;Node4 -->
<g id="edge4" class="edge"><title>Node3&#45;&gt;Node4</title>
<path fill="none" stroke="midnightblue" d="M168.512,-56.324C159.938,-48.3414 147.019,-36.3128 136.643,-26.6529"/>
<polygon fill="midnightblue" stroke="midnightblue" points="139.023,-24.0865 129.319,-19.8339 134.253,-29.2098 139.023,-24.0865"/>
</g>
<!-- Node5 -->
<g id="node5" class="node"><title>Node5</title>
<polygon fill="white" stroke="#bfbfbf" points="163.831,-0.5 163.831,-19.5 213.831,-19.5 213.831,-0.5 163.831,-0.5"/>
<text text-anchor="middle" x="188.831" y="-7.5" font-family="Helvetica,sans-Serif" font-size="10.00">sstream</text>
</g>
<!-- Node3&#45;&gt;Node5 -->
<g id="edge5" class="edge"><title>Node3&#45;&gt;Node5</title>
<path fill="none" stroke="midnightblue" d="M179.647,-56.083C181.105,-48.9272 183.201,-38.6353 185.023,-29.6911"/>
<polygon fill="midnightblue" stroke="midnightblue" points="188.482,-30.2485 187.048,-19.7511 181.622,-28.8512 188.482,-30.2485"/>
</g>
<!-- Node6&#45;&gt;Node2 -->
<g id="edge7" class="edge"><title>Node6&#45;&gt;Node2</title>
<path fill="none" stroke="midnightblue" d="M66.0805,-168.394C49.7147,-161.313 29.3959,-149.555 18.8308,-132 -0.355625,-100.119 10.304,-54.5482 18.7318,-29.4116"/>
<polygon fill="midnightblue" stroke="midnightblue" points="22.1318,-30.2998 22.2228,-19.7053 15.5449,-27.9307 22.1318,-30.2998"/>
</g>
<!-- Node6&#45;&gt;Node3 -->
<g id="edge9" class="edge"><title>Node6&#45;&gt;Node3</title>
<path fill="none" stroke="midnightblue" d="M107.996,-168.486C122.069,-160.72 141.595,-148.024 153.831,-132 164.315,-118.27 170.589,-99.4891 174.077,-85.6452"/>
<polygon fill="midnightblue" stroke="midnightblue" points="177.513,-86.3175 176.305,-75.7918 170.686,-84.7739 177.513,-86.3175"/>
</g>
<!-- Node7 -->
<g id="node7" class="node"><title>Node7</title>
<polygon fill="white" stroke="#bfbfbf" points="104.331,-112.5 104.331,-131.5 145.331,-131.5 145.331,-112.5 104.331,-112.5"/>
<text text-anchor="middle" x="124.831" y="-119.5" font-family="Helvetica,sans-Serif" font-size="10.00">vector</text>
</g>
<!-- Node6&#45;&gt;Node7 -->
<g id="edge8" class="edge"><title>Node6&#45;&gt;Node7</title>
<path fill="none" stroke="midnightblue" d="M96.4452,-168.083C101.198,-160.534 108.149,-149.495 113.982,-140.23"/>
<polygon fill="midnightblue" stroke="midnightblue" points="116.955,-142.078 119.321,-131.751 111.031,-138.349 116.955,-142.078"/>
</g>
<!-- Node8 -->
<g id="node8" class="node"><title>Node8</title>
<g id="a_node8"><a xlink:href="sd_entity_8h.html" target="_top" xlink:title="sdEntity.h">
<polygon fill="white" stroke="black" points="27.8308,-112.5 27.8308,-131.5 85.8308,-131.5 85.8308,-112.5 27.8308,-112.5"/>
<text text-anchor="middle" x="56.8308" y="-119.5" font-family="Helvetica,sans-Serif" font-size="10.00">sdEntity.h</text>
</a>
</g>
</g>
<!-- Node6&#45;&gt;Node8 -->
<g id="edge10" class="edge"><title>Node6&#45;&gt;Node8</title>
<path fill="none" stroke="midnightblue" d="M85.2164,-168.083C80.4634,-160.534 73.5127,-149.495 67.6792,-140.23"/>
<polygon fill="midnightblue" stroke="midnightblue" points="70.6308,-138.349 62.3408,-131.751 64.7071,-142.078 70.6308,-138.349"/>
</g>
<!-- Node8&#45;&gt;Node2 -->
<g id="edge12" class="edge"><title>Node8&#45;&gt;Node2</title>
<path fill="none" stroke="midnightblue" d="M59.6742,-112.298C63.3628,-99.5493 68.5743,-75.2241 61.8308,-56 58.0457,-45.2094 50.4643,-35.084 43.231,-27.1808"/>
<polygon fill="midnightblue" stroke="midnightblue" points="45.4982,-24.4943 35.993,-19.8145 40.5052,-29.4005 45.4982,-24.4943"/>
</g>
<!-- Node8&#45;&gt;Node3 -->
<g id="edge14" class="edge"><title>Node8&#45;&gt;Node3</title>
<path fill="none" stroke="midnightblue" d="M76.0036,-112.444C95.74,-103.636 126.716,-89.8116 149.324,-79.722"/>
<polygon fill="midnightblue" stroke="midnightblue" points="151.042,-82.788 158.748,-75.5164 148.189,-76.3957 151.042,-82.788"/>
</g>
<!-- Node8&#45;&gt;Node4 -->
<g id="edge13" class="edge"><title>Node8&#45;&gt;Node4</title>
<path fill="none" stroke="midnightblue" d="M61.7743,-112.368C72.1251,-94.2957 96.248,-52.1764 109.918,-28.3074"/>
<polygon fill="midnightblue" stroke="midnightblue" points="112.977,-30.0085 114.91,-19.5914 106.903,-26.5295 112.977,-30.0085"/>
</g>
<!-- Node9 -->
<g id="node9" class="node"><title>Node9</title>
<polygon fill="white" stroke="#bfbfbf" points="24.3308,-56.5 24.3308,-75.5 53.3308,-75.5 53.3308,-56.5 24.3308,-56.5"/>
<text text-anchor="middle" x="38.8308" y="-63.5" font-family="Helvetica,sans-Serif" font-size="10.00">set</text>
</g>
<!-- Node8&#45;&gt;Node9 -->
<g id="edge11" class="edge"><title>Node8&#45;&gt;Node9</title>
<path fill="none" stroke="midnightblue" d="M53.8585,-112.083C51.447,-104.849 47.967,-94.4087 44.9631,-85.3968"/>
<polygon fill="midnightblue" stroke="midnightblue" points="48.2306,-84.1311 41.7478,-75.7511 41.5898,-86.3447 48.2306,-84.1311"/>
</g>
</g>
</svg>
