<?xml version="1.0" encoding="UTF-8" standalone="no"?>
<!DOCTYPE svg PUBLIC "-//W3C//DTD SVG 1.1//EN"
 "http://www.w3.org/Graphics/SVG/1.1/DTD/svg11.dtd">
<!-- Generated by graphviz version 2.34.0 (20131206.1153)
 -->
<!-- Title: /Users/lossius/dev/spatdiflib/src/sdEntity.h Pages: 1 -->
<svg width="1610pt" height="498pt"
 viewBox="0.00 0.00 1610.00 498.00" xmlns="http://www.w3.org/2000/svg" xmlns:xlink="http://www.w3.org/1999/xlink">
<g id="graph0" class="graph" transform="scale(1 1) rotate(0) translate(4 494)">
<title>/Users/lossius/dev/spatdiflib/src/sdEntity.h</title>
<polygon fill="white" stroke="white" points="-4,4 -4,-494 1606,-494 1606,4 -4,4"/>
<!-- Node1 -->
<g id="node1" class="node"><title>Node1</title>
<polygon fill="#bfbfbf" stroke="black" points="1222,-459 1222,-489 1338,-489 1338,-459 1222,-459"/>
<text text-anchor="start" x="1230" y="-477" font-family="Helvetica,sans-Serif" font-size="10.00">/Users/lossius/dev</text>
<text text-anchor="middle" x="1280" y="-466" font-family="Helvetica,sans-Serif" font-size="10.00">/spatdiflib/src/sdEntity.h</text>
</g>
<!-- Node2 -->
<g id="node2" class="node"><title>Node2</title>
<g id="a_node2"><a xlink:href="sd_entity_8cpp.html" target="_top" xlink:title="/Users/lossius/dev\l/spatdiflib/src/sdEntity.cpp">
<polygon fill="white" stroke="black" points="1086,-391 1086,-421 1214,-421 1214,-391 1086,-391"/>
<text text-anchor="start" x="1094" y="-409" font-family="Helvetica,sans-Serif" font-size="10.00">/Users/lossius/dev</text>
<text text-anchor="middle" x="1150" y="-398" font-family="Helvetica,sans-Serif" font-size="10.00">/spatdiflib/src/sdEntity.cpp</text>
</a>
</g>
</g>
<!-- Node1&#45;&gt;Node2 -->
<g id="edge1" class="edge"><title>Node1&#45;&gt;Node2</title>
<path fill="none" stroke="midnightblue" d="M1242.96,-454.197C1222.25,-443.68 1196.85,-430.787 1177.84,-421.135"/>
<polygon fill="midnightblue" stroke="midnightblue" points="1241.61,-457.435 1252.11,-458.841 1244.78,-451.194 1241.61,-457.435"/>
</g>
<!-- Node3 -->
<g id="node3" class="node"><title>Node3</title>
<g id="a_node3"><a xlink:href="sd_entity_core_8h.html" target="_top" xlink:title="/Users/lossius/dev\l/spatdiflib/src/sdEntityCore.h">
<polygon fill="white" stroke="black" points="516.5,-318 516.5,-348 653.5,-348 653.5,-318 516.5,-318"/>
<text text-anchor="start" x="524.5" y="-336" font-family="Helvetica,sans-Serif" font-size="10.00">/Users/lossius/dev</text>
<text text-anchor="middle" x="585" y="-325" font-family="Helvetica,sans-Serif" font-size="10.00">/spatdiflib/src/sdEntityCore.h</text>
</a>
</g>
</g>
<!-- Node1&#45;&gt;Node3 -->
<g id="edge2" class="edge"><title>Node1&#45;&gt;Node3</title>
<path fill="none" stroke="midnightblue" d="M1270.83,-449.771C1261.8,-430.239 1245.99,-403.417 1223,-390 1198.69,-375.813 813.64,-349.031 653.762,-338.456"/>
<polygon fill="midnightblue" stroke="midnightblue" points="1267.63,-451.18 1274.83,-458.948 1274.04,-448.382 1267.63,-451.18"/>
</g>
<!-- Node8 -->
<g id="node8" class="node"><title>Node8</title>
<g id="a_node8"><a xlink:href="sd_main_8h.html" target="_top" xlink:title="/Users/lossius/dev\l/spatdiflib/src/sdMain.h">
<polygon fill="white" stroke="black" points="997,-84 997,-114 1111,-114 1111,-84 997,-84"/>
<text text-anchor="start" x="1005" y="-102" font-family="Helvetica,sans-Serif" font-size="10.00">/Users/lossius/dev</text>
<text text-anchor="middle" x="1054" y="-91" font-family="Helvetica,sans-Serif" font-size="10.00">/spatdiflib/src/sdMain.h</text>
</a>
</g>
</g>
<!-- Node1&#45;&gt;Node8 -->
<g id="edge47" class="edge"><title>Node1&#45;&gt;Node8</title>
<path fill="none" stroke="midnightblue" d="M1280,-448.45C1280,-420.676 1280,-374.086 1280,-334 1280,-334 1280,-334 1280,-254 1280,-209.547 1290.41,-188.425 1260,-156 1239.78,-134.441 1164.79,-118.008 1111.13,-108.683"/>
<polygon fill="midnightblue" stroke="midnightblue" points="1276.5,-448.793 1280,-458.793 1283.5,-448.793 1276.5,-448.793"/>
</g>
<!-- Node18 -->
<g id="node18" class="node"><title>Node18</title>
<g id="a_node18"><a xlink:href="sd_saver_8cpp.html" target="_top" xlink:title="/Users/lossius/dev\l/spatdiflib/src/sdSaver.cpp">
<polygon fill="white" stroke="black" points="1314,-84 1314,-114 1444,-114 1444,-84 1314,-84"/>
<text text-anchor="start" x="1322" y="-102" font-family="Helvetica,sans-Serif" font-size="10.00">/Users/lossius/dev</text>
<text text-anchor="middle" x="1379" y="-91" font-family="Helvetica,sans-Serif" font-size="10.00">/spatdiflib/src/sdSaver.cpp</text>
</a>
</g>
</g>
<!-- Node1&#45;&gt;Node18 -->
<g id="edge48" class="edge"><title>Node1&#45;&gt;Node18</title>
<path fill="none" stroke="midnightblue" d="M1348.38,-472.496C1442.91,-467.779 1602,-443.566 1602,-334 1602,-334 1602,-334 1602,-254 1602,-207.599 1599.8,-187.794 1566,-156 1533.17,-125.116 1483.98,-111.208 1444.29,-104.972"/>
<polygon fill="midnightblue" stroke="midnightblue" points="1348.15,-469.003 1338.31,-472.937 1348.46,-475.996 1348.15,-469.003"/>
</g>
<!-- Node22 -->
<g id="node22" class="node"><title>Node22</title>
<g id="a_node22"><a xlink:href="sd_entity_extension_8h.html" target="_top" xlink:title="/Users/lossius/dev\l/spatdiflib/src/sdEntityExtension.h">
<polygon fill="white" stroke="black" points="1308,-391 1308,-421 1466,-421 1466,-391 1308,-391"/>
<text text-anchor="start" x="1316" y="-409" font-family="Helvetica,sans-Serif" font-size="10.00">/Users/lossius/dev</text>
<text text-anchor="middle" x="1387" y="-398" font-family="Helvetica,sans-Serif" font-size="10.00">/spatdiflib/src/sdEntityExtension.h</text>
</a>
</g>
</g>
<!-- Node1&#45;&gt;Node22 -->
<g id="edge37" class="edge"><title>Node1&#45;&gt;Node22</title>
<path fill="none" stroke="midnightblue" d="M1311.87,-453.339C1328.66,-442.986 1348.86,-430.526 1364.08,-421.135"/>
<polygon fill="midnightblue" stroke="midnightblue" points="1309.63,-450.613 1302.95,-458.841 1313.3,-456.57 1309.63,-450.613"/>
</g>
<!-- Node4 -->
<g id="node4" class="node"><title>Node4</title>
<g id="a_node4"><a xlink:href="sd_entity_core_8cpp.html" target="_top" xlink:title="/Users/lossius/dev\l/spatdiflib/src/sdEntityCore.cpp">
<polygon fill="white" stroke="black" points="1066,-240 1066,-270 1214,-270 1214,-240 1066,-240"/>
<text text-anchor="start" x="1074" y="-258" font-family="Helvetica,sans-Serif" font-size="10.00">/Users/lossius/dev</text>
<text text-anchor="middle" x="1140" y="-247" font-family="Helvetica,sans-Serif" font-size="10.00">/spatdiflib/src/sdEntityCore.cpp</text>
</a>
</g>
</g>
<!-- Node3&#45;&gt;Node4 -->
<g id="edge3" class="edge"><title>Node3&#45;&gt;Node4</title>
<path fill="none" stroke="midnightblue" d="M663.967,-325.061C757.124,-316.292 916.476,-299.461 1052,-276 1061.73,-274.316 1071.99,-272.25 1081.95,-270.092"/>
<polygon fill="midnightblue" stroke="midnightblue" points="663.406,-321.598 653.775,-326.013 664.057,-328.568 663.406,-321.598"/>
</g>
<!-- Node5 -->
<g id="node5" class="node"><title>Node5</title>
<g id="a_node5"><a xlink:href="sd_scene_8h.html" target="_top" xlink:title="/Users/lossius/dev\l/spatdiflib/src/sdScene.h">
<polygon fill="white" stroke="black" points="525,-240 525,-270 645,-270 645,-240 525,-240"/>
<text text-anchor="start" x="533" y="-258" font-family="Helvetica,sans-Serif" font-size="10.00">/Users/lossius/dev</text>
<text text-anchor="middle" x="585" y="-247" font-family="Helvetica,sans-Serif" font-size="10.00">/spatdiflib/src/sdScene.h</text>
</a>
</g>
</g>
<!-- Node3&#45;&gt;Node5 -->
<g id="edge4" class="edge"><title>Node3&#45;&gt;Node5</title>
<path fill="none" stroke="midnightblue" d="M585,-307.59C585,-295.257 585,-280.724 585,-270.231"/>
<polygon fill="midnightblue" stroke="midnightblue" points="581.5,-307.705 585,-317.705 588.5,-307.705 581.5,-307.705"/>
</g>
<!-- Node3&#45;&gt;Node8 -->
<g id="edge32" class="edge"><title>Node3&#45;&gt;Node8</title>
<path fill="none" stroke="midnightblue" d="M663.925,-330.188C762.588,-323.571 930.236,-297.266 1027,-198 1049.42,-175 1053.61,-135.171 1054.16,-114.066"/>
<polygon fill="midnightblue" stroke="midnightblue" points="663.48,-326.709 653.715,-330.819 663.912,-333.695 663.48,-326.709"/>
</g>
<!-- Node11 -->
<g id="node11" class="node"><title>Node11</title>
<g id="a_node11"><a xlink:href="sd_loader_test_8cpp.html" target="_top" xlink:title="Example: Test sdLoader.">
<polygon fill="white" stroke="black" points="0,-78.5 0,-119.5 102,-119.5 102,-78.5 0,-78.5"/>
<text text-anchor="start" x="8" y="-107.5" font-family="Helvetica,sans-Serif" font-size="10.00">/Users/lossius/dev</text>
<text text-anchor="start" x="8" y="-96.5" font-family="Helvetica,sans-Serif" font-size="10.00">/spatdiflib/examples</text>
<text text-anchor="middle" x="51" y="-85.5" font-family="Helvetica,sans-Serif" font-size="10.00">/sdLoaderTest.cpp</text>
</a>
</g>
</g>
<!-- Node3&#45;&gt;Node11 -->
<g id="edge34" class="edge"><title>Node3&#45;&gt;Node11</title>
<path fill="none" stroke="midnightblue" d="M506.141,-329.467C389.37,-324.59 177.048,-311.072 110,-276 68.9879,-254.547 57.3967,-241.282 41,-198 31.2455,-172.251 37.7156,-140.128 43.8609,-119.833"/>
<polygon fill="midnightblue" stroke="midnightblue" points="506.312,-332.977 516.446,-329.886 506.596,-325.983 506.312,-332.977"/>
</g>
<!-- Node12 -->
<g id="node12" class="node"><title>Node12</title>
<g id="a_node12"><a xlink:href="sd_saver_test_8cpp.html" target="_top" xlink:title="Example: Test sdSaver.">
<polygon fill="white" stroke="black" points="392,-78.5 392,-119.5 494,-119.5 494,-78.5 392,-78.5"/>
<text text-anchor="start" x="400" y="-107.5" font-family="Helvetica,sans-Serif" font-size="10.00">/Users/lossius/dev</text>
<text text-anchor="start" x="400" y="-96.5" font-family="Helvetica,sans-Serif" font-size="10.00">/spatdiflib/examples</text>
<text text-anchor="middle" x="443" y="-85.5" font-family="Helvetica,sans-Serif" font-size="10.00">/sdSaverTest.cpp</text>
</a>
</g>
</g>
<!-- Node3&#45;&gt;Node12 -->
<g id="edge35" class="edge"><title>Node3&#45;&gt;Node12</title>
<path fill="none" stroke="midnightblue" d="M506.308,-323.963C373.374,-308.531 113.712,-269.746 62,-198 -2.01881,-109.179 113.921,-179.244 383,-120 385.895,-119.363 388.847,-118.637 391.812,-117.849"/>
<polygon fill="midnightblue" stroke="midnightblue" points="506.101,-327.462 516.434,-325.122 506.897,-320.508 506.101,-327.462"/>
</g>
<!-- Node13 -->
<g id="node13" class="node"><title>Node13</title>
<g id="a_node13"><a xlink:href="sd_scene_test_8cpp.html" target="_top" xlink:title="Example: Test sdScene.">
<polygon fill="white" stroke="black" points="512,-78.5 512,-119.5 614,-119.5 614,-78.5 512,-78.5"/>
<text text-anchor="start" x="520" y="-107.5" font-family="Helvetica,sans-Serif" font-size="10.00">/Users/lossius/dev</text>
<text text-anchor="start" x="520" y="-96.5" font-family="Helvetica,sans-Serif" font-size="10.00">/spatdiflib/examples</text>
<text text-anchor="middle" x="563" y="-85.5" font-family="Helvetica,sans-Serif" font-size="10.00">/sdSceneTest.cpp</text>
</a>
</g>
</g>
<!-- Node3&#45;&gt;Node13 -->
<g id="edge36" class="edge"><title>Node3&#45;&gt;Node13</title>
<path fill="none" stroke="midnightblue" d="M549.169,-312.225C536.229,-303.05 523.075,-290.854 516,-276 493.066,-227.85 497.756,-206.116 516,-156 521.036,-142.165 531.159,-129.37 540.724,-119.513"/>
<polygon fill="midnightblue" stroke="midnightblue" points="547.311,-315.193 557.576,-317.816 551.188,-309.364 547.311,-315.193"/>
</g>
<!-- Node21 -->
<g id="node21" class="node"><title>Node21</title>
<g id="a_node21"><a xlink:href="sd_extension_test_8cpp.html" target="_top" xlink:title="Example: Test extentions.">
<polygon fill="white" stroke="black" points="71.5,-156.5 71.5,-197.5 180.5,-197.5 180.5,-156.5 71.5,-156.5"/>
<text text-anchor="start" x="79.5" y="-185.5" font-family="Helvetica,sans-Serif" font-size="10.00">/Users/lossius/dev</text>
<text text-anchor="start" x="79.5" y="-174.5" font-family="Helvetica,sans-Serif" font-size="10.00">/spatdiflib/examples</text>
<text text-anchor="middle" x="126" y="-163.5" font-family="Helvetica,sans-Serif" font-size="10.00">/sdExtensionTest.cpp</text>
</a>
</g>
</g>
<!-- Node3&#45;&gt;Node21 -->
<g id="edge33" class="edge"><title>Node3&#45;&gt;Node21</title>
<path fill="none" stroke="midnightblue" d="M533.359,-314.674C446.03,-285.374 269.989,-226.31 180.661,-196.339"/>
<polygon fill="midnightblue" stroke="midnightblue" points="532.456,-318.063 543.05,-317.925 534.683,-311.426 532.456,-318.063"/>
</g>
<!-- Node6 -->
<g id="node6" class="node"><title>Node6</title>
<g id="a_node6"><a xlink:href="sd_loader_8h.html" target="_top" xlink:title="/Users/lossius/dev\l/spatdiflib/src/sdLoader.h">
<polygon fill="white" stroke="black" points="275,-162 275,-192 397,-192 397,-162 275,-162"/>
<text text-anchor="start" x="283" y="-180" font-family="Helvetica,sans-Serif" font-size="10.00">/Users/lossius/dev</text>
<text text-anchor="middle" x="336" y="-169" font-family="Helvetica,sans-Serif" font-size="10.00">/spatdiflib/src/sdLoader.h</text>
</a>
</g>
</g>
<!-- Node5&#45;&gt;Node6 -->
<g id="edge5" class="edge"><title>Node5&#45;&gt;Node6</title>
<path fill="none" stroke="midnightblue" d="M529.291,-236.996C484.974,-223.47 423.706,-204.77 382.114,-192.075"/>
<polygon fill="midnightblue" stroke="midnightblue" points="528.453,-240.4 539.039,-239.972 530.497,-233.705 528.453,-240.4"/>
</g>
<!-- Node5&#45;&gt;Node8 -->
<g id="edge22" class="edge"><title>Node5&#45;&gt;Node8</title>
<path fill="none" stroke="midnightblue" d="M655.302,-251.715C757.682,-247.184 941.543,-234.14 996,-198 1026.31,-177.885 1043.01,-136.058 1050.01,-114.122"/>
<polygon fill="midnightblue" stroke="midnightblue" points="654.892,-248.229 645.05,-252.152 655.191,-255.223 654.892,-248.229"/>
</g>
<!-- Node10 -->
<g id="node10" class="node"><title>Node10</title>
<g id="a_node10"><a xlink:href="_how__to__query_8cpp.html" target="_top" xlink:title="Example: How to query a SoatDIF scene.">
<polygon fill="white" stroke="black" points="120,-78.5 120,-119.5 222,-119.5 222,-78.5 120,-78.5"/>
<text text-anchor="start" x="128" y="-107.5" font-family="Helvetica,sans-Serif" font-size="10.00">/Users/lossius/dev</text>
<text text-anchor="start" x="128" y="-96.5" font-family="Helvetica,sans-Serif" font-size="10.00">/spatdiflib/examples</text>
<text text-anchor="middle" x="171" y="-85.5" font-family="Helvetica,sans-Serif" font-size="10.00">/How_to_query.cpp</text>
</a>
</g>
</g>
<!-- Node5&#45;&gt;Node10 -->
<g id="edge25" class="edge"><title>Node5&#45;&gt;Node10</title>
<path fill="none" stroke="midnightblue" d="M514.618,-253.936C447.166,-251.134 344.327,-239.514 266,-198 261.263,-195.489 215.735,-147.539 189.464,-119.659"/>
<polygon fill="midnightblue" stroke="midnightblue" points="514.598,-257.437 524.718,-254.301 514.851,-250.442 514.598,-257.437"/>
</g>
<!-- Node5&#45;&gt;Node11 -->
<g id="edge28" class="edge"><title>Node5&#45;&gt;Node11</title>
<path fill="none" stroke="midnightblue" d="M514.457,-249.121C423.532,-241.812 271.372,-225.817 223,-198 202.18,-186.028 208.294,-170.302 189,-156 174.564,-145.299 135.12,-129.709 102.081,-117.694"/>
<polygon fill="midnightblue" stroke="midnightblue" points="514.443,-252.631 524.687,-249.928 514.993,-245.652 514.443,-252.631"/>
</g>
<!-- Node5&#45;&gt;Node12 -->
<g id="edge30" class="edge"><title>Node5&#45;&gt;Node12</title>
<path fill="none" stroke="midnightblue" d="M556.942,-233.787C543.846,-223.73 528.441,-210.969 516,-198 492.061,-173.045 469.012,-140.138 455.424,-119.523"/>
<polygon fill="midnightblue" stroke="midnightblue" points="555.067,-236.757 565.16,-239.981 559.281,-231.167 555.067,-236.757"/>
</g>
<!-- Node5&#45;&gt;Node13 -->
<g id="edge31" class="edge"><title>Node5&#45;&gt;Node13</title>
<path fill="none" stroke="midnightblue" d="M554.121,-233.598C542.733,-224.247 531.123,-212.091 525,-198 517.56,-180.88 519.518,-173.843 525,-156 529.072,-142.747 537.464,-129.814 545.328,-119.721"/>
<polygon fill="midnightblue" stroke="midnightblue" points="552.236,-236.564 562.293,-239.898 556.51,-231.021 552.236,-236.564"/>
</g>
<!-- Node14 -->
<g id="node14" class="node"><title>Node14</title>
<g id="a_node14"><a xlink:href="sd_o_s_c_responder_8h.html" target="_top" xlink:title="/Users/lossius/dev\l/spatdiflib/src/sdOSCResponder.h">
<polygon fill="white" stroke="black" points="824.5,-162 824.5,-192 987.5,-192 987.5,-162 824.5,-162"/>
<text text-anchor="start" x="832.5" y="-180" font-family="Helvetica,sans-Serif" font-size="10.00">/Users/lossius/dev</text>
<text text-anchor="middle" x="906" y="-169" font-family="Helvetica,sans-Serif" font-size="10.00">/spatdiflib/src/sdOSCResponder.h</text>
</a>
</g>
</g>
<!-- Node5&#45;&gt;Node14 -->
<g id="edge13" class="edge"><title>Node5&#45;&gt;Node14</title>
<path fill="none" stroke="midnightblue" d="M654.328,-237.586C711.732,-223.995 792.418,-204.892 846.824,-192.011"/>
<polygon fill="midnightblue" stroke="midnightblue" points="653.175,-234.262 644.25,-239.972 654.788,-241.074 653.175,-234.262"/>
</g>
<!-- Node16 -->
<g id="node16" class="node"><title>Node16</title>
<g id="a_node16"><a xlink:href="sd_o_s_c_test_8cpp.html" target="_top" xlink:title="Example: Test sdOSCResponder.">
<polygon fill="white" stroke="black" points="650,-78.5 650,-119.5 752,-119.5 752,-78.5 650,-78.5"/>
<text text-anchor="start" x="658" y="-107.5" font-family="Helvetica,sans-Serif" font-size="10.00">/Users/lossius/dev</text>
<text text-anchor="start" x="658" y="-96.5" font-family="Helvetica,sans-Serif" font-size="10.00">/spatdiflib/examples</text>
<text text-anchor="middle" x="701" y="-85.5" font-family="Helvetica,sans-Serif" font-size="10.00">/sdOSCTest.cpp</text>
</a>
</g>
</g>
<!-- Node5&#45;&gt;Node16 -->
<g id="edge29" class="edge"><title>Node5&#45;&gt;Node16</title>
<path fill="none" stroke="midnightblue" d="M568.738,-231.202C555.891,-210.128 542.49,-178.73 558,-156 568.895,-140.033 613.325,-124.188 649.805,-113.449"/>
<polygon fill="midnightblue" stroke="midnightblue" points="565.94,-233.321 574.309,-239.818 571.818,-229.52 565.94,-233.321"/>
</g>
<!-- Node17 -->
<g id="node17" class="node"><title>Node17</title>
<g id="a_node17"><a xlink:href="sd_saver_8h.html" target="_top" xlink:title="/Users/lossius/dev\l/spatdiflib/src/sdSaver.h">
<polygon fill="white" stroke="black" points="687.5,-162 687.5,-192 806.5,-192 806.5,-162 687.5,-162"/>
<text text-anchor="start" x="695.5" y="-180" font-family="Helvetica,sans-Serif" font-size="10.00">/Users/lossius/dev</text>
<text text-anchor="middle" x="747" y="-169" font-family="Helvetica,sans-Serif" font-size="10.00">/spatdiflib/src/sdSaver.h</text>
</a>
</g>
</g>
<!-- Node5&#45;&gt;Node17 -->
<g id="edge17" class="edge"><title>Node5&#45;&gt;Node17</title>
<path fill="none" stroke="midnightblue" d="M624.382,-235.524C652.941,-222.126 690.976,-204.283 717.07,-192.041"/>
<polygon fill="midnightblue" stroke="midnightblue" points="622.658,-232.467 615.091,-239.883 625.631,-238.804 622.658,-232.467"/>
</g>
<!-- Node5&#45;&gt;Node18 -->
<g id="edge23" class="edge"><title>Node5&#45;&gt;Node18</title>
<path fill="none" stroke="midnightblue" d="M655.477,-252.255C743.978,-248.444 899.652,-236.346 1027,-198 1067.35,-185.851 1072.17,-169.767 1112,-156 1179.03,-132.827 1259,-117.602 1313.84,-108.957"/>
<polygon fill="midnightblue" stroke="midnightblue" points="655.136,-248.766 645.287,-252.67 655.421,-255.76 655.136,-248.766"/>
</g>
<!-- Node19 -->
<g id="node19" class="node"><title>Node19</title>
<g id="a_node19"><a xlink:href="sd_scene_8cpp.html" target="_top" xlink:title="/Users/lossius/dev\l/spatdiflib/src/sdScene.cpp">
<polygon fill="white" stroke="black" points="1120.5,-162 1120.5,-192 1251.5,-192 1251.5,-162 1120.5,-162"/>
<text text-anchor="start" x="1128.5" y="-180" font-family="Helvetica,sans-Serif" font-size="10.00">/Users/lossius/dev</text>
<text text-anchor="middle" x="1186" y="-169" font-family="Helvetica,sans-Serif" font-size="10.00">/spatdiflib/src/sdScene.cpp</text>
</a>
</g>
</g>
<!-- Node5&#45;&gt;Node19 -->
<g id="edge24" class="edge"><title>Node5&#45;&gt;Node19</title>
<path fill="none" stroke="midnightblue" d="M655.183,-249.543C755.654,-242.464 946.02,-226.455 1106,-198 1115.16,-196.37 1124.83,-194.279 1134.15,-192.065"/>
<polygon fill="midnightblue" stroke="midnightblue" points="654.887,-246.055 645.155,-250.241 655.373,-253.038 654.887,-246.055"/>
</g>
<!-- Node20 -->
<g id="node20" class="node"><title>Node20</title>
<g id="a_node20"><a xlink:href="sd_event_test_8cpp.html" target="_top" xlink:title="Example: Test #stEntityCore.">
<polygon fill="white" stroke="black" points="567,-156.5 567,-197.5 669,-197.5 669,-156.5 567,-156.5"/>
<text text-anchor="start" x="575" y="-185.5" font-family="Helvetica,sans-Serif" font-size="10.00">/Users/lossius/dev</text>
<text text-anchor="start" x="575" y="-174.5" font-family="Helvetica,sans-Serif" font-size="10.00">/spatdiflib/examples</text>
<text text-anchor="middle" x="618" y="-163.5" font-family="Helvetica,sans-Serif" font-size="10.00">/sdEventTest.cpp</text>
</a>
</g>
</g>
<!-- Node5&#45;&gt;Node20 -->
<g id="edge26" class="edge"><title>Node5&#45;&gt;Node20</title>
<path fill="none" stroke="midnightblue" d="M595.288,-230.306C599.838,-219.827 605.126,-207.648 609.455,-197.68"/>
<polygon fill="midnightblue" stroke="midnightblue" points="591.98,-229.138 591.207,-239.705 598.4,-231.926 591.98,-229.138"/>
</g>
<!-- Node5&#45;&gt;Node21 -->
<g id="edge27" class="edge"><title>Node5&#45;&gt;Node21</title>
<path fill="none" stroke="midnightblue" d="M514.485,-246.872C435.967,-238.241 305.548,-221.836 195,-198 190.367,-197.001 185.589,-195.858 180.811,-194.636"/>
<polygon fill="midnightblue" stroke="midnightblue" points="514.421,-250.385 524.741,-247.987 515.178,-243.426 514.421,-250.385"/>
</g>
<!-- Node7 -->
<g id="node7" class="node"><title>Node7</title>
<g id="a_node7"><a xlink:href="sd_loader_8cpp.html" target="_top" xlink:title="/Users/lossius/dev\l/spatdiflib/src/sdLoader.cpp">
<polygon fill="white" stroke="black" points="240,-84 240,-114 374,-114 374,-84 240,-84"/>
<text text-anchor="start" x="248" y="-102" font-family="Helvetica,sans-Serif" font-size="10.00">/Users/lossius/dev</text>
<text text-anchor="middle" x="307" y="-91" font-family="Helvetica,sans-Serif" font-size="10.00">/spatdiflib/src/sdLoader.cpp</text>
</a>
</g>
</g>
<!-- Node6&#45;&gt;Node7 -->
<g id="edge6" class="edge"><title>Node6&#45;&gt;Node7</title>
<path fill="none" stroke="midnightblue" d="M326.97,-152.334C322.204,-139.845 316.515,-124.936 312.43,-114.231"/>
<polygon fill="midnightblue" stroke="midnightblue" points="323.71,-153.61 330.545,-161.705 330.25,-151.114 323.71,-153.61"/>
</g>
<!-- Node6&#45;&gt;Node8 -->
<g id="edge7" class="edge"><title>Node6&#45;&gt;Node8</title>
<path fill="none" stroke="midnightblue" d="M407.44,-169.448C450.952,-165.487 507.676,-160.373 558,-156 749.06,-139.396 799.631,-156.008 988,-120 995.997,-118.471 1004.4,-116.344 1012.43,-114.043"/>
<polygon fill="midnightblue" stroke="midnightblue" points="406.881,-165.985 397.239,-170.378 407.516,-172.956 406.881,-165.985"/>
</g>
<!-- Node6&#45;&gt;Node10 -->
<g id="edge9" class="edge"><title>Node6&#45;&gt;Node10</title>
<path fill="none" stroke="midnightblue" d="M296.169,-157.653C271.215,-146.16 239.076,-131.356 213.613,-119.628"/>
<polygon fill="midnightblue" stroke="midnightblue" points="294.804,-160.878 305.351,-161.883 297.733,-154.52 294.804,-160.878"/>
</g>
<!-- Node6&#45;&gt;Node11 -->
<g id="edge10" class="edge"><title>Node6&#45;&gt;Node11</title>
<path fill="none" stroke="midnightblue" d="M264.701,-159.754C220.264,-149.258 162.03,-134.831 111,-120 108.153,-119.173 105.239,-118.297 102.305,-117.393"/>
<polygon fill="midnightblue" stroke="midnightblue" points="264.002,-163.185 274.538,-162.066 265.604,-156.37 264.002,-163.185"/>
</g>
<!-- Node6&#45;&gt;Node12 -->
<g id="edge11" class="edge"><title>Node6&#45;&gt;Node12</title>
<path fill="none" stroke="midnightblue" d="M364.183,-155.982C379.928,-144.799 399.475,-130.915 415.164,-119.771"/>
<polygon fill="midnightblue" stroke="midnightblue" points="362.001,-153.239 355.875,-161.883 366.055,-158.946 362.001,-153.239"/>
</g>
<!-- Node6&#45;&gt;Node13 -->
<g id="edge12" class="edge"><title>Node6&#45;&gt;Node13</title>
<path fill="none" stroke="midnightblue" d="M387.543,-158.743C424.725,-146.295 474.698,-129.564 511.801,-117.142"/>
<polygon fill="midnightblue" stroke="midnightblue" points="386.271,-155.478 377.9,-161.972 388.494,-162.116 386.271,-155.478"/>
</g>
<!-- Node9 -->
<g id="node9" class="node"><title>Node9</title>
<g id="a_node9"><a xlink:href="_file_with_extension_8cpp.html" target="_top" xlink:title="Example: Examine all functionalities of the sdDate class.">
<polygon fill="white" stroke="black" points="997.5,-0.5 997.5,-41.5 1110.5,-41.5 1110.5,-0.5 997.5,-0.5"/>
<text text-anchor="start" x="1005.5" y="-29.5" font-family="Helvetica,sans-Serif" font-size="10.00">/Users/lossius/dev</text>
<text text-anchor="start" x="1005.5" y="-18.5" font-family="Helvetica,sans-Serif" font-size="10.00">/spatdiflib/examples</text>
<text text-anchor="middle" x="1054" y="-7.5" font-family="Helvetica,sans-Serif" font-size="10.00">/FileWithExtension.cpp</text>
</a>
</g>
</g>
<!-- Node8&#45;&gt;Node9 -->
<g id="edge8" class="edge"><title>Node8&#45;&gt;Node9</title>
<path fill="none" stroke="midnightblue" d="M1054,-73.656C1054,-63.3257 1054,-51.4425 1054,-41.68"/>
<polygon fill="midnightblue" stroke="midnightblue" points="1050.5,-73.7049 1054,-83.705 1057.5,-73.705 1050.5,-73.7049"/>
</g>
<!-- Node14&#45;&gt;Node8 -->
<g id="edge14" class="edge"><title>Node14&#45;&gt;Node8</title>
<path fill="none" stroke="midnightblue" d="M942.661,-157.174C968.673,-143.817 1003.03,-126.176 1026.66,-114.041"/>
<polygon fill="midnightblue" stroke="midnightblue" points="940.788,-154.202 933.491,-161.883 943.985,-160.428 940.788,-154.202"/>
</g>
<!-- Node15 -->
<g id="node15" class="node"><title>Node15</title>
<g id="a_node15"><a xlink:href="sd_o_s_c_responder_8cpp.html" target="_top" xlink:title="/Users/lossius/dev\l/spatdiflib/src/sdOSCResponder.cpp">
<polygon fill="white" stroke="black" points="805,-84 805,-114 979,-114 979,-84 805,-84"/>
<text text-anchor="start" x="813" y="-102" font-family="Helvetica,sans-Serif" font-size="10.00">/Users/lossius/dev</text>
<text text-anchor="middle" x="892" y="-91" font-family="Helvetica,sans-Serif" font-size="10.00">/spatdiflib/src/sdOSCResponder.cpp</text>
</a>
</g>
</g>
<!-- Node14&#45;&gt;Node15 -->
<g id="edge15" class="edge"><title>Node14&#45;&gt;Node15</title>
<path fill="none" stroke="midnightblue" d="M901.503,-151.59C899.231,-139.257 896.554,-124.724 894.621,-114.231"/>
<polygon fill="midnightblue" stroke="midnightblue" points="898.113,-152.505 903.367,-161.705 904.997,-151.236 898.113,-152.505"/>
</g>
<!-- Node14&#45;&gt;Node16 -->
<g id="edge16" class="edge"><title>Node14&#45;&gt;Node16</title>
<path fill="none" stroke="midnightblue" d="M858.373,-158.343C826.496,-146.525 784.58,-130.986 752.022,-118.915"/>
<polygon fill="midnightblue" stroke="midnightblue" points="857.328,-161.689 867.922,-161.883 859.762,-155.125 857.328,-161.689"/>
</g>
<!-- Node17&#45;&gt;Node8 -->
<g id="edge18" class="edge"><title>Node17&#45;&gt;Node8</title>
<path fill="none" stroke="midnightblue" d="M803.483,-159.253C807.709,-158.115 811.916,-157.018 816,-156 891.783,-137.115 912.332,-139.344 988,-120 994.96,-118.221 1002.28,-116.177 1009.42,-114.09"/>
<polygon fill="midnightblue" stroke="midnightblue" points="802.349,-155.935 793.637,-161.963 804.207,-162.683 802.349,-155.935"/>
</g>
<!-- Node17&#45;&gt;Node12 -->
<g id="edge20" class="edge"><title>Node17&#45;&gt;Node12</title>
<path fill="none" stroke="midnightblue" d="M690.521,-159.237C686.294,-158.103 682.086,-157.011 678,-156 600.917,-136.932 579.69,-140.592 503,-120 500.137,-119.231 497.21,-118.402 494.265,-117.534"/>
<polygon fill="midnightblue" stroke="midnightblue" points="689.799,-162.668 700.369,-161.941 691.653,-155.918 689.799,-162.668"/>
</g>
<!-- Node17&#45;&gt;Node13 -->
<g id="edge21" class="edge"><title>Node17&#45;&gt;Node13</title>
<path fill="none" stroke="midnightblue" d="M703.316,-157.956C675.387,-146.421 639.165,-131.46 610.52,-119.628"/>
<polygon fill="midnightblue" stroke="midnightblue" points="702.243,-161.3 712.822,-161.883 704.916,-154.831 702.243,-161.3"/>
</g>
<!-- Node17&#45;&gt;Node18 -->
<g id="edge19" class="edge"><title>Node17&#45;&gt;Node18</title>
<path fill="none" stroke="midnightblue" d="M800.698,-159.409C805.84,-158.131 811,-156.965 816,-156 909.914,-137.877 1186.76,-114.919 1313.86,-104.971"/>
<polygon fill="midnightblue" stroke="midnightblue" points="799.665,-156.061 790.878,-161.982 801.439,-162.833 799.665,-156.061"/>
</g>
<!-- Node22&#45;&gt;Node3 -->
<g id="edge38" class="edge"><title>Node22&#45;&gt;Node3</title>
<path fill="none" stroke="midnightblue" d="M1297.65,-394.397C1283.71,-392.851 1269.47,-391.333 1256,-390 1036.14,-368.243 775.181,-348.088 653.646,-339.029"/>
<polygon fill="midnightblue" stroke="midnightblue" points="1297.4,-397.891 1307.72,-395.526 1298.17,-390.934 1297.4,-397.891"/>
</g>
<!-- Node22&#45;&gt;Node5 -->
<g id="edge44" class="edge"><title>Node22&#45;&gt;Node5</title>
<path fill="none" stroke="midnightblue" d="M1301.55,-389.125C1138.4,-358.813 786.191,-293.378 645.173,-267.179"/>
<polygon fill="midnightblue" stroke="midnightblue" points="1301.08,-392.597 1311.55,-390.982 1302.36,-385.715 1301.08,-392.597"/>
</g>
<!-- Node22&#45;&gt;Node8 -->
<g id="edge45" class="edge"><title>Node22&#45;&gt;Node8</title>
<path fill="none" stroke="midnightblue" d="M1426.41,-386.102C1440.83,-377.767 1456.42,-366.908 1468,-354 1505.35,-312.354 1536.98,-280.583 1506,-234 1461.81,-167.55 1222.68,-124.584 1111.23,-107.88"/>
<polygon fill="midnightblue" stroke="midnightblue" points="1424.69,-383.055 1417.63,-390.961 1428.08,-389.179 1424.69,-383.055"/>
</g>
<!-- Node22&#45;&gt;Node18 -->
<g id="edge46" class="edge"><title>Node22&#45;&gt;Node18</title>
<path fill="none" stroke="midnightblue" d="M1476.18,-394.815C1500.81,-387.43 1524.9,-374.955 1540,-354 1591.45,-282.611 1590.99,-227.722 1540,-156 1518.31,-125.489 1478.74,-111.457 1444.26,-105.069"/>
<polygon fill="midnightblue" stroke="midnightblue" points="1475.08,-391.486 1466.36,-397.496 1476.92,-398.239 1475.08,-391.486"/>
</g>
<!-- Node23 -->
<g id="node23" class="node"><title>Node23</title>
<g id="a_node23"><a xlink:href="sd_entity_extension_media_8h.html" target="_top" xlink:title="/Users/lossius/dev\l/spatdiflib/src/sdEntityExtension\lMedia.h">
<polygon fill="white" stroke="black" points="1308.5,-312.5 1308.5,-353.5 1459.5,-353.5 1459.5,-312.5 1308.5,-312.5"/>
<text text-anchor="start" x="1316.5" y="-341.5" font-family="Helvetica,sans-Serif" font-size="10.00">/Users/lossius/dev</text>
<text text-anchor="start" x="1316.5" y="-330.5" font-family="Helvetica,sans-Serif" font-size="10.00">/spatdiflib/src/sdEntityExtension</text>
<text text-anchor="middle" x="1384" y="-319.5" font-family="Helvetica,sans-Serif" font-size="10.00">Media.h</text>
</a>
</g>
</g>
<!-- Node22&#45;&gt;Node23 -->
<g id="edge39" class="edge"><title>Node22&#45;&gt;Node23</title>
<path fill="none" stroke="midnightblue" d="M1385.98,-380.853C1385.61,-371.987 1385.19,-362.065 1384.83,-353.642"/>
<polygon fill="midnightblue" stroke="midnightblue" points="1382.49,-381.129 1386.41,-390.973 1389.48,-380.834 1382.49,-381.129"/>
</g>
<!-- Node23&#45;&gt;Node4 -->
<g id="edge40" class="edge"><title>Node23&#45;&gt;Node4</title>
<path fill="none" stroke="midnightblue" d="M1311.5,-309.419C1270.57,-296.669 1220.68,-281.131 1185.29,-270.106"/>
<polygon fill="midnightblue" stroke="midnightblue" points="1310.58,-312.796 1321.16,-312.428 1312.66,-306.113 1310.58,-312.796"/>
</g>
<!-- Node23&#45;&gt;Node8 -->
<g id="edge42" class="edge"><title>Node23&#45;&gt;Node8</title>
<path fill="none" stroke="midnightblue" d="M1358.6,-304.834C1351.28,-296.079 1343.74,-286.034 1338,-276 1309.8,-226.691 1336.55,-193.64 1294,-156 1267.24,-132.328 1173.26,-115.709 1111.15,-107.016"/>
<polygon fill="midnightblue" stroke="midnightblue" points="1356.01,-307.191 1365.19,-312.475 1361.31,-302.618 1356.01,-307.191"/>
</g>
<!-- Node23&#45;&gt;Node19 -->
<g id="edge43" class="edge"><title>Node23&#45;&gt;Node19</title>
<path fill="none" stroke="midnightblue" d="M1346.13,-306.439C1332.66,-297.097 1317.49,-286.294 1304,-276 1266.53,-247.403 1224.47,-211.502 1202.07,-192.068"/>
<polygon fill="midnightblue" stroke="midnightblue" points="1344.48,-309.556 1354.7,-312.347 1348.46,-303.791 1344.48,-309.556"/>
</g>
<!-- Node24 -->
<g id="node24" class="node"><title>Node24</title>
<g id="a_node24"><a xlink:href="sd_entity_extension_media_8cpp.html" target="_top" xlink:title="/Users/lossius/dev\l/spatdiflib/src/sdEntityExtension\lMedia.cpp">
<polygon fill="white" stroke="black" points="1346.5,-234.5 1346.5,-275.5 1497.5,-275.5 1497.5,-234.5 1346.5,-234.5"/>
<text text-anchor="start" x="1354.5" y="-263.5" font-family="Helvetica,sans-Serif" font-size="10.00">/Users/lossius/dev</text>
<text text-anchor="start" x="1354.5" y="-252.5" font-family="Helvetica,sans-Serif" font-size="10.00">/spatdiflib/src/sdEntityExtension</text>
<text text-anchor="middle" x="1422" y="-241.5" font-family="Helvetica,sans-Serif" font-size="10.00">Media.cpp</text>
</a>
</g>
</g>
<!-- Node23&#45;&gt;Node24 -->
<g id="edge41" class="edge"><title>Node23&#45;&gt;Node24</title>
<path fill="none" stroke="midnightblue" d="M1398.27,-303.466C1402.93,-294.143 1408,-284.007 1412.25,-275.506"/>
<polygon fill="midnightblue" stroke="midnightblue" points="1395.13,-301.919 1393.79,-312.428 1401.39,-305.049 1395.13,-301.919"/>
</g>
</g>
</svg>
