<?xml version="1.0" encoding="UTF-8" standalone="no"?>
<!DOCTYPE svg PUBLIC "-//W3C//DTD SVG 1.1//EN"
 "http://www.w3.org/Graphics/SVG/1.1/DTD/svg11.dtd">
<!-- Generated by graphviz version 2.34.0 (20131206.1153)
 -->
<!-- Title: /Users/lossius/dev/spatdiflib/src/sdEntity.cpp Pages: 1 -->
<svg width="218pt" height="208pt"
 viewBox="0.00 0.00 218.00 208.00" xmlns="http://www.w3.org/2000/svg" xmlns:xlink="http://www.w3.org/1999/xlink">
<g id="graph0" class="graph" transform="scale(1 1) rotate(0) translate(4 204)">
<title>/Users/lossius/dev/spatdiflib/src/sdEntity.cpp</title>
<polygon fill="white" stroke="white" points="-4,4 -4,-204 214,-204 214,4 -4,4"/>
<!-- Node1 -->
<g id="node1" class="node"><title>Node1</title>
<polygon fill="#bfbfbf" stroke="black" points="22,-169 22,-199 150,-199 150,-169 22,-169"/>
<text text-anchor="start" x="30" y="-187" font-family="Helvetica,sans-Serif" font-size="10.00">/Users/lossius/dev</text>
<text text-anchor="middle" x="86" y="-176" font-family="Helvetica,sans-Serif" font-size="10.00">/spatdiflib/src/sdEntity.cpp</text>
</g>
<!-- Node2 -->
<g id="node2" class="node"><title>Node2</title>
<g id="a_node2"><a xlink:href="sd_entity_8h.html" target="_top" xlink:title="sdEntity.h">
<polygon fill="white" stroke="black" points="57,-112.5 57,-131.5 115,-131.5 115,-112.5 57,-112.5"/>
<text text-anchor="middle" x="86" y="-119.5" font-family="Helvetica,sans-Serif" font-size="10.00">sdEntity.h</text>
</a>
</g>
</g>
<!-- Node1&#45;&gt;Node2 -->
<g id="edge1" class="edge"><title>Node1&#45;&gt;Node2</title>
<path fill="none" stroke="midnightblue" d="M86,-168.781C86,-160.781 86,-150.689 86,-142.017"/>
<polygon fill="midnightblue" stroke="midnightblue" points="89.5001,-141.73 86,-131.731 82.5001,-141.731 89.5001,-141.73"/>
</g>
<!-- Node3 -->
<g id="node3" class="node"><title>Node3</title>
<polygon fill="white" stroke="#bfbfbf" points="-0.5,-56.5 -0.5,-75.5 28.5,-75.5 28.5,-56.5 -0.5,-56.5"/>
<text text-anchor="middle" x="14" y="-63.5" font-family="Helvetica,sans-Serif" font-size="10.00">set</text>
</g>
<!-- Node2&#45;&gt;Node3 -->
<g id="edge2" class="edge"><title>Node2&#45;&gt;Node3</title>
<path fill="none" stroke="midnightblue" d="M74.432,-112.324C63.5798,-104.185 47.1193,-91.8395 34.1166,-82.0874"/>
<polygon fill="midnightblue" stroke="midnightblue" points="35.8786,-79.0339 25.7785,-75.8339 31.6785,-84.6339 35.8786,-79.0339"/>
</g>
<!-- Node4 -->
<g id="node4" class="node"><title>Node4</title>
<polygon fill="white" stroke="#bfbfbf" points="34,-0.5 34,-19.5 72,-19.5 72,-0.5 34,-0.5"/>
<text text-anchor="middle" x="53" y="-7.5" font-family="Helvetica,sans-Serif" font-size="10.00">string</text>
</g>
<!-- Node2&#45;&gt;Node4 -->
<g id="edge3" class="edge"><title>Node2&#45;&gt;Node4</title>
<path fill="none" stroke="midnightblue" d="M83.4105,-112.368C78.061,-94.5366 65.6886,-53.2953 58.4815,-29.2717"/>
<polygon fill="midnightblue" stroke="midnightblue" points="61.8034,-28.1639 55.5774,-19.5914 55.0986,-30.1754 61.8034,-28.1639"/>
</g>
<!-- Node5 -->
<g id="node5" class="node"><title>Node5</title>
<polygon fill="white" stroke="#bfbfbf" points="158,-0.5 158,-19.5 210,-19.5 210,-0.5 158,-0.5"/>
<text text-anchor="middle" x="184" y="-7.5" font-family="Helvetica,sans-Serif" font-size="10.00">iostream</text>
</g>
<!-- Node2&#45;&gt;Node5 -->
<g id="edge4" class="edge"><title>Node2&#45;&gt;Node5</title>
<path fill="none" stroke="midnightblue" d="M104.508,-112.376C119.48,-104.624 140.262,-92.0059 154,-76 165.625,-62.4561 173.648,-43.6528 178.452,-29.753"/>
<polygon fill="midnightblue" stroke="midnightblue" points="181.906,-30.4421 181.622,-19.8511 175.24,-28.3078 181.906,-30.4421"/>
</g>
<!-- Node6 -->
<g id="node6" class="node"><title>Node6</title>
<g id="a_node6"><a xlink:href="sd_const_8h.html" target="_top" xlink:title="sdConst.h">
<polygon fill="white" stroke="black" points="85,-56.5 85,-75.5 145,-75.5 145,-56.5 85,-56.5"/>
<text text-anchor="middle" x="115" y="-63.5" font-family="Helvetica,sans-Serif" font-size="10.00">sdConst.h</text>
</a>
</g>
</g>
<!-- Node2&#45;&gt;Node6 -->
<g id="edge5" class="edge"><title>Node2&#45;&gt;Node6</title>
<path fill="none" stroke="midnightblue" d="M90.7888,-112.083C94.7584,-104.691 100.525,-93.9533 105.435,-84.8111"/>
<polygon fill="midnightblue" stroke="midnightblue" points="108.653,-86.217 110.3,-75.7511 102.486,-82.9051 108.653,-86.217"/>
</g>
<!-- Node6&#45;&gt;Node4 -->
<g id="edge6" class="edge"><title>Node6&#45;&gt;Node4</title>
<path fill="none" stroke="midnightblue" d="M105.039,-56.324C95.8734,-48.3414 82.0628,-36.3128 70.9718,-26.6529"/>
<polygon fill="midnightblue" stroke="midnightblue" points="72.9822,-23.7624 63.1426,-19.8339 68.3847,-29.041 72.9822,-23.7624"/>
</g>
<!-- Node6&#45;&gt;Node5 -->
<g id="edge7" class="edge"><title>Node6&#45;&gt;Node5</title>
<path fill="none" stroke="midnightblue" d="M126.086,-56.324C136.486,-48.1849 152.261,-35.8395 164.722,-26.0874"/>
<polygon fill="midnightblue" stroke="midnightblue" points="166.994,-28.7533 172.712,-19.8339 162.68,-23.2407 166.994,-28.7533"/>
</g>
<!-- Node7 -->
<g id="node7" class="node"><title>Node7</title>
<polygon fill="white" stroke="#bfbfbf" points="90,-0.5 90,-19.5 140,-19.5 140,-0.5 90,-0.5"/>
<text text-anchor="middle" x="115" y="-7.5" font-family="Helvetica,sans-Serif" font-size="10.00">sstream</text>
</g>
<!-- Node6&#45;&gt;Node7 -->
<g id="edge8" class="edge"><title>Node6&#45;&gt;Node7</title>
<path fill="none" stroke="midnightblue" d="M115,-56.083C115,-49.0059 115,-38.8611 115,-29.9865"/>
<polygon fill="midnightblue" stroke="midnightblue" points="118.5,-29.751 115,-19.7511 111.5,-29.7511 118.5,-29.751"/>
</g>
</g>
</svg>
