<?xml version="1.0" encoding="UTF-8" standalone="no"?>
<!DOCTYPE svg PUBLIC "-//W3C//DTD SVG 1.1//EN"
 "http://www.w3.org/Graphics/SVG/1.1/DTD/svg11.dtd">
<!-- Generated by graphviz version 2.34.0 (20131206.1153)
 -->
<!-- Title: /Users/lossius/dev/spatdiflib/src/sdEntityExtension.h Pages: 1 -->
<svg width="211pt" height="208pt"
 viewBox="0.00 0.00 211.00 208.00" xmlns="http://www.w3.org/2000/svg" xmlns:xlink="http://www.w3.org/1999/xlink">
<g id="graph0" class="graph" transform="scale(1 1) rotate(0) translate(4 204)">
<title>/Users/lossius/dev/spatdiflib/src/sdEntityExtension.h</title>
<polygon fill="white" stroke="white" points="-4,4 -4,-204 207,-204 207,4 -4,4"/>
<!-- Node1 -->
<g id="node1" class="node"><title>Node1</title>
<polygon fill="#bfbfbf" stroke="black" points="7,-169 7,-199 165,-199 165,-169 7,-169"/>
<text text-anchor="start" x="15" y="-187" font-family="Helvetica,sans-Serif" font-size="10.00">/Users/lossius/dev</text>
<text text-anchor="middle" x="86" y="-176" font-family="Helvetica,sans-Serif" font-size="10.00">/spatdiflib/src/sdEntityExtension.h</text>
</g>
<!-- Node2 -->
<g id="node2" class="node"><title>Node2</title>
<polygon fill="white" stroke="#bfbfbf" points="0,-0.5 0,-19.5 38,-19.5 38,-0.5 0,-0.5"/>
<text text-anchor="middle" x="19" y="-7.5" font-family="Helvetica,sans-Serif" font-size="10.00">string</text>
</g>
<!-- Node1&#45;&gt;Node2 -->
<g id="edge1" class="edge"><title>Node1&#45;&gt;Node2</title>
<path fill="none" stroke="midnightblue" d="M77.1799,-168.666C65.2315,-148.638 44.0177,-110.814 32,-76 26.7722,-60.8553 23.3857,-42.9594 21.3839,-29.7835"/>
<polygon fill="midnightblue" stroke="midnightblue" points="24.813,-29.0306 19.9698,-19.6075 17.8797,-29.9941 24.813,-29.0306"/>
</g>
<!-- Node3 -->
<g id="node3" class="node"><title>Node3</title>
<polygon fill="white" stroke="#bfbfbf" points="162.5,-112.5 162.5,-131.5 203.5,-131.5 203.5,-112.5 162.5,-112.5"/>
<text text-anchor="middle" x="183" y="-119.5" font-family="Helvetica,sans-Serif" font-size="10.00">vector</text>
</g>
<!-- Node1&#45;&gt;Node3 -->
<g id="edge2" class="edge"><title>Node1&#45;&gt;Node3</title>
<path fill="none" stroke="midnightblue" d="M108.988,-168.781C124.483,-159.196 144.837,-146.606 160.277,-137.056"/>
<polygon fill="midnightblue" stroke="midnightblue" points="162.505,-139.793 169.168,-131.556 158.823,-133.84 162.505,-139.793"/>
</g>
<!-- Node4 -->
<g id="node4" class="node"><title>Node4</title>
<g id="a_node4"><a xlink:href="sd_const_8h.html" target="_top" xlink:title="sdConst.h">
<polygon fill="white" stroke="black" points="57,-56.5 57,-75.5 117,-75.5 117,-56.5 57,-56.5"/>
<text text-anchor="middle" x="87" y="-63.5" font-family="Helvetica,sans-Serif" font-size="10.00">sdConst.h</text>
</a>
</g>
</g>
<!-- Node1&#45;&gt;Node4 -->
<g id="edge3" class="edge"><title>Node1&#45;&gt;Node4</title>
<path fill="none" stroke="midnightblue" d="M82.2372,-168.872C78.8887,-154.555 74.8308,-131.761 77,-112 77.9726,-103.14 79.9917,-93.4716 81.9626,-85.3755"/>
<polygon fill="midnightblue" stroke="midnightblue" points="85.3926,-86.0919 84.5176,-75.5332 78.6171,-84.333 85.3926,-86.0919"/>
</g>
<!-- Node7 -->
<g id="node7" class="node"><title>Node7</title>
<g id="a_node7"><a xlink:href="sd_entity_8h.html" target="_top" xlink:title="sdEntity.h">
<polygon fill="white" stroke="black" points="86,-112.5 86,-131.5 144,-131.5 144,-112.5 86,-112.5"/>
<text text-anchor="middle" x="115" y="-119.5" font-family="Helvetica,sans-Serif" font-size="10.00">sdEntity.h</text>
</a>
</g>
</g>
<!-- Node1&#45;&gt;Node7 -->
<g id="edge7" class="edge"><title>Node1&#45;&gt;Node7</title>
<path fill="none" stroke="midnightblue" d="M92.8726,-168.781C96.9129,-160.422 102.058,-149.777 106.369,-140.856"/>
<polygon fill="midnightblue" stroke="midnightblue" points="109.58,-142.257 110.78,-131.731 103.277,-139.211 109.58,-142.257"/>
</g>
<!-- Node4&#45;&gt;Node2 -->
<g id="edge4" class="edge"><title>Node4&#45;&gt;Node2</title>
<path fill="none" stroke="midnightblue" d="M76.0746,-56.324C65.8254,-48.1849 50.2794,-35.8395 37.999,-26.0874"/>
<polygon fill="midnightblue" stroke="midnightblue" points="40.1319,-23.3119 30.1242,-19.8339 35.7787,-28.7937 40.1319,-23.3119"/>
</g>
<!-- Node5 -->
<g id="node5" class="node"><title>Node5</title>
<polygon fill="white" stroke="#bfbfbf" points="124,-0.5 124,-19.5 176,-19.5 176,-0.5 124,-0.5"/>
<text text-anchor="middle" x="150" y="-7.5" font-family="Helvetica,sans-Serif" font-size="10.00">iostream</text>
</g>
<!-- Node4&#45;&gt;Node5 -->
<g id="edge5" class="edge"><title>Node4&#45;&gt;Node5</title>
<path fill="none" stroke="midnightblue" d="M97.122,-56.324C106.526,-48.2631 120.744,-36.0765 132.069,-26.3695"/>
<polygon fill="midnightblue" stroke="midnightblue" points="134.379,-28.9993 139.694,-19.8339 129.823,-23.6844 134.379,-28.9993"/>
</g>
<!-- Node6 -->
<g id="node6" class="node"><title>Node6</title>
<polygon fill="white" stroke="#bfbfbf" points="56,-0.5 56,-19.5 106,-19.5 106,-0.5 56,-0.5"/>
<text text-anchor="middle" x="81" y="-7.5" font-family="Helvetica,sans-Serif" font-size="10.00">sstream</text>
</g>
<!-- Node4&#45;&gt;Node6 -->
<g id="edge6" class="edge"><title>Node4&#45;&gt;Node6</title>
<path fill="none" stroke="midnightblue" d="M86.0092,-56.083C85.2141,-48.9272 84.0706,-38.6353 83.0768,-29.6911"/>
<polygon fill="midnightblue" stroke="midnightblue" points="86.5553,-29.3034 81.9723,-19.7511 79.5982,-30.0765 86.5553,-29.3034"/>
</g>
<!-- Node7&#45;&gt;Node2 -->
<g id="edge9" class="edge"><title>Node7&#45;&gt;Node2</title>
<path fill="none" stroke="midnightblue" d="M96.715,-112.36C81.9336,-104.598 61.442,-91.975 48,-76 36.5746,-62.4217 28.8419,-43.6226 24.2543,-29.7331"/>
<polygon fill="midnightblue" stroke="midnightblue" points="27.5025,-28.3852 21.2389,-19.8401 20.8066,-30.4261 27.5025,-28.3852"/>
</g>
<!-- Node7&#45;&gt;Node4 -->
<g id="edge11" class="edge"><title>Node7&#45;&gt;Node4</title>
<path fill="none" stroke="midnightblue" d="M110.376,-112.083C106.544,-104.691 100.976,-93.9533 96.2354,-84.8111"/>
<polygon fill="midnightblue" stroke="midnightblue" points="99.248,-83.0175 91.5376,-75.7511 93.0337,-86.2398 99.248,-83.0175"/>
</g>
<!-- Node7&#45;&gt;Node5 -->
<g id="edge10" class="edge"><title>Node7&#45;&gt;Node5</title>
<path fill="none" stroke="midnightblue" d="M117.746,-112.368C123.42,-94.5366 136.542,-53.2953 144.186,-29.2717"/>
<polygon fill="midnightblue" stroke="midnightblue" points="147.57,-30.1819 147.266,-19.5914 140.899,-28.0594 147.57,-30.1819"/>
</g>
<!-- Node8 -->
<g id="node8" class="node"><title>Node8</title>
<polygon fill="white" stroke="#bfbfbf" points="173.5,-56.5 173.5,-75.5 202.5,-75.5 202.5,-56.5 173.5,-56.5"/>
<text text-anchor="middle" x="188" y="-63.5" font-family="Helvetica,sans-Serif" font-size="10.00">set</text>
</g>
<!-- Node7&#45;&gt;Node8 -->
<g id="edge8" class="edge"><title>Node7&#45;&gt;Node8</title>
<path fill="none" stroke="midnightblue" d="M126.729,-112.324C137.837,-104.107 154.742,-91.6017 167.983,-81.8069"/>
<polygon fill="midnightblue" stroke="midnightblue" points="170.1,-84.5948 176.058,-75.8339 165.937,-78.9671 170.1,-84.5948"/>
</g>
</g>
</svg>
