<?xml version="1.0" encoding="UTF-8" standalone="no"?>
<!DOCTYPE svg PUBLIC "-//W3C//DTD SVG 1.1//EN"
 "http://www.w3.org/Graphics/SVG/1.1/DTD/svg11.dtd">
<!-- Generated by graphviz version 2.34.0 (20131206.1153)
 -->
<!-- Title: /Users/lossius/dev/spatdiflib/src/sdEntityCore.cpp Pages: 1 -->
<svg width="520pt" height="320pt"
 viewBox="0.00 0.00 520.00 320.00" xmlns="http://www.w3.org/2000/svg" xmlns:xlink="http://www.w3.org/1999/xlink">
<g id="graph0" class="graph" transform="scale(1 1) rotate(0) translate(4 316)">
<title>/Users/lossius/dev/spatdiflib/src/sdEntityCore.cpp</title>
<polygon fill="white" stroke="white" points="-4,4 -4,-316 516,-316 516,4 -4,4"/>
<!-- Node1 -->
<g id="node1" class="node"><title>Node1</title>
<polygon fill="#bfbfbf" stroke="black" points="112,-281 112,-311 260,-311 260,-281 112,-281"/>
<text text-anchor="start" x="120" y="-299" font-family="Helvetica,sans-Serif" font-size="10.00">/Users/lossius/dev</text>
<text text-anchor="middle" x="186" y="-288" font-family="Helvetica,sans-Serif" font-size="10.00">/spatdiflib/src/sdEntityCore.cpp</text>
</g>
<!-- Node2 -->
<g id="node2" class="node"><title>Node2</title>
<polygon fill="white" stroke="#bfbfbf" points="0,-224.5 0,-243.5 44,-243.5 44,-224.5 0,-224.5"/>
<text text-anchor="middle" x="22" y="-231.5" font-family="Helvetica,sans-Serif" font-size="10.00">stdio.h</text>
</g>
<!-- Node1&#45;&gt;Node2 -->
<g id="edge1" class="edge"><title>Node1&#45;&gt;Node2</title>
<path fill="none" stroke="midnightblue" d="M147.549,-280.933C119.006,-270.49 80.5461,-256.419 53.7446,-246.614"/>
<polygon fill="midnightblue" stroke="midnightblue" points="54.6823,-243.23 44.0885,-243.081 52.2772,-249.804 54.6823,-243.23"/>
</g>
<!-- Node3 -->
<g id="node3" class="node"><title>Node3</title>
<polygon fill="white" stroke="#bfbfbf" points="322,-0.5 322,-19.5 360,-19.5 360,-0.5 322,-0.5"/>
<text text-anchor="middle" x="341" y="-7.5" font-family="Helvetica,sans-Serif" font-size="10.00">string</text>
</g>
<!-- Node1&#45;&gt;Node3 -->
<g id="edge2" class="edge"><title>Node1&#45;&gt;Node3</title>
<path fill="none" stroke="midnightblue" d="M260.382,-283.796C356.598,-267.167 512,-232.09 512,-179 512,-179 512,-179 512,-121 512,-54.405 419.133,-26.2241 370.274,-16.006"/>
<polygon fill="midnightblue" stroke="midnightblue" points="370.771,-12.5369 360.283,-14.0388 369.419,-19.405 370.771,-12.5369"/>
</g>
<!-- Node4 -->
<g id="node4" class="node"><title>Node4</title>
<g id="a_node4"><a xlink:href="sd_const_8h.html" target="_top" xlink:title="sdConst.h">
<polygon fill="white" stroke="black" points="108,-56.5 108,-75.5 168,-75.5 168,-56.5 108,-56.5"/>
<text text-anchor="middle" x="138" y="-63.5" font-family="Helvetica,sans-Serif" font-size="10.00">sdConst.h</text>
</a>
</g>
</g>
<!-- Node1&#45;&gt;Node4 -->
<g id="edge3" class="edge"><title>Node1&#45;&gt;Node4</title>
<path fill="none" stroke="midnightblue" d="M153.778,-280.937C138.791,-272.554 122.443,-260.328 114,-244 86.7512,-191.307 113.627,-118.529 128.954,-85.1069"/>
<polygon fill="midnightblue" stroke="midnightblue" points="132.288,-86.2457 133.441,-75.7137 125.972,-83.2284 132.288,-86.2457"/>
</g>
<!-- Node7 -->
<g id="node7" class="node"><title>Node7</title>
<g id="a_node7"><a xlink:href="sd_entity_core_8h.html" target="_top" xlink:title="sdEntityCore.h">
<polygon fill="white" stroke="black" points="297,-224.5 297,-243.5 375,-243.5 375,-224.5 297,-224.5"/>
<text text-anchor="middle" x="336" y="-231.5" font-family="Helvetica,sans-Serif" font-size="10.00">sdEntityCore.h</text>
</a>
</g>
</g>
<!-- Node1&#45;&gt;Node7 -->
<g id="edge7" class="edge"><title>Node1&#45;&gt;Node7</title>
<path fill="none" stroke="midnightblue" d="M221.168,-280.933C246.588,-270.765 280.608,-257.157 305.009,-247.396"/>
<polygon fill="midnightblue" stroke="midnightblue" points="306.515,-250.564 314.5,-243.6 303.915,-244.064 306.515,-250.564"/>
</g>
<!-- Node12 -->
<g id="node12" class="node"><title>Node12</title>
<g id="a_node12"><a xlink:href="sd_entity_extension_media_8h.html" target="_top" xlink:title="sdEntityExtensionMedia.h">
<polygon fill="white" stroke="black" points="123,-224.5 123,-243.5 249,-243.5 249,-224.5 123,-224.5"/>
<text text-anchor="middle" x="186" y="-231.5" font-family="Helvetica,sans-Serif" font-size="10.00">sdEntityExtensionMedia.h</text>
</a>
</g>
</g>
<!-- Node1&#45;&gt;Node12 -->
<g id="edge21" class="edge"><title>Node1&#45;&gt;Node12</title>
<path fill="none" stroke="midnightblue" d="M186,-280.781C186,-272.781 186,-262.689 186,-254.017"/>
<polygon fill="midnightblue" stroke="midnightblue" points="189.5,-253.73 186,-243.731 182.5,-253.731 189.5,-253.73"/>
</g>
<!-- Node4&#45;&gt;Node3 -->
<g id="edge4" class="edge"><title>Node4&#45;&gt;Node3</title>
<path fill="none" stroke="midnightblue" d="M168.391,-56.9157C207.214,-46.5884 273.929,-28.8416 312.047,-18.7017"/>
<polygon fill="midnightblue" stroke="midnightblue" points="313.229,-22.0091 321.993,-16.0559 311.43,-15.2443 313.229,-22.0091"/>
</g>
<!-- Node5 -->
<g id="node5" class="node"><title>Node5</title>
<polygon fill="white" stroke="#bfbfbf" points="226,-0.5 226,-19.5 278,-19.5 278,-0.5 226,-0.5"/>
<text text-anchor="middle" x="252" y="-7.5" font-family="Helvetica,sans-Serif" font-size="10.00">iostream</text>
</g>
<!-- Node4&#45;&gt;Node5 -->
<g id="edge5" class="edge"><title>Node4&#45;&gt;Node5</title>
<path fill="none" stroke="midnightblue" d="M156.064,-56.4435C174.575,-47.6751 203.581,-33.9355 224.855,-23.8579"/>
<polygon fill="midnightblue" stroke="midnightblue" points="226.482,-26.9604 234.021,-19.5164 223.485,-20.6343 226.482,-26.9604"/>
</g>
<!-- Node6 -->
<g id="node6" class="node"><title>Node6</title>
<polygon fill="white" stroke="#bfbfbf" points="113,-0.5 113,-19.5 163,-19.5 163,-0.5 113,-0.5"/>
<text text-anchor="middle" x="138" y="-7.5" font-family="Helvetica,sans-Serif" font-size="10.00">sstream</text>
</g>
<!-- Node4&#45;&gt;Node6 -->
<g id="edge6" class="edge"><title>Node4&#45;&gt;Node6</title>
<path fill="none" stroke="midnightblue" d="M138,-56.083C138,-49.0059 138,-38.8611 138,-29.9865"/>
<polygon fill="midnightblue" stroke="midnightblue" points="141.5,-29.751 138,-19.7511 134.5,-29.7511 141.5,-29.751"/>
</g>
<!-- Node7&#45;&gt;Node3 -->
<g id="edge9" class="edge"><title>Node7&#45;&gt;Node3</title>
<path fill="none" stroke="midnightblue" d="M353.403,-224.416C368.043,-216.525 388.802,-203.688 403,-188 438.673,-148.583 439.399,-128.867 445,-76 445.936,-67.1606 449.88,-63.4293 445,-56 428.555,-30.9657 394.886,-19.7921 370.296,-14.8471"/>
<polygon fill="midnightblue" stroke="midnightblue" points="370.849,-11.3905 360.391,-13.0869 369.624,-18.2825 370.849,-11.3905"/>
</g>
<!-- Node7&#45;&gt;Node4 -->
<g id="edge10" class="edge"><title>Node7&#45;&gt;Node4</title>
<path fill="none" stroke="midnightblue" d="M298.668,-224.485C274.632,-217.617 243.747,-206.069 221,-188 185.06,-159.452 158.596,-111.151 146.072,-85.0437"/>
<polygon fill="midnightblue" stroke="midnightblue" points="149.086,-83.2232 141.701,-75.626 142.736,-86.1702 149.086,-83.2232"/>
</g>
<!-- Node8 -->
<g id="node8" class="node"><title>Node8</title>
<polygon fill="white" stroke="#bfbfbf" points="407.5,-56.5 407.5,-75.5 436.5,-75.5 436.5,-56.5 407.5,-56.5"/>
<text text-anchor="middle" x="422" y="-63.5" font-family="Helvetica,sans-Serif" font-size="10.00">set</text>
</g>
<!-- Node7&#45;&gt;Node8 -->
<g id="edge8" class="edge"><title>Node7&#45;&gt;Node8</title>
<path fill="none" stroke="midnightblue" d="M345.962,-224.495C363.898,-208.497 401.221,-171.926 417,-132 422.791,-117.346 423.762,-99.407 423.443,-86.0898"/>
<polygon fill="midnightblue" stroke="midnightblue" points="426.922,-85.5848 422.919,-75.7753 419.931,-85.94 426.922,-85.5848"/>
</g>
<!-- Node9 -->
<g id="node9" class="node"><title>Node9</title>
<g id="a_node9"><a xlink:href="sd_entity_8h.html" target="_top" xlink:title="sdEntity.h">
<polygon fill="white" stroke="black" points="350,-112.5 350,-131.5 408,-131.5 408,-112.5 350,-112.5"/>
<text text-anchor="middle" x="379" y="-119.5" font-family="Helvetica,sans-Serif" font-size="10.00">sdEntity.h</text>
</a>
</g>
</g>
<!-- Node7&#45;&gt;Node9 -->
<g id="edge11" class="edge"><title>Node7&#45;&gt;Node9</title>
<path fill="none" stroke="midnightblue" d="M339.374,-224.368C346.376,-206.456 362.612,-164.923 371.984,-140.948"/>
<polygon fill="midnightblue" stroke="midnightblue" points="375.26,-142.179 375.642,-131.591 368.741,-139.631 375.26,-142.179"/>
</g>
<!-- Node10 -->
<g id="node10" class="node"><title>Node10</title>
<g id="a_node10"><a xlink:href="sd_entity_extension_8h.html" target="_top" xlink:title="sdEntityExtension.h">
<polygon fill="white" stroke="black" points="230,-168.5 230,-187.5 330,-187.5 330,-168.5 230,-168.5"/>
<text text-anchor="middle" x="280" y="-175.5" font-family="Helvetica,sans-Serif" font-size="10.00">sdEntityExtension.h</text>
</a>
</g>
</g>
<!-- Node7&#45;&gt;Node10 -->
<g id="edge16" class="edge"><title>Node7&#45;&gt;Node10</title>
<path fill="none" stroke="midnightblue" d="M327.003,-224.324C318.806,-216.42 306.494,-204.548 296.528,-194.938"/>
<polygon fill="midnightblue" stroke="midnightblue" points="298.789,-192.256 289.161,-187.834 293.93,-197.295 298.789,-192.256"/>
</g>
<!-- Node9&#45;&gt;Node3 -->
<g id="edge13" class="edge"><title>Node9&#45;&gt;Node3</title>
<path fill="none" stroke="midnightblue" d="M376.018,-112.368C369.858,-94.5366 355.611,-53.2953 347.312,-29.2717"/>
<polygon fill="midnightblue" stroke="midnightblue" points="350.541,-27.9005 343.968,-19.5914 343.925,-30.1862 350.541,-27.9005"/>
</g>
<!-- Node9&#45;&gt;Node4 -->
<g id="edge15" class="edge"><title>Node9&#45;&gt;Node4</title>
<path fill="none" stroke="midnightblue" d="M349.93,-114.486C307.035,-104.875 226.643,-86.8619 178.149,-75.9961"/>
<polygon fill="midnightblue" stroke="midnightblue" points="178.834,-72.5627 168.31,-73.7915 177.303,-79.3933 178.834,-72.5627"/>
</g>
<!-- Node9&#45;&gt;Node5 -->
<g id="edge14" class="edge"><title>Node9&#45;&gt;Node5</title>
<path fill="none" stroke="midnightblue" d="M369.035,-112.368C347.612,-93.8137 296.927,-49.9129 269.823,-26.4376"/>
<polygon fill="midnightblue" stroke="midnightblue" points="271.77,-23.4929 261.919,-19.5914 267.187,-28.7841 271.77,-23.4929"/>
</g>
<!-- Node9&#45;&gt;Node8 -->
<g id="edge12" class="edge"><title>Node9&#45;&gt;Node8</title>
<path fill="none" stroke="midnightblue" d="M386.101,-112.083C392.237,-104.377 401.27,-93.0333 408.739,-83.6531"/>
<polygon fill="midnightblue" stroke="midnightblue" points="411.54,-85.7542 415.032,-75.7511 406.064,-81.3936 411.54,-85.7542"/>
</g>
<!-- Node10&#45;&gt;Node3 -->
<g id="edge17" class="edge"><title>Node10&#45;&gt;Node3</title>
<path fill="none" stroke="midnightblue" d="M284.766,-168.206C289.504,-159.256 296.797,-144.904 302,-132 316.321,-96.4807 329.146,-53.5214 335.923,-29.5265"/>
<polygon fill="midnightblue" stroke="midnightblue" points="339.36,-30.2304 338.67,-19.658 332.617,-28.3532 339.36,-30.2304"/>
</g>
<!-- Node10&#45;&gt;Node4 -->
<g id="edge19" class="edge"><title>Node10&#45;&gt;Node4</title>
<path fill="none" stroke="midnightblue" d="M268.857,-168.368C244.698,-149.653 187.249,-105.151 157.147,-81.8324"/>
<polygon fill="midnightblue" stroke="midnightblue" points="159.14,-78.9485 149.091,-75.5914 154.853,-84.4824 159.14,-78.9485"/>
</g>
<!-- Node10&#45;&gt;Node9 -->
<g id="edge20" class="edge"><title>Node10&#45;&gt;Node9</title>
<path fill="none" stroke="midnightblue" d="M295.906,-168.324C311.638,-159.743 335.942,-146.486 354.209,-136.522"/>
<polygon fill="midnightblue" stroke="midnightblue" points="356.03,-139.516 363.133,-131.655 352.678,-133.37 356.03,-139.516"/>
</g>
<!-- Node11 -->
<g id="node11" class="node"><title>Node11</title>
<polygon fill="white" stroke="#bfbfbf" points="252.5,-112.5 252.5,-131.5 293.5,-131.5 293.5,-112.5 252.5,-112.5"/>
<text text-anchor="middle" x="273" y="-119.5" font-family="Helvetica,sans-Serif" font-size="10.00">vector</text>
</g>
<!-- Node10&#45;&gt;Node11 -->
<g id="edge18" class="edge"><title>Node10&#45;&gt;Node11</title>
<path fill="none" stroke="midnightblue" d="M278.844,-168.083C277.916,-160.927 276.582,-150.635 275.423,-141.691"/>
<polygon fill="midnightblue" stroke="midnightblue" points="278.891,-141.218 274.134,-131.751 271.949,-142.118 278.891,-141.218"/>
</g>
<!-- Node12&#45;&gt;Node3 -->
<g id="edge22" class="edge"><title>Node12&#45;&gt;Node3</title>
<path fill="none" stroke="midnightblue" d="M189.075,-224.282C196.579,-203.653 217.193,-150.675 244,-112 267.475,-78.1316 302.388,-44.8351 323.301,-26.2007"/>
<polygon fill="midnightblue" stroke="midnightblue" points="325.626,-28.8169 330.83,-19.588 321.006,-23.5575 325.626,-28.8169"/>
</g>
<!-- Node12&#45;&gt;Node4 -->
<g id="edge23" class="edge"><title>Node12&#45;&gt;Node4</title>
<path fill="none" stroke="midnightblue" d="M170.217,-224.467C157.797,-216.769 141.395,-204.179 134,-188 118.694,-154.514 126.208,-110.2 132.478,-85.5554"/>
<polygon fill="midnightblue" stroke="midnightblue" points="135.904,-86.2962 135.185,-75.7258 129.156,-84.4375 135.904,-86.2962"/>
</g>
<!-- Node12&#45;&gt;Node10 -->
<g id="edge24" class="edge"><title>Node12&#45;&gt;Node10</title>
<path fill="none" stroke="midnightblue" d="M201.103,-224.324C215.903,-215.822 238.694,-202.729 255.982,-192.797"/>
<polygon fill="midnightblue" stroke="midnightblue" points="258.007,-195.671 264.935,-187.655 254.52,-189.601 258.007,-195.671"/>
</g>
</g>
</svg>
