<?xml version="1.0" encoding="UTF-8" standalone="no"?>
<!DOCTYPE svg PUBLIC "-//W3C//DTD SVG 1.1//EN"
 "http://www.w3.org/Graphics/SVG/1.1/DTD/svg11.dtd">
<!-- Generated by graphviz version 2.34.0 (20131206.1153)
 -->
<!-- Title: /Users/lossius/dev/spatdiflib/src/sdEntity.h Pages: 1 -->
<svg width="218pt" height="152pt"
 viewBox="0.00 0.00 218.00 152.00" xmlns="http://www.w3.org/2000/svg" xmlns:xlink="http://www.w3.org/1999/xlink">
<g id="graph0" class="graph" transform="scale(1 1) rotate(0) translate(4 148)">
<title>/Users/lossius/dev/spatdiflib/src/sdEntity.h</title>
<polygon fill="white" stroke="white" points="-4,4 -4,-148 214,-148 214,4 -4,4"/>
<!-- Node1 -->
<g id="node1" class="node"><title>Node1</title>
<polygon fill="#bfbfbf" stroke="black" points="28,-113 28,-143 144,-143 144,-113 28,-113"/>
<text text-anchor="start" x="36" y="-131" font-family="Helvetica,sans-Serif" font-size="10.00">/Users/lossius/dev</text>
<text text-anchor="middle" x="86" y="-120" font-family="Helvetica,sans-Serif" font-size="10.00">/spatdiflib/src/sdEntity.h</text>
</g>
<!-- Node2 -->
<g id="node2" class="node"><title>Node2</title>
<polygon fill="white" stroke="#bfbfbf" points="-0.5,-56.5 -0.5,-75.5 28.5,-75.5 28.5,-56.5 -0.5,-56.5"/>
<text text-anchor="middle" x="14" y="-63.5" font-family="Helvetica,sans-Serif" font-size="10.00">set</text>
</g>
<!-- Node1&#45;&gt;Node2 -->
<g id="edge1" class="edge"><title>Node1&#45;&gt;Node2</title>
<path fill="none" stroke="midnightblue" d="M68.937,-112.781C57.9352,-103.613 43.6349,-91.6957 32.3823,-82.3186"/>
<polygon fill="midnightblue" stroke="midnightblue" points="34.3995,-79.4436 24.4766,-75.7305 29.9182,-84.8212 34.3995,-79.4436"/>
</g>
<!-- Node3 -->
<g id="node3" class="node"><title>Node3</title>
<polygon fill="white" stroke="#bfbfbf" points="34,-0.5 34,-19.5 72,-19.5 72,-0.5 34,-0.5"/>
<text text-anchor="middle" x="53" y="-7.5" font-family="Helvetica,sans-Serif" font-size="10.00">string</text>
</g>
<!-- Node1&#45;&gt;Node3 -->
<g id="edge2" class="edge"><title>Node1&#45;&gt;Node3</title>
<path fill="none" stroke="midnightblue" d="M81.9536,-112.776C75.9807,-91.7807 64.8027,-52.4884 58.2199,-29.3487"/>
<polygon fill="midnightblue" stroke="midnightblue" points="61.5797,-28.3676 55.477,-19.707 54.8469,-30.2831 61.5797,-28.3676"/>
</g>
<!-- Node4 -->
<g id="node4" class="node"><title>Node4</title>
<polygon fill="white" stroke="#bfbfbf" points="158,-0.5 158,-19.5 210,-19.5 210,-0.5 158,-0.5"/>
<text text-anchor="middle" x="184" y="-7.5" font-family="Helvetica,sans-Serif" font-size="10.00">iostream</text>
</g>
<!-- Node1&#45;&gt;Node4 -->
<g id="edge3" class="edge"><title>Node1&#45;&gt;Node4</title>
<path fill="none" stroke="midnightblue" d="M110.438,-112.94C124.592,-103.837 141.939,-90.9188 154,-76 165.221,-62.1197 173.293,-43.3574 178.219,-29.5584"/>
<polygon fill="midnightblue" stroke="midnightblue" points="181.648,-30.3379 181.494,-19.7442 175.008,-28.122 181.648,-30.3379"/>
</g>
<!-- Node5 -->
<g id="node5" class="node"><title>Node5</title>
<g id="a_node5"><a xlink:href="sd_const_8h.html" target="_top" xlink:title="sdConst.h">
<polygon fill="white" stroke="black" points="85,-56.5 85,-75.5 145,-75.5 145,-56.5 85,-56.5"/>
<text text-anchor="middle" x="115" y="-63.5" font-family="Helvetica,sans-Serif" font-size="10.00">sdConst.h</text>
</a>
</g>
</g>
<!-- Node1&#45;&gt;Node5 -->
<g id="edge4" class="edge"><title>Node1&#45;&gt;Node5</title>
<path fill="none" stroke="midnightblue" d="M92.8726,-112.781C96.9129,-104.422 102.058,-93.7773 106.369,-84.8565"/>
<polygon fill="midnightblue" stroke="midnightblue" points="109.58,-86.2571 110.78,-75.7305 103.277,-83.2109 109.58,-86.2571"/>
</g>
<!-- Node5&#45;&gt;Node3 -->
<g id="edge5" class="edge"><title>Node5&#45;&gt;Node3</title>
<path fill="none" stroke="midnightblue" d="M105.039,-56.324C95.8734,-48.3414 82.0628,-36.3128 70.9718,-26.6529"/>
<polygon fill="midnightblue" stroke="midnightblue" points="72.9822,-23.7624 63.1426,-19.8339 68.3847,-29.041 72.9822,-23.7624"/>
</g>
<!-- Node5&#45;&gt;Node4 -->
<g id="edge6" class="edge"><title>Node5&#45;&gt;Node4</title>
<path fill="none" stroke="midnightblue" d="M126.086,-56.324C136.486,-48.1849 152.261,-35.8395 164.722,-26.0874"/>
<polygon fill="midnightblue" stroke="midnightblue" points="166.994,-28.7533 172.712,-19.8339 162.68,-23.2407 166.994,-28.7533"/>
</g>
<!-- Node6 -->
<g id="node6" class="node"><title>Node6</title>
<polygon fill="white" stroke="#bfbfbf" points="90,-0.5 90,-19.5 140,-19.5 140,-0.5 90,-0.5"/>
<text text-anchor="middle" x="115" y="-7.5" font-family="Helvetica,sans-Serif" font-size="10.00">sstream</text>
</g>
<!-- Node5&#45;&gt;Node6 -->
<g id="edge7" class="edge"><title>Node5&#45;&gt;Node6</title>
<path fill="none" stroke="midnightblue" d="M115,-56.083C115,-49.0059 115,-38.8611 115,-29.9865"/>
<polygon fill="midnightblue" stroke="midnightblue" points="118.5,-29.751 115,-19.7511 111.5,-29.7511 118.5,-29.751"/>
</g>
</g>
</svg>
