<?xml version="1.0" encoding="UTF-8" standalone="no"?>
<!DOCTYPE svg PUBLIC "-//W3C//DTD SVG 1.1//EN"
 "http://www.w3.org/Graphics/SVG/1.1/DTD/svg11.dtd">
<!-- Generated by graphviz version 2.34.0 (20131206.1153)
 -->
<!-- Title: /Users/lossius/dev/spatdiflib/src/sdEntityExtensionMedia.h Pages: 1 -->
<svg width="607pt" height="206pt"
 viewBox="0.00 0.00 607.00 206.00" xmlns="http://www.w3.org/2000/svg" xmlns:xlink="http://www.w3.org/1999/xlink">
<g id="graph0" class="graph" transform="scale(1 1) rotate(0) translate(4 202)">
<title>/Users/lossius/dev/spatdiflib/src/sdEntityExtensionMedia.h</title>
<polygon fill="white" stroke="white" points="-4,4 -4,-202 603,-202 603,4 -4,4"/>
<!-- Node1 -->
<g id="node1" class="node"><title>Node1</title>
<polygon fill="#bfbfbf" stroke="black" points="241.5,-156.5 241.5,-197.5 392.5,-197.5 392.5,-156.5 241.5,-156.5"/>
<text text-anchor="start" x="249.5" y="-185.5" font-family="Helvetica,sans-Serif" font-size="10.00">/Users/lossius/dev</text>
<text text-anchor="start" x="249.5" y="-174.5" font-family="Helvetica,sans-Serif" font-size="10.00">/spatdiflib/src/sdEntityExtension</text>
<text text-anchor="middle" x="317" y="-163.5" font-family="Helvetica,sans-Serif" font-size="10.00">Media.h</text>
</g>
<!-- Node2 -->
<g id="node2" class="node"><title>Node2</title>
<g id="a_node2"><a xlink:href="sd_entity_core_8cpp.html" target="_top" xlink:title="/Users/lossius/dev\l/spatdiflib/src/sdEntityCore.cpp">
<polygon fill="white" stroke="black" points="0,-84 0,-114 148,-114 148,-84 0,-84"/>
<text text-anchor="start" x="8" y="-102" font-family="Helvetica,sans-Serif" font-size="10.00">/Users/lossius/dev</text>
<text text-anchor="middle" x="74" y="-91" font-family="Helvetica,sans-Serif" font-size="10.00">/spatdiflib/src/sdEntityCore.cpp</text>
</a>
</g>
</g>
<!-- Node1&#45;&gt;Node2 -->
<g id="edge1" class="edge"><title>Node1&#45;&gt;Node2</title>
<path fill="none" stroke="midnightblue" d="M244.801,-153.419C204.035,-140.669 154.352,-125.131 119.104,-114.106"/>
<polygon fill="midnightblue" stroke="midnightblue" points="243.833,-156.783 254.421,-156.428 245.922,-150.103 243.833,-156.783"/>
</g>
<!-- Node3 -->
<g id="node3" class="node"><title>Node3</title>
<g id="a_node3"><a xlink:href="sd_entity_extension_media_8cpp.html" target="_top" xlink:title="/Users/lossius/dev\l/spatdiflib/src/sdEntityExtension\lMedia.cpp">
<polygon fill="white" stroke="black" points="166.5,-78.5 166.5,-119.5 317.5,-119.5 317.5,-78.5 166.5,-78.5"/>
<text text-anchor="start" x="174.5" y="-107.5" font-family="Helvetica,sans-Serif" font-size="10.00">/Users/lossius/dev</text>
<text text-anchor="start" x="174.5" y="-96.5" font-family="Helvetica,sans-Serif" font-size="10.00">/spatdiflib/src/sdEntityExtension</text>
<text text-anchor="middle" x="242" y="-85.5" font-family="Helvetica,sans-Serif" font-size="10.00">Media.cpp</text>
</a>
</g>
</g>
<!-- Node1&#45;&gt;Node3 -->
<g id="edge2" class="edge"><title>Node1&#45;&gt;Node3</title>
<path fill="none" stroke="midnightblue" d="M290.557,-149.204C280.897,-139.416 270.163,-128.539 261.249,-119.506"/>
<polygon fill="midnightblue" stroke="midnightblue" points="288.17,-151.769 297.686,-156.428 293.153,-146.852 288.17,-151.769"/>
</g>
<!-- Node4 -->
<g id="node4" class="node"><title>Node4</title>
<g id="a_node4"><a xlink:href="sd_main_8h.html" target="_top" xlink:title="/Users/lossius/dev\l/spatdiflib/src/sdMain.h">
<polygon fill="white" stroke="black" points="336,-84 336,-114 450,-114 450,-84 336,-84"/>
<text text-anchor="start" x="344" y="-102" font-family="Helvetica,sans-Serif" font-size="10.00">/Users/lossius/dev</text>
<text text-anchor="middle" x="393" y="-91" font-family="Helvetica,sans-Serif" font-size="10.00">/spatdiflib/src/sdMain.h</text>
</a>
</g>
</g>
<!-- Node1&#45;&gt;Node4 -->
<g id="edge3" class="edge"><title>Node1&#45;&gt;Node4</title>
<path fill="none" stroke="midnightblue" d="M343.676,-149.324C355.492,-137.508 368.917,-124.083 378.775,-114.225"/>
<polygon fill="midnightblue" stroke="midnightblue" points="341.168,-146.882 336.572,-156.428 346.118,-151.832 341.168,-146.882"/>
</g>
<!-- Node6 -->
<g id="node6" class="node"><title>Node6</title>
<g id="a_node6"><a xlink:href="sd_scene_8cpp.html" target="_top" xlink:title="/Users/lossius/dev\l/spatdiflib/src/sdScene.cpp">
<polygon fill="white" stroke="black" points="468.5,-84 468.5,-114 599.5,-114 599.5,-84 468.5,-84"/>
<text text-anchor="start" x="476.5" y="-102" font-family="Helvetica,sans-Serif" font-size="10.00">/Users/lossius/dev</text>
<text text-anchor="middle" x="534" y="-91" font-family="Helvetica,sans-Serif" font-size="10.00">/spatdiflib/src/sdScene.cpp</text>
</a>
</g>
</g>
<!-- Node1&#45;&gt;Node6 -->
<g id="edge5" class="edge"><title>Node1&#45;&gt;Node6</title>
<path fill="none" stroke="midnightblue" d="M382.397,-153.096C418.626,-140.407 462.511,-125.038 493.722,-114.106"/>
<polygon fill="midnightblue" stroke="midnightblue" points="381.164,-149.819 372.883,-156.428 383.478,-156.426 381.164,-149.819"/>
</g>
<!-- Node5 -->
<g id="node5" class="node"><title>Node5</title>
<g id="a_node5"><a xlink:href="_file_with_extension_8cpp.html" target="_top" xlink:title="Example: Examine all functionalities of the sdDate class.">
<polygon fill="white" stroke="black" points="336.5,-0.5 336.5,-41.5 449.5,-41.5 449.5,-0.5 336.5,-0.5"/>
<text text-anchor="start" x="344.5" y="-29.5" font-family="Helvetica,sans-Serif" font-size="10.00">/Users/lossius/dev</text>
<text text-anchor="start" x="344.5" y="-18.5" font-family="Helvetica,sans-Serif" font-size="10.00">/spatdiflib/examples</text>
<text text-anchor="middle" x="393" y="-7.5" font-family="Helvetica,sans-Serif" font-size="10.00">/FileWithExtension.cpp</text>
</a>
</g>
</g>
<!-- Node4&#45;&gt;Node5 -->
<g id="edge4" class="edge"><title>Node4&#45;&gt;Node5</title>
<path fill="none" stroke="midnightblue" d="M393,-73.656C393,-63.3257 393,-51.4425 393,-41.68"/>
<polygon fill="midnightblue" stroke="midnightblue" points="389.5,-73.7049 393,-83.705 396.5,-73.705 389.5,-73.7049"/>
</g>
</g>
</svg>
