<?xml version="1.0" encoding="UTF-8" standalone="no"?>
<!DOCTYPE svg PUBLIC "-//W3C//DTD SVG 1.1//EN"
 "http://www.w3.org/Graphics/SVG/1.1/DTD/svg11.dtd">
<!-- Generated by graphviz version 2.34.0 (20131206.1153)
 -->
<!-- Title: /Users/lossius/dev/spatdiflib/src/sdEntityCore.h Pages: 1 -->
<svg width="1313pt" height="342pt"
 viewBox="0.00 0.00 1313.00 342.00" xmlns="http://www.w3.org/2000/svg" xmlns:xlink="http://www.w3.org/1999/xlink">
<g id="graph0" class="graph" transform="scale(1 1) rotate(0) translate(4 338)">
<title>/Users/lossius/dev/spatdiflib/src/sdEntityCore.h</title>
<polygon fill="white" stroke="white" points="-4,4 -4,-338 1309,-338 1309,4 -4,4"/>
<!-- Node1 -->
<g id="node1" class="node"><title>Node1</title>
<polygon fill="#bfbfbf" stroke="black" points="834.5,-303 834.5,-333 971.5,-333 971.5,-303 834.5,-303"/>
<text text-anchor="start" x="842.5" y="-321" font-family="Helvetica,sans-Serif" font-size="10.00">/Users/lossius/dev</text>
<text text-anchor="middle" x="903" y="-310" font-family="Helvetica,sans-Serif" font-size="10.00">/spatdiflib/src/sdEntityCore.h</text>
</g>
<!-- Node2 -->
<g id="node2" class="node"><title>Node2</title>
<g id="a_node2"><a xlink:href="sd_entity_core_8cpp.html" target="_top" xlink:title="/Users/lossius/dev\l/spatdiflib/src/sdEntityCore.cpp">
<polygon fill="white" stroke="black" points="129,-235 129,-265 277,-265 277,-235 129,-235"/>
<text text-anchor="start" x="137" y="-253" font-family="Helvetica,sans-Serif" font-size="10.00">/Users/lossius/dev</text>
<text text-anchor="middle" x="203" y="-242" font-family="Helvetica,sans-Serif" font-size="10.00">/spatdiflib/src/sdEntityCore.cpp</text>
</a>
</g>
</g>
<!-- Node1&#45;&gt;Node2 -->
<g id="edge1" class="edge"><title>Node1&#45;&gt;Node2</title>
<path fill="none" stroke="midnightblue" d="M824.151,-312.596C707.38,-305.584 481.718,-290.156 291,-266 286.541,-265.435 281.963,-264.806 277.35,-264.134"/>
<polygon fill="midnightblue" stroke="midnightblue" points="824.231,-316.107 834.422,-313.208 824.648,-309.12 824.231,-316.107"/>
</g>
<!-- Node3 -->
<g id="node3" class="node"><title>Node3</title>
<g id="a_node3"><a xlink:href="sd_scene_8h.html" target="_top" xlink:title="/Users/lossius/dev\l/spatdiflib/src/sdScene.h">
<polygon fill="white" stroke="black" points="717,-235 717,-265 837,-265 837,-235 717,-235"/>
<text text-anchor="start" x="725" y="-253" font-family="Helvetica,sans-Serif" font-size="10.00">/Users/lossius/dev</text>
<text text-anchor="middle" x="777" y="-242" font-family="Helvetica,sans-Serif" font-size="10.00">/spatdiflib/src/sdScene.h</text>
</a>
</g>
</g>
<!-- Node1&#45;&gt;Node3 -->
<g id="edge2" class="edge"><title>Node1&#45;&gt;Node3</title>
<path fill="none" stroke="midnightblue" d="M867.103,-298.197C847.026,-287.68 822.411,-274.787 803.985,-265.135"/>
<polygon fill="midnightblue" stroke="midnightblue" points="865.487,-301.302 875.97,-302.841 868.736,-295.101 865.487,-301.302"/>
</g>
<!-- Node6 -->
<g id="node6" class="node"><title>Node6</title>
<g id="a_node6"><a xlink:href="sd_main_8h.html" target="_top" xlink:title="/Users/lossius/dev\l/spatdiflib/src/sdMain.h">
<polygon fill="white" stroke="black" points="312,-84 312,-114 426,-114 426,-84 312,-84"/>
<text text-anchor="start" x="320" y="-102" font-family="Helvetica,sans-Serif" font-size="10.00">/Users/lossius/dev</text>
<text text-anchor="middle" x="369" y="-91" font-family="Helvetica,sans-Serif" font-size="10.00">/spatdiflib/src/sdMain.h</text>
</a>
</g>
</g>
<!-- Node1&#45;&gt;Node6 -->
<g id="edge30" class="edge"><title>Node1&#45;&gt;Node6</title>
<path fill="none" stroke="midnightblue" d="M824.049,-311.356C688.765,-299.863 421.695,-268.606 365,-198 345.703,-173.968 355.693,-134.929 363.202,-114.118"/>
<polygon fill="midnightblue" stroke="midnightblue" points="824.092,-314.871 834.348,-312.214 824.673,-307.896 824.092,-314.871"/>
</g>
<!-- Node9 -->
<g id="node9" class="node"><title>Node9</title>
<g id="a_node9"><a xlink:href="sd_loader_test_8cpp.html" target="_top" xlink:title="Example: Test sdLoader.">
<polygon fill="white" stroke="black" points="1203,-78.5 1203,-119.5 1305,-119.5 1305,-78.5 1203,-78.5"/>
<text text-anchor="start" x="1211" y="-107.5" font-family="Helvetica,sans-Serif" font-size="10.00">/Users/lossius/dev</text>
<text text-anchor="start" x="1211" y="-96.5" font-family="Helvetica,sans-Serif" font-size="10.00">/spatdiflib/examples</text>
<text text-anchor="middle" x="1254" y="-85.5" font-family="Helvetica,sans-Serif" font-size="10.00">/sdLoaderTest.cpp</text>
</a>
</g>
</g>
<!-- Node1&#45;&gt;Node9 -->
<g id="edge32" class="edge"><title>Node1&#45;&gt;Node9</title>
<path fill="none" stroke="midnightblue" d="M981.958,-310.741C1063.27,-303.195 1183.64,-288.63 1224,-266 1258.65,-246.571 1268.26,-235.272 1282,-198 1291.79,-171.435 1278.41,-139.795 1266.99,-119.801"/>
<polygon fill="midnightblue" stroke="midnightblue" points="981.389,-307.278 971.748,-311.671 982.024,-314.249 981.389,-307.278"/>
</g>
<!-- Node10 -->
<g id="node10" class="node"><title>Node10</title>
<g id="a_node10"><a xlink:href="sd_saver_test_8cpp.html" target="_top" xlink:title="Example: Test sdSaver.">
<polygon fill="white" stroke="black" points="1083,-78.5 1083,-119.5 1185,-119.5 1185,-78.5 1083,-78.5"/>
<text text-anchor="start" x="1091" y="-107.5" font-family="Helvetica,sans-Serif" font-size="10.00">/Users/lossius/dev</text>
<text text-anchor="start" x="1091" y="-96.5" font-family="Helvetica,sans-Serif" font-size="10.00">/spatdiflib/examples</text>
<text text-anchor="middle" x="1134" y="-85.5" font-family="Helvetica,sans-Serif" font-size="10.00">/sdSaverTest.cpp</text>
</a>
</g>
</g>
<!-- Node1&#45;&gt;Node10 -->
<g id="edge33" class="edge"><title>Node1&#45;&gt;Node10</title>
<path fill="none" stroke="midnightblue" d="M981.979,-316.269C1067.68,-310.711 1200.85,-287.138 1265,-198 1275.9,-182.849 1275.28,-171.579 1265,-156 1260.13,-148.62 1219.82,-132.012 1185.19,-118.787"/>
<polygon fill="midnightblue" stroke="midnightblue" points="981.551,-312.788 971.77,-316.861 981.956,-319.776 981.551,-312.788"/>
</g>
<!-- Node11 -->
<g id="node11" class="node"><title>Node11</title>
<g id="a_node11"><a xlink:href="sd_scene_test_8cpp.html" target="_top" xlink:title="Example: Test sdScene.">
<polygon fill="white" stroke="black" points="691,-78.5 691,-119.5 793,-119.5 793,-78.5 691,-78.5"/>
<text text-anchor="start" x="699" y="-107.5" font-family="Helvetica,sans-Serif" font-size="10.00">/Users/lossius/dev</text>
<text text-anchor="start" x="699" y="-96.5" font-family="Helvetica,sans-Serif" font-size="10.00">/spatdiflib/examples</text>
<text text-anchor="middle" x="742" y="-85.5" font-family="Helvetica,sans-Serif" font-size="10.00">/sdSceneTest.cpp</text>
</a>
</g>
</g>
<!-- Node1&#45;&gt;Node11 -->
<g id="edge34" class="edge"><title>Node1&#45;&gt;Node11</title>
<path fill="none" stroke="midnightblue" d="M895.528,-292.8C884.242,-259.198 860.24,-197.832 824,-156 811.47,-141.537 794.39,-129.088 779.061,-119.626"/>
<polygon fill="midnightblue" stroke="midnightblue" points="892.32,-294.25 898.745,-302.674 898.975,-292.082 892.32,-294.25"/>
</g>
<!-- Node19 -->
<g id="node19" class="node"><title>Node19</title>
<g id="a_node19"><a xlink:href="sd_extension_test_8cpp.html" target="_top" xlink:title="Example: Test extentions.">
<polygon fill="white" stroke="black" points="1147.5,-156.5 1147.5,-197.5 1256.5,-197.5 1256.5,-156.5 1147.5,-156.5"/>
<text text-anchor="start" x="1155.5" y="-185.5" font-family="Helvetica,sans-Serif" font-size="10.00">/Users/lossius/dev</text>
<text text-anchor="start" x="1155.5" y="-174.5" font-family="Helvetica,sans-Serif" font-size="10.00">/spatdiflib/examples</text>
<text text-anchor="middle" x="1202" y="-163.5" font-family="Helvetica,sans-Serif" font-size="10.00">/sdExtensionTest.cpp</text>
</a>
</g>
</g>
<!-- Node1&#45;&gt;Node19 -->
<g id="edge31" class="edge"><title>Node1&#45;&gt;Node19</title>
<path fill="none" stroke="midnightblue" d="M942.624,-298.579C999.065,-272.341 1102.15,-224.418 1159.91,-197.565"/>
<polygon fill="midnightblue" stroke="midnightblue" points="940.908,-295.518 933.315,-302.907 943.859,-301.865 940.908,-295.518"/>
</g>
<!-- Node4 -->
<g id="node4" class="node"><title>Node4</title>
<g id="a_node4"><a xlink:href="sd_loader_8h.html" target="_top" xlink:title="/Users/lossius/dev\l/spatdiflib/src/sdLoader.h">
<polygon fill="white" stroke="black" points="931,-162 931,-192 1053,-192 1053,-162 931,-162"/>
<text text-anchor="start" x="939" y="-180" font-family="Helvetica,sans-Serif" font-size="10.00">/Users/lossius/dev</text>
<text text-anchor="middle" x="992" y="-169" font-family="Helvetica,sans-Serif" font-size="10.00">/spatdiflib/src/sdLoader.h</text>
</a>
</g>
</g>
<!-- Node3&#45;&gt;Node4 -->
<g id="edge3" class="edge"><title>Node3&#45;&gt;Node4</title>
<path fill="none" stroke="midnightblue" d="M829.047,-231.812C865.882,-219.648 914.679,-203.534 949.244,-192.12"/>
<polygon fill="midnightblue" stroke="midnightblue" points="827.875,-228.513 819.477,-234.973 830.07,-235.16 827.875,-228.513"/>
</g>
<!-- Node3&#45;&gt;Node6 -->
<g id="edge20" class="edge"><title>Node3&#45;&gt;Node6</title>
<path fill="none" stroke="midnightblue" d="M706.517,-249.292C607.07,-248.163 432.682,-240.031 388,-198 364.899,-176.27 365.116,-135.529 367.118,-114.061"/>
<polygon fill="midnightblue" stroke="midnightblue" points="706.753,-252.794 716.784,-249.387 706.817,-245.794 706.753,-252.794"/>
</g>
<!-- Node8 -->
<g id="node8" class="node"><title>Node8</title>
<g id="a_node8"><a xlink:href="_how__to__query_8cpp.html" target="_top" xlink:title="Example: How to query a SoatDIF scene.">
<polygon fill="white" stroke="black" points="811,-78.5 811,-119.5 913,-119.5 913,-78.5 811,-78.5"/>
<text text-anchor="start" x="819" y="-107.5" font-family="Helvetica,sans-Serif" font-size="10.00">/Users/lossius/dev</text>
<text text-anchor="start" x="819" y="-96.5" font-family="Helvetica,sans-Serif" font-size="10.00">/spatdiflib/examples</text>
<text text-anchor="middle" x="862" y="-85.5" font-family="Helvetica,sans-Serif" font-size="10.00">/How_to_query.cpp</text>
</a>
</g>
</g>
<!-- Node3&#45;&gt;Node8 -->
<g id="edge23" class="edge"><title>Node3&#45;&gt;Node8</title>
<path fill="none" stroke="midnightblue" d="M800.367,-227.302C808.622,-218.756 817.467,-208.484 824,-198 839.634,-172.91 850.698,-140.331 856.716,-119.787"/>
<polygon fill="midnightblue" stroke="midnightblue" points="797.639,-225.079 793.035,-234.622 802.585,-230.033 797.639,-225.079"/>
</g>
<!-- Node3&#45;&gt;Node9 -->
<g id="edge26" class="edge"><title>Node3&#45;&gt;Node9</title>
<path fill="none" stroke="midnightblue" d="M847.104,-242.783C927.458,-234.793 1053.54,-219.361 1096,-198 1119.87,-185.995 1117.16,-171.378 1139,-156 1159.43,-141.619 1184.11,-129.063 1205.36,-119.505"/>
<polygon fill="midnightblue" stroke="midnightblue" points="846.666,-239.309 837.055,-243.767 847.349,-246.276 846.666,-239.309"/>
</g>
<!-- Node3&#45;&gt;Node10 -->
<g id="edge28" class="edge"><title>Node3&#45;&gt;Node10</title>
<path fill="none" stroke="midnightblue" d="M847.051,-242.457C919.533,-234.644 1026.96,-219.83 1062,-198 1092.28,-179.135 1113.96,-142.468 1125.2,-119.726"/>
<polygon fill="midnightblue" stroke="midnightblue" points="846.643,-238.981 837.066,-243.513 847.379,-245.942 846.643,-238.981"/>
</g>
<!-- Node3&#45;&gt;Node11 -->
<g id="edge29" class="edge"><title>Node3&#45;&gt;Node11</title>
<path fill="none" stroke="midnightblue" d="M793.575,-226.349C805.448,-207.165 817.619,-179.165 807,-156 800.234,-141.241 787.446,-128.898 774.991,-119.589"/>
<polygon fill="midnightblue" stroke="midnightblue" points="790.622,-224.469 788.048,-234.747 796.47,-228.318 790.622,-224.469"/>
</g>
<!-- Node12 -->
<g id="node12" class="node"><title>Node12</title>
<g id="a_node12"><a xlink:href="sd_o_s_c_responder_8h.html" target="_top" xlink:title="/Users/lossius/dev\l/spatdiflib/src/sdOSCResponder.h">
<polygon fill="white" stroke="black" points="113.5,-162 113.5,-192 276.5,-192 276.5,-162 113.5,-162"/>
<text text-anchor="start" x="121.5" y="-180" font-family="Helvetica,sans-Serif" font-size="10.00">/Users/lossius/dev</text>
<text text-anchor="middle" x="195" y="-169" font-family="Helvetica,sans-Serif" font-size="10.00">/spatdiflib/src/sdOSCResponder.h</text>
</a>
</g>
</g>
<!-- Node3&#45;&gt;Node12 -->
<g id="edge11" class="edge"><title>Node3&#45;&gt;Node12</title>
<path fill="none" stroke="midnightblue" d="M706.609,-241.753C618.297,-232.484 462.261,-215.525 329,-198 312.092,-195.777 294.014,-193.208 276.784,-190.669"/>
<polygon fill="midnightblue" stroke="midnightblue" points="706.464,-245.256 716.775,-242.817 707.193,-238.295 706.464,-245.256"/>
</g>
<!-- Node14 -->
<g id="node14" class="node"><title>Node14</title>
<g id="a_node14"><a xlink:href="sd_o_s_c_test_8cpp.html" target="_top" xlink:title="Example: Test sdOSCResponder.">
<polygon fill="white" stroke="black" points="0,-78.5 0,-119.5 102,-119.5 102,-78.5 0,-78.5"/>
<text text-anchor="start" x="8" y="-107.5" font-family="Helvetica,sans-Serif" font-size="10.00">/Users/lossius/dev</text>
<text text-anchor="start" x="8" y="-96.5" font-family="Helvetica,sans-Serif" font-size="10.00">/spatdiflib/examples</text>
<text text-anchor="middle" x="51" y="-85.5" font-family="Helvetica,sans-Serif" font-size="10.00">/sdOSCTest.cpp</text>
</a>
</g>
</g>
<!-- Node3&#45;&gt;Node14 -->
<g id="edge27" class="edge"><title>Node3&#45;&gt;Node14</title>
<path fill="none" stroke="midnightblue" d="M706.579,-247.451C544.213,-243.345 153.663,-230.207 104,-198 76.4112,-180.108 62.0919,-142.763 55.5846,-119.691"/>
<polygon fill="midnightblue" stroke="midnightblue" points="706.853,-250.959 716.937,-247.709 707.027,-243.961 706.853,-250.959"/>
</g>
<!-- Node15 -->
<g id="node15" class="node"><title>Node15</title>
<g id="a_node15"><a xlink:href="sd_saver_8h.html" target="_top" xlink:title="/Users/lossius/dev\l/spatdiflib/src/sdSaver.h">
<polygon fill="white" stroke="black" points="679.5,-162 679.5,-192 798.5,-192 798.5,-162 679.5,-162"/>
<text text-anchor="start" x="687.5" y="-180" font-family="Helvetica,sans-Serif" font-size="10.00">/Users/lossius/dev</text>
<text text-anchor="middle" x="739" y="-169" font-family="Helvetica,sans-Serif" font-size="10.00">/spatdiflib/src/sdSaver.h</text>
</a>
</g>
</g>
<!-- Node3&#45;&gt;Node15 -->
<g id="edge15" class="edge"><title>Node3&#45;&gt;Node15</title>
<path fill="none" stroke="midnightblue" d="M764.638,-225.902C758.752,-214.905 751.894,-202.092 746.753,-192.486"/>
<polygon fill="midnightblue" stroke="midnightblue" points="761.688,-227.808 769.492,-234.973 767.859,-224.504 761.688,-227.808"/>
</g>
<!-- Node16 -->
<g id="node16" class="node"><title>Node16</title>
<g id="a_node16"><a xlink:href="sd_saver_8cpp.html" target="_top" xlink:title="/Users/lossius/dev\l/spatdiflib/src/sdSaver.cpp">
<polygon fill="white" stroke="black" points="495,-84 495,-114 625,-114 625,-84 495,-84"/>
<text text-anchor="start" x="503" y="-102" font-family="Helvetica,sans-Serif" font-size="10.00">/Users/lossius/dev</text>
<text text-anchor="middle" x="560" y="-91" font-family="Helvetica,sans-Serif" font-size="10.00">/spatdiflib/src/sdSaver.cpp</text>
</a>
</g>
</g>
<!-- Node3&#45;&gt;Node16 -->
<g id="edge21" class="edge"><title>Node3&#45;&gt;Node16</title>
<path fill="none" stroke="midnightblue" d="M706.802,-244.434C603.318,-236.979 419.847,-220.712 400,-198 387.717,-183.944 389.199,-171.224 400,-156 421.457,-125.757 460.552,-111.718 494.725,-105.259"/>
<polygon fill="midnightblue" stroke="midnightblue" points="706.642,-247.931 716.865,-245.149 707.139,-240.949 706.642,-247.931"/>
</g>
<!-- Node17 -->
<g id="node17" class="node"><title>Node17</title>
<g id="a_node17"><a xlink:href="sd_scene_8cpp.html" target="_top" xlink:title="/Users/lossius/dev\l/spatdiflib/src/sdScene.cpp">
<polygon fill="white" stroke="black" points="409.5,-162 409.5,-192 540.5,-192 540.5,-162 409.5,-162"/>
<text text-anchor="start" x="417.5" y="-180" font-family="Helvetica,sans-Serif" font-size="10.00">/Users/lossius/dev</text>
<text text-anchor="middle" x="475" y="-169" font-family="Helvetica,sans-Serif" font-size="10.00">/spatdiflib/src/sdScene.cpp</text>
</a>
</g>
</g>
<!-- Node3&#45;&gt;Node17 -->
<g id="edge22" class="edge"><title>Node3&#45;&gt;Node17</title>
<path fill="none" stroke="midnightblue" d="M706.693,-233.956C661.769,-224.158 602.332,-210.851 550,-198 542.41,-196.136 534.409,-194.09 526.573,-192.04"/>
<polygon fill="midnightblue" stroke="midnightblue" points="706.112,-237.412 716.628,-236.118 707.6,-230.572 706.112,-237.412"/>
</g>
<!-- Node18 -->
<g id="node18" class="node"><title>Node18</title>
<g id="a_node18"><a xlink:href="sd_event_test_8cpp.html" target="_top" xlink:title="Example: Test #stEntityCore.">
<polygon fill="white" stroke="black" points="559,-156.5 559,-197.5 661,-197.5 661,-156.5 559,-156.5"/>
<text text-anchor="start" x="567" y="-185.5" font-family="Helvetica,sans-Serif" font-size="10.00">/Users/lossius/dev</text>
<text text-anchor="start" x="567" y="-174.5" font-family="Helvetica,sans-Serif" font-size="10.00">/spatdiflib/examples</text>
<text text-anchor="middle" x="610" y="-163.5" font-family="Helvetica,sans-Serif" font-size="10.00">/sdEventTest.cpp</text>
</a>
</g>
</g>
<!-- Node3&#45;&gt;Node18 -->
<g id="edge24" class="edge"><title>Node3&#45;&gt;Node18</title>
<path fill="none" stroke="midnightblue" d="M734.773,-231.047C710.707,-220.816 680.531,-207.986 655.884,-197.507"/>
<polygon fill="midnightblue" stroke="midnightblue" points="733.434,-234.281 744.006,-234.973 736.173,-227.839 733.434,-234.281"/>
</g>
<!-- Node3&#45;&gt;Node19 -->
<g id="edge25" class="edge"><title>Node3&#45;&gt;Node19</title>
<path fill="none" stroke="midnightblue" d="M847.628,-241.83C919.832,-233.812 1034.98,-219.12 1133,-198 1137.63,-197.002 1142.41,-195.859 1147.19,-194.637"/>
<polygon fill="midnightblue" stroke="midnightblue" points="846.852,-238.394 837.294,-242.965 847.616,-245.352 846.852,-238.394"/>
</g>
<!-- Node5 -->
<g id="node5" class="node"><title>Node5</title>
<g id="a_node5"><a xlink:href="sd_loader_8cpp.html" target="_top" xlink:title="/Users/lossius/dev\l/spatdiflib/src/sdLoader.cpp">
<polygon fill="white" stroke="black" points="931,-84 931,-114 1065,-114 1065,-84 931,-84"/>
<text text-anchor="start" x="939" y="-102" font-family="Helvetica,sans-Serif" font-size="10.00">/Users/lossius/dev</text>
<text text-anchor="middle" x="998" y="-91" font-family="Helvetica,sans-Serif" font-size="10.00">/spatdiflib/src/sdLoader.cpp</text>
</a>
</g>
</g>
<!-- Node4&#45;&gt;Node5 -->
<g id="edge4" class="edge"><title>Node4&#45;&gt;Node5</title>
<path fill="none" stroke="midnightblue" d="M993.927,-151.59C994.901,-139.257 996.048,-124.724 996.877,-114.231"/>
<polygon fill="midnightblue" stroke="midnightblue" points="990.427,-151.461 993.129,-161.705 997.405,-152.011 990.427,-151.461"/>
</g>
<!-- Node4&#45;&gt;Node6 -->
<g id="edge5" class="edge"><title>Node4&#45;&gt;Node6</title>
<path fill="none" stroke="midnightblue" d="M920.457,-168.195C786.012,-153.512 507.192,-122.981 486,-120 466.41,-117.244 445.059,-113.743 426.024,-110.442"/>
<polygon fill="midnightblue" stroke="midnightblue" points="920.342,-171.703 930.663,-169.31 921.102,-164.745 920.342,-171.703"/>
</g>
<!-- Node4&#45;&gt;Node8 -->
<g id="edge7" class="edge"><title>Node4&#45;&gt;Node8</title>
<path fill="none" stroke="midnightblue" d="M959.08,-156.755C939.732,-145.443 915.322,-131.173 895.819,-119.771"/>
<polygon fill="midnightblue" stroke="midnightblue" points="957.453,-159.858 967.853,-161.883 960.986,-153.815 957.453,-159.858"/>
</g>
<!-- Node4&#45;&gt;Node9 -->
<g id="edge8" class="edge"><title>Node4&#45;&gt;Node9</title>
<path fill="none" stroke="midnightblue" d="M1055.67,-159.248C1095.55,-148.531 1147.95,-134.047 1194,-120 1196.94,-119.103 1199.96,-118.163 1202.99,-117.2"/>
<polygon fill="midnightblue" stroke="midnightblue" points="1054.56,-155.921 1045.8,-161.889 1056.37,-162.683 1054.56,-155.921"/>
</g>
<!-- Node4&#45;&gt;Node10 -->
<g id="edge9" class="edge"><title>Node4&#45;&gt;Node10</title>
<path fill="none" stroke="midnightblue" d="M1027.42,-157.043C1048.73,-145.639 1075.8,-131.15 1097.33,-119.628"/>
<polygon fill="midnightblue" stroke="midnightblue" points="1025.54,-154.078 1018.38,-161.883 1028.84,-160.25 1025.54,-154.078"/>
</g>
<!-- Node4&#45;&gt;Node11 -->
<g id="edge10" class="edge"><title>Node4&#45;&gt;Node11</title>
<path fill="none" stroke="midnightblue" d="M932.874,-159.153C895.295,-148.302 845.672,-133.71 802,-120 799.067,-119.079 796.057,-118.12 793.024,-117.143"/>
<polygon fill="midnightblue" stroke="midnightblue" points="932.069,-162.563 942.647,-161.969 934.007,-155.837 932.069,-162.563"/>
</g>
<!-- Node7 -->
<g id="node7" class="node"><title>Node7</title>
<g id="a_node7"><a xlink:href="_file_with_extension_8cpp.html" target="_top" xlink:title="Example: Examine all functionalities of the sdDate class.">
<polygon fill="white" stroke="black" points="312.5,-0.5 312.5,-41.5 425.5,-41.5 425.5,-0.5 312.5,-0.5"/>
<text text-anchor="start" x="320.5" y="-29.5" font-family="Helvetica,sans-Serif" font-size="10.00">/Users/lossius/dev</text>
<text text-anchor="start" x="320.5" y="-18.5" font-family="Helvetica,sans-Serif" font-size="10.00">/spatdiflib/examples</text>
<text text-anchor="middle" x="369" y="-7.5" font-family="Helvetica,sans-Serif" font-size="10.00">/FileWithExtension.cpp</text>
</a>
</g>
</g>
<!-- Node6&#45;&gt;Node7 -->
<g id="edge6" class="edge"><title>Node6&#45;&gt;Node7</title>
<path fill="none" stroke="midnightblue" d="M369,-73.656C369,-63.3257 369,-51.4425 369,-41.68"/>
<polygon fill="midnightblue" stroke="midnightblue" points="365.5,-73.7049 369,-83.705 372.5,-73.705 365.5,-73.7049"/>
</g>
<!-- Node12&#45;&gt;Node6 -->
<g id="edge12" class="edge"><title>Node12&#45;&gt;Node6</title>
<path fill="none" stroke="midnightblue" d="M236.502,-157.873C267.262,-144.437 308.583,-126.389 336.853,-114.041"/>
<polygon fill="midnightblue" stroke="midnightblue" points="235.083,-154.673 227.32,-161.883 237.885,-161.088 235.083,-154.673"/>
</g>
<!-- Node13 -->
<g id="node13" class="node"><title>Node13</title>
<g id="a_node13"><a xlink:href="sd_o_s_c_responder_8cpp.html" target="_top" xlink:title="/Users/lossius/dev\l/spatdiflib/src/sdOSCResponder.cpp">
<polygon fill="white" stroke="black" points="120,-84 120,-114 294,-114 294,-84 120,-84"/>
<text text-anchor="start" x="128" y="-102" font-family="Helvetica,sans-Serif" font-size="10.00">/Users/lossius/dev</text>
<text text-anchor="middle" x="207" y="-91" font-family="Helvetica,sans-Serif" font-size="10.00">/spatdiflib/src/sdOSCResponder.cpp</text>
</a>
</g>
</g>
<!-- Node12&#45;&gt;Node13 -->
<g id="edge13" class="edge"><title>Node12&#45;&gt;Node13</title>
<path fill="none" stroke="midnightblue" d="M198.854,-151.59C200.802,-139.257 203.096,-124.724 204.753,-114.231"/>
<polygon fill="midnightblue" stroke="midnightblue" points="195.36,-151.281 197.257,-161.705 202.274,-152.373 195.36,-151.281"/>
</g>
<!-- Node12&#45;&gt;Node14 -->
<g id="edge14" class="edge"><title>Node12&#45;&gt;Node14</title>
<path fill="none" stroke="midnightblue" d="M159.371,-157.196C137.72,-145.769 110.118,-131.201 88.1896,-119.628"/>
<polygon fill="midnightblue" stroke="midnightblue" points="157.775,-160.311 168.252,-161.883 161.042,-154.12 157.775,-160.311"/>
</g>
<!-- Node15&#45;&gt;Node6 -->
<g id="edge16" class="edge"><title>Node15&#45;&gt;Node6</title>
<path fill="none" stroke="midnightblue" d="M683.112,-159.3C678.689,-158.131 674.28,-157.016 670,-156 624.618,-145.229 499.997,-122.907 426.109,-109.934"/>
<polygon fill="midnightblue" stroke="midnightblue" points="682.203,-162.679 692.771,-161.924 684.039,-155.924 682.203,-162.679"/>
</g>
<!-- Node15&#45;&gt;Node10 -->
<g id="edge18" class="edge"><title>Node15&#45;&gt;Node10</title>
<path fill="none" stroke="midnightblue" d="M808.771,-167.569C876.99,-158.57 983.51,-142.499 1074,-120 1076.88,-119.285 1079.81,-118.498 1082.77,-117.662"/>
<polygon fill="midnightblue" stroke="midnightblue" points="808.038,-164.135 798.575,-168.899 808.943,-171.076 808.038,-164.135"/>
</g>
<!-- Node15&#45;&gt;Node11 -->
<g id="edge19" class="edge"><title>Node15&#45;&gt;Node11</title>
<path fill="none" stroke="midnightblue" d="M739.961,-151.656C740.369,-141.326 740.838,-129.443 741.223,-119.68"/>
<polygon fill="midnightblue" stroke="midnightblue" points="736.462,-151.575 739.564,-161.705 743.456,-151.851 736.462,-151.575"/>
</g>
<!-- Node15&#45;&gt;Node16 -->
<g id="edge17" class="edge"><title>Node15&#45;&gt;Node16</title>
<path fill="none" stroke="midnightblue" d="M696.306,-157.873C664.661,-144.437 622.153,-126.389 593.071,-114.041"/>
<polygon fill="midnightblue" stroke="midnightblue" points="695.178,-161.197 705.751,-161.883 697.914,-154.753 695.178,-161.197"/>
</g>
</g>
</svg>
