<?xml version="1.0" encoding="UTF-8" standalone="no"?>
<!DOCTYPE svg PUBLIC "-//W3C//DTD SVG 1.1//EN"
 "http://www.w3.org/Graphics/SVG/1.1/DTD/svg11.dtd">
<!-- Generated by graphviz version 2.34.0 (20131206.1153)
 -->
<!-- Title: /Users/lossius/dev/spatdiflib/src/sdEntityExtension.h Pages: 1 -->
<svg width="1398pt" height="430pt"
 viewBox="0.00 0.00 1397.93 430.00" xmlns="http://www.w3.org/2000/svg" xmlns:xlink="http://www.w3.org/1999/xlink">
<g id="graph0" class="graph" transform="scale(1 1) rotate(0) translate(4 426)">
<title>/Users/lossius/dev/spatdiflib/src/sdEntityExtension.h</title>
<polygon fill="white" stroke="white" points="-4,4 -4,-426 1393.93,-426 1393.93,4 -4,4"/>
<!-- Node1 -->
<g id="node1" class="node"><title>Node1</title>
<polygon fill="#bfbfbf" stroke="black" points="963.933,-391 963.933,-421 1121.93,-421 1121.93,-391 963.933,-391"/>
<text text-anchor="start" x="971.933" y="-409" font-family="Helvetica,sans-Serif" font-size="10.00">/Users/lossius/dev</text>
<text text-anchor="middle" x="1042.93" y="-398" font-family="Helvetica,sans-Serif" font-size="10.00">/spatdiflib/src/sdEntityExtension.h</text>
</g>
<!-- Node2 -->
<g id="node2" class="node"><title>Node2</title>
<g id="a_node2"><a xlink:href="sd_entity_core_8h.html" target="_top" xlink:title="/Users/lossius/dev\l/spatdiflib/src/sdEntityCore.h">
<polygon fill="white" stroke="black" points="436.433,-318 436.433,-348 573.433,-348 573.433,-318 436.433,-318"/>
<text text-anchor="start" x="444.433" y="-336" font-family="Helvetica,sans-Serif" font-size="10.00">/Users/lossius/dev</text>
<text text-anchor="middle" x="504.933" y="-325" font-family="Helvetica,sans-Serif" font-size="10.00">/spatdiflib/src/sdEntityCore.h</text>
</a>
</g>
</g>
<!-- Node1&#45;&gt;Node2 -->
<g id="edge1" class="edge"><title>Node1&#45;&gt;Node2</title>
<path fill="none" stroke="midnightblue" d="M953.726,-393.227C846.925,-379.133 670.385,-355.835 573.621,-343.065"/>
<polygon fill="midnightblue" stroke="midnightblue" points="953.466,-396.723 963.838,-394.562 954.382,-389.783 953.466,-396.723"/>
</g>
<!-- Node4 -->
<g id="node4" class="node"><title>Node4</title>
<g id="a_node4"><a xlink:href="sd_scene_8h.html" target="_top" xlink:title="/Users/lossius/dev\l/spatdiflib/src/sdScene.h">
<polygon fill="white" stroke="black" points="542.933,-240 542.933,-270 662.933,-270 662.933,-240 542.933,-240"/>
<text text-anchor="start" x="550.933" y="-258" font-family="Helvetica,sans-Serif" font-size="10.00">/Users/lossius/dev</text>
<text text-anchor="middle" x="602.933" y="-247" font-family="Helvetica,sans-Serif" font-size="10.00">/spatdiflib/src/sdScene.h</text>
</a>
</g>
</g>
<!-- Node1&#45;&gt;Node4 -->
<g id="edge41" class="edge"><title>Node1&#45;&gt;Node4</title>
<path fill="none" stroke="midnightblue" d="M992.046,-387.768C904.15,-358.003 725.537,-297.518 644.538,-270.089"/>
<polygon fill="midnightblue" stroke="midnightblue" points="990.945,-391.09 1001.54,-390.982 993.19,-384.46 990.945,-391.09"/>
</g>
<!-- Node7 -->
<g id="node7" class="node"><title>Node7</title>
<g id="a_node7"><a xlink:href="sd_main_8h.html" target="_top" xlink:title="/Users/lossius/dev\l/spatdiflib/src/sdMain.h">
<polygon fill="white" stroke="black" points="947.933,-84 947.933,-114 1061.93,-114 1061.93,-84 947.933,-84"/>
<text text-anchor="start" x="955.933" y="-102" font-family="Helvetica,sans-Serif" font-size="10.00">/Users/lossius/dev</text>
<text text-anchor="middle" x="1004.93" y="-91" font-family="Helvetica,sans-Serif" font-size="10.00">/spatdiflib/src/sdMain.h</text>
</a>
</g>
</g>
<!-- Node1&#45;&gt;Node7 -->
<g id="edge42" class="edge"><title>Node1&#45;&gt;Node7</title>
<path fill="none" stroke="midnightblue" d="M1050.62,-381.292C1064.02,-335.775 1087.47,-233.769 1056.93,-156 1050.29,-139.081 1035.86,-124.233 1023.89,-114.084"/>
<polygon fill="midnightblue" stroke="midnightblue" points="1047.27,-380.276 1047.7,-390.862 1053.96,-382.318 1047.27,-380.276"/>
</g>
<!-- Node17 -->
<g id="node17" class="node"><title>Node17</title>
<g id="a_node17"><a xlink:href="sd_saver_8cpp.html" target="_top" xlink:title="/Users/lossius/dev\l/spatdiflib/src/sdSaver.cpp">
<polygon fill="white" stroke="black" points="713.933,-84 713.933,-114 843.933,-114 843.933,-84 713.933,-84"/>
<text text-anchor="start" x="721.933" y="-102" font-family="Helvetica,sans-Serif" font-size="10.00">/Users/lossius/dev</text>
<text text-anchor="middle" x="778.933" y="-91" font-family="Helvetica,sans-Serif" font-size="10.00">/spatdiflib/src/sdSaver.cpp</text>
</a>
</g>
</g>
<!-- Node1&#45;&gt;Node17 -->
<g id="edge43" class="edge"><title>Node1&#45;&gt;Node17</title>
<path fill="none" stroke="midnightblue" d="M1045.85,-380.643C1050.45,-329.599 1052.75,-211.552 984.933,-156 945.224,-123.473 888.185,-109.75 844.191,-104.006"/>
<polygon fill="midnightblue" stroke="midnightblue" points="1042.36,-380.444 1044.83,-390.746 1049.32,-381.149 1042.36,-380.444"/>
</g>
<!-- Node21 -->
<g id="node21" class="node"><title>Node21</title>
<g id="a_node21"><a xlink:href="sd_entity_extension_media_8h.html" target="_top" xlink:title="/Users/lossius/dev\l/spatdiflib/src/sdEntityExtension\lMedia.h">
<polygon fill="white" stroke="black" points="1109.43,-312.5 1109.43,-353.5 1260.43,-353.5 1260.43,-312.5 1109.43,-312.5"/>
<text text-anchor="start" x="1117.43" y="-341.5" font-family="Helvetica,sans-Serif" font-size="10.00">/Users/lossius/dev</text>
<text text-anchor="start" x="1117.43" y="-330.5" font-family="Helvetica,sans-Serif" font-size="10.00">/spatdiflib/src/sdEntityExtension</text>
<text text-anchor="middle" x="1184.93" y="-319.5" font-family="Helvetica,sans-Serif" font-size="10.00">Media.h</text>
</a>
</g>
</g>
<!-- Node1&#45;&gt;Node21 -->
<g id="edge36" class="edge"><title>Node1&#45;&gt;Node21</title>
<path fill="none" stroke="midnightblue" d="M1080.2,-386.364C1100.43,-376.249 1125.42,-363.755 1145.92,-353.507"/>
<polygon fill="midnightblue" stroke="midnightblue" points="1078.37,-383.37 1070.99,-390.973 1081.5,-389.631 1078.37,-383.37"/>
</g>
<!-- Node3 -->
<g id="node3" class="node"><title>Node3</title>
<g id="a_node3"><a xlink:href="sd_entity_core_8cpp.html" target="_top" xlink:title="/Users/lossius/dev\l/spatdiflib/src/sdEntityCore.cpp">
<polygon fill="white" stroke="black" points="866.933,-240 866.933,-270 1014.93,-270 1014.93,-240 866.933,-240"/>
<text text-anchor="start" x="874.933" y="-258" font-family="Helvetica,sans-Serif" font-size="10.00">/Users/lossius/dev</text>
<text text-anchor="middle" x="940.933" y="-247" font-family="Helvetica,sans-Serif" font-size="10.00">/spatdiflib/src/sdEntityCore.cpp</text>
</a>
</g>
</g>
<!-- Node2&#45;&gt;Node3 -->
<g id="edge2" class="edge"><title>Node2&#45;&gt;Node3</title>
<path fill="none" stroke="midnightblue" d="M583.669,-320.797C654.368,-310.39 760.889,-293.846 852.933,-276 862.162,-274.211 871.898,-272.161 881.398,-270.072"/>
<polygon fill="midnightblue" stroke="midnightblue" points="582.891,-317.374 573.504,-322.288 583.906,-324.3 582.891,-317.374"/>
</g>
<!-- Node2&#45;&gt;Node4 -->
<g id="edge3" class="edge"><title>Node2&#45;&gt;Node4</title>
<path fill="none" stroke="midnightblue" d="M531.685,-311.253C548.474,-298.234 569.686,-281.784 584.583,-270.231"/>
<polygon fill="midnightblue" stroke="midnightblue" points="529.123,-308.811 523.366,-317.705 533.413,-314.342 529.123,-308.811"/>
</g>
<!-- Node2&#45;&gt;Node7 -->
<g id="edge31" class="edge"><title>Node2&#45;&gt;Node7</title>
<path fill="none" stroke="midnightblue" d="M565.465,-315.21C694.292,-279.461 984.016,-198.985 984.933,-198 1006.47,-174.875 1007.49,-135.098 1006.29,-114.035"/>
<polygon fill="midnightblue" stroke="midnightblue" points="564.432,-311.864 555.732,-317.91 566.303,-318.609 564.432,-311.864"/>
</g>
<!-- Node10 -->
<g id="node10" class="node"><title>Node10</title>
<g id="a_node10"><a xlink:href="sd_loader_test_8cpp.html" target="_top" xlink:title="Example: Test sdLoader.">
<polygon fill="white" stroke="black" points="48.933,-78.5 48.933,-119.5 150.933,-119.5 150.933,-78.5 48.933,-78.5"/>
<text text-anchor="start" x="56.933" y="-107.5" font-family="Helvetica,sans-Serif" font-size="10.00">/Users/lossius/dev</text>
<text text-anchor="start" x="56.933" y="-96.5" font-family="Helvetica,sans-Serif" font-size="10.00">/spatdiflib/examples</text>
<text text-anchor="middle" x="99.933" y="-85.5" font-family="Helvetica,sans-Serif" font-size="10.00">/sdLoaderTest.cpp</text>
</a>
</g>
</g>
<!-- Node2&#45;&gt;Node10 -->
<g id="edge33" class="edge"><title>Node2&#45;&gt;Node10</title>
<path fill="none" stroke="midnightblue" d="M425.879,-327.728C298.705,-320.112 60.0269,-302.463 31.933,-276 -7.15237,-239.183 -7.13859,-203.482 17.933,-156 26.1434,-140.451 40.8288,-128.402 55.5261,-119.533"/>
<polygon fill="midnightblue" stroke="midnightblue" points="425.77,-331.227 435.959,-328.325 426.183,-324.24 425.77,-331.227"/>
</g>
<!-- Node11 -->
<g id="node11" class="node"><title>Node11</title>
<g id="a_node11"><a xlink:href="sd_saver_test_8cpp.html" target="_top" xlink:title="Example: Test sdSaver.">
<polygon fill="white" stroke="black" points="440.933,-78.5 440.933,-119.5 542.933,-119.5 542.933,-78.5 440.933,-78.5"/>
<text text-anchor="start" x="448.933" y="-107.5" font-family="Helvetica,sans-Serif" font-size="10.00">/Users/lossius/dev</text>
<text text-anchor="start" x="448.933" y="-96.5" font-family="Helvetica,sans-Serif" font-size="10.00">/spatdiflib/examples</text>
<text text-anchor="middle" x="491.933" y="-85.5" font-family="Helvetica,sans-Serif" font-size="10.00">/sdSaverTest.cpp</text>
</a>
</g>
</g>
<!-- Node2&#45;&gt;Node11 -->
<g id="edge34" class="edge"><title>Node2&#45;&gt;Node11</title>
<path fill="none" stroke="midnightblue" d="M425.952,-328.224C266.351,-317.916 -70.0684,-281.068 43.933,-156 102.266,-92.0039 347.191,-137.808 431.933,-120 434.834,-119.39 437.791,-118.687 440.759,-117.916"/>
<polygon fill="midnightblue" stroke="midnightblue" points="426.003,-331.734 436.202,-328.865 426.44,-324.747 426.003,-331.734"/>
</g>
<!-- Node12 -->
<g id="node12" class="node"><title>Node12</title>
<g id="a_node12"><a xlink:href="sd_scene_test_8cpp.html" target="_top" xlink:title="Example: Test sdScene.">
<polygon fill="white" stroke="black" points="560.933,-78.5 560.933,-119.5 662.933,-119.5 662.933,-78.5 560.933,-78.5"/>
<text text-anchor="start" x="568.933" y="-107.5" font-family="Helvetica,sans-Serif" font-size="10.00">/Users/lossius/dev</text>
<text text-anchor="start" x="568.933" y="-96.5" font-family="Helvetica,sans-Serif" font-size="10.00">/spatdiflib/examples</text>
<text text-anchor="middle" x="611.933" y="-85.5" font-family="Helvetica,sans-Serif" font-size="10.00">/sdSceneTest.cpp</text>
</a>
</g>
</g>
<!-- Node2&#45;&gt;Node12 -->
<g id="edge35" class="edge"><title>Node2&#45;&gt;Node12</title>
<path fill="none" stroke="midnightblue" d="M481.731,-310.578C446.789,-275.709 388.525,-205.593 425.933,-156 461.005,-109.503 496.294,-137.213 551.933,-120 554.87,-119.091 557.882,-118.142 560.919,-117.172"/>
<polygon fill="midnightblue" stroke="midnightblue" points="479.602,-313.39 489.207,-317.86 484.486,-308.376 479.602,-313.39"/>
</g>
<!-- Node20 -->
<g id="node20" class="node"><title>Node20</title>
<g id="a_node20"><a xlink:href="sd_extension_test_8cpp.html" target="_top" xlink:title="Example: Test extentions.">
<polygon fill="white" stroke="black" points="53.433,-156.5 53.433,-197.5 162.433,-197.5 162.433,-156.5 53.433,-156.5"/>
<text text-anchor="start" x="61.433" y="-185.5" font-family="Helvetica,sans-Serif" font-size="10.00">/Users/lossius/dev</text>
<text text-anchor="start" x="61.433" y="-174.5" font-family="Helvetica,sans-Serif" font-size="10.00">/spatdiflib/examples</text>
<text text-anchor="middle" x="107.933" y="-163.5" font-family="Helvetica,sans-Serif" font-size="10.00">/sdExtensionTest.cpp</text>
</a>
</g>
</g>
<!-- Node2&#45;&gt;Node20 -->
<g id="edge32" class="edge"><title>Node2&#45;&gt;Node20</title>
<path fill="none" stroke="midnightblue" d="M459.016,-314.188C384.117,-285.134 236.222,-227.765 158.45,-197.596"/>
<polygon fill="midnightblue" stroke="midnightblue" points="458.061,-317.572 468.649,-317.925 460.592,-311.046 458.061,-317.572"/>
</g>
<!-- Node5 -->
<g id="node5" class="node"><title>Node5</title>
<g id="a_node5"><a xlink:href="sd_loader_8h.html" target="_top" xlink:title="/Users/lossius/dev\l/spatdiflib/src/sdLoader.h">
<polygon fill="white" stroke="black" points="256.933,-162 256.933,-192 378.933,-192 378.933,-162 256.933,-162"/>
<text text-anchor="start" x="264.933" y="-180" font-family="Helvetica,sans-Serif" font-size="10.00">/Users/lossius/dev</text>
<text text-anchor="middle" x="317.933" y="-169" font-family="Helvetica,sans-Serif" font-size="10.00">/spatdiflib/src/sdLoader.h</text>
</a>
</g>
</g>
<!-- Node4&#45;&gt;Node5 -->
<g id="edge4" class="edge"><title>Node4&#45;&gt;Node5</title>
<path fill="none" stroke="midnightblue" d="M540.444,-237.336C489.625,-223.785 418.72,-204.876 370.714,-192.075"/>
<polygon fill="midnightblue" stroke="midnightblue" points="539.763,-240.777 550.327,-239.972 541.567,-234.013 539.763,-240.777"/>
</g>
<!-- Node4&#45;&gt;Node7 -->
<g id="edge21" class="edge"><title>Node4&#45;&gt;Node7</title>
<path fill="none" stroke="midnightblue" d="M673.015,-238.626C707.335,-229.515 748.56,-216.152 782.933,-198 809.51,-183.965 809.486,-170.278 835.933,-156 871.155,-136.984 913.988,-122.877 947.719,-113.578"/>
<polygon fill="midnightblue" stroke="midnightblue" points="671.872,-235.306 663.067,-241.2 673.625,-242.083 671.872,-235.306"/>
</g>
<!-- Node9 -->
<g id="node9" class="node"><title>Node9</title>
<g id="a_node9"><a xlink:href="_how__to__query_8cpp.html" target="_top" xlink:title="Example: How to query a SoatDIF scene.">
<polygon fill="white" stroke="black" points="168.933,-78.5 168.933,-119.5 270.933,-119.5 270.933,-78.5 168.933,-78.5"/>
<text text-anchor="start" x="176.933" y="-107.5" font-family="Helvetica,sans-Serif" font-size="10.00">/Users/lossius/dev</text>
<text text-anchor="start" x="176.933" y="-96.5" font-family="Helvetica,sans-Serif" font-size="10.00">/spatdiflib/examples</text>
<text text-anchor="middle" x="219.933" y="-85.5" font-family="Helvetica,sans-Serif" font-size="10.00">/How_to_query.cpp</text>
</a>
</g>
</g>
<!-- Node4&#45;&gt;Node9 -->
<g id="edge24" class="edge"><title>Node4&#45;&gt;Node9</title>
<path fill="none" stroke="midnightblue" d="M532.593,-251.67C441.369,-247.207 289.042,-234.383 247.933,-198 225.672,-178.299 220.57,-142.25 219.693,-119.795"/>
<polygon fill="midnightblue" stroke="midnightblue" points="532.706,-255.179 542.858,-252.15 533.032,-248.187 532.706,-255.179"/>
</g>
<!-- Node4&#45;&gt;Node10 -->
<g id="edge27" class="edge"><title>Node4&#45;&gt;Node10</title>
<path fill="none" stroke="midnightblue" d="M532.779,-248.223C438.419,-239.681 276.183,-222.059 221.933,-198 195.091,-186.096 193.795,-174.427 170.933,-156 155.776,-143.784 138.645,-130.264 125.007,-119.568"/>
<polygon fill="midnightblue" stroke="midnightblue" points="532.543,-251.715 542.815,-249.12 533.167,-244.743 532.543,-251.715"/>
</g>
<!-- Node4&#45;&gt;Node11 -->
<g id="edge29" class="edge"><title>Node4&#45;&gt;Node11</title>
<path fill="none" stroke="midnightblue" d="M591.451,-230.762C580.857,-210.261 564.062,-179.996 545.933,-156 536.163,-143.068 523.687,-129.956 513.189,-119.673"/>
<polygon fill="midnightblue" stroke="midnightblue" points="588.346,-232.377 595.998,-239.704 594.585,-229.203 588.346,-232.377"/>
</g>
<!-- Node4&#45;&gt;Node12 -->
<g id="edge30" class="edge"><title>Node4&#45;&gt;Node12</title>
<path fill="none" stroke="midnightblue" d="M604.358,-229.609C606.137,-199.175 609.144,-147.731 610.783,-119.68"/>
<polygon fill="midnightblue" stroke="midnightblue" points="600.853,-229.601 603.764,-239.788 607.841,-230.009 600.853,-229.601"/>
</g>
<!-- Node13 -->
<g id="node13" class="node"><title>Node13</title>
<g id="a_node13"><a xlink:href="sd_o_s_c_responder_8h.html" target="_top" xlink:title="/Users/lossius/dev\l/spatdiflib/src/sdOSCResponder.h">
<polygon fill="white" stroke="black" points="1147.43,-162 1147.43,-192 1310.43,-192 1310.43,-162 1147.43,-162"/>
<text text-anchor="start" x="1155.43" y="-180" font-family="Helvetica,sans-Serif" font-size="10.00">/Users/lossius/dev</text>
<text text-anchor="middle" x="1228.93" y="-169" font-family="Helvetica,sans-Serif" font-size="10.00">/spatdiflib/src/sdOSCResponder.h</text>
</a>
</g>
</g>
<!-- Node4&#45;&gt;Node13 -->
<g id="edge12" class="edge"><title>Node4&#45;&gt;Node13</title>
<path fill="none" stroke="midnightblue" d="M673.206,-245.468C789.992,-231.29 1023.42,-202.951 1147.31,-187.909"/>
<polygon fill="midnightblue" stroke="midnightblue" points="672.462,-242.033 662.957,-246.713 673.305,-248.982 672.462,-242.033"/>
</g>
<!-- Node15 -->
<g id="node15" class="node"><title>Node15</title>
<g id="a_node15"><a xlink:href="sd_o_s_c_test_8cpp.html" target="_top" xlink:title="Example: Test sdOSCResponder.">
<polygon fill="white" stroke="black" points="1287.93,-78.5 1287.93,-119.5 1389.93,-119.5 1389.93,-78.5 1287.93,-78.5"/>
<text text-anchor="start" x="1295.93" y="-107.5" font-family="Helvetica,sans-Serif" font-size="10.00">/Users/lossius/dev</text>
<text text-anchor="start" x="1295.93" y="-96.5" font-family="Helvetica,sans-Serif" font-size="10.00">/spatdiflib/examples</text>
<text text-anchor="middle" x="1338.93" y="-85.5" font-family="Helvetica,sans-Serif" font-size="10.00">/sdOSCTest.cpp</text>
</a>
</g>
</g>
<!-- Node4&#45;&gt;Node15 -->
<g id="edge28" class="edge"><title>Node4&#45;&gt;Node15</title>
<path fill="none" stroke="midnightblue" d="M672.929,-248.504C724.163,-244.482 795.365,-238.897 857.933,-234 909.155,-229.991 1280.43,-232.021 1318.93,-198 1340.92,-178.568 1342.6,-142.083 1341.19,-119.529"/>
<polygon fill="midnightblue" stroke="midnightblue" points="672.652,-245.015 662.956,-249.287 673.2,-251.993 672.652,-245.015"/>
</g>
<!-- Node16 -->
<g id="node16" class="node"><title>Node16</title>
<g id="a_node16"><a xlink:href="sd_saver_8h.html" target="_top" xlink:title="/Users/lossius/dev\l/spatdiflib/src/sdSaver.h">
<polygon fill="white" stroke="black" points="631.433,-162 631.433,-192 750.433,-192 750.433,-162 631.433,-162"/>
<text text-anchor="start" x="639.433" y="-180" font-family="Helvetica,sans-Serif" font-size="10.00">/Users/lossius/dev</text>
<text text-anchor="middle" x="690.933" y="-169" font-family="Helvetica,sans-Serif" font-size="10.00">/spatdiflib/src/sdSaver.h</text>
</a>
</g>
</g>
<!-- Node4&#45;&gt;Node16 -->
<g id="edge16" class="edge"><title>Node4&#45;&gt;Node16</title>
<path fill="none" stroke="midnightblue" d="M627.371,-232.894C642.38,-219.932 661.201,-203.678 674.455,-192.231"/>
<polygon fill="midnightblue" stroke="midnightblue" points="624.766,-230.52 619.485,-239.705 629.341,-235.818 624.766,-230.52"/>
</g>
<!-- Node4&#45;&gt;Node17 -->
<g id="edge22" class="edge"><title>Node4&#45;&gt;Node17</title>
<path fill="none" stroke="midnightblue" d="M673.02,-244.524C703.56,-236.868 737.26,-223.025 758.933,-198 779.509,-174.241 780.987,-135.089 780.087,-114.188"/>
<polygon fill="midnightblue" stroke="midnightblue" points="672.183,-241.126 663.235,-246.799 673.768,-247.944 672.183,-241.126"/>
</g>
<!-- Node18 -->
<g id="node18" class="node"><title>Node18</title>
<g id="a_node18"><a xlink:href="sd_scene_8cpp.html" target="_top" xlink:title="/Users/lossius/dev\l/spatdiflib/src/sdScene.cpp">
<polygon fill="white" stroke="black" points="845.433,-162 845.433,-192 976.433,-192 976.433,-162 845.433,-162"/>
<text text-anchor="start" x="853.433" y="-180" font-family="Helvetica,sans-Serif" font-size="10.00">/Users/lossius/dev</text>
<text text-anchor="middle" x="910.933" y="-169" font-family="Helvetica,sans-Serif" font-size="10.00">/spatdiflib/src/sdScene.cpp</text>
</a>
</g>
</g>
<!-- Node4&#45;&gt;Node18 -->
<g id="edge23" class="edge"><title>Node4&#45;&gt;Node18</title>
<path fill="none" stroke="midnightblue" d="M670.307,-237.529C715.707,-226.412 776.935,-211.381 830.933,-198 838.715,-196.072 846.92,-194.03 854.991,-192.017"/>
<polygon fill="midnightblue" stroke="midnightblue" points="669.459,-234.134 660.578,-239.911 671.123,-240.933 669.459,-234.134"/>
</g>
<!-- Node19 -->
<g id="node19" class="node"><title>Node19</title>
<g id="a_node19"><a xlink:href="sd_event_test_8cpp.html" target="_top" xlink:title="Example: Test #stEntityCore.">
<polygon fill="white" stroke="black" points="434.933,-156.5 434.933,-197.5 536.933,-197.5 536.933,-156.5 434.933,-156.5"/>
<text text-anchor="start" x="442.933" y="-185.5" font-family="Helvetica,sans-Serif" font-size="10.00">/Users/lossius/dev</text>
<text text-anchor="start" x="442.933" y="-174.5" font-family="Helvetica,sans-Serif" font-size="10.00">/spatdiflib/examples</text>
<text text-anchor="middle" x="485.933" y="-163.5" font-family="Helvetica,sans-Serif" font-size="10.00">/sdEventTest.cpp</text>
</a>
</g>
</g>
<!-- Node4&#45;&gt;Node19 -->
<g id="edge25" class="edge"><title>Node4&#45;&gt;Node19</title>
<path fill="none" stroke="midnightblue" d="M572.594,-234.292C555.296,-223.056 533.684,-209.018 516.37,-197.771"/>
<polygon fill="midnightblue" stroke="midnightblue" points="570.908,-237.371 581.2,-239.883 574.721,-231.501 570.908,-237.371"/>
</g>
<!-- Node4&#45;&gt;Node20 -->
<g id="edge26" class="edge"><title>Node4&#45;&gt;Node20</title>
<path fill="none" stroke="midnightblue" d="M532.797,-248.064C447.915,-240.128 300.939,-223.967 176.933,-198 172.294,-197.029 167.512,-195.905 162.732,-194.696"/>
<polygon fill="midnightblue" stroke="midnightblue" points="532.556,-251.557 542.835,-248.992 533.2,-244.586 532.556,-251.557"/>
</g>
<!-- Node6 -->
<g id="node6" class="node"><title>Node6</title>
<g id="a_node6"><a xlink:href="sd_loader_8cpp.html" target="_top" xlink:title="/Users/lossius/dev\l/spatdiflib/src/sdLoader.cpp">
<polygon fill="white" stroke="black" points="288.933,-84 288.933,-114 422.933,-114 422.933,-84 288.933,-84"/>
<text text-anchor="start" x="296.933" y="-102" font-family="Helvetica,sans-Serif" font-size="10.00">/Users/lossius/dev</text>
<text text-anchor="middle" x="355.933" y="-91" font-family="Helvetica,sans-Serif" font-size="10.00">/spatdiflib/src/sdLoader.cpp</text>
</a>
</g>
</g>
<!-- Node5&#45;&gt;Node6 -->
<g id="edge5" class="edge"><title>Node5&#45;&gt;Node6</title>
<path fill="none" stroke="midnightblue" d="M329.581,-152.705C335.862,-140.141 343.412,-125.042 348.818,-114.231"/>
<polygon fill="midnightblue" stroke="midnightblue" points="326.422,-151.195 325.081,-161.705 332.683,-154.326 326.422,-151.195"/>
</g>
<!-- Node5&#45;&gt;Node7 -->
<g id="edge6" class="edge"><title>Node5&#45;&gt;Node7</title>
<path fill="none" stroke="midnightblue" d="M389.292,-161.755C401.484,-159.617 414.047,-157.598 425.933,-156 614.687,-130.629 663.581,-140.428 852.933,-120 884.291,-116.617 919.187,-112.08 947.627,-108.183"/>
<polygon fill="midnightblue" stroke="midnightblue" points="388.387,-158.362 379.162,-163.572 389.623,-165.252 388.387,-158.362"/>
</g>
<!-- Node5&#45;&gt;Node9 -->
<g id="edge8" class="edge"><title>Node5&#45;&gt;Node9</title>
<path fill="none" stroke="midnightblue" d="M291.484,-155.489C277.136,-144.362 259.489,-130.676 245.31,-119.68"/>
<polygon fill="midnightblue" stroke="midnightblue" points="289.453,-158.342 299.5,-161.705 293.743,-152.811 289.453,-158.342"/>
</g>
<!-- Node5&#45;&gt;Node10 -->
<g id="edge9" class="edge"><title>Node5&#45;&gt;Node10</title>
<path fill="none" stroke="midnightblue" d="M268.147,-158.644C233.13,-146.436 186.406,-130.147 151.088,-117.834"/>
<polygon fill="midnightblue" stroke="midnightblue" points="267.1,-161.985 277.694,-161.972 269.404,-155.375 267.1,-161.985"/>
</g>
<!-- Node5&#45;&gt;Node11 -->
<g id="edge10" class="edge"><title>Node5&#45;&gt;Node11</title>
<path fill="none" stroke="midnightblue" d="M359.59,-157.805C385.953,-146.29 420.025,-131.408 446.996,-119.628"/>
<polygon fill="midnightblue" stroke="midnightblue" points="358.016,-154.673 350.253,-161.883 360.818,-161.088 358.016,-154.673"/>
</g>
<!-- Node5&#45;&gt;Node12 -->
<g id="edge11" class="edge"><title>Node5&#45;&gt;Node12</title>
<path fill="none" stroke="midnightblue" d="M379.47,-159.389C384.021,-158.222 388.546,-157.081 392.933,-156 463.283,-138.662 482.145,-139.48 551.933,-120 554.788,-119.203 557.709,-118.352 560.649,-117.466"/>
<polygon fill="midnightblue" stroke="midnightblue" points="378.311,-156.074 369.509,-161.971 380.067,-162.85 378.311,-156.074"/>
</g>
<!-- Node8 -->
<g id="node8" class="node"><title>Node8</title>
<g id="a_node8"><a xlink:href="_file_with_extension_8cpp.html" target="_top" xlink:title="Example: Examine all functionalities of the sdDate class.">
<polygon fill="white" stroke="black" points="948.433,-0.5 948.433,-41.5 1061.43,-41.5 1061.43,-0.5 948.433,-0.5"/>
<text text-anchor="start" x="956.433" y="-29.5" font-family="Helvetica,sans-Serif" font-size="10.00">/Users/lossius/dev</text>
<text text-anchor="start" x="956.433" y="-18.5" font-family="Helvetica,sans-Serif" font-size="10.00">/spatdiflib/examples</text>
<text text-anchor="middle" x="1004.93" y="-7.5" font-family="Helvetica,sans-Serif" font-size="10.00">/FileWithExtension.cpp</text>
</a>
</g>
</g>
<!-- Node7&#45;&gt;Node8 -->
<g id="edge7" class="edge"><title>Node7&#45;&gt;Node8</title>
<path fill="none" stroke="midnightblue" d="M1004.93,-73.656C1004.93,-63.3257 1004.93,-51.4425 1004.93,-41.68"/>
<polygon fill="midnightblue" stroke="midnightblue" points="1001.43,-73.7049 1004.93,-83.705 1008.43,-73.705 1001.43,-73.7049"/>
</g>
<!-- Node13&#45;&gt;Node7 -->
<g id="edge13" class="edge"><title>Node13&#45;&gt;Node7</title>
<path fill="none" stroke="midnightblue" d="M1178.06,-158.74C1138.26,-145.234 1083.6,-126.69 1046.42,-114.075"/>
<polygon fill="midnightblue" stroke="midnightblue" points="1176.99,-162.073 1187.59,-161.972 1179.24,-155.444 1176.99,-162.073"/>
</g>
<!-- Node14 -->
<g id="node14" class="node"><title>Node14</title>
<g id="a_node14"><a xlink:href="sd_o_s_c_responder_8cpp.html" target="_top" xlink:title="/Users/lossius/dev\l/spatdiflib/src/sdOSCResponder.cpp">
<polygon fill="white" stroke="black" points="1095.93,-84 1095.93,-114 1269.93,-114 1269.93,-84 1095.93,-84"/>
<text text-anchor="start" x="1103.93" y="-102" font-family="Helvetica,sans-Serif" font-size="10.00">/Users/lossius/dev</text>
<text text-anchor="middle" x="1182.93" y="-91" font-family="Helvetica,sans-Serif" font-size="10.00">/spatdiflib/src/sdOSCResponder.cpp</text>
</a>
</g>
</g>
<!-- Node13&#45;&gt;Node14 -->
<g id="edge14" class="edge"><title>Node13&#45;&gt;Node14</title>
<path fill="none" stroke="midnightblue" d="M1215.06,-153.074C1207.41,-140.437 1198.15,-125.148 1191.55,-114.231"/>
<polygon fill="midnightblue" stroke="midnightblue" points="1212.11,-154.962 1220.28,-161.705 1218.1,-151.338 1212.11,-154.962"/>
</g>
<!-- Node13&#45;&gt;Node15 -->
<g id="edge15" class="edge"><title>Node13&#45;&gt;Node15</title>
<path fill="none" stroke="midnightblue" d="M1257.91,-155.982C1274.09,-144.799 1294.19,-130.915 1310.32,-119.771"/>
<polygon fill="midnightblue" stroke="midnightblue" points="1255.6,-153.319 1249.37,-161.883 1259.58,-159.078 1255.6,-153.319"/>
</g>
<!-- Node16&#45;&gt;Node7 -->
<g id="edge17" class="edge"><title>Node16&#45;&gt;Node7</title>
<path fill="none" stroke="midnightblue" d="M758.797,-159.574C815.226,-145.916 894.631,-126.697 947.842,-113.818"/>
<polygon fill="midnightblue" stroke="midnightblue" points="757.787,-156.218 748.891,-161.972 759.434,-163.021 757.787,-156.218"/>
</g>
<!-- Node16&#45;&gt;Node11 -->
<g id="edge19" class="edge"><title>Node16&#45;&gt;Node11</title>
<path fill="none" stroke="midnightblue" d="M644.441,-158.244C614.015,-146.624 574.249,-131.437 542.952,-119.485"/>
<polygon fill="midnightblue" stroke="midnightblue" points="643.378,-161.585 653.969,-161.883 645.876,-155.046 643.378,-161.585"/>
</g>
<!-- Node16&#45;&gt;Node12 -->
<g id="edge20" class="edge"><title>Node16&#45;&gt;Node12</title>
<path fill="none" stroke="midnightblue" d="M668.633,-154.547C657.25,-143.596 643.499,-130.367 632.39,-119.68"/>
<polygon fill="midnightblue" stroke="midnightblue" points="666.441,-157.294 676.074,-161.705 671.294,-152.25 666.441,-157.294"/>
</g>
<!-- Node16&#45;&gt;Node17 -->
<g id="edge18" class="edge"><title>Node16&#45;&gt;Node17</title>
<path fill="none" stroke="midnightblue" d="M715.371,-154.894C730.38,-141.932 749.201,-125.678 762.455,-114.231"/>
<polygon fill="midnightblue" stroke="midnightblue" points="712.766,-152.52 707.485,-161.705 717.341,-157.818 712.766,-152.52"/>
</g>
<!-- Node21&#45;&gt;Node3 -->
<g id="edge37" class="edge"><title>Node21&#45;&gt;Node3</title>
<path fill="none" stroke="midnightblue" d="M1112.44,-309.419C1071.5,-296.669 1021.62,-281.131 986.222,-270.106"/>
<polygon fill="midnightblue" stroke="midnightblue" points="1111.51,-312.796 1122.1,-312.428 1113.59,-306.113 1111.51,-312.796"/>
</g>
<!-- Node21&#45;&gt;Node7 -->
<g id="edge39" class="edge"><title>Node21&#45;&gt;Node7</title>
<path fill="none" stroke="midnightblue" d="M1158.72,-304.713C1151.3,-296.012 1143.69,-286.029 1137.93,-276 1109.73,-226.867 1130.52,-200.083 1094.93,-156 1080.02,-137.528 1057.29,-123.453 1038.4,-114.033"/>
<polygon fill="midnightblue" stroke="midnightblue" points="1156.18,-307.122 1165.42,-312.306 1161.43,-302.492 1156.18,-307.122"/>
</g>
<!-- Node21&#45;&gt;Node18 -->
<g id="edge40" class="edge"><title>Node21&#45;&gt;Node18</title>
<path fill="none" stroke="midnightblue" d="M1269.86,-308.428C1284.56,-300.503 1297.97,-289.972 1306.93,-276 1317.01,-260.287 1319.17,-248.093 1306.93,-234 1296.2,-221.648 1086.57,-197.124 976.77,-185.051"/>
<polygon fill="midnightblue" stroke="midnightblue" points="1267.97,-305.456 1260.57,-313.033 1271.08,-311.728 1267.97,-305.456"/>
</g>
<!-- Node22 -->
<g id="node22" class="node"><title>Node22</title>
<g id="a_node22"><a xlink:href="sd_entity_extension_media_8cpp.html" target="_top" xlink:title="/Users/lossius/dev\l/spatdiflib/src/sdEntityExtension\lMedia.cpp">
<polygon fill="white" stroke="black" points="1147.43,-234.5 1147.43,-275.5 1298.43,-275.5 1298.43,-234.5 1147.43,-234.5"/>
<text text-anchor="start" x="1155.43" y="-263.5" font-family="Helvetica,sans-Serif" font-size="10.00">/Users/lossius/dev</text>
<text text-anchor="start" x="1155.43" y="-252.5" font-family="Helvetica,sans-Serif" font-size="10.00">/spatdiflib/src/sdEntityExtension</text>
<text text-anchor="middle" x="1222.93" y="-241.5" font-family="Helvetica,sans-Serif" font-size="10.00">Media.cpp</text>
</a>
</g>
</g>
<!-- Node21&#45;&gt;Node22 -->
<g id="edge38" class="edge"><title>Node21&#45;&gt;Node22</title>
<path fill="none" stroke="midnightblue" d="M1199.2,-303.466C1203.86,-294.143 1208.93,-284.007 1213.18,-275.506"/>
<polygon fill="midnightblue" stroke="midnightblue" points="1196.06,-301.919 1194.72,-312.428 1202.32,-305.049 1196.06,-301.919"/>
</g>
</g>
</svg>
