<?xml version="1.0" encoding="UTF-8" standalone="no"?>
<!DOCTYPE svg PUBLIC "-//W3C//DTD SVG 1.1//EN"
 "http://www.w3.org/Graphics/SVG/1.1/DTD/svg11.dtd">
<!-- Generated by graphviz version 2.34.0 (20131206.1153)
 -->
<!-- Title: /Users/lossius/dev/spatdiflib/src/sdInfo.h Pages: 1 -->
<svg width="1302pt" height="352pt"
 viewBox="0.00 0.00 1302.00 352.00" xmlns="http://www.w3.org/2000/svg" xmlns:xlink="http://www.w3.org/1999/xlink">
<g id="graph0" class="graph" transform="scale(1 1) rotate(0) translate(4 348)">
<title>/Users/lossius/dev/spatdiflib/src/sdInfo.h</title>
<polygon fill="white" stroke="white" points="-4,4 -4,-348 1298,-348 1298,4 -4,4"/>
<!-- Node1 -->
<g id="node1" class="node"><title>Node1</title>
<polygon fill="#bfbfbf" stroke="black" points="586,-313 586,-343 694,-343 694,-313 586,-313"/>
<text text-anchor="start" x="594" y="-331" font-family="Helvetica,sans-Serif" font-size="10.00">/Users/lossius/dev</text>
<text text-anchor="middle" x="640" y="-320" font-family="Helvetica,sans-Serif" font-size="10.00">/spatdiflib/src/sdInfo.h</text>
</g>
<!-- Node2 -->
<g id="node2" class="node"><title>Node2</title>
<g id="a_node2"><a xlink:href="sd_scene_8h.html" target="_top" xlink:title="/Users/lossius/dev\l/spatdiflib/src/sdScene.h">
<polygon fill="white" stroke="black" points="580,-240 580,-270 700,-270 700,-240 580,-240"/>
<text text-anchor="start" x="588" y="-258" font-family="Helvetica,sans-Serif" font-size="10.00">/Users/lossius/dev</text>
<text text-anchor="middle" x="640" y="-247" font-family="Helvetica,sans-Serif" font-size="10.00">/spatdiflib/src/sdScene.h</text>
</a>
</g>
</g>
<!-- Node1&#45;&gt;Node2 -->
<g id="edge1" class="edge"><title>Node1&#45;&gt;Node2</title>
<path fill="none" stroke="midnightblue" d="M640,-302.898C640,-292.131 640,-279.801 640,-270.486"/>
<polygon fill="midnightblue" stroke="midnightblue" points="636.5,-302.973 640,-312.973 643.5,-302.973 636.5,-302.973"/>
</g>
<!-- Node5 -->
<g id="node5" class="node"><title>Node5</title>
<g id="a_node5"><a xlink:href="sd_main_8h.html" target="_top" xlink:title="/Users/lossius/dev\l/spatdiflib/src/sdMain.h">
<polygon fill="white" stroke="black" points="312,-84 312,-114 426,-114 426,-84 312,-84"/>
<text text-anchor="start" x="320" y="-102" font-family="Helvetica,sans-Serif" font-size="10.00">/Users/lossius/dev</text>
<text text-anchor="middle" x="369" y="-91" font-family="Helvetica,sans-Serif" font-size="10.00">/spatdiflib/src/sdMain.h</text>
</a>
</g>
</g>
<!-- Node1&#45;&gt;Node5 -->
<g id="edge29" class="edge"><title>Node1&#45;&gt;Node5</title>
<path fill="none" stroke="midnightblue" d="M585.574,-309.519C532.967,-290.051 454.331,-253.778 406,-198 384.563,-173.26 374.98,-134.861 371.179,-114.242"/>
<polygon fill="midnightblue" stroke="midnightblue" points="584.486,-312.847 595.08,-312.959 586.868,-306.265 584.486,-312.847"/>
</g>
<!-- Node19 -->
<g id="node19" class="node"><title>Node19</title>
<g id="a_node19"><a xlink:href="sd_info_test_8cpp.html" target="_top" xlink:title="Example: Test all functionalities of the sdInfo class.">
<polygon fill="white" stroke="black" points="718,-234.5 718,-275.5 820,-275.5 820,-234.5 718,-234.5"/>
<text text-anchor="start" x="726" y="-263.5" font-family="Helvetica,sans-Serif" font-size="10.00">/Users/lossius/dev</text>
<text text-anchor="start" x="726" y="-252.5" font-family="Helvetica,sans-Serif" font-size="10.00">/spatdiflib/examples</text>
<text text-anchor="middle" x="769" y="-241.5" font-family="Helvetica,sans-Serif" font-size="10.00">/sdInfoTest.cpp</text>
</a>
</g>
</g>
<!-- Node1&#45;&gt;Node19 -->
<g id="edge30" class="edge"><title>Node1&#45;&gt;Node19</title>
<path fill="none" stroke="midnightblue" d="M674.574,-307.971C692.743,-297.971 714.982,-285.731 733.312,-275.642"/>
<polygon fill="midnightblue" stroke="midnightblue" points="672.559,-305.085 665.486,-312.973 675.935,-311.217 672.559,-305.085"/>
</g>
<!-- Node3 -->
<g id="node3" class="node"><title>Node3</title>
<g id="a_node3"><a xlink:href="sd_loader_8h.html" target="_top" xlink:title="/Users/lossius/dev\l/spatdiflib/src/sdLoader.h">
<polygon fill="white" stroke="black" points="687,-162 687,-192 809,-192 809,-162 687,-162"/>
<text text-anchor="start" x="695" y="-180" font-family="Helvetica,sans-Serif" font-size="10.00">/Users/lossius/dev</text>
<text text-anchor="middle" x="748" y="-169" font-family="Helvetica,sans-Serif" font-size="10.00">/spatdiflib/src/sdLoader.h</text>
</a>
</g>
</g>
<!-- Node2&#45;&gt;Node3 -->
<g id="edge2" class="edge"><title>Node2&#45;&gt;Node3</title>
<path fill="none" stroke="midnightblue" d="M668.264,-234.111C687.048,-220.892 711.256,-203.857 728.047,-192.041"/>
<polygon fill="midnightblue" stroke="midnightblue" points="666.225,-231.266 660.061,-239.883 670.253,-236.99 666.225,-231.266"/>
</g>
<!-- Node2&#45;&gt;Node5 -->
<g id="edge19" class="edge"><title>Node2&#45;&gt;Node5</title>
<path fill="none" stroke="midnightblue" d="M569.679,-242.841C532.768,-234.629 488.059,-220.798 453,-198 418.809,-175.767 390.777,-135.614 377.428,-114.259"/>
<polygon fill="midnightblue" stroke="midnightblue" points="569.359,-246.351 579.868,-245.011 570.817,-239.504 569.359,-246.351"/>
</g>
<!-- Node7 -->
<g id="node7" class="node"><title>Node7</title>
<g id="a_node7"><a xlink:href="_how__to__query_8cpp.html" target="_top" xlink:title="Example: How to query a SoatDIF scene.">
<polygon fill="white" stroke="black" points="1013,-78.5 1013,-119.5 1115,-119.5 1115,-78.5 1013,-78.5"/>
<text text-anchor="start" x="1021" y="-107.5" font-family="Helvetica,sans-Serif" font-size="10.00">/Users/lossius/dev</text>
<text text-anchor="start" x="1021" y="-96.5" font-family="Helvetica,sans-Serif" font-size="10.00">/spatdiflib/examples</text>
<text text-anchor="middle" x="1064" y="-85.5" font-family="Helvetica,sans-Serif" font-size="10.00">/How_to_query.cpp</text>
</a>
</g>
</g>
<!-- Node2&#45;&gt;Node7 -->
<g id="edge22" class="edge"><title>Node2&#45;&gt;Node7</title>
<path fill="none" stroke="midnightblue" d="M692.802,-237.471C698.236,-236.139 703.705,-234.945 709,-234 764.488,-224.099 1176.58,-239.246 1215,-198 1227.72,-184.34 1225.66,-171.323 1215,-156 1192.65,-123.867 1149.58,-110.132 1115.14,-104.281"/>
<polygon fill="midnightblue" stroke="midnightblue" points="691.899,-234.09 683.103,-239.995 693.662,-240.864 691.899,-234.09"/>
</g>
<!-- Node8 -->
<g id="node8" class="node"><title>Node8</title>
<g id="a_node8"><a xlink:href="sd_loader_test_8cpp.html" target="_top" xlink:title="Example: Test sdLoader.">
<polygon fill="white" stroke="black" points="1192,-78.5 1192,-119.5 1294,-119.5 1294,-78.5 1192,-78.5"/>
<text text-anchor="start" x="1200" y="-107.5" font-family="Helvetica,sans-Serif" font-size="10.00">/Users/lossius/dev</text>
<text text-anchor="start" x="1200" y="-96.5" font-family="Helvetica,sans-Serif" font-size="10.00">/spatdiflib/examples</text>
<text text-anchor="middle" x="1243" y="-85.5" font-family="Helvetica,sans-Serif" font-size="10.00">/sdLoaderTest.cpp</text>
</a>
</g>
</g>
<!-- Node2&#45;&gt;Node8 -->
<g id="edge25" class="edge"><title>Node2&#45;&gt;Node8</title>
<path fill="none" stroke="midnightblue" d="M692.799,-237.457C698.234,-236.128 703.704,-234.938 709,-234 766.574,-223.803 1192.18,-238.864 1234,-198 1254.53,-177.939 1251.99,-142.003 1247.82,-119.668"/>
<polygon fill="midnightblue" stroke="midnightblue" points="691.898,-234.075 683.099,-239.978 693.658,-240.85 691.898,-234.075"/>
</g>
<!-- Node9 -->
<g id="node9" class="node"><title>Node9</title>
<g id="a_node9"><a xlink:href="sd_saver_test_8cpp.html" target="_top" xlink:title="Example: Test sdSaver.">
<polygon fill="white" stroke="black" points="444,-78.5 444,-119.5 546,-119.5 546,-78.5 444,-78.5"/>
<text text-anchor="start" x="452" y="-107.5" font-family="Helvetica,sans-Serif" font-size="10.00">/Users/lossius/dev</text>
<text text-anchor="start" x="452" y="-96.5" font-family="Helvetica,sans-Serif" font-size="10.00">/spatdiflib/examples</text>
<text text-anchor="middle" x="495" y="-85.5" font-family="Helvetica,sans-Serif" font-size="10.00">/sdSaverTest.cpp</text>
</a>
</g>
</g>
<!-- Node2&#45;&gt;Node9 -->
<g id="edge27" class="edge"><title>Node2&#45;&gt;Node9</title>
<path fill="none" stroke="midnightblue" d="M569.811,-250.794C531.949,-245.043 488.15,-231.027 464,-198 446.726,-174.376 464.307,-140.801 479.174,-119.72"/>
<polygon fill="midnightblue" stroke="midnightblue" points="569.422,-254.273 579.801,-252.145 570.361,-247.336 569.422,-254.273"/>
</g>
<!-- Node10 -->
<g id="node10" class="node"><title>Node10</title>
<g id="a_node10"><a xlink:href="sd_scene_test_8cpp.html" target="_top" xlink:title="Example: Test sdScene.">
<polygon fill="white" stroke="black" points="712,-78.5 712,-119.5 814,-119.5 814,-78.5 712,-78.5"/>
<text text-anchor="start" x="720" y="-107.5" font-family="Helvetica,sans-Serif" font-size="10.00">/Users/lossius/dev</text>
<text text-anchor="start" x="720" y="-96.5" font-family="Helvetica,sans-Serif" font-size="10.00">/spatdiflib/examples</text>
<text text-anchor="middle" x="763" y="-85.5" font-family="Helvetica,sans-Serif" font-size="10.00">/sdSceneTest.cpp</text>
</a>
</g>
</g>
<!-- Node2&#45;&gt;Node10 -->
<g id="edge28" class="edge"><title>Node2&#45;&gt;Node10</title>
<path fill="none" stroke="midnightblue" d="M644.886,-230.133C650.186,-208.884 660.352,-177.866 678,-156 689.987,-141.149 706.988,-128.861 722.639,-119.618"/>
<polygon fill="midnightblue" stroke="midnightblue" points="641.453,-229.443 642.604,-239.975 648.272,-231.024 641.453,-229.443"/>
</g>
<!-- Node11 -->
<g id="node11" class="node"><title>Node11</title>
<g id="a_node11"><a xlink:href="sd_o_s_c_responder_8h.html" target="_top" xlink:title="/Users/lossius/dev\l/spatdiflib/src/sdOSCResponder.h">
<polygon fill="white" stroke="black" points="151.5,-162 151.5,-192 314.5,-192 314.5,-162 151.5,-162"/>
<text text-anchor="start" x="159.5" y="-180" font-family="Helvetica,sans-Serif" font-size="10.00">/Users/lossius/dev</text>
<text text-anchor="middle" x="233" y="-169" font-family="Helvetica,sans-Serif" font-size="10.00">/spatdiflib/src/sdOSCResponder.h</text>
</a>
</g>
</g>
<!-- Node2&#45;&gt;Node11 -->
<g id="edge10" class="edge"><title>Node2&#45;&gt;Node11</title>
<path fill="none" stroke="midnightblue" d="M569.928,-240.915C496.947,-227.287 383.025,-206.014 308.195,-192.041"/>
<polygon fill="midnightblue" stroke="midnightblue" points="569.473,-244.391 579.946,-242.786 570.758,-237.51 569.473,-244.391"/>
</g>
<!-- Node13 -->
<g id="node13" class="node"><title>Node13</title>
<g id="a_node13"><a xlink:href="sd_o_s_c_test_8cpp.html" target="_top" xlink:title="Example: Test sdOSCResponder.">
<polygon fill="white" stroke="black" points="0,-78.5 0,-119.5 102,-119.5 102,-78.5 0,-78.5"/>
<text text-anchor="start" x="8" y="-107.5" font-family="Helvetica,sans-Serif" font-size="10.00">/Users/lossius/dev</text>
<text text-anchor="start" x="8" y="-96.5" font-family="Helvetica,sans-Serif" font-size="10.00">/spatdiflib/examples</text>
<text text-anchor="middle" x="51" y="-85.5" font-family="Helvetica,sans-Serif" font-size="10.00">/sdOSCTest.cpp</text>
</a>
</g>
</g>
<!-- Node2&#45;&gt;Node13 -->
<g id="edge26" class="edge"><title>Node2&#45;&gt;Node13</title>
<path fill="none" stroke="midnightblue" d="M569.672,-252.077C450.628,-247.839 215.215,-234.933 142,-198 106.76,-180.223 78.1937,-142.84 62.9781,-119.73"/>
<polygon fill="midnightblue" stroke="midnightblue" points="569.662,-255.578 579.777,-252.425 569.904,-248.582 569.662,-255.578"/>
</g>
<!-- Node14 -->
<g id="node14" class="node"><title>Node14</title>
<g id="a_node14"><a xlink:href="sd_saver_8h.html" target="_top" xlink:title="/Users/lossius/dev\l/spatdiflib/src/sdSaver.h">
<polygon fill="white" stroke="black" points="473.5,-162 473.5,-192 592.5,-192 592.5,-162 473.5,-162"/>
<text text-anchor="start" x="481.5" y="-180" font-family="Helvetica,sans-Serif" font-size="10.00">/Users/lossius/dev</text>
<text text-anchor="middle" x="533" y="-169" font-family="Helvetica,sans-Serif" font-size="10.00">/spatdiflib/src/sdSaver.h</text>
</a>
</g>
</g>
<!-- Node2&#45;&gt;Node14 -->
<g id="edge14" class="edge"><title>Node2&#45;&gt;Node14</title>
<path fill="none" stroke="midnightblue" d="M611.746,-233.932C593.171,-220.739 569.329,-203.804 552.769,-192.041"/>
<polygon fill="midnightblue" stroke="midnightblue" points="609.945,-236.946 620.125,-239.883 613.999,-231.239 609.945,-236.946"/>
</g>
<!-- Node15 -->
<g id="node15" class="node"><title>Node15</title>
<g id="a_node15"><a xlink:href="sd_saver_8cpp.html" target="_top" xlink:title="/Users/lossius/dev\l/spatdiflib/src/sdSaver.cpp">
<polygon fill="white" stroke="black" points="564,-84 564,-114 694,-114 694,-84 564,-84"/>
<text text-anchor="start" x="572" y="-102" font-family="Helvetica,sans-Serif" font-size="10.00">/Users/lossius/dev</text>
<text text-anchor="middle" x="629" y="-91" font-family="Helvetica,sans-Serif" font-size="10.00">/spatdiflib/src/sdSaver.cpp</text>
</a>
</g>
</g>
<!-- Node2&#45;&gt;Node15 -->
<g id="edge20" class="edge"><title>Node2&#45;&gt;Node15</title>
<path fill="none" stroke="midnightblue" d="M638.269,-229.764C635.945,-197.237 631.894,-140.509 630.013,-114.178"/>
<polygon fill="midnightblue" stroke="midnightblue" points="634.781,-230.063 638.985,-239.788 641.763,-229.564 634.781,-230.063"/>
</g>
<!-- Node16 -->
<g id="node16" class="node"><title>Node16</title>
<g id="a_node16"><a xlink:href="sd_scene_8cpp.html" target="_top" xlink:title="/Users/lossius/dev\l/spatdiflib/src/sdScene.cpp">
<polygon fill="white" stroke="black" points="827.5,-162 827.5,-192 958.5,-192 958.5,-162 827.5,-162"/>
<text text-anchor="start" x="835.5" y="-180" font-family="Helvetica,sans-Serif" font-size="10.00">/Users/lossius/dev</text>
<text text-anchor="middle" x="893" y="-169" font-family="Helvetica,sans-Serif" font-size="10.00">/spatdiflib/src/sdScene.cpp</text>
</a>
</g>
</g>
<!-- Node2&#45;&gt;Node16 -->
<g id="edge21" class="edge"><title>Node2&#45;&gt;Node16</title>
<path fill="none" stroke="midnightblue" d="M696.32,-237.082C741.372,-223.548 803.796,-204.796 846.145,-192.075"/>
<polygon fill="midnightblue" stroke="midnightblue" points="695.269,-233.743 686.699,-239.972 697.283,-240.447 695.269,-233.743"/>
</g>
<!-- Node17 -->
<g id="node17" class="node"><title>Node17</title>
<g id="a_node17"><a xlink:href="sd_event_test_8cpp.html" target="_top" xlink:title="Example: Test #stEntityCore.">
<polygon fill="white" stroke="black" points="977,-156.5 977,-197.5 1079,-197.5 1079,-156.5 977,-156.5"/>
<text text-anchor="start" x="985" y="-185.5" font-family="Helvetica,sans-Serif" font-size="10.00">/Users/lossius/dev</text>
<text text-anchor="start" x="985" y="-174.5" font-family="Helvetica,sans-Serif" font-size="10.00">/spatdiflib/examples</text>
<text text-anchor="middle" x="1028" y="-163.5" font-family="Helvetica,sans-Serif" font-size="10.00">/sdEventTest.cpp</text>
</a>
</g>
</g>
<!-- Node2&#45;&gt;Node17 -->
<g id="edge23" class="edge"><title>Node2&#45;&gt;Node17</title>
<path fill="none" stroke="midnightblue" d="M694.807,-237.344C699.586,-236.126 704.365,-234.99 709,-234 822.225,-209.822 854.212,-224.139 967,-198 970.257,-197.245 973.589,-196.393 976.932,-195.475"/>
<polygon fill="midnightblue" stroke="midnightblue" points="693.812,-233.987 685.046,-239.938 695.609,-240.753 693.812,-233.987"/>
</g>
<!-- Node18 -->
<g id="node18" class="node"><title>Node18</title>
<g id="a_node18"><a xlink:href="sd_extension_test_8cpp.html" target="_top" xlink:title="Example: Test extentions.">
<polygon fill="white" stroke="black" points="1097.5,-156.5 1097.5,-197.5 1206.5,-197.5 1206.5,-156.5 1097.5,-156.5"/>
<text text-anchor="start" x="1105.5" y="-185.5" font-family="Helvetica,sans-Serif" font-size="10.00">/Users/lossius/dev</text>
<text text-anchor="start" x="1105.5" y="-174.5" font-family="Helvetica,sans-Serif" font-size="10.00">/spatdiflib/examples</text>
<text text-anchor="middle" x="1152" y="-163.5" font-family="Helvetica,sans-Serif" font-size="10.00">/sdExtensionTest.cpp</text>
</a>
</g>
</g>
<!-- Node2&#45;&gt;Node18 -->
<g id="edge24" class="edge"><title>Node2&#45;&gt;Node18</title>
<path fill="none" stroke="midnightblue" d="M693.693,-237.385C698.836,-236.112 703.998,-234.954 709,-234 875.208,-202.308 922.13,-231.415 1088,-198 1091.08,-197.379 1094.22,-196.667 1097.38,-195.889"/>
<polygon fill="midnightblue" stroke="midnightblue" points="692.663,-234.037 683.873,-239.952 694.433,-240.81 692.663,-234.037"/>
</g>
<!-- Node4 -->
<g id="node4" class="node"><title>Node4</title>
<g id="a_node4"><a xlink:href="sd_loader_8cpp.html" target="_top" xlink:title="/Users/lossius/dev\l/spatdiflib/src/sdLoader.cpp">
<polygon fill="white" stroke="black" points="832,-84 832,-114 966,-114 966,-84 832,-84"/>
<text text-anchor="start" x="840" y="-102" font-family="Helvetica,sans-Serif" font-size="10.00">/Users/lossius/dev</text>
<text text-anchor="middle" x="899" y="-91" font-family="Helvetica,sans-Serif" font-size="10.00">/spatdiflib/src/sdLoader.cpp</text>
</a>
</g>
</g>
<!-- Node3&#45;&gt;Node4 -->
<g id="edge3" class="edge"><title>Node3&#45;&gt;Node4</title>
<path fill="none" stroke="midnightblue" d="M785.056,-157.349C811.636,-143.971 846.886,-126.229 871.102,-114.041"/>
<polygon fill="midnightblue" stroke="midnightblue" points="783.407,-154.261 776.048,-161.883 786.554,-160.514 783.407,-154.261"/>
</g>
<!-- Node3&#45;&gt;Node5 -->
<g id="edge4" class="edge"><title>Node3&#45;&gt;Node5</title>
<path fill="none" stroke="midnightblue" d="M677.024,-165.732C613.262,-155.933 517.287,-139.757 435,-120 427.782,-118.267 420.189,-116.2 412.826,-114.063"/>
<polygon fill="midnightblue" stroke="midnightblue" points="676.56,-169.202 686.974,-167.25 677.616,-162.282 676.56,-169.202"/>
</g>
<!-- Node3&#45;&gt;Node7 -->
<g id="edge6" class="edge"><title>Node3&#45;&gt;Node7</title>
<path fill="none" stroke="midnightblue" d="M805.542,-159.289C809.751,-158.15 813.937,-157.042 818,-156 836.721,-151.198 946.563,-126.398 1012.98,-111.458"/>
<polygon fill="midnightblue" stroke="midnightblue" points="804.441,-155.962 795.727,-161.988 806.297,-162.712 804.441,-155.962"/>
</g>
<!-- Node3&#45;&gt;Node8 -->
<g id="edge7" class="edge"><title>Node3&#45;&gt;Node8</title>
<path fill="none" stroke="midnightblue" d="M803.358,-159.3C808.285,-158.082 813.217,-156.958 818,-156 952.27,-129.103 988.437,-139.354 1124,-120 1146.29,-116.817 1170.85,-112.781 1191.83,-109.169"/>
<polygon fill="midnightblue" stroke="midnightblue" points="802.102,-156.01 793.301,-161.908 803.86,-162.785 802.102,-156.01"/>
</g>
<!-- Node3&#45;&gt;Node9 -->
<g id="edge8" class="edge"><title>Node3&#45;&gt;Node9</title>
<path fill="none" stroke="midnightblue" d="M687.528,-159.114C649.396,-148.303 599.183,-133.768 555,-120 552.065,-119.085 549.054,-118.132 546.019,-117.158"/>
<polygon fill="midnightblue" stroke="midnightblue" points="686.873,-162.566 697.448,-161.92 688.778,-155.83 686.873,-162.566"/>
</g>
<!-- Node3&#45;&gt;Node10 -->
<g id="edge9" class="edge"><title>Node3&#45;&gt;Node10</title>
<path fill="none" stroke="midnightblue" d="M752.805,-151.656C754.844,-141.326 757.189,-129.443 759.116,-119.68"/>
<polygon fill="midnightblue" stroke="midnightblue" points="749.324,-151.216 750.821,-161.705 756.192,-152.572 749.324,-151.216"/>
</g>
<!-- Node6 -->
<g id="node6" class="node"><title>Node6</title>
<g id="a_node6"><a xlink:href="_file_with_extension_8cpp.html" target="_top" xlink:title="Example: Examine all functionalities of the sdDate class.">
<polygon fill="white" stroke="black" points="312.5,-0.5 312.5,-41.5 425.5,-41.5 425.5,-0.5 312.5,-0.5"/>
<text text-anchor="start" x="320.5" y="-29.5" font-family="Helvetica,sans-Serif" font-size="10.00">/Users/lossius/dev</text>
<text text-anchor="start" x="320.5" y="-18.5" font-family="Helvetica,sans-Serif" font-size="10.00">/spatdiflib/examples</text>
<text text-anchor="middle" x="369" y="-7.5" font-family="Helvetica,sans-Serif" font-size="10.00">/FileWithExtension.cpp</text>
</a>
</g>
</g>
<!-- Node5&#45;&gt;Node6 -->
<g id="edge5" class="edge"><title>Node5&#45;&gt;Node6</title>
<path fill="none" stroke="midnightblue" d="M369,-73.656C369,-63.3257 369,-51.4425 369,-41.68"/>
<polygon fill="midnightblue" stroke="midnightblue" points="365.5,-73.7049 369,-83.705 372.5,-73.705 365.5,-73.7049"/>
</g>
<!-- Node11&#45;&gt;Node5 -->
<g id="edge11" class="edge"><title>Node11&#45;&gt;Node5</title>
<path fill="none" stroke="midnightblue" d="M267.004,-156.998C290.868,-143.662 322.254,-126.123 343.873,-114.041"/>
<polygon fill="midnightblue" stroke="midnightblue" points="265.284,-153.95 258.262,-161.883 268.699,-160.06 265.284,-153.95"/>
</g>
<!-- Node12 -->
<g id="node12" class="node"><title>Node12</title>
<g id="a_node12"><a xlink:href="sd_o_s_c_responder_8cpp.html" target="_top" xlink:title="/Users/lossius/dev\l/spatdiflib/src/sdOSCResponder.cpp">
<polygon fill="white" stroke="black" points="120,-84 120,-114 294,-114 294,-84 120,-84"/>
<text text-anchor="start" x="128" y="-102" font-family="Helvetica,sans-Serif" font-size="10.00">/Users/lossius/dev</text>
<text text-anchor="middle" x="207" y="-91" font-family="Helvetica,sans-Serif" font-size="10.00">/spatdiflib/src/sdOSCResponder.cpp</text>
</a>
</g>
</g>
<!-- Node11&#45;&gt;Node12 -->
<g id="edge12" class="edge"><title>Node11&#45;&gt;Node12</title>
<path fill="none" stroke="midnightblue" d="M224.777,-151.963C220.53,-139.551 215.494,-124.83 211.868,-114.231"/>
<polygon fill="midnightblue" stroke="midnightblue" points="221.561,-153.376 228.11,-161.705 228.184,-151.11 221.561,-153.376"/>
</g>
<!-- Node11&#45;&gt;Node13 -->
<g id="edge13" class="edge"><title>Node11&#45;&gt;Node13</title>
<path fill="none" stroke="midnightblue" d="M189.79,-157.956C162.166,-146.421 126.338,-131.46 98.0035,-119.628"/>
<polygon fill="midnightblue" stroke="midnightblue" points="188.617,-161.259 199.194,-161.883 191.315,-154.8 188.617,-161.259"/>
</g>
<!-- Node14&#45;&gt;Node5 -->
<g id="edge15" class="edge"><title>Node14&#45;&gt;Node5</title>
<path fill="none" stroke="midnightblue" d="M493.132,-157.524C464.22,-144.126 425.715,-126.283 399.3,-114.041"/>
<polygon fill="midnightblue" stroke="midnightblue" points="491.992,-160.854 502.537,-161.883 494.936,-154.503 491.992,-160.854"/>
</g>
<!-- Node14&#45;&gt;Node9 -->
<g id="edge17" class="edge"><title>Node14&#45;&gt;Node9</title>
<path fill="none" stroke="midnightblue" d="M521.315,-152.63C516.039,-142.078 509.875,-129.751 504.84,-119.68"/>
<polygon fill="midnightblue" stroke="midnightblue" points="518.25,-154.326 525.852,-161.705 524.511,-151.195 518.25,-154.326"/>
</g>
<!-- Node14&#45;&gt;Node10 -->
<g id="edge18" class="edge"><title>Node14&#45;&gt;Node10</title>
<path fill="none" stroke="midnightblue" d="M585.597,-158.727C619.191,-147.681 663.67,-133.033 703,-120 705.918,-119.033 708.916,-118.038 711.941,-117.033"/>
<polygon fill="midnightblue" stroke="midnightblue" points="584.389,-155.44 575.982,-161.888 586.575,-162.09 584.389,-155.44"/>
</g>
<!-- Node14&#45;&gt;Node15 -->
<g id="edge16" class="edge"><title>Node14&#45;&gt;Node15</title>
<path fill="none" stroke="midnightblue" d="M559.206,-155.253C575.652,-142.234 596.431,-125.784 611.024,-114.231"/>
<polygon fill="midnightblue" stroke="midnightblue" points="556.725,-152.754 551.057,-161.705 561.07,-158.242 556.725,-152.754"/>
</g>
</g>
</svg>
