<?xml version="1.0" encoding="UTF-8" standalone="no"?>
<!DOCTYPE svg PUBLIC "-//W3C//DTD SVG 1.1//EN"
 "http://www.w3.org/Graphics/SVG/1.1/DTD/svg11.dtd">
<!-- Generated by graphviz version 2.34.0 (20131206.1153)
 -->
<!-- Title: /Users/lossius/dev/spatdiflib/src/sdInfo.h Pages: 1 -->
<svg width="299pt" height="152pt"
 viewBox="0.00 0.00 299.00 152.00" xmlns="http://www.w3.org/2000/svg" xmlns:xlink="http://www.w3.org/1999/xlink">
<g id="graph0" class="graph" transform="scale(1 1) rotate(0) translate(4 148)">
<title>/Users/lossius/dev/spatdiflib/src/sdInfo.h</title>
<polygon fill="white" stroke="white" points="-4,4 -4,-148 295,-148 295,4 -4,4"/>
<!-- Node1 -->
<g id="node1" class="node"><title>Node1</title>
<polygon fill="#bfbfbf" stroke="black" points="121,-113 121,-143 229,-143 229,-113 121,-113"/>
<text text-anchor="start" x="129" y="-131" font-family="Helvetica,sans-Serif" font-size="10.00">/Users/lossius/dev</text>
<text text-anchor="middle" x="175" y="-120" font-family="Helvetica,sans-Serif" font-size="10.00">/spatdiflib/src/sdInfo.h</text>
</g>
<!-- Node2 -->
<g id="node2" class="node"><title>Node2</title>
<polygon fill="white" stroke="#bfbfbf" points="70,-0.5 70,-19.5 108,-19.5 108,-0.5 70,-0.5"/>
<text text-anchor="middle" x="89" y="-7.5" font-family="Helvetica,sans-Serif" font-size="10.00">string</text>
</g>
<!-- Node1&#45;&gt;Node2 -->
<g id="edge1" class="edge"><title>Node1&#45;&gt;Node2</title>
<path fill="none" stroke="midnightblue" d="M166.332,-112.755C157.271,-98.1503 142.392,-74.955 128,-56 120.498,-46.1195 111.46,-35.6143 103.974,-27.241"/>
<polygon fill="midnightblue" stroke="midnightblue" points="106.429,-24.7386 97.1199,-19.6805 101.243,-29.4401 106.429,-24.7386"/>
</g>
<!-- Node3 -->
<g id="node3" class="node"><title>Node3</title>
<polygon fill="white" stroke="#bfbfbf" points="250.5,-0.5 250.5,-19.5 291.5,-19.5 291.5,-0.5 250.5,-0.5"/>
<text text-anchor="middle" x="271" y="-7.5" font-family="Helvetica,sans-Serif" font-size="10.00">vector</text>
</g>
<!-- Node1&#45;&gt;Node3 -->
<g id="edge2" class="edge"><title>Node1&#45;&gt;Node3</title>
<path fill="none" stroke="midnightblue" d="M197.956,-112.887C211.509,-103.677 228.254,-90.6666 240,-76 251.223,-61.9856 259.61,-43.2397 264.811,-29.4809"/>
<polygon fill="midnightblue" stroke="midnightblue" points="268.236,-30.2963 268.292,-19.7016 261.641,-27.9487 268.236,-30.2963"/>
</g>
<!-- Node4 -->
<g id="node4" class="node"><title>Node4</title>
<g id="a_node4"><a xlink:href="sd_const_8h.html" target="_top" xlink:title="sdConst.h">
<polygon fill="white" stroke="black" points="59,-56.5 59,-75.5 119,-75.5 119,-56.5 59,-56.5"/>
<text text-anchor="middle" x="89" y="-63.5" font-family="Helvetica,sans-Serif" font-size="10.00">sdConst.h</text>
</a>
</g>
</g>
<!-- Node1&#45;&gt;Node4 -->
<g id="edge3" class="edge"><title>Node1&#45;&gt;Node4</title>
<path fill="none" stroke="midnightblue" d="M154.619,-112.781C141.01,-103.286 123.176,-90.8434 109.535,-81.3267"/>
<polygon fill="midnightblue" stroke="midnightblue" points="111.467,-78.4071 101.263,-75.5557 107.462,-84.148 111.467,-78.4071"/>
</g>
<!-- Node7 -->
<g id="node7" class="node"><title>Node7</title>
<g id="a_node7"><a xlink:href="sd_date_8h.html" target="_top" xlink:title="sdDate.h">
<polygon fill="white" stroke="black" points="175,-56.5 175,-75.5 231,-75.5 231,-56.5 175,-56.5"/>
<text text-anchor="middle" x="203" y="-63.5" font-family="Helvetica,sans-Serif" font-size="10.00">sdDate.h</text>
</a>
</g>
</g>
<!-- Node1&#45;&gt;Node7 -->
<g id="edge7" class="edge"><title>Node1&#45;&gt;Node7</title>
<path fill="none" stroke="midnightblue" d="M181.636,-112.781C185.537,-104.422 190.504,-93.7773 194.667,-84.8565"/>
<polygon fill="midnightblue" stroke="midnightblue" points="197.868,-86.2725 198.926,-75.7305 191.525,-83.3123 197.868,-86.2725"/>
</g>
<!-- Node4&#45;&gt;Node2 -->
<g id="edge4" class="edge"><title>Node4&#45;&gt;Node2</title>
<path fill="none" stroke="midnightblue" d="M89,-56.083C89,-49.0059 89,-38.8611 89,-29.9865"/>
<polygon fill="midnightblue" stroke="midnightblue" points="92.5001,-29.751 89,-19.7511 85.5001,-29.7511 92.5001,-29.751"/>
</g>
<!-- Node5 -->
<g id="node5" class="node"><title>Node5</title>
<polygon fill="white" stroke="#bfbfbf" points="0,-0.5 0,-19.5 52,-19.5 52,-0.5 0,-0.5"/>
<text text-anchor="middle" x="26" y="-7.5" font-family="Helvetica,sans-Serif" font-size="10.00">iostream</text>
</g>
<!-- Node4&#45;&gt;Node5 -->
<g id="edge5" class="edge"><title>Node4&#45;&gt;Node5</title>
<path fill="none" stroke="midnightblue" d="M78.878,-56.324C69.4736,-48.2631 55.2559,-36.0765 43.931,-26.3695"/>
<polygon fill="midnightblue" stroke="midnightblue" points="46.1766,-23.6844 36.3062,-19.8339 41.621,-28.9993 46.1766,-23.6844"/>
</g>
<!-- Node6 -->
<g id="node6" class="node"><title>Node6</title>
<polygon fill="white" stroke="#bfbfbf" points="126,-0.5 126,-19.5 176,-19.5 176,-0.5 126,-0.5"/>
<text text-anchor="middle" x="151" y="-7.5" font-family="Helvetica,sans-Serif" font-size="10.00">sstream</text>
</g>
<!-- Node4&#45;&gt;Node6 -->
<g id="edge6" class="edge"><title>Node4&#45;&gt;Node6</title>
<path fill="none" stroke="midnightblue" d="M98.9614,-56.324C108.127,-48.3414 121.937,-36.3128 133.028,-26.6529"/>
<polygon fill="midnightblue" stroke="midnightblue" points="135.615,-29.041 140.857,-19.8339 131.018,-23.7624 135.615,-29.041"/>
</g>
<!-- Node7&#45;&gt;Node2 -->
<g id="edge10" class="edge"><title>Node7&#45;&gt;Node2</title>
<path fill="none" stroke="midnightblue" d="M184.936,-56.4435C166.425,-47.6751 137.419,-33.9355 116.145,-23.8579"/>
<polygon fill="midnightblue" stroke="midnightblue" points="117.515,-20.6343 106.979,-19.5164 114.518,-26.9604 117.515,-20.6343"/>
</g>
<!-- Node7&#45;&gt;Node3 -->
<g id="edge8" class="edge"><title>Node7&#45;&gt;Node3</title>
<path fill="none" stroke="midnightblue" d="M213.925,-56.324C224.175,-48.1849 239.721,-35.8395 252.001,-26.0874"/>
<polygon fill="midnightblue" stroke="midnightblue" points="254.221,-28.7937 259.876,-19.8339 249.868,-23.3119 254.221,-28.7937"/>
</g>
<!-- Node7&#45;&gt;Node6 -->
<g id="edge11" class="edge"><title>Node7&#45;&gt;Node6</title>
<path fill="none" stroke="midnightblue" d="M194.413,-56.083C186.841,-48.2195 175.622,-36.5688 166.486,-27.0813"/>
<polygon fill="midnightblue" stroke="midnightblue" points="168.885,-24.5266 159.427,-19.7511 163.842,-29.3821 168.885,-24.5266"/>
</g>
<!-- Node8 -->
<g id="node8" class="node"><title>Node8</title>
<polygon fill="white" stroke="#bfbfbf" points="194,-0.5 194,-19.5 232,-19.5 232,-0.5 194,-0.5"/>
<text text-anchor="middle" x="213" y="-7.5" font-family="Helvetica,sans-Serif" font-size="10.00">ctime</text>
</g>
<!-- Node7&#45;&gt;Node8 -->
<g id="edge9" class="edge"><title>Node7&#45;&gt;Node8</title>
<path fill="none" stroke="midnightblue" d="M204.651,-56.083C205.976,-48.9272 207.882,-38.6353 209.539,-29.6911"/>
<polygon fill="midnightblue" stroke="midnightblue" points="213,-30.2212 211.379,-19.7511 206.117,-28.9466 213,-30.2212"/>
</g>
</g>
</svg>
