<?xml version="1.0" encoding="UTF-8" standalone="no"?>
<!DOCTYPE svg PUBLIC "-//W3C//DTD SVG 1.1//EN"
 "http://www.w3.org/Graphics/SVG/1.1/DTD/svg11.dtd">
<!-- Generated by graphviz version 2.34.0 (20131206.1153)
 -->
<!-- Title: /Users/lossius/dev/spatdiflib/src/sdLoader.cpp Pages: 1 -->
<svg width="937pt" height="432pt"
 viewBox="0.00 0.00 937.00 432.00" xmlns="http://www.w3.org/2000/svg" xmlns:xlink="http://www.w3.org/1999/xlink">
<g id="graph0" class="graph" transform="scale(1 1) rotate(0) translate(4 428)">
<title>/Users/lossius/dev/spatdiflib/src/sdLoader.cpp</title>
<polygon fill="white" stroke="white" points="-4,4 -4,-428 933,-428 933,4 -4,4"/>
<!-- Node1 -->
<g id="node1" class="node"><title>Node1</title>
<polygon fill="#bfbfbf" stroke="black" points="541,-393 541,-423 675,-423 675,-393 541,-393"/>
<text text-anchor="start" x="549" y="-411" font-family="Helvetica,sans-Serif" font-size="10.00">/Users/lossius/dev</text>
<text text-anchor="middle" x="608" y="-400" font-family="Helvetica,sans-Serif" font-size="10.00">/spatdiflib/src/sdLoader.cpp</text>
</g>
<!-- Node2 -->
<g id="node2" class="node"><title>Node2</title>
<polygon fill="white" stroke="#bfbfbf" points="98,-0.5 98,-19.5 150,-19.5 150,-0.5 98,-0.5"/>
<text text-anchor="middle" x="124" y="-7.5" font-family="Helvetica,sans-Serif" font-size="10.00">iostream</text>
</g>
<!-- Node1&#45;&gt;Node2 -->
<g id="edge1" class="edge"><title>Node1&#45;&gt;Node2</title>
<path fill="none" stroke="midnightblue" d="M540.553,-406.318C414.325,-404.123 147.687,-394.879 65,-356 28.028,-338.616 0,-331.855 0,-291 0,-291 0,-291 0,-121 0,-72.2608 54.2738,-39.8655 91.0082,-23.5212"/>
<polygon fill="midnightblue" stroke="midnightblue" points="92.5583,-26.6652 100.385,-19.5239 89.8131,-20.2259 92.5583,-26.6652"/>
</g>
<!-- Node3 -->
<g id="node3" class="node"><title>Node3</title>
<polygon fill="white" stroke="#bfbfbf" points="335,-0.5 335,-19.5 373,-19.5 373,-0.5 335,-0.5"/>
<text text-anchor="middle" x="354" y="-7.5" font-family="Helvetica,sans-Serif" font-size="10.00">string</text>
</g>
<!-- Node1&#45;&gt;Node3 -->
<g id="edge2" class="edge"><title>Node1&#45;&gt;Node3</title>
<path fill="none" stroke="midnightblue" d="M602.334,-392.977C594.152,-371.429 580,-328.705 580,-291 580,-291 580,-291 580,-121 580,-25.2994 482.685,-47.8412 382.925,-20.089"/>
<polygon fill="midnightblue" stroke="midnightblue" points="383.847,-16.7123 373.266,-17.2407 381.867,-23.4264 383.847,-16.7123"/>
</g>
<!-- Node4 -->
<g id="node4" class="node"><title>Node4</title>
<polygon fill="white" stroke="#bfbfbf" points="195,-0.5 195,-19.5 245,-19.5 245,-0.5 195,-0.5"/>
<text text-anchor="middle" x="220" y="-7.5" font-family="Helvetica,sans-Serif" font-size="10.00">sstream</text>
</g>
<!-- Node1&#45;&gt;Node4 -->
<g id="edge3" class="edge"><title>Node1&#45;&gt;Node4</title>
<path fill="none" stroke="midnightblue" d="M540.938,-407.296C390.263,-406.154 38,-392.618 38,-291 38,-291 38,-291 38,-121 38,-90.9022 35.5584,-77.1219 57,-56 75.0168,-38.2518 142.615,-24.0103 184.894,-16.5945"/>
<polygon fill="midnightblue" stroke="midnightblue" points="185.527,-20.0372 194.794,-14.9013 184.347,-13.1374 185.527,-20.0372"/>
</g>
<!-- Node5 -->
<g id="node5" class="node"><title>Node5</title>
<g id="a_node5"><a xlink:href="sd_loader_8h.html" target="_top" xlink:title="sdLoader.h">
<polygon fill="white" stroke="black" points="488,-336.5 488,-355.5 552,-355.5 552,-336.5 488,-336.5"/>
<text text-anchor="middle" x="520" y="-343.5" font-family="Helvetica,sans-Serif" font-size="10.00">sdLoader.h</text>
</a>
</g>
</g>
<!-- Node1&#45;&gt;Node5 -->
<g id="edge4" class="edge"><title>Node1&#45;&gt;Node5</title>
<path fill="none" stroke="midnightblue" d="M587.145,-392.781C573.22,-383.286 554.97,-370.843 541.012,-361.327"/>
<polygon fill="midnightblue" stroke="midnightblue" points="542.782,-358.297 532.548,-355.556 538.839,-364.081 542.782,-358.297"/>
</g>
<!-- Node16 -->
<g id="node16" class="node"><title>Node16</title>
<polygon fill="white" stroke="#bfbfbf" points="608,-336.5 608,-355.5 666,-355.5 666,-336.5 608,-336.5"/>
<text text-anchor="middle" x="637" y="-343.5" font-family="Helvetica,sans-Serif" font-size="10.00">tinyxml2.h</text>
</g>
<!-- Node1&#45;&gt;Node16 -->
<g id="edge37" class="edge"><title>Node1&#45;&gt;Node16</title>
<path fill="none" stroke="midnightblue" d="M614.873,-392.781C618.913,-384.422 624.058,-373.777 628.369,-364.856"/>
<polygon fill="midnightblue" stroke="midnightblue" points="631.58,-366.257 632.78,-355.731 625.277,-363.211 631.58,-366.257"/>
</g>
<!-- Node17 -->
<g id="node17" class="node"><title>Node17</title>
<polygon fill="white" stroke="#bfbfbf" points="684.5,-336.5 684.5,-355.5 735.5,-355.5 735.5,-336.5 684.5,-336.5"/>
<text text-anchor="middle" x="710" y="-343.5" font-family="Helvetica,sans-Serif" font-size="10.00">libjson.h</text>
</g>
<!-- Node1&#45;&gt;Node17 -->
<g id="edge38" class="edge"><title>Node1&#45;&gt;Node17</title>
<path fill="none" stroke="midnightblue" d="M631.914,-392.933C648.355,-383.262 670.085,-370.479 686.447,-360.855"/>
<polygon fill="midnightblue" stroke="midnightblue" points="688.535,-363.687 695.38,-355.6 684.986,-357.654 688.535,-363.687"/>
</g>
<!-- Node18 -->
<g id="node18" class="node"><title>Node18</title>
<polygon fill="white" stroke="#bfbfbf" points="753.5,-336.5 753.5,-355.5 826.5,-355.5 826.5,-336.5 753.5,-336.5"/>
<text text-anchor="middle" x="790" y="-343.5" font-family="Helvetica,sans-Serif" font-size="10.00">JSONNode.h</text>
</g>
<!-- Node1&#45;&gt;Node18 -->
<g id="edge39" class="edge"><title>Node1&#45;&gt;Node18</title>
<path fill="none" stroke="midnightblue" d="M650.671,-392.933C682.293,-382.508 724.884,-368.467 754.621,-358.663"/>
<polygon fill="midnightblue" stroke="midnightblue" points="755.777,-361.968 764.178,-355.513 753.585,-355.32 755.777,-361.968"/>
</g>
<!-- Node19 -->
<g id="node19" class="node"><title>Node19</title>
<polygon fill="white" stroke="#bfbfbf" points="845,-336.5 845,-355.5 929,-355.5 929,-336.5 845,-336.5"/>
<text text-anchor="middle" x="887" y="-343.5" font-family="Helvetica,sans-Serif" font-size="10.00">JSONOptions.h</text>
</g>
<!-- Node1&#45;&gt;Node19 -->
<g id="edge40" class="edge"><title>Node1&#45;&gt;Node19</title>
<path fill="none" stroke="midnightblue" d="M673.413,-392.933C723.575,-382.145 791.742,-367.486 837.449,-357.656"/>
<polygon fill="midnightblue" stroke="midnightblue" points="838.375,-361.037 847.416,-355.513 836.904,-354.193 838.375,-361.037"/>
</g>
<!-- Node5&#45;&gt;Node3 -->
<g id="edge5" class="edge"><title>Node5&#45;&gt;Node3</title>
<path fill="none" stroke="midnightblue" d="M522.967,-336.279C528.972,-317.824 542,-273.367 542,-235 542,-235 542,-235 542,-121 542,-76.5533 504.012,-79.0341 466,-56 451.555,-47.2468 410.892,-31.6739 382.757,-21.3408"/>
<polygon fill="midnightblue" stroke="midnightblue" points="383.624,-17.9317 373.03,-17.7934 381.226,-24.5079 383.624,-17.9317"/>
</g>
<!-- Node6 -->
<g id="node6" class="node"><title>Node6</title>
<g id="a_node6"><a xlink:href="sd_scene_8h.html" target="_top" xlink:title="sdScene.h">
<polygon fill="white" stroke="black" points="397,-280.5 397,-299.5 459,-299.5 459,-280.5 397,-280.5"/>
<text text-anchor="middle" x="428" y="-287.5" font-family="Helvetica,sans-Serif" font-size="10.00">sdScene.h</text>
</a>
</g>
</g>
<!-- Node5&#45;&gt;Node6 -->
<g id="edge6" class="edge"><title>Node5&#45;&gt;Node6</title>
<path fill="none" stroke="midnightblue" d="M505.219,-336.324C490.733,-327.822 468.427,-314.729 451.507,-304.797"/>
<polygon fill="midnightblue" stroke="midnightblue" points="453.141,-301.698 442.745,-299.655 449.597,-307.735 453.141,-301.698"/>
</g>
<!-- Node6&#45;&gt;Node3 -->
<g id="edge7" class="edge"><title>Node6&#45;&gt;Node3</title>
<path fill="none" stroke="midnightblue" d="M432.239,-280.077C447.176,-247.215 494.003,-130.959 447,-56 439.63,-44.2466 407.211,-30.267 382.705,-21.0428"/>
<polygon fill="midnightblue" stroke="midnightblue" points="383.707,-17.6821 373.113,-17.5192 381.293,-24.2528 383.707,-17.6821"/>
</g>
<!-- Node7 -->
<g id="node7" class="node"><title>Node7</title>
<polygon fill="white" stroke="#bfbfbf" points="522.5,-0.5 522.5,-19.5 563.5,-19.5 563.5,-0.5 522.5,-0.5"/>
<text text-anchor="middle" x="543" y="-7.5" font-family="Helvetica,sans-Serif" font-size="10.00">vector</text>
</g>
<!-- Node6&#45;&gt;Node7 -->
<g id="edge8" class="edge"><title>Node6&#45;&gt;Node7</title>
<path fill="none" stroke="midnightblue" d="M436.451,-280.361C444.476,-271.758 456.41,-257.866 464,-244 504.679,-169.682 529.747,-70.6516 538.974,-29.819"/>
<polygon fill="midnightblue" stroke="midnightblue" points="542.423,-30.4332 541.157,-19.9143 535.587,-28.9269 542.423,-30.4332"/>
</g>
<!-- Node8 -->
<g id="node8" class="node"><title>Node8</title>
<g id="a_node8"><a xlink:href="sd_const_8h.html" target="_top" xlink:title="sdConst.h">
<polygon fill="white" stroke="black" points="190,-56.5 190,-75.5 250,-75.5 250,-56.5 190,-56.5"/>
<text text-anchor="middle" x="220" y="-63.5" font-family="Helvetica,sans-Serif" font-size="10.00">sdConst.h</text>
</a>
</g>
</g>
<!-- Node6&#45;&gt;Node8 -->
<g id="edge9" class="edge"><title>Node6&#45;&gt;Node8</title>
<path fill="none" stroke="midnightblue" d="M396.804,-286.917C344.304,-282.69 241.865,-271.102 220,-244 182.741,-197.818 201.691,-120.598 213.252,-85.4407"/>
<polygon fill="midnightblue" stroke="midnightblue" points="216.696,-86.1914 216.666,-75.5966 210.083,-83.8981 216.696,-86.1914"/>
</g>
<!-- Node9 -->
<g id="node9" class="node"><title>Node9</title>
<g id="a_node9"><a xlink:href="sd_info_8h.html" target="_top" xlink:title="sdInfo.h">
<polygon fill="white" stroke="black" points="385,-112.5 385,-131.5 435,-131.5 435,-112.5 385,-112.5"/>
<text text-anchor="middle" x="410" y="-119.5" font-family="Helvetica,sans-Serif" font-size="10.00">sdInfo.h</text>
</a>
</g>
</g>
<!-- Node6&#45;&gt;Node9 -->
<g id="edge13" class="edge"><title>Node6&#45;&gt;Node9</title>
<path fill="none" stroke="midnightblue" d="M427.032,-280.075C424.199,-253.945 415.878,-177.211 412.014,-141.577"/>
<polygon fill="midnightblue" stroke="midnightblue" points="415.487,-141.132 410.929,-131.568 408.528,-141.887 415.487,-141.132"/>
</g>
<!-- Node12 -->
<g id="node12" class="node"><title>Node12</title>
<g id="a_node12"><a xlink:href="sd_entity_core_8h.html" target="_top" xlink:title="sdEntityCore.h">
<polygon fill="white" stroke="black" points="229,-224.5 229,-243.5 307,-243.5 307,-224.5 229,-224.5"/>
<text text-anchor="middle" x="268" y="-231.5" font-family="Helvetica,sans-Serif" font-size="10.00">sdEntityCore.h</text>
</a>
</g>
</g>
<!-- Node6&#45;&gt;Node12 -->
<g id="edge22" class="edge"><title>Node6&#45;&gt;Node12</title>
<path fill="none" stroke="midnightblue" d="M402.648,-280.444C375.731,-271.359 333.004,-256.939 302.913,-246.783"/>
<polygon fill="midnightblue" stroke="midnightblue" points="303.828,-243.398 293.234,-243.516 301.59,-250.031 303.828,-243.398"/>
</g>
<!-- Node15 -->
<g id="node15" class="node"><title>Node15</title>
<g id="a_node15"><a xlink:href="sd_entity_extension_8h.html" target="_top" xlink:title="sdEntityExtension.h">
<polygon fill="white" stroke="black" points="300,-168.5 300,-187.5 400,-187.5 400,-168.5 300,-168.5"/>
<text text-anchor="middle" x="350" y="-175.5" font-family="Helvetica,sans-Serif" font-size="10.00">sdEntityExtension.h</text>
</a>
</g>
</g>
<!-- Node6&#45;&gt;Node15 -->
<g id="edge36" class="edge"><title>Node6&#45;&gt;Node15</title>
<path fill="none" stroke="midnightblue" d="M421.879,-280.368C409.007,-262.215 378.932,-219.802 362.048,-195.99"/>
<polygon fill="midnightblue" stroke="midnightblue" points="364.731,-193.724 356.092,-187.591 359.021,-197.773 364.731,-193.724"/>
</g>
<!-- Node8&#45;&gt;Node2 -->
<g id="edge11" class="edge"><title>Node8&#45;&gt;Node2</title>
<path fill="none" stroke="midnightblue" d="M204.576,-56.324C189.46,-47.8215 166.185,-34.7288 148.529,-24.7975"/>
<polygon fill="midnightblue" stroke="midnightblue" points="149.817,-21.5066 139.386,-19.6545 146.386,-27.6077 149.817,-21.5066"/>
</g>
<!-- Node8&#45;&gt;Node3 -->
<g id="edge10" class="edge"><title>Node8&#45;&gt;Node3</title>
<path fill="none" stroke="midnightblue" d="M241.233,-56.4435C263.905,-47.3071 299.97,-32.7734 325.192,-22.609"/>
<polygon fill="midnightblue" stroke="midnightblue" points="326.64,-25.7992 334.607,-18.8151 324.024,-19.3066 326.64,-25.7992"/>
</g>
<!-- Node8&#45;&gt;Node4 -->
<g id="edge12" class="edge"><title>Node8&#45;&gt;Node4</title>
<path fill="none" stroke="midnightblue" d="M220,-56.083C220,-49.0059 220,-38.8611 220,-29.9865"/>
<polygon fill="midnightblue" stroke="midnightblue" points="223.5,-29.751 220,-19.7511 216.5,-29.7511 223.5,-29.751"/>
</g>
<!-- Node9&#45;&gt;Node3 -->
<g id="edge14" class="edge"><title>Node9&#45;&gt;Node3</title>
<path fill="none" stroke="midnightblue" d="M401.168,-112.477C392.812,-103.958 380.468,-90.1281 373,-76 365.274,-61.3832 360.302,-43.2113 357.391,-29.8006"/>
<polygon fill="midnightblue" stroke="midnightblue" points="360.794,-28.9657 355.415,-19.838 353.927,-30.3279 360.794,-28.9657"/>
</g>
<!-- Node9&#45;&gt;Node7 -->
<g id="edge15" class="edge"><title>Node9&#45;&gt;Node7</title>
<path fill="none" stroke="midnightblue" d="M420.436,-112.368C442.968,-93.7334 496.411,-49.5324 524.702,-26.1338"/>
<polygon fill="midnightblue" stroke="midnightblue" points="527.137,-28.6618 532.612,-19.5914 522.676,-23.2677 527.137,-28.6618"/>
</g>
<!-- Node9&#45;&gt;Node8 -->
<g id="edge16" class="edge"><title>Node9&#45;&gt;Node8</title>
<path fill="none" stroke="midnightblue" d="M384.769,-113.829C352.8,-104.743 297.338,-88.9804 259.678,-78.277"/>
<polygon fill="midnightblue" stroke="midnightblue" points="260.614,-74.9044 250.038,-75.5371 258.7,-81.6377 260.614,-74.9044"/>
</g>
<!-- Node10 -->
<g id="node10" class="node"><title>Node10</title>
<g id="a_node10"><a xlink:href="sd_date_8h.html" target="_top" xlink:title="sdDate.h">
<polygon fill="white" stroke="black" points="382,-56.5 382,-75.5 438,-75.5 438,-56.5 382,-56.5"/>
<text text-anchor="middle" x="410" y="-63.5" font-family="Helvetica,sans-Serif" font-size="10.00">sdDate.h</text>
</a>
</g>
</g>
<!-- Node9&#45;&gt;Node10 -->
<g id="edge17" class="edge"><title>Node9&#45;&gt;Node10</title>
<path fill="none" stroke="midnightblue" d="M410,-112.083C410,-105.006 410,-94.8611 410,-85.9865"/>
<polygon fill="midnightblue" stroke="midnightblue" points="413.5,-85.751 410,-75.7511 406.5,-85.7511 413.5,-85.751"/>
</g>
<!-- Node10&#45;&gt;Node3 -->
<g id="edge20" class="edge"><title>Node10&#45;&gt;Node3</title>
<path fill="none" stroke="midnightblue" d="M401.003,-56.324C392.806,-48.4196 380.494,-36.5482 370.528,-26.9377"/>
<polygon fill="midnightblue" stroke="midnightblue" points="372.789,-24.2558 363.161,-19.8339 367.93,-29.2947 372.789,-24.2558"/>
</g>
<!-- Node10&#45;&gt;Node4 -->
<g id="edge21" class="edge"><title>Node10&#45;&gt;Node4</title>
<path fill="none" stroke="midnightblue" d="M381.965,-57.0321C348.186,-47.4317 291.425,-31.2996 254.857,-20.9067"/>
<polygon fill="midnightblue" stroke="midnightblue" points="255.69,-17.5049 245.114,-18.1377 253.776,-24.2383 255.69,-17.5049"/>
</g>
<!-- Node10&#45;&gt;Node7 -->
<g id="edge18" class="edge"><title>Node10&#45;&gt;Node7</title>
<path fill="none" stroke="midnightblue" d="M431.074,-56.4435C453.189,-47.4646 488.143,-33.2729 513.103,-23.1386"/>
<polygon fill="midnightblue" stroke="midnightblue" points="514.513,-26.3439 522.461,-19.339 511.879,-19.8581 514.513,-26.3439"/>
</g>
<!-- Node11 -->
<g id="node11" class="node"><title>Node11</title>
<polygon fill="white" stroke="#bfbfbf" points="391,-0.5 391,-19.5 429,-19.5 429,-0.5 391,-0.5"/>
<text text-anchor="middle" x="410" y="-7.5" font-family="Helvetica,sans-Serif" font-size="10.00">ctime</text>
</g>
<!-- Node10&#45;&gt;Node11 -->
<g id="edge19" class="edge"><title>Node10&#45;&gt;Node11</title>
<path fill="none" stroke="midnightblue" d="M410,-56.083C410,-49.0059 410,-38.8611 410,-29.9865"/>
<polygon fill="midnightblue" stroke="midnightblue" points="413.5,-29.751 410,-19.7511 406.5,-29.7511 413.5,-29.751"/>
</g>
<!-- Node12&#45;&gt;Node3 -->
<g id="edge24" class="edge"><title>Node12&#45;&gt;Node3</title>
<path fill="none" stroke="midnightblue" d="M271.009,-224.126C275.296,-211.573 283.477,-187.935 291,-168 310.117,-117.342 334.373,-58.2233 346.451,-29.1025"/>
<polygon fill="midnightblue" stroke="midnightblue" points="349.711,-30.3796 350.318,-19.8022 343.247,-27.6921 349.711,-30.3796"/>
</g>
<!-- Node12&#45;&gt;Node8 -->
<g id="edge25" class="edge"><title>Node12&#45;&gt;Node8</title>
<path fill="none" stroke="midnightblue" d="M265.419,-224.075C257.864,-197.945 235.675,-121.211 225.372,-85.577"/>
<polygon fill="midnightblue" stroke="midnightblue" points="228.618,-84.2023 222.478,-75.5681 221.893,-86.1468 228.618,-84.2023"/>
</g>
<!-- Node13 -->
<g id="node13" class="node"><title>Node13</title>
<polygon fill="white" stroke="#bfbfbf" points="66.5,-56.5 66.5,-75.5 95.5,-75.5 95.5,-56.5 66.5,-56.5"/>
<text text-anchor="middle" x="81" y="-63.5" font-family="Helvetica,sans-Serif" font-size="10.00">set</text>
</g>
<!-- Node12&#45;&gt;Node13 -->
<g id="edge23" class="edge"><title>Node12&#45;&gt;Node13</title>
<path fill="none" stroke="midnightblue" d="M242.326,-224.431C205.44,-210.79 137.846,-180.601 101,-132 90.7563,-118.488 85.7117,-99.6811 83.2566,-85.7717"/>
<polygon fill="midnightblue" stroke="midnightblue" points="86.7166,-85.2426 81.7931,-75.8613 79.7917,-86.2654 86.7166,-85.2426"/>
</g>
<!-- Node14 -->
<g id="node14" class="node"><title>Node14</title>
<g id="a_node14"><a xlink:href="sd_entity_8h.html" target="_top" xlink:title="sdEntity.h">
<polygon fill="white" stroke="black" points="110,-112.5 110,-131.5 168,-131.5 168,-112.5 110,-112.5"/>
<text text-anchor="middle" x="139" y="-119.5" font-family="Helvetica,sans-Serif" font-size="10.00">sdEntity.h</text>
</a>
</g>
</g>
<!-- Node12&#45;&gt;Node14 -->
<g id="edge26" class="edge"><title>Node12&#45;&gt;Node14</title>
<path fill="none" stroke="midnightblue" d="M257.878,-224.368C236.024,-205.733 184.188,-161.532 156.748,-138.134"/>
<polygon fill="midnightblue" stroke="midnightblue" points="158.956,-135.417 149.075,-131.591 154.414,-140.743 158.956,-135.417"/>
</g>
<!-- Node12&#45;&gt;Node15 -->
<g id="edge31" class="edge"><title>Node12&#45;&gt;Node15</title>
<path fill="none" stroke="midnightblue" d="M281.175,-224.324C293.847,-215.979 313.233,-203.212 328.206,-193.352"/>
<polygon fill="midnightblue" stroke="midnightblue" points="330.431,-196.078 336.858,-187.655 326.581,-190.231 330.431,-196.078"/>
</g>
<!-- Node14&#45;&gt;Node2 -->
<g id="edge29" class="edge"><title>Node14&#45;&gt;Node2</title>
<path fill="none" stroke="midnightblue" d="M137.823,-112.368C135.402,-94.617 129.818,-53.6664 126.536,-29.5974"/>
<polygon fill="midnightblue" stroke="midnightblue" points="129.991,-29.0268 125.172,-19.5914 123.055,-29.9726 129.991,-29.0268"/>
</g>
<!-- Node14&#45;&gt;Node3 -->
<g id="edge28" class="edge"><title>Node14&#45;&gt;Node3</title>
<path fill="none" stroke="midnightblue" d="M142.16,-112.361C147.752,-98.3181 160.746,-70.6379 181,-56 224.497,-24.5645 288.17,-15.0648 324.914,-12.2097"/>
<polygon fill="midnightblue" stroke="midnightblue" points="325.215,-15.6975 334.962,-11.5438 324.753,-8.71284 325.215,-15.6975"/>
</g>
<!-- Node14&#45;&gt;Node8 -->
<g id="edge30" class="edge"><title>Node14&#45;&gt;Node8</title>
<path fill="none" stroke="midnightblue" d="M152.014,-112.324C164.532,-103.979 183.682,-91.2122 198.471,-81.3524"/>
<polygon fill="midnightblue" stroke="midnightblue" points="200.639,-84.1137 207.018,-75.6545 196.756,-78.2894 200.639,-84.1137"/>
</g>
<!-- Node14&#45;&gt;Node13 -->
<g id="edge27" class="edge"><title>Node14&#45;&gt;Node13</title>
<path fill="none" stroke="midnightblue" d="M129.681,-112.324C121.107,-104.341 108.188,-92.3128 97.8124,-82.6529"/>
<polygon fill="midnightblue" stroke="midnightblue" points="100.192,-80.0865 90.4883,-75.8339 95.4223,-85.2098 100.192,-80.0865"/>
</g>
<!-- Node15&#45;&gt;Node3 -->
<g id="edge32" class="edge"><title>Node15&#45;&gt;Node3</title>
<path fill="none" stroke="midnightblue" d="M350.215,-168.075C350.845,-141.945 352.694,-65.2106 353.552,-29.577"/>
<polygon fill="midnightblue" stroke="midnightblue" points="357.052,-29.6496 353.794,-19.5681 350.054,-29.4809 357.052,-29.6496"/>
</g>
<!-- Node15&#45;&gt;Node7 -->
<g id="edge33" class="edge"><title>Node15&#45;&gt;Node7</title>
<path fill="none" stroke="midnightblue" d="M374.775,-168.491C394.727,-160.884 422.838,-148.408 444,-132 482.801,-101.916 516.198,-53.9329 532.455,-28.3666"/>
<polygon fill="midnightblue" stroke="midnightblue" points="535.506,-30.0883 537.822,-19.7496 529.564,-26.3875 535.506,-30.0883"/>
</g>
<!-- Node15&#45;&gt;Node8 -->
<g id="edge34" class="edge"><title>Node15&#45;&gt;Node8</title>
<path fill="none" stroke="midnightblue" d="M339.799,-168.368C317.776,-149.733 265.538,-105.532 237.885,-82.1338"/>
<polygon fill="midnightblue" stroke="midnightblue" points="240.048,-79.379 230.153,-75.5914 235.527,-84.7227 240.048,-79.379"/>
</g>
<!-- Node15&#45;&gt;Node14 -->
<g id="edge35" class="edge"><title>Node15&#45;&gt;Node14</title>
<path fill="none" stroke="midnightblue" d="M316.566,-168.444C278.938,-158.814 217.881,-143.188 178.081,-133.002"/>
<polygon fill="midnightblue" stroke="midnightblue" points="178.756,-129.562 168.2,-130.473 177.02,-136.343 178.756,-129.562"/>
</g>
</g>
</svg>
