<?xml version="1.0" encoding="UTF-8" standalone="no"?>
<!DOCTYPE svg PUBLIC "-//W3C//DTD SVG 1.1//EN"
 "http://www.w3.org/Graphics/SVG/1.1/DTD/svg11.dtd">
<!-- Generated by graphviz version 2.34.0 (20131206.1153)
 -->
<!-- Title: /Users/lossius/dev/spatdiflib/src/sdLoader.h Pages: 1 -->
<svg width="754pt" height="196pt"
 viewBox="0.00 0.00 754.00 196.00" xmlns="http://www.w3.org/2000/svg" xmlns:xlink="http://www.w3.org/1999/xlink">
<g id="graph0" class="graph" transform="scale(1 1) rotate(0) translate(4 192)">
<title>/Users/lossius/dev/spatdiflib/src/sdLoader.h</title>
<polygon fill="white" stroke="white" points="-4,4 -4,-192 750,-192 750,4 -4,4"/>
<!-- Node1 -->
<g id="node1" class="node"><title>Node1</title>
<polygon fill="#bfbfbf" stroke="black" points="334,-157 334,-187 456,-187 456,-157 334,-157"/>
<text text-anchor="start" x="342" y="-175" font-family="Helvetica,sans-Serif" font-size="10.00">/Users/lossius/dev</text>
<text text-anchor="middle" x="395" y="-164" font-family="Helvetica,sans-Serif" font-size="10.00">/spatdiflib/src/sdLoader.h</text>
</g>
<!-- Node2 -->
<g id="node2" class="node"><title>Node2</title>
<g id="a_node2"><a xlink:href="sd_loader_8cpp.html" target="_top" xlink:title="/Users/lossius/dev\l/spatdiflib/src/sdLoader.cpp">
<polygon fill="white" stroke="black" points="0,-84 0,-114 134,-114 134,-84 0,-84"/>
<text text-anchor="start" x="8" y="-102" font-family="Helvetica,sans-Serif" font-size="10.00">/Users/lossius/dev</text>
<text text-anchor="middle" x="67" y="-91" font-family="Helvetica,sans-Serif" font-size="10.00">/spatdiflib/src/sdLoader.cpp</text>
</a>
</g>
</g>
<!-- Node1&#45;&gt;Node2 -->
<g id="edge1" class="edge"><title>Node1&#45;&gt;Node2</title>
<path fill="none" stroke="midnightblue" d="M324.074,-157.779C273.45,-148.066 203.833,-134.148 143,-120 135.159,-118.177 126.896,-116.131 118.821,-114.063"/>
<polygon fill="midnightblue" stroke="midnightblue" points="323.459,-161.224 333.938,-159.664 324.773,-154.349 323.459,-161.224"/>
</g>
<!-- Node3 -->
<g id="node3" class="node"><title>Node3</title>
<g id="a_node3"><a xlink:href="sd_main_8h.html" target="_top" xlink:title="/Users/lossius/dev\l/spatdiflib/src/sdMain.h">
<polygon fill="white" stroke="black" points="152,-84 152,-114 266,-114 266,-84 152,-84"/>
<text text-anchor="start" x="160" y="-102" font-family="Helvetica,sans-Serif" font-size="10.00">/Users/lossius/dev</text>
<text text-anchor="middle" x="209" y="-91" font-family="Helvetica,sans-Serif" font-size="10.00">/spatdiflib/src/sdMain.h</text>
</a>
</g>
</g>
<!-- Node1&#45;&gt;Node3 -->
<g id="edge2" class="edge"><title>Node1&#45;&gt;Node3</title>
<path fill="none" stroke="midnightblue" d="M348.748,-153.345C317.031,-141.238 275.51,-125.388 245.989,-114.12"/>
<polygon fill="midnightblue" stroke="midnightblue" points="347.662,-156.676 358.252,-156.973 350.158,-150.137 347.662,-156.676"/>
</g>
<!-- Node5 -->
<g id="node5" class="node"><title>Node5</title>
<g id="a_node5"><a xlink:href="_how__to__query_8cpp.html" target="_top" xlink:title="Example: How to query a SoatDIF scene.">
<polygon fill="white" stroke="black" points="284,-78.5 284,-119.5 386,-119.5 386,-78.5 284,-78.5"/>
<text text-anchor="start" x="292" y="-107.5" font-family="Helvetica,sans-Serif" font-size="10.00">/Users/lossius/dev</text>
<text text-anchor="start" x="292" y="-96.5" font-family="Helvetica,sans-Serif" font-size="10.00">/spatdiflib/examples</text>
<text text-anchor="middle" x="335" y="-85.5" font-family="Helvetica,sans-Serif" font-size="10.00">/How_to_query.cpp</text>
</a>
</g>
</g>
<!-- Node1&#45;&gt;Node5 -->
<g id="edge4" class="edge"><title>Node1&#45;&gt;Node5</title>
<path fill="none" stroke="midnightblue" d="M376.548,-149.165C368.586,-139.743 359.343,-128.805 351.599,-119.642"/>
<polygon fill="midnightblue" stroke="midnightblue" points="374.018,-151.594 383.146,-156.973 379.365,-147.076 374.018,-151.594"/>
</g>
<!-- Node6 -->
<g id="node6" class="node"><title>Node6</title>
<g id="a_node6"><a xlink:href="sd_loader_test_8cpp.html" target="_top" xlink:title="Example: Test sdLoader.">
<polygon fill="white" stroke="black" points="404,-78.5 404,-119.5 506,-119.5 506,-78.5 404,-78.5"/>
<text text-anchor="start" x="412" y="-107.5" font-family="Helvetica,sans-Serif" font-size="10.00">/Users/lossius/dev</text>
<text text-anchor="start" x="412" y="-96.5" font-family="Helvetica,sans-Serif" font-size="10.00">/spatdiflib/examples</text>
<text text-anchor="middle" x="455" y="-85.5" font-family="Helvetica,sans-Serif" font-size="10.00">/sdLoaderTest.cpp</text>
</a>
</g>
</g>
<!-- Node1&#45;&gt;Node6 -->
<g id="edge5" class="edge"><title>Node1&#45;&gt;Node6</title>
<path fill="none" stroke="midnightblue" d="M413.452,-149.165C421.414,-139.743 430.657,-128.805 438.401,-119.642"/>
<polygon fill="midnightblue" stroke="midnightblue" points="410.635,-147.076 406.854,-156.973 415.982,-151.594 410.635,-147.076"/>
</g>
<!-- Node7 -->
<g id="node7" class="node"><title>Node7</title>
<g id="a_node7"><a xlink:href="sd_saver_test_8cpp.html" target="_top" xlink:title="Example: Test sdSaver.">
<polygon fill="white" stroke="black" points="524,-78.5 524,-119.5 626,-119.5 626,-78.5 524,-78.5"/>
<text text-anchor="start" x="532" y="-107.5" font-family="Helvetica,sans-Serif" font-size="10.00">/Users/lossius/dev</text>
<text text-anchor="start" x="532" y="-96.5" font-family="Helvetica,sans-Serif" font-size="10.00">/spatdiflib/examples</text>
<text text-anchor="middle" x="575" y="-85.5" font-family="Helvetica,sans-Serif" font-size="10.00">/sdSaverTest.cpp</text>
</a>
</g>
</g>
<!-- Node1&#45;&gt;Node7 -->
<g id="edge6" class="edge"><title>Node1&#45;&gt;Node7</title>
<path fill="none" stroke="midnightblue" d="M440.17,-153.183C466.165,-142.929 498.861,-130.033 525.544,-119.507"/>
<polygon fill="midnightblue" stroke="midnightblue" points="438.58,-150.047 430.562,-156.973 441.149,-156.559 438.58,-150.047"/>
</g>
<!-- Node8 -->
<g id="node8" class="node"><title>Node8</title>
<g id="a_node8"><a xlink:href="sd_scene_test_8cpp.html" target="_top" xlink:title="Example: Test sdScene.">
<polygon fill="white" stroke="black" points="644,-78.5 644,-119.5 746,-119.5 746,-78.5 644,-78.5"/>
<text text-anchor="start" x="652" y="-107.5" font-family="Helvetica,sans-Serif" font-size="10.00">/Users/lossius/dev</text>
<text text-anchor="start" x="652" y="-96.5" font-family="Helvetica,sans-Serif" font-size="10.00">/spatdiflib/examples</text>
<text text-anchor="middle" x="695" y="-85.5" font-family="Helvetica,sans-Serif" font-size="10.00">/sdSceneTest.cpp</text>
</a>
</g>
</g>
<!-- Node1&#45;&gt;Node8 -->
<g id="edge7" class="edge"><title>Node1&#45;&gt;Node8</title>
<path fill="none" stroke="midnightblue" d="M466.101,-158.067C514.129,-148.8 578.782,-135.291 635,-120 637.861,-119.222 640.785,-118.385 643.729,-117.512"/>
<polygon fill="midnightblue" stroke="midnightblue" points="465.278,-154.661 456.114,-159.98 466.594,-161.537 465.278,-154.661"/>
</g>
<!-- Node4 -->
<g id="node4" class="node"><title>Node4</title>
<g id="a_node4"><a xlink:href="_file_with_extension_8cpp.html" target="_top" xlink:title="Example: Examine all functionalities of the sdDate class.">
<polygon fill="white" stroke="black" points="152.5,-0.5 152.5,-41.5 265.5,-41.5 265.5,-0.5 152.5,-0.5"/>
<text text-anchor="start" x="160.5" y="-29.5" font-family="Helvetica,sans-Serif" font-size="10.00">/Users/lossius/dev</text>
<text text-anchor="start" x="160.5" y="-18.5" font-family="Helvetica,sans-Serif" font-size="10.00">/spatdiflib/examples</text>
<text text-anchor="middle" x="209" y="-7.5" font-family="Helvetica,sans-Serif" font-size="10.00">/FileWithExtension.cpp</text>
</a>
</g>
</g>
<!-- Node3&#45;&gt;Node4 -->
<g id="edge3" class="edge"><title>Node3&#45;&gt;Node4</title>
<path fill="none" stroke="midnightblue" d="M209,-73.656C209,-63.3257 209,-51.4425 209,-41.68"/>
<polygon fill="midnightblue" stroke="midnightblue" points="205.5,-73.7049 209,-83.705 212.5,-73.705 205.5,-73.7049"/>
</g>
</g>
</svg>
