<?xml version="1.0" encoding="UTF-8" standalone="no"?>
<!DOCTYPE svg PUBLIC "-//W3C//DTD SVG 1.1//EN"
 "http://www.w3.org/Graphics/SVG/1.1/DTD/svg11.dtd">
<!-- Generated by graphviz version 2.34.0 (20131206.1153)
 -->
<!-- Title: /Users/lossius/dev/spatdiflib/src/sdMain.h Pages: 1 -->
<svg width="122pt" height="118pt"
 viewBox="0.00 0.00 122.00 118.00" xmlns="http://www.w3.org/2000/svg" xmlns:xlink="http://www.w3.org/1999/xlink">
<g id="graph0" class="graph" transform="scale(1 1) rotate(0) translate(4 114)">
<title>/Users/lossius/dev/spatdiflib/src/sdMain.h</title>
<polygon fill="white" stroke="white" points="-4,4 -4,-114 118,-114 118,4 -4,4"/>
<!-- Node1 -->
<g id="node1" class="node"><title>Node1</title>
<polygon fill="#bfbfbf" stroke="black" points="0,-79 0,-109 114,-109 114,-79 0,-79"/>
<text text-anchor="start" x="8" y="-97" font-family="Helvetica,sans-Serif" font-size="10.00">/Users/lossius/dev</text>
<text text-anchor="middle" x="57" y="-86" font-family="Helvetica,sans-Serif" font-size="10.00">/spatdiflib/src/sdMain.h</text>
</g>
<!-- Node2 -->
<g id="node2" class="node"><title>Node2</title>
<g id="a_node2"><a xlink:href="_file_with_extension_8cpp.html" target="_top" xlink:title="Example: Examine all functionalities of the sdDate class.">
<polygon fill="white" stroke="black" points="0.5,-0.5 0.5,-41.5 113.5,-41.5 113.5,-0.5 0.5,-0.5"/>
<text text-anchor="start" x="8.5" y="-29.5" font-family="Helvetica,sans-Serif" font-size="10.00">/Users/lossius/dev</text>
<text text-anchor="start" x="8.5" y="-18.5" font-family="Helvetica,sans-Serif" font-size="10.00">/spatdiflib/examples</text>
<text text-anchor="middle" x="57" y="-7.5" font-family="Helvetica,sans-Serif" font-size="10.00">/FileWithExtension.cpp</text>
</a>
</g>
</g>
<!-- Node1&#45;&gt;Node2 -->
<g id="edge1" class="edge"><title>Node1&#45;&gt;Node2</title>
<path fill="none" stroke="midnightblue" d="M57,-68.8534C57,-59.9872 57,-50.065 57,-41.642"/>
<polygon fill="midnightblue" stroke="midnightblue" points="53.5001,-68.9727 57,-78.9727 60.5001,-68.9727 53.5001,-68.9727"/>
</g>
</g>
</svg>
