<?xml version="1.0" encoding="UTF-8" standalone="no"?>
<!DOCTYPE svg PUBLIC "-//W3C//DTD SVG 1.1//EN"
 "http://www.w3.org/Graphics/SVG/1.1/DTD/svg11.dtd">
<!-- Generated by graphviz version 2.34.0 (20131206.1153)
 -->
<!-- Title: /Users/lossius/dev/spatdiflib/src/sdMain.h Pages: 1 -->
<svg width="846pt" height="432pt"
 viewBox="0.00 0.00 846.00 432.00" xmlns="http://www.w3.org/2000/svg" xmlns:xlink="http://www.w3.org/1999/xlink">
<g id="graph0" class="graph" transform="scale(1 1) rotate(0) translate(4 428)">
<title>/Users/lossius/dev/spatdiflib/src/sdMain.h</title>
<polygon fill="white" stroke="white" points="-4,4 -4,-428 842,-428 842,4 -4,4"/>
<!-- Node1 -->
<g id="node1" class="node"><title>Node1</title>
<polygon fill="#bfbfbf" stroke="black" points="363,-393 363,-423 477,-423 477,-393 363,-393"/>
<text text-anchor="start" x="371" y="-411" font-family="Helvetica,sans-Serif" font-size="10.00">/Users/lossius/dev</text>
<text text-anchor="middle" x="420" y="-400" font-family="Helvetica,sans-Serif" font-size="10.00">/spatdiflib/src/sdMain.h</text>
</g>
<!-- Node2 -->
<g id="node2" class="node"><title>Node2</title>
<g id="a_node2"><a xlink:href="sd_const_8h.html" target="_top" xlink:title="sdConst.h">
<polygon fill="white" stroke="black" points="356,-56.5 356,-75.5 416,-75.5 416,-56.5 356,-56.5"/>
<text text-anchor="middle" x="386" y="-63.5" font-family="Helvetica,sans-Serif" font-size="10.00">sdConst.h</text>
</a>
</g>
</g>
<!-- Node1&#45;&gt;Node2 -->
<g id="edge1" class="edge"><title>Node1&#45;&gt;Node2</title>
<path fill="none" stroke="midnightblue" d="M362.92,-403.194C248.084,-393.966 0,-365.417 0,-291 0,-291 0,-291 0,-177 0,-138.577 23.1597,-130.198 57,-112 106.16,-85.5634 269.191,-73.3735 345.698,-69.0036"/>
<polygon fill="midnightblue" stroke="midnightblue" points="346.107,-72.4863 355.898,-68.4382 345.72,-65.4971 346.107,-72.4863"/>
</g>
<!-- Node6 -->
<g id="node6" class="node"><title>Node6</title>
<g id="a_node6"><a xlink:href="sd_date_8h.html" target="_top" xlink:title="sdDate.h">
<polygon fill="white" stroke="black" points="66,-168.5 66,-187.5 122,-187.5 122,-168.5 66,-168.5"/>
<text text-anchor="middle" x="94" y="-175.5" font-family="Helvetica,sans-Serif" font-size="10.00">sdDate.h</text>
</a>
</g>
</g>
<!-- Node1&#45;&gt;Node6 -->
<g id="edge5" class="edge"><title>Node1&#45;&gt;Node6</title>
<path fill="none" stroke="midnightblue" d="M362.804,-393.201C292.21,-373.016 174.039,-328.322 113,-244 103.198,-230.459 98.4228,-211.908 96.1146,-198.089"/>
<polygon fill="midnightblue" stroke="midnightblue" points="99.5306,-197.238 94.6997,-187.809 92.596,-198.193 99.5306,-197.238"/>
</g>
<!-- Node9 -->
<g id="node9" class="node"><title>Node9</title>
<g id="a_node9"><a xlink:href="sd_entity_8h.html" target="_top" xlink:title="sdEntity.h">
<polygon fill="white" stroke="black" points="448,-112.5 448,-131.5 506,-131.5 506,-112.5 448,-112.5"/>
<text text-anchor="middle" x="477" y="-119.5" font-family="Helvetica,sans-Serif" font-size="10.00">sdEntity.h</text>
</a>
</g>
</g>
<!-- Node1&#45;&gt;Node9 -->
<g id="edge10" class="edge"><title>Node1&#45;&gt;Node9</title>
<path fill="none" stroke="midnightblue" d="M413.261,-392.838C395.769,-353.844 353.228,-242.844 397,-168 406.061,-152.508 422.633,-141.937 438.354,-134.956"/>
<polygon fill="midnightblue" stroke="midnightblue" points="440.006,-138.063 447.957,-131.062 437.375,-131.576 440.006,-138.063"/>
</g>
<!-- Node11 -->
<g id="node11" class="node"><title>Node11</title>
<g id="a_node11"><a xlink:href="sd_entity_core_8h.html" target="_top" xlink:title="sdEntityCore.h">
<polygon fill="white" stroke="black" points="517,-224.5 517,-243.5 595,-243.5 595,-224.5 517,-224.5"/>
<text text-anchor="middle" x="556" y="-231.5" font-family="Helvetica,sans-Serif" font-size="10.00">sdEntityCore.h</text>
</a>
</g>
</g>
<!-- Node1&#45;&gt;Node11 -->
<g id="edge15" class="edge"><title>Node1&#45;&gt;Node11</title>
<path fill="none" stroke="midnightblue" d="M430.295,-392.622C447.493,-368.78 483.397,-319.748 516,-280 523.955,-270.302 533.241,-259.808 540.863,-251.395"/>
<polygon fill="midnightblue" stroke="midnightblue" points="543.657,-253.526 547.818,-243.783 538.489,-248.804 543.657,-253.526"/>
</g>
<!-- Node12 -->
<g id="node12" class="node"><title>Node12</title>
<g id="a_node12"><a xlink:href="sd_entity_extension_8h.html" target="_top" xlink:title="sdEntityExtension.h">
<polygon fill="white" stroke="black" points="406,-168.5 406,-187.5 506,-187.5 506,-168.5 406,-168.5"/>
<text text-anchor="middle" x="456" y="-175.5" font-family="Helvetica,sans-Serif" font-size="10.00">sdEntityExtension.h</text>
</a>
</g>
</g>
<!-- Node1&#45;&gt;Node12 -->
<g id="edge25" class="edge"><title>Node1&#45;&gt;Node12</title>
<path fill="none" stroke="midnightblue" d="M422.252,-392.738C428.483,-353.277 445.954,-242.626 452.999,-198.007"/>
<polygon fill="midnightblue" stroke="midnightblue" points="456.485,-198.37 454.587,-187.947 449.57,-197.278 456.485,-198.37"/>
</g>
<!-- Node13 -->
<g id="node13" class="node"><title>Node13</title>
<g id="a_node13"><a xlink:href="sd_entity_extension_media_8h.html" target="_top" xlink:title="sdEntityExtensionMedia.h">
<polygon fill="white" stroke="black" points="190,-224.5 190,-243.5 316,-243.5 316,-224.5 190,-224.5"/>
<text text-anchor="middle" x="253" y="-231.5" font-family="Helvetica,sans-Serif" font-size="10.00">sdEntityExtensionMedia.h</text>
</a>
</g>
</g>
<!-- Node1&#45;&gt;Node13 -->
<g id="edge26" class="edge"><title>Node1&#45;&gt;Node13</title>
<path fill="none" stroke="midnightblue" d="M386.637,-392.96C368.464,-384.184 346.405,-371.586 330,-356 297.634,-325.25 272.834,-278.219 260.879,-252.797"/>
<polygon fill="midnightblue" stroke="midnightblue" points="264.023,-251.258 256.682,-243.618 257.657,-254.168 264.023,-251.258"/>
</g>
<!-- Node14 -->
<g id="node14" class="node"><title>Node14</title>
<g id="a_node14"><a xlink:href="sd_info_8h.html" target="_top" xlink:title="sdInfo.h">
<polygon fill="white" stroke="black" points="122,-224.5 122,-243.5 172,-243.5 172,-224.5 122,-224.5"/>
<text text-anchor="middle" x="147" y="-231.5" font-family="Helvetica,sans-Serif" font-size="10.00">sdInfo.h</text>
</a>
</g>
</g>
<!-- Node1&#45;&gt;Node14 -->
<g id="edge30" class="edge"><title>Node1&#45;&gt;Node14</title>
<path fill="none" stroke="midnightblue" d="M384.544,-392.971C362.262,-383.61 333.249,-370.407 309,-356 253.48,-323.013 194.095,-274.949 165.073,-250.513"/>
<polygon fill="midnightblue" stroke="midnightblue" points="166.968,-247.531 157.078,-243.731 162.439,-252.869 166.968,-247.531"/>
</g>
<!-- Node15 -->
<g id="node15" class="node"><title>Node15</title>
<g id="a_node15"><a xlink:href="sd_loader_8h.html" target="_top" xlink:title="sdLoader.h">
<polygon fill="white" stroke="black" points="524,-336.5 524,-355.5 588,-355.5 588,-336.5 524,-336.5"/>
<text text-anchor="middle" x="556" y="-343.5" font-family="Helvetica,sans-Serif" font-size="10.00">sdLoader.h</text>
</a>
</g>
</g>
<!-- Node1&#45;&gt;Node15 -->
<g id="edge35" class="edge"><title>Node1&#45;&gt;Node15</title>
<path fill="none" stroke="midnightblue" d="M451.886,-392.933C474.728,-382.855 505.23,-369.399 527.31,-359.657"/>
<polygon fill="midnightblue" stroke="midnightblue" points="528.77,-362.839 536.507,-355.6 525.945,-356.434 528.77,-362.839"/>
</g>
<!-- Node16 -->
<g id="node16" class="node"><title>Node16</title>
<g id="a_node16"><a xlink:href="sd_scene_8h.html" target="_top" xlink:title="sdScene.h">
<polygon fill="white" stroke="black" points="525,-280.5 525,-299.5 587,-299.5 587,-280.5 525,-280.5"/>
<text text-anchor="middle" x="556" y="-287.5" font-family="Helvetica,sans-Serif" font-size="10.00">sdScene.h</text>
</a>
</g>
</g>
<!-- Node1&#45;&gt;Node16 -->
<g id="edge50" class="edge"><title>Node1&#45;&gt;Node16</title>
<path fill="none" stroke="midnightblue" d="M436.676,-392.776C462.405,-370.831 511.571,-328.895 538.05,-306.31"/>
<polygon fill="midnightblue" stroke="midnightblue" points="540.455,-308.859 545.792,-299.707 535.912,-303.534 540.455,-308.859"/>
</g>
<!-- Node17 -->
<g id="node17" class="node"><title>Node17</title>
<g id="a_node17"><a xlink:href="sd_o_s_c_responder_8h.html" target="_top" xlink:title="sdOSCResponder.h">
<polygon fill="white" stroke="black" points="606,-336.5 606,-355.5 710,-355.5 710,-336.5 606,-336.5"/>
<text text-anchor="middle" x="658" y="-343.5" font-family="Helvetica,sans-Serif" font-size="10.00">sdOSCResponder.h</text>
</a>
</g>
</g>
<!-- Node1&#45;&gt;Node17 -->
<g id="edge44" class="edge"><title>Node1&#45;&gt;Node17</title>
<path fill="none" stroke="midnightblue" d="M475.8,-392.933C518.052,-382.281 575.277,-367.855 614.247,-358.03"/>
<polygon fill="midnightblue" stroke="midnightblue" points="615.392,-361.351 624.233,-355.513 613.681,-354.563 615.392,-361.351"/>
</g>
<!-- Node18 -->
<g id="node18" class="node"><title>Node18</title>
<g id="a_node18"><a xlink:href="sd_saver_8h.html" target="_top" xlink:title="sdSaver.h">
<polygon fill="white" stroke="black" points="728,-336.5 728,-355.5 788,-355.5 788,-336.5 728,-336.5"/>
<text text-anchor="middle" x="758" y="-343.5" font-family="Helvetica,sans-Serif" font-size="10.00">sdSaver.h</text>
</a>
</g>
</g>
<!-- Node1&#45;&gt;Node18 -->
<g id="edge47" class="edge"><title>Node1&#45;&gt;Node18</title>
<path fill="none" stroke="midnightblue" d="M477.223,-398.248C535.359,-389.13 628.216,-373.943 717.75,-356.161"/>
<polygon fill="midnightblue" stroke="midnightblue" points="718.684,-359.543 727.804,-354.15 717.311,-352.679 718.684,-359.543"/>
</g>
<!-- Node3 -->
<g id="node3" class="node"><title>Node3</title>
<polygon fill="white" stroke="#bfbfbf" points="515,-0.5 515,-19.5 553,-19.5 553,-0.5 515,-0.5"/>
<text text-anchor="middle" x="534" y="-7.5" font-family="Helvetica,sans-Serif" font-size="10.00">string</text>
</g>
<!-- Node2&#45;&gt;Node3 -->
<g id="edge2" class="edge"><title>Node2&#45;&gt;Node3</title>
<path fill="none" stroke="midnightblue" d="M409.451,-56.4435C435.439,-46.9613 477.361,-31.6657 505.292,-21.4745"/>
<polygon fill="midnightblue" stroke="midnightblue" points="506.7,-24.6866 514.894,-17.971 504.3,-18.1107 506.7,-24.6866"/>
</g>
<!-- Node4 -->
<g id="node4" class="node"><title>Node4</title>
<polygon fill="white" stroke="#bfbfbf" points="390,-0.5 390,-19.5 442,-19.5 442,-0.5 390,-0.5"/>
<text text-anchor="middle" x="416" y="-7.5" font-family="Helvetica,sans-Serif" font-size="10.00">iostream</text>
</g>
<!-- Node2&#45;&gt;Node4 -->
<g id="edge3" class="edge"><title>Node2&#45;&gt;Node4</title>
<path fill="none" stroke="midnightblue" d="M390.954,-56.083C395.104,-48.6127 401.153,-37.7244 406.267,-28.5199"/>
<polygon fill="midnightblue" stroke="midnightblue" points="409.341,-30.1924 411.138,-19.7511 403.222,-26.7929 409.341,-30.1924"/>
</g>
<!-- Node5 -->
<g id="node5" class="node"><title>Node5</title>
<polygon fill="white" stroke="#bfbfbf" points="183,-0.5 183,-19.5 233,-19.5 233,-0.5 183,-0.5"/>
<text text-anchor="middle" x="208" y="-7.5" font-family="Helvetica,sans-Serif" font-size="10.00">sstream</text>
</g>
<!-- Node2&#45;&gt;Node5 -->
<g id="edge4" class="edge"><title>Node2&#45;&gt;Node5</title>
<path fill="none" stroke="midnightblue" d="M357.795,-56.4435C326.702,-47.0106 276.644,-31.8245 243.052,-21.6337"/>
<polygon fill="midnightblue" stroke="midnightblue" points="243.78,-18.1972 233.195,-18.6433 241.748,-24.8957 243.78,-18.1972"/>
</g>
<!-- Node6&#45;&gt;Node3 -->
<g id="edge8" class="edge"><title>Node6&#45;&gt;Node3</title>
<path fill="none" stroke="midnightblue" d="M97.955,-168.139C109.951,-141.437 145.731,-63.145 156,-56 159.597,-53.4976 416.831,-24.2381 504.846,-14.2881"/>
<polygon fill="midnightblue" stroke="midnightblue" points="505.401,-17.7478 514.945,-13.1472 504.616,-10.792 505.401,-17.7478"/>
</g>
<!-- Node6&#45;&gt;Node5 -->
<g id="edge9" class="edge"><title>Node6&#45;&gt;Node5</title>
<path fill="none" stroke="midnightblue" d="M83.1987,-168.468C69.2214,-156.319 47.701,-133.16 57,-112 78.1411,-63.8929 135.724,-35.6235 173.359,-21.7469"/>
<polygon fill="midnightblue" stroke="midnightblue" points="174.665,-24.9973 182.93,-18.3678 172.335,-18.3966 174.665,-24.9973"/>
</g>
<!-- Node7 -->
<g id="node7" class="node"><title>Node7</title>
<polygon fill="white" stroke="#bfbfbf" points="274.5,-112.5 274.5,-131.5 315.5,-131.5 315.5,-112.5 274.5,-112.5"/>
<text text-anchor="middle" x="295" y="-119.5" font-family="Helvetica,sans-Serif" font-size="10.00">vector</text>
</g>
<!-- Node6&#45;&gt;Node7 -->
<g id="edge6" class="edge"><title>Node6&#45;&gt;Node7</title>
<path fill="none" stroke="midnightblue" d="M122.372,-169.378C159.861,-159.306 225.65,-141.631 264.279,-131.253"/>
<polygon fill="midnightblue" stroke="midnightblue" points="265.659,-134.507 274.408,-128.532 263.843,-127.747 265.659,-134.507"/>
</g>
<!-- Node8 -->
<g id="node8" class="node"><title>Node8</title>
<polygon fill="white" stroke="#bfbfbf" points="66,-112.5 66,-131.5 104,-131.5 104,-112.5 66,-112.5"/>
<text text-anchor="middle" x="85" y="-119.5" font-family="Helvetica,sans-Serif" font-size="10.00">ctime</text>
</g>
<!-- Node6&#45;&gt;Node8 -->
<g id="edge7" class="edge"><title>Node6&#45;&gt;Node8</title>
<path fill="none" stroke="midnightblue" d="M92.5138,-168.083C91.3212,-160.927 89.6059,-150.635 88.1152,-141.691"/>
<polygon fill="midnightblue" stroke="midnightblue" points="91.555,-141.04 86.4585,-131.751 84.6502,-142.19 91.555,-141.04"/>
</g>
<!-- Node9&#45;&gt;Node2 -->
<g id="edge14" class="edge"><title>Node9&#45;&gt;Node2</title>
<path fill="none" stroke="midnightblue" d="M462.379,-112.324C448.051,-103.822 425.987,-90.7288 409.251,-80.7975"/>
<polygon fill="midnightblue" stroke="midnightblue" points="410.97,-77.7478 400.584,-75.6545 407.398,-83.7677 410.97,-77.7478"/>
</g>
<!-- Node9&#45;&gt;Node3 -->
<g id="edge12" class="edge"><title>Node9&#45;&gt;Node3</title>
<path fill="none" stroke="midnightblue" d="M481.473,-112.368C490.796,-94.376 512.469,-52.5503 524.866,-28.6267"/>
<polygon fill="midnightblue" stroke="midnightblue" points="528.055,-30.0805 529.548,-19.5914 521.84,-26.8599 528.055,-30.0805"/>
</g>
<!-- Node9&#45;&gt;Node4 -->
<g id="edge13" class="edge"><title>Node9&#45;&gt;Node4</title>
<path fill="none" stroke="midnightblue" d="M472.213,-112.368C462.236,-94.376 439.042,-52.5503 425.775,-28.6267"/>
<polygon fill="midnightblue" stroke="midnightblue" points="428.675,-26.6393 420.764,-19.5914 422.553,-30.0342 428.675,-26.6393"/>
</g>
<!-- Node10 -->
<g id="node10" class="node"><title>Node10</title>
<polygon fill="white" stroke="#bfbfbf" points="576.5,-56.5 576.5,-75.5 605.5,-75.5 605.5,-56.5 576.5,-56.5"/>
<text text-anchor="middle" x="591" y="-63.5" font-family="Helvetica,sans-Serif" font-size="10.00">set</text>
</g>
<!-- Node9&#45;&gt;Node10 -->
<g id="edge11" class="edge"><title>Node9&#45;&gt;Node10</title>
<path fill="none" stroke="midnightblue" d="M495.064,-112.444C514.555,-103.211 545.681,-88.4667 567.167,-78.2895"/>
<polygon fill="midnightblue" stroke="midnightblue" points="568.744,-81.415 576.283,-73.971 565.748,-75.0888 568.744,-81.415"/>
</g>
<!-- Node11&#45;&gt;Node2 -->
<g id="edge18" class="edge"><title>Node11&#45;&gt;Node2</title>
<path fill="none" stroke="midnightblue" d="M552.454,-224.332C546.515,-210.739 533.372,-184.284 515,-168 487.03,-143.209 468.422,-155.05 439,-132 421.7,-118.446 406.376,-98.2793 396.711,-84.0091"/>
<polygon fill="midnightblue" stroke="midnightblue" points="399.62,-82.0614 391.214,-75.6118 393.763,-85.8954 399.62,-82.0614"/>
</g>
<!-- Node11&#45;&gt;Node3 -->
<g id="edge17" class="edge"><title>Node11&#45;&gt;Node3</title>
<path fill="none" stroke="midnightblue" d="M563.618,-224.356C586.121,-197.727 648.609,-115.177 614,-56 603.004,-37.1979 580.943,-25.6451 562.768,-18.9605"/>
<polygon fill="midnightblue" stroke="midnightblue" points="563.76,-15.6014 553.166,-15.7326 561.529,-22.2366 563.76,-15.6014"/>
</g>
<!-- Node11&#45;&gt;Node9 -->
<g id="edge19" class="edge"><title>Node11&#45;&gt;Node9</title>
<path fill="none" stroke="midnightblue" d="M557.155,-224.23C558.44,-210.962 559.065,-185.486 548,-168 538.974,-153.736 523.611,-143.175 509.479,-135.883"/>
<polygon fill="midnightblue" stroke="midnightblue" points="510.98,-132.722 500.449,-131.557 507.955,-139.034 510.98,-132.722"/>
</g>
<!-- Node11&#45;&gt;Node10 -->
<g id="edge16" class="edge"><title>Node11&#45;&gt;Node10</title>
<path fill="none" stroke="midnightblue" d="M557.955,-224.382C559.999,-215.33 563.282,-200.677 566,-188 573.768,-151.771 582.435,-109.344 587.251,-85.577"/>
<polygon fill="midnightblue" stroke="midnightblue" points="590.734,-86.0131 589.286,-75.5177 583.873,-84.6255 590.734,-86.0131"/>
</g>
<!-- Node11&#45;&gt;Node12 -->
<g id="edge20" class="edge"><title>Node11&#45;&gt;Node12</title>
<path fill="none" stroke="midnightblue" d="M539.933,-224.324C524.042,-215.743 499.493,-202.486 481.042,-192.522"/>
<polygon fill="midnightblue" stroke="midnightblue" points="482.489,-189.326 472.027,-187.655 479.163,-195.486 482.489,-189.326"/>
</g>
<!-- Node12&#45;&gt;Node2 -->
<g id="edge23" class="edge"><title>Node12&#45;&gt;Node2</title>
<path fill="none" stroke="midnightblue" d="M443.122,-168.481C431.806,-160.364 415.679,-147.159 406,-132 396.966,-117.85 391.797,-99.3668 388.987,-85.7286"/>
<polygon fill="midnightblue" stroke="midnightblue" points="392.381,-84.8264 387.149,-75.6137 385.494,-86.0785 392.381,-84.8264"/>
</g>
<!-- Node12&#45;&gt;Node3 -->
<g id="edge21" class="edge"><title>Node12&#45;&gt;Node3</title>
<path fill="none" stroke="midnightblue" d="M473.43,-168.475C487.044,-160.859 505.239,-148.378 515,-132 534.079,-99.9894 535.94,-55.1023 535.216,-29.9688"/>
<polygon fill="midnightblue" stroke="midnightblue" points="538.697,-29.4699 534.736,-19.6434 531.704,-29.7953 538.697,-29.4699"/>
</g>
<!-- Node12&#45;&gt;Node7 -->
<g id="edge22" class="edge"><title>Node12&#45;&gt;Node7</title>
<path fill="none" stroke="midnightblue" d="M430.489,-168.444C401.97,-158.878 355.813,-143.397 325.433,-133.207"/>
<polygon fill="midnightblue" stroke="midnightblue" points="326.378,-129.833 315.784,-129.971 324.152,-136.469 326.378,-129.833"/>
</g>
<!-- Node12&#45;&gt;Node9 -->
<g id="edge24" class="edge"><title>Node12&#45;&gt;Node9</title>
<path fill="none" stroke="midnightblue" d="M459.468,-168.083C462.312,-160.77 466.429,-150.181 469.96,-141.103"/>
<polygon fill="midnightblue" stroke="midnightblue" points="473.234,-142.34 473.597,-131.751 466.71,-139.803 473.234,-142.34"/>
</g>
<!-- Node13&#45;&gt;Node2 -->
<g id="edge28" class="edge"><title>Node13&#45;&gt;Node2</title>
<path fill="none" stroke="midnightblue" d="M260.151,-224.075C281.449,-197.493 344.708,-118.538 372.569,-83.7633"/>
<polygon fill="midnightblue" stroke="midnightblue" points="375.614,-85.5607 379.135,-75.5681 370.151,-81.1838 375.614,-85.5607"/>
</g>
<!-- Node13&#45;&gt;Node3 -->
<g id="edge27" class="edge"><title>Node13&#45;&gt;Node3</title>
<path fill="none" stroke="midnightblue" d="M251.52,-224.328C248.404,-203.347 243.143,-148.86 265,-112 287.509,-74.0397 306.661,-73.9012 347,-56 399.92,-32.5156 466.936,-20.2003 504.678,-14.6974"/>
<polygon fill="midnightblue" stroke="midnightblue" points="505.538,-18.1115 514.958,-13.2628 504.57,-11.1787 505.538,-18.1115"/>
</g>
<!-- Node13&#45;&gt;Node12 -->
<g id="edge29" class="edge"><title>Node13&#45;&gt;Node12</title>
<path fill="none" stroke="midnightblue" d="M285.166,-224.444C320.059,-215.162 375.893,-200.309 414.171,-190.127"/>
<polygon fill="midnightblue" stroke="midnightblue" points="415.22,-193.47 423.985,-187.516 413.421,-186.705 415.22,-193.47"/>
</g>
<!-- Node14&#45;&gt;Node2 -->
<g id="edge33" class="edge"><title>Node14&#45;&gt;Node2</title>
<path fill="none" stroke="midnightblue" d="M153.076,-224.246C168.892,-202.106 213.699,-143.408 265,-112 290.284,-96.5201 321.744,-85.0231 346.247,-77.5258"/>
<polygon fill="midnightblue" stroke="midnightblue" points="347.35,-80.8497 355.945,-74.6548 345.363,-74.1376 347.35,-80.8497"/>
</g>
<!-- Node14&#45;&gt;Node3 -->
<g id="edge31" class="edge"><title>Node14&#45;&gt;Node3</title>
<path fill="none" stroke="midnightblue" d="M149.902,-224.447C154.556,-211.464 164.55,-186.353 178,-168 221.124,-109.156 232.946,-89.0185 298,-56 333.915,-37.771 449.952,-21.4357 504.784,-14.5113"/>
<polygon fill="midnightblue" stroke="midnightblue" points="505.401,-17.9616 514.893,-13.2541 504.537,-11.0151 505.401,-17.9616"/>
</g>
<!-- Node14&#45;&gt;Node6 -->
<g id="edge34" class="edge"><title>Node14&#45;&gt;Node6</title>
<path fill="none" stroke="midnightblue" d="M138.248,-224.083C130.53,-216.22 119.095,-204.569 109.783,-195.081"/>
<polygon fill="midnightblue" stroke="midnightblue" points="112.092,-192.436 102.589,-187.751 107.096,-197.34 112.092,-192.436"/>
</g>
<!-- Node14&#45;&gt;Node7 -->
<g id="edge32" class="edge"><title>Node14&#45;&gt;Node7</title>
<path fill="none" stroke="midnightblue" d="M158.613,-224.368C183.794,-205.653 243.67,-161.151 275.044,-137.832"/>
<polygon fill="midnightblue" stroke="midnightblue" points="277.503,-140.366 283.441,-131.591 273.327,-134.748 277.503,-140.366"/>
</g>
<!-- Node15&#45;&gt;Node3 -->
<g id="edge36" class="edge"><title>Node15&#45;&gt;Node3</title>
<path fill="none" stroke="midnightblue" d="M584.211,-336.391C640.63,-318.326 762,-274.834 762,-235 762,-235 762,-235 762,-121 762,-33.7267 624.813,-15.661 563.268,-11.9475"/>
<polygon fill="midnightblue" stroke="midnightblue" points="563.214,-8.44017 553.047,-11.422 562.854,-15.4309 563.214,-8.44017"/>
</g>
<!-- Node15&#45;&gt;Node16 -->
<g id="edge37" class="edge"><title>Node15&#45;&gt;Node16</title>
<path fill="none" stroke="midnightblue" d="M556,-336.083C556,-329.006 556,-318.861 556,-309.986"/>
<polygon fill="midnightblue" stroke="midnightblue" points="559.5,-309.751 556,-299.751 552.5,-309.751 559.5,-309.751"/>
</g>
<!-- Node16&#45;&gt;Node2 -->
<g id="edge40" class="edge"><title>Node16&#45;&gt;Node2</title>
<path fill="none" stroke="midnightblue" d="M570.37,-280.33C581.88,-272.469 597.189,-259.722 604,-244 619.013,-209.348 589.376,-197.66 566,-168 545.163,-141.561 543.087,-130.557 515,-112 487.8,-94.029 452.624,-82.3837 425.875,-75.4518"/>
<polygon fill="midnightblue" stroke="midnightblue" points="426.619,-72.0303 416.071,-73.0225 424.935,-78.8249 426.619,-72.0303"/>
</g>
<!-- Node16&#45;&gt;Node3 -->
<g id="edge38" class="edge"><title>Node16&#45;&gt;Node3</title>
<path fill="none" stroke="midnightblue" d="M587.206,-283.281C635.79,-272.376 724,-243.67 724,-179 724,-179 724,-179 724,-121 724,-47.7212 616.841,-22.4671 563.475,-14.4339"/>
<polygon fill="midnightblue" stroke="midnightblue" points="563.652,-10.9247 553.264,-13.0087 562.684,-17.8575 563.652,-10.9247"/>
</g>
<!-- Node16&#45;&gt;Node7 -->
<g id="edge39" class="edge"><title>Node16&#45;&gt;Node7</title>
<path fill="none" stroke="midnightblue" d="M542.384,-280.36C514.895,-262.915 450.803,-222.232 397,-188 369.499,-170.503 337.847,-150.327 317.189,-137.153"/>
<polygon fill="midnightblue" stroke="midnightblue" points="318.839,-134.054 308.525,-131.628 315.075,-139.956 318.839,-134.054"/>
</g>
<!-- Node16&#45;&gt;Node11 -->
<g id="edge42" class="edge"><title>Node16&#45;&gt;Node11</title>
<path fill="none" stroke="midnightblue" d="M556,-280.083C556,-273.006 556,-262.861 556,-253.986"/>
<polygon fill="midnightblue" stroke="midnightblue" points="559.5,-253.751 556,-243.751 552.5,-253.751 559.5,-253.751"/>
</g>
<!-- Node16&#45;&gt;Node12 -->
<g id="edge43" class="edge"><title>Node16&#45;&gt;Node12</title>
<path fill="none" stroke="midnightblue" d="M546.047,-280.423C536.055,-271.643 520.407,-257.42 508,-244 493.652,-228.481 478.727,-209.479 468.566,-196.039"/>
<polygon fill="midnightblue" stroke="midnightblue" points="471.149,-193.649 462.359,-187.735 465.542,-197.84 471.149,-193.649"/>
</g>
<!-- Node16&#45;&gt;Node14 -->
<g id="edge41" class="edge"><title>Node16&#45;&gt;Node14</title>
<path fill="none" stroke="midnightblue" d="M524.66,-286.724C461.567,-281.825 314.635,-268.815 182.084,-243.966"/>
<polygon fill="midnightblue" stroke="midnightblue" points="182.639,-240.509 172.161,-242.078 181.331,-247.386 182.639,-240.509"/>
</g>
<!-- Node17&#45;&gt;Node3 -->
<g id="edge46" class="edge"><title>Node17&#45;&gt;Node3</title>
<path fill="none" stroke="midnightblue" d="M688.463,-336.398C730.187,-322.535 800,-290.976 800,-235 800,-235 800,-235 800,-121 800,-19.4875 632.52,-9.81433 563.347,-10.1483"/>
<polygon fill="midnightblue" stroke="midnightblue" points="563.086,-6.6512 553.13,-10.2753 563.173,-13.6507 563.086,-6.6512"/>
</g>
<!-- Node17&#45;&gt;Node16 -->
<g id="edge45" class="edge"><title>Node17&#45;&gt;Node16</title>
<path fill="none" stroke="midnightblue" d="M641.612,-336.324C625.329,-327.703 600.133,-314.364 581.284,-304.386"/>
<polygon fill="midnightblue" stroke="midnightblue" points="582.823,-301.24 572.347,-299.655 579.548,-307.427 582.823,-301.24"/>
</g>
<!-- Node18&#45;&gt;Node3 -->
<g id="edge48" class="edge"><title>Node18&#45;&gt;Node3</title>
<path fill="none" stroke="midnightblue" d="M770.5,-336.313C793,-319.544 838,-280.338 838,-235 838,-235 838,-235 838,-121 838,-85.3501 821.223,-74.9079 791,-56 753.313,-32.4221 622.333,-18.5456 563.277,-13.3546"/>
<polygon fill="midnightblue" stroke="midnightblue" points="563.388,-9.85138 553.126,-12.4861 562.791,-16.8259 563.388,-9.85138"/>
</g>
<!-- Node18&#45;&gt;Node16 -->
<g id="edge49" class="edge"><title>Node18&#45;&gt;Node16</title>
<path fill="none" stroke="midnightblue" d="M727.759,-336.916C693.003,-327.625 635.784,-312.328 597.03,-301.969"/>
<polygon fill="midnightblue" stroke="midnightblue" points="597.678,-298.519 587.113,-299.317 595.87,-305.281 597.678,-298.519"/>
</g>
</g>
</svg>
