<?xml version="1.0" encoding="UTF-8" standalone="no"?>
<!DOCTYPE svg PUBLIC "-//W3C//DTD SVG 1.1//EN"
 "http://www.w3.org/Graphics/SVG/1.1/DTD/svg11.dtd">
<!-- Generated by graphviz version 2.34.0 (20131206.1153)
 -->
<!-- Title: /Users/lossius/dev/spatdiflib/src/sdOSCResponder.h Pages: 1 -->
<svg width="550pt" height="376pt"
 viewBox="0.00 0.00 550.00 376.00" xmlns="http://www.w3.org/2000/svg" xmlns:xlink="http://www.w3.org/1999/xlink">
<g id="graph0" class="graph" transform="scale(1 1) rotate(0) translate(4 372)">
<title>/Users/lossius/dev/spatdiflib/src/sdOSCResponder.h</title>
<polygon fill="white" stroke="white" points="-4,4 -4,-372 546,-372 546,4 -4,4"/>
<!-- Node1 -->
<g id="node1" class="node"><title>Node1</title>
<polygon fill="#bfbfbf" stroke="black" points="320.5,-337 320.5,-367 483.5,-367 483.5,-337 320.5,-337"/>
<text text-anchor="start" x="328.5" y="-355" font-family="Helvetica,sans-Serif" font-size="10.00">/Users/lossius/dev</text>
<text text-anchor="middle" x="402" y="-344" font-family="Helvetica,sans-Serif" font-size="10.00">/spatdiflib/src/sdOSCResponder.h</text>
</g>
<!-- Node2 -->
<g id="node2" class="node"><title>Node2</title>
<g id="a_node2"><a xlink:href="sd_scene_8h.html" target="_top" xlink:title="sdScene.h">
<polygon fill="white" stroke="black" points="232,-280.5 232,-299.5 294,-299.5 294,-280.5 232,-280.5"/>
<text text-anchor="middle" x="263" y="-287.5" font-family="Helvetica,sans-Serif" font-size="10.00">sdScene.h</text>
</a>
</g>
</g>
<!-- Node1&#45;&gt;Node2 -->
<g id="edge1" class="edge"><title>Node1&#45;&gt;Node2</title>
<path fill="none" stroke="midnightblue" d="M369.411,-336.933C346.064,-326.855 314.89,-313.399 292.323,-303.657"/>
<polygon fill="midnightblue" stroke="midnightblue" points="293.492,-300.35 282.923,-299.6 290.717,-306.777 293.492,-300.35"/>
</g>
<!-- Node3 -->
<g id="node3" class="node"><title>Node3</title>
<polygon fill="white" stroke="#bfbfbf" points="354,-0.5 354,-19.5 392,-19.5 392,-0.5 354,-0.5"/>
<text text-anchor="middle" x="373" y="-7.5" font-family="Helvetica,sans-Serif" font-size="10.00">string</text>
</g>
<!-- Node1&#45;&gt;Node3 -->
<g id="edge32" class="edge"><title>Node1&#45;&gt;Node3</title>
<path fill="none" stroke="midnightblue" d="M443.247,-336.88C484.544,-319.813 542,-286.766 542,-235 542,-235 542,-235 542,-121 542,-54.955 450.219,-26.5135 401.931,-16.1202"/>
<polygon fill="midnightblue" stroke="midnightblue" points="402.554,-12.6754 392.058,-14.1162 401.162,-19.5355 402.554,-12.6754"/>
</g>
<!-- Node2&#45;&gt;Node3 -->
<g id="edge2" class="edge"><title>Node2&#45;&gt;Node3</title>
<path fill="none" stroke="midnightblue" d="M294.013,-288.662C359.103,-286.147 504,-270.295 504,-179 504,-179 504,-179 504,-121 504,-67.9764 440.278,-35.4078 401.719,-20.5539"/>
<polygon fill="midnightblue" stroke="midnightblue" points="402.642,-17.1639 392.049,-16.9942 400.224,-23.7331 402.642,-17.1639"/>
</g>
<!-- Node4 -->
<g id="node4" class="node"><title>Node4</title>
<polygon fill="white" stroke="#bfbfbf" points="35.5,-0.5 35.5,-19.5 76.5,-19.5 76.5,-0.5 35.5,-0.5"/>
<text text-anchor="middle" x="56" y="-7.5" font-family="Helvetica,sans-Serif" font-size="10.00">vector</text>
</g>
<!-- Node2&#45;&gt;Node4 -->
<g id="edge3" class="edge"><title>Node2&#45;&gt;Node4</title>
<path fill="none" stroke="midnightblue" d="M231.798,-289.725C162.132,-289.557 0,-278.48 0,-179 0,-179 0,-179 0,-121 0,-84.4358 24.8767,-47.747 41.4693,-27.3424"/>
<polygon fill="midnightblue" stroke="midnightblue" points="44.195,-29.5395 47.9766,-19.6425 38.8486,-25.0212 44.195,-29.5395"/>
</g>
<!-- Node5 -->
<g id="node5" class="node"><title>Node5</title>
<g id="a_node5"><a xlink:href="sd_const_8h.html" target="_top" xlink:title="sdConst.h">
<polygon fill="white" stroke="black" points="216,-56.5 216,-75.5 276,-75.5 276,-56.5 216,-56.5"/>
<text text-anchor="middle" x="246" y="-63.5" font-family="Helvetica,sans-Serif" font-size="10.00">sdConst.h</text>
</a>
</g>
</g>
<!-- Node2&#45;&gt;Node5 -->
<g id="edge4" class="edge"><title>Node2&#45;&gt;Node5</title>
<path fill="none" stroke="midnightblue" d="M255.691,-280.275C242.281,-263.63 214.187,-225.636 204,-188 193.787,-150.27 217.402,-107.305 233.204,-84.0832"/>
<polygon fill="midnightblue" stroke="midnightblue" points="236.24,-85.8528 239.182,-75.6744 230.535,-81.7969 236.24,-85.8528"/>
</g>
<!-- Node8 -->
<g id="node8" class="node"><title>Node8</title>
<g id="a_node8"><a xlink:href="sd_info_8h.html" target="_top" xlink:title="sdInfo.h">
<polygon fill="white" stroke="black" points="107,-112.5 107,-131.5 157,-131.5 157,-112.5 107,-112.5"/>
<text text-anchor="middle" x="132" y="-119.5" font-family="Helvetica,sans-Serif" font-size="10.00">sdInfo.h</text>
</a>
</g>
</g>
<!-- Node2&#45;&gt;Node8 -->
<g id="edge8" class="edge"><title>Node2&#45;&gt;Node8</title>
<path fill="none" stroke="midnightblue" d="M231.743,-280.655C211.808,-273.835 186.833,-262.278 171,-244 145.32,-214.355 136.5,-167.562 133.506,-141.713"/>
<polygon fill="midnightblue" stroke="midnightblue" points="136.987,-141.346 132.525,-131.737 130.021,-142.031 136.987,-141.346"/>
</g>
<!-- Node11 -->
<g id="node11" class="node"><title>Node11</title>
<g id="a_node11"><a xlink:href="sd_entity_core_8h.html" target="_top" xlink:title="sdEntityCore.h">
<polygon fill="white" stroke="black" points="321,-224.5 321,-243.5 399,-243.5 399,-224.5 321,-224.5"/>
<text text-anchor="middle" x="360" y="-231.5" font-family="Helvetica,sans-Serif" font-size="10.00">sdEntityCore.h</text>
</a>
</g>
</g>
<!-- Node2&#45;&gt;Node11 -->
<g id="edge17" class="edge"><title>Node2&#45;&gt;Node11</title>
<path fill="none" stroke="midnightblue" d="M278.585,-280.324C293.999,-271.743 317.812,-258.486 335.71,-248.522"/>
<polygon fill="midnightblue" stroke="midnightblue" points="337.419,-251.577 344.454,-243.655 334.014,-245.461 337.419,-251.577"/>
</g>
<!-- Node14 -->
<g id="node14" class="node"><title>Node14</title>
<g id="a_node14"><a xlink:href="sd_entity_extension_8h.html" target="_top" xlink:title="sdEntityExtension.h">
<polygon fill="white" stroke="black" points="213,-168.5 213,-187.5 313,-187.5 313,-168.5 213,-168.5"/>
<text text-anchor="middle" x="263" y="-175.5" font-family="Helvetica,sans-Serif" font-size="10.00">sdEntityExtension.h</text>
</a>
</g>
</g>
<!-- Node2&#45;&gt;Node14 -->
<g id="edge31" class="edge"><title>Node2&#45;&gt;Node14</title>
<path fill="none" stroke="midnightblue" d="M263,-280.368C263,-262.617 263,-221.666 263,-197.597"/>
<polygon fill="midnightblue" stroke="midnightblue" points="266.5,-197.591 263,-187.591 259.5,-197.591 266.5,-197.591"/>
</g>
<!-- Node5&#45;&gt;Node3 -->
<g id="edge5" class="edge"><title>Node5&#45;&gt;Node3</title>
<path fill="none" stroke="midnightblue" d="M266.124,-56.4435C287.27,-47.452 320.711,-33.2332 344.552,-23.0962"/>
<polygon fill="midnightblue" stroke="midnightblue" points="345.969,-26.2969 353.802,-19.1629 343.23,-19.855 345.969,-26.2969"/>
</g>
<!-- Node6 -->
<g id="node6" class="node"><title>Node6</title>
<polygon fill="white" stroke="#bfbfbf" points="277,-0.5 277,-19.5 329,-19.5 329,-0.5 277,-0.5"/>
<text text-anchor="middle" x="303" y="-7.5" font-family="Helvetica,sans-Serif" font-size="10.00">iostream</text>
</g>
<!-- Node5&#45;&gt;Node6 -->
<g id="edge6" class="edge"><title>Node5&#45;&gt;Node6</title>
<path fill="none" stroke="midnightblue" d="M255.158,-56.324C263.501,-48.4196 276.032,-36.5482 286.177,-26.9377"/>
<polygon fill="midnightblue" stroke="midnightblue" points="288.823,-29.2522 293.675,-19.8339 284.009,-24.1705 288.823,-29.2522"/>
</g>
<!-- Node7 -->
<g id="node7" class="node"><title>Node7</title>
<polygon fill="white" stroke="#bfbfbf" points="195,-0.5 195,-19.5 245,-19.5 245,-0.5 195,-0.5"/>
<text text-anchor="middle" x="220" y="-7.5" font-family="Helvetica,sans-Serif" font-size="10.00">sstream</text>
</g>
<!-- Node5&#45;&gt;Node7 -->
<g id="edge7" class="edge"><title>Node5&#45;&gt;Node7</title>
<path fill="none" stroke="midnightblue" d="M241.707,-56.083C238.148,-48.6913 232.978,-37.9533 228.576,-28.8111"/>
<polygon fill="midnightblue" stroke="midnightblue" points="231.705,-27.2427 224.213,-19.7511 225.398,-30.2795 231.705,-27.2427"/>
</g>
<!-- Node8&#45;&gt;Node3 -->
<g id="edge9" class="edge"><title>Node8&#45;&gt;Node3</title>
<path fill="none" stroke="midnightblue" d="M139.411,-112.457C151.939,-98.5523 178.714,-71.0661 207,-56 213.141,-52.7293 298.349,-30.3636 344.225,-18.4443"/>
<polygon fill="midnightblue" stroke="midnightblue" points="345.107,-21.8314 353.908,-15.932 343.349,-15.0557 345.107,-21.8314"/>
</g>
<!-- Node8&#45;&gt;Node4 -->
<g id="edge10" class="edge"><title>Node8&#45;&gt;Node4</title>
<path fill="none" stroke="midnightblue" d="M124.228,-112.341C116.449,-103.496 104.327,-89.2244 95,-76 84.1201,-60.5743 73.1886,-42.0287 65.679,-28.7021"/>
<polygon fill="midnightblue" stroke="midnightblue" points="68.576,-26.7095 60.6609,-19.6666 62.4564,-30.1082 68.576,-26.7095"/>
</g>
<!-- Node8&#45;&gt;Node5 -->
<g id="edge11" class="edge"><title>Node8&#45;&gt;Node5</title>
<path fill="none" stroke="midnightblue" d="M150.064,-112.444C168.575,-103.675 197.581,-89.9355 218.855,-79.8579"/>
<polygon fill="midnightblue" stroke="midnightblue" points="220.482,-82.9604 228.021,-75.5164 217.485,-76.6343 220.482,-82.9604"/>
</g>
<!-- Node9 -->
<g id="node9" class="node"><title>Node9</title>
<g id="a_node9"><a xlink:href="sd_date_8h.html" target="_top" xlink:title="sdDate.h">
<polygon fill="white" stroke="black" points="104,-56.5 104,-75.5 160,-75.5 160,-56.5 104,-56.5"/>
<text text-anchor="middle" x="132" y="-63.5" font-family="Helvetica,sans-Serif" font-size="10.00">sdDate.h</text>
</a>
</g>
</g>
<!-- Node8&#45;&gt;Node9 -->
<g id="edge12" class="edge"><title>Node8&#45;&gt;Node9</title>
<path fill="none" stroke="midnightblue" d="M132,-112.083C132,-105.006 132,-94.8611 132,-85.9865"/>
<polygon fill="midnightblue" stroke="midnightblue" points="135.5,-85.751 132,-75.7511 128.5,-85.7511 135.5,-85.751"/>
</g>
<!-- Node9&#45;&gt;Node3 -->
<g id="edge15" class="edge"><title>Node9&#45;&gt;Node3</title>
<path fill="none" stroke="midnightblue" d="M160.165,-58.9076C212.457,-47.5874 320.816,-24.0849 338,-20 339.923,-19.5429 341.902,-19.0621 343.895,-18.5702"/>
<polygon fill="midnightblue" stroke="midnightblue" points="344.935,-21.9177 353.776,-16.0783 343.223,-15.1302 344.935,-21.9177"/>
</g>
<!-- Node9&#45;&gt;Node4 -->
<g id="edge13" class="edge"><title>Node9&#45;&gt;Node4</title>
<path fill="none" stroke="midnightblue" d="M119.789,-56.324C108.224,-48.1066 90.6246,-35.6017 76.8393,-25.8069"/>
<polygon fill="midnightblue" stroke="midnightblue" points="78.612,-22.7729 68.4329,-19.8339 74.5575,-28.4791 78.612,-22.7729"/>
</g>
<!-- Node9&#45;&gt;Node7 -->
<g id="edge16" class="edge"><title>Node9&#45;&gt;Node7</title>
<path fill="none" stroke="midnightblue" d="M146.139,-56.324C159.866,-47.9002 180.936,-34.9709 197.064,-25.0741"/>
<polygon fill="midnightblue" stroke="midnightblue" points="199.204,-27.8678 205.896,-19.6545 195.543,-21.9016 199.204,-27.8678"/>
</g>
<!-- Node10 -->
<g id="node10" class="node"><title>Node10</title>
<polygon fill="white" stroke="#bfbfbf" points="113,-0.5 113,-19.5 151,-19.5 151,-0.5 113,-0.5"/>
<text text-anchor="middle" x="132" y="-7.5" font-family="Helvetica,sans-Serif" font-size="10.00">ctime</text>
</g>
<!-- Node9&#45;&gt;Node10 -->
<g id="edge14" class="edge"><title>Node9&#45;&gt;Node10</title>
<path fill="none" stroke="midnightblue" d="M132,-56.083C132,-49.0059 132,-38.8611 132,-29.9865"/>
<polygon fill="midnightblue" stroke="midnightblue" points="135.5,-29.751 132,-19.7511 128.5,-29.7511 135.5,-29.751"/>
</g>
<!-- Node11&#45;&gt;Node3 -->
<g id="edge19" class="edge"><title>Node11&#45;&gt;Node3</title>
<path fill="none" stroke="midnightblue" d="M368.711,-224.309C377.027,-215.667 389.513,-201.747 398,-188 426.449,-141.917 435.111,-129.051 446,-76 447.787,-67.2926 450.333,-63.7612 446,-56 436.564,-39.0987 417.883,-27.7578 401.782,-20.6887"/>
<polygon fill="midnightblue" stroke="midnightblue" points="402.779,-17.3172 392.196,-16.8277 400.164,-23.8103 402.779,-17.3172"/>
</g>
<!-- Node11&#45;&gt;Node5 -->
<g id="edge20" class="edge"><title>Node11&#45;&gt;Node5</title>
<path fill="none" stroke="midnightblue" d="M355.387,-224.395C348.525,-211.766 335.033,-187.59 322,-168 301.551,-137.263 275.157,-103.306 259.463,-83.6355"/>
<polygon fill="midnightblue" stroke="midnightblue" points="262.054,-81.2728 253.065,-75.6659 256.596,-85.6551 262.054,-81.2728"/>
</g>
<!-- Node12 -->
<g id="node12" class="node"><title>Node12</title>
<polygon fill="white" stroke="#bfbfbf" points="408.5,-56.5 408.5,-75.5 437.5,-75.5 437.5,-56.5 408.5,-56.5"/>
<text text-anchor="middle" x="423" y="-63.5" font-family="Helvetica,sans-Serif" font-size="10.00">set</text>
</g>
<!-- Node11&#45;&gt;Node12 -->
<g id="edge18" class="edge"><title>Node11&#45;&gt;Node12</title>
<path fill="none" stroke="midnightblue" d="M363.835,-224.447C371.525,-207.16 389.188,-166.744 402,-132 407.706,-116.527 413.409,-98.6841 417.429,-85.6117"/>
<polygon fill="midnightblue" stroke="midnightblue" points="420.819,-86.4952 420.373,-75.9097 414.12,-84.4626 420.819,-86.4952"/>
</g>
<!-- Node13 -->
<g id="node13" class="node"><title>Node13</title>
<g id="a_node13"><a xlink:href="sd_entity_8h.html" target="_top" xlink:title="sdEntity.h">
<polygon fill="white" stroke="black" points="335,-112.5 335,-131.5 393,-131.5 393,-112.5 335,-112.5"/>
<text text-anchor="middle" x="364" y="-119.5" font-family="Helvetica,sans-Serif" font-size="10.00">sdEntity.h</text>
</a>
</g>
</g>
<!-- Node11&#45;&gt;Node13 -->
<g id="edge21" class="edge"><title>Node11&#45;&gt;Node13</title>
<path fill="none" stroke="midnightblue" d="M360.314,-224.368C360.959,-206.617 362.448,-165.666 363.324,-141.597"/>
<polygon fill="midnightblue" stroke="midnightblue" points="366.822,-141.712 363.688,-131.591 359.826,-141.458 366.822,-141.712"/>
</g>
<!-- Node11&#45;&gt;Node14 -->
<g id="edge26" class="edge"><title>Node11&#45;&gt;Node14</title>
<path fill="none" stroke="midnightblue" d="M344.415,-224.324C329.001,-215.743 305.188,-202.486 287.29,-192.522"/>
<polygon fill="midnightblue" stroke="midnightblue" points="288.986,-189.461 278.546,-187.655 285.581,-195.577 288.986,-189.461"/>
</g>
<!-- Node13&#45;&gt;Node3 -->
<g id="edge23" class="edge"><title>Node13&#45;&gt;Node3</title>
<path fill="none" stroke="midnightblue" d="M364.706,-112.368C366.159,-94.617 369.509,-53.6664 371.478,-29.5974"/>
<polygon fill="midnightblue" stroke="midnightblue" points="374.97,-29.8436 372.297,-19.5914 367.993,-29.2727 374.97,-29.8436"/>
</g>
<!-- Node13&#45;&gt;Node5 -->
<g id="edge25" class="edge"><title>Node13&#45;&gt;Node5</title>
<path fill="none" stroke="midnightblue" d="M345.303,-112.444C326.056,-103.636 295.848,-89.8116 273.8,-79.722"/>
<polygon fill="midnightblue" stroke="midnightblue" points="275.16,-76.4951 264.61,-75.5164 272.247,-82.8603 275.16,-76.4951"/>
</g>
<!-- Node13&#45;&gt;Node6 -->
<g id="edge24" class="edge"><title>Node13&#45;&gt;Node6</title>
<path fill="none" stroke="midnightblue" d="M359.213,-112.368C349.236,-94.376 326.042,-52.5503 312.775,-28.6267"/>
<polygon fill="midnightblue" stroke="midnightblue" points="315.675,-26.6393 307.764,-19.5914 309.553,-30.0342 315.675,-26.6393"/>
</g>
<!-- Node13&#45;&gt;Node12 -->
<g id="edge22" class="edge"><title>Node13&#45;&gt;Node12</title>
<path fill="none" stroke="midnightblue" d="M373.479,-112.324C382.201,-104.341 395.343,-92.3128 405.898,-82.6529"/>
<polygon fill="midnightblue" stroke="midnightblue" points="408.334,-85.1674 413.348,-75.8339 403.608,-80.0036 408.334,-85.1674"/>
</g>
<!-- Node14&#45;&gt;Node3 -->
<g id="edge27" class="edge"><title>Node14&#45;&gt;Node3</title>
<path fill="none" stroke="midnightblue" d="M268.914,-168.075C286.454,-141.606 338.404,-63.2089 361.596,-28.2097"/>
<polygon fill="midnightblue" stroke="midnightblue" points="364.716,-29.8374 367.322,-19.5681 358.881,-25.9707 364.716,-29.8374"/>
</g>
<!-- Node14&#45;&gt;Node4 -->
<g id="edge28" class="edge"><title>Node14&#45;&gt;Node4</title>
<path fill="none" stroke="midnightblue" d="M212.69,-175.341C176.539,-171.558 128.916,-160.887 98,-132 68.9857,-104.89 60.013,-56.725 57.2396,-30.0701"/>
<polygon fill="midnightblue" stroke="midnightblue" points="60.7004,-29.4577 56.3708,-19.7879 53.7253,-30.0471 60.7004,-29.4577"/>
</g>
<!-- Node14&#45;&gt;Node5 -->
<g id="edge29" class="edge"><title>Node14&#45;&gt;Node5</title>
<path fill="none" stroke="midnightblue" d="M261.082,-168.408C259.113,-159.378 256.055,-144.742 254,-132 251.507,-116.547 249.382,-98.9158 247.95,-85.9187"/>
<polygon fill="midnightblue" stroke="midnightblue" points="251.418,-85.4338 246.878,-75.8611 244.457,-86.1757 251.418,-85.4338"/>
</g>
<!-- Node14&#45;&gt;Node13 -->
<g id="edge30" class="edge"><title>Node14&#45;&gt;Node13</title>
<path fill="none" stroke="midnightblue" d="M279.227,-168.324C295.351,-159.703 320.3,-146.364 338.964,-136.386"/>
<polygon fill="midnightblue" stroke="midnightblue" points="340.644,-139.456 347.813,-131.655 337.344,-133.283 340.644,-139.456"/>
</g>
</g>
</svg>
