<?xml version="1.0" encoding="UTF-8" standalone="no"?>
<!DOCTYPE svg PUBLIC "-//W3C//DTD SVG 1.1//EN"
 "http://www.w3.org/Graphics/SVG/1.1/DTD/svg11.dtd">
<!-- Generated by graphviz version 2.34.0 (20131206.1153)
 -->
<!-- Title: /Users/lossius/dev/spatdiflib/src/sdOSCResponder.cpp Pages: 1 -->
<svg width="728pt" height="432pt"
 viewBox="0.00 0.00 728.00 432.00" xmlns="http://www.w3.org/2000/svg" xmlns:xlink="http://www.w3.org/1999/xlink">
<g id="graph0" class="graph" transform="scale(1 1) rotate(0) translate(4 428)">
<title>/Users/lossius/dev/spatdiflib/src/sdOSCResponder.cpp</title>
<polygon fill="white" stroke="white" points="-4,4 -4,-428 724,-428 724,4 -4,4"/>
<!-- Node1 -->
<g id="node1" class="node"><title>Node1</title>
<polygon fill="#bfbfbf" stroke="black" points="546,-393 546,-423 720,-423 720,-393 546,-393"/>
<text text-anchor="start" x="554" y="-411" font-family="Helvetica,sans-Serif" font-size="10.00">/Users/lossius/dev</text>
<text text-anchor="middle" x="633" y="-400" font-family="Helvetica,sans-Serif" font-size="10.00">/spatdiflib/src/sdOSCResponder.cpp</text>
</g>
<!-- Node2 -->
<g id="node2" class="node"><title>Node2</title>
<g id="a_node2"><a xlink:href="sd_const_8h.html" target="_top" xlink:title="sdConst.h">
<polygon fill="white" stroke="black" points="278,-56.5 278,-75.5 338,-75.5 338,-56.5 278,-56.5"/>
<text text-anchor="middle" x="308" y="-63.5" font-family="Helvetica,sans-Serif" font-size="10.00">sdConst.h</text>
</a>
</g>
</g>
<!-- Node1&#45;&gt;Node2 -->
<g id="edge1" class="edge"><title>Node1&#45;&gt;Node2</title>
<path fill="none" stroke="midnightblue" d="M636.845,-392.836C642.397,-371.102 652,-328.141 652,-291 652,-291 652,-291 652,-177 652,-146.775 655.017,-131.591 632,-112 590.025,-76.2739 425.412,-68.8541 348.283,-67.3545"/>
<polygon fill="midnightblue" stroke="midnightblue" points="348.06,-63.8503 338.002,-67.1798 347.942,-70.8493 348.06,-63.8503"/>
</g>
<!-- Node5 -->
<g id="node5" class="node"><title>Node5</title>
<polygon fill="white" stroke="#bfbfbf" points="529,-0.5 529,-19.5 579,-19.5 579,-0.5 529,-0.5"/>
<text text-anchor="middle" x="554" y="-7.5" font-family="Helvetica,sans-Serif" font-size="10.00">sstream</text>
</g>
<!-- Node1&#45;&gt;Node5 -->
<g id="edge36" class="edge"><title>Node1&#45;&gt;Node5</title>
<path fill="none" stroke="midnightblue" d="M645.368,-392.731C662.132,-371.875 690,-331.166 690,-291 690,-291 690,-291 690,-121 690,-68.9591 629.056,-37.2993 588.762,-22.0542"/>
<polygon fill="midnightblue" stroke="midnightblue" points="589.856,-18.728 579.262,-18.6157 587.474,-25.3102 589.856,-18.728"/>
</g>
<!-- Node6 -->
<g id="node6" class="node"><title>Node6</title>
<g id="a_node6"><a xlink:href="sd_o_s_c_responder_8h.html" target="_top" xlink:title="sdOSCResponder.h">
<polygon fill="white" stroke="black" points="265,-336.5 265,-355.5 369,-355.5 369,-336.5 265,-336.5"/>
<text text-anchor="middle" x="317" y="-343.5" font-family="Helvetica,sans-Serif" font-size="10.00">sdOSCResponder.h</text>
</a>
</g>
</g>
<!-- Node1&#45;&gt;Node6 -->
<g id="edge5" class="edge"><title>Node1&#45;&gt;Node6</title>
<path fill="none" stroke="midnightblue" d="M558.912,-392.933C501.62,-382.054 423.592,-367.239 371.823,-357.409"/>
<polygon fill="midnightblue" stroke="midnightblue" points="372.311,-353.94 361.834,-355.513 371.005,-360.817 372.311,-353.94"/>
</g>
<!-- Node8 -->
<g id="node8" class="node"><title>Node8</title>
<polygon fill="white" stroke="#bfbfbf" points="582.5,-112.5 582.5,-131.5 623.5,-131.5 623.5,-112.5 582.5,-112.5"/>
<text text-anchor="middle" x="603" y="-119.5" font-family="Helvetica,sans-Serif" font-size="10.00">vector</text>
</g>
<!-- Node1&#45;&gt;Node8 -->
<g id="edge35" class="edge"><title>Node1&#45;&gt;Node8</title>
<path fill="none" stroke="midnightblue" d="M629.155,-392.836C623.603,-371.102 614,-328.141 614,-291 614,-291 614,-291 614,-233 614,-200.788 609.272,-163.532 606.015,-141.692"/>
<polygon fill="midnightblue" stroke="midnightblue" points="609.43,-140.874 604.438,-131.529 602.513,-141.947 609.43,-140.874"/>
</g>
<!-- Node3 -->
<g id="node3" class="node"><title>Node3</title>
<polygon fill="white" stroke="#bfbfbf" points="164,-0.5 164,-19.5 202,-19.5 202,-0.5 164,-0.5"/>
<text text-anchor="middle" x="183" y="-7.5" font-family="Helvetica,sans-Serif" font-size="10.00">string</text>
</g>
<!-- Node2&#45;&gt;Node3 -->
<g id="edge2" class="edge"><title>Node2&#45;&gt;Node3</title>
<path fill="none" stroke="midnightblue" d="M288.193,-56.4435C267.593,-47.544 235.138,-33.5237 211.724,-23.4086"/>
<polygon fill="midnightblue" stroke="midnightblue" points="212.871,-20.0918 202.303,-19.339 210.095,-26.5178 212.871,-20.0918"/>
</g>
<!-- Node4 -->
<g id="node4" class="node"><title>Node4</title>
<polygon fill="white" stroke="#bfbfbf" points="241,-0.5 241,-19.5 293,-19.5 293,-0.5 241,-0.5"/>
<text text-anchor="middle" x="267" y="-7.5" font-family="Helvetica,sans-Serif" font-size="10.00">iostream</text>
</g>
<!-- Node2&#45;&gt;Node4 -->
<g id="edge3" class="edge"><title>Node2&#45;&gt;Node4</title>
<path fill="none" stroke="midnightblue" d="M301.23,-56.083C295.438,-48.4554 286.942,-37.2645 279.862,-27.9408"/>
<polygon fill="midnightblue" stroke="midnightblue" points="282.479,-25.5991 273.644,-19.7511 276.904,-29.8321 282.479,-25.5991"/>
</g>
<!-- Node2&#45;&gt;Node5 -->
<g id="edge4" class="edge"><title>Node2&#45;&gt;Node5</title>
<path fill="none" stroke="midnightblue" d="M338.164,-58.3785C383.824,-48.3556 470.29,-29.3754 518.773,-18.7327"/>
<polygon fill="midnightblue" stroke="midnightblue" points="519.784,-22.0942 528.801,-16.5315 518.283,-15.257 519.784,-22.0942"/>
</g>
<!-- Node6&#45;&gt;Node3 -->
<g id="edge34" class="edge"><title>Node6&#45;&gt;Node3</title>
<path fill="none" stroke="midnightblue" d="M264.654,-337.871C174.617,-324.128 0,-290.341 0,-235 0,-235 0,-235 0,-121 0,-50.0804 102.209,-23.726 153.857,-14.9359"/>
<polygon fill="midnightblue" stroke="midnightblue" points="154.436,-18.3879 163.762,-13.3604 153.336,-11.4749 154.436,-18.3879"/>
</g>
<!-- Node7 -->
<g id="node7" class="node"><title>Node7</title>
<g id="a_node7"><a xlink:href="sd_scene_8h.html" target="_top" xlink:title="sdScene.h">
<polygon fill="white" stroke="black" points="286,-280.5 286,-299.5 348,-299.5 348,-280.5 286,-280.5"/>
<text text-anchor="middle" x="317" y="-287.5" font-family="Helvetica,sans-Serif" font-size="10.00">sdScene.h</text>
</a>
</g>
</g>
<!-- Node6&#45;&gt;Node7 -->
<g id="edge6" class="edge"><title>Node6&#45;&gt;Node7</title>
<path fill="none" stroke="midnightblue" d="M317,-336.083C317,-329.006 317,-318.861 317,-309.986"/>
<polygon fill="midnightblue" stroke="midnightblue" points="320.5,-309.751 317,-299.751 313.5,-309.751 320.5,-309.751"/>
</g>
<!-- Node7&#45;&gt;Node2 -->
<g id="edge9" class="edge"><title>Node7&#45;&gt;Node2</title>
<path fill="none" stroke="midnightblue" d="M318.731,-280.486C322.525,-260.719 330.933,-210.185 327,-168 324.287,-138.906 317.27,-105.702 312.565,-85.5537"/>
<polygon fill="midnightblue" stroke="midnightblue" points="315.907,-84.4787 310.172,-75.5701 309.1,-86.1105 315.907,-84.4787"/>
</g>
<!-- Node7&#45;&gt;Node3 -->
<g id="edge7" class="edge"><title>Node7&#45;&gt;Node3</title>
<path fill="none" stroke="midnightblue" d="M285.765,-285.875C246.279,-281.018 176.951,-269.425 123,-244 79.98,-223.727 38,-226.558 38,-179 38,-179 38,-179 38,-121 38,-63.3481 111.655,-31.9989 153.975,-18.7449"/>
<polygon fill="midnightblue" stroke="midnightblue" points="155.163,-22.0431 163.745,-15.8308 153.162,-15.3351 155.163,-22.0431"/>
</g>
<!-- Node7&#45;&gt;Node8 -->
<g id="edge8" class="edge"><title>Node7&#45;&gt;Node8</title>
<path fill="none" stroke="midnightblue" d="M348.18,-281.645C395.748,-269.147 487.3,-239.927 548,-188 564.77,-173.653 580.686,-153.933 591.04,-139.986"/>
<polygon fill="midnightblue" stroke="midnightblue" points="593.961,-141.921 596.995,-131.77 588.293,-137.813 593.961,-141.921"/>
</g>
<!-- Node9 -->
<g id="node9" class="node"><title>Node9</title>
<g id="a_node9"><a xlink:href="sd_info_8h.html" target="_top" xlink:title="sdInfo.h">
<polygon fill="white" stroke="black" points="397,-224.5 397,-243.5 447,-243.5 447,-224.5 397,-224.5"/>
<text text-anchor="middle" x="422" y="-231.5" font-family="Helvetica,sans-Serif" font-size="10.00">sdInfo.h</text>
</a>
</g>
</g>
<!-- Node7&#45;&gt;Node9 -->
<g id="edge10" class="edge"><title>Node7&#45;&gt;Node9</title>
<path fill="none" stroke="midnightblue" d="M333.87,-280.324C350.709,-271.664 376.807,-258.242 396.238,-248.249"/>
<polygon fill="midnightblue" stroke="midnightblue" points="397.88,-251.341 405.172,-243.655 394.678,-245.116 397.88,-251.341"/>
</g>
<!-- Node12 -->
<g id="node12" class="node"><title>Node12</title>
<g id="a_node12"><a xlink:href="sd_entity_core_8h.html" target="_top" xlink:title="sdEntityCore.h">
<polygon fill="white" stroke="black" points="132,-224.5 132,-243.5 210,-243.5 210,-224.5 132,-224.5"/>
<text text-anchor="middle" x="171" y="-231.5" font-family="Helvetica,sans-Serif" font-size="10.00">sdEntityCore.h</text>
</a>
</g>
</g>
<!-- Node7&#45;&gt;Node12 -->
<g id="edge19" class="edge"><title>Node7&#45;&gt;Node12</title>
<path fill="none" stroke="midnightblue" d="M293.866,-280.444C269.518,-271.438 230.993,-257.189 203.577,-247.049"/>
<polygon fill="midnightblue" stroke="midnightblue" points="204.619,-243.703 194.026,-243.516 202.191,-250.268 204.619,-243.703"/>
</g>
<!-- Node15 -->
<g id="node15" class="node"><title>Node15</title>
<g id="a_node15"><a xlink:href="sd_entity_extension_8h.html" target="_top" xlink:title="sdEntityExtension.h">
<polygon fill="white" stroke="black" points="218,-168.5 218,-187.5 318,-187.5 318,-168.5 218,-168.5"/>
<text text-anchor="middle" x="268" y="-175.5" font-family="Helvetica,sans-Serif" font-size="10.00">sdEntityExtension.h</text>
</a>
</g>
</g>
<!-- Node7&#45;&gt;Node15 -->
<g id="edge33" class="edge"><title>Node7&#45;&gt;Node15</title>
<path fill="none" stroke="midnightblue" d="M313.155,-280.368C305.176,-262.456 286.675,-220.923 275.995,-196.948"/>
<polygon fill="midnightblue" stroke="midnightblue" points="279.093,-195.302 271.827,-187.591 272.699,-198.15 279.093,-195.302"/>
</g>
<!-- Node9&#45;&gt;Node2 -->
<g id="edge13" class="edge"><title>Node9&#45;&gt;Node2</title>
<path fill="none" stroke="midnightblue" d="M418.932,-224.435C411.236,-203.692 389.585,-149.692 360,-112 351.016,-100.554 338.801,-89.8075 328.467,-81.6883"/>
<polygon fill="midnightblue" stroke="midnightblue" points="330.424,-78.7803 320.341,-75.5285 326.196,-84.3587 330.424,-78.7803"/>
</g>
<!-- Node9&#45;&gt;Node3 -->
<g id="edge11" class="edge"><title>Node9&#45;&gt;Node3</title>
<path fill="none" stroke="midnightblue" d="M421.252,-224.16C418.246,-194.69 404.275,-99.2227 347,-56 325.808,-40.0075 253.452,-24.2761 212.279,-16.3318"/>
<polygon fill="midnightblue" stroke="midnightblue" points="212.766,-12.8619 202.289,-14.4391 211.463,-19.7396 212.766,-12.8619"/>
</g>
<!-- Node9&#45;&gt;Node8 -->
<g id="edge12" class="edge"><title>Node9&#45;&gt;Node8</title>
<path fill="none" stroke="midnightblue" d="M443.902,-224.496C464.042,-216.296 494.416,-202.953 519,-188 543.551,-173.067 569.338,-152.228 585.76,-138.207"/>
<polygon fill="midnightblue" stroke="midnightblue" points="588.165,-140.754 593.437,-131.564 583.585,-135.461 588.165,-140.754"/>
</g>
<!-- Node10 -->
<g id="node10" class="node"><title>Node10</title>
<g id="a_node10"><a xlink:href="sd_date_8h.html" target="_top" xlink:title="sdDate.h">
<polygon fill="white" stroke="black" points="454,-168.5 454,-187.5 510,-187.5 510,-168.5 454,-168.5"/>
<text text-anchor="middle" x="482" y="-175.5" font-family="Helvetica,sans-Serif" font-size="10.00">sdDate.h</text>
</a>
</g>
</g>
<!-- Node9&#45;&gt;Node10 -->
<g id="edge14" class="edge"><title>Node9&#45;&gt;Node10</title>
<path fill="none" stroke="midnightblue" d="M431.64,-224.324C440.51,-216.341 453.875,-204.313 464.608,-194.653"/>
<polygon fill="midnightblue" stroke="midnightblue" points="467.093,-197.125 472.185,-187.834 462.41,-191.922 467.093,-197.125"/>
</g>
<!-- Node10&#45;&gt;Node3 -->
<g id="edge17" class="edge"><title>Node10&#45;&gt;Node3</title>
<path fill="none" stroke="midnightblue" d="M481.504,-168.333C479.721,-145.877 471.673,-85.5079 436,-56 365.057,2.68172 322.61,-36.3162 232,-20 225.52,-18.8331 218.561,-17.5644 211.981,-16.3576"/>
<polygon fill="midnightblue" stroke="midnightblue" points="212.544,-12.9025 202.076,-14.5356 211.278,-19.7871 212.544,-12.9025"/>
</g>
<!-- Node10&#45;&gt;Node5 -->
<g id="edge18" class="edge"><title>Node10&#45;&gt;Node5</title>
<path fill="none" stroke="midnightblue" d="M497.178,-168.365C509.467,-160.526 526.141,-147.79 535,-132 553.234,-99.5009 555.407,-54.7942 554.964,-29.823"/>
<polygon fill="midnightblue" stroke="midnightblue" points="558.453,-29.4439 554.61,-19.5707 551.457,-29.6856 558.453,-29.4439"/>
</g>
<!-- Node10&#45;&gt;Node8 -->
<g id="edge15" class="edge"><title>Node10&#45;&gt;Node8</title>
<path fill="none" stroke="midnightblue" d="M501.173,-168.444C520.909,-159.636 551.885,-145.812 574.493,-135.722"/>
<polygon fill="midnightblue" stroke="midnightblue" points="576.211,-138.788 583.917,-131.516 573.359,-132.396 576.211,-138.788"/>
</g>
<!-- Node11 -->
<g id="node11" class="node"><title>Node11</title>
<polygon fill="white" stroke="#bfbfbf" points="488,-112.5 488,-131.5 526,-131.5 526,-112.5 488,-112.5"/>
<text text-anchor="middle" x="507" y="-119.5" font-family="Helvetica,sans-Serif" font-size="10.00">ctime</text>
</g>
<!-- Node10&#45;&gt;Node11 -->
<g id="edge16" class="edge"><title>Node10&#45;&gt;Node11</title>
<path fill="none" stroke="midnightblue" d="M486.128,-168.083C489.514,-160.77 494.416,-150.181 498.619,-141.103"/>
<polygon fill="midnightblue" stroke="midnightblue" points="501.923,-142.296 502.949,-131.751 495.571,-139.355 501.923,-142.296"/>
</g>
<!-- Node12&#45;&gt;Node2 -->
<g id="edge22" class="edge"><title>Node12&#45;&gt;Node2</title>
<path fill="none" stroke="midnightblue" d="M175.283,-224.159C181.734,-211.238 194.719,-186.699 209,-168 234.26,-134.924 269.471,-101.371 290.382,-82.4722"/>
<polygon fill="midnightblue" stroke="midnightblue" points="292.772,-85.0297 297.896,-75.7563 288.108,-79.8103 292.772,-85.0297"/>
</g>
<!-- Node12&#45;&gt;Node3 -->
<g id="edge21" class="edge"><title>Node12&#45;&gt;Node3</title>
<path fill="none" stroke="midnightblue" d="M161.757,-224.471C134.401,-198.174 58.0004,-116.477 95,-56 107.794,-35.0886 133.714,-23.5025 154.126,-17.3459"/>
<polygon fill="midnightblue" stroke="midnightblue" points="155.186,-20.6844 163.91,-14.6716 153.341,-13.9321 155.186,-20.6844"/>
</g>
<!-- Node13 -->
<g id="node13" class="node"><title>Node13</title>
<polygon fill="white" stroke="#bfbfbf" points="104.5,-56.5 104.5,-75.5 133.5,-75.5 133.5,-56.5 104.5,-56.5"/>
<text text-anchor="middle" x="119" y="-63.5" font-family="Helvetica,sans-Serif" font-size="10.00">set</text>
</g>
<!-- Node12&#45;&gt;Node13 -->
<g id="edge20" class="edge"><title>Node12&#45;&gt;Node13</title>
<path fill="none" stroke="midnightblue" d="M167.621,-224.451C160.866,-207.169 145.445,-166.765 135,-132 130.396,-116.677 126.117,-99.0363 123.144,-86.0023"/>
<polygon fill="midnightblue" stroke="midnightblue" points="126.486,-84.9065 120.893,-75.908 119.654,-86.4301 126.486,-84.9065"/>
</g>
<!-- Node14 -->
<g id="node14" class="node"><title>Node14</title>
<g id="a_node14"><a xlink:href="sd_entity_8h.html" target="_top" xlink:title="sdEntity.h">
<polygon fill="white" stroke="black" points="144,-112.5 144,-131.5 202,-131.5 202,-112.5 144,-112.5"/>
<text text-anchor="middle" x="173" y="-119.5" font-family="Helvetica,sans-Serif" font-size="10.00">sdEntity.h</text>
</a>
</g>
</g>
<!-- Node12&#45;&gt;Node14 -->
<g id="edge23" class="edge"><title>Node12&#45;&gt;Node14</title>
<path fill="none" stroke="midnightblue" d="M171.157,-224.368C171.48,-206.617 172.224,-165.666 172.662,-141.597"/>
<polygon fill="midnightblue" stroke="midnightblue" points="176.161,-141.653 172.844,-131.591 169.162,-141.526 176.161,-141.653"/>
</g>
<!-- Node12&#45;&gt;Node15 -->
<g id="edge28" class="edge"><title>Node12&#45;&gt;Node15</title>
<path fill="none" stroke="midnightblue" d="M186.585,-224.324C201.999,-215.743 225.812,-202.486 243.71,-192.522"/>
<polygon fill="midnightblue" stroke="midnightblue" points="245.419,-195.577 252.454,-187.655 242.014,-189.461 245.419,-195.577"/>
</g>
<!-- Node14&#45;&gt;Node2 -->
<g id="edge27" class="edge"><title>Node14&#45;&gt;Node2</title>
<path fill="none" stroke="midnightblue" d="M194.391,-112.444C216.707,-103.517 251.903,-89.4387 277.208,-79.3168"/>
<polygon fill="midnightblue" stroke="midnightblue" points="278.724,-82.4801 286.709,-75.5164 276.124,-75.9807 278.724,-82.4801"/>
</g>
<!-- Node14&#45;&gt;Node3 -->
<g id="edge25" class="edge"><title>Node14&#45;&gt;Node3</title>
<path fill="none" stroke="midnightblue" d="M173.785,-112.368C175.398,-94.617 179.121,-53.6664 181.309,-29.5974"/>
<polygon fill="midnightblue" stroke="midnightblue" points="184.799,-29.8673 182.219,-19.5914 177.828,-29.2334 184.799,-29.8673"/>
</g>
<!-- Node14&#45;&gt;Node4 -->
<g id="edge26" class="edge"><title>Node14&#45;&gt;Node4</title>
<path fill="none" stroke="midnightblue" d="M180.376,-112.368C196.026,-94.0547 232.776,-51.0489 253.018,-27.3624"/>
<polygon fill="midnightblue" stroke="midnightblue" points="255.823,-29.4676 259.658,-19.5914 250.501,-24.92 255.823,-29.4676"/>
</g>
<!-- Node14&#45;&gt;Node13 -->
<g id="edge24" class="edge"><title>Node14&#45;&gt;Node13</title>
<path fill="none" stroke="midnightblue" d="M164.083,-112.083C156.22,-104.22 144.569,-92.5688 135.081,-83.0813"/>
<polygon fill="midnightblue" stroke="midnightblue" points="137.297,-80.3473 127.751,-75.7511 132.347,-85.2971 137.297,-80.3473"/>
</g>
<!-- Node15&#45;&gt;Node2 -->
<g id="edge31" class="edge"><title>Node15&#45;&gt;Node2</title>
<path fill="none" stroke="midnightblue" d="M271.139,-168.368C277.623,-150.537 292.62,-109.295 301.356,-85.2717"/>
<polygon fill="midnightblue" stroke="midnightblue" points="304.748,-86.1855 304.876,-75.5914 298.169,-83.7932 304.748,-86.1855"/>
</g>
<!-- Node15&#45;&gt;Node3 -->
<g id="edge29" class="edge"><title>Node15&#45;&gt;Node3</title>
<path fill="none" stroke="midnightblue" d="M263.43,-168.075C249.934,-141.719 210.076,-63.878 192.043,-28.6608"/>
<polygon fill="midnightblue" stroke="midnightblue" points="195.06,-26.8739 187.387,-19.5681 188.83,-30.0643 195.06,-26.8739"/>
</g>
<!-- Node15&#45;&gt;Node8 -->
<g id="edge30" class="edge"><title>Node15&#45;&gt;Node8</title>
<path fill="none" stroke="midnightblue" d="M318.153,-168.916C388.604,-157.559 514.715,-137.231 572.528,-127.912"/>
<polygon fill="midnightblue" stroke="midnightblue" points="573.184,-131.351 582.5,-126.305 572.07,-124.441 573.184,-131.351"/>
</g>
<!-- Node15&#45;&gt;Node14 -->
<g id="edge32" class="edge"><title>Node15&#45;&gt;Node14</title>
<path fill="none" stroke="midnightblue" d="M252.737,-168.324C237.779,-159.822 214.745,-146.729 197.273,-136.797"/>
<polygon fill="midnightblue" stroke="midnightblue" points="198.649,-133.553 188.226,-131.655 195.19,-139.639 198.649,-133.553"/>
</g>
</g>
</svg>
