<?xml version="1.0" encoding="UTF-8" standalone="no"?>
<!DOCTYPE svg PUBLIC "-//W3C//DTD SVG 1.1//EN"
 "http://www.w3.org/Graphics/SVG/1.1/DTD/svg11.dtd">
<!-- Generated by graphviz version 2.34.0 (20131206.1153)
 -->
<!-- Title: /Users/lossius/dev/spatdiflib/src/sdScene.h Pages: 1 -->
<svg width="1387pt" height="274pt"
 viewBox="0.00 0.00 1387.00 274.00" xmlns="http://www.w3.org/2000/svg" xmlns:xlink="http://www.w3.org/1999/xlink">
<g id="graph0" class="graph" transform="scale(1 1) rotate(0) translate(4 270)">
<title>/Users/lossius/dev/spatdiflib/src/sdScene.h</title>
<polygon fill="white" stroke="white" points="-4,4 -4,-270 1383,-270 1383,4 -4,4"/>
<!-- Node1 -->
<g id="node1" class="node"><title>Node1</title>
<polygon fill="#bfbfbf" stroke="black" points="654,-235 654,-265 774,-265 774,-235 654,-235"/>
<text text-anchor="start" x="662" y="-253" font-family="Helvetica,sans-Serif" font-size="10.00">/Users/lossius/dev</text>
<text text-anchor="middle" x="714" y="-242" font-family="Helvetica,sans-Serif" font-size="10.00">/spatdiflib/src/sdScene.h</text>
</g>
<!-- Node2 -->
<g id="node2" class="node"><title>Node2</title>
<g id="a_node2"><a xlink:href="sd_loader_8h.html" target="_top" xlink:title="/Users/lossius/dev\l/spatdiflib/src/sdLoader.h">
<polygon fill="white" stroke="black" points="350,-162 350,-192 472,-192 472,-162 350,-162"/>
<text text-anchor="start" x="358" y="-180" font-family="Helvetica,sans-Serif" font-size="10.00">/Users/lossius/dev</text>
<text text-anchor="middle" x="411" y="-169" font-family="Helvetica,sans-Serif" font-size="10.00">/spatdiflib/src/sdLoader.h</text>
</a>
</g>
</g>
<!-- Node1&#45;&gt;Node2 -->
<g id="edge1" class="edge"><title>Node1&#45;&gt;Node2</title>
<path fill="none" stroke="midnightblue" d="M643.851,-234.079C598.673,-224.279 538.741,-210.925 486,-198 478.409,-196.14 470.407,-194.096 462.571,-192.047"/>
<polygon fill="midnightblue" stroke="midnightblue" points="643.325,-237.546 653.839,-236.24 644.805,-230.704 643.325,-237.546"/>
</g>
<!-- Node4 -->
<g id="node4" class="node"><title>Node4</title>
<g id="a_node4"><a xlink:href="sd_main_8h.html" target="_top" xlink:title="/Users/lossius/dev\l/spatdiflib/src/sdMain.h">
<polygon fill="white" stroke="black" points="632,-84 632,-114 746,-114 746,-84 632,-84"/>
<text text-anchor="start" x="640" y="-102" font-family="Helvetica,sans-Serif" font-size="10.00">/Users/lossius/dev</text>
<text text-anchor="middle" x="689" y="-91" font-family="Helvetica,sans-Serif" font-size="10.00">/spatdiflib/src/sdMain.h</text>
</a>
</g>
</g>
<!-- Node1&#45;&gt;Node4 -->
<g id="edge18" class="edge"><title>Node1&#45;&gt;Node4</title>
<path fill="none" stroke="midnightblue" d="M709.955,-224.891C704.683,-193.472 695.635,-139.545 691.364,-114.089"/>
<polygon fill="midnightblue" stroke="midnightblue" points="706.542,-225.699 711.648,-234.982 713.445,-224.541 706.542,-225.699"/>
</g>
<!-- Node6 -->
<g id="node6" class="node"><title>Node6</title>
<g id="a_node6"><a xlink:href="_how__to__query_8cpp.html" target="_top" xlink:title="Example: How to query a SoatDIF scene.">
<polygon fill="white" stroke="black" points="0,-78.5 0,-119.5 102,-119.5 102,-78.5 0,-78.5"/>
<text text-anchor="start" x="8" y="-107.5" font-family="Helvetica,sans-Serif" font-size="10.00">/Users/lossius/dev</text>
<text text-anchor="start" x="8" y="-96.5" font-family="Helvetica,sans-Serif" font-size="10.00">/spatdiflib/examples</text>
<text text-anchor="middle" x="51" y="-85.5" font-family="Helvetica,sans-Serif" font-size="10.00">/How_to_query.cpp</text>
</a>
</g>
</g>
<!-- Node1&#45;&gt;Node6 -->
<g id="edge21" class="edge"><title>Node1&#45;&gt;Node6</title>
<path fill="none" stroke="midnightblue" d="M643.86,-248.742C551.876,-246.726 386.297,-237.295 251,-198 187.875,-179.666 120.392,-142.466 82.176,-119.541"/>
<polygon fill="midnightblue" stroke="midnightblue" points="643.822,-252.242 653.889,-248.938 643.959,-245.243 643.822,-252.242"/>
</g>
<!-- Node7 -->
<g id="node7" class="node"><title>Node7</title>
<g id="a_node7"><a xlink:href="sd_loader_test_8cpp.html" target="_top" xlink:title="Example: Test sdLoader.">
<polygon fill="white" stroke="black" points="120,-78.5 120,-119.5 222,-119.5 222,-78.5 120,-78.5"/>
<text text-anchor="start" x="128" y="-107.5" font-family="Helvetica,sans-Serif" font-size="10.00">/Users/lossius/dev</text>
<text text-anchor="start" x="128" y="-96.5" font-family="Helvetica,sans-Serif" font-size="10.00">/spatdiflib/examples</text>
<text text-anchor="middle" x="171" y="-85.5" font-family="Helvetica,sans-Serif" font-size="10.00">/sdLoaderTest.cpp</text>
</a>
</g>
</g>
<!-- Node1&#45;&gt;Node7 -->
<g id="edge24" class="edge"><title>Node1&#45;&gt;Node7</title>
<path fill="none" stroke="midnightblue" d="M643.451,-247.411C567.032,-243.857 442.448,-232.682 341,-198 286.362,-179.321 229.55,-142.415 197.396,-119.607"/>
<polygon fill="midnightblue" stroke="midnightblue" points="643.765,-250.928 653.907,-247.864 644.068,-243.934 643.765,-250.928"/>
</g>
<!-- Node8 -->
<g id="node8" class="node"><title>Node8</title>
<g id="a_node8"><a xlink:href="sd_saver_test_8cpp.html" target="_top" xlink:title="Example: Test sdSaver.">
<polygon fill="white" stroke="black" points="392,-78.5 392,-119.5 494,-119.5 494,-78.5 392,-78.5"/>
<text text-anchor="start" x="400" y="-107.5" font-family="Helvetica,sans-Serif" font-size="10.00">/Users/lossius/dev</text>
<text text-anchor="start" x="400" y="-96.5" font-family="Helvetica,sans-Serif" font-size="10.00">/spatdiflib/examples</text>
<text text-anchor="middle" x="443" y="-85.5" font-family="Helvetica,sans-Serif" font-size="10.00">/sdSaverTest.cpp</text>
</a>
</g>
</g>
<!-- Node1&#45;&gt;Node8 -->
<g id="edge26" class="edge"><title>Node1&#45;&gt;Node8</title>
<path fill="none" stroke="midnightblue" d="M643.91,-236.203C611.675,-228.334 573.838,-216.176 543,-198 508.028,-177.388 476.128,-141.964 458.175,-119.825"/>
<polygon fill="midnightblue" stroke="midnightblue" points="643.185,-239.628 653.72,-238.51 644.787,-232.814 643.185,-239.628"/>
</g>
<!-- Node9 -->
<g id="node9" class="node"><title>Node9</title>
<g id="a_node9"><a xlink:href="sd_scene_test_8cpp.html" target="_top" xlink:title="Example: Test sdScene.">
<polygon fill="white" stroke="black" points="512,-78.5 512,-119.5 614,-119.5 614,-78.5 512,-78.5"/>
<text text-anchor="start" x="520" y="-107.5" font-family="Helvetica,sans-Serif" font-size="10.00">/Users/lossius/dev</text>
<text text-anchor="start" x="520" y="-96.5" font-family="Helvetica,sans-Serif" font-size="10.00">/spatdiflib/examples</text>
<text text-anchor="middle" x="563" y="-85.5" font-family="Helvetica,sans-Serif" font-size="10.00">/sdSceneTest.cpp</text>
</a>
</g>
</g>
<!-- Node1&#45;&gt;Node9 -->
<g id="edge27" class="edge"><title>Node1&#45;&gt;Node9</title>
<path fill="none" stroke="midnightblue" d="M643.451,-244.33C611.644,-238.278 576.837,-225.302 557,-198 540.467,-175.247 547.739,-141.113 554.997,-119.72"/>
<polygon fill="midnightblue" stroke="midnightblue" points="643.205,-247.839 653.65,-246.062 644.377,-240.937 643.205,-247.839"/>
</g>
<!-- Node10 -->
<g id="node10" class="node"><title>Node10</title>
<g id="a_node10"><a xlink:href="sd_o_s_c_responder_8h.html" target="_top" xlink:title="/Users/lossius/dev\l/spatdiflib/src/sdOSCResponder.h">
<polygon fill="white" stroke="black" points="780.5,-162 780.5,-192 943.5,-192 943.5,-162 780.5,-162"/>
<text text-anchor="start" x="788.5" y="-180" font-family="Helvetica,sans-Serif" font-size="10.00">/Users/lossius/dev</text>
<text text-anchor="middle" x="862" y="-169" font-family="Helvetica,sans-Serif" font-size="10.00">/spatdiflib/src/sdOSCResponder.h</text>
</a>
</g>
</g>
<!-- Node1&#45;&gt;Node10 -->
<g id="edge9" class="edge"><title>Node1&#45;&gt;Node10</title>
<path fill="none" stroke="midnightblue" d="M752.445,-230.557C777.459,-218.557 809.584,-203.145 832.568,-192.12"/>
<polygon fill="midnightblue" stroke="midnightblue" points="750.742,-227.492 743.24,-234.973 753.77,-233.803 750.742,-227.492"/>
</g>
<!-- Node12 -->
<g id="node12" class="node"><title>Node12</title>
<g id="a_node12"><a xlink:href="sd_o_s_c_test_8cpp.html" target="_top" xlink:title="Example: Test sdOSCResponder.">
<polygon fill="white" stroke="black" points="1104,-78.5 1104,-119.5 1206,-119.5 1206,-78.5 1104,-78.5"/>
<text text-anchor="start" x="1112" y="-107.5" font-family="Helvetica,sans-Serif" font-size="10.00">/Users/lossius/dev</text>
<text text-anchor="start" x="1112" y="-96.5" font-family="Helvetica,sans-Serif" font-size="10.00">/spatdiflib/examples</text>
<text text-anchor="middle" x="1155" y="-85.5" font-family="Helvetica,sans-Serif" font-size="10.00">/sdOSCTest.cpp</text>
</a>
</g>
</g>
<!-- Node1&#45;&gt;Node12 -->
<g id="edge25" class="edge"><title>Node1&#45;&gt;Node12</title>
<path fill="none" stroke="midnightblue" d="M784.167,-244.918C833.726,-239.506 900.258,-226.972 952,-198 974.492,-185.406 970.303,-169.918 992,-156 994.503,-154.395 1056.78,-133.181 1103.61,-117.336"/>
<polygon fill="midnightblue" stroke="midnightblue" points="783.769,-241.44 774.176,-245.938 784.48,-248.404 783.769,-241.44"/>
</g>
<!-- Node13 -->
<g id="node13" class="node"><title>Node13</title>
<g id="a_node13"><a xlink:href="sd_saver_8h.html" target="_top" xlink:title="/Users/lossius/dev\l/spatdiflib/src/sdSaver.h">
<polygon fill="white" stroke="black" points="566.5,-162 566.5,-192 685.5,-192 685.5,-162 566.5,-162"/>
<text text-anchor="start" x="574.5" y="-180" font-family="Helvetica,sans-Serif" font-size="10.00">/Users/lossius/dev</text>
<text text-anchor="middle" x="626" y="-169" font-family="Helvetica,sans-Serif" font-size="10.00">/spatdiflib/src/sdSaver.h</text>
</a>
</g>
</g>
<!-- Node1&#45;&gt;Node13 -->
<g id="edge13" class="edge"><title>Node1&#45;&gt;Node13</title>
<path fill="none" stroke="midnightblue" d="M688.573,-228.485C674.176,-216.87 656.53,-202.632 643.651,-192.241"/>
<polygon fill="midnightblue" stroke="midnightblue" points="686.634,-231.417 696.614,-234.973 691.029,-225.969 686.634,-231.417"/>
</g>
<!-- Node14 -->
<g id="node14" class="node"><title>Node14</title>
<g id="a_node14"><a xlink:href="sd_saver_8cpp.html" target="_top" xlink:title="/Users/lossius/dev\l/spatdiflib/src/sdSaver.cpp">
<polygon fill="white" stroke="black" points="764,-84 764,-114 894,-114 894,-84 764,-84"/>
<text text-anchor="start" x="772" y="-102" font-family="Helvetica,sans-Serif" font-size="10.00">/Users/lossius/dev</text>
<text text-anchor="middle" x="829" y="-91" font-family="Helvetica,sans-Serif" font-size="10.00">/spatdiflib/src/sdSaver.cpp</text>
</a>
</g>
</g>
<!-- Node1&#45;&gt;Node14 -->
<g id="edge19" class="edge"><title>Node1&#45;&gt;Node14</title>
<path fill="none" stroke="midnightblue" d="M726.141,-225.65C736.77,-206.164 753.253,-178.108 771,-156 783.442,-140.5 799.926,-124.966 812.141,-114.204"/>
<polygon fill="midnightblue" stroke="midnightblue" points="722.918,-224.255 721.278,-234.722 729.087,-227.562 722.918,-224.255"/>
</g>
<!-- Node15 -->
<g id="node15" class="node"><title>Node15</title>
<g id="a_node15"><a xlink:href="sd_scene_8cpp.html" target="_top" xlink:title="/Users/lossius/dev\l/spatdiflib/src/sdScene.cpp">
<polygon fill="white" stroke="black" points="1000.5,-162 1000.5,-192 1131.5,-192 1131.5,-162 1000.5,-162"/>
<text text-anchor="start" x="1008.5" y="-180" font-family="Helvetica,sans-Serif" font-size="10.00">/Users/lossius/dev</text>
<text text-anchor="middle" x="1066" y="-169" font-family="Helvetica,sans-Serif" font-size="10.00">/spatdiflib/src/sdScene.cpp</text>
</a>
</g>
</g>
<!-- Node1&#45;&gt;Node15 -->
<g id="edge20" class="edge"><title>Node1&#45;&gt;Node15</title>
<path fill="none" stroke="midnightblue" d="M784.171,-237.029C839.235,-227.349 917.731,-212.92 986,-198 994.252,-196.197 1002.95,-194.162 1011.45,-192.099"/>
<polygon fill="midnightblue" stroke="midnightblue" points="783.416,-233.608 774.17,-238.78 784.623,-240.503 783.416,-233.608"/>
</g>
<!-- Node16 -->
<g id="node16" class="node"><title>Node16</title>
<g id="a_node16"><a xlink:href="sd_event_test_8cpp.html" target="_top" xlink:title="Example: Test #stEntityCore.">
<polygon fill="white" stroke="black" points="1150,-156.5 1150,-197.5 1252,-197.5 1252,-156.5 1150,-156.5"/>
<text text-anchor="start" x="1158" y="-185.5" font-family="Helvetica,sans-Serif" font-size="10.00">/Users/lossius/dev</text>
<text text-anchor="start" x="1158" y="-174.5" font-family="Helvetica,sans-Serif" font-size="10.00">/spatdiflib/examples</text>
<text text-anchor="middle" x="1201" y="-163.5" font-family="Helvetica,sans-Serif" font-size="10.00">/sdEventTest.cpp</text>
</a>
</g>
</g>
<!-- Node1&#45;&gt;Node16 -->
<g id="edge22" class="edge"><title>Node1&#45;&gt;Node16</title>
<path fill="none" stroke="midnightblue" d="M784.302,-244.856C869.346,-238.865 1016.48,-225.36 1140,-198 1143.26,-197.277 1146.6,-196.449 1149.95,-195.55"/>
<polygon fill="midnightblue" stroke="midnightblue" points="783.979,-241.369 774.244,-245.549 784.461,-248.353 783.979,-241.369"/>
</g>
<!-- Node17 -->
<g id="node17" class="node"><title>Node17</title>
<g id="a_node17"><a xlink:href="sd_extension_test_8cpp.html" target="_top" xlink:title="Example: Test extentions.">
<polygon fill="white" stroke="black" points="1270.5,-156.5 1270.5,-197.5 1379.5,-197.5 1379.5,-156.5 1270.5,-156.5"/>
<text text-anchor="start" x="1278.5" y="-185.5" font-family="Helvetica,sans-Serif" font-size="10.00">/Users/lossius/dev</text>
<text text-anchor="start" x="1278.5" y="-174.5" font-family="Helvetica,sans-Serif" font-size="10.00">/spatdiflib/examples</text>
<text text-anchor="middle" x="1325" y="-163.5" font-family="Helvetica,sans-Serif" font-size="10.00">/sdExtensionTest.cpp</text>
</a>
</g>
</g>
<!-- Node1&#45;&gt;Node17 -->
<g id="edge23" class="edge"><title>Node1&#45;&gt;Node17</title>
<path fill="none" stroke="midnightblue" d="M784.221,-247.157C888.984,-243.351 1091.99,-231.896 1261,-198 1264.08,-197.382 1267.23,-196.672 1270.38,-195.896"/>
<polygon fill="midnightblue" stroke="midnightblue" points="783.958,-243.664 774.087,-247.512 784.203,-250.659 783.958,-243.664"/>
</g>
<!-- Node3 -->
<g id="node3" class="node"><title>Node3</title>
<g id="a_node3"><a xlink:href="sd_loader_8cpp.html" target="_top" xlink:title="/Users/lossius/dev\l/spatdiflib/src/sdLoader.cpp">
<polygon fill="white" stroke="black" points="240,-84 240,-114 374,-114 374,-84 240,-84"/>
<text text-anchor="start" x="248" y="-102" font-family="Helvetica,sans-Serif" font-size="10.00">/Users/lossius/dev</text>
<text text-anchor="middle" x="307" y="-91" font-family="Helvetica,sans-Serif" font-size="10.00">/spatdiflib/src/sdLoader.cpp</text>
</a>
</g>
</g>
<!-- Node2&#45;&gt;Node3 -->
<g id="edge2" class="edge"><title>Node2&#45;&gt;Node3</title>
<path fill="none" stroke="midnightblue" d="M383.099,-155.611C365.207,-142.536 342.428,-125.89 326.474,-114.231"/>
<polygon fill="midnightblue" stroke="midnightblue" points="381.299,-158.631 391.438,-161.705 385.43,-152.979 381.299,-158.631"/>
</g>
<!-- Node2&#45;&gt;Node4 -->
<g id="edge3" class="edge"><title>Node2&#45;&gt;Node4</title>
<path fill="none" stroke="midnightblue" d="M476.326,-159.392C518.325,-148.555 574.005,-133.89 623,-120 629.566,-118.139 636.48,-116.115 643.261,-114.093"/>
<polygon fill="midnightblue" stroke="midnightblue" points="475.31,-156.039 466.499,-161.922 477.056,-162.818 475.31,-156.039"/>
</g>
<!-- Node2&#45;&gt;Node6 -->
<g id="edge5" class="edge"><title>Node2&#45;&gt;Node6</title>
<path fill="none" stroke="midnightblue" d="M339.905,-165.55C278.734,-155.889 188.379,-140.018 111,-120 108.13,-119.258 105.198,-118.449 102.249,-117.597"/>
<polygon fill="midnightblue" stroke="midnightblue" points="339.421,-169.017 349.842,-167.105 340.504,-162.101 339.421,-169.017"/>
</g>
<!-- Node2&#45;&gt;Node7 -->
<g id="edge6" class="edge"><title>Node2&#45;&gt;Node7</title>
<path fill="none" stroke="midnightblue" d="M355.326,-158.996C319.716,-148.041 272.571,-133.394 231,-120 228.074,-119.057 225.07,-118.081 222.04,-117.091"/>
<polygon fill="midnightblue" stroke="midnightblue" points="354.463,-162.392 365.05,-161.984 356.519,-155.701 354.463,-162.392"/>
</g>
<!-- Node2&#45;&gt;Node8 -->
<g id="edge7" class="edge"><title>Node2&#45;&gt;Node8</title>
<path fill="none" stroke="midnightblue" d="M420.976,-152.306C425.389,-141.827 430.517,-129.648 434.714,-119.68"/>
<polygon fill="midnightblue" stroke="midnightblue" points="417.674,-151.13 417.019,-161.705 424.125,-153.847 417.674,-151.13"/>
</g>
<!-- Node2&#45;&gt;Node9 -->
<g id="edge8" class="edge"><title>Node2&#45;&gt;Node9</title>
<path fill="none" stroke="midnightblue" d="M448.302,-157.349C471.202,-145.899 500.494,-131.253 523.744,-119.628"/>
<polygon fill="midnightblue" stroke="midnightblue" points="446.613,-154.28 439.234,-161.883 449.743,-160.541 446.613,-154.28"/>
</g>
<!-- Node5 -->
<g id="node5" class="node"><title>Node5</title>
<g id="a_node5"><a xlink:href="_file_with_extension_8cpp.html" target="_top" xlink:title="Example: Examine all functionalities of the sdDate class.">
<polygon fill="white" stroke="black" points="632.5,-0.5 632.5,-41.5 745.5,-41.5 745.5,-0.5 632.5,-0.5"/>
<text text-anchor="start" x="640.5" y="-29.5" font-family="Helvetica,sans-Serif" font-size="10.00">/Users/lossius/dev</text>
<text text-anchor="start" x="640.5" y="-18.5" font-family="Helvetica,sans-Serif" font-size="10.00">/spatdiflib/examples</text>
<text text-anchor="middle" x="689" y="-7.5" font-family="Helvetica,sans-Serif" font-size="10.00">/FileWithExtension.cpp</text>
</a>
</g>
</g>
<!-- Node4&#45;&gt;Node5 -->
<g id="edge4" class="edge"><title>Node4&#45;&gt;Node5</title>
<path fill="none" stroke="midnightblue" d="M689,-73.656C689,-63.3257 689,-51.4425 689,-41.68"/>
<polygon fill="midnightblue" stroke="midnightblue" points="685.5,-73.7049 689,-83.705 692.5,-73.705 685.5,-73.7049"/>
</g>
<!-- Node10&#45;&gt;Node4 -->
<g id="edge10" class="edge"><title>Node10&#45;&gt;Node4</title>
<path fill="none" stroke="midnightblue" d="M820.341,-157.699C789.799,-144.282 748.949,-126.336 720.962,-114.041"/>
<polygon fill="midnightblue" stroke="midnightblue" points="819.302,-161.065 829.865,-161.883 822.118,-154.657 819.302,-161.065"/>
</g>
<!-- Node11 -->
<g id="node11" class="node"><title>Node11</title>
<g id="a_node11"><a xlink:href="sd_o_s_c_responder_8cpp.html" target="_top" xlink:title="/Users/lossius/dev\l/spatdiflib/src/sdOSCResponder.cpp">
<polygon fill="white" stroke="black" points="912,-84 912,-114 1086,-114 1086,-84 912,-84"/>
<text text-anchor="start" x="920" y="-102" font-family="Helvetica,sans-Serif" font-size="10.00">/Users/lossius/dev</text>
<text text-anchor="middle" x="999" y="-91" font-family="Helvetica,sans-Serif" font-size="10.00">/spatdiflib/src/sdOSCResponder.cpp</text>
</a>
</g>
</g>
<!-- Node10&#45;&gt;Node11 -->
<g id="edge11" class="edge"><title>Node10&#45;&gt;Node11</title>
<path fill="none" stroke="midnightblue" d="M896.254,-156.998C920.294,-143.662 951.91,-126.123 973.689,-114.041"/>
<polygon fill="midnightblue" stroke="midnightblue" points="894.494,-153.971 887.448,-161.883 897.89,-160.093 894.494,-153.971"/>
</g>
<!-- Node10&#45;&gt;Node12 -->
<g id="edge12" class="edge"><title>Node10&#45;&gt;Node12</title>
<path fill="none" stroke="midnightblue" d="M936.794,-159.743C982.703,-149.34 1042.55,-135.014 1095,-120 1097.85,-119.184 1100.77,-118.318 1103.7,-117.421"/>
<polygon fill="midnightblue" stroke="midnightblue" points="935.907,-156.355 926.922,-161.968 937.447,-163.184 935.907,-156.355"/>
</g>
<!-- Node13&#45;&gt;Node4 -->
<g id="edge14" class="edge"><title>Node13&#45;&gt;Node4</title>
<path fill="none" stroke="midnightblue" d="M644.397,-153.807C654.986,-141.033 667.978,-125.36 677.203,-114.231"/>
<polygon fill="midnightblue" stroke="midnightblue" points="641.537,-151.772 637.85,-161.705 646.926,-156.24 641.537,-151.772"/>
</g>
<!-- Node13&#45;&gt;Node8 -->
<g id="edge16" class="edge"><title>Node13&#45;&gt;Node8</title>
<path fill="none" stroke="midnightblue" d="M582.553,-157.956C554.777,-146.421 518.752,-131.46 490.262,-119.628"/>
<polygon fill="midnightblue" stroke="midnightblue" points="581.43,-161.28 592.008,-161.883 584.115,-154.815 581.43,-161.28"/>
</g>
<!-- Node13&#45;&gt;Node9 -->
<g id="edge17" class="edge"><title>Node13&#45;&gt;Node9</title>
<path fill="none" stroke="midnightblue" d="M607.691,-153.913C598.718,-143.088 588.003,-130.162 579.314,-119.68"/>
<polygon fill="midnightblue" stroke="midnightblue" points="605.074,-156.24 614.15,-161.705 610.463,-151.772 605.074,-156.24"/>
</g>
<!-- Node13&#45;&gt;Node14 -->
<g id="edge15" class="edge"><title>Node13&#45;&gt;Node14</title>
<path fill="none" stroke="midnightblue" d="M673.493,-158.219C709.474,-144.749 758.229,-126.496 791.495,-114.041"/>
<polygon fill="midnightblue" stroke="midnightblue" points="671.845,-155.099 663.707,-161.883 674.299,-161.655 671.845,-155.099"/>
</g>
</g>
</svg>
