<?xml version="1.0" encoding="UTF-8" standalone="no"?>
<!DOCTYPE svg PUBLIC "-//W3C//DTD SVG 1.1//EN"
 "http://www.w3.org/Graphics/SVG/1.1/DTD/svg11.dtd">
<!-- Generated by graphviz version 2.34.0 (20131206.1153)
 -->
<!-- Title: /Users/lossius/dev/spatdiflib/src/sdScene.cpp Pages: 1 -->
<svg width="778pt" height="376pt"
 viewBox="0.00 0.00 778.00 376.00" xmlns="http://www.w3.org/2000/svg" xmlns:xlink="http://www.w3.org/1999/xlink">
<g id="graph0" class="graph" transform="scale(1 1) rotate(0) translate(4 372)">
<title>/Users/lossius/dev/spatdiflib/src/sdScene.cpp</title>
<polygon fill="white" stroke="white" points="-4,4 -4,-372 774,-372 774,4 -4,4"/>
<!-- Node1 -->
<g id="node1" class="node"><title>Node1</title>
<polygon fill="#bfbfbf" stroke="black" points="463.5,-337 463.5,-367 594.5,-367 594.5,-337 463.5,-337"/>
<text text-anchor="start" x="471.5" y="-355" font-family="Helvetica,sans-Serif" font-size="10.00">/Users/lossius/dev</text>
<text text-anchor="middle" x="529" y="-344" font-family="Helvetica,sans-Serif" font-size="10.00">/spatdiflib/src/sdScene.cpp</text>
</g>
<!-- Node2 -->
<g id="node2" class="node"><title>Node2</title>
<polygon fill="white" stroke="#bfbfbf" points="533,-0.5 533,-19.5 585,-19.5 585,-0.5 533,-0.5"/>
<text text-anchor="middle" x="559" y="-7.5" font-family="Helvetica,sans-Serif" font-size="10.00">iostream</text>
</g>
<!-- Node1&#45;&gt;Node2 -->
<g id="edge1" class="edge"><title>Node1&#45;&gt;Node2</title>
<path fill="none" stroke="midnightblue" d="M582.824,-336.992C630.302,-321.004 692,-289.705 692,-235 692,-235 692,-235 692,-121 692,-70.4491 634.241,-38.7535 594.849,-23.0152"/>
<polygon fill="midnightblue" stroke="midnightblue" points="595.867,-19.6573 585.277,-19.3559 593.368,-26.1958 595.867,-19.6573"/>
</g>
<!-- Node3 -->
<g id="node3" class="node"><title>Node3</title>
<polygon fill="white" stroke="#bfbfbf" points="137,-0.5 137,-19.5 187,-19.5 187,-0.5 137,-0.5"/>
<text text-anchor="middle" x="162" y="-7.5" font-family="Helvetica,sans-Serif" font-size="10.00">sstream</text>
</g>
<!-- Node1&#45;&gt;Node3 -->
<g id="edge2" class="edge"><title>Node1&#45;&gt;Node3</title>
<path fill="none" stroke="midnightblue" d="M463.291,-349.125C329.498,-343.517 38,-321.385 38,-235 38,-235 38,-235 38,-121 38,-72.2608 92.2738,-39.8655 129.008,-23.5212"/>
<polygon fill="midnightblue" stroke="midnightblue" points="130.558,-26.6652 138.385,-19.5239 127.813,-20.2259 130.558,-26.6652"/>
</g>
<!-- Node4 -->
<g id="node4" class="node"><title>Node4</title>
<polygon fill="white" stroke="#bfbfbf" points="720,-280.5 720,-299.5 770,-299.5 770,-280.5 720,-280.5"/>
<text text-anchor="middle" x="745" y="-287.5" font-family="Helvetica,sans-Serif" font-size="10.00">iomanip</text>
</g>
<!-- Node1&#45;&gt;Node4 -->
<g id="edge3" class="edge"><title>Node1&#45;&gt;Node4</title>
<path fill="none" stroke="midnightblue" d="M579.642,-336.933C619.705,-325.804 674.601,-310.555 709.938,-300.739"/>
<polygon fill="midnightblue" stroke="midnightblue" points="711.1,-304.049 719.798,-298 709.227,-297.305 711.1,-304.049"/>
</g>
<!-- Node5 -->
<g id="node5" class="node"><title>Node5</title>
<g id="a_node5"><a xlink:href="sd_const_8h.html" target="_top" xlink:title="sdConst.h">
<polygon fill="white" stroke="black" points="387,-56.5 387,-75.5 447,-75.5 447,-56.5 387,-56.5"/>
<text text-anchor="middle" x="417" y="-63.5" font-family="Helvetica,sans-Serif" font-size="10.00">sdConst.h</text>
</a>
</g>
</g>
<!-- Node1&#45;&gt;Node5 -->
<g id="edge4" class="edge"><title>Node1&#45;&gt;Node5</title>
<path fill="none" stroke="midnightblue" d="M532.356,-336.889C537.397,-313.022 545.116,-263.432 533,-224 514.519,-163.851 461.826,-108.365 434.269,-82.4181"/>
<polygon fill="midnightblue" stroke="midnightblue" points="436.624,-79.8288 426.901,-75.6217 431.878,-84.9743 436.624,-79.8288"/>
</g>
<!-- Node7 -->
<g id="node7" class="node"><title>Node7</title>
<g id="a_node7"><a xlink:href="sd_scene_8h.html" target="_top" xlink:title="sdScene.h">
<polygon fill="white" stroke="black" points="205,-280.5 205,-299.5 267,-299.5 267,-280.5 205,-280.5"/>
<text text-anchor="middle" x="236" y="-287.5" font-family="Helvetica,sans-Serif" font-size="10.00">sdScene.h</text>
</a>
</g>
</g>
<!-- Node1&#45;&gt;Node7 -->
<g id="edge8" class="edge"><title>Node1&#45;&gt;Node7</title>
<path fill="none" stroke="midnightblue" d="M463.245,-337.535C406.343,-325.882 325.805,-309.39 277.459,-299.49"/>
<polygon fill="midnightblue" stroke="midnightblue" points="277.857,-295.999 267.358,-297.421 276.453,-302.857 277.857,-295.999"/>
</g>
<!-- Node16 -->
<g id="node16" class="node"><title>Node16</title>
<g id="a_node16"><a xlink:href="sd_entity_extension_media_8h.html" target="_top" xlink:title="sdEntityExtensionMedia.h">
<polygon fill="white" stroke="black" points="398,-224.5 398,-243.5 524,-243.5 524,-224.5 398,-224.5"/>
<text text-anchor="middle" x="461" y="-231.5" font-family="Helvetica,sans-Serif" font-size="10.00">sdEntityExtensionMedia.h</text>
</a>
</g>
</g>
<!-- Node1&#45;&gt;Node16 -->
<g id="edge36" class="edge"><title>Node1&#45;&gt;Node16</title>
<path fill="none" stroke="midnightblue" d="M520.662,-336.776C508.187,-315.496 484.693,-275.418 471.209,-252.415"/>
<polygon fill="midnightblue" stroke="midnightblue" points="474.181,-250.564 466.104,-243.707 468.142,-254.104 474.181,-250.564"/>
</g>
<!-- Node5&#45;&gt;Node2 -->
<g id="edge6" class="edge"><title>Node5&#45;&gt;Node2</title>
<path fill="none" stroke="midnightblue" d="M439.5,-56.4435C463.077,-47.4776 500.322,-33.314 526.964,-23.1827"/>
<polygon fill="midnightblue" stroke="midnightblue" points="528.502,-26.3424 536.605,-19.5164 526.014,-19.7995 528.502,-26.3424"/>
</g>
<!-- Node5&#45;&gt;Node3 -->
<g id="edge7" class="edge"><title>Node5&#45;&gt;Node3</title>
<path fill="none" stroke="midnightblue" d="M386.853,-59.4349C346.032,-51.7748 270.698,-37.1999 197.109,-20.1572"/>
<polygon fill="midnightblue" stroke="midnightblue" points="197.744,-16.7115 187.21,-17.8471 196.153,-23.5283 197.744,-16.7115"/>
</g>
<!-- Node6 -->
<g id="node6" class="node"><title>Node6</title>
<polygon fill="white" stroke="#bfbfbf" points="307,-0.5 307,-19.5 345,-19.5 345,-0.5 307,-0.5"/>
<text text-anchor="middle" x="326" y="-7.5" font-family="Helvetica,sans-Serif" font-size="10.00">string</text>
</g>
<!-- Node5&#45;&gt;Node6 -->
<g id="edge5" class="edge"><title>Node5&#45;&gt;Node6</title>
<path fill="none" stroke="midnightblue" d="M402.379,-56.324C388.051,-47.8215 365.987,-34.7288 349.251,-24.7975"/>
<polygon fill="midnightblue" stroke="midnightblue" points="350.97,-21.7478 340.584,-19.6545 347.398,-27.7677 350.97,-21.7478"/>
</g>
<!-- Node7&#45;&gt;Node5 -->
<g id="edge11" class="edge"><title>Node7&#45;&gt;Node5</title>
<path fill="none" stroke="midnightblue" d="M238.583,-280.363C245.134,-259.459 263.959,-205.131 293,-168 322.046,-130.863 367.115,-98.5554 394.172,-81.0095"/>
<polygon fill="midnightblue" stroke="midnightblue" points="396.052,-83.9619 402.608,-75.6394 392.293,-78.0568 396.052,-83.9619"/>
</g>
<!-- Node7&#45;&gt;Node6 -->
<g id="edge9" class="edge"><title>Node7&#45;&gt;Node6</title>
<path fill="none" stroke="midnightblue" d="M236.86,-280.105C240.206,-248.274 254.145,-137.588 293,-56 297.833,-45.8509 305.064,-35.6575 311.527,-27.5448"/>
<polygon fill="midnightblue" stroke="midnightblue" points="314.383,-29.5847 318.088,-19.6589 309.002,-25.1077 314.383,-29.5847"/>
</g>
<!-- Node8 -->
<g id="node8" class="node"><title>Node8</title>
<polygon fill="white" stroke="#bfbfbf" points="62.5,-0.5 62.5,-19.5 103.5,-19.5 103.5,-0.5 62.5,-0.5"/>
<text text-anchor="middle" x="83" y="-7.5" font-family="Helvetica,sans-Serif" font-size="10.00">vector</text>
</g>
<!-- Node7&#45;&gt;Node8 -->
<g id="edge10" class="edge"><title>Node7&#45;&gt;Node8</title>
<path fill="none" stroke="midnightblue" d="M204.661,-288.379C140.464,-285.274 0,-268.278 0,-179 0,-179 0,-179 0,-121 0,-90.2048 5.69689,-80.7657 24,-56 33.2131,-43.5339 46.8001,-32.8449 58.6139,-25.0165"/>
<polygon fill="midnightblue" stroke="midnightblue" points="60.6061,-27.8981 67.2005,-19.6057 56.8742,-21.9759 60.6061,-27.8981"/>
</g>
<!-- Node9 -->
<g id="node9" class="node"><title>Node9</title>
<g id="a_node9"><a xlink:href="sd_info_8h.html" target="_top" xlink:title="sdInfo.h">
<polygon fill="white" stroke="black" points="145,-112.5 145,-131.5 195,-131.5 195,-112.5 145,-112.5"/>
<text text-anchor="middle" x="170" y="-119.5" font-family="Helvetica,sans-Serif" font-size="10.00">sdInfo.h</text>
</a>
</g>
</g>
<!-- Node7&#45;&gt;Node9 -->
<g id="edge12" class="edge"><title>Node7&#45;&gt;Node9</title>
<path fill="none" stroke="midnightblue" d="M220.942,-280.387C208.784,-272.56 192.37,-259.832 184,-244 166.68,-211.237 166.512,-166.628 168.13,-141.744"/>
<polygon fill="midnightblue" stroke="midnightblue" points="171.638,-141.785 168.972,-131.531 164.662,-141.21 171.638,-141.785"/>
</g>
<!-- Node12 -->
<g id="node12" class="node"><title>Node12</title>
<g id="a_node12"><a xlink:href="sd_entity_core_8h.html" target="_top" xlink:title="sdEntityCore.h">
<polygon fill="white" stroke="black" points="302,-224.5 302,-243.5 380,-243.5 380,-224.5 302,-224.5"/>
<text text-anchor="middle" x="341" y="-231.5" font-family="Helvetica,sans-Serif" font-size="10.00">sdEntityCore.h</text>
</a>
</g>
</g>
<!-- Node7&#45;&gt;Node12 -->
<g id="edge21" class="edge"><title>Node7&#45;&gt;Node12</title>
<path fill="none" stroke="midnightblue" d="M252.87,-280.324C269.709,-271.664 295.807,-258.242 315.238,-248.249"/>
<polygon fill="midnightblue" stroke="midnightblue" points="316.88,-251.341 324.172,-243.655 313.678,-245.116 316.88,-251.341"/>
</g>
<!-- Node15 -->
<g id="node15" class="node"><title>Node15</title>
<g id="a_node15"><a xlink:href="sd_entity_extension_8h.html" target="_top" xlink:title="sdEntityExtension.h">
<polygon fill="white" stroke="black" points="302,-168.5 302,-187.5 402,-187.5 402,-168.5 302,-168.5"/>
<text text-anchor="middle" x="352" y="-175.5" font-family="Helvetica,sans-Serif" font-size="10.00">sdEntityExtension.h</text>
</a>
</g>
</g>
<!-- Node7&#45;&gt;Node15 -->
<g id="edge35" class="edge"><title>Node7&#45;&gt;Node15</title>
<path fill="none" stroke="midnightblue" d="M242.868,-280.091C253.097,-267.084 273.255,-242.44 293,-224 304.854,-212.929 319.319,-201.863 330.96,-193.475"/>
<polygon fill="midnightblue" stroke="midnightblue" points="333.082,-196.262 339.221,-187.627 329.037,-190.548 333.082,-196.262"/>
</g>
<!-- Node9&#45;&gt;Node5 -->
<g id="edge15" class="edge"><title>Node9&#45;&gt;Node5</title>
<path fill="none" stroke="midnightblue" d="M195.043,-115.525C237.841,-106.168 325.405,-87.0249 376.832,-75.7816"/>
<polygon fill="midnightblue" stroke="midnightblue" points="377.899,-79.1312 386.92,-73.5761 376.404,-72.2927 377.899,-79.1312"/>
</g>
<!-- Node9&#45;&gt;Node6 -->
<g id="edge13" class="edge"><title>Node9&#45;&gt;Node6</title>
<path fill="none" stroke="midnightblue" d="M179.978,-112.083C194.756,-99.0673 223.569,-74.4123 250,-56 266.463,-44.5317 285.951,-33.0311 301.071,-24.527"/>
<polygon fill="midnightblue" stroke="midnightblue" points="302.813,-27.5629 309.855,-19.6464 299.413,-21.444 302.813,-27.5629"/>
</g>
<!-- Node9&#45;&gt;Node8 -->
<g id="edge14" class="edge"><title>Node9&#45;&gt;Node8</title>
<path fill="none" stroke="midnightblue" d="M162.823,-112.441C155.307,-103.438 143.2,-88.8234 133,-76 120.183,-59.8853 105.889,-41.233 95.8787,-28.0534"/>
<polygon fill="midnightblue" stroke="midnightblue" points="98.5317,-25.7592 89.7032,-19.9019 92.9521,-29.9863 98.5317,-25.7592"/>
</g>
<!-- Node10 -->
<g id="node10" class="node"><title>Node10</title>
<g id="a_node10"><a xlink:href="sd_date_8h.html" target="_top" xlink:title="sdDate.h">
<polygon fill="white" stroke="black" points="142,-56.5 142,-75.5 198,-75.5 198,-56.5 142,-56.5"/>
<text text-anchor="middle" x="170" y="-63.5" font-family="Helvetica,sans-Serif" font-size="10.00">sdDate.h</text>
</a>
</g>
</g>
<!-- Node9&#45;&gt;Node10 -->
<g id="edge16" class="edge"><title>Node9&#45;&gt;Node10</title>
<path fill="none" stroke="midnightblue" d="M170,-112.083C170,-105.006 170,-94.8611 170,-85.9865"/>
<polygon fill="midnightblue" stroke="midnightblue" points="173.5,-85.751 170,-75.7511 166.5,-85.7511 173.5,-85.751"/>
</g>
<!-- Node10&#45;&gt;Node3 -->
<g id="edge20" class="edge"><title>Node10&#45;&gt;Node3</title>
<path fill="none" stroke="midnightblue" d="M168.679,-56.083C167.619,-48.9272 166.094,-38.6353 164.769,-29.6911"/>
<polygon fill="midnightblue" stroke="midnightblue" points="168.224,-29.1302 163.296,-19.7511 161.3,-30.1561 168.224,-29.1302"/>
</g>
<!-- Node10&#45;&gt;Node6 -->
<g id="edge19" class="edge"><title>Node10&#45;&gt;Node6</title>
<path fill="none" stroke="midnightblue" d="M194.719,-56.4435C222.539,-46.8133 267.682,-31.1868 297.108,-21.0011"/>
<polygon fill="midnightblue" stroke="midnightblue" points="298.502,-24.2225 306.807,-17.6439 296.212,-17.6076 298.502,-24.2225"/>
</g>
<!-- Node10&#45;&gt;Node8 -->
<g id="edge17" class="edge"><title>Node10&#45;&gt;Node8</title>
<path fill="none" stroke="midnightblue" d="M156.022,-56.324C142.45,-47.9002 121.62,-34.9709 105.675,-25.0741"/>
<polygon fill="midnightblue" stroke="midnightblue" points="107.286,-21.9544 96.9434,-19.6545 103.594,-27.9019 107.286,-21.9544"/>
</g>
<!-- Node11 -->
<g id="node11" class="node"><title>Node11</title>
<polygon fill="white" stroke="#bfbfbf" points="205,-0.5 205,-19.5 243,-19.5 243,-0.5 205,-0.5"/>
<text text-anchor="middle" x="224" y="-7.5" font-family="Helvetica,sans-Serif" font-size="10.00">ctime</text>
</g>
<!-- Node10&#45;&gt;Node11 -->
<g id="edge18" class="edge"><title>Node10&#45;&gt;Node11</title>
<path fill="none" stroke="midnightblue" d="M178.917,-56.083C186.78,-48.2195 198.431,-36.5688 207.919,-27.0813"/>
<polygon fill="midnightblue" stroke="midnightblue" points="210.653,-29.2971 215.249,-19.7511 205.703,-24.3473 210.653,-29.2971"/>
</g>
<!-- Node12&#45;&gt;Node5 -->
<g id="edge24" class="edge"><title>Node12&#45;&gt;Node5</title>
<path fill="none" stroke="midnightblue" d="M364.853,-224.439C380.886,-217.324 400.871,-205.507 411,-188 429.542,-155.951 425.42,-110.763 421.036,-85.6601"/>
<polygon fill="midnightblue" stroke="midnightblue" points="424.435,-84.8035 419.084,-75.6593 417.565,-86.1446 424.435,-84.8035"/>
</g>
<!-- Node12&#45;&gt;Node6 -->
<g id="edge23" class="edge"><title>Node12&#45;&gt;Node6</title>
<path fill="none" stroke="midnightblue" d="M326.63,-224.33C315.12,-216.469 299.811,-203.722 293,-188 269.239,-133.153 299.386,-61.488 316.165,-28.7301"/>
<polygon fill="midnightblue" stroke="midnightblue" points="319.269,-30.3479 320.869,-19.8746 313.087,-27.0642 319.269,-30.3479"/>
</g>
<!-- Node13 -->
<g id="node13" class="node"><title>Node13</title>
<polygon fill="white" stroke="#bfbfbf" points="592.5,-56.5 592.5,-75.5 621.5,-75.5 621.5,-56.5 592.5,-56.5"/>
<text text-anchor="middle" x="607" y="-63.5" font-family="Helvetica,sans-Serif" font-size="10.00">set</text>
</g>
<!-- Node12&#45;&gt;Node13 -->
<g id="edge22" class="edge"><title>Node12&#45;&gt;Node13</title>
<path fill="none" stroke="midnightblue" d="M374.356,-224.484C437.172,-207.74 569.209,-168.939 597,-132 606.966,-118.753 608.844,-99.6252 608.603,-85.5474"/>
<polygon fill="midnightblue" stroke="midnightblue" points="612.097,-85.348 608.069,-75.5489 605.107,-85.7213 612.097,-85.348"/>
</g>
<!-- Node14 -->
<g id="node14" class="node"><title>Node14</title>
<g id="a_node14"><a xlink:href="sd_entity_8h.html" target="_top" xlink:title="sdEntity.h">
<polygon fill="white" stroke="black" points="530,-112.5 530,-131.5 588,-131.5 588,-112.5 530,-112.5"/>
<text text-anchor="middle" x="559" y="-119.5" font-family="Helvetica,sans-Serif" font-size="10.00">sdEntity.h</text>
</a>
</g>
</g>
<!-- Node12&#45;&gt;Node14 -->
<g id="edge25" class="edge"><title>Node12&#45;&gt;Node14</title>
<path fill="none" stroke="midnightblue" d="M362.201,-224.485C383.231,-215.864 416.242,-201.863 444,-188 476.64,-171.699 513.122,-150.558 536.067,-136.886"/>
<polygon fill="midnightblue" stroke="midnightblue" points="537.955,-139.835 544.734,-131.692 534.357,-133.83 537.955,-139.835"/>
</g>
<!-- Node12&#45;&gt;Node15 -->
<g id="edge30" class="edge"><title>Node12&#45;&gt;Node15</title>
<path fill="none" stroke="midnightblue" d="M342.816,-224.083C344.274,-216.927 346.371,-206.635 348.193,-197.691"/>
<polygon fill="midnightblue" stroke="midnightblue" points="351.651,-198.248 350.217,-187.751 344.792,-196.851 351.651,-198.248"/>
</g>
<!-- Node14&#45;&gt;Node2 -->
<g id="edge28" class="edge"><title>Node14&#45;&gt;Node2</title>
<path fill="none" stroke="midnightblue" d="M559,-112.368C559,-94.617 559,-53.6664 559,-29.5974"/>
<polygon fill="midnightblue" stroke="midnightblue" points="562.5,-29.5914 559,-19.5914 555.5,-29.5915 562.5,-29.5914"/>
</g>
<!-- Node14&#45;&gt;Node5 -->
<g id="edge29" class="edge"><title>Node14&#45;&gt;Node5</title>
<path fill="none" stroke="midnightblue" d="M536.5,-112.444C512.923,-103.478 475.678,-89.314 449.036,-79.1827"/>
<polygon fill="midnightblue" stroke="midnightblue" points="449.986,-75.7995 439.395,-75.5164 447.498,-82.3424 449.986,-75.7995"/>
</g>
<!-- Node14&#45;&gt;Node6 -->
<g id="edge27" class="edge"><title>Node14&#45;&gt;Node6</title>
<path fill="none" stroke="midnightblue" d="M547.462,-112.467C528.934,-99.0608 491.066,-72.8564 456,-56 422.555,-39.9226 381.82,-26.7844 354.964,-18.9401"/>
<polygon fill="midnightblue" stroke="midnightblue" points="355.629,-15.49 345.052,-16.1016 353.702,-22.2195 355.629,-15.49"/>
</g>
<!-- Node14&#45;&gt;Node13 -->
<g id="edge26" class="edge"><title>Node14&#45;&gt;Node13</title>
<path fill="none" stroke="midnightblue" d="M566.926,-112.083C573.846,-104.298 584.065,-92.8015 592.452,-83.3665"/>
<polygon fill="midnightblue" stroke="midnightblue" points="595.194,-85.5505 599.221,-75.7511 589.962,-80.8999 595.194,-85.5505"/>
</g>
<!-- Node15&#45;&gt;Node5 -->
<g id="edge33" class="edge"><title>Node15&#45;&gt;Node5</title>
<path fill="none" stroke="midnightblue" d="M357.1,-168.368C367.78,-150.296 392.668,-108.176 406.773,-84.3074"/>
<polygon fill="midnightblue" stroke="midnightblue" points="409.849,-85.9813 411.923,-75.5914 403.823,-82.4201 409.849,-85.9813"/>
</g>
<!-- Node15&#45;&gt;Node6 -->
<g id="edge31" class="edge"><title>Node15&#45;&gt;Node6</title>
<path fill="none" stroke="midnightblue" d="M350.602,-168.075C346.51,-141.945 334.491,-65.2106 328.91,-29.577"/>
<polygon fill="midnightblue" stroke="midnightblue" points="332.347,-28.906 327.342,-19.5681 325.432,-29.9893 332.347,-28.906"/>
</g>
<!-- Node15&#45;&gt;Node8 -->
<g id="edge32" class="edge"><title>Node15&#45;&gt;Node8</title>
<path fill="none" stroke="midnightblue" d="M301.834,-171.891C246.201,-165.318 160.986,-152.274 136,-132 103.9,-105.953 90.7282,-56.5987 85.7436,-29.6715"/>
<polygon fill="midnightblue" stroke="midnightblue" points="89.1683,-28.9291 84.0773,-19.6376 82.2629,-30.076 89.1683,-28.9291"/>
</g>
<!-- Node15&#45;&gt;Node14 -->
<g id="edge34" class="edge"><title>Node15&#45;&gt;Node14</title>
<path fill="none" stroke="midnightblue" d="M384.8,-168.444C421.427,-158.889 480.682,-143.431 519.743,-133.241"/>
<polygon fill="midnightblue" stroke="midnightblue" points="520.908,-136.554 529.701,-130.643 519.141,-129.781 520.908,-136.554"/>
</g>
<!-- Node16&#45;&gt;Node5 -->
<g id="edge38" class="edge"><title>Node16&#45;&gt;Node5</title>
<path fill="none" stroke="midnightblue" d="M460.388,-224.274C458.776,-204.06 453.569,-152.65 440,-112 436.84,-102.533 431.947,-92.5948 427.485,-84.4729"/>
<polygon fill="midnightblue" stroke="midnightblue" points="430.417,-82.5497 422.402,-75.6207 424.347,-86.0355 430.417,-82.5497"/>
</g>
<!-- Node16&#45;&gt;Node6 -->
<g id="edge37" class="edge"><title>Node16&#45;&gt;Node6</title>
<path fill="none" stroke="midnightblue" d="M481.055,-224.452C537.225,-199.382 688.288,-123.551 630,-56 594.682,-15.0691 424.77,-10.742 355.495,-10.7158"/>
<polygon fill="midnightblue" stroke="midnightblue" points="355.268,-7.21632 345.277,-10.7436 355.287,-14.2163 355.268,-7.21632"/>
</g>
<!-- Node16&#45;&gt;Node15 -->
<g id="edge39" class="edge"><title>Node16&#45;&gt;Node15</title>
<path fill="none" stroke="midnightblue" d="M443.487,-224.324C425.928,-215.625 398.669,-202.12 378.469,-192.113"/>
<polygon fill="midnightblue" stroke="midnightblue" points="379.984,-188.958 369.469,-187.655 376.876,-195.23 379.984,-188.958"/>
</g>
</g>
</svg>
