<?xml version="1.0" encoding="UTF-8" standalone="no"?>
<!DOCTYPE svg PUBLIC "-//W3C//DTD SVG 1.1//EN"
 "http://www.w3.org/Graphics/SVG/1.1/DTD/svg11.dtd">
<!-- Generated by graphviz version 2.34.0 (20131206.1153)
 -->
<!-- Title: /Users/lossius/dev/spatdiflib/src/sdSaver.h Pages: 1 -->
<svg width="583pt" height="376pt"
 viewBox="0.00 0.00 583.00 376.00" xmlns="http://www.w3.org/2000/svg" xmlns:xlink="http://www.w3.org/1999/xlink">
<g id="graph0" class="graph" transform="scale(1 1) rotate(0) translate(4 372)">
<title>/Users/lossius/dev/spatdiflib/src/sdSaver.h</title>
<polygon fill="white" stroke="white" points="-4,4 -4,-372 579,-372 579,4 -4,4"/>
<!-- Node1 -->
<g id="node1" class="node"><title>Node1</title>
<polygon fill="#bfbfbf" stroke="black" points="93.5,-337 93.5,-367 212.5,-367 212.5,-337 93.5,-337"/>
<text text-anchor="start" x="101.5" y="-355" font-family="Helvetica,sans-Serif" font-size="10.00">/Users/lossius/dev</text>
<text text-anchor="middle" x="153" y="-344" font-family="Helvetica,sans-Serif" font-size="10.00">/spatdiflib/src/sdSaver.h</text>
</g>
<!-- Node2 -->
<g id="node2" class="node"><title>Node2</title>
<polygon fill="white" stroke="#bfbfbf" points="250,-0.5 250,-19.5 288,-19.5 288,-0.5 250,-0.5"/>
<text text-anchor="middle" x="269" y="-7.5" font-family="Helvetica,sans-Serif" font-size="10.00">string</text>
</g>
<!-- Node1&#45;&gt;Node2 -->
<g id="edge1" class="edge"><title>Node1&#45;&gt;Node2</title>
<path fill="none" stroke="midnightblue" d="M105.01,-336.951C60.1397,-320.513 0,-288.501 0,-235 0,-235 0,-235 0,-121 0,-76.2146 36.9831,-76.109 77,-56 105.381,-41.7384 193.483,-24.5106 239.827,-16.1083"/>
<polygon fill="midnightblue" stroke="midnightblue" points="240.623,-19.5214 249.849,-14.3111 239.388,-12.6313 240.623,-19.5214"/>
</g>
<!-- Node3 -->
<g id="node3" class="node"><title>Node3</title>
<g id="a_node3"><a xlink:href="sd_scene_8h.html" target="_top" xlink:title="sdScene.h">
<polygon fill="white" stroke="black" points="275,-280.5 275,-299.5 337,-299.5 337,-280.5 275,-280.5"/>
<text text-anchor="middle" x="306" y="-287.5" font-family="Helvetica,sans-Serif" font-size="10.00">sdScene.h</text>
</a>
</g>
</g>
<!-- Node1&#45;&gt;Node3 -->
<g id="edge2" class="edge"><title>Node1&#45;&gt;Node3</title>
<path fill="none" stroke="midnightblue" d="M188.872,-336.933C214.915,-326.72 249.808,-313.036 274.721,-303.266"/>
<polygon fill="midnightblue" stroke="midnightblue" points="276.038,-306.509 284.07,-299.6 273.482,-299.993 276.038,-306.509"/>
</g>
<!-- Node3&#45;&gt;Node2 -->
<g id="edge3" class="edge"><title>Node3&#45;&gt;Node2</title>
<path fill="none" stroke="midnightblue" d="M315.062,-280.407C334.107,-261.273 375.685,-213.264 365,-168 352.214,-113.836 340.201,-102.085 309,-56 302.056,-45.7431 292.97,-35.3398 285.213,-27.1234"/>
<polygon fill="midnightblue" stroke="midnightblue" points="287.504,-24.459 278.027,-19.7223 282.482,-29.3351 287.504,-24.459"/>
</g>
<!-- Node4 -->
<g id="node4" class="node"><title>Node4</title>
<polygon fill="white" stroke="#bfbfbf" points="498.5,-0.5 498.5,-19.5 539.5,-19.5 539.5,-0.5 498.5,-0.5"/>
<text text-anchor="middle" x="519" y="-7.5" font-family="Helvetica,sans-Serif" font-size="10.00">vector</text>
</g>
<!-- Node3&#45;&gt;Node4 -->
<g id="edge4" class="edge"><title>Node3&#45;&gt;Node4</title>
<path fill="none" stroke="midnightblue" d="M337.121,-283.131C407.93,-268.89 575,-229.897 575,-179 575,-179 575,-179 575,-121 575,-84.4358 550.123,-47.747 533.531,-27.3424"/>
<polygon fill="midnightblue" stroke="midnightblue" points="536.151,-25.0212 527.023,-19.6425 530.805,-29.5395 536.151,-25.0212"/>
</g>
<!-- Node5 -->
<g id="node5" class="node"><title>Node5</title>
<g id="a_node5"><a xlink:href="sd_const_8h.html" target="_top" xlink:title="sdConst.h">
<polygon fill="white" stroke="black" points="223,-56.5 223,-75.5 283,-75.5 283,-56.5 223,-56.5"/>
<text text-anchor="middle" x="253" y="-63.5" font-family="Helvetica,sans-Serif" font-size="10.00">sdConst.h</text>
</a>
</g>
</g>
<!-- Node3&#45;&gt;Node5 -->
<g id="edge5" class="edge"><title>Node3&#45;&gt;Node5</title>
<path fill="none" stroke="midnightblue" d="M298.691,-280.275C285.281,-263.63 257.187,-225.636 247,-188 237.464,-152.772 243.612,-109.709 248.563,-85.6171"/>
<polygon fill="midnightblue" stroke="midnightblue" points="252.013,-86.225 250.759,-75.7047 245.179,-84.7113 252.013,-86.225"/>
</g>
<!-- Node8 -->
<g id="node8" class="node"><title>Node8</title>
<g id="a_node8"><a xlink:href="sd_info_8h.html" target="_top" xlink:title="sdInfo.h">
<polygon fill="white" stroke="black" points="397,-112.5 397,-131.5 447,-131.5 447,-112.5 397,-112.5"/>
<text text-anchor="middle" x="422" y="-119.5" font-family="Helvetica,sans-Serif" font-size="10.00">sdInfo.h</text>
</a>
</g>
</g>
<!-- Node3&#45;&gt;Node8 -->
<g id="edge9" class="edge"><title>Node3&#45;&gt;Node8</title>
<path fill="none" stroke="midnightblue" d="M337.083,-281.526C357.471,-275.004 383.037,-263.446 398,-244 421.104,-213.974 423.737,-167.664 423.159,-141.915"/>
<polygon fill="midnightblue" stroke="midnightblue" points="426.645,-141.508 422.729,-131.663 419.651,-141.801 426.645,-141.508"/>
</g>
<!-- Node11 -->
<g id="node11" class="node"><title>Node11</title>
<g id="a_node11"><a xlink:href="sd_entity_core_8h.html" target="_top" xlink:title="sdEntityCore.h">
<polygon fill="white" stroke="black" points="112,-224.5 112,-243.5 190,-243.5 190,-224.5 112,-224.5"/>
<text text-anchor="middle" x="151" y="-231.5" font-family="Helvetica,sans-Serif" font-size="10.00">sdEntityCore.h</text>
</a>
</g>
</g>
<!-- Node3&#45;&gt;Node11 -->
<g id="edge18" class="edge"><title>Node3&#45;&gt;Node11</title>
<path fill="none" stroke="midnightblue" d="M281.44,-280.444C255.477,-271.399 214.332,-257.064 185.203,-246.916"/>
<polygon fill="midnightblue" stroke="midnightblue" points="186.04,-243.501 175.445,-243.516 183.737,-250.112 186.04,-243.501"/>
</g>
<!-- Node14 -->
<g id="node14" class="node"><title>Node14</title>
<g id="a_node14"><a xlink:href="sd_entity_extension_8h.html" target="_top" xlink:title="sdEntityExtension.h">
<polygon fill="white" stroke="black" points="256,-168.5 256,-187.5 356,-187.5 356,-168.5 256,-168.5"/>
<text text-anchor="middle" x="306" y="-175.5" font-family="Helvetica,sans-Serif" font-size="10.00">sdEntityExtension.h</text>
</a>
</g>
</g>
<!-- Node3&#45;&gt;Node14 -->
<g id="edge32" class="edge"><title>Node3&#45;&gt;Node14</title>
<path fill="none" stroke="midnightblue" d="M306,-280.368C306,-262.617 306,-221.666 306,-197.597"/>
<polygon fill="midnightblue" stroke="midnightblue" points="309.5,-197.591 306,-187.591 302.5,-197.591 309.5,-197.591"/>
</g>
<!-- Node5&#45;&gt;Node2 -->
<g id="edge6" class="edge"><title>Node5&#45;&gt;Node2</title>
<path fill="none" stroke="midnightblue" d="M255.642,-56.083C257.786,-48.8486 260.879,-38.4087 263.549,-29.3968"/>
<polygon fill="midnightblue" stroke="midnightblue" points="266.922,-30.3334 266.407,-19.7511 260.21,-28.3447 266.922,-30.3334"/>
</g>
<!-- Node6 -->
<g id="node6" class="node"><title>Node6</title>
<polygon fill="white" stroke="#bfbfbf" points="147,-0.5 147,-19.5 199,-19.5 199,-0.5 147,-0.5"/>
<text text-anchor="middle" x="173" y="-7.5" font-family="Helvetica,sans-Serif" font-size="10.00">iostream</text>
</g>
<!-- Node5&#45;&gt;Node6 -->
<g id="edge7" class="edge"><title>Node5&#45;&gt;Node6</title>
<path fill="none" stroke="midnightblue" d="M240.147,-56.324C227.784,-47.979 208.87,-35.2122 194.263,-25.3524"/>
<polygon fill="midnightblue" stroke="midnightblue" points="196.068,-22.3483 185.821,-19.6545 192.152,-28.1503 196.068,-22.3483"/>
</g>
<!-- Node7 -->
<g id="node7" class="node"><title>Node7</title>
<polygon fill="white" stroke="#bfbfbf" points="323,-0.5 323,-19.5 373,-19.5 373,-0.5 323,-0.5"/>
<text text-anchor="middle" x="348" y="-7.5" font-family="Helvetica,sans-Serif" font-size="10.00">sstream</text>
</g>
<!-- Node5&#45;&gt;Node7 -->
<g id="edge8" class="edge"><title>Node5&#45;&gt;Node7</title>
<path fill="none" stroke="midnightblue" d="M268.263,-56.324C283.221,-47.8215 306.255,-34.7288 323.727,-24.7975"/>
<polygon fill="midnightblue" stroke="midnightblue" points="325.81,-27.639 332.774,-19.6545 322.351,-21.5534 325.81,-27.639"/>
</g>
<!-- Node8&#45;&gt;Node2 -->
<g id="edge10" class="edge"><title>Node8&#45;&gt;Node2</title>
<path fill="none" stroke="midnightblue" d="M415.961,-112.442C406.13,-99.0005 385.49,-72.7492 363,-56 342.981,-41.0917 317.241,-29.1834 297.759,-21.371"/>
<polygon fill="midnightblue" stroke="midnightblue" points="298.794,-18.0184 288.205,-17.6648 296.263,-24.5446 298.794,-18.0184"/>
</g>
<!-- Node8&#45;&gt;Node4 -->
<g id="edge11" class="edge"><title>Node8&#45;&gt;Node4</title>
<path fill="none" stroke="midnightblue" d="M436.082,-112.254C448.632,-103.984 466.975,-90.6818 480,-76 492.667,-61.7226 503.498,-42.7602 510.509,-29.0037"/>
<polygon fill="midnightblue" stroke="midnightblue" points="513.83,-30.1818 515.092,-19.6625 507.545,-27.0984 513.83,-30.1818"/>
</g>
<!-- Node8&#45;&gt;Node5 -->
<g id="edge12" class="edge"><title>Node8&#45;&gt;Node5</title>
<path fill="none" stroke="midnightblue" d="M396.699,-112.916C368.243,-103.823 321.788,-88.9795 289.427,-78.6395"/>
<polygon fill="midnightblue" stroke="midnightblue" points="290.464,-75.2963 279.873,-75.5865 288.333,-81.9642 290.464,-75.2963"/>
</g>
<!-- Node9 -->
<g id="node9" class="node"><title>Node9</title>
<g id="a_node9"><a xlink:href="sd_date_8h.html" target="_top" xlink:title="sdDate.h">
<polygon fill="white" stroke="black" points="415,-56.5 415,-75.5 471,-75.5 471,-56.5 415,-56.5"/>
<text text-anchor="middle" x="443" y="-63.5" font-family="Helvetica,sans-Serif" font-size="10.00">sdDate.h</text>
</a>
</g>
</g>
<!-- Node8&#45;&gt;Node9 -->
<g id="edge13" class="edge"><title>Node8&#45;&gt;Node9</title>
<path fill="none" stroke="midnightblue" d="M425.468,-112.083C428.312,-104.77 432.429,-94.1814 435.96,-85.1034"/>
<polygon fill="midnightblue" stroke="midnightblue" points="439.234,-86.3397 439.597,-75.7511 432.71,-83.8025 439.234,-86.3397"/>
</g>
<!-- Node9&#45;&gt;Node2 -->
<g id="edge16" class="edge"><title>Node9&#45;&gt;Node2</title>
<path fill="none" stroke="midnightblue" d="M415.429,-56.4435C383.436,-46.5146 330.903,-30.2114 298.222,-20.069"/>
<polygon fill="midnightblue" stroke="midnightblue" points="298.949,-16.6298 288.36,-17.0084 296.874,-23.3152 298.949,-16.6298"/>
</g>
<!-- Node9&#45;&gt;Node4 -->
<g id="edge14" class="edge"><title>Node9&#45;&gt;Node4</title>
<path fill="none" stroke="midnightblue" d="M455.211,-56.324C466.776,-48.1066 484.375,-35.6017 498.161,-25.8069"/>
<polygon fill="midnightblue" stroke="midnightblue" points="500.443,-28.4791 506.567,-19.8339 496.388,-22.7729 500.443,-28.4791"/>
</g>
<!-- Node9&#45;&gt;Node7 -->
<g id="edge17" class="edge"><title>Node9&#45;&gt;Node7</title>
<path fill="none" stroke="midnightblue" d="M427.737,-56.324C412.779,-47.8215 389.745,-34.7288 372.273,-24.7975"/>
<polygon fill="midnightblue" stroke="midnightblue" points="373.649,-21.5534 363.226,-19.6545 370.19,-27.639 373.649,-21.5534"/>
</g>
<!-- Node10 -->
<g id="node10" class="node"><title>Node10</title>
<polygon fill="white" stroke="#bfbfbf" points="424,-0.5 424,-19.5 462,-19.5 462,-0.5 424,-0.5"/>
<text text-anchor="middle" x="443" y="-7.5" font-family="Helvetica,sans-Serif" font-size="10.00">ctime</text>
</g>
<!-- Node9&#45;&gt;Node10 -->
<g id="edge15" class="edge"><title>Node9&#45;&gt;Node10</title>
<path fill="none" stroke="midnightblue" d="M443,-56.083C443,-49.0059 443,-38.8611 443,-29.9865"/>
<polygon fill="midnightblue" stroke="midnightblue" points="446.5,-29.751 443,-19.7511 439.5,-29.7511 446.5,-29.751"/>
</g>
<!-- Node11&#45;&gt;Node2 -->
<g id="edge20" class="edge"><title>Node11&#45;&gt;Node2</title>
<path fill="none" stroke="midnightblue" d="M142.812,-224.317C117.928,-196.874 47.4302,-110.596 90,-56 99.27,-44.1111 191.643,-25.3836 239.928,-16.2967"/>
<polygon fill="midnightblue" stroke="midnightblue" points="240.605,-19.731 249.795,-14.4587 239.323,-12.8494 240.605,-19.731"/>
</g>
<!-- Node11&#45;&gt;Node5 -->
<g id="edge21" class="edge"><title>Node11&#45;&gt;Node5</title>
<path fill="none" stroke="midnightblue" d="M154.637,-224.401C163.428,-204.028 187.103,-151.564 214,-112 220.888,-101.869 229.755,-91.4747 237.294,-83.2321"/>
<polygon fill="midnightblue" stroke="midnightblue" points="239.98,-85.4845 244.267,-75.7959 234.874,-80.6962 239.98,-85.4845"/>
</g>
<!-- Node12 -->
<g id="node12" class="node"><title>Node12</title>
<polygon fill="white" stroke="#bfbfbf" points="99.5,-56.5 99.5,-75.5 128.5,-75.5 128.5,-56.5 99.5,-56.5"/>
<text text-anchor="middle" x="114" y="-63.5" font-family="Helvetica,sans-Serif" font-size="10.00">set</text>
</g>
<!-- Node11&#45;&gt;Node12 -->
<g id="edge19" class="edge"><title>Node11&#45;&gt;Node12</title>
<path fill="none" stroke="midnightblue" d="M144.255,-224.467C131.599,-207.845 104.691,-169.463 95,-132 90.8236,-115.855 97.1084,-97.646 103.544,-84.6168"/>
<polygon fill="midnightblue" stroke="midnightblue" points="106.643,-86.2437 108.324,-75.783 100.486,-82.9124 106.643,-86.2437"/>
</g>
<!-- Node13 -->
<g id="node13" class="node"><title>Node13</title>
<g id="a_node13"><a xlink:href="sd_entity_8h.html" target="_top" xlink:title="sdEntity.h">
<polygon fill="white" stroke="black" points="104,-112.5 104,-131.5 162,-131.5 162,-112.5 104,-112.5"/>
<text text-anchor="middle" x="133" y="-119.5" font-family="Helvetica,sans-Serif" font-size="10.00">sdEntity.h</text>
</a>
</g>
</g>
<!-- Node11&#45;&gt;Node13 -->
<g id="edge22" class="edge"><title>Node11&#45;&gt;Node13</title>
<path fill="none" stroke="midnightblue" d="M149.588,-224.368C146.683,-206.617 139.982,-165.666 136.043,-141.597"/>
<polygon fill="midnightblue" stroke="midnightblue" points="139.475,-140.895 134.406,-131.591 132.567,-142.025 139.475,-140.895"/>
</g>
<!-- Node11&#45;&gt;Node14 -->
<g id="edge27" class="edge"><title>Node11&#45;&gt;Node14</title>
<path fill="none" stroke="midnightblue" d="M175.56,-224.444C201.523,-215.399 242.668,-201.064 271.797,-190.916"/>
<polygon fill="midnightblue" stroke="midnightblue" points="273.263,-194.112 281.555,-187.516 270.96,-187.501 273.263,-194.112"/>
</g>
<!-- Node13&#45;&gt;Node2 -->
<g id="edge24" class="edge"><title>Node13&#45;&gt;Node2</title>
<path fill="none" stroke="midnightblue" d="M143.672,-112.368C166.711,-93.7334 221.36,-49.5324 250.289,-26.1338"/>
<polygon fill="midnightblue" stroke="midnightblue" points="252.804,-28.6014 258.378,-19.5914 248.402,-23.1589 252.804,-28.6014"/>
</g>
<!-- Node13&#45;&gt;Node5 -->
<g id="edge26" class="edge"><title>Node13&#45;&gt;Node5</title>
<path fill="none" stroke="midnightblue" d="M152.014,-112.444C171.588,-103.636 202.308,-89.8116 224.729,-79.722"/>
<polygon fill="midnightblue" stroke="midnightblue" points="226.392,-82.8119 234.075,-75.5164 223.519,-76.4284 226.392,-82.8119"/>
</g>
<!-- Node13&#45;&gt;Node6 -->
<g id="edge25" class="edge"><title>Node13&#45;&gt;Node6</title>
<path fill="none" stroke="midnightblue" d="M136.139,-112.368C142.623,-94.5366 157.62,-53.2953 166.356,-29.2717"/>
<polygon fill="midnightblue" stroke="midnightblue" points="169.748,-30.1855 169.876,-19.5914 163.169,-27.7932 169.748,-30.1855"/>
</g>
<!-- Node13&#45;&gt;Node12 -->
<g id="edge23" class="edge"><title>Node13&#45;&gt;Node12</title>
<path fill="none" stroke="midnightblue" d="M129.863,-112.083C127.317,-104.849 123.644,-94.4087 120.473,-85.3968"/>
<polygon fill="midnightblue" stroke="midnightblue" points="123.7,-84.0225 117.079,-75.7511 117.097,-86.3459 123.7,-84.0225"/>
</g>
<!-- Node14&#45;&gt;Node2 -->
<g id="edge28" class="edge"><title>Node14&#45;&gt;Node2</title>
<path fill="none" stroke="midnightblue" d="M306.044,-168.278C305.92,-148.074 304.311,-96.6838 292,-56 289.109,-46.4476 284.247,-36.4996 279.735,-28.3935"/>
<polygon fill="midnightblue" stroke="midnightblue" points="282.639,-26.4265 274.562,-19.5698 276.6,-29.9668 282.639,-26.4265"/>
</g>
<!-- Node14&#45;&gt;Node4 -->
<g id="edge29" class="edge"><title>Node14&#45;&gt;Node4</title>
<path fill="none" stroke="midnightblue" d="M356.109,-169.623C386.883,-163.315 426.012,-151.961 456,-132 482.812,-114.153 487.363,-104.691 502,-76 509.454,-61.3886 513.849,-43.2161 516.296,-29.8039"/>
<polygon fill="midnightblue" stroke="midnightblue" points="519.765,-30.2722 517.917,-19.8398 512.856,-29.1476 519.765,-30.2722"/>
</g>
<!-- Node14&#45;&gt;Node5 -->
<g id="edge30" class="edge"><title>Node14&#45;&gt;Node5</title>
<path fill="none" stroke="midnightblue" d="M301.841,-168.368C293.172,-150.376 273.02,-108.55 261.493,-84.6267"/>
<polygon fill="midnightblue" stroke="midnightblue" points="264.633,-83.081 257.14,-75.5914 258.327,-86.1195 264.633,-83.081"/>
</g>
<!-- Node14&#45;&gt;Node13 -->
<g id="edge31" class="edge"><title>Node14&#45;&gt;Node13</title>
<path fill="none" stroke="midnightblue" d="M278.588,-168.444C249.231,-159.28 202.481,-144.688 169.904,-134.519"/>
<polygon fill="midnightblue" stroke="midnightblue" points="170.873,-131.155 160.284,-131.516 168.787,-137.837 170.873,-131.155"/>
</g>
</g>
</svg>
