<?xml version="1.0" encoding="UTF-8" standalone="no"?>
<!DOCTYPE svg PUBLIC "-//W3C//DTD SVG 1.1//EN"
 "http://www.w3.org/Graphics/SVG/1.1/DTD/svg11.dtd">
<!-- Generated by graphviz version 2.34.0 (20131206.1153)
 -->
<!-- Title: /Users/lossius/dev/spatdiflib/src/sdScene.h Pages: 1 -->
<svg width="520pt" height="320pt"
 viewBox="0.00 0.00 520.00 320.00" xmlns="http://www.w3.org/2000/svg" xmlns:xlink="http://www.w3.org/1999/xlink">
<g id="graph0" class="graph" transform="scale(1 1) rotate(0) translate(4 316)">
<title>/Users/lossius/dev/spatdiflib/src/sdScene.h</title>
<polygon fill="white" stroke="white" points="-4,4 -4,-316 516,-316 516,4 -4,4"/>
<!-- Node1 -->
<g id="node1" class="node"><title>Node1</title>
<polygon fill="#bfbfbf" stroke="black" points="204,-281 204,-311 324,-311 324,-281 204,-281"/>
<text text-anchor="start" x="212" y="-299" font-family="Helvetica,sans-Serif" font-size="10.00">/Users/lossius/dev</text>
<text text-anchor="middle" x="264" y="-288" font-family="Helvetica,sans-Serif" font-size="10.00">/spatdiflib/src/sdScene.h</text>
</g>
<!-- Node2 -->
<g id="node2" class="node"><title>Node2</title>
<polygon fill="white" stroke="#bfbfbf" points="265,-0.5 265,-19.5 303,-19.5 303,-0.5 265,-0.5"/>
<text text-anchor="middle" x="284" y="-7.5" font-family="Helvetica,sans-Serif" font-size="10.00">string</text>
</g>
<!-- Node1&#45;&gt;Node2 -->
<g id="edge1" class="edge"><title>Node1&#45;&gt;Node2</title>
<path fill="none" stroke="midnightblue" d="M324.034,-292.377C397.43,-285.573 512,-261.707 512,-179 512,-179 512,-179 512,-121 512,-86.6051 498.048,-75.9077 470,-56 463.55,-51.4221 363.751,-28.7494 313.068,-17.4392"/>
<polygon fill="midnightblue" stroke="midnightblue" points="313.572,-13.9657 303.05,-15.2088 312.051,-20.7984 313.572,-13.9657"/>
</g>
<!-- Node3 -->
<g id="node3" class="node"><title>Node3</title>
<polygon fill="white" stroke="#bfbfbf" points="35.5,-0.5 35.5,-19.5 76.5,-19.5 76.5,-0.5 35.5,-0.5"/>
<text text-anchor="middle" x="56" y="-7.5" font-family="Helvetica,sans-Serif" font-size="10.00">vector</text>
</g>
<!-- Node1&#45;&gt;Node3 -->
<g id="edge2" class="edge"><title>Node1&#45;&gt;Node3</title>
<path fill="none" stroke="midnightblue" d="M203.764,-293.972C125.847,-289.082 0,-267.486 0,-179 0,-179 0,-179 0,-121 0,-84.4358 24.8767,-47.747 41.4693,-27.3424"/>
<polygon fill="midnightblue" stroke="midnightblue" points="44.195,-29.5395 47.9766,-19.6425 38.8486,-25.0212 44.195,-29.5395"/>
</g>
<!-- Node4 -->
<g id="node4" class="node"><title>Node4</title>
<g id="a_node4"><a xlink:href="sd_const_8h.html" target="_top" xlink:title="sdConst.h">
<polygon fill="white" stroke="black" points="254,-56.5 254,-75.5 314,-75.5 314,-56.5 254,-56.5"/>
<text text-anchor="middle" x="284" y="-63.5" font-family="Helvetica,sans-Serif" font-size="10.00">sdConst.h</text>
</a>
</g>
</g>
<!-- Node1&#45;&gt;Node4 -->
<g id="edge3" class="edge"><title>Node1&#45;&gt;Node4</title>
<path fill="none" stroke="midnightblue" d="M265.251,-280.738C268.713,-241.277 278.419,-130.626 282.333,-86.0071"/>
<polygon fill="midnightblue" stroke="midnightblue" points="285.828,-86.2143 283.215,-75.9466 278.855,-85.6025 285.828,-86.2143"/>
</g>
<!-- Node7 -->
<g id="node7" class="node"><title>Node7</title>
<g id="a_node7"><a xlink:href="sd_info_8h.html" target="_top" xlink:title="sdInfo.h">
<polygon fill="white" stroke="black" points="107,-112.5 107,-131.5 157,-131.5 157,-112.5 107,-112.5"/>
<text text-anchor="middle" x="132" y="-119.5" font-family="Helvetica,sans-Serif" font-size="10.00">sdInfo.h</text>
</a>
</g>
</g>
<!-- Node1&#45;&gt;Node7 -->
<g id="edge7" class="edge"><title>Node1&#45;&gt;Node7</title>
<path fill="none" stroke="midnightblue" d="M241.718,-280.889C214.962,-262.735 170.73,-228.65 147,-188 138.698,-173.779 134.991,-155.303 133.335,-141.686"/>
<polygon fill="midnightblue" stroke="midnightblue" points="136.806,-141.213 132.372,-131.591 129.838,-141.878 136.806,-141.213"/>
</g>
<!-- Node10 -->
<g id="node10" class="node"><title>Node10</title>
<g id="a_node10"><a xlink:href="sd_entity_core_8h.html" target="_top" xlink:title="sdEntityCore.h">
<polygon fill="white" stroke="black" points="319,-224.5 319,-243.5 397,-243.5 397,-224.5 319,-224.5"/>
<text text-anchor="middle" x="358" y="-231.5" font-family="Helvetica,sans-Serif" font-size="10.00">sdEntityCore.h</text>
</a>
</g>
</g>
<!-- Node1&#45;&gt;Node10 -->
<g id="edge16" class="edge"><title>Node1&#45;&gt;Node10</title>
<path fill="none" stroke="midnightblue" d="M286.277,-280.781C301.293,-271.196 321.017,-258.606 335.98,-249.056"/>
<polygon fill="midnightblue" stroke="midnightblue" points="338.05,-251.886 344.596,-243.556 334.284,-245.986 338.05,-251.886"/>
</g>
<!-- Node13 -->
<g id="node13" class="node"><title>Node13</title>
<g id="a_node13"><a xlink:href="sd_entity_extension_8h.html" target="_top" xlink:title="sdEntityExtension.h">
<polygon fill="white" stroke="black" points="156,-168.5 156,-187.5 256,-187.5 256,-168.5 156,-168.5"/>
<text text-anchor="middle" x="206" y="-175.5" font-family="Helvetica,sans-Serif" font-size="10.00">sdEntityExtension.h</text>
</a>
</g>
</g>
<!-- Node1&#45;&gt;Node13 -->
<g id="edge30" class="edge"><title>Node1&#45;&gt;Node13</title>
<path fill="none" stroke="midnightblue" d="M256.888,-280.776C246.295,-259.591 226.388,-219.776 214.862,-196.724"/>
<polygon fill="midnightblue" stroke="midnightblue" points="217.956,-195.086 210.353,-187.707 211.695,-198.217 217.956,-195.086"/>
</g>
<!-- Node4&#45;&gt;Node2 -->
<g id="edge4" class="edge"><title>Node4&#45;&gt;Node2</title>
<path fill="none" stroke="midnightblue" d="M284,-56.083C284,-49.0059 284,-38.8611 284,-29.9865"/>
<polygon fill="midnightblue" stroke="midnightblue" points="287.5,-29.751 284,-19.7511 280.5,-29.7511 287.5,-29.751"/>
</g>
<!-- Node5 -->
<g id="node5" class="node"><title>Node5</title>
<polygon fill="white" stroke="#bfbfbf" points="337,-0.5 337,-19.5 389,-19.5 389,-0.5 337,-0.5"/>
<text text-anchor="middle" x="363" y="-7.5" font-family="Helvetica,sans-Serif" font-size="10.00">iostream</text>
</g>
<!-- Node4&#45;&gt;Node5 -->
<g id="edge5" class="edge"><title>Node4&#45;&gt;Node5</title>
<path fill="none" stroke="midnightblue" d="M296.693,-56.324C308.901,-47.979 327.578,-35.2122 342.003,-25.3524"/>
<polygon fill="midnightblue" stroke="midnightblue" points="344.058,-28.1871 350.339,-19.6545 340.108,-22.4082 344.058,-28.1871"/>
</g>
<!-- Node6 -->
<g id="node6" class="node"><title>Node6</title>
<polygon fill="white" stroke="#bfbfbf" points="183,-0.5 183,-19.5 233,-19.5 233,-0.5 183,-0.5"/>
<text text-anchor="middle" x="208" y="-7.5" font-family="Helvetica,sans-Serif" font-size="10.00">sstream</text>
</g>
<!-- Node4&#45;&gt;Node6 -->
<g id="edge6" class="edge"><title>Node4&#45;&gt;Node6</title>
<path fill="none" stroke="midnightblue" d="M271.789,-56.324C260.224,-48.1066 242.625,-35.6017 228.839,-25.8069"/>
<polygon fill="midnightblue" stroke="midnightblue" points="230.612,-22.7729 220.433,-19.8339 226.557,-28.4791 230.612,-22.7729"/>
</g>
<!-- Node7&#45;&gt;Node2 -->
<g id="edge8" class="edge"><title>Node7&#45;&gt;Node2</title>
<path fill="none" stroke="midnightblue" d="M142.036,-112.167C156.888,-99.2549 185.792,-74.7282 212,-56 227.643,-44.8218 246.036,-33.3528 260.316,-24.791"/>
<polygon fill="midnightblue" stroke="midnightblue" points="262.222,-27.7299 269.036,-19.6168 258.65,-21.7099 262.222,-27.7299"/>
</g>
<!-- Node7&#45;&gt;Node3 -->
<g id="edge9" class="edge"><title>Node7&#45;&gt;Node3</title>
<path fill="none" stroke="midnightblue" d="M124.228,-112.341C116.449,-103.496 104.327,-89.2244 95,-76 84.1201,-60.5743 73.1886,-42.0287 65.679,-28.7021"/>
<polygon fill="midnightblue" stroke="midnightblue" points="68.576,-26.7095 60.6609,-19.6666 62.4564,-30.1082 68.576,-26.7095"/>
</g>
<!-- Node7&#45;&gt;Node4 -->
<g id="edge10" class="edge"><title>Node7&#45;&gt;Node4</title>
<path fill="none" stroke="midnightblue" d="M156.085,-112.444C181.545,-103.399 221.894,-89.064 250.459,-78.9158"/>
<polygon fill="midnightblue" stroke="midnightblue" points="251.777,-82.1622 260.028,-75.5164 249.433,-75.5661 251.777,-82.1622"/>
</g>
<!-- Node8 -->
<g id="node8" class="node"><title>Node8</title>
<g id="a_node8"><a xlink:href="sd_date_8h.html" target="_top" xlink:title="sdDate.h">
<polygon fill="white" stroke="black" points="104,-56.5 104,-75.5 160,-75.5 160,-56.5 104,-56.5"/>
<text text-anchor="middle" x="132" y="-63.5" font-family="Helvetica,sans-Serif" font-size="10.00">sdDate.h</text>
</a>
</g>
</g>
<!-- Node7&#45;&gt;Node8 -->
<g id="edge11" class="edge"><title>Node7&#45;&gt;Node8</title>
<path fill="none" stroke="midnightblue" d="M132,-112.083C132,-105.006 132,-94.8611 132,-85.9865"/>
<polygon fill="midnightblue" stroke="midnightblue" points="135.5,-85.751 132,-75.7511 128.5,-85.7511 135.5,-85.751"/>
</g>
<!-- Node8&#45;&gt;Node2 -->
<g id="edge14" class="edge"><title>Node8&#45;&gt;Node2</title>
<path fill="none" stroke="midnightblue" d="M156.085,-56.4435C183.042,-46.8665 226.692,-31.3593 255.372,-21.1704"/>
<polygon fill="midnightblue" stroke="midnightblue" points="256.589,-24.4524 264.841,-17.8067 254.246,-17.8563 256.589,-24.4524"/>
</g>
<!-- Node8&#45;&gt;Node3 -->
<g id="edge12" class="edge"><title>Node8&#45;&gt;Node3</title>
<path fill="none" stroke="midnightblue" d="M119.789,-56.324C108.224,-48.1066 90.6246,-35.6017 76.8393,-25.8069"/>
<polygon fill="midnightblue" stroke="midnightblue" points="78.612,-22.7729 68.4329,-19.8339 74.5575,-28.4791 78.612,-22.7729"/>
</g>
<!-- Node8&#45;&gt;Node6 -->
<g id="edge15" class="edge"><title>Node8&#45;&gt;Node6</title>
<path fill="none" stroke="midnightblue" d="M144.211,-56.324C155.776,-48.1066 173.375,-35.6017 187.161,-25.8069"/>
<polygon fill="midnightblue" stroke="midnightblue" points="189.443,-28.4791 195.567,-19.8339 185.388,-22.7729 189.443,-28.4791"/>
</g>
<!-- Node9 -->
<g id="node9" class="node"><title>Node9</title>
<polygon fill="white" stroke="#bfbfbf" points="113,-0.5 113,-19.5 151,-19.5 151,-0.5 113,-0.5"/>
<text text-anchor="middle" x="132" y="-7.5" font-family="Helvetica,sans-Serif" font-size="10.00">ctime</text>
</g>
<!-- Node8&#45;&gt;Node9 -->
<g id="edge13" class="edge"><title>Node8&#45;&gt;Node9</title>
<path fill="none" stroke="midnightblue" d="M132,-56.083C132,-49.0059 132,-38.8611 132,-29.9865"/>
<polygon fill="midnightblue" stroke="midnightblue" points="135.5,-29.751 132,-19.7511 128.5,-29.7511 135.5,-29.751"/>
</g>
<!-- Node10&#45;&gt;Node2 -->
<g id="edge18" class="edge"><title>Node10&#45;&gt;Node2</title>
<path fill="none" stroke="midnightblue" d="M370.708,-224.239C381.962,-215.96 398.23,-202.652 409,-188 445.383,-138.501 487.326,-104.791 450,-56 441.584,-44.999 358.164,-26.3053 312.886,-16.8492"/>
<polygon fill="midnightblue" stroke="midnightblue" points="313.554,-13.4135 303.053,-14.8156 312.137,-20.2684 313.554,-13.4135"/>
</g>
<!-- Node10&#45;&gt;Node4 -->
<g id="edge19" class="edge"><title>Node10&#45;&gt;Node4</title>
<path fill="none" stroke="midnightblue" d="M354.021,-224.075C342.323,-197.832 307.87,-120.545 292.076,-85.1165"/>
<polygon fill="midnightblue" stroke="midnightblue" points="295.088,-83.2766 287.82,-75.5681 288.694,-86.1268 295.088,-83.2766"/>
</g>
<!-- Node11 -->
<g id="node11" class="node"><title>Node11</title>
<polygon fill="white" stroke="#bfbfbf" points="412.5,-56.5 412.5,-75.5 441.5,-75.5 441.5,-56.5 412.5,-56.5"/>
<text text-anchor="middle" x="427" y="-63.5" font-family="Helvetica,sans-Serif" font-size="10.00">set</text>
</g>
<!-- Node10&#45;&gt;Node11 -->
<g id="edge17" class="edge"><title>Node10&#45;&gt;Node11</title>
<path fill="none" stroke="midnightblue" d="M364.582,-224.372C377.021,-207.588 403.905,-168.941 417,-132 422.311,-117.018 424.803,-99.108 425.971,-85.8852"/>
<polygon fill="midnightblue" stroke="midnightblue" points="429.48,-85.8854 426.695,-75.6632 422.497,-85.3911 429.48,-85.8854"/>
</g>
<!-- Node12 -->
<g id="node12" class="node"><title>Node12</title>
<g id="a_node12"><a xlink:href="sd_entity_8h.html" target="_top" xlink:title="sdEntity.h">
<polygon fill="white" stroke="black" points="350,-112.5 350,-131.5 408,-131.5 408,-112.5 350,-112.5"/>
<text text-anchor="middle" x="379" y="-119.5" font-family="Helvetica,sans-Serif" font-size="10.00">sdEntity.h</text>
</a>
</g>
</g>
<!-- Node10&#45;&gt;Node12 -->
<g id="edge20" class="edge"><title>Node10&#45;&gt;Node12</title>
<path fill="none" stroke="midnightblue" d="M359.648,-224.368C363.037,-206.617 370.855,-165.666 375.45,-141.597"/>
<polygon fill="midnightblue" stroke="midnightblue" points="378.922,-142.07 377.36,-131.591 372.047,-140.758 378.922,-142.07"/>
</g>
<!-- Node10&#45;&gt;Node13 -->
<g id="edge25" class="edge"><title>Node10&#45;&gt;Node13</title>
<path fill="none" stroke="midnightblue" d="M333.915,-224.444C308.455,-215.399 268.106,-201.064 239.541,-190.916"/>
<polygon fill="midnightblue" stroke="midnightblue" points="240.567,-187.566 229.972,-187.516 238.223,-194.162 240.567,-187.566"/>
</g>
<!-- Node12&#45;&gt;Node2 -->
<g id="edge22" class="edge"><title>Node12&#45;&gt;Node2</title>
<path fill="none" stroke="midnightblue" d="M371.4,-112.162C360.637,-99.6498 340.335,-76.0614 323,-56 314.787,-46.4957 305.585,-35.8767 298.183,-27.3419"/>
<polygon fill="midnightblue" stroke="midnightblue" points="300.681,-24.8801 291.484,-19.6203 295.394,-29.4674 300.681,-24.8801"/>
</g>
<!-- Node12&#45;&gt;Node4 -->
<g id="edge24" class="edge"><title>Node12&#45;&gt;Node4</title>
<path fill="none" stroke="midnightblue" d="M363.737,-112.324C348.779,-103.822 325.745,-90.7288 308.273,-80.7975"/>
<polygon fill="midnightblue" stroke="midnightblue" points="309.649,-77.5534 299.226,-75.6545 306.19,-83.639 309.649,-77.5534"/>
</g>
<!-- Node12&#45;&gt;Node5 -->
<g id="edge23" class="edge"><title>Node12&#45;&gt;Node5</title>
<path fill="none" stroke="midnightblue" d="M377.745,-112.368C375.162,-94.617 369.206,-53.6664 365.705,-29.5974"/>
<polygon fill="midnightblue" stroke="midnightblue" points="369.153,-28.9835 364.25,-19.5914 362.226,-29.9911 369.153,-28.9835"/>
</g>
<!-- Node12&#45;&gt;Node11 -->
<g id="edge21" class="edge"><title>Node12&#45;&gt;Node11</title>
<path fill="none" stroke="midnightblue" d="M386.926,-112.083C393.846,-104.298 404.065,-92.8015 412.452,-83.3665"/>
<polygon fill="midnightblue" stroke="midnightblue" points="415.194,-85.5505 419.221,-75.7511 409.962,-80.8999 415.194,-85.5505"/>
</g>
<!-- Node13&#45;&gt;Node2 -->
<g id="edge26" class="edge"><title>Node13&#45;&gt;Node2</title>
<path fill="none" stroke="midnightblue" d="M207.553,-168.305C211.488,-147.725 223.121,-94.8459 245,-56 250.936,-45.4609 259.592,-35.1558 267.243,-27.072"/>
<polygon fill="midnightblue" stroke="midnightblue" points="269.885,-29.3777 274.419,-19.8024 264.903,-24.4598 269.885,-29.3777"/>
</g>
<!-- Node13&#45;&gt;Node3 -->
<g id="edge27" class="edge"><title>Node13&#45;&gt;Node3</title>
<path fill="none" stroke="midnightblue" d="M164.569,-168.47C142.187,-161.919 115.61,-150.712 98,-132 70.7867,-103.083 61.1025,-55.6316 57.7338,-29.5741"/>
<polygon fill="midnightblue" stroke="midnightblue" points="61.2019,-29.0922 56.6169,-19.5409 54.2449,-29.8667 61.2019,-29.0922"/>
</g>
<!-- Node13&#45;&gt;Node4 -->
<g id="edge28" class="edge"><title>Node13&#45;&gt;Node4</title>
<path fill="none" stroke="midnightblue" d="M212.121,-168.368C224.993,-150.215 255.068,-107.802 271.952,-83.9902"/>
<polygon fill="midnightblue" stroke="midnightblue" points="274.979,-85.7733 277.908,-75.5914 269.269,-81.7243 274.979,-85.7733"/>
</g>
<!-- Node13&#45;&gt;Node12 -->
<g id="edge29" class="edge"><title>Node13&#45;&gt;Node12</title>
<path fill="none" stroke="midnightblue" d="M233.412,-168.444C262.769,-159.28 309.519,-144.688 342.096,-134.519"/>
<polygon fill="midnightblue" stroke="midnightblue" points="343.213,-137.837 351.716,-131.516 341.127,-131.155 343.213,-137.837"/>
</g>
</g>
</svg>
