<?xml version="1.0" encoding="UTF-8" standalone="no"?>
<!DOCTYPE svg PUBLIC "-//W3C//DTD SVG 1.1//EN"
 "http://www.w3.org/Graphics/SVG/1.1/DTD/svg11.dtd">
<!-- Generated by graphviz version 2.34.0 (20131206.1153)
 -->
<!-- Title: /Users/lossius/dev/spatdiflib/src/sdSaver.cpp Pages: 1 -->
<svg width="872pt" height="432pt"
 viewBox="0.00 0.00 872.00 432.00" xmlns="http://www.w3.org/2000/svg" xmlns:xlink="http://www.w3.org/1999/xlink">
<g id="graph0" class="graph" transform="scale(1 1) rotate(0) translate(4 428)">
<title>/Users/lossius/dev/spatdiflib/src/sdSaver.cpp</title>
<polygon fill="white" stroke="white" points="-4,4 -4,-428 868,-428 868,4 -4,4"/>
<!-- Node1 -->
<g id="node1" class="node"><title>Node1</title>
<polygon fill="#bfbfbf" stroke="black" points="293,-393 293,-423 423,-423 423,-393 293,-393"/>
<text text-anchor="start" x="301" y="-411" font-family="Helvetica,sans-Serif" font-size="10.00">/Users/lossius/dev</text>
<text text-anchor="middle" x="358" y="-400" font-family="Helvetica,sans-Serif" font-size="10.00">/spatdiflib/src/sdSaver.cpp</text>
</g>
<!-- Node2 -->
<g id="node2" class="node"><title>Node2</title>
<polygon fill="white" stroke="#bfbfbf" points="320.5,-112.5 320.5,-131.5 361.5,-131.5 361.5,-112.5 320.5,-112.5"/>
<text text-anchor="middle" x="341" y="-119.5" font-family="Helvetica,sans-Serif" font-size="10.00">vector</text>
</g>
<!-- Node1&#45;&gt;Node2 -->
<g id="edge1" class="edge"><title>Node1&#45;&gt;Node2</title>
<path fill="none" stroke="midnightblue" d="M349.266,-392.544C331.814,-361.944 295.198,-288.163 306,-224 311.066,-193.906 324.066,-160.799 332.716,-140.967"/>
<polygon fill="midnightblue" stroke="midnightblue" points="335.993,-142.213 336.887,-131.656 329.605,-139.351 335.993,-142.213"/>
</g>
<!-- Node3 -->
<g id="node3" class="node"><title>Node3</title>
<polygon fill="white" stroke="#bfbfbf" points="167,-0.5 167,-19.5 219,-19.5 219,-0.5 167,-0.5"/>
<text text-anchor="middle" x="193" y="-7.5" font-family="Helvetica,sans-Serif" font-size="10.00">iostream</text>
</g>
<!-- Node1&#45;&gt;Node3 -->
<g id="edge2" class="edge"><title>Node1&#45;&gt;Node3</title>
<path fill="none" stroke="midnightblue" d="M292.858,-396.938C199.294,-380.62 38,-344.701 38,-291 38,-291 38,-291 38,-177 38,-102.981 121.349,-48.2547 165.806,-24.3291"/>
<polygon fill="midnightblue" stroke="midnightblue" points="167.677,-27.3006 174.916,-19.5645 164.433,-21.0977 167.677,-27.3006"/>
</g>
<!-- Node4 -->
<g id="node4" class="node"><title>Node4</title>
<polygon fill="white" stroke="#bfbfbf" points="51,-0.5 51,-19.5 101,-19.5 101,-0.5 51,-0.5"/>
<text text-anchor="middle" x="76" y="-7.5" font-family="Helvetica,sans-Serif" font-size="10.00">sstream</text>
</g>
<!-- Node1&#45;&gt;Node4 -->
<g id="edge3" class="edge"><title>Node1&#45;&gt;Node4</title>
<path fill="none" stroke="midnightblue" d="M292.882,-404.017C234.966,-399.307 149.141,-387.182 81,-356 39.0278,-336.793 0,-337.158 0,-291 0,-291 0,-291 0,-121 0,-81.2757 33.9641,-45.5045 56.4821,-26.1536"/>
<polygon fill="midnightblue" stroke="midnightblue" points="58.9755,-28.6337 64.4572,-19.5672 54.518,-23.2364 58.9755,-28.6337"/>
</g>
<!-- Node5 -->
<g id="node5" class="node"><title>Node5</title>
<polygon fill="white" stroke="#bfbfbf" points="167.5,-336.5 167.5,-355.5 220.5,-355.5 220.5,-336.5 167.5,-336.5"/>
<text text-anchor="middle" x="194" y="-343.5" font-family="Helvetica,sans-Serif" font-size="10.00">algorithm</text>
</g>
<!-- Node1&#45;&gt;Node5 -->
<g id="edge4" class="edge"><title>Node1&#45;&gt;Node5</title>
<path fill="none" stroke="midnightblue" d="M319.549,-392.933C291.51,-382.674 253.9,-368.915 227.174,-359.137"/>
<polygon fill="midnightblue" stroke="midnightblue" points="228.101,-355.749 217.507,-355.6 225.695,-362.323 228.101,-355.749"/>
</g>
<!-- Node6 -->
<g id="node6" class="node"><title>Node6</title>
<g id="a_node6"><a xlink:href="sd_const_8h.html" target="_top" xlink:title="sdConst.h">
<polygon fill="white" stroke="black" points="163,-56.5 163,-75.5 223,-75.5 223,-56.5 163,-56.5"/>
<text text-anchor="middle" x="193" y="-63.5" font-family="Helvetica,sans-Serif" font-size="10.00">sdConst.h</text>
</a>
</g>
</g>
<!-- Node1&#45;&gt;Node6 -->
<g id="edge5" class="edge"><title>Node1&#45;&gt;Node6</title>
<path fill="none" stroke="midnightblue" d="M292.933,-403.414C220.652,-395.506 114,-370.386 114,-291 114,-291 114,-291 114,-177 114,-136.795 149.248,-101.221 172.656,-82.0304"/>
<polygon fill="midnightblue" stroke="midnightblue" points="174.97,-84.6628 180.656,-75.7232 170.636,-79.1655 174.97,-84.6628"/>
</g>
<!-- Node8 -->
<g id="node8" class="node"><title>Node8</title>
<g id="a_node8"><a xlink:href="sd_entity_8h.html" target="_top" xlink:title="sdEntity.h">
<polygon fill="white" stroke="black" points="562,-112.5 562,-131.5 620,-131.5 620,-112.5 562,-112.5"/>
<text text-anchor="middle" x="591" y="-119.5" font-family="Helvetica,sans-Serif" font-size="10.00">sdEntity.h</text>
</a>
</g>
</g>
<!-- Node1&#45;&gt;Node8 -->
<g id="edge9" class="edge"><title>Node1&#45;&gt;Node8</title>
<path fill="none" stroke="midnightblue" d="M423.194,-397.499C518.849,-381.698 686,-346.191 686,-291 686,-291 686,-291 686,-233 686,-189.739 643.392,-155.086 615.245,-136.915"/>
<polygon fill="midnightblue" stroke="midnightblue" points="617.03,-133.903 606.687,-131.604 613.339,-139.851 617.03,-133.903"/>
</g>
<!-- Node10 -->
<g id="node10" class="node"><title>Node10</title>
<g id="a_node10"><a xlink:href="sd_entity_extension_8h.html" target="_top" xlink:title="sdEntityExtension.h">
<polygon fill="white" stroke="black" points="444,-168.5 444,-187.5 544,-187.5 544,-168.5 444,-168.5"/>
<text text-anchor="middle" x="494" y="-175.5" font-family="Helvetica,sans-Serif" font-size="10.00">sdEntityExtension.h</text>
</a>
</g>
</g>
<!-- Node1&#45;&gt;Node10 -->
<g id="edge14" class="edge"><title>Node1&#45;&gt;Node10</title>
<path fill="none" stroke="midnightblue" d="M403.276,-392.824C421.891,-384.82 442.073,-372.941 455,-356 491.529,-308.129 495.238,-232.921 494.783,-197.996"/>
<polygon fill="midnightblue" stroke="midnightblue" points="498.276,-197.697 494.51,-187.794 491.279,-197.884 498.276,-197.697"/>
</g>
<!-- Node11 -->
<g id="node11" class="node"><title>Node11</title>
<g id="a_node11"><a xlink:href="sd_scene_8h.html" target="_top" xlink:title="sdScene.h">
<polygon fill="white" stroke="black" points="370,-280.5 370,-299.5 432,-299.5 432,-280.5 370,-280.5"/>
<text text-anchor="middle" x="401" y="-287.5" font-family="Helvetica,sans-Serif" font-size="10.00">sdScene.h</text>
</a>
</g>
</g>
<!-- Node1&#45;&gt;Node11 -->
<g id="edge19" class="edge"><title>Node1&#45;&gt;Node11</title>
<path fill="none" stroke="midnightblue" d="M360.793,-392.82C363.89,-378.266 369.462,-355.111 377,-336 380.696,-326.631 385.846,-316.703 390.428,-308.563"/>
<polygon fill="midnightblue" stroke="midnightblue" points="393.593,-310.082 395.599,-299.679 387.544,-306.56 393.593,-310.082"/>
</g>
<!-- Node16 -->
<g id="node16" class="node"><title>Node16</title>
<g id="a_node16"><a xlink:href="sd_saver_8h.html" target="_top" xlink:title="sdSaver.h">
<polygon fill="white" stroke="black" points="386,-336.5 386,-355.5 446,-355.5 446,-336.5 386,-336.5"/>
<text text-anchor="middle" x="416" y="-343.5" font-family="Helvetica,sans-Serif" font-size="10.00">sdSaver.h</text>
</a>
</g>
</g>
<!-- Node1&#45;&gt;Node16 -->
<g id="edge39" class="edge"><title>Node1&#45;&gt;Node16</title>
<path fill="none" stroke="midnightblue" d="M371.745,-392.781C380.347,-383.882 391.452,-372.394 400.386,-363.152"/>
<polygon fill="midnightblue" stroke="midnightblue" points="403.127,-365.353 407.56,-355.731 398.094,-360.488 403.127,-365.353"/>
</g>
<!-- Node17 -->
<g id="node17" class="node"><title>Node17</title>
<polygon fill="white" stroke="#bfbfbf" points="714,-336.5 714,-355.5 772,-355.5 772,-336.5 714,-336.5"/>
<text text-anchor="middle" x="743" y="-343.5" font-family="Helvetica,sans-Serif" font-size="10.00">tinyxml2.h</text>
</g>
<!-- Node1&#45;&gt;Node17 -->
<g id="edge42" class="edge"><title>Node1&#45;&gt;Node17</title>
<path fill="none" stroke="midnightblue" d="M423.112,-398.441C492.056,-389.109 603.976,-373.194 700,-356 701.267,-355.773 702.554,-355.537 703.852,-355.294"/>
<polygon fill="midnightblue" stroke="midnightblue" points="704.758,-358.683 713.9,-353.33 703.415,-351.813 704.758,-358.683"/>
</g>
<!-- Node18 -->
<g id="node18" class="node"><title>Node18</title>
<polygon fill="white" stroke="#bfbfbf" points="790.5,-336.5 790.5,-355.5 863.5,-355.5 863.5,-336.5 790.5,-336.5"/>
<text text-anchor="middle" x="827" y="-343.5" font-family="Helvetica,sans-Serif" font-size="10.00">JSONNode.h</text>
</g>
<!-- Node1&#45;&gt;Node18 -->
<g id="edge43" class="edge"><title>Node1&#45;&gt;Node18</title>
<path fill="none" stroke="midnightblue" d="M423.062,-400.65C504.259,-392.392 647.57,-376.718 780.431,-355.981"/>
<polygon fill="midnightblue" stroke="midnightblue" points="781.05,-359.427 790.385,-354.415 779.962,-352.512 781.05,-359.427"/>
</g>
<!-- Node6&#45;&gt;Node3 -->
<g id="edge7" class="edge"><title>Node6&#45;&gt;Node3</title>
<path fill="none" stroke="midnightblue" d="M193,-56.083C193,-49.0059 193,-38.8611 193,-29.9865"/>
<polygon fill="midnightblue" stroke="midnightblue" points="196.5,-29.751 193,-19.7511 189.5,-29.7511 196.5,-29.751"/>
</g>
<!-- Node6&#45;&gt;Node4 -->
<g id="edge8" class="edge"><title>Node6&#45;&gt;Node4</title>
<path fill="none" stroke="midnightblue" d="M174.461,-56.4435C155.377,-47.6356 125.425,-33.8116 103.564,-23.722"/>
<polygon fill="midnightblue" stroke="midnightblue" points="104.999,-20.5292 94.4523,-19.5164 102.065,-26.8849 104.999,-20.5292"/>
</g>
<!-- Node7 -->
<g id="node7" class="node"><title>Node7</title>
<polygon fill="white" stroke="#bfbfbf" points="511,-0.5 511,-19.5 549,-19.5 549,-0.5 511,-0.5"/>
<text text-anchor="middle" x="530" y="-7.5" font-family="Helvetica,sans-Serif" font-size="10.00">string</text>
</g>
<!-- Node6&#45;&gt;Node7 -->
<g id="edge6" class="edge"><title>Node6&#45;&gt;Node7</title>
<path fill="none" stroke="midnightblue" d="M223.203,-60.1603C287.499,-49.8578 437.205,-25.8692 500.696,-15.6956"/>
<polygon fill="midnightblue" stroke="midnightblue" points="501.496,-19.1122 510.816,-14.074 500.388,-12.2003 501.496,-19.1122"/>
</g>
<!-- Node8&#45;&gt;Node3 -->
<g id="edge12" class="edge"><title>Node8&#45;&gt;Node3</title>
<path fill="none" stroke="midnightblue" d="M561.734,-112.911C490.264,-93.1583 306.99,-42.5047 229.001,-20.9499"/>
<polygon fill="midnightblue" stroke="midnightblue" points="229.723,-17.5185 219.152,-18.228 227.859,-24.2656 229.723,-17.5185"/>
</g>
<!-- Node8&#45;&gt;Node6 -->
<g id="edge13" class="edge"><title>Node8&#45;&gt;Node6</title>
<path fill="none" stroke="midnightblue" d="M561.922,-114.543C557.279,-113.619 552.517,-112.734 548,-112 411.529,-89.815 375.613,-97.2898 239,-76 237.07,-75.6993 235.098,-75.3758 233.108,-75.0366"/>
<polygon fill="midnightblue" stroke="midnightblue" points="233.591,-71.5672 223.129,-73.2405 232.351,-78.4565 233.591,-71.5672"/>
</g>
<!-- Node8&#45;&gt;Node7 -->
<g id="edge11" class="edge"><title>Node8&#45;&gt;Node7</title>
<path fill="none" stroke="midnightblue" d="M586.213,-112.368C576.236,-94.376 553.042,-52.5503 539.775,-28.6267"/>
<polygon fill="midnightblue" stroke="midnightblue" points="542.675,-26.6393 534.764,-19.5914 536.553,-30.0342 542.675,-26.6393"/>
</g>
<!-- Node9 -->
<g id="node9" class="node"><title>Node9</title>
<polygon fill="white" stroke="#bfbfbf" points="601.5,-56.5 601.5,-75.5 630.5,-75.5 630.5,-56.5 601.5,-56.5"/>
<text text-anchor="middle" x="616" y="-63.5" font-family="Helvetica,sans-Serif" font-size="10.00">set</text>
</g>
<!-- Node8&#45;&gt;Node9 -->
<g id="edge10" class="edge"><title>Node8&#45;&gt;Node9</title>
<path fill="none" stroke="midnightblue" d="M595.128,-112.083C598.514,-104.77 603.416,-94.1814 607.619,-85.1034"/>
<polygon fill="midnightblue" stroke="midnightblue" points="610.923,-86.2962 611.949,-75.7511 604.571,-83.3553 610.923,-86.2962"/>
</g>
<!-- Node10&#45;&gt;Node2 -->
<g id="edge16" class="edge"><title>Node10&#45;&gt;Node2</title>
<path fill="none" stroke="midnightblue" d="M469.757,-168.444C443.074,-159.026 400.145,-143.875 371.272,-133.684"/>
<polygon fill="midnightblue" stroke="midnightblue" points="372.29,-130.332 361.695,-130.304 369.96,-136.933 372.29,-130.332"/>
</g>
<!-- Node10&#45;&gt;Node6 -->
<g id="edge17" class="edge"><title>Node10&#45;&gt;Node6</title>
<path fill="none" stroke="midnightblue" d="M480.366,-168.486C458.048,-154.869 411.99,-128.088 370,-112 345.21,-102.502 277.117,-86.1751 232.979,-76.0173"/>
<polygon fill="midnightblue" stroke="midnightblue" points="233.661,-72.5831 223.132,-73.762 232.099,-79.4064 233.661,-72.5831"/>
</g>
<!-- Node10&#45;&gt;Node7 -->
<g id="edge15" class="edge"><title>Node10&#45;&gt;Node7</title>
<path fill="none" stroke="midnightblue" d="M495.936,-168.075C501.602,-141.945 518.243,-65.2106 525.971,-29.577"/>
<polygon fill="midnightblue" stroke="midnightblue" points="529.443,-30.0828 528.142,-19.5681 522.602,-28.5991 529.443,-30.0828"/>
</g>
<!-- Node10&#45;&gt;Node8 -->
<g id="edge18" class="edge"><title>Node10&#45;&gt;Node8</title>
<path fill="none" stroke="midnightblue" d="M509.585,-168.324C524.999,-159.743 548.812,-146.486 566.71,-136.522"/>
<polygon fill="midnightblue" stroke="midnightblue" points="568.419,-139.577 575.454,-131.655 565.014,-133.461 568.419,-139.577"/>
</g>
<!-- Node11&#45;&gt;Node2 -->
<g id="edge21" class="edge"><title>Node11&#45;&gt;Node2</title>
<path fill="none" stroke="midnightblue" d="M397.774,-280.075C388.289,-253.832 360.354,-176.545 347.548,-141.117"/>
<polygon fill="midnightblue" stroke="midnightblue" points="350.788,-139.783 344.097,-131.568 344.205,-142.162 350.788,-139.783"/>
</g>
<!-- Node11&#45;&gt;Node6 -->
<g id="edge22" class="edge"><title>Node11&#45;&gt;Node6</title>
<path fill="none" stroke="midnightblue" d="M369.906,-283.267C323.522,-272.965 237.067,-246.666 194,-188 171.909,-157.907 180.005,-111.289 187.024,-85.5874"/>
<polygon fill="midnightblue" stroke="midnightblue" points="190.477,-86.2556 189.968,-75.673 183.766,-84.263 190.477,-86.2556"/>
</g>
<!-- Node11&#45;&gt;Node7 -->
<g id="edge20" class="edge"><title>Node11&#45;&gt;Node7</title>
<path fill="none" stroke="midnightblue" d="M432.091,-286.254C519.657,-277.672 762,-247.713 762,-179 762,-179 762,-179 762,-121 762,-32.2994 621.827,-15.0312 559.394,-11.7392"/>
<polygon fill="midnightblue" stroke="midnightblue" points="559.526,-8.24167 549.381,-11.297 559.217,-15.2349 559.526,-8.24167"/>
</g>
<!-- Node11&#45;&gt;Node10 -->
<g id="edge38" class="edge"><title>Node11&#45;&gt;Node10</title>
<path fill="none" stroke="midnightblue" d="M408.298,-280.368C423.781,-262.055 460.14,-219.049 480.166,-195.362"/>
<polygon fill="midnightblue" stroke="midnightblue" points="482.953,-197.488 486.736,-187.591 477.607,-192.968 482.953,-197.488"/>
</g>
<!-- Node12 -->
<g id="node12" class="node"><title>Node12</title>
<g id="a_node12"><a xlink:href="sd_info_8h.html" target="_top" xlink:title="sdInfo.h">
<polygon fill="white" stroke="black" points="315,-224.5 315,-243.5 365,-243.5 365,-224.5 315,-224.5"/>
<text text-anchor="middle" x="340" y="-231.5" font-family="Helvetica,sans-Serif" font-size="10.00">sdInfo.h</text>
</a>
</g>
</g>
<!-- Node11&#45;&gt;Node12 -->
<g id="edge23" class="edge"><title>Node11&#45;&gt;Node12</title>
<path fill="none" stroke="midnightblue" d="M391.199,-280.324C382.182,-272.341 368.594,-260.313 357.682,-250.653"/>
<polygon fill="midnightblue" stroke="midnightblue" points="359.787,-247.842 349.979,-243.834 355.147,-253.083 359.787,-247.842"/>
</g>
<!-- Node15 -->
<g id="node15" class="node"><title>Node15</title>
<g id="a_node15"><a xlink:href="sd_entity_core_8h.html" target="_top" xlink:title="sdEntityCore.h">
<polygon fill="white" stroke="black" points="552,-224.5 552,-243.5 630,-243.5 630,-224.5 552,-224.5"/>
<text text-anchor="middle" x="591" y="-231.5" font-family="Helvetica,sans-Serif" font-size="10.00">sdEntityCore.h</text>
</a>
</g>
</g>
<!-- Node11&#45;&gt;Node15 -->
<g id="edge32" class="edge"><title>Node11&#45;&gt;Node15</title>
<path fill="none" stroke="midnightblue" d="M431.106,-280.444C463.626,-271.201 515.579,-256.436 551.391,-246.257"/>
<polygon fill="midnightblue" stroke="midnightblue" points="552.373,-249.617 561.035,-243.516 550.459,-242.884 552.373,-249.617"/>
</g>
<!-- Node12&#45;&gt;Node2 -->
<g id="edge25" class="edge"><title>Node12&#45;&gt;Node2</title>
<path fill="none" stroke="midnightblue" d="M340.078,-224.368C340.24,-206.617 340.612,-165.666 340.831,-141.597"/>
<polygon fill="midnightblue" stroke="midnightblue" points="344.331,-141.623 340.922,-131.591 337.331,-141.559 344.331,-141.623"/>
</g>
<!-- Node12&#45;&gt;Node6 -->
<g id="edge26" class="edge"><title>Node12&#45;&gt;Node6</title>
<path fill="none" stroke="midnightblue" d="M314.93,-225.931C278.87,-215.535 215.909,-196.445 209,-188 185.157,-158.856 186.706,-111.869 189.883,-85.8537"/>
<polygon fill="midnightblue" stroke="midnightblue" points="193.369,-86.2035 191.324,-75.8078 186.44,-85.2096 193.369,-86.2035"/>
</g>
<!-- Node12&#45;&gt;Node7 -->
<g id="edge24" class="edge"><title>Node12&#45;&gt;Node7</title>
<path fill="none" stroke="midnightblue" d="M347.448,-224.297C375.878,-191.079 477.863,-71.9179 515.721,-27.6839"/>
<polygon fill="midnightblue" stroke="midnightblue" points="518.554,-29.757 522.397,-19.8837 513.235,-25.2054 518.554,-29.757"/>
</g>
<!-- Node13 -->
<g id="node13" class="node"><title>Node13</title>
<g id="a_node13"><a xlink:href="sd_date_8h.html" target="_top" xlink:title="sdDate.h">
<polygon fill="white" stroke="black" points="218,-168.5 218,-187.5 274,-187.5 274,-168.5 218,-168.5"/>
<text text-anchor="middle" x="246" y="-175.5" font-family="Helvetica,sans-Serif" font-size="10.00">sdDate.h</text>
</a>
</g>
</g>
<!-- Node12&#45;&gt;Node13 -->
<g id="edge27" class="edge"><title>Node12&#45;&gt;Node13</title>
<path fill="none" stroke="midnightblue" d="M324.897,-224.324C310.097,-215.822 287.306,-202.729 270.018,-192.797"/>
<polygon fill="midnightblue" stroke="midnightblue" points="271.48,-189.601 261.065,-187.655 267.993,-195.671 271.48,-189.601"/>
</g>
<!-- Node13&#45;&gt;Node2 -->
<g id="edge28" class="edge"><title>Node13&#45;&gt;Node2</title>
<path fill="none" stroke="midnightblue" d="M261.263,-168.324C276.221,-159.822 299.255,-146.729 316.727,-136.797"/>
<polygon fill="midnightblue" stroke="midnightblue" points="318.81,-139.639 325.774,-131.655 315.351,-133.553 318.81,-139.639"/>
</g>
<!-- Node13&#45;&gt;Node4 -->
<g id="edge31" class="edge"><title>Node13&#45;&gt;Node4</title>
<path fill="none" stroke="midnightblue" d="M236.86,-168.075C209.406,-141.267 127.4,-61.1902 92.2679,-26.8851"/>
<polygon fill="midnightblue" stroke="midnightblue" points="94.3746,-24.0504 84.7746,-19.5681 89.4841,-29.0587 94.3746,-24.0504"/>
</g>
<!-- Node13&#45;&gt;Node7 -->
<g id="edge30" class="edge"><title>Node13&#45;&gt;Node7</title>
<path fill="none" stroke="midnightblue" d="M253.44,-168.359C264.97,-155.261 288.207,-130.003 311,-112 348.266,-82.5648 359.133,-76.4361 402,-56 434.849,-40.3396 474.667,-27.1921 501.08,-19.2279"/>
<polygon fill="midnightblue" stroke="midnightblue" points="502.247,-22.5325 510.841,-16.3366 500.259,-15.8207 502.247,-22.5325"/>
</g>
<!-- Node14 -->
<g id="node14" class="node"><title>Node14</title>
<polygon fill="white" stroke="#bfbfbf" points="226,-112.5 226,-131.5 264,-131.5 264,-112.5 226,-112.5"/>
<text text-anchor="middle" x="245" y="-119.5" font-family="Helvetica,sans-Serif" font-size="10.00">ctime</text>
</g>
<!-- Node13&#45;&gt;Node14 -->
<g id="edge29" class="edge"><title>Node13&#45;&gt;Node14</title>
<path fill="none" stroke="midnightblue" d="M245.835,-168.083C245.704,-161.006 245.516,-150.861 245.352,-141.986"/>
<polygon fill="midnightblue" stroke="midnightblue" points="248.847,-141.685 245.162,-131.751 241.848,-141.814 248.847,-141.685"/>
</g>
<!-- Node15&#45;&gt;Node6 -->
<g id="edge35" class="edge"><title>Node15&#45;&gt;Node6</title>
<path fill="none" stroke="midnightblue" d="M588.028,-224.157C582.953,-210.325 571.351,-183.547 553,-168 458.705,-88.1125 305.553,-71.1876 233.241,-67.7597"/>
<polygon fill="midnightblue" stroke="midnightblue" points="233.31,-64.2597 223.175,-67.346 233.023,-71.2538 233.31,-64.2597"/>
</g>
<!-- Node15&#45;&gt;Node7 -->
<g id="edge34" class="edge"><title>Node15&#45;&gt;Node7</title>
<path fill="none" stroke="midnightblue" d="M600.798,-224.315C609.705,-215.889 622.559,-202.309 630,-188 657.13,-135.83 673.841,-103.37 639,-56 620.32,-30.6018 584.669,-19.4763 559.226,-14.6427"/>
<polygon fill="midnightblue" stroke="midnightblue" points="559.467,-11.1344 549.026,-12.9331 558.31,-18.0381 559.467,-11.1344"/>
</g>
<!-- Node15&#45;&gt;Node8 -->
<g id="edge36" class="edge"><title>Node15&#45;&gt;Node8</title>
<path fill="none" stroke="midnightblue" d="M591,-224.368C591,-206.617 591,-165.666 591,-141.597"/>
<polygon fill="midnightblue" stroke="midnightblue" points="594.5,-141.591 591,-131.591 587.5,-141.591 594.5,-141.591"/>
</g>
<!-- Node15&#45;&gt;Node9 -->
<g id="edge33" class="edge"><title>Node15&#45;&gt;Node9</title>
<path fill="none" stroke="midnightblue" d="M595.463,-224.389C604.027,-207.323 622.496,-167.759 629,-132 631.864,-116.255 627.78,-98.4353 623.452,-85.4413"/>
<polygon fill="midnightblue" stroke="midnightblue" points="626.646,-83.9869 619.906,-75.8127 620.078,-86.4061 626.646,-83.9869"/>
</g>
<!-- Node15&#45;&gt;Node10 -->
<g id="edge37" class="edge"><title>Node15&#45;&gt;Node10</title>
<path fill="none" stroke="midnightblue" d="M575.415,-224.324C560.001,-215.743 536.188,-202.486 518.29,-192.522"/>
<polygon fill="midnightblue" stroke="midnightblue" points="519.986,-189.461 509.546,-187.655 516.581,-195.577 519.986,-189.461"/>
</g>
<!-- Node16&#45;&gt;Node7 -->
<g id="edge40" class="edge"><title>Node16&#45;&gt;Node7</title>
<path fill="none" stroke="midnightblue" d="M446.132,-342.883C536.656,-335.706 800,-308.509 800,-235 800,-235 800,-235 800,-121 800,-85.0879 782.286,-75.2993 752,-56 691.49,-17.4402 604.464,-10.9865 559.457,-10.4607"/>
<polygon fill="midnightblue" stroke="midnightblue" points="559.227,-6.96026 549.219,-10.4369 559.211,-13.9602 559.227,-6.96026"/>
</g>
<!-- Node16&#45;&gt;Node11 -->
<g id="edge41" class="edge"><title>Node16&#45;&gt;Node11</title>
<path fill="none" stroke="midnightblue" d="M413.523,-336.083C411.514,-328.849 408.614,-318.409 406.11,-309.397"/>
<polygon fill="midnightblue" stroke="midnightblue" points="409.48,-308.449 403.431,-299.751 402.735,-310.323 409.48,-308.449"/>
</g>
</g>
</svg>
